<?xml version="1.0" encoding="UTF-8"?>
<svg data-name="Layer 1" version="1.1" viewBox="0 0 641.74 334.78" xmlns="http://www.w3.org/2000/svg"><defs><style>.cls-1{fill:#fff;}</style></defs><title>logo</title><path class="cls-1" d="M345.19,134.46c-5.26-39.65-31.88-73.39-64.53-92.87a147,147,0,0,0-26.28-12.31C180.16-10,82.74,17.74,35.19,88.39a2.75,2.75,0,0,0-4.47,1.22Q28.55,96.24,26.44,103A130.79,130.79,0,0,0,11.73,171.4,161.55,161.55,0,0,0,14,216.08a118.82,118.82,0,0,0,26.05,53.67c14.45,17,33.55,29.1,53.39,37.95,70.95,31.63,167.22,17.91,217.65-46.49A145.17,145.17,0,0,0,340.6,191.4,139.93,139.93,0,0,0,345.19,134.46ZM317,220.67c-19.11,35.18-50,63.58-85.69,79.29-74.47,32.8-166.16-10.27-199.2-85.52a125.48,125.48,0,0,1-5.84-16.28c.11-21,1.12-41.32,8.13-61.31A138.84,138.84,0,0,1,60,93.12c22.74-26.66,54-44.68,86.69-54.14,32.91-9.52,68.35-10.21,101.13.24,1.9.6,3.79,1.26,5.67,2A148.39,148.39,0,0,1,278,58.37c32,27.63,53.33,69.06,53.87,112.79a124.81,124.81,0,0,1-.54,13.11A159.36,159.36,0,0,1,317,220.67ZM153.33,24.3a151.49,151.49,0,0,1,16.28-1.94,202.6,202.6,0,0,0-86,35C63.23,72,45.55,91,33.39,113.61Q31.05,118,29,122.49a136.9,136.9,0,0,1,12-24C66.12,58.29,108.46,32.13,153.33,24.3ZM28,229.66c13.55,25.95,34.38,47.75,58.36,63.55a140,140,0,0,1-34.08-24.73A102.72,102.72,0,0,1,28,229.66Z"/><path class="cls-1" d="m299.74 146.39c0.49-6-7.76-8.12-10-3.33-9.91 20.92-13 31.94-32.35 57.13-13.88 18.11-30.06 29.95-51.76 33.91-23.91 4.36-49.62 3.57-73-3.36a90.66 90.66 0 0 1-30.55-16.17c-9.87-7.72-19.6-17-25.35-28.55a30.64 30.64 0 0 1-2-5.14 5.77 5.77 0 0 0-7.39-4l-0.32-0.51c-3.51-5.57-12-1.48-9 4.78 11.49 24.4 25.37 46 46.56 62.26 2.58 2 5.25 3.84 8 5.58 19.09 13.59 41.2 22.2 64.75 23.21 46.78 2 94.62-30.8 111.22-76.51 0.72-2 1.33-4 1.9-6 5.55-13.79 8.05-28.45 9.29-43.3zm-114.2 101.81c16.07-0.81 32.33-3.43 46.88-10.25a110.57 110.57 0 0 1-19.85 10.33c-27.2 10.81-57 8.77-82.88-3.36-2.3-1.27-4.57-2.61-6.78-4.09-0.91-0.6-1.8-1.24-2.68-1.87 20.56 8.31 43.52 10.34 65.31 9.24z"/><path class="cls-1" d="m70.67 163.69a38.64 38.64 0 0 0-16.28 7.39 15.3 15.3 0 0 0-5.39 8.56 10.3 10.3 0 0 0-3.23 6.13c-0.34 3.14 3.07 6.3 6 5.31 4.1-1.37 7.58-5.94 11.05-8.64 4.11-3.2 8.37-6.22 12.11-9.9 3.64-3.54 0.63-9.87-4.26-8.85z"/><path class="cls-1" d="m308.2 149.74a65 65 0 0 0-7-6.18c-3.23-3.18-6.23-6.63-9.24-10-4-4.48-11.63-0.2-10.38 5.12a4.49 4.49 0 0 0 0.64 2.26 24.28 24.28 0 0 0 3.43 4.46 124.68 124.68 0 0 0 11.79 13.44 5.82 5.82 0 0 0 8 0.57c3.56-1.3 5.96-6.31 2.76-9.67z"/><path class="cls-1" d="M372.37,186.94v17.5H394v-17.5h8v41.59h-8V211H372.37v17.56h-8V186.94Z"/><path class="cls-1" d="m420.24 200.19q5.36 0 8.19 2.28a7.71 7.71 0 0 1 2.83 6.36v13.6q0 1.58 1.28 1.58a3.86 3.86 0 0 0 1.5-0.46 6.66 6.66 0 0 0 1.62-1.06v4.23a13.71 13.71 0 0 1-7 2.35 5.76 5.76 0 0 1-3-0.66 3.59 3.59 0 0 1-1.47-2.32 14.48 14.48 0 0 1-8.42 3 7.29 7.29 0 0 1-5.17-2 6.42 6.42 0 0 1-2.16-4.85 7.56 7.56 0 0 1 2.14-5.69q2.14-2.08 7.5-3.63l5.92-1.73v-1.28q0-4.08-4.94-4.08a11.84 11.84 0 0 0-5 1.16 14.26 14.26 0 0 0-4.55 3.42v-6.58a16.9 16.9 0 0 1 10.73-3.64zm-4.46 20.9a3.22 3.22 0 0 0 1 2.44 3.34 3.34 0 0 0 2.4 0.92 7.22 7.22 0 0 0 4.82-2.2v-7.32a34 34 0 0 0-4.81 2 8.81 8.81 0 0 0-2.56 1.88 3.44 3.44 0 0 0-0.85 2.28z"/><path class="cls-1" d="M454,200.19a12.39,12.39,0,0,1,9.6,4,14.8,14.8,0,0,1,3.65,10.39,16.07,16.07,0,0,1-1.71,7.5,12.5,12.5,0,0,1-4.87,5.15,13.89,13.89,0,0,1-7.14,1.85,14.47,14.47,0,0,1-6.52-1.64v15.12h-7.32V200.73h7.26v1.79A12.05,12.05,0,0,1,454,200.19Zm-7,21.88a10.35,10.35,0,0,0,5.12,1.58,6.88,6.88,0,0,0,5.54-2.47,9.54,9.54,0,0,0,2.08-6.37,10.68,10.68,0,0,0-1.86-6.67,6.28,6.28,0,0,0-5.28-2.41,7.21,7.21,0,0,0-2.47.43A14,14,0,0,0,447,208Z"/><path class="cls-1" d="m487.4 200.19a12.39 12.39 0 0 1 9.6 4 14.8 14.8 0 0 1 3.65 10.39 16.07 16.07 0 0 1-1.71 7.5 12.5 12.5 0 0 1-4.87 5.15 13.89 13.89 0 0 1-7.14 1.85 14.47 14.47 0 0 1-6.52-1.64v15.12h-7.32v-41.83h7.26v1.79a12.05 12.05 0 0 1 7.05-2.33zm-7 21.88a10.35 10.35 0 0 0 5.12 1.58 6.88 6.88 0 0 0 5.54-2.47 9.54 9.54 0 0 0 2.08-6.37 10.68 10.68 0 0 0-1.86-6.67 6.28 6.28 0 0 0-5.28-2.41 7.21 7.21 0 0 0-2.47 0.43 14 14 0 0 0-3.13 1.83z"/><path class="cls-1" d="m510.38 187.86a4.17 4.17 0 0 1 4.14 4.14 4.09 4.09 0 0 1-1.21 2.9 4 4 0 0 1-5.83 0 4 4 0 0 1-1.24-2.9 3.92 3.92 0 0 1 1.25-2.93 4 4 0 0 1 2.89-1.21zm3.62 12.87v27.8h-7.32v-27.8z"/><path class="cls-1" d="m537.71 200.19a9.16 9.16 0 0 1 7.13 2.93 11 11 0 0 1 2.66 7.72v17.68h-7.29v-16.93a6.56 6.56 0 0 0-1.29-4.29 4.32 4.32 0 0 0-3.53-1.58 5.63 5.63 0 0 0-3.19 1 15 15 0 0 0-3.27 3.32v18.49h-7.32v-27.8h7.32v3.9a13 13 0 0 1 4.15-3.41 10.52 10.52 0 0 1 4.63-1.03z"/><path class="cls-1" d="m567 200.19a12.46 12.46 0 0 1 9.7 3.93q3.57 3.93 3.57 10.87v1.1h-19.63a8.57 8.57 0 0 0 2.78 5.73 9.52 9.52 0 0 0 6.42 2 14.28 14.28 0 0 0 5-0.91 22.08 22.08 0 0 0 5-2.75v5.45a20 20 0 0 1-11.84 3.46 15 15 0 0 1-10.75-4 13.85 13.85 0 0 1-4.17-10.54 14.35 14.35 0 0 1 3.92-10.32 13.3 13.3 0 0 1 10-4.02zm6.4 11.46a8.06 8.06 0 0 0-1.85-4.75 5.45 5.45 0 0 0-4.26-1.71 6.11 6.11 0 0 0-4.45 1.64 8.08 8.08 0 0 0-2.13 4.82z"/><path class="cls-1" d="M595.08,200.19a17.35,17.35,0,0,1,4.32.52,21.87,21.87,0,0,1,4.29,1.65v5.87a20.61,20.61,0,0,0-4.46-2.16,13.28,13.28,0,0,0-4.26-.82,4.42,4.42,0,0,0-2.47.6,1.92,1.92,0,0,0-.89,1.7,1.71,1.71,0,0,0,.74,1.25,27.72,27.72,0,0,0,4.08,2.29,25,25,0,0,1,6.68,4.45,6.89,6.89,0,0,1,1.92,4.9,7.76,7.76,0,0,1-2.8,6.33,11.53,11.53,0,0,1-7.56,2.31,22.48,22.48,0,0,1-5.55-.66,18.55,18.55,0,0,1-4.27-1.58v-6.1q5.36,3,9,3a6,6,0,0,0,3-.67,2,2,0,0,0,1.16-1.77,1.89,1.89,0,0,0-.42-1.19,5.48,5.48,0,0,0-1.25-1.1q-.83-.57-5.21-2.71a14.89,14.89,0,0,1-5-3.5,6.7,6.7,0,0,1-1.61-4.48,7,7,0,0,1,2.89-5.89A12.18,12.18,0,0,1,595.08,200.19Z"/><path class="cls-1" d="M619.7,200.19a17.34,17.34,0,0,1,4.32.52,21.9,21.9,0,0,1,4.29,1.65v5.87a20.66,20.66,0,0,0-4.47-2.16,13.28,13.28,0,0,0-4.26-.82,4.42,4.42,0,0,0-2.47.6,1.92,1.92,0,0,0-.89,1.7,1.71,1.71,0,0,0,.74,1.25,27.69,27.69,0,0,0,4.08,2.29,25,25,0,0,1,6.68,4.45,6.89,6.89,0,0,1,1.92,4.9,7.76,7.76,0,0,1-2.8,6.33,11.53,11.53,0,0,1-7.56,2.31,22.48,22.48,0,0,1-5.55-.66,18.58,18.58,0,0,1-4.27-1.58v-6.1q5.36,3,9,3a6,6,0,0,0,3-.67,2,2,0,0,0,1.16-1.77,1.89,1.89,0,0,0-.42-1.19A5.47,5.47,0,0,0,621,219q-.83-.57-5.21-2.71a14.88,14.88,0,0,1-5-3.5,6.69,6.69,0,0,1-1.61-4.48,7,7,0,0,1,2.89-5.89A12.18,12.18,0,0,1,619.7,200.19Z"/><path class="cls-1" d="M426.6,240.15l13.67,16.4,13.66-16.4h7.17v41.59h-8v-29.2h-.24l-12,14.65h-1.13l-12-14.65h-.24v29.2h-8V240.15Z"/><path class="cls-1" d="m481.79 253.4a12.46 12.46 0 0 1 9.71 3.93q3.57 3.93 3.57 10.87v1.1h-19.68a8.57 8.57 0 0 0 2.78 5.73 9.52 9.52 0 0 0 6.42 2 14.28 14.28 0 0 0 5-0.91 22.07 22.07 0 0 0 5-2.75v5.45a20 20 0 0 1-11.85 3.45 15 15 0 0 1-10.75-4 13.85 13.85 0 0 1-4.17-10.54 14.35 14.35 0 0 1 3.86-10.36 13.29 13.29 0 0 1 10.11-3.97zm6.4 11.46a8 8 0 0 0-1.85-4.75 5.45 5.45 0 0 0-4.26-1.71 6.11 6.11 0 0 0-4.45 1.64 8.08 8.08 0 0 0-2.13 4.82z"/><path class="cls-1" d="M508.43,246.55h.6v7.38h9.53v5.54H509V272.3a4.17,4.17,0,0,0,1.13,3,4.12,4.12,0,0,0,3.1,1.16,12.53,12.53,0,0,0,5.89-1.85v5.86a18.41,18.41,0,0,1-7.44,1.76,10.09,10.09,0,0,1-7.34-2.56,9.23,9.23,0,0,1-2.63-6.94V259.47h-4.35v-1.19Z"/><path class="cls-1" d="m535.76 253.4a12.46 12.46 0 0 1 9.7 3.93q3.57 3.93 3.57 10.87v1.1h-19.67a8.57 8.57 0 0 0 2.78 5.73 9.52 9.52 0 0 0 6.42 2 14.28 14.28 0 0 0 5-0.91 22.08 22.08 0 0 0 5-2.75v5.45a20 20 0 0 1-11.85 3.45 15 15 0 0 1-10.75-4 13.85 13.85 0 0 1-4.17-10.54 14.35 14.35 0 0 1 3.85-10.36 13.3 13.3 0 0 1 10.12-3.97zm6.4 11.46a8.06 8.06 0 0 0-1.85-4.75 5.45 5.45 0 0 0-4.26-1.71 6.11 6.11 0 0 0-4.45 1.64 8.08 8.08 0 0 0-2.13 4.82z"/><path class="cls-1" d="M570.68,253.4a6.77,6.77,0,0,1,2.87.66,16,16,0,0,1,3.29,2.2l-2.62,6.4q-3.19-2.38-5.12-2.38a5.48,5.48,0,0,0-3.35,1.27,9.05,9.05,0,0,0-2.65,3.35,9.58,9.58,0,0,0-1,4.17v12.68h-7.32v-27.8h7.32V261h.12a19.31,19.31,0,0,1,4-5.82A6.54,6.54,0,0,1,570.68,253.4Z"/><path class="cls-1" d="M378.08,104.1h1.31c5.14,0,7.67-2.44,7.67-7.15V57.73h10.37V86.84H398V97.21h-.52c-.52,13.33-8.45,17.08-18,17.08h-1.39Z"/><path class="cls-1" d="m396.56 86.84h36.69v10.37h-36.69z"/><path class="cls-1" d="M431,86.84h36.69V97.21H431Z"/><path class="cls-1" d="M493.39,86.84V71.76h10.37V86.84h11.85V64.79H526V86.84h11.59V57.73H548V97.21H466.29V86.84Zm14.73-45.41h10.37V52H508.12Zm7.5-14.73H526V37.25H515.62Zm7.32,14.73h10.37V52H522.94Z"/><path class="cls-1" d="M555.89,114.3V103.75h14.29c2,0,3.31-.44,3.83-1.39a4,4,0,0,0,.61-2.18v-3h-2.35c-9.67,0-16.39-6.36-16.39-15.86V73.51c0-9.33,6.71-15.78,16.39-15.78h12.81V86.84h.52V97.21h-.52v1.66c0,9.94-5.67,15.43-15.86,15.43Zm19.79-75.22V43h-3.49c-1.66,0-2.53,1-2.53,2.88,0,1.57.87,2.35,2.7,2.35h5v4.1H563.9v-4.1h2.27a5.37,5.37,0,0,1-.52-2.27,6.66,6.66,0,0,1,7-6.89Zm-1,29h-2.7c-3.75,0-5.67,2.09-5.67,6.36v5.93c0,4.27,1.92,6.45,5.67,6.45h2.7Z"/><path class="cls-1" d="M598,97.21h-12.9V86.84H598V73.51c0-9.33,6.62-15.78,16.39-15.78h12.81V89c0,9.94-6.45,16.39-16.39,16.39H598Zm10.37-2.27H611c3.83,0,5.67-2.09,5.67-6.36V68.1H614c-3.83,0-5.67,2.09-5.67,6.36Z"/><path class="cls-1" d="M400.48,177.25H363.61c2.18-24.23,16.47-38.18,36.87-39.48ZM375.29,121h10.55v10.37H375.29ZM377,166.88h13.16V150.5C383.31,153.29,379,160,377,166.88ZM390.11,121h10.37v10.37H390.11Z"/><path class="cls-1" d="M431.25,166.88v-6.28c0-4.27-1-7.32-3.23-9.15a12.32,12.32,0,0,0-4.53-2.53,30.48,30.48,0,0,0-7.93-.87V137.68H419a23.81,23.81,0,0,1,14.21,4.18c5.67,3.92,8.54,10.11,8.54,18.65v16.73H408.33V166.88Z"/><path class="cls-1" d="M449.55,177.25V121h10.37v45.93h.7v10.37Z"/><path class="cls-1" d="m459.92 166.88h18.22a8 8 0 0 0 3.22-0.52 31.18 31.18 0 0 0-9.76-15.25l5.06-12.46a84.14 84.14 0 0 1 10.72-0.87c10.81 0 16.12 4.1 16.12 12.29 0 5.14-2.61 10.72-7.58 16.82h8v10.37h-7.76c-5.4 0-6.1-0.09-8.8-1.22-1.83 1-3 1.22-8.89 1.22h-18.55zm29.08-7.23c2.88-3.31 4.45-5.93 4.45-7.84 0-2.61-2.27-3.83-7-3.92l-3.49 0.17c4.33 4.62 5.46 7.49 6.04 11.59z"/><path class="cls-1" d="M530.52,166.88V151.8h10.37v15.08h11.85V144.83h10.37v22.05h11.59V137.77h10.37v29.11h.61v10.37H503.41V166.88Z"/><path class="cls-1" d="M585.08,166.88H597.9V121h10.37v56.3H585.08Z"/><path class="cls-1" d="M626.48,177.25H616.11V121h10.37Z"/></svg>
