<svg width="512" height="512" xmlns="http://www.w3.org/2000/svg">

 <g>
  <title>background</title>
  <rect fill="none" id="canvas_background" height="402" width="582" y="-1" x="-1"/>
 </g>
 <g>
  <title>Layer 1</title>
  <path fill="#ffffff" id="svg_1" d="m512,346.5c0,-63.53516 -36.44922,-120.23828 -91.03906,-147.82031c-1.69531,121.82031 -100.46094,220.58594 -222.28125,222.28125c27.58203,54.58984 84.28515,91.03906 147.82031,91.03906c29.78906,0 58.75781,-7.93359 84.21094,-23.00781l80.5664,22.28515l-22.28515,-80.5664c15.07422,-25.45313 23.00781,-54.42188 23.00781,-84.21094zm0,0"/>
  <path fill="#ffffff" id="svg_2" d="m391,195.5c0,-107.80078 -87.69922,-195.5 -195.5,-195.5s-195.5,87.69922 -195.5,195.5c0,35.13281 9.35156,69.33984 27.10938,99.37109l-26.39063,95.40625l95.41016,-26.38671c30.03125,17.75781 64.23828,27.10937 99.37109,27.10937c107.80078,0 195.5,-87.69922 195.5,-195.5zm-225.5,-45.5l-30,0c0,-33.08594 26.91406,-60 60,-60s60,26.91406 60,60c0,16.79297 -7.10937,32.93359 -19.51172,44.27734l-25.48828,23.32813l0,23.39453l-30,0l0,-36.60547l35.23438,-32.25c6.29687,-5.76172 9.76562,-13.625 9.76562,-22.14453c0,-16.54297 -13.45703,-30 -30,-30s-30,13.45703 -30,30zm15,121l30,0l0,30l-30,0l0,-30zm0,0"/>
 </g>
</svg>