<svg xmlns="http://www.w3.org/2000/svg" xmlns:xlink="http://www.w3.org/1999/xlink" width="32" height="32" viewBox="0 0 32 32">
    <defs>
        <linearGradient id="b" x1="90.173%" x2="37.913%" y1="7.916%" y2="96.386%">
            <stop offset="0%" stop-color="#D5EFBD"/>
            <stop offset="100%" stop-color="#50CF8A"/>
        </linearGradient>
        <circle id="a" cx="16" cy="16" r="16"/>
        <rect id="d" width="16" height="13" y="3" rx="2"/>
        <filter id="c" width="187.5%" height="207.7%" x="-43.8%" y="-38.5%" filterUnits="objectBoundingBox">
            <feOffset dy="2" in="SourceAlpha" result="shadowOffsetOuter1"/>
            <feGaussianBlur in="shadowOffsetOuter1" result="shadowBlurOuter1" stdDeviation="2"/>
            <feColorMatrix in="shadowBlurOuter1" values="0 0 0 0 0.650980392 0 0 0 0 0.482352941 0 0 0 0 0.309803922 0 0 0 1 0"/>
        </filter>
        <path id="f" d="M2 1h12a2 2 0 0 1 2 2v3H0V3a2 2 0 0 1 2-2z"/>
        <filter id="e" width="181.2%" height="360%" x="-40.6%" y="-110%" filterUnits="objectBoundingBox">
            <feOffset dy="1" in="SourceAlpha" result="shadowOffsetOuter1"/>
            <feGaussianBlur in="shadowOffsetOuter1" result="shadowBlurOuter1" stdDeviation="2"/>
            <feColorMatrix in="shadowBlurOuter1" values="0 0 0 0 0.362294823 0 0 0 0 1 0 0 0 0 0.7872872 0 0 0 0.5 0"/>
        </filter>
        <circle id="h" cx="11.5" cy="10.5" r="1.5"/>
        <filter id="g" width="533.3%" height="533.3%" x="-216.7%" y="-183.3%" filterUnits="objectBoundingBox">
            <feOffset dy="1" in="SourceAlpha" result="shadowOffsetOuter1"/>
            <feGaussianBlur in="shadowOffsetOuter1" result="shadowBlurOuter1" stdDeviation="2"/>
            <feColorMatrix in="shadowBlurOuter1" values="0 0 0 0 0.362294823 0 0 0 0 1 0 0 0 0 0.7872872 0 0 0 0.5 0"/>
        </filter>
    </defs>
    <g fill="none" fill-rule="evenodd">
        <use fill="url(#b)" xlink:href="#a"/>
        <g transform="translate(8 8)">
            <use fill="#000" filter="url(#c)" xlink:href="#d"/>
            <use fill="#FFF" xlink:href="#d"/>
            <use fill="#000" filter="url(#e)" xlink:href="#f"/>
            <use fill="#C04500" xlink:href="#f"/>
            <rect width="1" height="3" x="4" fill="#FFF" rx=".5"/>
            <rect width="1" height="3" x="11" fill="#FFF" rx=".5"/>
            <path fill="#D8D8D8" d="M3 7h1v8H3z" opacity=".402"/>
            <path fill="#D8D8D8" d="M1 9.5v-1h14v1zM1 12.5v-1h14v1z" opacity=".402"/>
            <path fill="#D8D8D8" d="M6.333 7h1v8h-1zM9.667 7h1v8h-1zM13 7h1v8h-1z" opacity=".402"/>
            <g>
                <use fill="#000" filter="url(#g)" xlink:href="#h"/>
                <use fill="#C04500" xlink:href="#h"/>
            </g>
        </g>
    </g>
</svg>
