<svg width="72" height="29" viewBox="0 0 72 29" fill="none" xmlns="http://www.w3.org/2000/svg">
<path d="M62.0944 9.9536C63.0675 8.42128 64.4767 6.13983 65.4497 4.74372C65.651 4.43726 62.4635 5.11829 61.2892 5.49285C60.1148 5.86742 59.0411 6.17388 58.001 6.41224C56.9609 6.6506 55.9878 6.99112 55.1826 7.12732C54.3437 7.22948 53.7062 7.29758 53.1694 7.26353C52.7668 7.26353 52.4983 7.12732 52.3306 6.85491C52.1628 6.5825 52.0957 6.27604 52.0957 5.86742C52.0957 5.4588 52.2299 4.87992 52.3977 4.43726C52.5654 3.99459 52.7668 3.55192 53.0352 3.10925C53.3036 2.70063 53.572 2.32606 53.9076 1.98555C54.2095 1.64503 54.5451 1.44072 54.9141 1.30452C55.5181 1.10021 56.3234 1.03211 57.3635 1.13426C58.4036 1.20236 59.5109 1.27047 60.6852 1.37262C61.8596 1.47478 63.0339 1.50883 64.2083 1.50883C65.3826 1.50883 66.6912 1.20236 67.2616 0.929951C67.832 0.657539 68.2346 0.419179 68.8385 0.521333C69.4425 0.623488 69.9793 0.861847 70.4826 1.23641C70.9859 1.61098 71.355 2.0877 71.6234 2.66658C71.8918 3.24545 71.8918 3.82433 71.657 4.36915C71.5228 4.64157 71.3214 5.15234 70.751 5.69716C68.3688 7.91051 65.8188 11.2816 64.2083 13.3587C60.6517 17.9557 59.9135 19.7264 59.0747 21.0544C57.9674 22.8932 55.7865 27.388 55.4174 27.7625C54.9477 28.2733 54.4444 28.1712 54.0753 28.0349C53.7062 27.9328 53.2365 27.3199 53.4378 26.6388C53.572 26.2302 57.397 18.4324 58.2359 16.8661C58.9069 15.6061 60.9201 11.7924 62.0944 9.9536Z" fill="#FDB933"/>
<path d="M37.8359 22.0419C37.8359 20.9863 38.0036 19.7945 38.3391 18.5006C38.6747 17.2066 39.1109 15.9808 39.6813 14.789C39.9832 14.142 40.2852 13.5631 40.8221 12.814C41.3589 12.0308 42.0635 11.3838 42.7681 10.9071C43.5063 10.4304 44.7477 10.1239 45.4859 10.0558C46.3247 9.98769 46.9622 10.2942 47.3313 10.9411C47.7004 11.6222 47.9017 12.4735 47.8681 13.5631C47.8346 14.6187 47.6333 15.8105 47.2642 17.1045C46.8951 18.3984 46.3583 19.6243 45.6872 20.782C45.6872 20.782 44.949 21.9398 44.0431 22.9273C43.2714 23.7445 42.9359 24.051 42.2648 24.4936C41.5938 24.9363 40.4865 25.3449 39.9161 25.413C39.3457 25.4471 38.6411 25.2768 38.3056 24.5958C38.0036 23.9829 37.8359 23.1316 37.8359 22.0419ZM34.9503 14.5165C34.3128 15.5381 33.8095 16.6277 33.4069 17.7174C33.0043 18.8411 32.7694 19.8967 32.6687 20.9182C32.5681 21.9398 32.6016 22.9273 32.8365 23.8467C33.0378 24.766 33.4404 25.5492 34.0108 26.1962C34.5812 26.8432 35.353 27.354 36.2924 27.6604C37.2319 27.9669 39.6813 28.3415 41.7615 27.5923C43.8418 26.8432 45.6537 24.8682 46.6267 23.5402C47.6333 22.2122 48.405 20.8161 49.0089 19.3519C49.6129 17.8876 50.0155 16.4575 50.2168 14.9933C50.4181 13.5291 50.3846 12.2351 50.1497 11.1114C49.8813 9.95364 49.4116 9.03425 48.6734 8.35322C47.9688 7.67219 46.9622 7.33168 45.7208 7.36573C44.0096 7.39978 42.399 7.84245 40.8892 8.69374C39.4128 9.51097 38.0707 10.5666 36.9299 11.8605C35.7891 13.0864 35.6885 13.4269 34.9503 14.5165Z" fill="#FDB933"/>
<path d="M32.5005 3.04116C32.2992 2.66659 32.0308 2.32608 31.6617 1.98556C31.3262 1.64505 30.9235 1.37263 30.4874 1.10022C30.0512 0.861862 29.615 0.691605 29.2124 0.58945C28.8097 0.487296 28.4406 0.487295 28.1051 0.555398C27.7696 0.657552 27.5347 0.861862 27.4005 1.20238C27.2998 1.47479 27.0314 2.05366 26.6288 2.939C26.2262 3.85839 25.7564 4.94804 25.2531 6.242C24.7163 7.53596 24.1794 9.00017 23.609 10.5665C23.0386 12.167 22.3676 14.1419 21.9314 15.7083C21.4617 17.3087 21.0926 18.8411 20.8242 20.3393C20.5557 21.8376 20.3544 23.2677 20.4551 24.3914C20.5222 25.2768 20.8913 26.2983 21.3946 26.9453C22.0992 27.8647 23.24 28.0009 24.0117 28.069C24.6492 28.1031 26.0248 27.8988 26.7295 27.6263C27.4005 27.388 28.6084 26.8772 29.313 26.5367C29.917 26.2302 30.3531 25.9578 30.5545 25.7876C31.4939 24.9022 30.4874 23.1656 29.1117 23.9828C28.8768 24.119 28.5413 24.3233 28.1722 24.5277C27.4005 24.9703 26.3939 25.4811 25.4209 25.5833C24.3472 25.6854 23.5419 25.2087 23.4077 24.2893C23.2735 23.3699 24.4814 20.7479 25.0183 19.5561C25.5551 18.3643 26.1591 17.1385 26.7966 15.8445C27.4341 14.5846 28.2393 12.9161 28.8768 11.6562C29.5479 10.3963 30.1518 9.27258 30.6887 8.18293C31.2255 7.12734 31.6953 6.242 32.0643 5.49287C32.4334 4.74373 32.6347 4.23296 32.7018 3.96055C32.769 3.75624 32.7018 3.38167 32.5005 3.04116Z" fill="#FDB933"/>
<path d="M8.64466 15.0954C9.14795 14.1761 9.68479 13.3248 10.2552 12.5416C10.8256 11.7925 11.396 11.1455 11.9664 10.6688C12.5368 10.192 13.1072 9.91962 13.6105 9.88557C14.248 9.81746 14.6506 10.0899 14.8519 10.6688C15.0197 11.2476 15.0197 11.9287 14.7848 12.7459C14.5499 13.5631 14.1473 14.3804 13.5098 15.1976C12.8723 16.0148 11.8993 16.764 11.2282 17.1045C10.5236 17.445 9.98677 17.6834 9.31571 17.7855C8.64466 17.8877 7.87294 17.8877 7.40321 17.8536C7.73873 16.9002 8.14137 16.0148 8.64466 15.0954ZM15.4894 23.9829C15.2881 24.1191 15.0868 24.2894 13.8453 24.8682C13.2749 25.1406 11.8657 25.6174 10.7585 25.6855C9.91966 25.7536 8.17492 25.8557 7.16834 24.8682C6.22886 23.9488 6.16176 22.6889 6.19531 22.2122C6.26241 21.395 6.32952 21.0545 6.56439 20.2032C7.23544 20.2713 8.04071 20.2713 8.94664 20.1351C9.85256 20.0329 10.8591 19.7946 12.1006 19.2497C13.0065 18.8411 13.8789 18.126 14.6842 17.3428C15.4559 16.5597 16.0598 15.7084 16.5631 14.823C17.0664 13.9036 17.4019 12.9843 17.5361 12.0308C17.7039 11.0774 17.6368 10.2601 17.3348 9.511C17.0664 8.76187 16.5296 8.21704 15.7243 7.77437C14.9526 7.36575 13.8453 7.22955 12.4361 7.3317C10.2887 7.53601 8.44334 8.18299 6.89992 9.30669C5.35649 10.4304 4.14859 11.7924 3.24267 13.3588C2.67227 14.3804 2.23608 15.4019 1.93411 16.4916C1.56503 16.4235 0.659103 16.5937 0.524892 17.445C0.390681 18.2963 1.12884 18.773 1.49792 18.8411C1.36371 20.3734 1.46437 21.8036 1.90055 23.0976C2.37029 24.5618 3.44398 25.9919 4.65188 26.7411C5.79268 27.4561 7.9736 28.0691 9.41637 28.035C10.792 28.035 12.3355 27.7286 13.4427 27.4221C14.5835 27.1156 16.5296 26.1281 16.8315 25.8557C17.9723 24.8342 16.5967 23.3019 15.4894 23.9829Z" fill="#FDB933"/>
</svg>
