<?xml version="1.0" encoding="UTF-8"?>
<svg width="78px" height="78px" viewBox="0 0 78 78" version="1.1" xmlns="http://www.w3.org/2000/svg" xmlns:xlink="http://www.w3.org/1999/xlink">
    <!-- Generator: Sketch 62 (91390) - https://sketch.com -->
    <title>HYPO-Logo-4c-Basis-Dunkelblau</title>
    <desc>Created with Sketch.</desc>
    <g id="Symbole" stroke="none" stroke-width="1" fill="none" fill-rule="evenodd">
        <g id="HYPO-Logo-4c-Basis-Dunkelblau" transform="translate(2.000000, 2.000000)" fill-rule="nonzero">
            <rect id="Rectangle" stroke="#FFFFFF" stroke-width="3" fill="#201E5B" x="0" y="0" width="73.9822112" height="73.9822112"></rect>
            <polygon id="Path" fill="#FFFFFF" points="8.07464234 59.5566044 5.1492837 59.5566044 5.24172068 58.197237 12.6040545 58.197237 12.5279299 59.5566044 9.68413333 59.5566044 9.68413333 68.7676779 8.07464234 68.7676779"></polygon>
            <rect id="Rectangle" fill="#FFFFFF" x="14.4636691" y="58.197237" width="1.609491" height="10.5704409"></rect>
            <g id="Group" transform="translate(5.981217, 4.893723)" fill="#FFFFFF">
                <path d="M12.9248652,53.3959513 C13.8914586,53.299194 14.8625071,53.2538179 15.8339114,53.2600146 C18.4003971,53.2600146 19.6673275,54.2931338 19.6673275,56.228873 C19.7122057,57.5216832 18.8606747,58.6750797 17.611964,59.0128574 L17.611964,59.0454822 L20.0425129,63.8739552 L18.2916477,63.8739552 L16.1547221,59.4315426 L14.5234813,59.4315426 L14.5234813,63.8739552 L12.9248652,63.8739552 L12.9248652,53.3959513 Z M15.9535358,58.1809246 C17.2422161,58.1809246 18.0306491,57.4849285 18.0306491,56.3430599 C18.0306491,54.978255 17.2095912,54.5323825 15.7523494,54.5323825 C15.3395851,54.526672 14.9269783,54.5521191 14.5180438,54.6085071 L14.5180438,58.1809246 L15.9535358,58.1809246 Z" id="Shape"></path>
                <path d="M21.5704418,58.6431095 C21.5704418,55.4676273 23.2886822,53.1349528 26.1977285,53.1349528 C29.1067747,53.1349528 30.7923903,55.5002521 30.7923903,58.5724224 C30.7923903,61.8077168 29.0904623,64.009892 26.1977285,64.009892 C23.3049946,64.009892 21.5704418,61.7044049 21.5704418,58.6104847 M29.1067747,58.5778599 C29.1067747,56.3376224 28.2694044,54.434508 26.1977285,54.434508 C24.1260526,54.434508 23.2723698,56.3049976 23.2723698,58.5941723 C23.2723698,60.883347 24.1858647,62.6777119 26.1977285,62.6777119 C28.2095922,62.6777119 29.1067747,60.8235348 29.1067747,58.5778599" id="Shape"></path>
                <polygon id="Path" points="33.1305022 53.3035144 34.7399932 53.3035144 34.7399932 62.5254628 39.1660934 62.5254628 39.0736564 63.8739552 33.1305022 63.8739552"></polygon>
                <polygon id="Path" points="0.451309976 39.7044029 2.06080097 39.7044029 2.06080097 44.0978783 6.60652555 44.0978783 6.60652555 39.7044029 8.21601655 39.7044029 8.21601655 50.2694063 6.60652555 50.2694063 6.60652555 45.4898706 2.06080097 45.4898706 2.06080097 50.2694063 0.451309976 50.2694063"></polygon>
                <polygon id="Path" points="13.0934268 46.0771173 9.87444477 39.7044029 11.7123095 39.7044029 12.9357401 42.4285752 13.941672 44.8101869 13.9742968 44.8101869 14.9476039 42.4285752 16.2145343 39.7044029 18.0578365 39.7044029 14.7627299 46.0771173 14.7627299 50.2694063 13.0934268 50.2694063"></polygon>
                <path d="M19.5748905,39.7968399 C20.52475,39.694776 21.4797049,39.6475729 22.4349995,39.6554657 C24.6480496,39.6554657 26.3173528,40.5363358 26.3173528,42.7820107 C26.3173528,45.0276856 24.8057363,46.1260545 22.5600613,46.1097421 C22.081564,46.1097421 21.6139416,46.1097421 21.1680691,46.0608049 L21.1680691,50.2694063 L19.5748905,50.2694063 L19.5748905,39.7968399 Z M24.6969869,42.8146355 C24.6969869,41.4498307 23.8596165,40.9550209 22.3588749,40.9550209 C21.9613467,40.9497809 21.5638269,40.9661174 21.1680691,41.0039582 L21.1680691,44.7449372 C21.490187,44.7931515 21.815705,44.8149739 22.1413762,44.8101869 C23.7182423,44.8101869 24.6969869,44.2229401 24.6969869,42.8146355" id="Shape"></path>
                <path d="M27.9268438,45.0439981 C27.9268438,41.8685158 29.6450842,39.5304039 32.5541304,39.5304039 C35.4631766,39.5304039 37.1487922,41.9011406 37.1487922,44.9678735 C37.1487922,48.2303552 35.4468642,50.4053431 32.5541304,50.4053431 C29.6613966,50.4053431 27.9268438,48.099856 27.9268438,45.0059358 M35.4631766,44.9733109 C35.4631766,42.727636 34.6312438,40.8245217 32.5541304,40.8245217 C30.477017,40.8245217 29.6287718,42.7004487 29.6287718,44.9896234 C29.6287718,47.2787981 30.5422667,49.073163 32.5541304,49.073163 C34.5659942,49.073163 35.4631766,47.2135484 35.4631766,44.9733109" id="Shape"></path>
                <path d="M49.6440973,3.6648545 L49.1547251,2.44686131 L48.6653528,3.6648545 C48.3739648,3.22186884 47.9214791,2.90980974 47.4038599,2.79485937 C47.641144,2.99831956 47.8368585,3.24573223 47.9802316,3.52348029 C48.0960432,3.74172141 48.1837408,3.97375476 48.2412302,4.21403893 C48.5388563,4.13146894 48.8458844,4.08760778 49.1547251,4.08353966 C49.4643683,4.08673016 49.7726501,4.12503737 50.0736574,4.19772652 C50.1293737,3.96288567 50.2152754,3.73625128 50.3292185,3.52348029 C50.4725916,3.24573223 50.6683061,2.99831956 50.9055903,2.79485937 C50.387971,2.90980974 49.9354853,3.22186884 49.6440973,3.6648545 M57.7078647,11.4621859 C57.6341778,11.6023409 57.5065487,11.7064077 57.3544292,11.7503718 C57.2030978,11.798234 57.0390038,11.7845595 56.8976818,11.7123095 C56.8136242,11.6655682 56.7411503,11.6005274 56.6856204,11.5219981 L56.587746,11.3806238 C55.9026248,12.691054 54.1571971,13.7296107 51.9115221,13.7187358 L51.5961489,13.7187358 L51.3514628,13.7187358 L51.307963,13.3544253 L51.307963,13.0173022 L51.7810229,13.0444895 C53.2056399,13.0444895 55.2664409,12.4681178 56.2179981,11.1087504 L55.9896243,11.1087504 C55.8767286,11.1216229 55.7626366,11.0988045 55.6633762,11.0435007 C55.5203213,10.9720115 55.4138076,10.8438006 55.3697528,10.6900652 C55.2964477,10.4579276 55.3711473,10.2045217 55.5586492,10.0492654 C55.7461511,9.89400899 56.0090425,9.86788098 56.2234355,9.98319416 L56.3267474,10.0484438 L56.5551212,10.2387552 L56.5061839,9.94513187 C56.4870875,9.8168951 56.5079726,9.68588876 56.5659961,9.56994647 C56.6850767,9.36866681 56.9097174,9.25429583 57.142536,9.2764136 C57.3753546,9.29853137 57.5744407,9.45315638 57.65349,9.67325839 C57.6996801,9.82529775 57.6840495,9.9894188 57.6099903,10.1300058 C57.5491114,10.2453938 57.4515418,10.337224 57.3326793,10.3910044 L57.0608058,10.5215036 L57.3489917,10.6030657 L57.4631786,10.6465655 C57.6049327,10.7223221 57.7106155,10.8514901 57.7568019,11.0054384 C57.8054805,11.1572184 57.7897562,11.3223233 57.7133022,11.4621859 M49.6386599,4.78497324 C49.6386599,4.78497324 49.6386599,5.50815669 49.2036623,5.50815669 C48.7686647,5.50815669 48.806727,4.78497324 48.806727,4.78497324 L48.9481012,4.73603601 C49.0403793,4.72836979 49.1331341,4.72836979 49.2254122,4.73603601 C49.3017792,4.87870887 49.3017792,5.0501106 49.2254122,5.19278345 C49.308421,5.17732508 49.3812843,5.12809313 49.4265985,5.05684672 C49.4659791,4.98690177 49.4883325,4.90866505 49.4918482,4.82847299 C49.4918482,4.79584818 49.4918482,4.76866083 49.4918482,4.75778589 C49.5397119,4.76587781 49.5857464,4.78245024 49.6277849,4.80672311 M47.5452341,13.7078608 L47.4364847,13.7078608 L47.1211114,13.7078608 C44.880874,13.7078608 43.1354462,12.6747416 42.4448876,11.3643114 L42.3470131,11.5056856 C42.2948882,11.5851929 42.2239055,11.6505717 42.1403893,11.6959971 C41.9990673,11.7682471 41.8349732,11.7819216 41.6836418,11.7340594 C41.5291885,11.6920008 41.3991835,11.5876028 41.3247689,11.4458735 C41.2509494,11.3032623 41.2353548,11.1375688 41.2812691,10.9836886 C41.3294684,10.8305072 41.4372393,10.7031416 41.5803299,10.630253 L41.6890793,10.5867533 L41.9772652,10.5051912 L41.7053917,10.374692 C41.4362691,10.2472931 41.3018363,9.94134248 41.3900185,9.65694599 C41.4653984,9.43326977 41.6652738,9.27484266 41.9002523,9.25251971 C42.1352307,9.23019676 42.3613625,9.34815318 42.4775124,9.55363406 C42.5380792,9.6687444 42.5590969,9.80058259 42.5373246,9.92881946 L42.4938248,10.2224428 L42.7221985,10.0375689 C42.7530477,10.0091488 42.7878452,9.98533993 42.8255105,9.96688175 C42.9660402,9.89221818 43.1305298,9.87663314 43.2825814,9.92357524 C43.434633,9.97051735 43.5617102,10.0761163 43.6356934,10.2170054 C43.7121474,10.356868 43.7278717,10.5219728 43.6791932,10.6737528 C43.6312231,10.8253849 43.5258394,10.9522357 43.3855698,11.0271883 C43.2841293,11.0819211 43.1684978,11.1046683 43.0538842,11.092438 L42.8309479,11.092438 C43.79338,12.4518054 45.854181,13.049927 47.3059854,13.049927 L47.4038599,13.049927 C47.4038599,13.049927 47.474547,13.4196749 47.5343591,13.6262988 L47.5452341,13.7078608 Z M62.5798375,10.8749392 C62.3405888,10.8749392 61.8240292,10.9184389 61.4325314,10.9184389 C60.6591193,10.9062303 59.8894854,10.8077463 59.1379192,10.6248156 C59.1408712,10.5886259 59.1408712,10.5522559 59.1379192,10.5160662 C59.1366059,10.2518603 58.9721284,10.0159648 58.7246715,9.923382 C59.0331208,9.87356329 59.2619134,9.61045183 59.2684185,9.29807299 C59.2687811,9.14393192 59.2126874,8.99499353 59.1107319,8.87938783 C59.3657883,8.85389803 59.6173606,8.80103139 59.8611027,8.72170122 C60.2024987,8.61586247 60.5308326,8.47176039 60.8398472,8.29214112 C61.3044697,8.01173778 61.6812128,7.60673892 61.9273411,7.12308516 C61.9392279,7.10242617 61.9362749,7.07643396 61.9200566,7.0589681 C61.9038383,7.04150223 61.8781357,7.03663454 61.856654,7.04696058 C61.6337178,7.11764769 61.138908,7.28077178 60.7691601,7.3840837 C60.1753346,7.53361822 59.5693899,7.63005986 58.9584827,7.67226959 C58.8367217,7.52437223 58.6552438,7.43861893 58.463673,7.43845839 L58.4256107,7.43845839 C58.6095731,7.31954672 58.7186689,7.1137055 58.7137966,6.89471144 C58.7123605,6.72309884 58.6428073,6.55908622 58.5204392,6.43875756 C58.3980711,6.3184289 58.2329127,6.25164184 58.0613002,6.25309002 L58.023238,6.25309002 C58.3704324,6.12850128 58.7068631,5.97574359 59.0291698,5.79634258 C59.2569889,5.67476793 59.4673295,5.52295692 59.6544788,5.3450326 C59.8658995,5.12579346 60.0289173,4.86459452 60.1329762,4.57834939 C60.1509943,4.55432514 60.1461255,4.52024301 60.1221012,4.50222483 C60.098077,4.48420664 60.0639948,4.48907551 60.0459766,4.51309976 C59.8530126,4.66449782 59.647452,4.79911275 59.4315426,4.91547251 C58.7685374,5.21856955 58.0785875,5.45886874 57.3707416,5.63321849 C56.5496837,5.83984234 55.685126,5.94859173 55.3806277,6.3999017 C55.0761294,6.85121168 55.4241275,7.34602141 55.5056895,7.54720779 C55.5056895,7.58527007 55.5546268,7.69401946 55.5600642,7.7048944 C55.6863213,8.2666894 55.6271818,8.85426869 55.3915027,9.37963504 C54.875875,10.4281923 53.8388492,11.1209255 52.6727679,11.1957499 C52.2365943,11.2759429 51.7871075,11.2422314 51.3677752,11.0978754 C51.3677752,11.0978754 51.3677752,10.3529421 51.3025255,9.39050998 C51.4915705,9.2973738 51.6733335,9.19013368 51.8462725,9.06969927 C52.0999554,9.1961634 52.3784992,9.26487089 52.6618929,9.27088564 L52.7217051,9.27088564 C53.0913786,9.24226669 53.4455797,9.11038328 53.7439494,8.89026277 L53.7439494,8.89026277 L53.7439494,8.89026277 C53.445538,8.70728712 53.1042462,8.60602472 52.7543299,8.59663942 L52.6945178,8.59663942 C52.6069309,8.60214466 52.5197663,8.61304024 52.4335192,8.62926423 C52.8556692,8.23008984 53.2003961,7.75632077 53.450326,7.23183455 C53.5113838,7.27634749 53.5887361,7.29221462 53.6623873,7.27533431 C53.751478,7.24155376 53.8157488,7.16277016 53.8309489,7.06871046 C53.8468762,6.99501503 53.8321098,6.91801122 53.7900506,6.85543544 C53.7479915,6.79285967 53.682266,6.75010703 53.6080127,6.73702482 C53.7038569,6.49194644 53.7784439,6.23907842 53.8309489,5.98121655 C54.1275242,5.917775 54.4050432,5.78553441 54.6411319,5.5951562 C54.905535,5.34198538 55.0938755,5.01992311 55.1848788,4.66534891 L55.1848788,4.66534891 L55.1576915,4.66534891 C54.7891285,4.71171339 54.4398116,4.85632309 54.1463221,5.08403406 C54.0370741,5.18241098 53.9402911,5.29380276 53.8581363,5.41571971 C53.8581363,5.35047007 53.8581363,5.27978297 53.8581363,5.21453333 C53.85918,4.37266703 53.6378412,3.54546042 53.2165148,2.81660925 C53.3904525,2.57152122 53.5023973,2.28792767 53.542763,1.99011387 C53.5775603,1.61417817 53.5019755,1.23625395 53.3252642,0.902619951 L53.3252642,0.902619951 L53.3252642,0.902619951 C53.0831492,1.18308533 52.9248646,1.52603529 52.8685168,1.89223942 C52.8548938,2.00965744 52.8548938,2.12825692 52.8685168,2.24567494 C52.474117,1.74212223 51.9798285,1.325587 51.4167124,1.02224428 C51.2696253,0.834846503 51.0842504,0.68098535 50.8729655,0.570934307 C50.6118712,0.431149326 50.3208629,0.356531807 50.0247202,0.353435523 C49.9504598,0.349516611 49.8760444,0.349516611 49.8017839,0.353435523 L49.8017839,0.353435523 L49.8017839,0.380622871 C49.9769446,0.706546187 50.2408928,0.976150421 50.5630297,1.15818102 C50.7989777,1.27875284 51.0593463,1.34384497 51.3242754,1.34849246 C51.8082614,1.6235417 52.2317727,1.99342057 52.569456,2.43598637 C52.4655106,2.37050755 52.3541725,2.31757632 52.2377703,2.27829976 C52.0616723,2.22439802 51.8781533,2.19870536 51.6940234,2.20217518 C51.5099233,2.20468888 51.3270118,2.2321256 51.1502764,2.28373723 L51.1502764,2.28373723 L51.1502764,2.28373723 C51.3790022,2.57361195 51.6840595,2.79393111 52.0311465,2.91992117 C52.2073608,2.97329596 52.3907963,2.99897692 52.5748934,2.99604574 C52.7099537,2.99686017 52.8447543,2.98410876 52.9772662,2.95798345 C53.3434788,3.60393798 53.5434076,4.33078225 53.5590754,5.07315912 C53.5315507,5.00817713 53.5006975,4.94465585 53.4666384,4.88284769 C53.2722088,4.56644838 52.9935659,4.31039812 52.6618929,4.14335182 L52.6618929,4.14335182 L52.6618929,4.17053917 C52.6279099,4.54581805 52.7014636,4.92301657 52.8739543,5.25803309 C53.0356807,5.5235059 53.2596338,5.74559269 53.5264506,5.90509197 C53.361341,6.9059396 52.8516481,7.81761673 52.0855212,8.48245255 C52.1570239,8.34031581 52.2065256,8.18814413 52.2323328,8.03114258 C52.2799136,7.6594578 52.2195095,7.28193241 52.0583338,6.94364866 L52.0583338,6.94364866 L52.0583338,6.94364866 C51.8099562,7.21769723 51.6407942,7.55414151 51.5689616,7.91695572 C51.5277839,8.22173867 51.5632934,8.53197945 51.6722735,8.81957567 C51.5689616,8.89026277 51.4602122,8.95551241 51.3514628,9.01532457 C51.2985697,7.71504782 51.0435807,6.43093032 50.5956545,5.20909586 C50.5797269,5.17178841 50.5615692,5.135473 50.5412798,5.10034647 C50.7692615,5.09242441 50.9870175,5.00378038 51.1557139,4.85022287 C51.1752336,4.84121378 51.1837541,4.81808661 51.174745,4.79856691 C51.1657359,4.77904721 51.1426088,4.77052667 51.1230891,4.77953577 C50.8800591,4.81979753 50.6320606,4.81979753 50.3890307,4.77953577 L50.3509684,4.77953577 L50.4270929,4.77953577 C50.6910461,4.74203871 50.9264501,4.59367487 51.0741518,4.37172555 C51.0848362,4.36298375 51.0900454,4.34920594 51.0878169,4.33558207 C51.0855885,4.32195819 51.0762612,4.31055806 51.0633483,4.30567598 C51.0504355,4.30079391 51.035899,4.30317159 51.0252146,4.31191338 C50.796232,4.40190769 50.5533973,4.45157843 50.3074686,4.45872506 C50.0281735,4.46241729 49.7498069,4.42579011 49.4809732,4.34997567 C49.230266,4.31478575 48.9758722,4.31478575 48.725165,4.34997567 C48.5861781,4.36299343 48.4481535,4.3847868 48.3119173,4.4152253 C48.2197573,4.43537517 48.1303183,4.46640505 48.0454813,4.50766229 L48.0454813,4.50766229 C47.6893021,4.50098711 47.3345387,4.55429352 46.9960496,4.66534891 C46.8274881,4.80128564 47.104799,5.42659465 47.2516107,5.720218 C47.3114229,5.56796886 47.474547,5.20365839 47.6539835,5.20365839 C47.6806648,5.19624054 47.7088641,5.19624054 47.7355455,5.20365839 C47.7885718,5.24053727 47.8346034,5.28656881 47.8714822,5.33959513 C47.9911066,5.49184428 48.1324808,5.68215572 49.0296633,5.76915523 C49.1749356,5.78323945 49.3138279,5.83579329 49.432036,5.92140438 C49.4859993,6.00286462 49.519569,6.09611376 49.5299105,6.19327786 C49.5310018,6.2767118 49.470886,6.34838831 49.3885363,6.36183942 C49.3333935,6.35821726 49.2787489,6.34910982 49.2254122,6.33465207 C49.1018169,6.2976361 48.9737808,6.27751614 48.8447893,6.2748399 L48.806727,6.2748399 C48.5121943,6.27445744 48.2270611,6.37849252 48.0019815,6.56846326 C48.224853,6.50719982 48.4566735,6.48512168 48.6871027,6.50321363 C48.696329,6.77602145 48.6670409,7.04876746 48.6001032,7.31339659 C48.548148,7.62329381 48.4662008,7.92740882 48.355417,8.22145401 C48.5385705,8.07005982 48.6916608,7.88561366 48.806727,7.67770706 C48.7012162,8.15011004 48.5594213,8.61367009 48.3826044,9.0642618 C48.3336672,9.17301119 48.273855,9.28176058 48.2086054,9.39594745 C47.7607793,9.27766231 47.3361298,9.08463981 46.9525499,8.82501314 C47.0537664,8.53934932 47.0872709,8.23408521 47.0504243,7.93326813 C46.9802894,7.56875957 46.8087904,7.23141534 46.5556146,6.95996107 L46.5556146,6.95996107 L46.5556146,6.95996107 C46.397594,7.29921896 46.3373364,7.67582914 46.3816156,8.04745499 C46.4086931,8.1916148 46.4524886,8.3321254 46.5121148,8.46614015 C45.7703196,7.79491087 45.2825542,6.88851216 45.1309976,5.8996545 C45.3862466,5.73932443 45.6004008,5.52144576 45.7563066,5.26347056 C45.9317456,4.92948401 46.0054703,4.55140876 45.9683679,4.17597664 L45.9683679,4.14878929 L45.9683679,4.14878929 C45.6239831,4.3122656 45.3334624,4.57071585 45.1309976,4.89372263 C45.1309976,4.93722238 45.0820603,4.98072214 45.0603105,5.0242219 C45.0725269,4.30518883 45.2591192,3.59986981 45.6040574,2.96885839 C45.7328917,2.99503404 45.8640916,3.00778958 45.9955552,3.00692068 C46.1796852,3.0103905 46.3632042,2.98469784 46.5393022,2.93079611 C46.8874304,2.80391526 47.194019,2.58384861 47.4256097,2.29461217 L47.4256097,2.29461217 L47.4256097,2.29461217 C47.2487484,2.24357519 47.0659146,2.21615012 46.8818628,2.21305012 C46.6977926,2.21055259 46.5144233,2.2362243 46.3381158,2.2891747 C46.2342019,2.32454406 46.1340301,2.37007673 46.039055,2.42511144 C46.3814194,1.99926781 46.802266,1.64302487 47.2787981,1.37567981 C47.5360959,1.36603359 47.7883044,1.30112698 48.0182939,1.18536837 C48.3389978,1.00147895 48.6024902,0.732340309 48.7795397,0.407810219 L48.7795397,0.380622871 L48.7795397,0.380622871 C48.7070903,0.376804457 48.6344902,0.376804457 48.5620409,0.380622871 C48.264121,0.376104618 47.969477,0.443238699 47.7029207,0.576371776 C47.4894873,0.692727096 47.3039423,0.854151236 47.1591737,1.04943163 C46.5858335,1.34186876 46.0801525,1.75122958 45.6747445,2.25111241 C45.6910779,2.12476379 45.6910779,1.99683815 45.6747445,1.87048954 C45.6219803,1.50426293 45.4653602,1.16083075 45.2234345,0.880870073 L45.2234345,0.880870073 L45.2234345,0.880870073 C45.0496385,1.21553599 44.9742263,1.59259698 45.0059358,1.96836399 C45.0492384,2.27315214 45.1668848,2.56259951 45.3484964,2.81117178 C44.930885,3.53536504 44.7114583,4.35680832 44.7123124,5.19278345 C44.7123124,5.2743455 44.7123124,5.35047007 44.7123124,5.42659465 C44.6243696,5.29128685 44.5182529,5.16870373 44.3969392,5.06228418 C44.1048595,4.83569561 43.7576008,4.6911609 43.3910073,4.64359903 L43.3910073,4.64359903 L43.3910073,4.64359903 C43.4820106,4.99817324 43.6703511,5.3202355 43.9347543,5.57340633 C44.1779345,5.76998445 44.4653449,5.90435816 44.7721246,5.96490414 C44.8162676,6.22487151 44.8798838,6.48115416 44.962436,6.73158735 C44.9154341,6.73978281 44.870852,6.7583587 44.8319367,6.78596204 C44.7546241,6.8357059 44.7091836,6.92245588 44.7123124,7.01433577 C44.7181526,7.16022414 44.8381807,7.27545116 44.9841859,7.27533431 C45.0486082,7.27791804 45.1113465,7.25439119 45.1581849,7.21008467 C45.4120626,7.74442346 45.7622908,8.22736968 46.1913041,8.6347017 C46.0949266,8.61145446 45.9966587,8.59689625 45.8976808,8.59120195 L45.8378686,8.59120195 C45.4879524,8.60058725 45.1466606,8.70184965 44.8482491,8.8848253 L44.8482491,8.8848253 L44.8482491,8.8848253 C45.1473091,9.10366728 45.501134,9.23541059 45.8704934,9.26544818 L45.9357431,9.26544818 C46.2214971,9.25928466 46.5021678,9.18865231 46.756801,9.05882433 C47.1519951,9.33246615 47.5890775,9.53998844 48.0509187,9.67325839 C47.9041071,9.87988224 47.7790453,10.0321314 47.7790453,10.0321314 C47.868015,10.0050235 47.9551874,9.97233383 48.0400438,9.93425693 C48.1271473,9.89521161 48.2092883,9.84592701 48.2847299,9.78744526 L48.0400438,10.3311922 C47.8827883,10.5879579 47.7393963,10.8529609 47.6104837,11.1250628 C47.2086413,11.2232745 46.792507,11.2490528 46.3816156,11.2011873 C45.2155343,11.126363 44.1785085,10.4336298 43.6628808,9.38507251 C43.4360946,8.86875685 43.3789796,8.2937985 43.4997567,7.74295669 C43.4997567,7.74295669 43.5432564,7.62333236 43.5541314,7.58527007 C43.6411309,7.3840837 43.9238793,6.80771192 43.6791932,6.43796399 C43.4345071,6.06821606 42.5101372,5.89421703 41.6890793,5.67128078 C40.9812334,5.49693102 40.2912835,5.25663184 39.6282783,4.95353479 C39.4123689,4.83717504 39.2068083,4.70256011 39.0138443,4.55116204 C38.9958261,4.5271378 38.961744,4.52226893 38.9377197,4.54028712 C38.9136955,4.5583053 38.9088266,4.59238743 38.9268448,4.61641168 C39.0309036,4.90265681 39.1939214,5.16385575 39.4053421,5.38309489 C39.5924914,5.5610192 39.802832,5.71283022 40.0306511,5.83440487 C40.3524466,6.01481775 40.6889631,6.16761443 41.036583,6.29115231 L40.9985207,6.29115231 C40.8269082,6.28970413 40.6617499,6.35649119 40.5393817,6.47681985 C40.4170136,6.59714851 40.3474604,6.76116113 40.3460243,6.93277372 C40.342024,7.15023023 40.4484568,7.35490868 40.6287727,7.47652068 L40.5961479,7.47652068 C40.4045772,7.47668121 40.2230993,7.56243451 40.1013382,7.71033187 C39.4921825,7.66846353 38.8880129,7.57201477 38.2960983,7.42214599 C37.9154754,7.31883406 37.4261032,7.15570998 37.2086044,7.08502287 C37.1871227,7.07469683 37.1614201,7.07956452 37.1452018,7.09703038 C37.1289835,7.11449625 37.1260305,7.14048846 37.1379173,7.16114745 C37.3840456,7.6448012 37.7607887,8.04980007 38.2254112,8.33020341 C38.5344258,8.50982268 38.8627596,8.65392476 39.2041557,8.7597635 C39.4478978,8.83909367 39.6994701,8.89196031 39.9545265,8.91745012 C39.852571,9.03305582 39.7964773,9.1819942 39.7968399,9.33613528 C39.803345,9.64851412 40.0321376,9.91162558 40.3405869,9.96144428 C40.09313,10.0540271 39.9286525,10.2899226 39.9273392,10.5541285 C39.9243871,10.5903182 39.9243871,10.6266882 39.9273392,10.6628779 C39.175773,10.8458086 38.4061391,10.9442925 37.632727,10.9565012 C37.2412292,10.9565012 36.7246696,10.9293139 36.4854209,10.9130015 C36.4626704,10.9109492 36.4410629,10.923335 36.4313365,10.9440037 C36.42161,10.9646723 36.4258388,10.9892164 36.4419212,11.0054384 C36.8046505,11.4096842 37.2738589,11.703646 37.7958511,11.8536837 C38.1513503,11.9473859 38.5159991,12.0020832 38.883345,12.0168078 C39.3406717,12.0128892 39.7956391,11.9507651 40.2372749,11.8319338 L40.2372749,11.8319338 C40.3020297,12.1334325 40.570552,12.3473401 40.8788964,12.343056 L40.9604584,12.343056 C40.8533006,12.4584336 40.7931739,12.6097201 40.7918968,12.7671786 C40.7923025,12.8764616 40.822372,12.983584 40.8788964,13.0771144 L40.6015854,13.2565509 C39.8298015,13.7136112 39.0017809,14.0682161 38.1384117,14.31142 C37.7632263,14.4092944 37.2575416,14.5180438 37.0509178,14.566981 C37.0325507,14.5777021 37.0212578,14.5973698 37.0212578,14.618637 C37.0212578,14.6399042 37.0325507,14.6595718 37.0509178,14.6702929 C37.5075321,14.963022 38.0365388,15.1230418 38.5788467,15.1324779 C38.9446782,15.1396804 39.3099838,15.1013233 39.6663406,15.018291 C40.1232352,14.9047334 40.5636495,14.7329536 40.9767708,14.5071689 C40.9767708,14.5071689 41.477018,14.2570453 41.6836418,14.1646083 L41.8032662,14.1047961 C41.9251661,14.2562041 42.1091325,14.344188 42.3035134,14.3440448 C42.4202121,14.3424585 42.5345008,14.3106076 42.635199,14.2516078 C42.5222446,14.5592236 42.6705788,14.9013492 42.9723221,15.0291659 C42.8526978,15.2684146 42.7330735,15.5076633 42.6025742,15.7523494 C42.1630068,16.531326 41.6237802,17.2496855 40.9985207,17.8892749 C40.7212097,18.1665859 40.3405869,18.5145839 40.1611504,18.6722706 C40.1424267,18.6863133 40.1347897,18.7107616 40.1421908,18.7329651 C40.149592,18.7551686 40.1703707,18.770145 40.1937752,18.770145 C40.7354925,18.7981291 41.2742173,18.673808 41.7488915,18.411272 C42.0629856,18.236881 42.3535218,18.0230902 42.6134491,17.7750881 C42.9547011,17.453908 43.2510035,17.0881026 43.4943192,16.6875942 C43.4943192,16.6875942 43.804255,16.2199718 43.9347543,16.0350978 C44.0652535,15.8502238 44.1305032,15.7632243 44.2338151,15.6272876 L44.3425645,15.6272876 C44.5590972,15.6274296 44.7620713,15.5218831 44.8863114,15.3445392 C44.903706,15.6890989 45.1883721,15.959412 45.5333703,15.9589732 C45.8020986,15.9597738 46.043834,15.7957391 46.1423669,15.5457255 C46.2275676,15.8166542 46.478231,16.0013535 46.7622384,16.002473 C47.0816462,16.0062079 47.3551551,15.7744206 47.4038599,15.458726 C47.4796923,15.742342 47.7355987,15.9403913 48.0291689,15.9426608 C47.8442949,16.2471591 47.6431085,16.5570949 47.4201723,16.8670307 C46.9738541,17.4863383 46.469513,18.0616877 45.9139932,18.585271 C45.8962379,18.6049353 45.8935348,18.633937 45.9073501,18.6565439 C45.9211654,18.6791507 45.9482068,18.6899752 45.9738054,18.6831455 C46.209643,18.5991347 46.4402414,18.5010849 46.664364,18.3895221 C46.7671692,18.3330905 46.8669892,18.2713835 46.9634248,18.2046482 L45.1309976,20.6623844 L43.5976311,19.5042034 C43.5136373,19.4565431 43.4213952,19.4251808 43.3257577,19.4117664 C42.9639317,19.3554291 42.6225144,19.5958638 42.553637,19.9555134 C42.5366823,20.0325283 42.5366823,20.1123096 42.553637,20.1893246 C42.5848537,20.0942622 42.6390121,20.0083558 42.7113236,19.939201 C42.8634626,19.8155943 43.0651026,19.7712336 43.2550706,19.8195766 L43.0538842,20.020763 C43.2132872,20.1645 43.4489012,20.184505 43.630256,20.0697002 L44.9406861,20.9940701 L42.9560097,20.8363835 C42.8657946,20.8356843 42.7759845,20.8485143 42.6895737,20.8744457 C42.3338328,20.993445 42.1399328,21.3763974 42.2545762,21.7335659 C42.2848558,21.8080649 42.331283,21.8749202 42.3905129,21.9293148 C42.3608043,21.8336948 42.3608043,21.7313115 42.3905129,21.6356915 C42.4726662,21.4620522 42.6282961,21.3343559 42.8146355,21.2876934 L42.7439484,21.537817 C42.9600735,21.5929556 43.1856288,21.4914558 43.2876954,21.2931309 L44.8428117,21.4508175 L43.8205674,22.8047474 C43.7651736,22.8850866 43.7263546,22.9756644 43.7063805,23.0711835 C43.6697005,23.2508624 43.7065846,23.4377463 43.8087793,23.5900163 C43.910974,23.7422864 44.0699479,23.8472309 44.2501275,23.8813664 C44.3292886,23.8950675 44.4102151,23.8950675 44.4893762,23.8813664 C44.3959669,23.8449491 44.3135533,23.7850119 44.2501275,23.7073674 C44.1445681,23.5466778 44.1166301,23.3471205 44.1740029,23.1636204 L44.3806268,23.3702443 C44.5270268,23.2146903 44.5494066,22.9797025 44.4350015,22.79931 L45.3593713,21.5323796 L46.6698015,21.6846287 C46.7279334,21.8922415 46.9163954,22.0363594 47.1319864,22.0380642 L47.1319864,21.7607533 C47.2564033,21.7909889 47.3661597,21.8641598 47.4419221,21.9673771 C47.5028474,22.0472485 47.5370899,22.1442689 47.5397966,22.2446881 C47.5833492,22.1482949 47.6108978,22.0454468 47.6213586,21.9401898 C47.6539628,21.6225852 47.4313684,21.3353666 47.115674,21.2876934 L45.5605577,21.1245693 L47.474547,18.2807727 C47.4420917,18.4164179 47.4220715,18.5547397 47.4147348,18.6940204 C47.4029893,18.9591015 47.4286155,19.2245163 47.4908594,19.4824535 C47.4981936,19.5047675 47.5190269,19.5198497 47.5425153,19.5198497 C47.5660037,19.5198497 47.586837,19.5047675 47.5941713,19.4824535 C47.9149971,18.8140679 48.2972647,18.1769551 48.7360399,17.5793392 C48.8502268,17.4216526 48.9698511,17.2694034 49.084038,17.1225917 C49.304823,17.8956615 49.4397613,18.6907036 49.4864107,19.4933285 C49.4420749,20.360086 49.1843166,21.2024702 48.7360399,21.9456273 C48.5829388,22.2755828 48.3111354,22.5357375 47.9747942,22.6742482 C47.9551237,22.6810936 47.9419412,22.6996391 47.9419412,22.7204667 C47.9419412,22.7412942 47.9551237,22.7598397 47.9747942,22.7666852 C48.1636615,22.8589152 48.3773102,22.8875289 48.5837908,22.8482472 C48.8729846,22.7473136 49.1224909,22.5568508 49.2960993,22.3045002 C49.0329597,22.9802912 48.5579253,23.5526218 47.9421693,23.9357411 C47.5195892,24.1307132 47.0410257,24.1673773 46.5936769,24.039053 C46.5730992,24.0358364 46.5527403,24.0459966 46.5429391,24.0643738 C46.5331379,24.0827511 46.5360422,24.1053183 46.5501771,24.1206151 C46.9228281,24.490944 47.4409319,24.6762658 47.9639192,24.6262998 C48.5253484,24.4537889 49.0242361,24.1211971 49.3994112,23.6693051 C49.3241165,24.0320805 49.1880782,24.3795296 48.9970384,24.6969869 C48.8538893,24.9368017 48.6958948,25.1674373 48.5239786,25.3875455 C48.511485,25.4014047 48.5079599,25.4211624 48.5148898,25.438487 C48.5218196,25.4558116 48.5379983,25.4676878 48.5566034,25.4691075 C48.7150228,25.4851329 48.8741805,25.4467817 49.0079134,25.3603582 C49.18836,25.2256581 49.3591519,25.0784864 49.5190355,24.9199231 C49.5275405,25.2109203 49.5732233,25.4996353 49.6549723,25.7790433 C49.7213547,25.9365808 49.8052573,26.0861464 49.9050959,26.2249158 C49.9114243,26.2419652 49.9276909,26.2532783 49.9458769,26.2532783 C49.9640629,26.2532783 49.9803295,26.2419652 49.9866579,26.2249158 C50.0885067,26.0864829 50.174247,25.9368935 50.242219,25.7790433 C50.3239679,25.4996353 50.3696507,25.2109203 50.3781557,24.9199231 C50.5358563,25.0787579 50.7048606,25.2259551 50.8838404,25.3603582 C51.0192521,25.4475892 51.1803951,25.4859566 51.3405878,25.4691075 C51.3591929,25.4676878 51.3753716,25.4558116 51.3823015,25.438487 C51.3892313,25.4211624 51.3857062,25.4014047 51.3732127,25.3875455 C51.1994773,25.1687745 51.0413979,24.938015 50.9001528,24.6969869 C50.709113,24.3795296 50.5730747,24.0320805 50.49778,23.6693051 C50.8729552,24.1211971 51.3718428,24.4537889 51.933272,24.6262998 C52.4561631,24.6754974 52.9739501,24.490289 53.3470141,24.1206151 C53.3630955,24.1047584 53.3662374,24.0799564 53.354618,24.0605906 C53.3429985,24.0412248 53.3196358,24.0323255 53.2980769,24.039053 C52.8525103,24.1670046 52.3757775,24.1303328 51.9550219,23.9357411 C51.3252714,23.5552249 50.838077,22.9782338 50.5684672,22.2936253 C50.7420755,22.5459759 50.9915818,22.7364387 51.2807757,22.8373723 C51.4872562,22.8766539 51.7009049,22.8480402 51.8897723,22.7558102 C51.9094427,22.7489648 51.9226252,22.7304193 51.9226252,22.7095917 C51.9226252,22.6887642 51.9094427,22.6702186 51.8897723,22.6633732 C51.5534311,22.5248626 51.2816276,22.2647079 51.1285265,21.9347523 C50.6970228,21.1799372 50.430176,20.3423348 50.3455309,19.4770161 C50.3055743,18.6315891 50.3529499,17.7842955 50.4869051,16.9485927 L50.4869051,16.9485927 C50.6500292,17.1497791 50.8131533,17.3564029 50.9708399,17.5793392 C51.4130845,18.1756755 51.7972696,18.8129495 52.118146,19.4824535 C52.1254802,19.5047675 52.1463135,19.5198497 52.1698019,19.5198497 C52.1932904,19.5198497 52.2141237,19.5047675 52.2214579,19.4824535 C52.2837017,19.2245163 52.309328,18.9591015 52.2975825,18.6940204 C52.3026664,18.6197953 52.3026664,18.5453093 52.2975825,18.4710842 L54.0538852,21.1136944 L52.5422686,21.2659436 L52.5422686,21.2659436 C52.391602,21.2965925 52.2556241,21.3770301 52.1562083,21.4943173 C52.0505618,21.6546606 52.006168,21.8476772 52.0311465,22.0380642 C52.0470915,22.1202552 52.0764859,22.1992528 52.118146,22.2718754 L52.1507708,22.3208127 L52.1507708,22.2610005 C52.1547709,22.165042 52.1869183,22.0723817 52.2432078,21.9945645 C52.3132094,21.9034148 52.4102922,21.8367893 52.5205187,21.804253 L52.5205187,22.0543766 L52.5205187,22.0543766 L52.5205187,22.0543766 C52.738927,22.0538805 52.9311766,21.9102457 52.9935786,21.7009411 L54.2768214,21.5541294 L55.1903163,22.79931 C55.0803324,22.9872168 55.1045187,23.2246825 55.2501285,23.3865567 L55.2501285,23.3865567 L55.4458774,23.1853703 C55.5076195,23.3691975 55.4772749,23.5714953 55.3643153,23.7291173 C55.3062063,23.8050959 55.2266595,23.8619151 55.1359416,23.8922414 L55.0761294,23.8922414 L55.1359416,23.8922414 C55.190007,23.900444 55.2450003,23.900444 55.2990657,23.8922414 L55.3860652,23.8922414 C55.5609003,23.8481598 55.714795,23.7442808 55.8210628,23.598618 C55.9273095,23.4386351 55.9627289,23.2418609 55.9189372,23.054871 C55.8964529,22.9627547 55.8597637,22.8747007 55.8101878,22.7938725 L54.7988185,21.456255 L56.310435,21.3040058 C56.3956867,21.4610472 56.5613377,21.5575023 56.7399951,21.5541294 C56.7761348,21.558125 56.8126048,21.558125 56.8487445,21.5541294 L56.8487445,21.5541294 L56.7834949,21.3257557 C56.9492754,21.3761768 57.0857276,21.4948308 57.1586803,21.6520039 C57.1861819,21.7442471 57.1861819,21.8425091 57.1586803,21.9347523 L57.1586803,21.9945645 L57.20218,21.9510647 C57.2636092,21.8931529 57.3118296,21.8226769 57.3435543,21.7444409 C57.4110093,21.569468 57.4110093,21.3756667 57.3435543,21.2006939 C57.2583324,21.0293207 57.1072601,20.8998302 56.9248691,20.8418209 C56.8443213,20.8141782 56.7598965,20.7994956 56.6747455,20.7983212 L56.6747455,20.7983212 L54.7390063,20.9940701 L55.9733119,20.1240749 C56.0497461,20.1675111 56.1355725,20.1917664 56.2234355,20.194762 C56.3499651,20.1907086 56.4711151,20.1426332 56.5659961,20.0588253 L56.5659961,20.0588253 L56.3811221,19.8685139 L56.4681217,19.8685139 C56.6070153,19.8617428 56.7432249,19.9084432 56.8487445,19.9990131 C56.9197631,20.0638919 56.9722996,20.1464493 57.0009937,20.2382618 L57.0009937,20.298074 L57.0009937,20.2382618 C57.0187562,20.1595013 57.0187562,20.0777736 57.0009937,19.9990131 C56.9546848,19.6561701 56.6618288,19.4005021 56.3158725,19.4008915 L56.2071231,19.4008915 C56.1135477,19.4125095 56.023087,19.4420477 55.9406871,19.487891 L54.4780078,20.6623844 L52.6999552,18.1393985 C52.8273841,18.2302815 52.9599128,18.3137928 53.0968905,18.3895221 C53.3205629,18.5020588 53.5512225,18.6001345 53.7874491,18.6831455 C53.8130477,18.6899752 53.8400891,18.6791507 53.8539044,18.6565439 C53.8677197,18.633937 53.8650166,18.6049353 53.8472613,18.585271 C53.2942052,18.0639908 52.7866765,17.4964318 52.3302073,16.8887805 C51.954373,16.5122829 51.7167754,16.0198426 51.6559611,15.4913509 C51.7864603,15.8828487 51.9550219,15.9970355 52.3138949,15.9970355 C52.5979023,15.9959161 52.8485657,15.8112167 52.9337664,15.5402881 C53.0322994,15.7903016 53.2740347,15.9543364 53.542763,15.9535358 C53.8877612,15.9539746 54.1724273,15.6836614 54.1898219,15.3391017 C54.314062,15.5164456 54.5170361,15.6219921 54.7335689,15.6218501 L54.8477557,15.6218501 L55.1468165,16.0296603 C55.2773158,16.2145343 55.5872516,16.6930316 55.5818141,16.6821567 C55.8269156,17.081405 56.1230357,17.4469854 56.4626842,17.7696506 C56.7235004,18.0165915 57.0138966,18.2302792 57.3272418,18.4058345 C57.802125,18.6678251 58.3406921,18.7921099 58.8823582,18.7647075 C58.9040646,18.7619028 58.9225057,18.7474659 58.9304385,18.7270672 C58.9383713,18.7066685 58.9345289,18.6835659 58.9204204,18.6668331 C58.7409839,18.5091465 58.3766735,18.1611484 58.0776127,17.8838375 C57.4611521,17.2499798 56.9293019,16.5390184 56.495309,15.7686618 C56.3648097,15.5239757 56.2451854,15.2792895 56.1255611,15.0454783 C56.3505165,14.94173 56.49479,14.7168331 56.495309,14.4691066 C56.4936639,14.400419 56.4808071,14.3324616 56.4572467,14.2679202 C56.557945,14.32692 56.6722336,14.3587709 56.7889324,14.3603572 C56.9833133,14.3605004 57.1672797,14.2725165 57.2891796,14.1211085 L57.4088039,14.1809207 C57.6154277,14.2733577 58.1265499,14.5343562 58.1156749,14.5234813 C58.5287963,14.749266 58.9692106,14.9210458 59.4261051,15.0346034 C59.7824992,15.117414 60.1477772,15.1557682 60.513599,15.1487903 C61.0560416,15.1402149 61.5852786,14.9801254 62.041528,14.6866054 C62.063842,14.6792711 62.0789242,14.6584378 62.0789242,14.6349494 C62.0789242,14.611461 62.063842,14.5906277 62.041528,14.5832934 C61.8022793,14.5343562 61.2965946,14.4256068 60.9214092,14.3277324 C60.0594391,14.0854393 59.2331003,13.7307717 58.463673,13.2728633 L58.1809246,13.0934268 C58.237449,12.9998964 58.2675184,12.892774 58.2679241,12.783491 C58.266647,12.6260325 58.2065203,12.474746 58.0993625,12.3593684 L58.1809246,12.3593684 C58.4892689,12.3636525 58.7577913,12.1497449 58.822546,11.8482462 L58.822546,11.8482462 C59.2795663,11.9610772 59.7493038,12.0140826 60.2199757,12.0059328 C60.5873215,11.9912083 60.9519704,11.936511 61.3074696,11.8428088 C61.8301937,11.6944146 62.2998298,11.4001848 62.6613995,10.9945635 C62.6774819,10.9783415 62.6817106,10.9537974 62.6719842,10.9331287 C62.6622578,10.9124601 62.6406502,10.9000742 62.6178998,10.9021265 M47.2244234,6.23134015 L47.0776117,6.23134015 C46.8174247,6.25266582 46.5829823,6.07448962 46.5338647,5.81809246 C46.4642013,5.99531243 46.4761358,6.19422046 46.5664895,6.36183942 C46.6308616,6.45740623 46.7345564,6.51922425 46.849238,6.53040097 L46.9797372,6.53040097 C47.2982629,6.50472195 47.6095512,6.42183455 47.8986696,6.28571484 C48.0400438,6.23134015 48.1922929,6.16609051 48.3391046,6.12259075 C48.5510323,6.05966265 48.7673023,6.0124104 48.9861635,5.98121655 L48.7795397,5.98121655 C48.4120301,5.98535267 48.0465618,6.03651824 47.6920457,6.13346569 C47.5397966,6.17152798 47.38211,6.20959027 47.2135484,6.23677762" id="Shape"></path>
            </g>
        </g>
    </g>
</svg>