<?xml version="1.0" encoding="utf-8"?>
<!-- Generator: Adobe Illustrator 16.0.0, SVG Export Plug-In . SVG Version: 6.00 Build 0)  -->
<!DOCTYPE svg PUBLIC "-//W3C//DTD SVG 1.1//EN" "http://www.w3.org/Graphics/SVG/1.1/DTD/svg11.dtd">
<svg version="1.1" id="Ebene_1" xmlns="http://www.w3.org/2000/svg" xmlns:xlink="http://www.w3.org/1999/xlink" x="0px" y="0px"
	 width="283.465px" height="283.465px" viewBox="0 0 283.465 283.465" enable-background="new 0 0 283.465 283.465"
	 xml:space="preserve">
<rect x="0.001" y="0.002" fill="#0079C2" width="283.464" height="283.463"/>
<polygon fill="#FFFFFF" points="66.275,156.79 44.184,156.79 44.184,134.678 29.457,134.678 29.457,193.588 44.184,193.588 
	44.184,171.518 66.275,171.518 66.275,193.588 81.003,193.588 81.003,134.678 66.275,134.678 "/>
<g>
	<defs>
		<rect id="SVGID_1_" width="283.465" height="283.465"/>
	</defs>
	<clipPath id="SVGID_2_">
		<use xlink:href="#SVGID_1_"  overflow="visible"/>
	</clipPath>
	<path clip-path="url(#SVGID_2_)" fill="#FFFFFF" d="M226.042,149.037c8.324,0,15.096,6.772,15.096,15.096
		s-6.771,15.096-15.096,15.096s-15.096-6.772-15.096-15.096S217.718,149.037,226.042,149.037 M226.042,134.31
		c-16.471,0-29.823,13.352-29.823,29.823c0,16.471,13.353,29.822,29.823,29.822s29.823-13.352,29.823-29.822
		C255.865,147.661,242.513,134.31,226.042,134.31"/>
	<path clip-path="url(#SVGID_2_)" fill="#FFFFFF" d="M52.318,227.676c0-6.939,3.556-12.519,11.715-12.519
		c7.846,0,11.542,5.23,11.542,12.274c0,6.904-3.592,12.378-11.646,12.378C56.015,239.81,52.318,234.893,52.318,227.676
		 M70.416,227.467c0-4.463-1.779-8.125-6.451-8.125c-4.673,0-6.451,3.871-6.451,8.125c0,4.533,1.814,8.159,6.451,8.159
		C68.637,235.626,70.416,231.859,70.416,227.467"/>
	<path clip-path="url(#SVGID_2_)" fill="#FFFFFF" d="M93.372,239.286l-5.091-8.926h-3.207v8.926h-4.986v-23.604h8.193
		c6.102,0,8.962,2.266,8.962,6.834c0,2.614-1.709,4.951-4.324,6.206l6.102,10.564H93.372z M92.256,222.934
		c0-2.268-1.604-2.999-4.01-2.999h-3.172v6.276h3.172C90.757,226.211,92.256,225.096,92.256,222.934"/>
	<path clip-path="url(#SVGID_2_)" fill="#FFFFFF" d="M141.125,239.286l-5.091-8.926h-3.207v8.926h-4.986v-23.604h8.193
		c6.103,0,8.962,2.266,8.962,6.834c0,2.614-1.709,4.951-4.324,6.206l6.102,10.564H141.125z M140.008,222.934
		c0-2.268-1.604-2.999-4.01-2.999h-3.172v6.276h3.172C138.509,226.211,140.008,225.096,140.008,222.934"/>
	<polygon clip-path="url(#SVGID_2_)" fill="#FFFFFF" points="150.367,215.681 155.388,215.681 155.388,234.963 165.637,234.963 
		165.637,239.286 150.367,239.286 	"/>
	<path clip-path="url(#SVGID_2_)" fill="#FFFFFF" d="M178.366,239.286h-8.438v-23.604h7.566c6.066,0,8.718,1.986,8.718,5.892
		c0,2.092-1.221,4.359-3.871,4.952v0.07c2.894,0.243,5.335,2.439,5.335,5.578C187.676,237.438,183.91,239.286,178.366,239.286
		 M177.704,219.9h-2.824v5.021h3.103c2.093,0,3.207-1.011,3.207-2.579C181.189,220.633,179.97,219.9,177.704,219.9 M178.818,229.035
		h-3.938v5.997h3.938c2.371,0,3.802-1.116,3.802-2.998C182.62,229.942,181.016,229.035,178.818,229.035"/>
	<polygon clip-path="url(#SVGID_2_)" fill="#FFFFFF" points="191.968,215.681 207.133,215.681 207.133,220.005 196.988,220.005 
		196.988,224.991 205.843,224.991 205.843,229.313 196.988,229.313 196.988,234.963 207.237,234.963 207.237,239.286 
		191.968,239.286 	"/>
	<path clip-path="url(#SVGID_2_)" fill="#FFFFFF" d="M224.972,239.286l-5.091-8.926h-3.208v8.926h-4.986v-23.604h8.194
		c6.101,0,8.961,2.266,8.961,6.834c0,2.614-1.709,4.951-4.324,6.206l6.102,10.564H224.972z M223.854,222.934
		c0-2.268-1.604-2.999-4.009-2.999h-3.173v6.276h3.173C222.355,226.211,223.854,225.096,223.854,222.934"/>
	<path clip-path="url(#SVGID_2_)" fill="#FFFFFF" d="M245.528,219.308c-5.125,0-8.089,2.789-8.089,8.192
		c0,5.126,2.512,8.16,6.903,8.16c1.43,0,2.407-0.14,3.243-0.278v-8.822h4.952v11.576c-2.442,1.115-5.439,1.674-8.752,1.674
		c-6.451,0-11.508-3.591-11.508-12.064c0-8.298,5.126-12.587,12.657-12.587c2.721,0,4.848,0.523,6.556,1.325v4.358
		C249.853,219.971,247.76,219.308,245.528,219.308"/>
	<polygon clip-path="url(#SVGID_2_)" fill="#FFFFFF" points="45.295,215.681 40.056,233.305 34.816,215.681 29.456,215.681 
		37.231,239.286 37.52,239.286 42.591,239.286 42.88,239.286 50.655,215.681 	"/>
	<path clip-path="url(#SVGID_2_)" fill="#FFFFFF" d="M118.64,239.287h5.361l-7.775-23.606h-0.289h-5.071h-0.289l-7.775,23.606h5.36
		l1.366-4.595h7.747L118.64,239.287z M110.786,230.462l2.616-8.799l2.615,8.799H110.786z"/>
	<polygon clip-path="url(#SVGID_2_)" fill="#FFFFFF" points="123.713,134.678 113.402,160.452 103.092,134.678 88.365,134.678 
		106.038,178.862 106.038,193.591 120.766,193.591 120.766,178.862 138.441,134.678 	"/>
	<path clip-path="url(#SVGID_2_)" fill="#FFFFFF" d="M167.892,134.679h-22.087v58.912h14.725v-14.736h7.362
		c12.2,0,22.1-9.889,22.1-22.087C189.991,144.567,180.092,134.679,167.892,134.679 M167.892,164.129h-7.362v-14.725h7.362
		c4.075,0,7.363,3.3,7.363,7.363C175.255,160.841,171.967,164.129,167.892,164.129"/>
</g>
</svg>
