<?xml version="1.0" encoding="UTF-8" standalone="no"?>
<svg
   xmlns:svg="http://www.w3.org/2000/svg"
   xmlns="http://www.w3.org/2000/svg"
   version="1.1"
   width="527.10242"
   height="164.72646"
   id="svg4192">
  <defs
     id="defs4194" />
  <g
     transform="translate(-86.44878,-449.99896)"
     id="layer1">
    <path
       d="m 613.55122,584.31507 c 0,16.79579 -13.60438,30.41034 -30.39525,30.41034 l -466.29685,0 c -16.80081,0 -30.41034,-13.61455 -30.41034,-30.41034 l 0,-103.89571 c 0,-16.80083 13.60953,-30.4204 30.41034,-30.4204 l 466.29685,0 c 16.79087,0 30.39525,13.61957 30.39525,30.4204 l 0,103.89571 z"
       id="path38"
       style="fill:#0b2464;fill-opacity:1;fill-rule:nonzero;stroke:none" />
    <path
       d="m 429.30859,567.29965 15.444,0 0,-60.56939 -15.444,0 0,60.56939 z m 7.7295,-83.99405 c -4.81962,0 -8.9055,4.07582 -8.9055,8.89041 0,4.8146 4.08588,8.89041 8.9055,8.89041 4.81463,0 8.88538,-4.07581 8.88538,-8.89041 0,-4.81459 -4.07075,-8.89041 -8.88538,-8.89041 m 30.86275,15.77056 0,7.6541 -7.3375,0 0,14.52419 7.3375,0 0,46.0452 15.46388,0 0,-46.0452 10.368,0 0,-14.52419 -10.368,0 0,-5.45286 c 0,-3.83459 1.63337,-5.20157 6.257,-5.20157 2.00012,0 3.60837,0.38698 5.287,1.1559 l 0,-12.25761 c -2.71388,-1.10063 -6.00575,-1.66853 -9.83525,-1.66853 -11.70975,0 -17.17263,5.0106 -17.17263,15.77057 m -95.18126,-12.74512 -15.67506,0 0,80.96861 56.58906,0 0,-15.45394 -40.914,0 0,-65.51467 z m 185.49251,50.74422 c 0,-18.61509 -10.4685,-31.62655 -25.445,-31.62655 -15.62487,0 -26.96775,13.313 -26.96775,31.62655 0,19.14279 11.18213,31.51599 28.4805,31.51599 8.423,0 16.78063,-3.76925 21.4445,-9.57893 -0.50262,-0.41714 -10.55887,-8.83514 -10.94587,-9.1618 -2.45763,2.67365 -6.247,4.21654 -10.49863,4.21654 -5.84487,0 -12.29787,-3.1109 -12.911,-11.84049 l 0,-0.34175 36.64213,0 c 0,-0.50256 0.22112,-4.80956 0.22112,-4.80956 m -36.63712,-6.68414 0.05,-0.3317 c 0.64337,-6.83491 4.70912,-11.25248 10.33287,-11.25248 7.61888,0 10.83025,5.80968 11.28263,11.25248 l 0.05,0.3317 -21.68075,0 z M 242.4994,505.44871 c -9.98601,0 -15.87107,2.20626 -22.53511,5.99562 0.29651,0.5277 5.6187,10.15185 5.87501,10.63935 5.66895,-3.01541 9.62919,-3.97029 16.6601,-3.97029 5.50312,0 9.06129,3.1913 9.06129,8.12652 l 0,3.53807 -0.46236,-0.22615 c -3.25161,-1.6233 -7.05101,-2.41735 -11.63443,-2.41735 -15.11722,0 -24.50518,7.6541 -24.50518,19.96196 0,14.84584 11.31278,21.49481 22.53008,21.49481 5.21665,0 10.40315,-2.02033 13.52409,-5.27193 l 0.5478,-0.56287 0,4.5432 15.45394,0 0,-40.70794 c 0,-13.04163 -9.39298,-21.143 -24.51523,-21.143 m 9.01605,44.3817 c -1.7238,2.85961 -5.92526,5.74937 -11.46857,5.74937 -8.70446,0 -9.63924,-5.92527 -9.63924,-8.48334 0,-5.16136 3.4275,-8.00588 9.63924,-8.00588 6.04085,0 8.6542,0.91968 11.35801,2.61333 l 0.1558,0.0905 -0.0503,8.03606 z m -71.90227,-63.49937 -35.36064,0 0,80.96861 15.69015,0 0,-28.90264 18.26833,0 c 10.89565,0 29.17402,-3.44762 29.17402,-26.51042 0,-15.51927 -10.90069,-25.55555 -27.77186,-25.55555 m -0.35682,36.8432 -19.31367,0 0,-21.62043 19.07745,0 c 7.87523,0 12.21239,3.80946 12.21239,10.69966 0,7.1465 -4.14115,10.92077 -11.97617,10.92077 m 135.35138,12.8406 c -1.55294,4.5432 -3.22145,10.17195 -3.9552,13.37332 l -0.61314,0 c -0.76892,-3.19634 -2.41735,-8.98088 -3.96525,-13.37332 0,0 -9.80508,-28.85238 -9.94581,-29.28458 l -17.02697,0 c 1.72381,4.43263 23.61061,60.78549 23.61061,61.00662 0,0 -7.68425,20.30874 -7.99585,21.13798 l 15.17251,0 c 0.15579,-0.41714 30.91793,-81.30029 31.2446,-82.1446 l -16.5797,0 c -0.74882,2.20626 -9.9458,29.28458 -9.9458,29.28458"
       id="path40"
       style="fill:#ffffff;fill-opacity:1;fill-rule:nonzero;stroke:none" />
  </g>
</svg>
