<svg xmlns="http://www.w3.org/2000/svg" viewBox="627.914 1150.969 96.263 25.082" width="123" height="32"><g id="jofogas_logo" fill="#ff7330" transform="translate(627.875 1150.979)"><path id="path" class="cls-1" d="M497.51,1141.69q-.428,0-1.27.042t-1.27.042q-.457,0-1.348-.042t-1.348-.042q-.457,0-.457.251a1.136,1.136,0,0,0,.029.209,91.766,91.766,0,0,1,.514,11.119,17.453,17.453,0,0,1-.4,4.451,4.539,4.539,0,0,1-.856,1.646,13.725,13.725,0,0,1-1.224,1.141,4.541,4.541,0,0,1-1.468.621,15.39,15.39,0,0,1-1.828.171h-.021a.863.863,0,0,0-.112.032.322.322,0,0,0-.209.25.537.537,0,0,0-.01.145q.277,1.557.444,2.322.112,1.537.145,2.289a.415.415,0,0,0,.133.332.768.768,0,0,0,.5.079,11.132,11.132,0,0,0,6.014-2.068c.074-.052.146-.1.217-.154a1.509,1.509,0,0,0,.205-.156l.024-.02a6.628,6.628,0,0,0,.521-.469,11.154,11.154,0,0,0,2.849-4.827,19.342,19.342,0,0,0,.585-5.4q0-1.939.029-5.81t.029-5.8Q497.924,1141.691,497.51,1141.69Z" transform="translate(-486.19 -1141.682)"/><path id="path-2" data-name="path" class="cls-1" d="M737.262,1272.16a6.867,6.867,0,0,0-5.251,2.062,7.518,7.518,0,0,0-1.941,5.371,6.9,6.9,0,0,0,2.026,5.137,7.718,7.718,0,0,0,10.4-.027,7.212,7.212,0,0,0,1.991-5.28,7.137,7.137,0,0,0-2-5.244A7.021,7.021,0,0,0,737.262,1272.16Zm1.869,9.247a2.369,2.369,0,0,1-3.7,0,3.19,3.19,0,0,1,0-3.95,2.3,2.3,0,0,1,1.855-.886,2.223,2.223,0,0,1,1.812.864,3.226,3.226,0,0,1,.03,3.973Z" transform="translate(-717.316 -1265.348)"/><path id="path-3" data-name="path" class="cls-1" d="M805.152,1146.135a3.448,3.448,0,0,1-.029.371,3.373,3.373,0,0,0-.029.357q0,.313.271.3h.128a12.985,12.985,0,0,0,4.21-1.147,12.751,12.751,0,0,0,3.767-2.247q.2-.185.2-.3t-.228-.285q-.771-.5-1.17-.73-.714-.626-1.043-.97a.755.755,0,0,0-.242-.143.98.98,0,0,0-.285.143q-1.77,1.242-2.64,1.869a26.3,26.3,0,0,1-2.711,1.413q-.3.114-.3.313a4.2,4.2,0,0,0,.052.528A4.24,4.24,0,0,1,805.152,1146.135Z" transform="translate(-788.386 -1141.35)"/><path id="path-4" data-name="path" class="cls-1" d="M1038.509,1149.206q0-.319-.428-.319t-1.27.029q-.842.029-1.242.029a5.356,5.356,0,0,1-.071-.9,3.187,3.187,0,0,1,.469-2.046,2.526,2.526,0,0,1,1.441-.435q1.013-.1,1.013-.45a3.859,3.859,0,0,0-.128-.827q-.171-.7-.186-.813-.214-1.277-.328-1.929-.057-.174-.343-.174-4.238,0-6.136,2.25a5.579,5.579,0,0,0-.956,3.628q0,.654.071,1.814-.5.029-.984.072a.611.611,0,0,0-.542.653q0,2.409.128,3.671.014.232.414.232.1,0,.321-.015t.321-.015q.571,0,.571.421v8a.539.539,0,0,0,.485.595,15.458,15.458,0,0,0,2.1.087q1.94,0,2.426-.058.4-.043.4-.348,0-1.03-.1-2.873-.114-2.046-.128-2.873-.043-1.945-.085-3.033.886.087,2.426.087.371,0,.371-.348,0-.682-.014-2.053T1038.509,1149.206Z" transform="translate(-1000.554 -1141.379)"/><path id="path-5" data-name="path" class="cls-1" d="M1242.512,1272.16a6.866,6.866,0,0,0-5.251,2.062,7.518,7.518,0,0,0-1.941,5.371,6.9,6.9,0,0,0,2.026,5.137,7.72,7.72,0,0,0,10.4-.029,7.212,7.212,0,0,0,1.991-5.28,7.137,7.137,0,0,0-2-5.244A7.014,7.014,0,0,0,1242.512,1272.16Zm1.869,9.247a2.369,2.369,0,0,1-3.7,0,3.19,3.19,0,0,1,0-3.95,2.3,2.3,0,0,1,1.855-.886,2.224,2.224,0,0,1,1.813.864,3.074,3.074,0,0,1,.7,1.99A3.038,3.038,0,0,1,1244.382,1281.407Z" transform="translate(-1196.22 -1265.348)"/><path id="path-6" data-name="path" class="cls-1" d="M1549.005,1272.556q-.086-.029-2.321-.266t-2.464-.238q-.257,0-.257,1.152,0,.518-.128.518-.086,0-.313-.317a3.828,3.828,0,0,0-3.29-1.556,5.537,5.537,0,0,0-4.358,1.887,7.265,7.265,0,0,0,.073,9.175,5.613,5.613,0,0,0,4.4,1.944,5.19,5.19,0,0,0,3.731-1.383v.965q0,.939-1.225,1.556a4.431,4.431,0,0,1-2.036.519,9.163,9.163,0,0,1-4.058-1.1.64.64,0,0,0-.156-.058q-.214,0-.313.4-.612,2.549-.612,2.823,0,.662,2.634,1.152a18.693,18.693,0,0,0,3.261.389q4.1,0,5.867-1.829,1.709-1.786,1.709-5.892,0-.59-.014-1.773t-.014-1.773q0-.994.064-2.967t.064-2.967A.355.355,0,0,0,1549.005,1272.556Zm-5.475,7.691a2.218,2.218,0,0,1-1.73.777,2.249,2.249,0,0,1-1.716-.763,2.584,2.584,0,0,1-.705-1.815,2.692,2.692,0,0,1,.691-1.837,2.313,2.313,0,0,1,3.46-.014,2.758,2.758,0,0,1,0,3.65Z" transform="translate(-1479.591 -1265.055)"/><path id="path-7" data-name="path" class="cls-1" d="M1940.59,1146.135a3.464,3.464,0,0,1-.029.371,3.355,3.355,0,0,0-.029.357q0,.313.271.3h.13a12.985,12.985,0,0,0,4.21-1.147,12.752,12.752,0,0,0,3.767-2.247q.2-.185.2-.3t-.228-.285q-.771-.5-1.17-.73-.714-.626-1.043-.97a.758.758,0,0,0-.242-.143.981.981,0,0,0-.285.143q-1.77,1.242-2.64,1.869a26.305,26.305,0,0,1-2.712,1.413q-.3.114-.3.313a4.21,4.21,0,0,0,.052.528A4.248,4.248,0,0,1,1940.59,1146.135Z" transform="translate(-1864.62 -1141.35)"/><path id="path-8" data-name="path" class="cls-1" d="M1858.466,1272.4a20.282,20.282,0,0,0-2.026-.491,12.4,12.4,0,0,0-2.012-.3q-.229,0-.393.7t-.292.7q-.043,0-.1-.072a4.328,4.328,0,0,0-3.539-1.588,6.418,6.418,0,0,0-5.08,2.108,7.85,7.85,0,0,0-1.784,5.371,7.523,7.523,0,0,0,1.726,4.966,5.714,5.714,0,0,0,4.609,2.223,4.762,4.762,0,0,0,3.425-1.632,1.322,1.322,0,0,1,.3-.245q.128.014.221.845t.365.83q2.283,0,4.053-.13.5-.043.5-.621,0-1.095-.128-3.292t-.128-3.306a32.108,32.108,0,0,1,.457-5.527,2.646,2.646,0,0,0,.043-.3Q1858.68,1272.491,1858.466,1272.4Zm-5.651,8.193a2.628,2.628,0,0,1-1.982.8,2.582,2.582,0,0,1-1.941-.837,3.013,3.013,0,0,1-.043-4.04,2.872,2.872,0,0,1,3.972.007,3.082,3.082,0,0,1-.007,4.069Z" transform="translate(-1772.44 -1264.581)"/><path id="path-9" data-name="path" class="cls-1" d="M2167.081,1275.626a2.645,2.645,0,0,1,1.413-.353,3.456,3.456,0,0,1,.8.095.643.643,0,0,0,.214-.365,6.948,6.948,0,0,0-.9-1.7q-.9-1.459-1.127-1.46a7.482,7.482,0,0,0-4.153,1.262,4.106,4.106,0,0,0-2.169,3.46,3.39,3.39,0,0,0,.73,2.063q.057.081,1.356,1.452a2.213,2.213,0,0,1,.73,1.384q0,.869-1.256,1.248l-2.012.353q-.156.027-.156.149a5.878,5.878,0,0,0,.991,1.8q.991,1.472,1.277,1.472a7.468,7.468,0,0,0,2.811-.626,9.968,9.968,0,0,0,2.469-1.466,2.842,2.842,0,0,0,.828-1.248,4.241,4.241,0,0,0,.285-1.466,3.758,3.758,0,0,0-.73-2.212,13.932,13.932,0,0,0-1.356-1.479,2,2,0,0,1-.73-1.208A1.279,1.279,0,0,1,2167.081,1275.626Z" transform="translate(-2073.205 -1265.045)"/></g></svg>