<svg width="48" height="49" viewBox="0 0 48 49" fill="none" xmlns="http://www.w3.org/2000/svg">
  <path
    fill-rule="evenodd"
    clip-rule="evenodd"
    d="M40.9956 25.5717C41.1754 26.3612 41.731 31.3282 41.0159 36.2899C40.2914 41.3177 38.3592 46.0624 38.0406 46.252C37.7186 46.4436 32.6342 46.0028 27.8791 44.8719C23.2851 43.7793 19.0171 42.0145 18.6118 41.127C18.4203 40.7078 18.7663 39.8227 19.3205 38.4051C19.9172 36.8787 20.7552 34.7351 21.4237 31.8908C22.1444 28.824 22.3578 25.6478 22.4859 23.7409C22.5512 22.7691 22.5944 22.127 22.6712 21.9971C22.9566 21.5144 25.6783 17.909 28.8001 15.6776C32.1695 13.2692 35.3128 13.4979 37.5678 17.1207C39.5642 20.328 40.8158 24.7821 40.9956 25.5717ZM32.4715 21.6025C33.8522 21.6025 34.9779 20.4832 34.9858 19.1025C34.9937 17.7218 33.8808 16.6026 32.5001 16.6026C31.1194 16.6026 29.9937 17.7218 29.9858 19.1025C29.9779 20.4832 31.0908 21.6025 32.4715 21.6025Z"
    fill="#CC0074"
  />
  <path
    d="M41.0159 36.2899L41.7583 36.3968L41.0159 36.2899ZM40.9956 25.5717L40.2643 25.7382L40.2643 25.7382L40.9956 25.5717ZM38.0406 46.252L38.4242 46.8965L38.0406 46.252ZM27.8791 44.8719L27.7056 45.6016L27.8791 44.8719ZM18.6118 41.127L19.294 40.8154H19.294L18.6118 41.127ZM19.3205 38.4051L18.622 38.132L18.622 38.132L19.3205 38.4051ZM21.4237 31.8908L22.1538 32.0624L22.1538 32.0624L21.4237 31.8908ZM22.4859 23.7409L21.7376 23.6907L22.4859 23.7409ZM22.6712 21.9971L22.0256 21.6153H22.0256L22.6712 21.9971ZM28.8001 15.6776L29.2362 16.2878L29.2362 16.2878L28.8001 15.6776ZM37.5678 17.1207L38.2046 16.7244V16.7244L37.5678 17.1207ZM34.9858 19.1025L34.2358 19.0982V19.0982L34.9858 19.1025ZM29.9858 19.1025L30.7358 19.1068V19.1068L29.9858 19.1025ZM41.7583 36.3968C42.1241 33.8583 42.1639 31.3287 42.0908 29.3387C42.0184 27.3655 41.8327 25.8699 41.7269 25.4052L40.2643 25.7382C40.3383 26.063 40.5203 27.4457 40.5918 29.3937C40.6627 31.325 40.6228 33.7598 40.2736 36.1829L41.7583 36.3968ZM38.4242 46.8965C38.5313 46.8327 38.6029 46.7562 38.6364 46.7185C38.6767 46.673 38.7104 46.6271 38.737 46.5884C38.7902 46.5108 38.8421 46.4215 38.8908 46.3307C38.9897 46.1468 39.1036 45.9047 39.2267 45.6195C39.474 45.0461 39.7754 44.2576 40.0874 43.3227C40.7111 41.4538 41.388 38.966 41.7583 36.3968L40.2736 36.1829C39.9193 38.6415 39.2678 41.04 38.6646 42.8479C38.3631 43.7512 38.0765 44.4987 37.8493 45.0254C37.7351 45.2902 37.6402 45.4892 37.5695 45.6207C37.5335 45.6876 37.5105 45.7246 37.5001 45.7398C37.4948 45.7475 37.4995 45.7396 37.5138 45.7235C37.5212 45.7152 37.5697 45.6595 37.657 45.6075L38.4242 46.8965ZM27.7056 45.6016C30.1168 46.175 32.6057 46.5724 34.5333 46.8026C35.497 46.9177 36.3284 46.992 36.9455 47.0252C37.2524 47.0417 37.5173 47.0486 37.7236 47.0439C37.8255 47.0416 37.9271 47.0362 38.0188 47.0247C38.0694 47.0184 38.2541 46.9977 38.4242 46.8965L37.657 45.6075C37.7868 45.5303 37.8941 45.5286 37.8325 45.5363C37.812 45.5389 37.7667 45.5425 37.6895 45.5443C37.5375 45.5478 37.3153 45.5429 37.026 45.5273C36.4506 45.4964 35.6532 45.4257 34.7112 45.3132C32.8273 45.0882 30.3965 44.6997 28.0526 44.1423L27.7056 45.6016ZM17.9295 41.4386C18.0521 41.7069 18.2702 41.9198 18.4614 42.0771C18.6682 42.2473 18.9235 42.4161 19.2079 42.5814C19.7783 42.9128 20.5284 43.2657 21.3919 43.6172C23.1226 44.3217 25.375 45.0473 27.7056 45.6016L28.0526 44.1423C25.7893 43.604 23.6106 42.9008 21.9575 42.2279C21.1291 41.8907 20.449 41.5677 19.9616 41.2844C19.7171 41.1424 19.5365 41.0192 19.4145 40.9188C19.2767 40.8054 19.2728 40.7689 19.294 40.8154L17.9295 41.4386ZM18.622 38.132C18.3499 38.828 18.11 39.4398 17.9667 39.93C17.8944 40.177 17.8369 40.425 17.8166 40.6596C17.7968 40.8892 17.8066 41.1693 17.9295 41.4386L19.294 40.8154C19.3212 40.8751 19.3025 40.8874 19.311 40.7888C19.3191 40.6953 19.3468 40.5548 19.4064 40.351C19.5267 39.9394 19.7369 39.3998 20.019 38.6781L18.622 38.132ZM20.6936 31.7192C20.038 34.5084 19.2169 36.6103 18.622 38.132L20.019 38.6781C20.6175 37.1471 21.4724 34.9618 22.1538 32.0624L20.6936 31.7192ZM21.7376 23.6907C21.6092 25.6018 21.3984 28.7202 20.6936 31.7192L22.1538 32.0624C22.8904 28.9279 23.1064 25.6939 23.2342 23.7912L21.7376 23.6907ZM22.0256 21.6153C21.9646 21.7185 21.9346 21.8196 21.9201 21.8729C21.9027 21.9368 21.8898 22.0023 21.8796 22.0624C21.8592 22.1828 21.8425 22.3268 21.8277 22.4818C21.7978 22.7932 21.77 23.2093 21.7376 23.6907L23.2342 23.7912C23.2672 23.3008 23.2935 22.9099 23.3208 22.6248C23.3345 22.4816 23.3471 22.3799 23.3585 22.313C23.3642 22.2795 23.3677 22.2659 23.3677 22.266C23.3675 22.2666 23.3649 22.2762 23.359 22.2919C23.3537 22.306 23.3408 22.3383 23.3168 22.3788L22.0256 21.6153ZM28.364 15.0675C26.7398 16.2284 25.237 17.7327 24.1123 18.9939C22.9982 20.2432 22.2067 21.3092 22.0256 21.6153L23.3168 22.3788C23.4212 22.2022 24.1332 21.2242 25.2318 19.9923C26.3197 18.7723 27.7386 17.3582 29.2362 16.2878L28.364 15.0675ZM38.2046 16.7244C36.9981 14.7861 35.4781 13.6434 33.7061 13.3947C31.9561 13.1491 30.1354 13.8013 28.364 15.0675L29.2362 16.2878C30.8342 15.1455 32.2699 14.7078 33.4976 14.8802C34.7033 15.0494 35.8825 15.8325 36.9311 17.5171L38.2046 16.7244ZM41.7269 25.4052C41.5394 24.5816 40.2649 20.0344 38.2046 16.7244L36.9311 17.5171C38.8635 20.6216 40.0923 24.9827 40.2643 25.7382L41.7269 25.4052ZM34.2358 19.0982C34.2303 20.0664 33.4397 20.8525 32.4715 20.8525V22.3525C34.2648 22.3525 35.7255 20.9 35.7358 19.1068L34.2358 19.0982ZM32.5001 17.3526C33.4649 17.3526 34.2413 18.1334 34.2358 19.0982L35.7358 19.1068C35.746 17.3102 34.2967 15.8526 32.5001 15.8526V17.3526ZM30.7358 19.1068C30.7413 18.1386 31.5319 17.3526 32.5001 17.3526V15.8526C30.7068 15.8526 29.246 17.305 29.2358 19.0982L30.7358 19.1068ZM32.4715 20.8525C31.5067 20.8525 30.7303 20.0716 30.7358 19.1068L29.2358 19.0982C29.2255 20.8948 30.6749 22.3525 32.4715 22.3525V20.8525Z"
    fill="#121417"
  />
  <path
    fill-rule="evenodd"
    clip-rule="evenodd"
    d="M37.57 17.1246C37.7439 17.4538 37.8982 17.8197 38.0309 18.2229C41.2409 27.9774 37.6666 40.4604 28.7386 45.0681C28.4515 45.005 28.1644 44.9396 27.8786 44.8716C23.2846 43.779 19.0166 42.0142 18.6113 41.1266C18.4198 40.7075 18.7658 39.8224 19.32 38.4047C19.9167 36.8784 20.7547 34.7347 21.4232 31.8905C22.1439 28.8237 22.3573 25.6475 22.4854 23.7406C22.5507 22.7688 22.5939 22.1267 22.6707 21.9967C22.8614 21.6743 24.1388 19.959 25.8963 18.1904C27.5962 17.3387 29.8253 16.2468 31.4815 15.4735C33.4772 14.5416 35.3033 14.6233 36.6054 15.835C36.9412 16.2026 37.2624 16.6305 37.5674 17.1204C37.5682 17.1218 37.5691 17.1232 37.57 17.1246ZM34.9855 19.1025C34.9776 20.4832 33.852 21.6025 32.4712 21.6025C31.0905 21.6025 29.9776 20.4832 29.9855 19.1025C29.9934 17.7218 31.1191 16.6025 32.4998 16.6025C33.8805 16.6025 34.9934 17.7218 34.9855 19.1025Z"
    fill="#121417"
  />
  <path
    d="M38.0309 18.2229L37.3185 18.4574L38.0309 18.2229ZM37.57 17.1246L38.2331 16.7742C38.2249 16.7587 38.2162 16.7435 38.2069 16.7286L37.57 17.1246ZM28.7386 45.0681L28.5778 45.8006C28.7486 45.8381 28.9272 45.8147 29.0825 45.7345L28.7386 45.0681ZM27.8786 44.8716L27.7051 45.6012H27.7051L27.8786 44.8716ZM18.6113 41.1266L19.2935 40.8151L19.2935 40.8151L18.6113 41.1266ZM19.32 38.4047L18.6215 38.1316H18.6215L19.32 38.4047ZM21.4232 31.8905L22.1533 32.0621L22.1533 32.0621L21.4232 31.8905ZM22.4854 23.7406L21.7371 23.6903L22.4854 23.7406ZM22.6707 21.9967L23.3163 22.3785L23.3163 22.3785L22.6707 21.9967ZM25.8963 18.1904L25.5603 17.5198C25.4877 17.5562 25.4215 17.6041 25.3643 17.6617L25.8963 18.1904ZM31.4815 15.4735L31.1642 14.7939V14.7939L31.4815 15.4735ZM36.6054 15.835L37.1592 15.3292C37.1455 15.3142 37.1312 15.2998 37.1163 15.2859L36.6054 15.835ZM37.5674 17.1204L38.2043 16.7244L38.2041 16.7241L37.5674 17.1204ZM34.9855 19.1025L34.2355 19.0982V19.0982L34.9855 19.1025ZM29.9855 19.1025L30.7355 19.1068V19.1068L29.9855 19.1025ZM38.7433 17.9885C38.5988 17.5494 38.4286 17.1443 38.2331 16.7742L36.9068 17.4749C37.0592 17.7634 37.1976 18.09 37.3185 18.4574L38.7433 17.9885ZM29.0825 45.7345C33.7597 43.3207 36.9945 38.8669 38.6493 33.8087C40.3041 28.7507 40.4014 23.0272 38.7433 17.9885L37.3185 18.4574C38.8703 23.1731 38.7855 28.5684 37.2236 33.3423C35.6618 38.1162 32.6454 42.2078 28.3946 44.4016L29.0825 45.7345ZM28.8993 44.3355C28.6163 44.2734 28.3335 44.2088 28.0521 44.1419L27.7051 45.6012C27.9954 45.6703 28.2867 45.7367 28.5778 45.8006L28.8993 44.3355ZM28.0521 44.1419C25.7888 43.6036 23.6101 42.9005 21.957 42.2276C21.1286 41.8904 20.4485 41.5673 19.9611 41.2841C19.7166 41.142 19.5361 41.0189 19.414 40.9184C19.2762 40.805 19.2723 40.7686 19.2935 40.8151L17.9291 41.4382C18.0516 41.7066 18.2697 41.9194 18.4609 42.0767C18.6677 42.2469 18.923 42.4158 19.2075 42.581C19.7778 42.9124 20.5279 43.2653 21.3914 43.6169C23.1221 44.3214 25.3745 45.0469 27.7051 45.6012L28.0521 44.1419ZM19.2935 40.8151C19.3208 40.8748 19.302 40.887 19.3105 40.7884C19.3186 40.695 19.3463 40.5544 19.4059 40.3506C19.5263 39.939 19.7365 39.3994 20.0186 38.6778L18.6215 38.1316C18.3494 38.8277 18.1095 39.4395 17.9662 39.9296C17.894 40.1766 17.8364 40.4246 17.8161 40.6593C17.7963 40.8888 17.8061 41.1689 17.9291 41.4382L19.2935 40.8151ZM20.0186 38.6778C20.6171 37.1468 21.4719 34.9614 22.1533 32.0621L20.6931 31.7189C20.0376 34.508 19.2164 36.61 18.6215 38.1316L20.0186 38.6778ZM22.1533 32.0621C22.8899 28.9275 23.1059 25.6935 23.2338 23.7909L21.7371 23.6903C21.6087 25.6014 21.3979 28.7198 20.6931 31.7189L22.1533 32.0621ZM23.2338 23.7909C23.2667 23.3005 23.293 22.9096 23.3203 22.6245C23.334 22.4813 23.3467 22.3796 23.358 22.3127C23.3637 22.2791 23.3672 22.2655 23.3672 22.2657C23.367 22.2662 23.3644 22.2759 23.3585 22.2916C23.3532 22.3057 23.3403 22.3379 23.3163 22.3785L22.0252 21.615C21.9641 21.7182 21.9341 21.8193 21.9196 21.8725C21.9022 21.9365 21.8893 22.0019 21.8791 22.0621C21.8587 22.1825 21.842 22.3264 21.8272 22.4815C21.7974 22.7929 21.7695 23.2089 21.7371 23.6903L23.2338 23.7909ZM23.3163 22.3785C23.4634 22.1298 24.6942 20.4641 26.4283 18.719L25.3643 17.6617C23.5833 19.4539 22.2594 21.2189 22.0252 21.615L23.3163 22.3785ZM31.1642 14.7939C29.4994 15.5713 27.2636 16.6665 25.5603 17.5198L26.2322 18.8609C27.9288 18.0109 30.1512 16.9224 31.7989 16.153L31.1642 14.7939ZM37.1163 15.2859C35.5145 13.7953 33.3287 13.7832 31.1642 14.7939L31.7989 16.153C33.6256 15.3 35.0921 15.4513 36.0945 16.384L37.1163 15.2859ZM36.0516 16.3408C36.3528 16.6705 36.6468 17.0608 36.9306 17.5167L38.2041 16.7241C37.878 16.2002 37.5296 15.7348 37.1592 15.3292L36.0516 16.3408ZM36.9304 17.5164C36.9325 17.5198 36.9314 17.518 36.933 17.5205L38.2069 16.7286C38.2064 16.7277 38.2058 16.7269 38.2054 16.7262C38.2049 16.7254 38.2046 16.7249 38.2043 16.7244L36.9304 17.5164ZM32.4712 22.3525C34.2645 22.3525 35.7253 20.9 35.7355 19.1068L34.2355 19.0982C34.23 20.0664 33.4394 20.8525 32.4712 20.8525V22.3525ZM29.2355 19.0982C29.2253 20.8948 30.6746 22.3525 32.4712 22.3525V20.8525C31.5064 20.8525 30.73 20.0716 30.7355 19.1068L29.2355 19.0982ZM32.4998 15.8525C30.7065 15.8525 29.2458 17.305 29.2355 19.0982L30.7355 19.1068C30.741 18.1386 31.5316 17.3525 32.4998 17.3525V15.8525ZM35.7355 19.1068C35.7458 17.3102 34.2964 15.8525 32.4998 15.8525V17.3525C33.4646 17.3525 34.241 18.1334 34.2355 19.0982L35.7355 19.1068Z"
    fill="#121417"
  />
  <path
    fill-rule="evenodd"
    clip-rule="evenodd"
    d="M22.2378 16.8549C22.753 16.6499 27.778 15.1928 30.8857 14.3828C33.9933 13.5728 37.3584 14.2373 37.8312 17.6918C37.9477 18.5425 38.0883 19.4714 38.2288 20.399C38.6587 23.2381 39.0867 26.0651 38.813 26.6009C34.0369 38.6682 28.1861 43.7877 15.9635 45.343C8.43943 41.9593 3.64912 32.4538 2.63086 27.6235C12.0325 27.6759 18.6784 22.5784 22.2378 16.8549ZM32.4715 21.6027C33.8523 21.6027 34.9779 20.4834 34.9858 19.1027C34.9937 17.722 33.8808 16.6027 32.5001 16.6027C31.1194 16.6027 29.9937 17.722 29.9858 19.1027C29.9779 20.4834 31.0908 21.6027 32.4715 21.6027Z"
    fill="white"
  />
  <path
    d="M30.8857 14.3828L30.6965 13.657L30.8857 14.3828ZM22.2378 16.8549L21.9605 16.158C21.8116 16.2173 21.6856 16.3227 21.6009 16.4588L22.2378 16.8549ZM37.8312 17.6918L38.5743 17.5901V17.5901L37.8312 17.6918ZM38.2288 20.399L38.9703 20.2867V20.2867L38.2288 20.399ZM38.813 26.6009L38.1451 26.2598C38.1342 26.281 38.1244 26.3028 38.1156 26.3249L38.813 26.6009ZM15.9635 45.343L15.6559 46.027C15.7819 46.0837 15.9211 46.1045 16.0582 46.087L15.9635 45.343ZM2.63086 27.6235L2.63504 26.8735C2.40826 26.8722 2.19308 26.9736 2.04972 27.1494C1.90635 27.3251 1.85021 27.5563 1.89699 27.7782L2.63086 27.6235ZM34.9858 19.1027L35.7358 19.107L34.9858 19.1027ZM29.9858 19.1027L29.2358 19.0984V19.0984L29.9858 19.1027ZM30.6965 13.657C29.1343 14.0642 27.0945 14.6329 25.3824 15.1249C23.6986 15.6088 22.2626 16.0378 21.9605 16.158L22.5151 17.5517C22.7282 17.467 24.0623 17.065 25.7967 16.5665C27.5028 16.0763 29.5294 15.5113 31.0748 15.1085L30.6965 13.657ZM38.5743 17.5901C38.2996 15.5833 37.1516 14.3299 35.6162 13.7383C34.133 13.1667 32.3436 13.2277 30.6965 13.657L31.0748 15.1085C32.5354 14.7278 33.9824 14.7161 35.0768 15.1379C36.1191 15.5396 36.89 16.3458 37.0882 17.7935L38.5743 17.5901ZM38.9703 20.2867C38.8297 19.3579 38.6899 18.4345 38.5743 17.5901L37.0882 17.7935C37.2055 18.6505 37.347 19.5849 37.4872 20.5112L38.9703 20.2867ZM39.4809 26.9421C39.5804 26.7474 39.6142 26.5308 39.6303 26.373C39.6482 26.1965 39.652 25.9974 39.6475 25.7888C39.6384 25.3705 39.5942 24.8521 39.5301 24.2801C39.4016 23.134 39.1845 21.7014 38.9703 20.2867L37.4872 20.5112C37.7029 21.9356 37.9148 23.3361 38.0394 24.4472C38.1018 25.0038 38.1402 25.4701 38.1478 25.8213C38.1516 25.9975 38.1473 26.1293 38.138 26.2211C38.1267 26.3316 38.1141 26.3205 38.1451 26.2598L39.4809 26.9421ZM16.0582 46.087C22.2574 45.2982 26.9276 43.5939 30.6602 40.4907C34.3845 37.3942 37.1001 32.9668 39.5104 26.8769L38.1156 26.3249C35.7498 32.3024 33.1519 36.4683 29.7012 39.3372C26.2586 42.1994 21.8921 43.8326 15.8689 44.599L16.0582 46.087ZM1.89699 27.7782C2.42872 30.3006 3.92368 33.9719 6.23318 37.4413C8.54193 40.9096 11.7178 44.256 15.6559 46.027L16.2711 44.659C12.6851 43.0463 9.70383 39.9481 7.48183 36.6101C5.26058 33.2733 3.85126 29.7767 3.36473 27.4688L1.89699 27.7782ZM21.6009 16.4588C18.1547 22.0004 11.7327 26.9242 2.63504 26.8735L2.62668 28.3735C12.3323 28.4276 19.2022 23.1563 22.8747 17.251L21.6009 16.4588ZM34.2358 19.0984C34.2303 20.0666 33.4397 20.8527 32.4715 20.8527V22.3527C34.2648 22.3527 35.7256 20.9002 35.7358 19.107L34.2358 19.0984ZM32.5001 17.3527C33.4649 17.3527 34.2413 18.1336 34.2358 19.0984L35.7358 19.107C35.7461 17.3104 34.2967 15.8527 32.5001 15.8527V17.3527ZM30.7358 19.107C30.7413 18.1388 31.5319 17.3527 32.5001 17.3527V15.8527C30.7068 15.8527 29.2461 17.3052 29.2358 19.0984L30.7358 19.107ZM32.4715 20.8527C31.5067 20.8527 30.7303 20.0718 30.7358 19.107L29.2358 19.0984C29.2256 20.895 30.6749 22.3527 32.4715 22.3527V20.8527Z"
    fill="#121417"
  />
  <path
    d="M25.833 26.4301L18.9878 36.2544"
    stroke="#121417"
    stroke-width="1.5"
    stroke-linecap="square"
    stroke-linejoin="round"
  />
  <path
    d="M26.7106 36.9498C28.0006 36.6042 28.7662 35.2781 28.4205 33.9881C28.0749 32.698 26.7488 31.9325 25.4588 32.2781C24.1687 32.6238 23.4032 33.9498 23.7488 35.2399C24.0945 36.5299 25.4205 37.2955 26.7106 36.9498Z"
    stroke="#121417"
    stroke-width="1.5"
  />
  <path
    d="M20.4222 29.0688L19.6978 29.2629L20.4222 29.0688C20.1242 27.9568 18.9812 27.2968 17.8691 27.5948C16.7571 27.8928 16.0971 29.0358 16.3951 30.1479C16.6931 31.26 17.8361 31.9199 18.9482 31.6219C20.0603 31.324 20.7202 30.1809 20.4222 29.0688Z"
    stroke="#121417"
    stroke-width="1.5"
  />
  <path
    d="M39.0252 20.2639C44.4399 20.2638 45.2295 13.6461 41.8751 7.09986"
    stroke="#121417"
    stroke-width="1.5"
    stroke-linecap="square"
    stroke-linejoin="round"
  />
  <path
    d="M34.2548 19.9736C30.2071 18.639 30.2915 13.3577 33.0809 11.0946C35.8702 8.83153 39.9822 7.64125 37.7098 3.7459"
    stroke="#121417"
    stroke-width="1.5"
    stroke-linecap="square"
    stroke-linejoin="round"
  />
</svg>