<svg width="80" height="80" viewBox="0 0 80 80" fill="none" xmlns="http://www.w3.org/2000/svg">
<path fill-rule="evenodd" clip-rule="evenodd" d="M40.7125 4.16512C37.6807 6.68053 35.8627 10.2259 34.1818 13.4975C32.9248 15.9445 30.9536 21.6742 30.9536 22.8805C30.9536 23.6839 29.6442 25.1536 29.2869 25.1536C27.8301 25.2995 29.1392 27.1363 29.6648 26.4336C29.8523 26.1829 30.4841 25.8772 30.4936 26.5447C30.4963 26.738 29.2869 27.8869 29.2869 27.8869C29.0987 27.9411 28.9115 28.6692 28.8706 29.5046C28.7954 31.0397 28.8643 33.3885 28.5126 33.3885C27.9383 33.3885 28.6968 35.614 28.144 35.614C27.6479 35.614 27.608 38.9529 27.5728 39.2306C27.1806 42.3236 27.439 45.4435 27.3997 48.5501C27.3463 52.7364 28.2781 59.2615 29.4651 63.0163C31.1202 68.2511 33.7423 73.5733 35.2811 74.8215C36.326 75.6692 36.8263 75.4383 35.7959 74.2326C34.5903 72.8213 34.8675 72.3015 36.1602 73.6377C36.7804 74.2786 36.7533 74.9843 36.7533 74.7567C36.7533 74.5289 36.9082 73.6154 37.174 73.5272C37.4399 73.4393 37.7199 74.1647 37.7199 74.3383C37.7199 74.5119 38.3813 75.0431 38.4931 74.9465C38.6052 74.85 38.3827 74.4209 38.6949 74.5653C39.8954 75.12 40.0591 74.2203 39.1592 72.0184C38.2641 69.8289 38.0161 65.9759 36.6138 64.0203C34.9847 61.7431 36.4846 58.1722 35.0904 56.0536C34.6507 55.388 34.8921 49.2453 34.4663 49.2453C33.4364 49.2464 35.9186 28.4074 36.5809 25.599C37.9525 19.7835 39.4665 14.2474 41.9653 8.67495C43.9516 4.24552 44.1085 3.48243 43.0317 3.48243C41.8544 3.48243 41.8102 3.25435 40.7125 4.16512ZM21.7536 9.38845C20.9415 10.2669 20.3589 11.3299 19.5317 12.1632C18.1903 13.5152 15.6143 20.3816 14.3577 25.9558C12.1896 35.5725 12.8978 53.572 15.7368 61.0085C17.7351 66.2422 20.7235 71.5298 21.3686 70.9729C21.4743 70.8819 21.7117 71.1504 21.8963 71.5696C22.1103 72.0556 22.398 72.2771 22.6899 72.1803C22.9419 72.0968 23.2064 72.178 23.2776 72.3605C23.3739 72.6076 23.5444 72.5948 23.9427 72.311C24.5433 71.8829 24.6615 70.7367 24.1344 70.4554C23.9449 70.3545 23.8673 70.0985 23.9613 69.8865C24.0554 69.6748 23.6198 68.1539 22.9931 66.5067C18.7291 55.2977 17.9912 46.2872 20.1168 31.3806C21.095 24.5212 23.9393 13.77 25.4305 10.4144C25.5845 10.0681 25.437 9.37481 25.1812 9.51113C24.4631 9.89379 24.1256 9.99445 24.6275 9.08778C24.807 8.68412 24.2291 7.48225 23.7674 7.46444C23.642 7.45972 22.7357 8.32546 21.7536 9.38845ZM64.9895 20.6553C64.3258 21.1555 64.0163 22.0257 63.8318 23.2452C65.2375 23.5854 63.9311 32.4187 62.9905 27.1104C62.6313 27.3302 62.0474 28.7646 62.1885 29.4874C62.2481 29.7934 63.2882 28.4303 63.1301 30.3696C62.9719 32.3089 61.6409 31.3216 61.9199 32.4118C62.0475 32.9101 62.0246 33.3855 61.869 33.4684C61.4681 33.6823 62.1854 35.2018 62.6046 35.6856C64.154 37.1207 63.5907 38.8738 61.5607 37.8211C61.117 37.591 60.9768 38.5085 61.3996 38.8738C61.5323 38.9884 62.7448 40.4804 62.7689 41.0412C62.8077 41.9374 62.5504 43.2083 62.2208 43.95C61.9304 44.6025 63.5974 43.3568 63.717 45.2308C63.8085 46.6643 62.3327 45.768 62.3327 46.1457C62.3327 48.7087 62.7815 48.5159 63.4509 48.1574C63.5659 48.0961 63.6068 49.73 63.9271 49.836C64.382 49.9866 64.0957 50.5056 64.4484 50.5056C64.7457 50.5056 64.9855 51.4028 65 51.5689C65.0616 52.2747 65.9419 53.3546 66.3723 53.3546C66.6956 53.3546 68.793 55.2523 67.9877 54.9665C67.7663 54.8566 67.3483 54.999 67.3483 55.0905C67.3483 55.4082 68.7595 56.9041 69.0595 56.9041C69.4275 56.9041 68.5323 56.0695 68.793 56.0695C68.9219 56.0695 69.315 56.385 69.6662 56.7706C70.4836 57.6675 72.2622 58.5224 71.977 57.8811C71.8581 57.6132 71.9783 57.4605 72.3079 57.4605C72.9548 57.4605 72.6848 56.7346 73.3052 57.1795C74.3746 57.9459 74.2134 56.6162 73.0596 55.1501C71.8153 53.5696 69.6037 49.7464 69.6037 49.1764C69.6037 48.9797 69.3153 48.0797 68.9628 47.1762C68.6103 46.2726 66.799 45.0541 66.704 44.3177C66.1261 39.8407 67.8383 42.2293 67.6692 41.4642C66.7547 37.3278 67.5433 34.6715 68.3163 29.5046C69.2187 23.4741 68.1477 24.3571 69.8167 20.291C70.9905 17.4322 70.9764 16.9676 69.7143 16.9201C65.6239 16.7661 67.2208 18.9726 64.9895 20.6553ZM52.7744 7.97632C49.5382 9.05544 45.3675 18.6448 43.6009 29.0697C41.2788 42.773 44.0001 57.8194 53.8138 67.4878C54.4208 68.0859 57.7099 71.0488 57.5636 70.7069C57.3523 70.2129 54.4984 66.8879 54.9813 67.2271C55.3648 67.4964 58.413 70.8174 58.413 70.5854C58.413 70.4048 57.4125 68.7976 57.5636 68.8782C57.7148 68.9589 58.0769 67.2628 57.764 67.4878C58.275 67.1651 57.0309 66.4905 58.3137 66.8005C51.3825 54.7894 48.0451 39.9321 49.6932 28.4212C50.606 22.0469 52.4084 14.0666 53.5893 11.1731C52.7744 9.96306 51.338 15.2323 50.6717 14.9305C50.3437 14.7819 53.1288 7.85809 52.7744 7.97632ZM28.389 50.1607C28.3072 50.4314 27.943 49.2453 27.943 45.3747C27.943 43.1945 28.2375 40.5162 28.6819 41.4642C28.7702 41.6526 28.7274 49.0417 28.389 50.1607ZM33.2561 69.9272C32.9243 70.2236 32.3097 69.1296 31.4534 66.9895C31.3133 66.5269 29.9212 63.3319 30.5071 63.3319C31.1605 63.3319 33.9095 69.3436 33.2561 69.9272ZM69.2815 57.118C69.2815 57.3937 71.206 58.6737 71.3861 58.5179C71.4525 58.4606 71.0062 58.0686 70.3944 57.6469C69.7822 57.2254 69.2815 56.9873 69.2815 57.118ZM34.6431 72.3605C34.1575 72.6497 33.5119 71.5789 33.3908 71.3046C33.2161 70.9081 34.1908 70.0011 34.5091 70.2738C34.7295 70.4626 35.3352 72.2256 34.6431 72.3605Z" fill="#2767E7"/>
<path d="M59.9818 29.2601C51.749 28.46 41.2376 24.2438 32.5228 20.1776C28.2137 18.1671 24.3697 16.2059 21.4878 14.7356L21.4184 14.7002C19.977 13.9648 18.772 13.3503 17.8793 12.9201C17.4338 12.7054 17.0544 12.5309 16.7562 12.4087C16.6076 12.3478 16.4682 12.2952 16.3443 12.2568C16.2401 12.2245 16.0765 12.1787 15.9078 12.1787C13.824 12.1787 11.9223 12.2618 10.4794 13.1723C8.96681 14.1267 8.13027 15.8566 7.79176 18.6532C7.69004 19.4935 7.46483 21.0465 7.18026 23.009C6.8567 25.2403 6.4564 28.0008 6.0736 30.8447C5.36161 36.1343 4.7078 41.7288 4.78223 44.459C4.85479 47.1203 5.11202 48.8613 5.83608 50.1531C6.57734 51.4756 7.74811 52.2206 9.29155 53.05C16.8706 57.1228 27.0475 59.5031 36.528 60.8699C46.0235 62.2387 54.8946 62.6007 59.9092 62.6007C61.1508 62.6007 62.106 62.2477 62.8046 61.5753C63.4827 60.9226 63.8349 60.048 64.0468 59.1683C64.2485 58.3312 64.3415 57.4035 64.4287 56.5332C64.4329 56.4907 64.4372 56.4484 64.4414 56.4062C64.5351 55.4736 64.6286 54.6078 64.8283 53.8487C65.282 52.1246 65.7218 48.4079 66.0301 44.8401C66.3389 41.2676 66.527 37.7086 66.4514 36.2843C66.2937 33.3138 64.3392 29.6835 59.9818 29.2601Z" fill="white" stroke="black" stroke-width="1.5" stroke-linecap="round" stroke-linejoin="round"/>
<path d="M59.9816 29.2598C51.2452 28.4108 44.2482 33.7086 39.326 39.0309C36.8529 41.7052 34.8661 44.4259 33.4124 46.4596C33.275 46.6518 33.1429 46.8371 33.016 47.0151C32.4652 47.7876 32.0115 48.424 31.6447 48.8957C31.418 49.187 31.2451 49.3884 31.1187 49.5113C31.1061 49.5236 31.0945 49.5346 31.0839 49.5442C24.7769 49.5106 20.0404 47.5666 16.6838 46.1889C16.362 46.0569 16.053 45.93 15.7565 45.8106C14.9084 45.4689 14.1308 45.1749 13.4523 45.0054C12.7889 44.8396 12.1016 44.7603 11.4894 44.9724C10.8164 45.2056 10.3858 45.7325 10.1471 46.4351C9.96496 46.9713 9.88124 47.6409 9.87028 48.4427C9.3153 48.5764 8.82315 48.7317 8.41538 48.9138C7.89802 49.1449 7.35842 49.4876 7.12218 50.0339C6.84327 50.6788 7.0989 51.2906 7.49568 51.7484C7.88192 52.1941 8.49605 52.6223 9.29138 53.0497C16.8704 57.1225 27.0473 59.5029 36.5278 60.8696C46.0234 62.2385 54.8944 62.6004 59.9091 62.6004C61.1506 62.6004 62.1059 62.2474 62.8044 61.5751C63.4825 60.9224 63.8347 60.0478 64.0467 59.168C64.2484 58.3308 64.3413 57.4031 64.4285 56.5328C64.4328 56.4904 64.437 56.4481 64.4412 56.4059C64.535 55.4734 64.6284 54.6075 64.8281 53.8484C65.2818 52.1243 65.7216 48.4076 66.03 44.8399C66.3387 41.2673 66.5269 37.7084 66.4513 36.284C66.2936 33.3135 64.339 29.6833 59.9816 29.2598Z" fill="#121417" stroke="black" stroke-width="1.5" stroke-linecap="round" stroke-linejoin="round"/>
<path d="M20.1153 13.1201C20.1078 13.1161 20.1002 13.1123 20.0926 13.1085C18.1222 12.1384 16.2133 11.9121 14.6792 12.8623C13.1719 13.7959 12.2949 15.7066 11.9772 18.3544C11.8816 19.1511 11.67 20.623 11.4026 22.4831C11.0985 24.5984 10.7222 27.2158 10.3622 29.9134C9.6931 34.9277 9.07806 40.235 9.1481 42.8268C9.2163 45.3502 9.45791 47.0084 10.1431 48.2414C10.8458 49.5061 11.9562 50.2175 13.408 51.0045C20.5137 54.8562 29.9338 57.6859 38.7216 59.5531C47.5114 61.4207 55.7425 62.3408 60.4983 62.3408C61.7836 62.3408 62.8057 62.1488 63.5775 61.5268C64.3438 60.9092 64.7235 59.9779 65.0116 58.8733C65.2313 58.0312 65.4902 56.2385 65.7522 54.0446C66.0169 51.8283 66.2911 49.1445 66.5352 46.4806C66.7794 43.8165 66.9939 41.1679 67.1389 39.0214C67.2823 36.8982 67.362 35.211 67.3251 34.5094C67.2559 33.1951 67.0606 31.7883 66.3144 30.6572C65.5339 29.4741 64.2369 28.7126 62.2451 28.5173C46.6734 26.9908 29.7966 18.3018 20.1153 13.1201Z" fill="white" stroke="black" stroke-width="1.5" stroke-linecap="round" stroke-linejoin="round"/>
<path d="M61.5243 51.9231C61.5323 50.5161 61.025 48.7124 59.0965 48.4049C56.7328 47.8505 55.3896 49.718 55.2402 51.5543C55.0817 53.5013 55.5709 55.5066 57.844 55.8745C60.4615 56.2982 61.5119 54.1006 61.5243 51.9231Z" fill="#2767E7"/>
<path d="M66.0055 43.9155C66.2782 40.8649 66.3693 39.1496 66.5556 36.1014C48.4953 34.027 30.4868 29.1262 12.7402 18.2764L11.3242 28.2169C25.1842 35.0883 46.4648 43.0988 66.0055 43.9155Z" fill="#2767E7"/>
<path d="M29.633 43.8033L29.8762 41.0204C25.5817 39.577 20.3206 37.9325 15.9081 35.877L15.5464 38.8085C19.3973 40.3287 24.6592 42.1738 29.633 43.8033Z" fill="#2767E7"/>
<path d="M23.6851 48.3784L23.9283 45.5954C21.6869 44.7364 17.6892 43.233 15.1024 42.2588L14.7407 45.1903C16.6002 45.9715 21.2809 47.6997 23.6851 48.3784Z" fill="#2767E7"/>
</svg>
