<svg width="80" height="80" viewBox="0 0 80 80" fill="none" xmlns="http://www.w3.org/2000/svg">
<path fill-rule="evenodd" clip-rule="evenodd" d="M37.2263 10.3101C37.1122 10.4927 37.0213 10.7746 37.0243 10.9367C37.0366 11.6172 37.5206 11.5493 37.7007 11.8582C37.9574 12.2987 38.4424 12.2109 38.9258 11.6364C39.4153 11.0548 39.029 10.479 39.1161 10.4785C39.257 10.4774 37.6273 9.66783 37.2263 10.3101ZM21.6416 9.06692C20.8955 9.6127 21.4678 11.6364 22.3686 11.6364C23.2105 11.6364 24.0776 10.0822 23.6028 9.3612C23.3348 8.95429 22.0577 8.76278 21.6416 9.06692ZM30.4395 13.7744C30.122 14.4071 30.2597 15.9382 30.9254 16.3539C31.069 16.4436 31.6404 17.0013 31.6819 17.0685C31.7538 17.1846 31.8796 17.1413 32.0382 16.9458C32.232 16.7066 33.3192 17.2296 33.1583 16.8105C33.131 16.7392 33.4781 15.5484 33.5721 15.4903C33.7681 15.3691 33.6084 12.8891 33.3717 12.3821C32.6125 10.754 30.7692 13.1172 30.4395 13.7744ZM43.854 13.3712C42.4398 14.2335 42.0319 15.7363 42.9463 16.7152C43.7733 17.6004 45.4439 16.947 46.0477 15.5022C46.3764 14.7152 46.3761 14.7124 45.84 14.1279C44.8497 13.0478 44.5632 12.9387 43.854 13.3712ZM17.3643 30.3677C16.9444 30.7879 15.7054 33.599 16.0613 33.4623C16.268 33.383 15.9299 34.7525 16.2097 34.7525C16.5022 34.7525 16.8237 34.0534 16.9677 33.8334C16.9091 34.1079 16.8875 35.244 17.175 34.4947C17.2809 34.2187 19.0839 34.6279 18.838 33.9867C18.8165 33.9304 19.2842 32.9503 19.2842 32.594C19.2842 30.3413 18.4074 29.3246 17.3643 30.3677ZM20.1278 17.7296C18.7745 17.7296 17.9503 19.4907 18.4109 21.3985C18.5663 22.0415 19.0606 23.1888 19.0606 23.7851C19.0606 23.8873 19.6493 23.2309 19.8039 23.7179C20.1489 24.8054 20.8051 24.1137 21.4886 24.1568C21.8836 24.1817 22.2243 23.4983 22.409 23.3572C22.8642 23.0087 22.5988 18.6477 22.0796 17.9466C21.34 16.9475 21.0775 17.7296 20.1278 17.7296ZM36.9887 21.295C36.6002 21.6779 35.8667 23.3722 35.9686 23.3092C36.2329 23.1463 35.7157 25.389 36.3637 25.14C36.8008 24.9725 36.4431 25.9179 36.7841 25.9179C37.1175 25.9179 37.6157 24.4558 37.6073 25.8994C37.6035 26.5457 36.9318 25.6782 36.9239 26.2461C36.9176 26.7411 38.1423 26.284 38.3225 25.9313C38.4274 25.7258 39.7854 24.9427 40.0464 25.0304C40.417 25.1556 40.4666 23.7455 40.8116 23.7455C41.0817 23.7455 40.7531 21.0718 40.1101 21.0718C40.1101 21.0718 39.3068 21.0383 39.2334 21.1376C39.0791 21.3465 37.5899 20.7031 36.9887 21.295ZM9.24627 28.8409C8.45935 29.1809 7.99662 30.012 8.13198 30.8422C8.50914 33.1546 10.7833 33.7183 11.6881 31.7233C12.1999 30.5945 11.5398 30.1187 11.4817 29.7351C11.34 28.799 9.98641 28.5208 9.24627 28.8409ZM34.5601 28.8816C34.2332 28.769 33.5992 29.5608 33.5992 30.0818C33.5992 30.5419 34.0218 31.2294 34.6576 31.8037C35.602 32.6566 36.2315 30.8126 35.5853 29.087C35.2734 28.2544 34.8731 28.9899 34.5601 28.8816ZM10.7339 20.9805C9.41989 21.8032 10.1092 23.7808 11.6881 23.7179C13.027 23.664 12.8348 22.8216 13.236 21.7735C13.5044 21.0743 11.5657 20.4598 10.7339 20.9805ZM24.3859 33.9392C24.306 33.9392 23.4538 36.4155 23.6028 36.3588C23.983 36.2141 24.2287 38.0325 24.7424 38.071C24.9674 38.0879 25.7211 38.1273 25.9895 37.9615C26.5398 37.621 27.2535 38.3053 28.1103 37.4485C28.494 37.0648 28.358 35.6808 28.9188 36.0272C29.1688 36.1819 29.4912 35.0673 29.3212 34.8974C28.8691 34.4454 28.5316 35.4216 28.3937 35.6183C28.369 35.6536 28.8841 34.1063 28.5227 34.1063C28.0294 34.1063 26.9148 35.1249 26.9148 33.5106C26.9148 32.1761 25.8649 33.2821 25.6197 33.0714C24.2818 31.9225 25.4635 33.9392 24.3859 33.9392ZM13.1144 58.3117C12.275 58.7964 12.4182 60.1723 12.4531 61.0059C12.4914 61.9223 13.4571 62.4599 14.2728 62.0186C15.1163 61.5628 17.8145 59.2632 15.8663 58.4752C15.0486 58.1449 13.9335 57.8388 13.1144 58.3117ZM4.07088 38.4934C3.68485 38.6814 3.33442 38.9249 3.29231 39.0347C2.27678 41.6812 4.6845 43.7825 6.30229 41.6615C7.78606 39.7162 6.19618 37.4589 4.07088 38.4934ZM13.3851 40.9732C12.9748 41.1572 12.612 41.3348 12.5786 41.3681C12.4631 41.4835 12.357 44.2009 12.4531 44.5836C12.6632 45.4205 13.8011 45.2444 14.3695 45.1225C15.6096 44.8565 16.5917 43.6132 16.5199 42.3998C16.4721 41.592 16.446 41.5531 15.7184 41.1993C14.5657 40.6386 14.2086 40.604 13.3851 40.9732ZM30.9254 5.95602C30.0098 6.45769 29.8596 7.15771 30.4995 7.94045C31.0232 8.58115 31.2992 8.6017 31.8373 8.04022C32.8826 6.94899 32.1538 5.28307 30.9254 5.95602ZM48.0121 24.166C47.1498 25.0282 47.1883 26.0102 48.1137 26.7538C48.7158 27.2377 49.5812 27.6686 50.243 27.1164C50.7405 26.7015 50.7223 26.5219 50.0333 25.0506C49.2598 23.3988 48.9255 23.2525 48.0121 24.166ZM7.46421 49.0463C6.8947 48.8279 6.45988 50.6859 6.98694 51.086C7.33336 51.349 7.86427 51.3886 7.86427 51.1515C7.86427 50.8432 8.86693 50.6764 8.86693 50.0529C8.86693 48.9766 7.66861 49.1249 7.46421 49.0463ZM27.6552 22.8174C27.6552 23.0681 26.5642 24.166 26.4612 24.166C26.4455 24.166 27.4285 30.0789 30.1081 27.2374C30.4273 26.8988 30.4324 26.5331 30.6704 26.2461C31.2526 25.5446 30.9776 23.8119 30.153 22.9873C29.8056 22.6399 27.6552 22.4937 27.6552 22.8174Z" fill="#CC0074"/>
<path fill-rule="evenodd" clip-rule="evenodd" d="M71.5206 44.9445C71.7978 46.162 72.6546 53.8213 71.5519 61.4723C70.4346 69.2254 67.4551 76.5419 66.9638 76.8343C66.4674 77.1298 58.6269 76.4501 51.2944 74.7062C44.2104 73.0214 37.6289 70.3 37.0039 68.9314C36.7087 68.285 37.2422 66.9201 38.0968 64.7341C39.0169 62.3804 40.3091 59.0748 41.3399 54.6889C42.4513 49.9597 42.7804 45.0619 42.978 42.1214C43.0787 40.6229 43.1452 39.6327 43.2637 39.4323C43.7038 38.688 47.9007 33.1284 52.7147 29.6875C57.9105 25.9736 62.7575 26.3263 66.2348 31.9129C69.3133 36.8585 71.2434 43.727 71.5206 44.9445ZM57.9542 38.9994C60.1634 38.9994 61.9645 37.2086 61.9771 34.9995C61.9897 32.7904 60.2091 30.9996 57.9999 30.9996C55.7908 30.9996 53.9897 32.7904 53.9771 34.9995C53.9645 37.2086 55.7451 38.9994 57.9542 38.9994Z" fill="#CC0074"/>
<path d="M71.5519 61.4723L70.8096 61.3654L71.5519 61.4723ZM71.5206 44.9445L72.2519 44.778V44.778L71.5206 44.9445ZM66.9638 76.8343L67.3474 77.4788L66.9638 76.8343ZM51.2944 74.7062L51.468 73.9766H51.468L51.2944 74.7062ZM37.0039 68.9314L37.6861 68.6198L37.6861 68.6198L37.0039 68.9314ZM38.0968 64.7341L38.7953 65.0071H38.7953L38.0968 64.7341ZM41.3399 54.6889L42.07 54.8604L42.07 54.8604L41.3399 54.6889ZM42.978 42.1214L43.7263 42.1717L42.978 42.1214ZM43.2637 39.4323L43.9093 39.8141L43.9093 39.8141L43.2637 39.4323ZM52.7147 29.6875L53.1508 30.2976L52.7147 29.6875ZM66.2348 31.9129L65.5981 32.3092L66.2348 31.9129ZM61.9771 34.9995L62.7271 35.0038L61.9771 34.9995ZM53.9771 34.9995L54.7271 35.0038L53.9771 34.9995ZM72.2943 61.5793C72.8539 57.6961 72.9153 53.8211 72.8032 50.7683C72.6917 47.7323 72.4064 45.4567 72.2519 44.778L70.7893 45.111C70.912 45.6498 71.1937 47.8126 71.3042 50.8234C71.4141 53.8174 71.3526 57.5975 70.8096 61.3654L72.2943 61.5793ZM67.3474 77.4788C67.46 77.4118 67.5379 77.3297 67.5783 77.284C67.6257 77.2305 67.6673 77.1744 67.7025 77.1231C67.773 77.0203 67.8451 76.8968 67.9169 76.7633C68.0616 76.4939 68.2322 76.1323 68.4195 75.698C68.7955 74.8264 69.2563 73.6217 69.7346 72.1885C70.6907 69.3232 71.7276 65.5111 72.2943 61.5793L70.8096 61.3654C70.2589 65.1866 69.2475 68.9093 68.3117 71.7137C67.844 73.1153 67.398 74.2791 67.0422 75.1039C66.8637 75.5178 66.7121 75.8363 66.5955 76.0533C66.5366 76.163 66.4933 76.2342 66.4656 76.2745C66.4517 76.2948 66.4486 76.2972 66.4558 76.2891C66.4561 76.2887 66.4984 76.2386 66.5802 76.1898L67.3474 77.4788ZM51.1209 75.4359C54.8208 76.3158 58.6431 76.9262 61.6037 77.2797C63.0839 77.4565 64.3566 77.5701 65.2969 77.6206C65.7654 77.6458 66.1624 77.656 66.4658 77.6491C66.6163 77.6456 66.7577 77.6377 66.8798 77.6225C66.9607 77.6123 67.1665 77.5865 67.3474 77.4788L66.5802 76.1898C66.6991 76.1191 66.7854 76.1226 66.6934 76.1341C66.6425 76.1405 66.5575 76.1466 66.4317 76.1494C66.1827 76.1551 65.8283 76.147 65.3774 76.1228C64.4789 76.0745 63.2401 75.9645 61.7816 75.7903C58.8647 75.442 55.1006 74.8405 51.468 73.9766L51.1209 75.4359ZM36.3216 69.2429C36.4717 69.5714 36.75 69.8518 37.0303 70.0825C37.3263 70.326 37.6997 70.574 38.1275 70.8226C38.9845 71.3206 40.1221 71.8567 41.4442 72.3949C44.092 73.4727 47.5453 74.5854 51.1209 75.4359L51.468 73.9766C47.9596 73.1421 44.58 72.0518 42.0098 71.0056C40.7229 70.4817 39.6552 69.9755 38.8811 69.5257C38.4933 69.3003 38.1946 69.098 37.9834 68.9242C37.8783 68.8377 37.8031 68.765 37.752 68.7071C37.6991 68.6471 37.6852 68.6179 37.6861 68.6198L36.3216 69.2429ZM37.3983 64.461C36.976 65.5412 36.6141 66.4651 36.3993 67.1996C36.2913 67.5688 36.2107 67.9221 36.1827 68.2457C36.1552 68.5642 36.1727 68.9168 36.3216 69.2429L37.6861 68.6198C37.6874 68.6227 37.6609 68.5624 37.6771 68.3748C37.6929 68.1924 37.7437 67.9466 37.839 67.6206C38.0308 66.9646 38.363 66.113 38.7953 65.0071L37.3983 64.461ZM40.6098 54.5173C39.592 58.8481 38.3165 62.112 37.3983 64.461L38.7953 65.0071C39.7172 62.6488 41.0263 59.3015 42.07 54.8604L40.6098 54.5173ZM42.2297 42.0712C42.0318 45.0158 41.7053 49.8559 40.6098 54.5173L42.07 54.8604C43.1973 50.0636 43.529 45.108 43.7263 42.1717L42.2297 42.0712ZM42.6181 39.0506C42.5519 39.1626 42.5169 39.2768 42.4977 39.3474C42.4757 39.4286 42.4582 39.5155 42.4438 39.601C42.4147 39.7722 42.3901 39.9827 42.3676 40.2186C42.3223 40.6916 42.2797 41.3264 42.2297 42.0712L43.7263 42.1717C43.7769 41.4179 43.818 40.8083 43.8607 40.3616C43.8822 40.1375 43.9027 39.9693 43.9227 39.8516C43.9327 39.7927 43.9406 39.7577 43.9453 39.7405C43.9529 39.7127 43.9459 39.7521 43.9093 39.8141L42.6181 39.0506ZM52.2785 29.0773C49.8083 30.843 47.5137 33.1382 45.7892 35.0719C44.0756 36.9936 42.8765 38.6136 42.6181 39.0506L43.9093 39.8141C44.091 39.5067 45.2105 37.9747 46.9088 36.0703C48.5963 34.1779 50.8071 31.9728 53.1508 30.2976L52.2785 29.0773ZM66.8716 31.5165C65.0539 28.5964 62.8025 26.9318 60.2234 26.5698C57.6664 26.2109 54.9632 27.1584 52.2785 29.0773L53.1508 30.2976C55.662 28.5027 57.9802 27.7696 60.0149 28.0552C62.0277 28.3377 63.9384 29.6427 65.5981 32.3092L66.8716 31.5165ZM72.2519 44.778C71.9669 43.5265 70.014 36.5649 66.8716 31.5165L65.5981 32.3092C68.6126 37.1521 70.5198 43.9276 70.7893 45.111L72.2519 44.778ZM61.2271 34.9952C61.2168 36.7918 59.7508 38.2494 57.9542 38.2494V39.7494C60.5759 39.7494 62.7121 37.6254 62.7271 35.0038L61.2271 34.9952ZM57.9999 31.7496C59.7932 31.7496 61.2373 33.202 61.2271 34.9952L62.7271 35.0038C62.7421 32.3788 60.625 30.2496 57.9999 30.2496V31.7496ZM54.7271 35.0038C54.7373 33.2072 56.2033 31.7496 57.9999 31.7496V30.2496C55.3782 30.2496 53.2421 32.3736 53.2271 34.9952L54.7271 35.0038ZM57.9542 38.2494C56.161 38.2494 54.7168 36.797 54.7271 35.0038L53.2271 34.9952C53.2121 37.6202 55.3292 39.7494 57.9542 39.7494V38.2494Z" fill="#121417"/>
<path fill-rule="evenodd" clip-rule="evenodd" d="M66.2375 31.9178C66.5064 32.4263 66.7448 32.9914 66.9497 33.6142C71.8996 48.6557 66.3881 67.9045 52.6214 75.01C52.1784 74.9128 51.7355 74.8118 51.2944 74.7069C44.2104 73.022 37.6289 70.3006 37.0039 68.932C36.7087 68.2856 37.2422 66.9208 38.0968 64.7347C39.0169 62.3811 40.3091 59.0755 41.3399 54.6895C42.4513 49.9604 42.7804 45.0626 42.978 42.1221C43.0787 40.6236 43.1452 39.6334 43.2637 39.433C43.5576 38.9359 45.5269 36.2915 48.2364 33.5647C50.8579 32.2513 54.2961 30.5672 56.8504 29.3745C59.9291 27.9368 62.7463 28.0636 64.7544 29.9345C65.2711 30.5007 65.7655 31.1594 66.2348 31.9135C66.2357 31.915 66.2366 31.9164 66.2375 31.9178ZM61.9502 35.3551C61.9379 37.5092 60.0981 39.2554 57.841 39.2554C55.5838 39.2554 53.764 37.5092 53.7763 35.3551C53.7886 33.201 55.6284 31.4548 57.8855 31.4548C60.1427 31.4548 61.9625 33.201 61.9502 35.3551Z" fill="#121417" stroke="#121417" stroke-width="1.5" stroke-linecap="round" stroke-linejoin="round"/>
<path fill-rule="evenodd" clip-rule="evenodd" d="M42.596 31.5038C43.3904 31.1877 51.1391 28.9408 55.9313 27.6917C60.7234 26.4427 65.9125 27.4673 66.6416 32.7943C66.8212 34.1061 67.0381 35.5385 67.2547 36.9689C67.9176 41.3469 68.5776 45.7062 68.1555 46.5326C60.7906 65.1407 51.7684 73.0352 32.9208 75.4336C21.3184 70.2158 13.9315 55.558 12.3613 48.1093C26.859 48.1902 37.1073 40.3296 42.596 31.5038ZM57.8408 39.2547C60.0979 39.2547 61.9377 37.5085 61.95 35.3544C61.9623 33.2003 60.1425 31.4541 57.8853 31.4541C55.6282 31.4541 53.7884 33.2003 53.7761 35.3544C53.7638 37.5085 55.5836 39.2547 57.8408 39.2547Z" fill="white" stroke="#121417" stroke-width="1.5" stroke-linecap="round" stroke-linejoin="round"/>
<mask id="path-6-outside-1_1157_103439" maskUnits="userSpaceOnUse" x="32.6328" y="45.2695" width="20" height="18" fill="black">
<rect fill="white" x="32.6328" y="45.2695" width="20" height="18"/>
<path d="M38.6792 50.6377C38.9734 51.7355 38.3218 52.864 37.224 53.1582C36.1261 53.4524 34.9976 52.8008 34.7034 51.703C34.4093 50.6051 35.0608 49.4766 36.1587 49.1824C37.2565 48.8883 38.385 49.5398 38.6792 50.6377Z"/>
<path d="M51.0126 58.2239C51.3803 59.5963 50.5659 61.0069 49.1936 61.3746C47.8213 61.7423 46.4107 60.9279 46.0429 59.5556C45.6752 58.1832 46.4896 56.7726 47.862 56.4049C49.2343 56.0372 50.6449 56.8516 51.0126 58.2239Z"/>
</mask>
<path d="M38.1994 61.8477L48.755 46.6983L47.5243 45.8408L36.9687 60.9902L38.1994 61.8477ZM38.6792 50.6377L40.1281 50.2494L40.1281 50.2494L38.6792 50.6377ZM34.7034 51.703L36.1523 51.3147L34.7034 51.703ZM51.0126 58.2239L49.5637 58.6122V58.6122L51.0126 58.2239ZM49.1936 61.3746L49.5818 62.8235L49.1936 61.3746ZM47.862 56.4049L48.2502 57.8538L47.862 56.4049ZM37.2303 51.0259C37.3101 51.3236 37.1334 51.6295 36.8357 51.7093L37.6122 54.6071C39.5103 54.0985 40.6367 52.1475 40.1281 50.2494L37.2303 51.0259ZM36.8357 51.7093C36.5381 51.7891 36.2321 51.6124 36.1523 51.3147L33.2546 52.0912C33.7631 53.9893 35.7141 55.1157 37.6122 54.6071L36.8357 51.7093ZM36.1523 51.3147C36.0726 51.0171 36.2492 50.7111 36.5469 50.6313L35.7704 47.7335C33.8724 48.2421 32.746 50.1931 33.2546 52.0912L36.1523 51.3147ZM36.5469 50.6313C36.8446 50.5516 37.1505 50.7282 37.2303 51.0259L40.1281 50.2494C39.6195 48.3514 37.6685 47.225 35.7704 47.7335L36.5469 50.6313ZM49.5637 58.6122C49.717 59.1843 49.3775 59.7724 48.8054 59.9257L49.5818 62.8235C51.7544 62.2413 53.0436 60.0082 52.4615 57.8357L49.5637 58.6122ZM48.8054 59.9257C48.2332 60.079 47.6451 59.7395 47.4918 59.1673L44.594 59.9438C45.1762 62.1163 47.4093 63.4056 49.5818 62.8235L48.8054 59.9257ZM47.4918 59.1673C47.3385 58.5952 47.6781 58.0071 48.2502 57.8538L47.4737 54.956C45.3012 55.5381 44.0119 57.7712 44.594 59.9438L47.4918 59.1673ZM48.2502 57.8538C48.8223 57.7005 49.4104 58.04 49.5637 58.6122L52.4615 57.8357C51.8794 55.6632 49.6463 54.3739 47.4737 54.956L48.2502 57.8538Z" fill="#121417" mask="url(#path-6-outside-1_1157_103439)"/>
<path d="M68.4832 36.761C76.8328 36.7608 78.0504 26.5562 72.8778 16.4616" stroke="#121417" stroke-width="1.5" stroke-linecap="square" stroke-linejoin="round"/>
<path d="M61.1262 36.3125C54.8846 34.2545 55.0148 26.1105 59.3161 22.6208C63.6173 19.131 69.9581 17.2955 66.4541 11.2888" stroke="#121417" stroke-width="1.5" stroke-linecap="square" stroke-linejoin="round"/>
</svg>
