<svg width="48" height="49" viewBox="0 0 48 49" fill="none" xmlns="http://www.w3.org/2000/svg">
<path d="M9.92393 6.7627H9.92392C8.47818 6.76271 7.08255 6.81541 6.01076 7.49171C4.8693 8.21196 4.26906 9.50384 4.02925 11.485C3.95824 12.0716 3.80152 13.1523 3.60324 14.5194C3.3774 16.0766 3.09765 18.0055 2.82923 19.9997C2.33267 23.6887 1.87247 27.6179 1.92508 29.5476C1.97581 31.4085 2.15475 32.675 2.69013 33.6302C3.24271 34.616 4.11441 35.1623 5.19448 35.7427C10.5248 38.6071 17.6664 40.2747 24.2981 41.2307C30.9448 42.1889 37.1536 42.4423 40.6657 42.4423C41.5783 42.4423 42.3065 42.1813 42.8453 41.6627C43.3637 41.1637 43.6237 40.5044 43.7762 39.8711C43.9209 39.2707 43.9872 38.6083 44.0477 38.0045C44.0508 37.9732 44.0539 37.942 44.057 37.911C44.1228 37.2566 44.1868 36.6694 44.321 36.1591C44.6438 34.9326 44.9522 32.3162 45.1673 29.8272C45.3828 27.3334 45.516 24.8315 45.4622 23.8182C45.3481 21.6698 43.9284 19.0078 40.7383 18.6977C35.0289 18.1429 27.7165 15.2133 21.6276 12.3724C18.6207 10.9694 15.938 9.6007 13.9244 8.57338L13.8767 8.54901C12.8706 8.03572 12.026 7.60505 11.3995 7.30311C11.087 7.15253 10.8171 7.02825 10.6024 6.94024C10.4956 6.89646 10.3913 6.85703 10.2959 6.82742C10.2201 6.80389 10.0782 6.7627 9.92393 6.7627Z" fill="white" stroke="black" stroke-width="1.5" stroke-linecap="round" stroke-linejoin="round"/>
<path d="M45.4622 23.8181L44.7132 23.8579L45.4622 23.8181C45.3481 21.6697 43.9284 19.0077 40.7383 18.6976C34.5253 18.0938 29.5713 21.8632 26.1194 25.5958C24.3814 27.4751 22.9865 29.3857 21.9698 30.8079C21.8731 30.9432 21.7803 31.0734 21.6913 31.1982C21.3068 31.7376 20.9934 32.1771 20.7403 32.5025C20.6094 32.6708 20.509 32.7896 20.4347 32.8677C16.1207 32.826 12.8787 31.4957 10.5509 30.5406C10.3264 30.4485 10.1104 30.3599 9.90277 30.2762C9.31039 30.0376 8.75412 29.8267 8.26327 29.704C7.78764 29.5852 7.25434 29.5165 6.76311 29.6867C6.21107 29.878 5.86848 30.3104 5.68532 30.8495C5.56191 31.2128 5.50089 31.6478 5.484 32.1474C5.15421 32.2336 4.85485 32.3325 4.59727 32.4476C4.22409 32.6143 3.77881 32.8836 3.5785 33.3468C3.33551 33.9087 3.56868 34.4277 3.8761 34.7824C4.17297 35.1249 4.63083 35.4397 5.19448 35.7426C10.5248 38.607 17.6664 40.2746 24.2981 41.2306C30.9448 42.1888 37.1536 42.4422 40.6657 42.4422C41.5783 42.4422 42.3065 42.1813 42.8453 41.6626C43.3637 41.1637 43.6237 40.5044 43.7762 39.8711C43.9209 39.2706 43.9872 38.6083 44.0477 38.0045C44.0508 37.9732 44.0539 37.942 44.057 37.9109C44.1228 37.2565 44.1868 36.6693 44.321 36.1591C44.6438 34.9326 44.9522 32.3162 45.1673 29.8271C45.3828 27.3333 45.516 24.8314 45.4622 23.8181Z" fill="#121417" stroke="black" stroke-width="1.5" stroke-linecap="round" stroke-linejoin="round"/>
<path d="M12.9705 7.44767C12.963 7.44366 12.9554 7.43979 12.9478 7.43604C11.5392 6.74255 10.1143 6.55156 8.94688 7.27464C7.80621 7.98116 7.17866 9.40226 6.9537 11.277C6.88695 11.8332 6.73972 12.8571 6.55343 14.1528C6.34118 15.629 6.07821 17.4579 5.82577 19.3497C5.35915 22.8465 4.92609 26.5749 4.97562 28.4078C5.02331 30.1722 5.19132 31.3805 5.69913 32.2943C6.22452 33.2398 7.05377 33.7628 8.07006 34.3137C13.0621 37.0197 19.6676 39.0021 25.8162 40.3086C31.9668 41.6155 37.7341 42.2612 41.0776 42.2612C41.9913 42.2612 42.7702 42.1264 43.3707 41.6424C43.9657 41.1629 44.2458 40.4506 44.4495 39.6696C44.6077 39.0635 44.7901 37.7945 44.9727 36.2658C45.1579 34.7147 45.3497 32.8375 45.5204 30.975C45.6911 29.1124 45.8411 27.26 45.9426 25.7582C46.0424 24.2796 46.0995 23.0855 46.0729 22.5787C46.0242 21.6542 45.8864 20.6187 45.3297 19.7748C44.7387 18.879 43.7633 18.3208 42.32 18.1793C31.4922 17.1178 19.7391 11.0704 12.9705 7.44767Z" fill="white" stroke="black" stroke-width="1.5" stroke-linecap="round" stroke-linejoin="round"/>
<path d="M41.7938 34.7568C41.7994 33.7738 41.4449 32.5136 40.0976 32.2988C38.4462 31.9115 37.5077 33.2162 37.4033 34.4992C37.2926 35.8595 37.6344 37.2604 39.2225 37.5175C41.0512 37.8135 41.7851 36.2782 41.7938 34.7568Z" fill="#2767E7"/>
<path d="M44.925 29.1619C45.1155 27.0306 45.1792 25.8322 45.3093 23.7026C32.6915 22.2533 20.1097 18.8293 7.71094 11.249L6.72168 18.194C16.405 22.9947 31.2728 28.5913 44.925 29.1619Z" fill="#2767E7"/>
<path d="M19.513 29.0837L19.683 27.1394C16.6826 26.1309 13.0069 24.982 9.92408 23.5459L9.67139 25.594C12.3619 26.6561 16.0381 27.9452 19.513 29.0837Z" fill="#2767E7"/>
<path d="M15.3574 32.2794L15.5274 30.3351C13.9614 29.7349 11.1684 28.6845 9.36109 28.0039L9.1084 30.052C10.4075 30.5978 13.6777 31.8052 15.3574 32.2794Z" fill="#2767E7"/>
</svg>
