<svg xmlns="http://www.w3.org/2000/svg" width="1360" height="400" fill="none" viewBox="0 0 1360 400">
  <g clip-path="url(#a)">
    <path fill="#56228B" d="M0 0h1360v400H0z"/>
    <path fill="url(#b)" d="M-20-50h648C534.319 7.141 480.706 49 498 147c17.294 98 174 146 130 303H-20V-50Z" opacity=".5"/>
    <path fill="url(#c)" d="M1380-50h-344c0 225-290.706-5-308 93-17.294 98-24 260-424 407h1076V-50Z" opacity=".3"/>
    <path fill="url(#d)" d="M1091.18-50H705.741C544.059-50 314-20 314 37s403.741 172 391.741 413h385.439S1524 197 1220 157 1091.18-50 1091.18-50Z" opacity=".3"/>
  </g>
  <defs>
    <linearGradient id="b" x1="620" x2="2" y1="17" y2="423" gradientUnits="userSpaceOnUse">
      <stop stop-color="#56228B"/>
      <stop offset="1" stop-color="#CC0074"/>
    </linearGradient>
    <linearGradient id="c" x1="614" x2="1000" y1="-107" y2="463" gradientUnits="userSpaceOnUse">
      <stop stop-color="#56228B"/>
      <stop offset="1" stop-color="#CC0074"/>
    </linearGradient>
    <linearGradient id="d" x1="1077.74" x2="935.741" y1="-19" y2="450" gradientUnits="userSpaceOnUse">
      <stop stop-color="#56228B"/>
      <stop offset="1" stop-color="#CC0074"/>
    </linearGradient>
    <clipPath id="a">
      <path fill="#fff" d="M0 0h1360v400H0z"/>
    </clipPath>
  </defs>
</svg>
