<svg xmlns="http://www.w3.org/2000/svg" width="1023" height="240" fill="none" viewBox="0 0 1023 240">
  <g clip-path="url(#a)">
    <path fill="#56228B" d="M0 0h1023v240H0z"/>
    <path fill="url(#b)" d="M-188-130h648C366.319-72.859 312.706-31 330 67c17.294 98 174 146 130 303h-648v-500Z" opacity=".5"/>
    <path fill="url(#c)" d="M1212-130H868c0 225-290.706-5-308 93-17.294 98-24 260-424 407h1076v-500Z" opacity=".3"/>
    <path fill="url(#d)" d="M923.183-130H537.741C376.059-130 146-100 146-43s403.741 172 391.741 413h385.442S1356 117 1052 77 923.183-130 923.183-130Z" opacity=".3"/>
  </g>
  <defs>
    <linearGradient id="b" x1="452" x2="-166" y1="-63" y2="343" gradientUnits="userSpaceOnUse">
      <stop stop-color="#56228B"/>
      <stop offset="1" stop-color="#CC0074"/>
    </linearGradient>
    <linearGradient id="c" x1="446" x2="832" y1="-187" y2="383" gradientUnits="userSpaceOnUse">
      <stop stop-color="#56228B"/>
      <stop offset="1" stop-color="#CC0074"/>
    </linearGradient>
    <linearGradient id="d" x1="909.741" x2="767.741" y1="-99" y2="370" gradientUnits="userSpaceOnUse">
      <stop stop-color="#56228B"/>
      <stop offset="1" stop-color="#CC0074"/>
    </linearGradient>
    <clipPath id="a">
      <path fill="#fff" d="M0 0h1023v240H0z"/>
    </clipPath>
  </defs>
</svg>
