<?xml version="1.0" encoding="UTF-8" standalone="no"?>
<svg
   xmlns:dc="http://purl.org/dc/elements/1.1/"
   xmlns:cc="http://creativecommons.org/ns#"
   xmlns:rdf="http://www.w3.org/1999/02/22-rdf-syntax-ns#"
   xmlns:svg="http://www.w3.org/2000/svg"
   xmlns="http://www.w3.org/2000/svg"
   xmlns:sodipodi="http://sodipodi.sourceforge.net/DTD/sodipodi-0.dtd"
   xmlns:inkscape="http://www.inkscape.org/namespaces/inkscape"
   viewBox="0 0 115 115"
   fill="none"
   version="1.1"
   id="svg12"
   sodipodi:docname="2021_Icon-parcel-tarif.svg"
   inkscape:version="0.92.4 (5da689c313, 2019-01-14)">
  <metadata
     id="metadata18">
    <rdf:RDF>
      <cc:Work
         rdf:about="">
        <dc:format>image/svg+xml</dc:format>
        <dc:type
           rdf:resource="http://purl.org/dc/dcmitype/StillImage" />
      </cc:Work>
    </rdf:RDF>
  </metadata>
  <defs
     id="defs16" />
  <sodipodi:namedview
     pagecolor="#ffffff"
     bordercolor="#666666"
     borderopacity="1"
     objecttolerance="10"
     gridtolerance="10"
     guidetolerance="10"
     inkscape:pageopacity="0"
     inkscape:pageshadow="2"
     inkscape:window-width="1122"
     inkscape:window-height="1048"
     id="namedview14"
     showgrid="false"
     inkscape:zoom="2.0521739"
     inkscape:cx="57.5"
     inkscape:cy="57.5"
     inkscape:window-x="55"
     inkscape:window-y="355"
     inkscape:window-maximized="0"
     inkscape:current-layer="svg12" />
  <path
     d="m 32.730291,52.829313 1.748926,-0.72028 c 9.3955,-3.86994 16.762154,-6.895571 22.543738,-9.260091 1.872955,-3.89156 2.922083,-8.253066 2.922083,-12.860354 0,-16.400308 -13.2973,-29.69641382 -29.697608,-29.69641382 -16.400308,0 -29.6964139,13.29610582 -29.6964139,29.69641382 0,16.400308 13.2961059,29.695333 29.6964139,29.695333 0.774898,0 1.540693,-0.02958 2.300799,-0.08762 v -5.555145 l -0.05348,-1.124229 0.05348,-0.01252 z m -7.92308,-14.5228 c -1.428043,-1.579382 -2.369072,-3.760704 -2.707023,-6.467727 h -2.331523 v -1.843371 h 2.143772 c 0,-0.18775 0,-0.375501 0,-0.563252 0,-0.60194 0.03755,-1.16633 0.07396,-1.692032 h -2.217734 v -1.879783 h 2.480585 c 0.45174,-2.630785 1.58052,-4.813245 3.083663,-6.353938 1.918471,-1.992433 4.361506,-3.121213 7.445169,-3.121213 2.218871,0 3.948454,0.63949 5.000995,1.20388 l -0.75214,2.481723 c -0.939892,-0.56439 -2.519273,-1.052542 -4.211305,-1.052542 -2.029984,0 -3.683328,0.713453 -4.962308,2.067533 -1.127642,1.090092 -1.879783,2.782124 -2.256422,4.774557 h 10.490143 v 1.879783 h -10.82923 c -0.03641,0.48929 -0.07396,1.052542 -0.07396,1.58052 0,0.2253 0,0.413051 0,0.675902 h 10.903195 v 1.843371 H 25.446701 c 0.300402,2.181321 1.052542,3.797115 2.067534,4.925895 1.391631,1.466731 3.271413,2.181322 5.301397,2.181322 1.993571,0 3.723153,-0.752141 4.587944,-1.241431 l 0.63949,2.370211 c -1.165192,0.789691 -3.121213,1.578243 -5.602936,1.578243 -3.044975,-0.0011 -5.751998,-1.16633 -7.632919,-3.347651 z"
     id="path2"
     inkscape:connector-curvature="0"
     style="fill:#061ab1;stroke-width:1.13788295" />
  <path
     d="m 67.739651,114.79 -32.595797,-17.38924 -0.05007,-0.02845 -0.05348,-0.0239 C 34.570358,97.134488 34.161858,96.47224 34.161858,96.188907 V 55.456116 l 14.443149,7.935596 v 9.493358 l 6.232185,2.905016 v -8.974484 l 13.016244,7.150457 v 40.859221 c -0.03072,-0.0148 -0.08534,-0.0216 -0.113788,-0.0353 z"
     id="path4"
     inkscape:connector-curvature="0"
     style="fill:#061ab1;stroke-width:1.13788295" />
  <path
     d="M 112.35024,97.310867 70.100758,114.77635 c -0.04096,0.0182 -0.117202,0.0307 -0.166131,0.0466 V 74.044573 l 43.214403,-17.96831 v 40.112651 c 0,0.283333 -0.40963,0.945581 -0.79879,1.121953 z"
     id="path6"
     inkscape:connector-curvature="0"
     style="fill:#061ab1;stroke-width:1.13788295" />
  <path
     d="m 112.21825,53.595905 0.0546,0.02503 c 0.16727,0.07738 0.32544,0.220749 0.46198,0.380053 L 68.959689,72.20143 55.558841,64.839327 99.245583,46.675301 112.16477,53.568596 Z"
     id="path8"
     inkscape:connector-curvature="0"
     style="fill:#061ab1;stroke-width:1.13788295" />
  <path
     d="m 78.408328,35.987735 c 0.523426,0 13.728558,6.896709 13.728558,6.896709 l -43.53199,18.10258 v 0.03414 L 35.093674,53.599888 c 0,0 42.755953,-17.612153 43.314654,-17.612153 z"
     id="path10"
     inkscape:connector-curvature="0"
     style="fill:#061ab1;stroke-width:1.13788295" />
</svg>
