<?xml version="1.0" encoding="utf-8"?>
<!-- Generator: Adobe Illustrator 22.1.0, SVG Export Plug-In . SVG Version: 6.00 Build 0)  -->
<svg xmlns="http://www.w3.org/2000/svg" xmlns:xlink="http://www.w3.org/1999/xlink" version="1.1" id="Ebene_1" x="0px" y="0px" viewBox="0 0 889.5 235.3" style="enable-background:new 0 0 889.5 235.3;" xml:space="preserve">
<style type="text/css">
	.st0{fill:#E50051;}
</style>
<title>BKS_LOGO</title>
<g>
	<path class="st0" d="M204.5,172.1c6.6,3.1,14.7,5.1,24.7,6.1h1.4c1.2,0.1,2.2,0.1,3.2,0.1c1.6,0,3.2-0.1,4.8-0.2   c1.1-0.1,2.1-0.2,3.2-0.4h0.1c20.4-3.1,34.1-17.8,34.1-36.7c0-22.2-15.4-29.8-29.8-35.2c-1.5-0.6-2.9-1.1-4.4-1.6   c-10.6-3.9-19.8-7.3-19.8-15.7c0-6.1,6.4-10.3,15.8-10.3c8.2,0,15.5,2.2,22.3,4.7c4.3,1.5,6.4,2.2,7.4,1.6c0.8-0.4,1.2-1.6,1.7-3.9   c0.7-3,2.4-10,3.1-13c0.6-2.7,0.8-3.8,0.2-4.5c-0.6-0.7-2.8-1.4-6.6-2.5c-8.3-2.4-16.9-3.7-25.5-3.8c-24.8,0-42.2,13.8-42.2,33.6   c0,20.1,13,27.8,27,33c2.1,0.8,4.1,1.5,6.1,2.2c10.9,3.8,20.3,7.1,20.3,17.6c0.2,3.3-1.1,6.5-3.4,8.8c-3,3-7.7,4.4-13.9,4.4   c-1.7,0.1-10.5,0-21.6-6.1c-3.8-2.1-5.8-3.1-6.9-2.7c-1.1,0.4-1.6,2.1-2.7,5.3l-1.1,3.2c-1,2.7-2.1,6-2.9,8.2   C197.6,168.9,197.8,169.1,204.5,172.1"/>
	<path class="st0" d="M456.6,149.2c0,9.4-8.5,12.9-14.3,12.9c-4.2,0-10.6-1.2-10.6-9.9c0-11.3,16.2-11.1,23-11.1   c1,0,1.8,0.7,1.8,1.7v0.1v6.3H456.6z M477.4,176.7c1,0,1.8-0.7,1.8-1.7v-0.1v-54.3c0-25.2-22.6-28.1-33.4-28.1   c-8.4-0.1-16.8,1.6-24.5,5c-6.9,3.1-9.2,5.2-9.2,5.2c-0.8,0.8-1,1.9-0.7,2.9l5.6,14.3c0,0,0.7,1.7,2.1,0.6s2.1-1.6,4.5-3.4   c5-3.5,10.9-5.4,17-5.4c16.2,0,15.8,10.2,15.8,13.6c0,1-0.7,1.8-1.7,1.8h-0.1c-19.4,0-45.3,4.5-45.3,27.8   c0,16.3,10.8,23.8,26.1,23.8s20.5-12.3,20.8-13.7c0,0,0.4-1.4,0.4,0.4v9.4c0,1,0.7,1.8,1.7,1.8h0.1L477.4,176.7z"/>
	<path class="st0" d="M607.3,129.4c0-11.6,8.2-18.6,19.1-18.6c9.5,0,12.9,5,12.9,11.1c0,8-5.3,13.2-30.3,14.1   c-0.9,0-1.7-0.7-1.7-1.6V129.4z M643.7,147.7c-0.4-0.8-0.1-1.7,0.6-2.1c0.1,0,0.1-0.1,0.2-0.1c12.7-4.3,18.6-17,18.6-26.1   c0-16.5-10.4-27.2-30-27.2c-11.1,0-19.7,4.3-25.8,10.7V60.2c0-0.9-0.7-1.6-1.6-1.6h-0.1h-20.5c-0.9,0-1.6,0.7-1.6,1.6l0,0v114.7   c0,0.9,0.7,1.7,1.6,1.7h20.5c0.9,0,1.7-0.7,1.7-1.7l0,0v-21.3c0-0.9,0.7-1.6,1.6-1.6l0,0c3.8-0.2,7.3-0.5,10.7-0.7   c0.6-0.1,1.2,0.2,1.5,0.7c1.9,2.8,8.3,12.2,11.7,17c4.1,6.3,11.2,10.1,18.7,10c3.7,0.1,7.4-0.2,11.1-0.9c0.8-0.1,1.3-0.8,1.3-1.6   l0.2-14.9c0-1-0.8-1.7-1.8-1.7h-0.1c-4.5,0.6-7.8,0.7-11.5-2.2C647.7,155.1,645,150.2,643.7,147.7"/>
	<path class="st0" d="M523.2,98.3c3.2-2.8,10-5.9,19.3-5.9c17.5,0,28.2,10.9,28.2,26.2v56.2c0,1-0.7,1.8-1.7,1.8h-0.1h-20.5   c-1,0-1.8-0.7-1.8-1.7v-0.1V131c0-9-1.2-18.4-14.4-18.4c-6.8,0-15.3,4.9-15.3,14.9v47.4c0,1-0.7,1.8-1.7,1.8h-0.1h-20.7   c-1,0-1.8-0.7-1.8-1.7v-0.1V96.5c0-1,0.7-1.8,1.7-1.8h0.1H515c1,0,1.8,0.7,1.8,1.7v0.1v11.2C518.2,104.1,520.4,100.9,523.2,98.3"/>
	<path class="st0" d="M189.6,58.5h-22.8c-1.1,0-2.1,0.5-2.8,1.3l-42.5,52.9c-0.3,0.4-0.9,0.4-1.3,0.1c-0.2-0.2-0.3-0.4-0.3-0.7V61   c0-1.3-1.1-2.4-2.4-2.4H98c-1.3,0-2.4,1.1-2.4,2.4v113.3c0,1.3,1,2.4,2.3,2.4c0,0,0,0,0.1,0h19.6c1.3,0,2.4-1.1,2.4-2.4V123   c0-0.5,0.4-0.9,0.9-0.9c0.3,0,0.5,0.1,0.7,0.3l42.4,52.9c0.7,0.8,1.7,1.3,2.8,1.3h22.8c1.3,0,2.5-1.1,2.5-2.4   c0-0.6-0.2-1.1-0.6-1.6l-43-53.5c-0.8-0.9-0.8-2.3,0-3.2l43-53.5c0.8-1,0.7-2.5-0.3-3.4C190.7,58.7,190.2,58.5,189.6,58.5"/>
	<path class="st0" d="M382.9,115c0,0-4.5-0.4-0.1-1.5c0,0,14.9-6.2,14.9-25.9c0-17.8-13.4-31.3-40.6-31.3c-22.1,0-29.1,0.8-32.8,1.5   c-2.6,0.3-4.6,2.5-4.5,5.2v108.5c0,0.8-0.1,5.1,4.5,6.1c4.9,1,9.2,1.4,30.6,1.4c30.3,0,46.5-12.6,46.5-36.6   C401.5,116.9,382.9,115,382.9,115 M378.5,142.8c0,9.8-7.9,17.8-17.8,17.8l0,0H350c-3.4,0-6.2-2.7-6.2-6.1c0,0,0,0,0-0.1V81.5   c0-3,2.4-5.5,5.5-5.5l0,0h10.4c7.6,0,13.7,6.1,13.7,13.7v2.5c0,6.4-4.4,11.9-10.6,13.3l0,0c-4.6,0.6-8,4.5-8,9.1v0.1   c0,4.5,3.5,8.3,8,8.6l0,0c9,1,15.9,8.6,15.9,17.7L378.5,142.8L378.5,142.8z"/>
	<path class="st0" d="M63,115c0,0-4.5-0.4-0.1-1.5c0,0,14.9-6.2,14.9-25.9c0-17.7-13.4-31.3-40.5-31.3c-22.1,0-29.2,0.8-32.8,1.5   C1.9,58-0.1,60.3,0,62.9v108.5c0,0.8-0.1,5.1,4.5,6.1c4.9,1,9.2,1.4,30.6,1.4c30.3,0,46.5-12.6,46.5-36.6C81.7,116.9,63,115,63,115    M58.7,142.8c0,9.8-7.9,17.8-17.8,17.8l0,0H30.2c-3.4,0-6.2-2.7-6.2-6.1c0,0,0,0,0-0.1V81.5c0-3,2.4-5.5,5.5-5.5l0,0h10.4   c7.6,0,13.7,6.1,13.7,13.7v2.5c0,6.4-4.4,11.9-10.6,13.3l0,0c-4.6,0.6-8,4.5-8,9.1v0.1c0,4.5,3.5,8.3,8,8.6l0,0   c9,1,15.9,8.6,15.9,17.7L58.7,142.8z"/>
</g>
</svg>
