<?xml version="1.0" encoding="utf-8"?>
<!-- Generator: Adobe Illustrator 22.1.0, SVG Export Plug-In . SVG Version: 6.00 Build 0)  -->
<svg width="40px" height="40px" version="1.1" id="DPD" xmlns="http://www.w3.org/2000/svg" xmlns:xlink="http://www.w3.org/1999/xlink" x="0px" y="0px"
	 viewBox="0 0 68 68" style="enable-background:new 0 0 68 68;" xml:space="preserve">
<style type="text/css">
	.st0{fill:#414042;}
	.st1{fill:none;}
	.st2{fill:#DC0032;}
</style>
<g>
	<g>
		<path class="st2" d="M34,15.964c5.874,0,6.57,0.022,8.89,0.128c2.145,0.098,3.31,0.456,4.085,0.758
			c1.027,0.399,1.76,0.876,2.53,1.646c0.77,0.77,1.247,1.503,1.646,2.53c0.301,0.775,0.66,1.94,0.758,4.085
			c0.106,2.32,0.128,3.016,0.128,8.89s-0.022,6.57-0.128,8.89c-0.098,2.145-0.456,3.31-0.758,4.085
			c-0.399,1.027-0.876,1.76-1.646,2.53c-0.77,0.77-1.503,1.247-2.53,1.646c-0.775,0.301-1.94,0.66-4.085,0.758
			c-2.319,0.106-3.015,0.128-8.89,0.128s-6.57-0.022-8.89-0.128c-2.145-0.098-3.31-0.456-4.085-0.758
			c-1.027-0.399-1.76-0.876-2.53-1.646c-0.77-0.77-1.247-1.503-1.646-2.53c-0.301-0.775-0.66-1.94-0.758-4.085
			c-0.106-2.32-0.128-3.016-0.128-8.89s0.022-6.57,0.128-8.89c0.098-2.145,0.456-3.31,0.758-4.085
			c0.399-1.027,0.876-1.76,1.646-2.53c0.77-0.77,1.503-1.247,2.53-1.646c0.775-0.301,1.94-0.66,4.085-0.758
			C27.431,15.987,28.126,15.964,34,15.964 M34,12c-5.975,0-6.724,0.025-9.07,0.132c-2.342,0.107-3.941,0.479-5.34,1.023
			c-1.447,0.562-2.674,1.314-3.897,2.537c-1.223,1.223-1.975,2.45-2.537,3.897c-0.544,1.399-0.916,2.999-1.023,5.34
			c-0.107,2.346-0.132,3.096-0.132,9.07c0,5.975,0.025,6.724,0.132,9.07c0.107,2.342,0.479,3.941,1.023,5.34
			c0.562,1.447,1.314,2.674,2.537,3.897c1.223,1.223,2.45,1.975,3.897,2.537c1.399,0.544,2.999,0.916,5.34,1.023
			C27.277,55.974,28.026,56,34,56s6.724-0.025,9.07-0.132c2.342-0.107,3.941-0.479,5.34-1.023c1.447-0.562,2.674-1.314,3.897-2.537
			c1.223-1.223,1.975-2.45,2.537-3.897c0.544-1.399,0.916-2.999,1.023-5.34C55.975,40.724,56,39.975,56,34s-0.025-6.724-0.132-9.07
			c-0.107-2.342-0.479-3.941-1.023-5.34c-0.562-1.447-1.314-2.674-2.537-3.897c-1.223-1.223-2.45-1.975-3.897-2.537
			c-1.399-0.544-2.999-0.916-5.34-1.023C40.724,12.026,39.975,12,34,12L34,12z"/>
		<path class="st2" d="M34,22.703c-6.239,0-11.297,5.058-11.297,11.297c0,6.239,5.058,11.297,11.297,11.297S45.298,40.239,45.298,34
			C45.298,27.761,40.24,22.703,34,22.703z M34,41.333c-4.05,0-7.333-3.283-7.333-7.333c0-4.05,3.283-7.333,7.333-7.333
			S41.334,29.95,41.334,34C41.334,38.05,38.05,41.333,34,41.333z"/>
		<circle class="st2" cx="45.744" cy="22.257" r="2.64"/>
	</g>
	<rect id="XMLID_1_" x="0" class="st1" width="68" height="68"/>
</g>
</svg>
