<?xml version="1.0" encoding="windows-1252"?>
<!-- Generator: Adobe Illustrator 20.1.0, SVG Export Plug-In . SVG Version: 6.00 Build 0)  -->
<svg width="40px" height="40px" version="1.1" xmlns="http://www.w3.org/2000/svg" xmlns:xlink="http://www.w3.org/1999/xlink" x="0px" y="0px" viewBox="0 0 68 68" style="enable-background:new 0 0 68 68;" xml:space="preserve">
<g id="Delivery_x5F_return_x5F_blackred_x5F_pos_x5F_rgb">
	<g>
		<rect x="0" y="0" style="fill:none;" width="68" height="68"/>
		<g>
			<g id="Uturn_4_">
				<path style="fill:#ababac;" d="M24.283,32c-0.256,0-0.512-0.098-0.707-0.293L14.869,23l8.707-8.707      c0.391-0.391,1.023-0.391,1.414,0s0.391,1.023,0,1.414L17.697,23l7.293,7.293c0.391,0.391,0.391,1.023,0,1.414      C24.795,31.902,24.539,32,24.283,32z"/>
				<path style="fill:#ababac;" d="M41.783,50h-13.25c-0.552,0-1-0.447-1-1s0.448-1,1-1h13.25c6.617,0,12-5.383,12-12      c0-6.617-5.383-12-12-12h-19.5c-0.552,0-1-0.448-1-1s0.448-1,1-1h19.5c7.72,0,14,6.28,14,14S49.503,50,41.783,50z"/>
			</g>
			<path style="fill:#ababac;" d="M28.216,56h-14V42h14V56z M16.216,54h10V44h-10V54z"/>
		</g>
	</g>
</g>
<g id="Layer_1">
</g>
</svg>