<?xml version="1.0" encoding="iso-8859-1"?>
<!-- Generator: Adobe Illustrator 20.1.0, SVG Export Plug-In . SVG Version: 6.00 Build 0)  -->
<svg width="40px" height="40px" version="1.1" xmlns="http://www.w3.org/2000/svg" xmlns:xlink="http://www.w3.org/1999/xlink" x="0px" y="0px"
	 viewBox="0 0 68 68" style="enable-background:new 0 0 68 68;" xml:space="preserve">
<g id="SocialMedia_x5F_Youtube_x5F_blackred_x5F_pos_x5F_rgb">
	<g id="Youtube_1_">
		<rect id="XMLID_1189_" x="0" y="0" style="fill:none;" width="68" height="68"/>
		<path id="XMLID_1186_" style="fill:#DC0032;" d="M54.986,25.437c0,0-0.418-2.951-1.703-4.251
			c-1.628-1.706-3.454-1.714-4.291-1.814c-5.993-0.433-14.983-0.433-14.983-0.433h-0.019c0,0-8.99,0-14.983,0.433
			c-0.837,0.1-2.662,0.108-4.291,1.814c-1.284,1.3-1.702,4.251-1.702,4.251s-0.428,3.466-0.428,6.932v3.249
			c0,3.466,0.428,6.932,0.428,6.932s0.418,2.951,1.702,4.251c1.629,1.706,3.769,1.651,4.722,1.83C22.865,48.959,34,49.061,34,49.061
			s8.999-0.014,14.992-0.447c0.837-0.1,2.663-0.108,4.291-1.813c1.284-1.3,1.703-4.251,1.703-4.251s0.427-3.466,0.427-6.932v-3.249
			C55.414,28.903,54.986,25.437,54.986,25.437z M29.579,39.555l-0.002-12.033l11.572,6.037L29.579,39.555z"/>
	</g>
</g>
<g id="Layer_1">
</g>
</svg>
