<svg height="21" viewBox="0 0 26 21" width="26" xmlns="http://www.w3.org/2000/svg"><g fill="none" fill-rule="evenodd"><g transform="translate(.036298 .044683)"><path d="m25.1605954 8.12459798c0 4.48611962-3.4824663 8.12283872-7.778307 8.12283872s-7.77830808-3.6367191-7.77830808-8.12283872c0-4.48612031 3.48246738-8.12283914 7.77830808-8.12283914s7.778307 3.63671883 7.778307 8.12283914z" fill="#f79f1a"/><path d="m15.564873 8.12459798c0 4.48611962-3.4824663 8.12283872-7.778307 8.12283872-4.29584071 0-7.77830808-3.6367191-7.77830808-8.12283872 0-4.48612031 3.48246737-8.12283914 7.77830808-8.12283914 4.2958407 0 7.778307 3.63671883 7.778307 8.12283914z" fill="#ea001b"/><path d="m12.5844429 1.73023968c-1.8148758 1.48702763-2.97985797 3.79777854-2.97985797 6.39359721 0 2.59581871 1.16498217 4.90833321 2.97985797 6.39536091 1.8148759-1.4870277 2.979858-3.7995422 2.979858-6.39536091 0-2.59581867-1.1649821-4.90656958-2.979858-6.39359721z" fill="#ff5f01"/></g><path d="m.64220521.31212664v-.28991767h-.07262187l-.08353889.19938024-.0835389-.19938024h-.07262187v.28991767h.0512625v-.21867511l.07831771.18849597h.05316112l.0783177-.18899071v.21916985zm-.45993854 0v-.24044367h.09303194v-.04897926h-.23685173v.04897926h.09303194v.24044367z" fill="#f79f1a" transform="translate(24.540134 12.167145)"/><g fill="#000"><g transform="translate(1.281713 17.258892)"><path d="m.49317214 3.05150926h-.44138422v-2.14696352h.43272962v.26160462s.38007775-.31972599.60582147-.31572948c.43892805.00777123.7010218.39691734.7010218.39691734s.21261018-.39691734.6923678-.39691734c.70945542 0 .81353149.67656415.81353149.67656415v1.51550342h-.42407512v-1.33508666s.00152157-.40593815-.45869332-.40593815c-.47590874 0-.5192757.40593815-.5192757.40593815v1.33508666h-.44138422v-1.34410747s-.04240204-.42398033-.44138406-.42398033c-.51818185 0-.52793014.43300114-.52793014.43300114z"/><path d="m13.9161569.85012796c-.2257439-.00399595-.605786.31571142-.605786.31571142v-.26103514h-.4331878v2.14648491h.4416485l-.0084607-1.34397823s.0097656-.43211898.5279476-.43211898c.0962359 0 .170977.02429687.230131.06173128v-.00176093l.1438318-.41800897c-.0867946-.0380767-.1854991-.06506689-.2961244-.06702536z"/><path d="m20.1337934.85012796c-.2257439-.00399595-.605786.31571142-.605786.31571142v-.26103514h-.4331877v2.14648491h.4416484l-.0084607-1.34397823s.0097657-.43211898.5279476-.43211898c.0962359 0 .1709771.02429687.230131.06173128v-.00176093l.1438319-.41800897c-.0867946-.03807388-.1854991-.06506407-.2961245-.06702254z"/><path d="m4.72445404.84130921c-.66056152 0-1.0101343.61882937-1.01189954 1.13585561-.00181397.52994536.39795768 1.14114686 1.03051308 1.14114686.3690294 0 .67218882-.2839639.67218882-.2839639l-.0008014.21870512h.43446296v-2.14909413h-.4359932v.27069936s-.28469641-.33334892-.68846856-.33334892zm.08460698.43741023c.35489991 0 .64301309.32177139.64301309.71784664s-.28811318.71608289-.64301309.71608289c-.3548999 0-.64132094-.32000764-.64132094-.71608289s.28642104-.71784664.64132094-.71784664z"/><path d="m17.394777.84130921c-.6605615 0-1.0101343.61882937-1.0118995 1.13585561-.001814.52994536.3979576 1.14114686 1.030513 1.14114686.3690294 0 .6721889-.2839639.6721889-.2839639l-.0008014.21870512h.4344629v-2.14909413h-.4359932v.27069936s-.2846964-.33334892-.6884685-.33334892zm.084607.43741023c.3548999 0 .6430131.32177139.6430131.71784664s-.2881132.71608289-.6430131.71608289-.641321-.32000764-.641321-.71608289.2864211-.71784664.641321-.71784664z"/><path d="m21.5662907.84130921c-.6605615 0-1.0101343.61882937-1.0118996 1.13585561-.0018139.52994536.3979577 1.14114686 1.0305131 1.14114686.3690294 0 .6721888-.2839639.6721888-.2839639l-.0008014.21870512h.434463v-2.99746229h-.4359932v1.11906752s-.2846964-.33334892-.6884686-.33334892zm.084607.43741023c.3548999 0 .643013.32177139.643013.71784664s-.2881131.71608289-.643013.71608289-.641321-.32000764-.641321-.71608289.2864211-.71784664.641321-.71784664z"/><path d="m7.17451746 3.12367575c-.45002523 0-.86545934-.28866706-.86545934-.28866706l.19040119-.30670923s.39308378.18943814.67505815.18943814c.18320593 0 .48961426-.06166356.49331151-.25258381.00390952-.20178327-.51494816-.26160519-.51494816-.26160519s-.77458574-.0110137-.77458574-.67656357c0-.41856943.38684912-.68558496.88276843-.68558496.28654721 0 .82218604.26160462.82218604.26160462l-.21636483.35181329s-.4135714-.17222054-.6317854-.18041733c-.184264-.00692124-.40676548.08503819-.40676548.25258438 0 .45520634 1.28953391-.03546805 1.28953391.88404333 0 .60324855-.52518547.71264739-.94335028.71264739z"/><path d="m8.83466137.28220015v.62436784h-.38411572v.45152024h.38411572v1.07941559s-.0339955.73019289.71915937.73019289c.20823065 0 .61593886-.16050134.61593886-.16050134l-.1742904-.46915775s-.16213514.14415631-.3451965.13933633c-.34806691-.00916078-.33842794-.24163388-.33842794-.24163388v-1.07765184h.71746724v-.45152024h-.71746724v-.62436784z"/><path d="m11.4490172.86776547c-.7082956 0-1.0621872.60809053-1.0592795 1.13585561.002989.54274765.3222587 1.15349313 1.101583 1.15349313.3335594 0 .8020742-.30512892.8020742-.30512892l-.2013646-.36509645s-.3197083.23634263-.6007096.23634263c-.5625999 0-.5990175-.57321906-.5990175-.57321906h1.5060044s.1123537-1.28224694-.9492904-1.28224694zm-.0643013.42153648c.0167015-.0009877.0346063 0 .0524563 0 .5300215 0 .5262555.52207028.5262555.52207028h-1.0711245s-.0253382-.49139061.4924127-.52207028z"/><path d="m15.92866 2.48136336.2019511.42099466s-.3200808.2168759-.6792888.2168759c-.7436783 0-1.1566275-.58338617-1.1566275-1.13540974 0-.86757809.6571631-1.1226526 1.1015499-1.1226526.4033633 0 .7527254.24239074.7527254.24239074l-.2264294.42099465s-.1372761-.22325474-.5385357-.22325474c-.4005899 0-.611972.35999709-.611972.70165794 0 .38287788.2460398.70803623.6180918.70803623.2918678 0 .5385352-.22963304.5385352-.22963304z"/></g><path d="m.23701389.00577329c-.06115037.00155805-.11152425.02269728-.15112179.06341775-.03959772.04072188-.06009058.09168134-.06147865.15287855.00138807.06073441.02188093.11156133.06147866.15248092.03959755.04092038.08997143.06219215.15112178.06381538.0597512-.00162323.10948931-.02289501.14921448-.06381539.03972439-.04091961.06034442-.09174653.06186012-.15248091-.00148392-.06119721-.02204036-.11215668-.06166941-.15287856-.03962982-.04072049-.0894315-.06185971-.14940519-.06341774zm0 .38488019c-.04659132-.00119243-.08501279-.0176267-.11526456-.04930286-.03025201-.0316753-.04591304-.0714356-.04698314-.11928103.00107012-.04805423.01673116-.08779246.04698315-.11921481.03025176-.03142102.06867323-.04770065.11526455-.04883893.04561597.0011383.08344406.01741793.11348437.04883894.03003961.03142234.04561588.07116057.04672888.1192148-.001113.04784544-.01668927.08760575-.04672887.11928103-.0300403.03167614-.06786838.04811041-.11348438.04930286zm.01220672-.26984025h-.08900736v.2009223h.0411977v-.07527959h.0188187l.05849055.07527959h.04933551l-.06306807-.07580973c.01969787-.00257286.03485029-.00922168.0454573-.01994647.01060639-.0107237.01596802-.02439682.01608492-.0410194-.00013808-.01983541-.00685601-.0354303-.02015381-.0467847-.01329842-.01135314-.03235021-.01714047-.05715544-.017362zm.00924554.03763981c.01333046.00001516.02378544.0029189.03136499.0087111.00757892.0057938.01143882.01438995.0115798.02578844-.00014137.01173055-.00400085.02052792-.01157978.02639211-.00757954.0058657-.01803455.0087981-.03136501.0087974h-.05705521v-.06968911z" transform="translate(24.646382 20.010012)"/></g></g></svg>