<svg width="48" height="48" viewBox="0 0 48 48" fill="none" xmlns="http://www.w3.org/2000/svg">
<path fill-rule="evenodd" clip-rule="evenodd" d="M18.4172 11V11.0001C20.2805 11.0071 22.0931 11.6079 23.5771 12.7148L23.5841 12.7201L23.5841 12.7201C23.7086 12.8147 23.849 12.8632 24 12.8654C24.165 12.8631 24.3244 12.8067 24.4383 12.7201L24.4453 12.7148L24.4453 12.7148C25.9362 11.6028 27.7586 11.0017 29.6305 11.0001L29.6468 11.0002C32.1215 11.0383 34.488 12.0168 36.2381 13.7346C37.9892 15.4533 38.9838 17.7763 39 20.2076L39 20.2143C39 25.2067 36.0266 29.1073 32.8881 31.8318C29.7375 34.5667 26.27 36.2521 24.9293 36.8214L24.9125 36.8284C24.6214 36.9458 24.3013 36.9983 24.0156 36.9991C23.6774 37.0088 23.3747 36.9448 23.0858 36.8277C23.0743 36.823 23.0629 36.8181 23.0516 36.813C21.7538 36.2297 18.2873 34.552 15.1306 31.8252C11.9867 29.1095 9 25.2194 9 20.2143V20.2076H9.00002C9.01643 17.7678 10.018 15.4377 11.7798 13.7176C13.5406 11.9985 15.9198 11.0256 18.4032 11.0001L18.4172 11ZM25.6441 14.3158C25.1703 14.6742 24.5858 14.8619 24.0062 14.8655L23.9938 14.8655L23.9938 14.8655C23.4005 14.8618 22.8411 14.666 22.3783 14.3158C21.2439 13.4706 19.8526 13.007 18.4167 13.0001C16.4428 13.0221 14.5619 13.7965 13.177 15.1487C11.792 16.5008 11.0137 18.3217 11 20.2177C11.0014 24.3743 13.4829 27.7591 16.4379 30.3116C19.3647 32.8397 22.6092 34.4202 23.851 34.9796C23.9015 34.9988 23.9282 35.0011 23.9622 34.9998C23.977 34.9993 23.9918 34.999 24.0065 34.9991C24.0663 34.9995 24.1294 34.9864 24.1599 34.9753C25.3975 34.4484 28.6488 32.8633 31.577 30.3214C34.5263 27.7613 36.9987 24.3652 37 20.2176C36.9865 18.3281 36.2135 16.5129 34.8372 15.1619C33.461 13.8111 31.5907 13.0324 29.6242 13.0001C28.1819 13.0031 26.7835 13.4669 25.6441 14.3158Z" fill="#13C1AC"/>
</svg>
