<svg width="48" height="48" viewBox="0 0 48 48" fill="none" xmlns="http://www.w3.org/2000/svg">
<path d="M37.4072 25.9708C37.3511 20.0264 42.4931 17.1342 42.7278 16.9995C39.8158 12.9368 35.3025 12.3814 33.7174 12.3365C29.9273 11.9547 26.2509 14.5071 24.3189 14.5071C22.3501 14.5071 19.3761 12.3739 16.1719 12.4353C12.0483 12.4966 8.19029 14.781 6.07386 18.3303C1.70668 25.5651 4.96398 36.1981 9.14815 42.0467C11.241 44.9134 13.6865 48.1094 16.8878 47.9971C20.0196 47.8759 21.1885 46.087 24.9683 46.087C28.7127 46.087 29.8107 47.9971 33.0754 47.9238C36.436 47.8759 38.5525 45.0481 40.5715 42.156C42.9905 38.8761 43.9616 35.6397 44 35.4735C43.9233 35.4496 37.4751 33.0949 37.4101 25.9693L37.4072 25.9708ZM31.1612 7.5417C32.8452 5.52529 33.9978 2.78285 33.6776 0C31.2394 0.10329 28.1917 1.61373 26.4353 3.58523C24.8827 5.3232 23.4954 8.17042 23.8525 10.8485C26.5903 11.0446 29.4019 9.52667 31.1597 7.5417H31.1612Z" fill="#90A4AE"/>
</svg>
