<svg width="30" height="30" viewBox="0 0 30 30" fill="none" xmlns="http://www.w3.org/2000/svg">
<path fill-rule="evenodd" clip-rule="evenodd" d="M15 30C23.2844 30 30 23.2842 30 15.0001C30 6.71581 23.2844 0 15 0C6.71557 0 0 6.71581 0 15.0001C0 23.2842 6.71557 30 15 30ZM18.501 5.87089H17.5888C16.7792 5.87089 16.112 5.95764 15.3872 6.23482C14.3356 6.64809 12.5827 7.78506 12.5827 10.9895V11.8246C12.5827 12.0572 12.3939 12.2459 12.1611 12.2459H12.0937C11.2977 12.2459 10.5865 12.828 10.5111 13.6207C10.4243 14.5298 11.1372 15.2948 12.0283 15.2948H12.1575C12.3923 15.2948 12.5827 15.4852 12.5827 15.72V23.7767C12.5827 24.5727 13.1645 25.2839 13.9569 25.3596C14.8664 25.4464 15.6316 24.7337 15.6316 23.8423V15.8398C15.6316 15.5387 15.8756 15.2948 16.1763 15.2948H16.3975C17.1938 15.2948 17.9048 14.7128 17.9804 13.92C18.0672 13.0109 17.3543 12.2459 16.4632 12.2459H16.1741C15.8744 12.2459 15.6316 12.0031 15.6316 11.7035V10.9895C15.6316 9.38436 16.2381 9.1762 16.4892 9.07752C16.8515 8.93921 17.1514 8.91981 17.5888 8.91981H18.5667C19.4578 8.91981 20.1707 8.15481 20.0839 7.24567C20.0083 6.45295 19.2973 5.87089 18.501 5.87089Z" fill="#13C1AC"/>
</svg>
