<svg width="30" height="30" viewBox="0 0 30 30" fill="none" xmlns="http://www.w3.org/2000/svg">
<path d="M0 14.6197V15.4308C0.209127 23.1875 6.45758 29.417 13.8911 30H16.1788C23.6567 29.4106 29.7974 23.1242 30.0002 15.4182V14.6197C29.7974 6.77424 23.4412 0.411714 15.7859 0.0188088C7.54758 -0.399445 0.228138 6.21023 0 14.6197Z" fill="#13C1AC"/>
<path fill-rule="evenodd" clip-rule="evenodd" d="M15.0301 7.53488C17.4192 7.53488 17.7044 7.54122 18.6487 7.58558C19.5232 7.6236 19.9921 7.7757 20.309 7.8961C20.7273 8.06087 21.0251 8.25732 21.3356 8.57418C21.6461 8.89104 21.8426 9.19523 22.0074 9.61982C22.1278 9.94301 22.2735 10.4246 22.3179 11.3118C22.3622 12.2751 22.3686 12.5603 22.3686 14.9937C22.3686 17.4272 22.3622 17.7124 22.3179 18.6756C22.2799 19.5628 22.1341 20.0445 22.0074 20.3677C21.8426 20.7923 21.6525 21.0964 21.3356 21.4133C21.0251 21.7302 20.7273 21.9266 20.309 22.0914C19.9921 22.2181 19.5168 22.3639 18.6487 22.4019C17.7044 22.4463 17.4192 22.4526 15.0301 22.4526C12.641 22.4526 12.3558 22.4463 11.4116 22.4019C10.5371 22.3639 10.0681 22.2118 9.75126 22.0914C9.333 21.9266 9.03516 21.7302 8.72463 21.4133C8.41411 21.0964 8.21766 20.7923 8.05289 20.3677C7.93249 20.0445 7.78673 19.5628 7.74237 18.6756C7.69801 17.7124 7.69167 17.4272 7.69167 14.9937C7.69167 12.5603 7.69801 12.2751 7.74237 11.3118C7.7804 10.4246 7.92615 9.94301 8.05289 9.61982C8.21766 9.19523 8.40778 8.89104 8.72463 8.57418C9.03516 8.25732 9.333 8.06087 9.75126 7.8961C10.0681 7.76936 10.5434 7.6236 11.4116 7.58558L11.4458 7.5842C12.3631 7.54725 12.6701 7.53488 15.0301 7.53488ZM15.0301 5.89355C12.5967 5.89355 12.2925 5.90623 11.3419 5.95059C10.3913 5.99495 9.73858 6.14704 9.16824 6.37518C8.57888 6.60966 8.07824 6.92018 7.58394 7.42715C7.08331 7.93413 6.77912 8.4411 6.55098 9.04313C6.32918 9.61982 6.17709 10.2852 6.13273 11.2548C6.08837 12.2244 6.08203 12.5349 6.08203 15.0064C6.08203 17.4653 6.09458 17.7852 6.13215 18.7433L6.13273 18.758C6.17709 19.7276 6.32918 20.3867 6.55098 20.9697C6.77912 21.5654 7.08331 22.0787 7.58394 22.5857C8.08458 23.0927 8.57888 23.4032 9.16824 23.6377C9.73858 23.8658 10.3913 24.0179 11.3419 24.0622C12.2988 24.1066 12.603 24.1193 15.0301 24.1193C17.4573 24.1193 17.7678 24.1066 18.7184 24.0622C19.6689 24.0179 20.3217 23.8658 20.892 23.6377C21.4814 23.4032 21.982 23.0927 22.4763 22.5857C22.9769 22.0787 23.2811 21.5717 23.5093 20.9697C23.7311 20.393 23.8832 19.7276 23.9275 18.758C23.9719 17.7884 23.9782 17.4779 23.9782 15.0064C23.9782 12.5475 23.9657 12.2276 23.9281 11.2696L23.9275 11.2548C23.8832 10.2852 23.7311 9.62615 23.5093 9.04313C23.2811 8.44744 22.9769 7.93413 22.4763 7.42715C21.9757 6.92018 21.4814 6.60966 20.892 6.37518C20.3217 6.14704 19.6689 5.99495 18.7184 5.95059C17.7678 5.90623 17.4573 5.89355 15.0301 5.89355ZM15.0301 10.323C12.4889 10.323 10.4357 12.4143 10.4357 14.9999C10.4357 17.5854 12.4953 19.6767 15.0301 19.6767C17.565 19.6767 19.6246 17.5854 19.6246 14.9999C19.6246 12.4143 17.565 10.323 15.0301 10.323ZM15.0301 18.0354C13.3825 18.0354 12.0453 16.6792 12.0453 14.9999C12.0453 13.3205 13.3825 11.9644 15.0301 11.9644C16.6778 11.9644 18.0149 13.3205 18.0149 14.9999C18.0149 16.6792 16.6778 18.0354 15.0301 18.0354ZM20.8794 10.1393C20.8794 10.7413 20.3999 11.2293 19.8084 11.2293C19.2169 11.2293 18.7374 10.7413 18.7374 10.1393C18.7374 9.5373 19.2169 9.04929 19.8084 9.04929C20.3999 9.04929 20.8794 9.5373 20.8794 10.1393Z" fill="white"/>
</svg>
