<svg width="30" height="30" viewBox="0 0 30 30" fill="none" xmlns="http://www.w3.org/2000/svg">
<mask id="path-1-inside-1_5727_2878" fill="white">
<path fill-rule="evenodd" clip-rule="evenodd" d="M30 15C30 23.2843 23.2843 30 15 30C6.71573 30 0 23.2843 0 15C0 6.71573 6.71573 0 15 0C23.2843 0 30 6.71573 30 15ZM21.2815 9.45161L21.9465 9.44715C22.7403 9.44715 23.3763 10.0833 23.3763 10.8647C23.3763 11.0121 23.3537 11.1572 23.3093 11.2959C23.1306 11.9209 23.048 12.1794 22.8837 12.6909L22.7929 12.9755C22.7939 13.0331 22.7944 13.0904 22.7944 13.1472C22.7944 15.4668 21.8998 17.8123 20.3397 19.5819C19.0776 21.0132 16.8178 22.7191 13.2201 22.7191C11.7215 22.7191 10.5823 22.3479 9.89071 22.0366C9.39193 21.8123 8.06682 21.2161 8.06682 20.0719C8.06682 19.2803 8.71399 18.6362 9.50931 18.6362C9.61477 18.6362 9.71973 18.6327 9.82346 18.6253C9.37134 18.1961 8.97008 17.7081 8.64451 17.1849C7.71743 15.6966 6.94246 13.2191 8.51448 9.87113C8.72292 9.4268 9.13832 9.12587 9.62569 9.06633C10.1026 9.00902 10.5897 9.20104 10.8972 9.57739C11.7883 10.6702 12.9888 11.449 14.3333 11.8192C14.7889 9.94234 16.5021 8.53094 18.4995 8.53094C19.466 8.53094 20.398 8.85545 21.1537 9.45062C21.1929 9.45136 21.2321 9.45161 21.2815 9.45161Z"/>
</mask>
<path fill-rule="evenodd" clip-rule="evenodd" d="M30 15C30 23.2843 23.2843 30 15 30C6.71573 30 0 23.2843 0 15C0 6.71573 6.71573 0 15 0C23.2843 0 30 6.71573 30 15ZM21.2815 9.45161L21.9465 9.44715C22.7403 9.44715 23.3763 10.0833 23.3763 10.8647C23.3763 11.0121 23.3537 11.1572 23.3093 11.2959C23.1306 11.9209 23.048 12.1794 22.8837 12.6909L22.7929 12.9755C22.7939 13.0331 22.7944 13.0904 22.7944 13.1472C22.7944 15.4668 21.8998 17.8123 20.3397 19.5819C19.0776 21.0132 16.8178 22.7191 13.2201 22.7191C11.7215 22.7191 10.5823 22.3479 9.89071 22.0366C9.39193 21.8123 8.06682 21.2161 8.06682 20.0719C8.06682 19.2803 8.71399 18.6362 9.50931 18.6362C9.61477 18.6362 9.71973 18.6327 9.82346 18.6253C9.37134 18.1961 8.97008 17.7081 8.64451 17.1849C7.71743 15.6966 6.94246 13.2191 8.51448 9.87113C8.72292 9.4268 9.13832 9.12587 9.62569 9.06633C10.1026 9.00902 10.5897 9.20104 10.8972 9.57739C11.7883 10.6702 12.9888 11.449 14.3333 11.8192C14.7889 9.94234 16.5021 8.53094 18.4995 8.53094C19.466 8.53094 20.398 8.85545 21.1537 9.45062C21.1929 9.45136 21.2321 9.45161 21.2815 9.45161Z" fill="#90A4AE"/>
<path d="M21.9465 9.44715V5.94715H21.9347L21.923 5.94723L21.9465 9.44715ZM21.2815 9.45161V12.9516H21.2932L21.3049 12.9515L21.2815 9.45161ZM23.3093 11.2959L19.9761 10.2283L19.9593 10.2808L19.9441 10.3338L23.3093 11.2959ZM22.8837 12.6909L19.5513 11.6208L19.5495 11.6268L22.8837 12.6909ZM22.7929 12.9755L19.4586 11.9113L19.2835 12.46L19.2934 13.0358L22.7929 12.9755ZM20.3397 19.5819L22.9649 21.8968L22.9651 21.8965L20.3397 19.5819ZM9.89071 22.0366L11.3275 18.8451L11.3261 18.8444L9.89071 22.0366ZM9.82346 18.6253L10.0739 22.1163L17.9866 21.5486L12.2331 16.0869L9.82346 18.6253ZM8.64451 17.1849L11.6162 15.3358L11.6153 15.3343L8.64451 17.1849ZM8.51448 9.87113L11.6826 11.3587L11.6831 11.3576L8.51448 9.87113ZM9.62569 9.06633L9.20813 5.59132L9.20124 5.59216L9.62569 9.06633ZM10.8972 9.57739L13.6097 7.36559L13.6077 7.36309L10.8972 9.57739ZM14.3333 11.8192L13.4043 15.1936L16.8833 16.1514L17.7345 12.6448L14.3333 11.8192ZM21.1537 9.45062L18.988 12.2001L19.9116 12.9277L21.0873 12.95L21.1537 9.45062ZM15 33.5C25.2173 33.5 33.5 25.2173 33.5 15H26.5C26.5 21.3513 21.3513 26.5 15 26.5V33.5ZM-3.5 15C-3.5 25.2173 4.78273 33.5 15 33.5V26.5C8.64873 26.5 3.5 21.3513 3.5 15H-3.5ZM15 -3.5C4.78273 -3.5 -3.5 4.78273 -3.5 15H3.5C3.5 8.64873 8.64873 3.5 15 3.5V-3.5ZM33.5 15C33.5 4.78273 25.2173 -3.5 15 -3.5V3.5C21.3513 3.5 26.5 8.64873 26.5 15H33.5ZM21.923 5.94723L21.258 5.95169L21.3049 12.9515L21.97 12.9471L21.923 5.94723ZM26.8763 10.8647C26.8763 8.13085 24.6538 5.94715 21.9465 5.94715V12.9471C20.8268 12.9471 19.8763 12.0357 19.8763 10.8647H26.8763ZM26.6425 12.3635C26.7986 11.8763 26.8763 11.3708 26.8763 10.8647H19.8763C19.8763 10.6534 19.9089 10.4382 19.9761 10.2283L26.6425 12.3635ZM26.2161 13.761C26.3862 13.2314 26.4814 12.9334 26.6745 12.258L19.9441 10.3338C19.7799 10.9083 19.7098 11.1274 19.5513 11.6208L26.2161 13.761ZM26.1272 14.0397L26.218 13.7551L19.5495 11.6268L19.4586 11.9113L26.1272 14.0397ZM26.2944 13.1472C26.2944 13.07 26.2937 12.9926 26.2924 12.9152L19.2934 13.0358C19.2941 13.0736 19.2944 13.1108 19.2944 13.1472H26.2944ZM22.9651 21.8965C25.0785 19.4994 26.2944 16.3347 26.2944 13.1472H19.2944C19.2944 14.599 18.7212 16.1252 17.7143 17.2674L22.9651 21.8965ZM13.2201 26.2191C18.0757 26.2191 21.2267 23.868 22.9649 21.8968L17.7146 17.2671C16.9286 18.1584 15.5598 19.2191 13.2201 19.2191V26.2191ZM8.45389 25.228C9.50588 25.7016 11.135 26.2191 13.2201 26.2191V19.2191C12.3081 19.2191 11.6587 18.9942 11.3275 18.8451L8.45389 25.228ZM4.56682 20.0719C4.56682 22.1422 5.79508 23.4735 6.58349 24.1147C7.37386 24.7574 8.22126 25.1234 8.45536 25.2287L11.3261 18.8444C11.2034 18.7893 11.132 18.7561 11.0626 18.7185C10.9909 18.6797 10.9769 18.665 11 18.6838C11.0187 18.699 11.149 18.8059 11.2838 19.0309C11.4348 19.2829 11.5668 19.646 11.5668 20.0719H4.56682ZM9.50931 15.1362C6.79668 15.1362 4.56682 17.3316 4.56682 20.0719H11.5668C11.5668 21.2289 10.6313 22.1362 9.50931 22.1362V15.1362ZM9.57297 15.1343C9.55948 15.1352 9.53837 15.1362 9.50931 15.1362V22.1362C9.69116 22.1362 9.87999 22.1302 10.0739 22.1163L9.57297 15.1343ZM5.67283 19.034C6.16174 19.8197 6.75428 20.5376 7.41378 21.1637L12.2331 16.0869C11.9884 15.8546 11.7784 15.5965 11.6162 15.3358L5.67283 19.034ZM5.34634 8.38356C3.19747 12.9601 4.21501 16.6936 5.67373 19.0354L11.6153 15.3343C11.3811 14.9584 11.1811 14.4839 11.1275 13.9033C11.0756 13.3424 11.1429 12.5082 11.6826 11.3587L5.34634 8.38356ZM9.20124 5.59216C7.51803 5.7978 6.06595 6.84959 5.34582 8.38466L11.6831 11.3576C11.3799 12.004 10.7586 12.4539 10.0501 12.5405L9.20124 5.59216ZM13.6077 7.36309C12.5328 6.04727 10.8601 5.39283 9.20813 5.59132L10.0432 12.5413C9.34519 12.6252 8.64671 12.3548 8.18669 11.7917L13.6077 7.36309ZM15.2623 8.44471C14.6172 8.26709 14.0405 7.89392 13.6097 7.36559L8.18465 11.7892C9.53605 13.4466 11.3604 14.6309 13.4043 15.1936L15.2623 8.44471ZM18.4995 5.03094C14.8398 5.03094 11.7574 7.59376 10.9321 10.9935L17.7345 12.6448C17.7724 12.4886 17.8703 12.3277 18.0236 12.2052C18.172 12.0865 18.3374 12.0309 18.4995 12.0309V5.03094ZM23.3194 6.70112C21.9479 5.62087 20.2534 5.03094 18.4995 5.03094V12.0309C18.6786 12.0309 18.8482 12.09 18.988 12.2001L23.3194 6.70112ZM21.2815 5.95161C21.2435 5.95161 21.2286 5.95141 21.22 5.95125L21.0873 12.95C21.1572 12.9513 21.2206 12.9516 21.2815 12.9516V5.95161Z" fill="#90A4AE" mask="url(#path-1-inside-1_5727_2878)"/>
</svg>
