<svg width="20" height="20" viewBox="0 0 20 20" fill="none" xmlns="http://www.w3.org/2000/svg"><path fill-rule="evenodd" clip-rule="evenodd" d="M0 10C0 4.477 4.477 0 10 0s10 4.477 10 10-4.477 10-10 10S0 15.523 0 10z" fill="#385EF9"/><path fill-rule="evenodd" clip-rule="evenodd" d="M10.474 4.273l1.313 1.321c.08.08.199.12.358.12h1.83c.278 0 .517.24.517.521v1.842c0 .12.04.28.16.36l1.312 1.281a.51.51 0 010 .721l-1.313 1.281c-.12.12-.159.24-.159.4v1.842c0 .28-.239.52-.517.52h-1.83c-.12 0-.279.04-.358.16l-1.313 1.322c-.2.2-.518.2-.716 0l-1.313-1.321a.59.59 0 00-.359-.16h-1.83a.528.528 0 01-.517-.52V12.12c0-.12-.04-.28-.16-.36l-1.312-1.282a.51.51 0 010-.72L5.58 8.476c.12-.16.159-.28.159-.4V6.235c0-.28.239-.52.517-.52h1.83c.12 0 .279-.04.359-.16l1.313-1.322a.544.544 0 01.716.04z" fill="#fff"/><path fill-rule="evenodd" clip-rule="evenodd" d="M12.856 7.799a.588.588 0 01.045.83l-3.302 3.684a.588.588 0 01-.823.053l-1.392-1.201a.588.588 0 11.768-.891l.956.824 2.917-3.254a.588.588 0 01.83-.045z" fill="#385EF9"/></svg>