<?xml version="1.0" encoding="utf-8"?>
<!-- Generator: Adobe Illustrator 16.0.3, SVG Export Plug-In . SVG Version: 6.00 Build 0)  -->
<!DOCTYPE svg PUBLIC "-//W3C//DTD SVG 1.1//EN" "http://www.w3.org/Graphics/SVG/1.1/DTD/svg11.dtd">
<svg version="1.1" id="Ebene_1" xmlns="http://www.w3.org/2000/svg" x="0px" y="0px"
     width="640px" height="360px" viewBox="0 0 640 360" enable-background="new 0 0 640 360" xml:space="preserve">
<g>
	<path fill="#EE721C" d="M601.451,29.319c-53.273-35.849-141.861,2.55-197.868,85.766c-56.006,83.218-58.219,179.747-4.946,215.592
		c53.271,35.854,141.863-2.543,197.868-85.766C652.507,161.694,654.725,65.168,601.451,29.319"/>
	<path fill="#EE721C" d="M425.261,29.319c-53.272-35.849-141.859,2.55-197.869,85.766c-56.004,83.218-58.22,179.747-4.944,215.592
		c53.274,35.854,141.864-2.543,197.867-85.766C476.32,161.694,478.535,65.168,425.261,29.319"/>
	<path fill="#EE721C" d="M241.367,29.319C188.093-6.529,99.504,31.87,43.495,115.085c-56.003,83.218-58.219,179.747-4.943,215.592
		c53.271,35.854,141.861-2.543,197.864-85.766C292.424,161.694,294.636,65.168,241.367,29.319"/>
	<path fill="#FFFFFF" d="M158.359,149.032c-2.822-2.819-6.454-4.343-10.426-4.343c-11.364,0-13.671,6.861-19.045,22.169
		c0,0-15.779,45.649-20.124,57.951c-4.194-12.532-20.98-62.906-20.98-62.906c-1.977-6.516-5.497-17.214-17.259-17.214
		c-8.989,0-16.607,7.615-16.607,16.632v0.087c-0.051,4.033,1.565,8.297,3.288,12.362c0,0,33.202,85.907,34.082,88.142
		c-0.571,1.28-2.147,5.185-2.191,5.309c-5.639,13.302-7.217,15.422-15.144,15.422l-3.909-0.448c-1.677-0.526-3.337-0.7-5.068-0.784
		c-9.017,0.084-14.598,4.971-14.73,13.224c0,4.048,1.317,7.398,3.864,9.739c4.065,4.188,11.175,5.952,23.775,5.952
		c28.308,0,35.643-14.221,44.313-37.466l37.021-98.419c1.915-5.082,3.767-13.338,3.767-13.618l0.07-0.264v-0.185
		C163.056,155.981,161.414,151.915,158.359,149.032"/>
	<path fill="#FFFFFF" d="M210.475,245.581c-4.523,0-8.37-1.37-11.114-4.037c-2.23-2.316-3.614-5.401-3.614-8.824
		c0-9.601,9.587-12.025,24.938-15.241c5.587-1.154,11.18-2.469,16.675-4.203l-0.119,0.217c0,9.016-0.503,15.211-3.439,20.106
		C229.651,240.784,220.283,245.581,210.475,245.581 M276.286,245.961c-1.458-4.843-3.125-10.125-3.125-18.671l0.193-32.846
		c0.147-17.319-3.134-28.377-10.542-35.753c-7.897-7.971-20.788-11.629-40.697-11.629c-36.026,0-52.379,17.708-52.487,34.193
		c0,3.631,1.398,7.108,3.914,9.673c2.733,2.656,6.573,4.262,10.634,4.262c8.181,0,11.246-5.267,13.934-9.786
		c3.513-6.186,7.29-12.504,24.005-12.504c14.326,0,16.956,5.438,17.775,17.023c-14.218,3.98-26.463,6.623-37.235,9.032l-8.373,1.771
		c-18.626,4.196-29.799,16.906-29.799,34.123v0.18c0,9.071,3.396,17.698,9.796,24.038c7.071,7.141,17.414,10.99,29.085,10.99
		c16.713,0,28.555-5.751,40.476-14.791c4.851,7.692,10.625,14.791,18.296,14.791c8.696,0,16.167-6.725,16.193-14.411
		C278.329,252.313,277.473,249.462,276.286,245.961"/>
	<path fill="#FFFFFF" d="M338.576,242.06c-5.74,0-10.808-2.063-14.768-6.035c-5.994-5.96-9.068-15.366-9.04-27.539
		c0-20.424,9.405-33.864,23.807-33.864c5.646,0,10.834,2.198,14.903,6.24c6.082,6.287,9.516,15.963,9.407,27.624
		C362.887,233.351,350.314,242.06,338.576,242.06 M397.347,108.718c-2.807-2.844-6.522-4.201-11.051-4.201
		c-5.036,0-16.164,1.916-16.317,20.768c0,0-0.031,25.737-0.031,35.536c-8.675-8.199-18.505-13.358-33.899-13.358
		c-30.344,0-49.898,23.61-50.08,60.176c-0.038,20.402,6.206,38.041,17.465,49.416c8.706,8.534,19.626,13.004,31.792,13.004
		c13.629,0,24.222-4.47,34.722-14.904c0.588,4.337,2.251,8.036,4.892,10.675c2.826,2.84,6.544,4.229,10.98,4.229
		c7.78,0,16.182-4.927,16.182-19.17l0.432-127.123C402.433,117.12,400.723,112.013,397.347,108.718"/>
	<path fill="#FFFFFF" d="M546.746,240.747c-4.078-4.067-10.205-5.985-18.357-5.985h-61.576c1.072-1.672,2.431-3.153,3.212-4.239
		c7.414-9.1,17.849-17.29,28.717-26.136c23.226-18.601,49.621-39.894,49.754-72.048v-0.048c0-21.521-12.368-40.85-31.401-49.664
		c-9.176-4.067-21.09-6.137-34.273-6.137c-43.182,0-66.479,28.578-66.57,55.48c-0.028,5.528,1.73,10.132,4.953,13.51
		c3.15,3.181,7.51,4.795,12.36,4.795c13.53,0,17.68-11.867,20.571-20.678c1.058-3.346,2.193-6.557,3.633-8.688
		c5.758-8.727,14.164-13.513,24.286-13.513c7.376,0,14.256,2.724,19.084,7.634c4.674,4.689,7.289,11.131,7.289,18.208
		c-0.056,14.125-11.246,29.994-30.645,43.216c-7.558,5.371-25.355,20.94-50.684,47.25c-5.896,6.243-11.737,19.011-11.737,25.847
		c0,5.237,1.98,10.201,5.709,13.951c4.276,4.217,10.143,6.288,17.185,6.288h93.696c13.313,0,19.292-8.692,19.292-17.355
		C551.243,247.754,549.711,243.643,546.746,240.747"/>
</g>
</svg>
