<svg width="187" height="30" viewBox="0 0 187 30" fill="none" xmlns="http://www.w3.org/2000/svg">
<path d="M4.63413 13.8204C3.83297 14.2615 3.30753 13.8617 3.46039 12.9278L4.10326 9.00359L1.38022 6.22463C0.732067 5.56309 0.932784 4.91651 1.82837 4.78025L5.59171 4.20756L7.27474 0.637382C7.67532 -0.212461 8.32476 -0.212461 8.72533 0.637382L10.4082 4.20756L14.1716 4.78025C15.0673 4.91651 15.2679 5.56309 14.6199 6.22463L11.8968 9.00374L12.5398 12.9279C12.6927 13.8618 12.1672 14.2615 11.3661 13.8206L8.00004 11.9679L4.63413 13.8204V13.8204Z" fill="#F16C5D"/>
<path d="M4.63413 29.8204C3.83297 30.2615 3.30753 29.8617 3.46039 28.9278L4.10326 25.0036L1.38022 22.2246C0.732067 21.5631 0.932784 20.9165 1.82837 20.7803L5.59171 20.2076L7.27474 16.6374C7.67532 15.7875 8.32476 15.7875 8.72533 16.6374L10.4082 20.2076L14.1716 20.7803C15.0673 20.9165 15.2679 21.5631 14.6199 22.2246L11.8968 25.0037L12.5398 28.9279C12.6927 29.8618 12.1672 30.2615 11.3661 29.8206L8.00004 27.9679L4.63413 29.8204V29.8204Z" fill="#F16C5D"/>
<path d="M23.6341 29.8204C22.833 30.2615 22.3075 29.8617 22.4604 28.9278L23.1033 25.0036L20.3802 22.2246C19.7321 21.5631 19.9328 20.9165 20.8284 20.7803L24.5917 20.2076L26.2747 16.6374C26.6753 15.7875 27.3248 15.7875 27.7253 16.6374L29.4082 20.2076L33.1716 20.7803C34.0673 20.9165 34.2679 21.5631 33.6199 22.2246L30.8968 25.0037L31.5398 28.9279C31.6927 29.8618 31.1672 30.2615 30.3661 29.8206L27 27.9679L23.6341 29.8204V29.8204Z" fill="#F16C5D"/>
<path d="M42.6341 29.8204C41.833 30.2615 41.3075 29.8617 41.4604 28.9278L42.1033 25.0036L39.3802 22.2246C38.7321 21.5631 38.9328 20.9165 39.8284 20.7803L43.5917 20.2076L45.2747 16.6374C45.6753 15.7875 46.3248 15.7875 46.7253 16.6374L48.4082 20.2076L52.1716 20.7803C53.0673 20.9165 53.2679 21.5631 52.6199 22.2246L49.8968 25.0037L50.5398 28.9279C50.6927 29.8618 50.1672 30.2615 49.3661 29.8206L46 27.9679L42.6341 29.8204V29.8204Z" fill="#F16C5D"/>
<path d="M61.6341 29.8204C60.833 30.2615 60.3075 29.8617 60.4604 28.9278L61.1033 25.0036L58.3802 22.2246C57.7321 21.5631 57.9328 20.9165 58.8284 20.7803L62.5917 20.2076L64.2747 16.6374C64.6753 15.7875 65.3248 15.7875 65.7253 16.6374L67.4082 20.2076L71.1716 20.7803C72.0673 20.9165 72.2679 21.5631 71.6199 22.2246L68.8968 25.0037L69.5398 28.9279C69.6927 29.8618 69.1672 30.2615 68.3661 29.8206L65 27.9679L61.6341 29.8204V29.8204Z" fill="#F16C5D"/>
<path d="M23.6341 13.8204C22.833 14.2615 22.3075 13.8617 22.4604 12.9278L23.1033 9.00359L20.3802 6.22463C19.7321 5.56309 19.9328 4.91651 20.8284 4.78025L24.5917 4.20756L26.2747 0.637382C26.6753 -0.212461 27.3248 -0.212461 27.7253 0.637382L29.4082 4.20756L33.1716 4.78025C34.0673 4.91651 34.2679 5.56309 33.6199 6.22463L30.8968 9.00374L31.5398 12.9279C31.6927 13.8618 31.1672 14.2615 30.3661 13.8206L27 11.9679L23.6341 13.8204V13.8204Z" fill="#F16C5D"/>
<path d="M42.6341 13.8204C41.833 14.2615 41.3075 13.8617 41.4604 12.9278L42.1033 9.00359L39.3802 6.22463C38.7321 5.56309 38.9328 4.91651 39.8284 4.78025L43.5917 4.20756L45.2747 0.637382C45.6753 -0.212461 46.3248 -0.212461 46.7253 0.637382L48.4082 4.20756L52.1716 4.78025C53.0673 4.91651 53.2679 5.56309 52.6199 6.22463L49.8968 9.00374L50.5398 12.9279C50.6927 13.8618 50.1672 14.2615 49.3661 13.8206L46 11.9679L42.6341 13.8204V13.8204Z" fill="#F16C5D"/>
<path d="M61.6341 13.8204C60.833 14.2615 60.3075 13.8617 60.4604 12.9278L61.1033 9.00359L58.3802 6.22463C57.7321 5.56309 57.9328 4.91651 58.8284 4.78025L62.5917 4.20756L64.2747 0.637382C64.6753 -0.212461 65.3248 -0.212461 65.7253 0.637382L67.4082 4.20756L71.1716 4.78025C72.0673 4.91651 72.2679 5.56309 71.6199 6.22463L68.8968 9.00374L69.5398 12.9279C69.6927 13.8618 69.1672 14.2615 68.3661 13.8206L65 11.9679L61.6341 13.8204V13.8204Z" fill="#F16C5D"/>
<path d="M80.6341 13.8204C79.833 14.2615 79.3075 13.8617 79.4604 12.9278L80.1033 9.00359L77.3802 6.22463C76.7321 5.56309 76.9328 4.91651 77.8284 4.78025L81.5917 4.20756L83.2747 0.637382C83.6753 -0.212461 84.3248 -0.212461 84.7253 0.637382L86.4082 4.20756L90.1716 4.78025C91.0673 4.91651 91.2679 5.56309 90.6199 6.22463L87.8968 9.00374L88.5398 12.9279C88.6927 13.8618 88.1672 14.2615 87.3661 13.8206L84 11.9679L80.6341 13.8204V13.8204Z" fill="#F16C5D"/>
<path d="M79.4604 28.9278C79.3075 29.8617 79.833 30.2615 80.6341 29.8204L84 27.9679V16C83.7375 16 83.475 16.2125 83.2747 16.6374L81.5917 20.2076L77.8284 20.7803C76.9328 20.9165 76.7321 21.5631 77.3802 22.2246L80.1033 25.0036L79.4604 28.9278Z" fill="#F16C5D"/>
<path d="M86.4082 20.2076L84.7253 16.6374C84.525 16.2125 84.2625 16 84 16V27.9679L87.3661 29.8206C88.1672 30.2615 88.6926 29.8618 88.5398 28.9279L87.8968 25.0037L90.6198 22.2246C91.2678 21.5631 91.0672 20.9165 90.1715 20.7803L86.4082 20.2076Z" fill="#E5E5E6"/>
<path d="M99.6341 13.8204C98.833 14.2615 98.3075 13.8617 98.4604 12.9278L99.1033 9.00359L96.3802 6.22463C95.7321 5.56309 95.9328 4.91651 96.8284 4.78025L100.592 4.20756L102.275 0.637382C102.675 -0.212461 103.325 -0.212461 103.725 0.637382L105.408 4.20756L109.172 4.78025C110.067 4.91651 110.268 5.56309 109.62 6.22463L106.897 9.00374L107.54 12.9279C107.693 13.8618 107.167 14.2615 106.366 13.8206L103 11.9679L99.6341 13.8204V13.8204Z" fill="#E5E5E6"/>
<path d="M99.6341 29.8204C98.833 30.2615 98.3075 29.8617 98.4604 28.9278L99.1033 25.0036L96.3802 22.2246C95.7321 21.5631 95.9328 20.9165 96.8284 20.7803L100.592 20.2076L102.275 16.6374C102.675 15.7875 103.325 15.7875 103.725 16.6374L105.408 20.2076L109.172 20.7803C110.067 20.9165 110.268 21.5631 109.62 22.2246L106.897 25.0037L107.54 28.9279C107.693 29.8618 107.167 30.2615 106.366 29.8206L103 27.9679L99.6341 29.8204V29.8204Z" fill="#E5E5E6"/>
<path d="M118.634 13.8204C117.833 14.2615 117.308 13.8617 117.46 12.9278L118.103 9.00359L115.38 6.22463C114.732 5.56309 114.933 4.91651 115.828 4.78025L119.592 4.20756L121.275 0.637382C121.675 -0.212461 122.325 -0.212461 122.725 0.637382L124.408 4.20756L128.172 4.78025C129.067 4.91651 129.268 5.56309 128.62 6.22463L125.897 9.00374L126.54 12.9279C126.693 13.8618 126.167 14.2615 125.366 13.8206L122 11.9679L118.634 13.8204V13.8204Z" fill="#E5E5E6"/>
<path d="M118.634 29.8204C117.833 30.2615 117.308 29.8617 117.46 28.9278L118.103 25.0036L115.38 22.2246C114.732 21.5631 114.933 20.9165 115.828 20.7803L119.592 20.2076L121.275 16.6374C121.675 15.7875 122.325 15.7875 122.725 16.6374L124.408 20.2076L128.172 20.7803C129.067 20.9165 129.268 21.5631 128.62 22.2246L125.897 25.0037L126.54 28.9279C126.693 29.8618 126.167 30.2615 125.366 29.8206L122 27.9679L118.634 29.8204V29.8204Z" fill="#E5E5E6"/>
<path d="M137.634 13.8204C136.833 14.2615 136.308 13.8617 136.46 12.9278L137.103 9.00359L134.38 6.22463C133.732 5.56309 133.933 4.91651 134.828 4.78025L138.592 4.20756L140.275 0.637382C140.675 -0.212461 141.325 -0.212461 141.725 0.637382L143.408 4.20756L147.172 4.78025C148.067 4.91651 148.268 5.56309 147.62 6.22463L144.897 9.00374L145.54 12.9279C145.693 13.8618 145.167 14.2615 144.366 13.8206L141 11.9679L137.634 13.8204V13.8204Z" fill="#E5E5E6"/>
<path d="M137.634 29.8204C136.833 30.2615 136.308 29.8617 136.46 28.9278L137.103 25.0036L134.38 22.2246C133.732 21.5631 133.933 20.9165 134.828 20.7803L138.592 20.2076L140.275 16.6374C140.675 15.7875 141.325 15.7875 141.725 16.6374L143.408 20.2076L147.172 20.7803C148.067 20.9165 148.268 21.5631 147.62 22.2246L144.897 25.0037L145.54 28.9279C145.693 29.8618 145.167 30.2615 144.366 29.8206L141 27.9679L137.634 29.8204V29.8204Z" fill="#E5E5E6"/>
<path d="M156.634 13.8204C155.833 14.2615 155.308 13.8617 155.46 12.9278L156.103 9.00359L153.38 6.22463C152.732 5.56309 152.933 4.91651 153.828 4.78025L157.592 4.20756L159.275 0.637382C159.675 -0.212461 160.325 -0.212461 160.725 0.637382L162.408 4.20756L166.172 4.78025C167.067 4.91651 167.268 5.56309 166.62 6.22463L163.897 9.00374L164.54 12.9279C164.693 13.8618 164.167 14.2615 163.366 13.8206L160 11.9679L156.634 13.8204V13.8204Z" fill="#E5E5E6"/>
<path d="M156.634 29.8204C155.833 30.2615 155.308 29.8617 155.46 28.9278L156.103 25.0036L153.38 22.2246C152.732 21.5631 152.933 20.9165 153.828 20.7803L157.592 20.2076L159.275 16.6374C159.675 15.7875 160.325 15.7875 160.725 16.6374L162.408 20.2076L166.172 20.7803C167.067 20.9165 167.268 21.5631 166.62 22.2246L163.897 25.0037L164.54 28.9279C164.693 29.8618 164.167 30.2615 163.366 29.8206L160 27.9679L156.634 29.8204V29.8204Z" fill="#E5E5E6"/>
<path d="M175.634 13.8204C174.833 14.2615 174.308 13.8617 174.46 12.9278L175.103 9.00359L172.38 6.22463C171.732 5.56309 171.933 4.91651 172.828 4.78025L176.592 4.20756L178.275 0.637382C178.675 -0.212461 179.325 -0.212461 179.725 0.637382L181.408 4.20756L185.172 4.78025C186.067 4.91651 186.268 5.56309 185.62 6.22463L182.897 9.00374L183.54 12.9279C183.693 13.8618 183.167 14.2615 182.366 13.8206L179 11.9679L175.634 13.8204V13.8204Z" fill="#E5E5E6"/>
<path d="M175.634 29.8204C174.833 30.2615 174.308 29.8617 174.46 28.9278L175.103 25.0036L172.38 22.2246C171.732 21.5631 171.933 20.9165 172.828 20.7803L176.592 20.2076L178.275 16.6374C178.675 15.7875 179.325 15.7875 179.725 16.6374L181.408 20.2076L185.172 20.7803C186.067 20.9165 186.268 21.5631 185.62 22.2246L182.897 25.0037L183.54 28.9279C183.693 29.8618 183.167 30.2615 182.366 29.8206L179 27.9679L175.634 29.8204V29.8204Z" fill="#E5E5E6"/>
</svg>
