<svg height="36" viewBox="0 0 36 36" width="36" xmlns="http://www.w3.org/2000/svg">
	<path d="m27.6001875 36h-19.200375c-4.6389375 0-8.3998125-3.760875-8.3998125-8.400375v-19.19925c0-4.6395 3.760875-8.400375 8.3998125-8.400375h19.200375c4.6389375 0 8.3998125 3.760875 8.3998125 8.400375v19.19925c0 4.6395-3.760875 8.400375-8.3998125 8.400375" fill="#003354"/>
	<path d="m19.4482688 6.82686285c-4.5421875-.03186285-8.2580625 3.80213715-8.2580625 8.34432465v7.8519375c0 2.1268125-1.32187505 3.9279375-3.14943755 4.5495-.340875.115875-.381375.58275-.06975.7621875l2.32087505 1.339875c.3931875.22725.883125.1918125 1.2470625-.079875 2.00025-1.495125 3.295125-3.8818125 3.295125-6.5716875v-7.894125c0-2.505375 1.9794375-4.61925 4.4848125-4.6575 2.57175-.0388125 4.6648125 2.0536875 4.6254375 4.6254375-.0376875 2.505375-2.152125 4.4848125-4.6575 4.4848125h-2.017125c-.3105 0-.5625.252-.5625.5625v2.518875c0 .3110625.252.5625.5625.5625h1.9749375c4.5421875 0 8.375625-3.715875 8.3443177-8.2580625-.0316927-4.482-3.6586927-8.109-8.1406927-8.14069965" fill="#ee847d"/></svg>