<svg width="505" height="388" viewBox="0 0 505 388" xmlns="http://www.w3.org/2000/svg" xmlns:xlink="http://www.w3.org/1999/xlink">
  <title>
    topnav_sprite
  </title>
  <desc>
    Created with Sketch.
  </desc>
  <defs>
    <linearGradient x1="0%" y1="0%" y2="100%" id="g">
      <stop stop-color="#F8F8F8" offset="0%"/>
      <stop stop-color="#D5D5D5" offset="100%"/>
    </linearGradient>
    <path d="M4.576 313.98c-1.03-1.202-2.662-4.103-.54-6.43.018-.022.033-.047.052-.068.05-.056 1.178-1.136 2.825-.963 1.176.122 2.22.87 3.1 1.98.88-1.1 1.924-1.837 3.098-1.965 1.737-.19 2.764.89 2.813.945.017.02.032.04.05.06 2.103 2.438.49 5.196-.53 6.43-1.372 1.574-3.108 3.307-4.89 4.783l-.046.038c-.14.135-.404.21-.508.21-.106 0-.404-.106-.51-.208-.822-.676-2.93-2.5-4.914-4.812z" id="a"/>
    <mask id="h" x="-2" y="-2" width="18" height="16.5">
      <path fill="#fff" d="M1 304.5h18V321H1z"/>
      <use xlink:href="#a"/>
    </mask>
    <path d="M4.576 330.02c-1.03 1.202-2.662 4.103-.54 6.43.018.022.033.047.052.068.05.056 1.178 1.136 2.825.963 1.176-.122 2.22-.87 3.1-1.98.88 1.1 1.924 1.837 3.098 1.965 1.737.19 2.764-.89 2.813-.945.017-.02.032-.04.05-.06 2.103-2.438.49-5.196-.53-6.43-1.372-1.574-3.108-3.307-4.89-4.783l-.046-.038c-.14-.135-.404-.21-.508-.21-.106 0-.404.106-.51.208-.822.676-2.93 2.5-4.914 4.812z" id="b"/>
    <mask id="i" x="-2" y="-2" width="18" height="16.5">
      <path fill="#fff" d="M1 323h18v16.5H1z"/>
      <use xlink:href="#b"/>
    </mask>
    <radialGradient cy="100%" fx="50%" fy="100%" r="105.828%" id="j">
      <stop stop-color="#F76C67" offset="0%"/>
      <stop stop-color="#F53D47" offset="100%"/>
    </radialGradient>
    <radialGradient cy="0%" fx="50%" fy="0%" r="105.262%" id="k">
      <stop stop-color="#F76C67" offset="0%"/>
      <stop stop-color="#F53D47" offset="100%"/>
    </radialGradient>
    <linearGradient x1="50%" y1="0%" x2="50%" y2="100%" id="l">
      <stop stop-color="#F1E1D0" offset="0%"/>
      <stop stop-color="#FEF3E8" offset="87.95%"/>
      <stop stop-color="#633" offset="88.371%"/>
      <stop stop-color="#633" offset="100%"/>
    </linearGradient>
    <linearGradient x1="50%" y1="0%" x2="50%" y2="100%" id="n">
      <stop stop-color="#422D19" stop-opacity=".395" offset="0%"/>
      <stop stop-color="#8E847A" stop-opacity=".362" offset="24.036%"/>
      <stop stop-color="#BBB8B5" stop-opacity=".342" offset="24.606%"/>
      <stop stop-color="#644C32" stop-opacity=".379" offset="100%"/>
    </linearGradient>
    <path id="c" d="M1 8h14v8H1z"/>
    <filter x="-50%" y="-50%" width="200%" height="200%" filterUnits="objectBoundingBox" id="m">
      <feOffset dy="2" in="SourceAlpha" result="shadowOffsetInner1"/>
      <feComposite in="shadowOffsetInner1" in2="SourceAlpha" operator="arithmetic" k2="-1" k3="1" result="shadowInnerInner1"/>
      <feColorMatrix values="0 0 0 0 0   0 0 0 0 0   0 0 0 0 0  0 0 0 0.15845788 0" in="shadowInnerInner1"/>
    </filter>
    <mask id="o" x="0" y="0" width="14" height="8" fill="#fff">
      <use xlink:href="#c"/>
    </mask>
    <linearGradient x1="50%" y1="0%" x2="50%" y2="100%" id="p">
      <stop stop-color="#EAEAEA" offset="0%"/>
      <stop stop-color="#C0C0C0" offset="100%"/>
    </linearGradient>
    <linearGradient x1="50%" y1="0%" x2="50%" y2="88.554%" id="s">
      <stop stop-color="#FF7878" offset="0%"/>
      <stop stop-color="#FF7A7A" offset="49.956%"/>
      <stop stop-color="#F76D6D" offset="50.314%"/>
      <stop stop-color="#F26969" offset="62.513%"/>
      <stop stop-color="#FE9E9B" offset="63.094%"/>
      <stop stop-color="#FE9E9B" offset="75.26%"/>
      <stop stop-color="#FFC9C0" offset="75.647%"/>
      <stop stop-color="#FFC9C0" offset="88.007%"/>
      <stop stop-color="#F89D98" offset="88.388%"/>
      <stop stop-color="#F89D98" offset="100%"/>
    </linearGradient>
    <linearGradient x1="50%" y1="0%" x2="50%" y2="100%" id="q">
      <stop stop-color="#ED5454" offset="0%"/>
      <stop stop-color="#C02C2C" offset="100%"/>
    </linearGradient>
    <path id="d" d="M6 0h4v9H6z"/>
    <mask id="r" x="0" y="0" width="4" height="9" fill="#fff">
      <use xlink:href="#d"/>
    </mask>
    <path d="M12 0h1.995s2 2.927 2.005 8c-.226.786-2.928 1-4 1V0z" id="e"/>
    <mask id="t" x="0" y="0" width="4" height="9" fill="#fff">
      <use xlink:href="#e"/>
    </mask>
    <path d="M0 0h1.995s2 2.927 2.005 8c-.226.786-2.928 1-4 1V0z" id="f"/>
    <mask id="u" x="0" y="0" width="4" height="9" fill="#fff">
      <use xlink:href="#f"/>
    </mask>
    <linearGradient x1="50%" y1="0%" x2="50%" y2="100%" id="v">
      <stop stop-color="#BABACB" offset="0%"/>
      <stop stop-color="#B4B4C5" offset="11.217%"/>
      <stop stop-color="#CDCDDE" offset="11.481%"/>
      <stop stop-color="#D5D5E8" offset="44.112%"/>
      <stop stop-color="#CCD" offset="45.119%"/>
      <stop stop-color="#D5D5E8" offset="55.294%"/>
      <stop stop-color="#F3F3FA" offset="55.294%"/>
      <stop stop-color="#F3F3FA" offset="65.629%"/>
      <stop stop-color="#F3F3FA" offset="66.398%"/>
      <stop stop-color="#FAFAFB" offset="77.923%"/>
      <stop stop-color="#DFDFE9" offset="78.344%"/>
      <stop stop-color="#DFDFE9" offset="88.695%"/>
      <stop stop-color="#7E7E8F" offset="89.137%"/>
      <stop stop-color="#7E7E8F" offset="100%"/>
    </linearGradient>
    <linearGradient x1="20.533%" y1="0%" x2="77.577%" y2="81.935%" id="w">
      <stop stop-color="#C7D2E8" offset="0%"/>
      <stop stop-color="#DDE3F1" offset="16.77%"/>
      <stop stop-color="#ABBCDD" offset="27.639%"/>
      <stop stop-color="#9AB4D5" offset="34.778%"/>
      <stop stop-color="#ABD" offset="48.121%"/>
      <stop stop-color="#D2DBED" offset="58.239%"/>
      <stop stop-color="#ABBCDD" offset="71.593%"/>
      <stop stop-color="#CDE6F2" offset="100%"/>
    </linearGradient>
    <path id="x" d="M3 9h10v7H3z"/>
    <filter x="-50%" y="-50%" width="200%" height="200%" filterUnits="objectBoundingBox" id="y">
      <feGaussianBlur stdDeviation="1" in="SourceAlpha" result="shadowBlurInner1"/>
      <feOffset dy="-2" in="shadowBlurInner1" result="shadowOffsetInner1"/>
      <feComposite in="shadowOffsetInner1" in2="SourceAlpha" operator="arithmetic" k2="-1" k3="1" result="shadowInnerInner1"/>
      <feColorMatrix values="0 0 0 0 0.803921569   0 0 0 0 0.901960784   0 0 0 0 0.949019608  0 0 0 0.866225091 0" in="shadowInnerInner1" result="shadowMatrixInner1"/>
      <feOffset dy="-1" in="SourceAlpha" result="shadowOffsetInner2"/>
      <feComposite in="shadowOffsetInner2" in2="SourceAlpha" operator="arithmetic" k2="-1" k3="1" result="shadowInnerInner2"/>
      <feColorMatrix values="0 0 0 0 0.4   0 0 0 0 0.533333333   0 0 0 0 0.666666667  0 0 0 1 0" in="shadowInnerInner2" result="shadowMatrixInner2"/>
      <feMerge>
        <feMergeNode in="shadowMatrixInner1"/>
        <feMergeNode in="shadowMatrixInner2"/>
      </feMerge>
    </filter>
    <linearGradient x1="50%" y1="0%" x2="50%" y2="100%" id="z">
      <stop stop-color="#6082A4" offset="0%"/>
      <stop stop-color="#94B6D8" offset="100%"/>
    </linearGradient>
  </defs>
  <g fill="none" fill-rule="evenodd">
    <path d="M0 0h101v101H0z" transform="translate(0 101)" fill="url(#g)"/>
    <path d="M35 61.002C35 56.982 39.02 54 44.008 54h12.984C61.967 54 66 58 66 61.002v9.996C66 75.97 61.98 80 56.992 80H44.008C39.033 80 35 75.966 35 70.998v-9.996zm9.04-13.607c2.22 0 5.728 5.243 5.127 5.243-1.54-.116-4.856-1.175-7.016-2.344-2.16-1.168-.333-2.9 1.89-2.9zm13.238 0c2.132 0 3.332 2.337 1.16 3.535-2.17 1.198-6.636 2.102-6.078 1.708 0 0 2.786-5.243 4.918-5.243z" fill="#FFF"/>
    <path d="M37 80h8V65H35v12.815C35 78.995 35 80 37 80zm11-15h5v15h-5V65zm9-11c1.865-.378 3.61-1.478 4.62-2.788 1.01-1.31 1.225-5.06-3.895-6.12-4.996-1.033-6.962 6.904-6.962 6.018 0 .886-1.87-5.975-6.99-5.975s-6.038 4.707-4.56 6.077c1.4 1.296 3.65 2.335 4.787 2.788h-9c-2 0-2 1.018-2 2v4c0 1.004 0 2 2 2h9v-8c1.874.626 3 .168 3 .168V62h7v-7.832s1.592.4 3.026-.168L57 62h9c2.158 0 2-1.028 2-2v-4c0-.964 0-2-2-2h-9zm-12.96-6.605c2.22 0 5.728 5.243 5.127 5.243-1.54-.116-4.856-1.175-7.016-2.344-2.16-1.168-.333-2.9 1.89-2.9zm13.238 0c2.132 0 3.332 2.337 1.16 3.535-2.17 1.198-6.636 2.102-6.078 1.708 0 0 2.786-5.243 4.918-5.243zM64 80c2 0 2-.955 2-2.185V65H56v15h8zM132 63.993c0-1.653 1.35-2.993 3.006-2.993h4.988c1.66 0 3.006 1.353 3.006 2.993v12.014c0 1.653-1.35 2.993-3.006 2.993h-4.988c-1.66 0-3.006-1.353-3.006-2.993V63.993zm0-13.987c0-1.66 1.35-3.006 3.006-3.006h4.988c1.66 0 3.006 1.35 3.006 3.006v4.988c0 1.66-1.35 3.006-3.006 3.006h-4.988c-1.66 0-3.006-1.35-3.006-3.006v-4.988zM146 50c0-1.657 1.35-3 3.006-3h4.988c1.66 0 3.006 1.342 3.006 3v7c0 1.657-1.35 3-3.006 3h-4.988c-1.66 0-3.006-1.342-3.006-3v-7zm0 15.997c0-1.655 1.35-2.997 3.006-2.997h4.988c1.66 0 3.006 1.342 3.006 2.997v6.006c0 1.655-1.35 2.997-3.006 2.997h-4.988c-1.66 0-3.006-1.342-3.006-2.997v-6.006zm14-15.994c0-1.658 1.35-3.003 3.006-3.003h4.988c1.66 0 3.006 1.342 3.006 3.003v7.994c0 1.658-1.35 3.003-3.006 3.003h-4.988c-1.66 0-3.006-1.342-3.006-3.003v-7.994zM160 67c0-1.657 1.35-3 3.006-3h4.988c1.66 0 3.006 1.336 3.006 3v13c0 1.657-1.35 3-3.006 3h-4.988c-1.66 0-3.006-1.336-3.006-3V67z" fill="#444"/>
    <path fill="#FFF" d="M236 48h33v30h-33z"/>
    <path d="M271.5 62.973v15.02c0 1.66-1.352 3.007-2.998 3.007h-32.004c-1.656 0-2.998-1.336-2.998-3.007v-15.02c-.213-.026-.43-.073-.645-.14l-.54-.172c-1.888-.596-2.807-2.527-2.05-4.32l4.347-10.285 5.388-.052-2.926 12.497c-.11.468-.308.884-.574 1.236V76.49c0 .846.672 1.51 1.5 1.51h14.668L268.5 64.716v-2.98c-.266-.352-.464-.768-.574-1.236L265 48.003l5.388.052 4.347 10.286c.757 1.793-.162 3.724-2.05 4.32l-.54.172c-.216.068-.432.115-.645.14zm-3 7.278v-1.618L257.336 78h1.93l9.234-7.75zm0 2.612v3.63c0 .832-.668 1.508-1.5 1.508h-4.624l6.124-5.138zM244.7 48h5.3l-.766 13.005c-.065 1.1-1.02 1.992-2.12 1.992h-.787c-1.837 0-3.16-1.48-2.95-3.31L244.7 48zm15.6 0H255l.766 13.005c.065 1.1 1.02 1.992 2.12 1.992h.787c1.837 0 3.16-1.48 2.95-3.31L260.3 48z" fill="#444"/>
    <path fill="#FFF" d="M333 50h41v29h-41z"/>
    <path d="M331 51c0-1.656 1.347-3 3.005-3h38.99c1.66 0 3.005 1.335 3.005 3v27c0 1.656-1.347 3-3.005 3h-38.99c-1.66 0-3.005-1.335-3.005-3V51zm3 1.49c0-.823.677-1.49 1.505-1.49h35.99c.83 0 1.505.667 1.505 1.49v24.02c0 .823-.677 1.49-1.505 1.49h-35.99c-.83 0-1.505-.667-1.505-1.49V52.49zM355 63h15v12h-15V63zm9-9h6v2h-6v-2zm0 3h6v1h-6v-1zm0 2h6v2h-6v-2zm-27-5h15v11h-15V54zm18 0h7v7h-7v-7zm-16 13h11v2h-11v-2zm0 6h11v2h-11v-2zm-2-3h15v2h-15v-2z" fill="#444"/>
    <g transform="translate(436 46)">
      <circle fill="#FFF" cx="22" cy="16" r="13"/>
      <path d="M21.916 24.555c-1.443 0-2.806-.332-4.027-.912l.01.015c-.758-.372-1.61-.58-2.51-.58-1.482 0-2.832.567-3.844 1.495v-.01c1.135-1.04 1.85-2.534 1.85-4.196 0-.72-.134-1.406-.375-2.04l.032.035c-.375-1.018-.59-2.113-.59-3.262 0-5.22 4.23-9.454 9.454-9.454 5.223 0 9.456 4.233 9.456 9.454 0 5.222-4.233 9.455-9.456 9.455M21.662 0C13.184 0 6.307 6.874 6.307 15.355c0 3.09.923 5.962 2.493 8.37-1.774-.197-3.576-.25-5.383-.142l-.13.014c-.724.058-1.445.345-2.037.854-1.5 1.284-1.675 3.537-.392 5.036.8.938 1.985 1.355 3.122 1.225l.55-.07c.298-.043.6-.09.898-.14l-.018.005c-.166.48-.32.968-.462 1.456l-.08.442c-.13.974.137 2 .828 2.807 1.286 1.5 3.545 1.675 5.044.39.607-.517 1.01-1.195 1.177-1.917l.014-.075c.408-1.88.648-3.8.708-5.74.003-.036.003-.072.003-.108 2.535 1.846 5.65 2.948 9.022 2.948 8.48 0 15.354-6.873 15.354-15.353S30.143 0 21.662 0zm2.11 11.956l-.208.326c-.113.18-.222.36-.328.54-.178-.315-.37-.614-.566-.91l-.196-.24c-.46-.51-1.127-.826-1.868-.82-1.378.008-2.486 1.133-2.475 2.51.002.556.185 1.074.493 1.488l.033.043c1.307 1.695 2.865 3.21 4.638 4.48l.146-.104c1.645-1.246 3.125-2.725 4.383-4.41l.053-.075c.293-.412.463-.925.458-1.468-.01-1.376-1.13-2.48-2.504-2.47-.86.005-1.613.446-2.06 1.11z" fill="#444"/>
    </g>
    <g transform="translate(.1 224.8)">
      <ellipse fill="#B5B7B9" cx="54.279" cy="18.895" rx="3.851" ry="3.905"/>
      <path d="M125.642 48.53c-1.03 0-2.34.686-3.417.686-4.026 0-5.477-5.848-6.6-8.634 3.744-1.554 7.115-4.112 7.115-8.178 0-2.786-2.294-7.4-8.894-7.4-5.805 0-8.614 3.243-11.516 7.812V3.35c0-1.553-1.405-2.375-2.856-2.375-1.545 0-3.043.868-3.043 2.604v45.773h-.373c-1.03 0-1.545.502-2.482.502-3.136 0-3.745-2.65-3.745-5.847 0-3.06.422-5.162.422-8.77 0-5.53-1.64-10.143-8.286-10.143-5.805 0-8.614 2.74-11.516 7.31v-4.752c0-1.553-1.405-2.375-2.856-2.375-1.545 0-3.043.868-3.043 2.604v21.516c-.233-.045-.42-.045-.654-.045-.75 0-1.545.502-2.48.502-3.138 0-3.933-2.65-3.933-5.847v-16.31c0-1.552-1.405-2.374-2.856-2.374-1.545 0-3.136.868-3.136 2.603v17.45c0 4.844 3.043 9.183 8.286 9.183 1.358 0 3.7-.41 5.15-1.416.562.73 1.78 1.097 2.715 1.097 1.64 0 2.857-1.004 2.857-2.238v-5.208c0-8.13 5.15-16.126 9.877-16.126 3.324 0 4.026 3.244 4.026 5.985 0 2.97-.702 5.162-.702 8.77 0 4.843 3.043 9.183 8.286 9.183 1.264 0 3.37-.365 4.775-1.188.56.823 1.824 1.188 2.76 1.188 1.64 0 2.856-1.005 2.856-2.238v-7.72c0-5.665 5.712-15.03 10.955-15.03 2.107 0 3.84 1.325 3.84 3.106 0 2.193-2.622 4.02-4.26 4.02-1.826 0-4.073-1.233-5.29-1.233-.656 0-1.92.23-1.92 1.69 0 1.51.42 2.88 3.183 3.656.703 1.187 3.558 6.715 4.26 7.81 1.732 2.925 4.026 5.53 7.77 5.53 2.623 0 6.087-.686 6.087-3.93-.047-1.37-.562-1.736-1.358-1.736zM172.897 54.666c-4.914 0-7.835-4.264-7.835-9.02V28.5c0-1.706 1.505-2.558 2.966-2.558 1.372 0 2.7.808 2.7 2.334v16.022c0 3.097.797 5.745 3.718 5.745.886 0 1.638-.493 2.346-.493.974 0 2.17.314 2.17 1.705.044 2.514-4.073 3.41-6.065 3.41m-1.107-35.77c0 2.155-1.726 3.905-3.85 3.905-2.126 0-3.852-1.75-3.852-3.905 0-2.154 1.726-3.904 3.85-3.904 2.126 0 3.852 1.75 3.852 3.905" fill="#B5B7B9"/>
      <path d="M144.892 21.32c-7.924 0-14.343 6.507-14.343 14.54 0 2.783.796 5.43 2.124 7.63-1.15-.044-2.435-.044-3.674-.09 0 0-3.85-.313-4.383 3.187 0 0-.31 4.713 5.135 3.456-1.992 5.296 2.7 5.61 2.7 5.61 3.586-.18 3.675-3.994 3.675-3.994.133-1.347.265-2.74.398-3.95 2.346 1.705 5.224 2.737 8.367 2.737 7.924 0 14.342-6.508 14.342-14.54 0-8.035-6.463-14.588-14.342-14.588zm.22 23.248c-1.37 0-2.7-.314-3.85-.898-.664-.314-1.417-.494-2.213-.494-1.374 0-2.658.54-3.587 1.437 1.062-.988 1.726-2.38 1.726-3.995 0-.673-.134-1.346-.355-1.93-.354-.942-.53-1.975-.53-3.052 0-4.937 3.94-8.93 8.808-8.93 4.87 0 8.81 3.993 8.81 8.93 0 4.892-3.94 8.932-8.81 8.932z" fill="#F0648F"/>
      <path d="M146.353 33.482c-1.77-3.546-3.984-1.167-3.984-1.167-1.55 1.885.353 3.86.353 3.86 1.726 2.02 3.585 3.41 3.585 3.456 0 0 1.86-1.436 3.586-3.455 0 0 1.903-1.975.354-3.86.09 0-2.17-2.38-3.895 1.167zM8.41 16.023C4.34 8.663.178 7.003.045 6.013c-.31-2.647 1.15-3.948 2.656-4.128 3.674-.45 6.242 2.693 8.942 6.732 2.922-4.308 6.862-7.36 12.262-8.034 10.36-1.256 19.876 5.7 21.16 16.068 1.372 10.907-7.127 20.333-17.707 21.634-2.302.27-5.09-.045-5.445-2.648-.177-1.436.53-2.738 2.08-2.917.31-.046 1.24.09 2.967-.136 6.063-.718 13.19-6.553 12.172-14.9-.84-6.867-7.57-12.03-14.387-11.176-4.692.583-7.746 4.13-10.004 8.213 3.542 8.394 5.756 18.044 6.597 24.956.797 6.463.62 16.785-6.153 17.19-5.71.358-8.588-4.49-9.695-13.15 0 0-1.772-14.184 2.744-27.38l.177-.313zm3.454 6.014C9.517 34.514 10.447 39.45 11.2 45.465c.354 2.873 1.15 5.835 3.054 5.61 1.903-.224 2.435-2.692 1.682-10.636-.575-6.15-2.744-14.364-4.072-18.403z" fill="#F0648F"/>
    </g>
    <use fill="#FFF" xlink:href="#a"/>
    <use stroke="#FFF" mask="url(#h)" stroke-width="4" xlink:href="#a"/>
    <use fill="#FFF" xlink:href="#b"/>
    <use stroke="#FFF" mask="url(#i)" stroke-width="4" xlink:href="#b"/>
    <path d="M4.576 313.98c-1.03-1.202-2.662-4.103-.54-6.43.018-.022.033-.047.052-.068.05-.056 1.178-1.136 2.825-.963 1.176.122 2.22.87 3.1 1.98.88-1.1 1.924-1.837 3.098-1.965 1.737-.19 2.764.89 2.813.945.017.02.032.04.05.06 2.103 2.438.49 5.196-.53 6.43-1.372 1.574-3.108 3.307-4.89 4.783l-.046.038c-.14.135-.404.21-.508.21-.106 0-.404-.106-.51-.208-.822-.676-2.93-2.5-4.914-4.812z" fill="url(#j)"/>
    <path d="M4.576 330.02c-1.03 1.202-2.662 4.103-.54 6.43.018.022.033.047.052.068.05.056 1.178 1.136 2.825.963 1.176-.122 2.22-.87 3.1-1.98.88 1.1 1.924 1.837 3.098 1.965 1.737.19 2.764-.89 2.813-.945.017-.02.032-.04.05-.06 2.103-2.438.49-5.196-.53-6.43-1.372-1.574-3.108-3.307-4.89-4.783l-.046-.038c-.14-.135-.404-.21-.508-.21-.106 0-.404.106-.51.208-.822.676-2.93 2.5-4.914 4.812z" fill="url(#k)"/>
    <path d="M5.046 343h10.91l-5.452 4.816L5.046 343zm12.954.58V353H3v-9.42l6.908 6.096c.338.3.846.3 1.184 0L18 343.58zm-18-1.586c0-1.1.902-1.994 1.995-1.994h17.01c1.102 0 1.995.895 1.995 1.994v12.012c0 1.1-.902 1.994-1.995 1.994H1.995C.893 356 0 355.105 0 354.006v-12.012z" fill="#444"/>
    <path d="M5.046 359h10.91l-5.452 4.816L5.046 359zm12.954.58V369H3v-9.42l6.908 6.096c.338.3.846.3 1.184 0L18 359.58zm-18-1.586c0-1.1.902-1.994 1.995-1.994h17.01c1.102 0 1.995.895 1.995 1.994v12.012c0 1.1-.902 1.994-1.995 1.994H1.995C.893 372 0 371.105 0 370.006v-12.012z" fill="#3D89C8"/>
    <g transform="translate(0 372)">
      <use fill="url(#l)" xlink:href="#c"/>
      <use fill="#000" filter="url(#m)" xlink:href="#c"/>
      <use stroke="url(#n)" mask="url(#o)" stroke-width="2" xlink:href="#c"/>
      <path fill="url(#p)" d="M15 14h1v2h-1zM0 14h1v2H0z"/>
      <use stroke="url(#q)" mask="url(#r)" stroke-width="2" fill="url(#s)" xlink:href="#d"/>
      <use stroke="url(#q)" mask="url(#t)" stroke-width="2" fill="url(#s)" xlink:href="#e"/>
      <use stroke="url(#q)" mask="url(#u)" stroke-width="2" fill="url(#s)" transform="matrix(-1 0 0 1 4 0)" xlink:href="#f"/>
      <path fill="url(#v)" d="M10 0h2v9h-2zM4 0h2v9H4z"/>
      <use fill="url(#w)" xlink:href="#x"/>
      <use fill="#000" filter="url(#y)" xlink:href="#x"/>
      <path fill="url(#z)" d="M12 9h1v6h-1zM3 9h1v6H3z"/>
    </g>
  </g>
</svg>
