<svg width="72" height="72" viewBox="0 0 72 72" fill="none" xmlns="http://www.w3.org/2000/svg">
<path fill-rule="evenodd" clip-rule="evenodd" d="M33 56C46.2548 56 57 45.2548 57 32C57 18.7452 46.2548 8 33 8C19.7452 8 9 18.7452 9 32C9 45.2548 19.7452 56 33 56Z" stroke="#52AE30" stroke-width="2" stroke-linecap="round" stroke-linejoin="round"/>
<path opacity="0.5" d="M50.854 10.4297C46.0077 6.41386 39.7857 4 33 4" stroke="#52AE30" stroke-width="2" stroke-linecap="round" stroke-linejoin="round"/>
<path opacity="0.5" d="M24.0105 5.47412C12.9561 9.21916 5 19.6804 5 31.9999C5 39.8013 8.19057 46.8576 13.338 51.935" stroke="#52AE30" stroke-width="2" stroke-linecap="round" stroke-linejoin="round"/>
<path fill-rule="evenodd" clip-rule="evenodd" d="M51.1006 48.272L66.5001 63.6715C67.2811 64.4525 67.2811 65.7188 66.5001 66.4999V66.4999C65.719 67.2809 64.4527 67.2809 63.6717 66.4999L48.2722 51.1004L51.1006 48.272Z" stroke="#52AE30" stroke-width="2" stroke-linecap="round" stroke-linejoin="round"/>
<path opacity="0.3" fill-rule="evenodd" clip-rule="evenodd" d="M59 35C59 48.2548 48.2548 59 35 59C21.7452 59 11 48.2548 11 35C11 21.7452 21.7452 11 35 11C48.2548 11 59 21.7452 59 35ZM37.7039 41.4456C39.4962 42.1625 41.4065 42.9975 43.1637 43.8346C43.1637 43.8346 38.3865 47.2375 33.4687 47.2375C27.4582 47.2375 23.4971 43.8368 23.4971 43.8368C25.2565 42.9996 27.1668 42.1625 28.9612 41.4456V37.0743C28.9612 37.0743 26.7756 36.3093 26.7756 31.6101C25.2565 31.6101 24.5899 27.2388 26.7756 27.2388C26.7756 27.1121 26.6334 26.7769 26.4439 26.3299C25.6918 24.5565 24.1937 21.024 27.8684 21.7746C28.9612 17.4033 39.8896 17.4033 40.9824 21.7746C41.4698 23.7239 40.6553 25.5569 40.2142 26.5496C40.0657 26.8837 39.9595 27.1226 39.9595 27.2388C42.0753 27.2388 41.4086 31.6101 39.8896 31.6101C39.8896 36.3093 37.7039 37.0743 37.7039 37.0743V41.4456Z" fill="#52AE30"/>
<path fill-rule="evenodd" clip-rule="evenodd" d="M43.1637 43.8346C41.4065 42.9975 39.4962 42.1625 37.7039 41.4456V37.0743C37.7039 37.0743 39.8896 36.3093 39.8896 31.6101C41.4086 31.6101 42.0753 27.2388 39.9595 27.2388C39.9595 26.7776 41.6338 24.3799 40.9824 21.7746C39.8896 17.4033 28.9612 17.4033 27.8684 21.7746C23.2676 20.8348 26.7756 26.6093 26.7756 27.2388C24.5899 27.2388 25.2565 31.6101 26.7756 31.6101C26.7756 36.3093 28.9612 37.0743 28.9612 37.0743V41.4456C27.1668 42.1625 25.2565 42.9996 23.4971 43.8368C23.4971 43.8368 27.4582 47.2375 33.4687 47.2375C38.3865 47.2375 43.1637 43.8346 43.1637 43.8346Z" stroke="#52AE30" stroke-width="2" stroke-linecap="round" stroke-linejoin="round"/>
</svg>
