<svg width="165" height="32" viewBox="0 0 165 32" fill="none" xmlns="http://www.w3.org/2000/svg">
<path d="M54.7238 16.2954C53.4079 23.8147 48.7406 24.7546 44.7876 24.7546C40.8346 24.7546 37.2683 22.0691 38.3103 16.2578C39.1052 11.7193 41.8014 7.51928 48.3378 7.83616C52.9246 8.05637 55.6154 11.193 54.7238 16.2954ZM47.5805 11.0802C46.1411 11.0802 44.5137 11.8106 43.5738 16.2685C42.5318 21.2259 44.6104 21.5428 45.6201 21.5428C46.5385 21.5428 48.4936 21.0433 49.4657 16.2954C50.1478 12.9761 49.6053 11.0802 47.5805 11.0802Z" fill="white"/>
<path d="M64.6765 24.1101L64.4294 24.3571C63.5226 24.5376 62.6033 24.6489 61.6795 24.6901C59.37 24.6901 55.981 24.341 57.415 18.5136C58.3818 14.5767 59.08 11.6334 59.08 11.6334L56.9316 11.6925L56.749 11.4454L57.6352 8.35716L57.8501 8.20677H59.8695L60.7557 4.25914L60.9706 4.0443C63.264 3.50721 63.8762 3.37294 65.987 2.76065L66.1696 2.94326L64.8269 8.26585L67.942 8.20677L68.0656 8.42161C67.6359 9.70526 67.5285 10.0329 67.1203 11.4777L66.8732 11.6925L64.0589 11.6334C64.0589 11.6334 63.4895 14.002 62.6893 17.3105C61.8245 20.8822 62.2811 20.6995 63.1458 21.0701C63.8816 21.3602 64.8538 20.9842 65.407 20.8016L65.5896 20.9574L64.6765 24.1101Z" fill="white"/>
<path d="M75.7306 9.3347C76.9022 8.41571 78.34 7.90124 79.8287 7.86844C82.8847 7.86844 84.9364 10.1618 84.9364 14.045C84.9274 16.4892 84.097 18.8594 82.5786 20.7748C79.5708 24.4753 75.7306 24.4485 72.5081 24.4485L70.7679 31.7583L70.5531 31.9087C69.8495 31.9087 69.1781 31.9087 68.4745 31.9087C67.4325 31.9087 66.5141 31.9678 65.3862 32L65.2305 31.7852C65.2305 31.7852 66.3047 28.5626 67.6474 22.9715C69.0599 17.1225 70.3758 10.2692 70.4886 8.8728L70.7034 8.65796L75.9347 7.80399L76.1173 8.01882L75.7306 9.3347ZM73.2654 21.0541C74.7352 21.2139 76.209 20.7895 77.3688 19.8725C78.108 19.1585 78.6948 18.3021 79.0936 17.3549C79.4924 16.4078 79.6949 15.3896 79.689 14.3619C79.689 11.7946 78.0401 11.4884 77.4278 11.4884C76.62 11.5499 75.851 11.8594 75.2258 12.3746L73.2654 21.0541Z" fill="white"/>
<path fill-rule="evenodd" clip-rule="evenodd" d="M0 15.1084C-4.04731e-06 11.1051 1.58882 7.2655 4.41755 4.43274C7.24629 1.59998 11.0837 0.00569254 15.0869 0V5.45686C13.1726 5.45689 11.3013 6.02527 9.71032 7.08996C8.11934 8.15465 6.88027 9.66772 6.15015 11.4374C5.42003 13.2071 5.23174 15.1536 5.60914 17.0304C5.98655 18.9072 6.91265 20.6297 8.27008 21.9796C9.6275 23.3295 11.3551 24.246 13.234 24.6129C15.1129 24.9799 17.0584 24.7808 18.824 24.0408C20.5895 23.3008 22.0957 22.0533 23.1515 20.4564C24.2073 18.8596 24.7652 16.9852 24.7546 15.0708H30.2168C30.2218 19.0778 28.6348 22.9227 25.805 25.7596C22.9751 28.5965 19.1342 30.1931 15.1272 30.198C11.1202 30.203 7.27535 28.616 4.43845 25.7862C1.60154 22.9563 0.0049856 19.1154 0 15.1084H0Z" fill="white"/>
<path d="M19.792 6.61698C19.7931 5.85769 20.0192 5.11575 20.4418 4.48494C20.8644 3.85412 21.4645 3.36275 22.1663 3.07292C22.8681 2.78308 23.6401 2.7078 24.3847 2.85658C25.1293 3.00536 25.813 3.37153 26.3495 3.90881C26.8861 4.44608 27.2513 5.13035 27.399 5.87513C27.5468 6.61992 27.4704 7.39178 27.1796 8.09317C26.8888 8.79457 26.3966 9.39401 25.7652 9.81574C25.1338 10.2375 24.3915 10.4626 23.6322 10.4626C23.1275 10.4626 22.6276 10.3631 22.1614 10.1697C21.6951 9.97641 21.2715 9.69306 20.9149 9.33589C20.5582 8.97873 20.2754 8.55475 20.0828 8.08821C19.8901 7.62168 19.7913 7.12173 19.792 6.61698Z" fill="white"/>
<path d="M8.44336 15.1084C8.44336 13.7827 8.83648 12.4868 9.573 11.3845C10.3095 10.2822 11.3564 9.42308 12.5812 8.91575C13.806 8.40842 15.1537 8.27568 16.454 8.53432C17.7542 8.79295 18.9485 9.43134 19.886 10.3688C20.8234 11.3062 21.4618 12.5005 21.7204 13.8008C21.979 15.101 21.8463 16.4487 21.339 17.6735C20.8316 18.8983 19.9725 19.9452 18.8702 20.6817C17.7679 21.4182 16.472 21.8114 15.1463 21.8114C13.3686 21.8114 11.6636 21.1052 10.4066 19.8481C9.14956 18.5911 8.44336 16.8862 8.44336 15.1084Z" fill="white"/>
<path d="M100.35 24.4968C99.276 24.4968 98.5509 24.4968 97.4767 24.5881L97.3586 24.3733L97.6003 23.2132C96.356 24.2215 94.803 24.7714 93.2015 24.7707C89.5385 24.7707 87.4277 22.0208 87.4277 18.6586C87.4776 16.6979 88.0325 14.7832 89.039 13.0997C91.6063 9.03391 95.6399 8.5183 98.7067 8.5183C99.4694 8.5183 100.017 8.54515 100.785 8.6096C101.859 3.63076 102.064 2.55657 102.278 1.03123L102.525 0.81639C103.745 0.633778 104.572 0.483392 105.791 0.279297L105.947 0.461908C104.572 5.62337 101.333 19.8939 100.576 24.3249L100.35 24.4968ZM100.259 10.9621C99.7959 10.8846 99.3262 10.854 98.8571 10.8708C94.7 10.8708 92.6536 12.67 91.5526 14.9956C91.0704 16.019 90.8035 17.1304 90.7685 18.2612C90.7685 20.5223 92.0199 22.327 94.555 22.327C95.2908 22.327 97.2404 21.7899 98.0407 20.8016L100.259 10.9621Z" fill="white"/>
<path d="M107.349 24.5237C106.157 24.5237 105.303 24.5559 104.126 24.6203L103.971 24.4324C104.948 20.8929 107.118 10.8063 107.274 9.15744L107.489 8.9426C108.74 8.79221 109.594 8.66868 110.819 8.45384L110.969 8.66868C110.819 8.63646 108.284 20.2806 107.58 24.3733L107.349 24.5237ZM111.716 4.39342C110.523 4.54381 109.701 4.63511 108.493 4.81773L108.31 4.57603C108.552 3.53945 108.735 2.80363 108.95 1.76704L109.223 1.5522C110.416 1.39645 111.243 1.30514 112.403 1.12253L112.65 1.33737C112.371 2.3471 112.188 3.10977 111.947 4.14636L111.716 4.39342Z" fill="white"/>
<path d="M114.342 24.5559C113.155 24.5559 112.328 24.5881 111.167 24.6203L111.012 24.4324C112.295 19.6361 114.041 11.757 114.342 9.15744L114.557 8.94261C115.781 8.79222 116.667 8.66869 117.86 8.40551L118.01 8.61498C117.768 9.50118 117.58 10.2961 117.339 11.3004C117.795 10.5378 119.143 8.27661 121.308 8.27661C121.799 8.25404 122.286 8.36939 122.715 8.60961L122.806 8.8889C122.35 9.96308 122.044 10.7526 121.614 11.8805L121.308 11.9718C120.933 11.7068 120.488 11.5591 120.029 11.5475C119.202 11.5475 117.306 11.9718 116.361 15.9463C116.087 17.1064 114.863 22.3592 114.589 24.3142L114.342 24.5559Z" fill="white"/>
<path d="M134.811 23.7019C133.293 24.5537 131.571 24.9752 129.832 24.9211C124.606 24.9211 122.742 21.806 122.742 18.2934C122.742 12.9225 126.013 8.33569 131.298 8.33569C134.902 8.33569 137.469 9.98457 137.469 14.045C137.449 14.9829 137.326 15.9157 137.104 16.8271L136.889 16.9775C135.278 16.9775 132.399 16.9507 129.741 16.9507C128.366 16.9507 127.356 16.9507 125.981 17.0097C125.919 17.4456 125.889 17.8854 125.89 18.3256C125.89 22.327 129.37 22.4183 130.471 22.4183C133.006 22.4183 134.322 21.4408 135.514 20.5868L135.756 20.7372C135.423 21.7469 135.219 22.4505 134.961 23.4871L134.811 23.7019ZM134.413 14.813C134.506 14.3694 134.556 13.918 134.564 13.4649C134.505 10.6882 132.211 10.4733 131.422 10.4733C127.904 10.4733 126.717 13.6959 126.378 14.8399C126.351 14.8399 132.431 14.813 134.386 14.813H134.413Z" fill="white"/>
<path d="M150.977 24.5236H150.273C149.296 24.5236 148.592 24.5559 147.588 24.5881L147.346 24.4323C146.03 21.4085 144.537 18.3524 143.097 15.5434C142.329 18.6317 141.9 21.0433 141.255 24.341L141.04 24.5236C140.337 24.5559 139.085 24.5559 137.958 24.5881L137.834 24.4323C138.371 21.8382 142.077 7.11108 142.963 0.99897L143.178 0.789504C144.429 0.633747 145.326 0.483361 146.508 0.252411L146.691 0.467248C146.358 1.84221 146.051 2.78749 143.178 15.0977C144.22 14.2759 148.463 9.93619 149.505 8.8083L149.838 8.65254C150.3 8.68477 150.789 8.68477 151.245 8.68477C152.04 8.68477 152.561 8.65254 153.356 8.62031L153.447 8.8996C151.734 10.4249 150.391 11.5582 146.417 15.2212C147.915 18.1269 150.359 22.7083 151.154 24.2336L150.977 24.5236Z" fill="white"/>
<path d="M160.387 24.4968C159.666 24.6733 158.927 24.7652 158.184 24.7707C155.284 24.7707 154.548 23.2722 154.548 21.7469C154.548 20.5868 155.193 17.8959 156.079 14.2276L156.831 11.0211H156.219C155.639 11.0211 155.214 11.0211 154.607 11.0534L154.457 10.8385C154.672 10.1349 154.822 9.5871 154.994 8.82443L155.209 8.66867C156.004 8.7009 156.525 8.7009 157.32 8.7009C157.685 7.29372 157.857 6.28398 158.141 4.88217L158.356 4.66733C159.549 4.42027 160.376 4.21081 161.536 3.90466L161.686 4.08727C161.445 4.9144 161.289 5.52131 161.074 6.34843L160.537 8.7009C161.794 8.7009 162.648 8.7009 163.867 8.63645L164.023 8.85129C163.749 9.5871 163.593 10.1349 163.378 10.8708L163.169 11.0534C162.003 11.0211 161.181 11.0211 160.021 11.0211L158.367 17.9282C158.101 18.9517 157.907 19.9927 157.787 21.0433C157.787 22.0208 158.491 22.3592 159.286 22.3592C159.905 22.3299 160.515 22.1955 161.09 21.9617L161.241 22.1121C160.999 22.907 160.816 23.4548 160.601 24.2605L160.387 24.4968Z" fill="white"/>
</svg>
