<svg width="34" height="26" viewBox="0 0 34 26" fill="none" xmlns="http://www.w3.org/2000/svg">
<path d="M6.76315 25.7978V24.08C6.77314 23.9356 6.7523 23.7906 6.70201 23.6549C6.65172 23.5191 6.57313 23.3956 6.47149 23.2927C6.36986 23.1898 6.24749 23.1097 6.11256 23.0579C5.97763 23.006 5.83322 22.9836 5.68897 22.9921C5.50014 22.9797 5.31146 23.0183 5.14261 23.1039C4.97376 23.1895 4.83094 23.319 4.72906 23.4788C4.63619 23.3238 4.50331 23.1968 4.34442 23.1111C4.18554 23.0254 4.00653 22.9843 3.82628 22.9921C3.66916 22.9841 3.51269 23.0175 3.37238 23.0888C3.23207 23.1601 3.11279 23.2669 3.02636 23.3986V23.0608H2.43213V25.7978H3.03207V24.2919C3.01931 24.1983 3.02734 24.103 3.05559 24.0129C3.08383 23.9228 3.1316 23.84 3.19547 23.7705C3.25933 23.7011 3.33773 23.6466 3.42505 23.611C3.51237 23.5754 3.60645 23.5596 3.70058 23.5647C4.09483 23.5647 4.29481 23.8224 4.29481 24.2862V25.8093H4.89476V24.2919C4.88252 24.1984 4.89091 24.1033 4.91935 24.0134C4.94779 23.9235 4.99557 23.841 5.05933 23.7716C5.1231 23.7023 5.20127 23.6478 5.28835 23.612C5.37542 23.5763 5.46927 23.5601 5.56326 23.5647C5.96894 23.5647 6.16321 23.8224 6.16321 24.2862V25.8093L6.76315 25.7978ZM15.6395 23.0608H14.6624V22.2305H14.0625V23.0608H13.5197V23.6048H14.0739V24.8645C14.0739 25.5001 14.3196 25.878 15.0224 25.878C15.2849 25.8789 15.5424 25.8054 15.7652 25.6661L15.5938 25.1565C15.4344 25.2518 15.2535 25.3049 15.0681 25.3111C14.7824 25.3111 14.6738 25.1279 14.6738 24.853V23.6048H15.6452L15.6395 23.0608ZM20.7076 22.9921C20.5627 22.9878 20.4193 23.0228 20.2926 23.0933C20.1659 23.1639 20.0606 23.2674 19.9876 23.3929V23.0608H19.3991V25.7978H19.9933V24.2633C19.9933 23.8109 20.1876 23.559 20.5647 23.559C20.6918 23.5572 20.818 23.5806 20.9361 23.6277L21.119 23.0551C20.9832 23.0064 20.8403 22.9813 20.6961 22.9806L20.7076 22.9921ZM13.0454 23.2784C12.7091 23.078 12.3223 22.9786 11.9312 22.9921C11.2399 22.9921 10.7885 23.3242 10.7885 23.8682C10.7885 24.3148 11.1199 24.5896 11.7313 24.6755L12.0169 24.7156C12.3426 24.7614 12.4969 24.8473 12.4969 25.0019C12.4969 25.2138 12.2798 25.334 11.8741 25.334C11.5478 25.3435 11.2278 25.2426 10.9656 25.0477L10.6799 25.5115C11.0261 25.7537 11.4407 25.8782 11.8627 25.8665C12.6512 25.8665 13.1083 25.4943 13.1083 24.9733C13.1083 24.4522 12.7483 24.2403 12.1541 24.1545L11.8684 24.1144C11.6113 24.08 11.4056 24.0285 11.4056 23.8453C11.4056 23.662 11.5998 23.5246 11.9255 23.5246C12.2265 23.5281 12.5216 23.6089 12.7826 23.7594L13.0454 23.2784ZM28.9611 22.9921C28.8162 22.9878 28.6728 23.0228 28.5461 23.0933C28.4194 23.1639 28.3141 23.2674 28.2411 23.3929V23.0608H27.6526V25.7978H28.2469V24.2633C28.2469 23.8109 28.4411 23.559 28.8182 23.559C28.9453 23.5572 29.0715 23.5806 29.1896 23.6277L29.3725 23.0551C29.2368 23.0064 29.0938 22.9813 28.9496 22.9806L28.9611 22.9921ZM21.3046 24.4236C21.2976 24.6159 21.3307 24.8076 21.4018 24.9864C21.4729 25.1652 21.5804 25.3272 21.7176 25.4619C21.8547 25.5966 22.0184 25.7012 22.1982 25.7689C22.378 25.8366 22.5699 25.866 22.7617 25.8551C23.1184 25.8733 23.4691 25.7568 23.7444 25.5287L23.4587 25.0477C23.2533 25.2047 23.0028 25.291 22.7445 25.2939C22.5249 25.2761 22.32 25.1761 22.1705 25.0138C22.0211 24.8514 21.9382 24.6387 21.9382 24.4179C21.9382 24.197 22.0211 23.9843 22.1705 23.8219C22.32 23.6596 22.5249 23.5596 22.7445 23.5418C23.0028 23.5447 23.2533 23.631 23.4587 23.788L23.7444 23.307C23.4691 23.0789 23.1184 22.9625 22.7617 22.9806C22.5699 22.9698 22.378 22.9991 22.1982 23.0668C22.0184 23.1345 21.8547 23.2391 21.7176 23.3738C21.5804 23.5086 21.4729 23.6705 21.4018 23.8493C21.3307 24.0281 21.2976 24.2198 21.3046 24.4121V24.4236ZM26.8698 24.4236V23.0608H26.2756V23.3929C26.1747 23.2628 26.0444 23.1586 25.8953 23.0889C25.7463 23.0192 25.5829 22.986 25.4186 22.9921C25.0397 22.9921 24.6764 23.1429 24.4085 23.4114C24.1406 23.6798 23.9901 24.0439 23.9901 24.4236C23.9901 24.8032 24.1406 25.1673 24.4085 25.4358C24.6764 25.7042 25.0397 25.8551 25.4186 25.8551C25.5829 25.8611 25.7463 25.828 25.8953 25.7583C26.0444 25.6886 26.1747 25.5844 26.2756 25.4542V25.7864H26.8698V24.4236ZM24.6586 24.4236C24.6681 24.2625 24.7244 24.1077 24.8205 23.9782C24.9167 23.8487 25.0486 23.7503 25.1998 23.695C25.3511 23.6397 25.5153 23.6299 25.672 23.6669C25.8288 23.7039 25.9713 23.786 26.0821 23.9031C26.1929 24.0203 26.267 24.1673 26.2955 24.3262C26.3239 24.485 26.3054 24.6487 26.2422 24.7971C26.1789 24.9456 26.0737 25.0722 25.9396 25.1615C25.8054 25.2508 25.6482 25.2988 25.4871 25.2996C25.374 25.3011 25.2618 25.279 25.1576 25.2349C25.0534 25.1908 24.9594 25.1255 24.8816 25.0433C24.8038 24.961 24.7438 24.8634 24.7054 24.7568C24.6671 24.6501 24.6511 24.5367 24.6586 24.4236ZM17.4879 22.9921C17.109 22.9974 16.7478 23.1533 16.4837 23.4255C16.2195 23.6978 16.0741 24.064 16.0794 24.4436C16.0847 24.8233 16.2403 25.1853 16.5119 25.45C16.7836 25.7147 17.149 25.8604 17.5279 25.8551C17.9389 25.8762 18.3431 25.7436 18.662 25.4829L18.3764 25.042C18.1508 25.2233 17.8713 25.324 17.5821 25.3283C17.3857 25.3452 17.1904 25.2847 17.0379 25.1596C16.8853 25.0345 16.7874 24.8546 16.7651 24.6583H18.7935C18.7935 24.5839 18.7935 24.5095 18.7935 24.4293C18.7935 23.5704 18.2621 22.9978 17.4964 22.9978L17.4879 22.9921ZM17.4879 23.5246C17.5768 23.5227 17.6652 23.5384 17.7481 23.5707C17.831 23.6031 17.9067 23.6515 17.9709 23.7132C18.0351 23.7749 18.0865 23.8486 18.1223 23.9302C18.158 24.0118 18.1774 24.0997 18.1792 24.1888H16.7508C16.7611 24.005 16.8429 23.8326 16.9785 23.7085C17.1141 23.5843 17.2929 23.5183 17.4764 23.5246H17.4879ZM32.375 24.4293V21.9614H31.8037V23.3929C31.7028 23.2628 31.5724 23.1586 31.4234 23.0889C31.2744 23.0192 31.1109 22.986 30.9466 22.9921C30.5678 22.9921 30.2044 23.1429 29.9365 23.4114C29.6687 23.6798 29.5182 24.0439 29.5182 24.4236C29.5182 24.8032 29.6687 25.1673 29.9365 25.4358C30.2044 25.7042 30.5678 25.8551 30.9466 25.8551C31.1109 25.8611 31.2744 25.828 31.4234 25.7583C31.5724 25.6886 31.7028 25.5844 31.8037 25.4542V25.7864H32.375V24.4293ZM33.3664 25.3999C33.4035 25.3994 33.4404 25.4062 33.4749 25.4199C33.5077 25.4333 33.5378 25.4527 33.5635 25.4772C33.5886 25.5018 33.6089 25.531 33.6235 25.563C33.638 25.5965 33.6454 25.6325 33.6454 25.669C33.6454 25.7054 33.638 25.7415 33.6235 25.7749C33.6089 25.807 33.5886 25.8361 33.5635 25.8608C33.5378 25.8852 33.5077 25.9046 33.4749 25.9181C33.4407 25.9332 33.4038 25.941 33.3664 25.941C33.3122 25.9405 33.2593 25.9247 33.2138 25.8953C33.1683 25.8659 33.132 25.8242 33.1093 25.7749C33.095 25.7414 33.0876 25.7054 33.0876 25.669C33.0876 25.6326 33.095 25.5965 33.1093 25.563C33.1238 25.531 33.1441 25.5018 33.1693 25.4772C33.195 25.4527 33.225 25.4333 33.2578 25.4199C33.295 25.4051 33.3349 25.3982 33.3749 25.3999H33.3664ZM33.3664 25.8837C33.3949 25.8839 33.4231 25.878 33.4492 25.8665C33.4738 25.8555 33.4961 25.84 33.5149 25.8207C33.5507 25.7816 33.5705 25.7306 33.5705 25.6776C33.5705 25.6246 33.5507 25.5735 33.5149 25.5344C33.4961 25.5151 33.4738 25.4995 33.4492 25.4886C33.4231 25.4772 33.3949 25.4713 33.3664 25.4714C33.3379 25.4716 33.3097 25.4774 33.2835 25.4886C33.2579 25.4992 33.2346 25.5147 33.215 25.5344C33.1792 25.5735 33.1594 25.6246 33.1594 25.6776C33.1594 25.7306 33.1792 25.7816 33.215 25.8207C33.2346 25.8403 33.2579 25.8559 33.2835 25.8665C33.3123 25.879 33.3436 25.8848 33.3749 25.8837H33.3664ZM33.3835 25.543C33.4102 25.5417 33.4365 25.5498 33.4578 25.5659C33.4665 25.5732 33.4734 25.5824 33.4779 25.5929C33.4824 25.6033 33.4843 25.6147 33.4835 25.626C33.4839 25.6355 33.4824 25.645 33.4789 25.6539C33.4755 25.6628 33.4702 25.6708 33.4635 25.6776C33.447 25.6926 33.4258 25.7017 33.4035 25.7033L33.4864 25.7978H33.4207L33.3435 25.7033H33.3178V25.7978H33.2635V25.5459L33.3835 25.543ZM33.3207 25.5917V25.6604H33.3835C33.3947 25.6637 33.4066 25.6637 33.4178 25.6604C33.4198 25.6564 33.4209 25.652 33.4209 25.6475C33.4209 25.643 33.4198 25.6386 33.4178 25.6346C33.4198 25.6306 33.4209 25.6262 33.4209 25.6217C33.4209 25.6173 33.4198 25.6128 33.4178 25.6088C33.4066 25.6055 33.3947 25.6055 33.3835 25.6088L33.3207 25.5917ZM30.1781 24.4293C30.1876 24.2682 30.2439 24.1134 30.34 23.9839C30.4362 23.8545 30.568 23.756 30.7193 23.7007C30.8706 23.6454 31.0347 23.6356 31.1915 23.6726C31.3483 23.7096 31.4908 23.7917 31.6016 23.9088C31.7124 24.026 31.7865 24.173 31.815 24.3319C31.8434 24.4907 31.8249 24.6544 31.7616 24.8029C31.6984 24.9513 31.5932 25.078 31.4591 25.1672C31.3249 25.2565 31.1676 25.3045 31.0066 25.3054C30.8935 25.3068 30.7813 25.2848 30.6771 25.2406C30.5729 25.1965 30.4789 25.1313 30.4011 25.049C30.3233 24.9667 30.2633 24.8692 30.2249 24.7625C30.1865 24.6559 30.1706 24.5424 30.1781 24.4293ZM10.1143 24.4293V23.0608H9.52004V23.3929C9.41912 23.2628 9.28878 23.1586 9.13976 23.0889C8.99074 23.0192 8.82731 22.986 8.66297 22.9921C8.28413 22.9921 7.9208 23.1429 7.65292 23.4114C7.38503 23.6798 7.23454 24.0439 7.23454 24.4236C7.23454 24.8032 7.38503 25.1673 7.65292 25.4358C7.9208 25.7042 8.28413 25.8551 8.66297 25.8551C8.82731 25.8611 8.99074 25.828 9.13976 25.7583C9.28878 25.6886 9.41912 25.5844 9.52004 25.4542V25.7864H10.1143V24.4293ZM7.90305 24.4293C7.91252 24.2682 7.96881 24.1134 8.06497 23.9839C8.16113 23.8545 8.29298 23.756 8.44426 23.7007C8.59555 23.6454 8.75968 23.6356 8.91644 23.6726C9.0732 23.7096 9.21574 23.7917 9.32652 23.9088C9.4373 24.026 9.51148 24.173 9.53991 24.3319C9.56835 24.4907 9.54981 24.6544 9.48658 24.8029C9.42334 24.9513 9.31817 25.078 9.18402 25.1672C9.04986 25.2565 8.89258 25.3045 8.73154 25.3054C8.61795 25.3076 8.50513 25.2862 8.40025 25.2424C8.29536 25.1986 8.2007 25.1335 8.12226 25.0511C8.04383 24.9687 7.98333 24.8709 7.94461 24.7639C7.90589 24.6569 7.88979 24.5429 7.89733 24.4293H7.90305Z" fill="#231F20"/>
<path d="M21.8474 2.20459H12.8483V18.4119H21.8474V2.20459Z" fill="#FF5F00"/>
<path d="M13.4197 10.3108C13.4181 8.74972 13.7709 7.2087 14.4514 5.80447C15.132 4.40024 16.1225 3.1696 17.3479 2.20575C15.8307 1.01081 14.0086 0.267742 12.0898 0.0614825C10.1711 -0.144777 8.23318 0.194088 6.49754 1.03935C4.76191 1.88461 3.29858 3.20217 2.27481 4.84143C1.25104 6.4807 0.70813 8.37554 0.70813 10.3094C0.70813 12.2432 1.25104 14.1381 2.27481 15.7773C3.29858 17.4166 4.76191 18.7342 6.49754 19.5794C8.23318 20.4247 10.1711 20.7636 12.0898 20.5573C14.0086 20.351 15.8307 19.608 17.3479 18.413C16.1229 17.4495 15.1326 16.2193 14.4521 14.8156C13.7715 13.4119 13.4185 11.8714 13.4197 10.3108Z" fill="#EB001B"/>
<path d="M33.9891 10.3093C33.989 12.2433 33.446 14.1383 32.422 15.7776C31.3981 17.4169 29.9345 18.7345 28.1987 19.5796C26.4628 20.4247 24.5247 20.7634 22.6059 20.5568C20.687 20.3503 18.8649 19.6069 17.3478 18.4115C18.5723 17.4471 19.5623 16.2166 20.243 14.8128C20.9238 13.409 21.2775 11.8687 21.2775 10.3079C21.2775 8.74713 20.9238 7.20674 20.243 5.80296C19.5623 4.39918 18.5723 3.16866 17.3478 2.20425C18.8649 1.00894 20.687 0.265514 22.6059 0.0589577C24.5247 -0.147598 26.4628 0.191049 28.1987 1.03619C29.9345 1.88133 31.3981 3.19887 32.422 4.83819C33.446 6.47751 33.989 8.37247 33.9891 10.3065V10.3093Z" fill="#F79E1B"/>
<path d="M33.0062 16.6938V16.3617H33.1405V16.293H32.8005V16.3617H32.9462V16.6938H33.0062ZM33.6662 16.6938V16.293H33.5633L33.4433 16.5793L33.3233 16.293H33.2319V16.6938H33.3062V16.3932L33.4176 16.6537H33.4948L33.6062 16.3932V16.6966L33.6662 16.6938Z" fill="#F79E1B"/>
</svg>
