<svg width="34" height="29" viewBox="0 0 34 29" fill="none" xmlns="http://www.w3.org/2000/svg">
<path d="M33.8637 17.5228C32.9797 12.3208 28.0325 8.81514 22.8132 9.69722L24.3546 0.981031L18.784 0C18.3024 1.04606 16.2056 5.82399 15.1855 11.2239C17.2625 12.6375 18.784 14.8568 19.2374 17.5285C19.7248 20.3755 18.8889 23.1404 17.1803 25.2099C17.5997 25.7188 18.0785 26.191 18.6254 26.615C20.8071 28.3198 23.4479 28.9842 26.0207 28.5488C31.2343 27.6639 34.7478 22.7248 33.8637 17.5228Z" fill="#054752"/>
<path d="M15.0728 11.8176L15.1861 11.2239C13.2084 9.87816 10.7319 9.26466 8.18748 9.69722L9.72889 0.978203L4.15546 0C3.65961 1.08564 1.42117 6.18021 0.452126 11.8176C-0.327077 16.3354 -0.290242 21.2038 2.1097 24.6247C2.62539 25.3598 3.24876 26.0298 3.99962 26.615C6.18139 28.3198 8.82218 28.9842 11.395 28.5488C13.7581 28.153 15.7698 26.9176 17.1837 25.2071C17.0279 25.0177 16.8777 24.8226 16.7389 24.6219C14.3304 21.1953 14.3021 16.3298 15.0756 11.8148L15.0728 11.8176Z" fill="#2DBEFF"/>
<path d="M19.2371 17.5229C18.7837 14.854 17.2622 12.6319 15.1852 11.2183L15.0719 11.812C14.2955 16.3355 14.3352 21.1982 16.7323 24.6191C16.874 24.8226 17.0213 25.0149 17.1772 25.2071C18.8857 23.1376 19.7216 20.3727 19.2371 17.5229Z" fill="#9EF769"/>
</svg>
