<svg width="9" height="12" viewBox="0 0 9 12" fill="none" xmlns="http://www.w3.org/2000/svg">
<path d="M7.87477 4.5H7.5V3C7.5 2.20435 7.18393 1.44129 6.62132 0.87868C6.05871 0.316071 5.29565 0 4.5 0C3.70435 0 2.94129 0.316071 2.37868 0.87868C1.81607 1.44129 1.5 2.20435 1.5 3V4.5H1.12523C0.826876 4.50024 0.540811 4.61887 0.329842 4.82984C0.118874 5.04081 0.000244453 5.32688 0 5.62523L0 10.8757C0.000488745 11.1739 0.119226 11.4597 0.330168 11.6705C0.54111 11.8813 0.827036 11.9998 1.12523 12H7.87477C8.17312 11.9998 8.45919 11.8811 8.67016 11.6702C8.88113 11.4592 8.99976 11.1731 9 10.8748V5.62523C8.99976 5.32688 8.88113 5.04081 8.67016 4.82984C8.45919 4.61887 8.17312 4.50024 7.87477 4.5ZM2.49969 3C2.49397 2.73376 2.54147 2.46906 2.6394 2.22142C2.73733 1.97378 2.88373 1.74819 3.07 1.55788C3.25627 1.36756 3.47866 1.21636 3.72414 1.11313C3.96962 1.0099 4.23324 0.956725 4.49954 0.956725C4.76584 0.956725 5.02946 1.0099 5.27494 1.11313C5.52042 1.21636 5.74281 1.36756 5.92908 1.55788C6.11535 1.74819 6.26174 1.97378 6.35967 2.22142C6.45761 2.46906 6.50511 2.73376 6.49938 3V4.5H2.49969V3Z" fill="#708C91"/>
</svg>
