<svg width="162" height="32" viewBox="0 0 162 32" fill="none" xmlns="http://www.w3.org/2000/svg">
<path d="M31.224 16.2259C30.4245 11.4078 25.8657 8.16696 21.0693 8.98797L22.4736 0.918242L17.3207 0C16.8886 0.972257 14.9441 5.40143 14.0042 10.3707C15.9163 11.6671 17.3207 13.7196 17.742 16.2043C18.1741 18.8294 17.4179 21.3896 15.8407 23.291C16.2296 23.7663 16.6725 24.1984 17.1694 24.5873C19.168 26.1645 21.5986 26.7803 23.9752 26.3806C28.8041 25.5812 32.045 21.0224 31.2132 16.2259H31.224Z" fill="#054752"/>
<path d="M13.9178 10.9325L14.0258 10.3923C12.1893 9.13921 9.92073 8.57746 7.56571 8.96637L8.97008 0.907439L3.82792 0C3.3742 1.00467 1.30005 5.72551 0.414221 10.9109C-0.298767 15.1024 -0.266359 19.5964 1.92662 22.7616C2.41275 23.4422 2.9853 24.058 3.67668 24.5981C5.68601 26.1753 8.12746 26.7911 10.5041 26.3914C12.6863 26.0349 14.5335 24.879 15.8407 23.3126L15.4302 22.7724C13.2264 19.618 13.194 15.124 13.9178 10.9433V10.9325Z" fill="#2DBEFF"/>
<path d="M17.7528 16.2259C17.3207 13.7412 15.9163 11.6887 14.015 10.3923L13.907 10.9325C13.2048 15.124 13.2372 19.618 15.441 22.7832L15.8407 23.3233C17.4179 21.3788 18.1957 18.8294 17.742 16.1935L17.7528 16.2259Z" fill="#9EF769"/>
<path d="M134.931 24.6305H131.863C131.755 24.6305 131.68 24.6845 131.647 24.7709C131.215 25.916 130.61 26.8667 129.746 27.5365C128.882 28.1846 127.769 28.5736 126.321 28.5736C124.345 28.5736 122.757 27.7093 121.676 26.2617C120.596 24.8034 119.991 22.7832 119.991 20.4714C119.991 18.138 120.585 16.1179 121.676 14.6811C122.757 13.2443 124.355 12.3801 126.321 12.3801C127.758 12.3801 128.86 12.7582 129.724 13.4171C130.589 14.0869 131.183 15.0376 131.626 16.1503C131.658 16.2367 131.734 16.3015 131.842 16.3015H134.921C134.964 16.3015 135.029 16.2799 135.061 16.2367C135.104 16.2043 135.126 16.1503 135.126 16.0855V16.0314C134.64 13.9573 133.635 12.2504 132.144 11.0621C130.653 9.87381 128.709 9.18243 126.289 9.18243C123.48 9.18243 120.996 10.3383 119.213 12.3153C117.431 14.303 116.35 17.1225 116.35 20.5038C116.35 23.8851 117.431 26.7155 119.213 28.6924C120.996 30.6909 123.48 31.8252 126.3 31.8252C128.72 31.8252 130.686 31.1554 132.187 29.9563C133.678 28.768 134.694 27.0395 135.158 24.933V24.879C135.158 24.8142 135.137 24.7709 135.093 24.7169C135.072 24.6845 135.007 24.6629 134.942 24.6629L134.931 24.6305ZM161.863 15.5345C161.647 15.4913 161.344 15.4481 160.923 15.4481C160.556 15.4481 160.102 15.4805 159.583 15.5777C159.151 15.6641 158.687 15.837 158.255 16.0747C157.823 16.3123 157.39 16.6364 157.002 17.0253C156.785 17.2414 156.569 17.5114 156.375 17.8139L156.235 18.03V15.9342C156.235 15.8046 156.127 15.6966 156.018 15.6966H153.08C152.972 15.6966 152.864 15.8046 152.864 15.9342V31.2743C152.864 31.3823 152.972 31.4903 153.08 31.4903H156.04C156.17 31.4903 156.278 31.3823 156.278 31.2743V23.8203C156.278 22.9561 156.386 22.2215 156.569 21.6165C156.764 21.0116 157.056 20.5362 157.434 20.1689C157.833 19.8016 158.276 19.5208 158.795 19.3371C159.4 19.1211 160.059 19.0562 160.631 19.0562C161.063 19.0562 161.496 19.0995 161.744 19.1427H161.776C161.906 19.1427 161.992 19.0562 161.992 18.9266V15.7722C162.025 15.6641 161.949 15.5561 161.83 15.5345H161.863ZM98.2016 9.16083H98.1476L95.1768 9.67936C95.0688 9.70097 94.9608 9.78739 94.9608 9.89542V31.2635C94.9608 31.3931 95.0688 31.5011 95.2092 31.5011H98.2016C98.3097 31.5011 98.4177 31.3931 98.4177 31.2635V9.39849C98.4177 9.26886 98.3097 9.16083 98.1692 9.16083H98.2016ZM92.0764 21.8434C91.6443 20.9575 91.0393 20.2013 90.2939 19.5748L90.0779 19.4127C89.7538 19.1643 89.3973 18.9374 89.0192 18.7646L88.9112 18.7105L88.9868 18.6349C89.3325 18.2352 89.635 17.7707 89.851 17.2738C90.1751 16.55 90.3372 15.8046 90.3372 15.0268C90.3372 14.1842 90.1643 13.4063 89.8402 12.6501C89.5161 11.8939 89.0516 11.2674 88.4683 10.7272C87.9281 10.2303 87.2799 9.84141 86.5454 9.56053C85.8108 9.27966 84.8925 9.12842 83.8122 9.12842H77.2657C77.1361 9.12842 77.028 9.23645 77.028 9.37688V31.2527C77.028 31.3823 77.1361 31.4903 77.2657 31.4903H85.3462C86.5021 31.4903 87.4636 31.3607 88.2414 31.1014C88.9976 30.8421 89.6998 30.4532 90.2939 29.9671C91.0285 29.3514 91.6335 28.5844 92.0764 27.6985C92.1844 27.4825 92.2601 27.2988 92.3357 27.1044L92.3681 27.0179L92.4221 26.8667C92.6382 26.1969 92.7678 25.4947 92.7678 24.7601C92.7462 23.7015 92.5193 22.7076 92.0656 21.8218L92.0764 21.8434ZM80.5174 12.4449H83.2613C84.1255 12.4449 84.7737 12.5205 85.2058 12.661C85.6163 12.823 85.9404 13.039 86.1781 13.3091C86.6426 13.8277 86.8802 14.4326 86.8802 15.1456C86.8802 15.837 86.6642 16.4419 86.1781 16.9605C85.9404 17.2306 85.6379 17.4466 85.2058 17.6087C84.9033 17.7167 84.4496 17.7815 83.9095 17.8247H80.485V12.4449H80.5174ZM88.9436 26.0133C88.7707 26.4454 88.5331 26.8127 88.2306 27.1368C87.8849 27.4609 87.4744 27.7417 86.9667 27.9362C86.4589 28.1198 85.7135 28.2279 84.7197 28.2279H80.5066V21.1304H84.7197C85.7135 21.1304 86.4481 21.2384 86.9559 21.4221C87.442 21.6165 87.8633 21.8866 88.1982 22.2215C88.5007 22.5456 88.7383 22.9129 88.922 23.3234C89.1056 23.7231 89.1921 24.1876 89.1921 24.6521C89.1921 25.1382 89.1056 25.592 88.922 26.0133H88.9436ZM112.494 16.9821C111.349 15.9342 109.771 15.4157 107.805 15.4157C106.034 15.4157 104.586 15.8478 103.484 16.712C102.512 17.4358 101.81 18.3649 101.432 19.4667C101.388 19.5748 101.464 19.7152 101.594 19.7368L104.381 20.2229C104.489 20.2446 104.565 20.1905 104.597 20.1149C105.169 18.851 106.239 18.2352 107.816 18.2352C108.896 18.2352 109.717 18.5269 110.301 19.1211C110.884 19.7152 111.165 20.5038 111.165 21.4977V22.0594C109.707 21.6273 108.313 21.4113 107.017 21.4113C105.18 21.4113 103.646 21.865 102.426 22.794C101.216 23.7231 100.589 25.0302 100.589 26.7047C100.589 28.3035 101.162 29.5566 102.274 30.4641C103.387 31.3715 104.727 31.8252 106.304 31.8252C108.313 31.8252 109.977 31.2419 111.187 30.0319V31.2419C111.187 31.3931 111.316 31.5119 111.457 31.5119H114.028C114.168 31.5119 114.287 31.4039 114.287 31.2527V21.2816C114.255 19.4451 113.671 18.0192 112.505 16.9821H112.494ZM109.88 27.7849C109.015 28.5087 107.967 28.8652 106.714 28.8652C105.796 28.8652 105.094 28.6492 104.597 28.2387C104.122 27.8282 103.873 27.2664 103.873 26.5534C103.873 25.7756 104.197 25.1923 104.802 24.8034C105.407 24.4145 106.207 24.2092 107.179 24.2092C108.4 24.2092 109.739 24.4253 111.176 24.8574C111.176 26.1213 110.744 27.0828 109.88 27.7741V27.7849ZM58.1231 9.16083H58.0798L55.0983 9.67936C54.9902 9.70097 54.8822 9.78739 54.8822 9.89542V31.2635C54.8822 31.3931 54.9902 31.5011 55.1307 31.5011H58.1231C58.2311 31.5011 58.3391 31.3931 58.3391 31.2635V9.39849C58.3391 9.26886 58.2311 9.16083 58.1014 9.16083H58.1231ZM51.9654 21.8434C51.5333 20.9575 50.95 20.2013 50.2046 19.5748L49.9885 19.4127C49.6644 19.1643 49.3079 18.9374 48.9298 18.7646L48.8218 18.7105L48.8974 18.6349C49.2431 18.2352 49.5456 17.7707 49.7616 17.2738C50.0857 16.55 50.2478 15.8046 50.2478 15.0268C50.2478 14.1842 50.0857 13.4063 49.7616 12.6501C49.4376 11.8939 48.973 11.2674 48.3897 10.7272C47.8495 10.2303 47.2014 9.84141 46.4884 9.56053C45.7538 9.27966 44.8355 9.12842 43.7553 9.12842H37.2195C37.0899 9.12842 36.9819 9.23645 36.9819 9.37688V31.2527C36.9819 31.3823 37.0899 31.4903 37.2195 31.4903H45.2677C46.4236 31.4903 47.385 31.3607 48.1628 31.1014C48.919 30.8421 49.6212 30.4532 50.2154 29.9671C50.95 29.3514 51.5549 28.5844 51.9978 27.6985C52.1059 27.4825 52.1815 27.2988 52.2571 27.1044L52.2895 27.0179C52.2895 26.9747 52.3111 26.9099 52.3327 26.8667C52.5488 26.1969 52.6784 25.4947 52.6784 24.7601C52.6568 23.7015 52.43 22.7076 51.9762 21.8218L51.9654 21.8434ZM40.4064 12.4449H43.1719C44.0361 12.4449 44.6843 12.5205 45.1164 12.661C45.5269 12.823 45.851 13.039 46.0887 13.3091C46.5532 13.8277 46.7909 14.4326 46.7909 15.1456C46.7909 15.837 46.5748 16.4419 46.0887 16.9605C45.851 17.2306 45.5485 17.4466 45.1164 17.6087C44.8139 17.7167 44.3602 17.7815 43.8201 17.8247H40.4064V12.4449ZM48.865 26.0133C48.6814 26.4454 48.4329 26.8127 48.1412 27.1368C47.7955 27.4609 47.385 27.7417 46.8773 27.9362C46.3696 28.1198 45.6242 28.2279 44.6303 28.2279H40.4172V21.1304H44.6303C45.635 21.1304 46.3804 21.2384 46.8773 21.4221C47.385 21.6165 47.8063 21.8866 48.1412 22.2215C48.4437 22.5456 48.6814 22.9129 48.865 23.3234C49.0487 23.7231 49.1351 24.1876 49.1351 24.6521C49.1351 25.1382 49.0271 25.592 48.8542 26.0133H48.865ZM72.4152 16.9821C71.2593 15.9342 69.6821 15.4157 67.716 15.4157C65.9551 15.4157 64.5075 15.8478 63.3948 16.712C62.4226 17.4358 61.7312 18.3649 61.3423 19.4667C61.3099 19.5748 61.3855 19.7152 61.5152 19.7368L64.2915 20.2229C64.3995 20.2446 64.5075 20.1905 64.54 20.1149C65.1017 18.851 66.1604 18.2352 67.7484 18.2352C68.7963 18.2352 69.6281 18.5269 70.2114 19.1211C70.7948 19.7152 71.0973 20.5038 71.0973 21.4977V22.0594C69.6173 21.6273 68.2237 21.4113 66.9274 21.4113C65.0909 21.4113 63.5569 21.865 62.3362 22.794C61.0938 23.7231 60.4997 25.0302 60.4997 26.7047C60.4997 28.3035 61.0398 29.5566 62.1525 30.4641C63.2652 31.3715 64.6048 31.8252 66.182 31.8252C68.2021 31.8252 69.855 31.2419 71.0757 30.0319V31.2419C71.0757 31.3931 71.1837 31.5119 71.3241 31.5119H73.8952C74.0465 31.5119 74.1653 31.4039 74.1653 31.2527V21.2816C74.1329 19.4451 73.5603 18.0192 72.3936 16.9821H72.4152ZM69.7793 27.7849C68.9151 28.5087 67.8348 28.8652 66.5925 28.8652C65.6742 28.8652 64.9721 28.6492 64.4751 28.2387C63.9782 27.8282 63.7189 27.2664 63.7189 26.5534C63.7189 25.7756 64.043 25.1923 64.6588 24.8034C65.2745 24.4145 66.0632 24.2092 67.0354 24.2092C68.2669 24.2092 69.6065 24.4253 71.0325 24.8574C71.0541 26.1213 70.622 27.0828 69.7577 27.7741L69.7793 27.7849ZM148.705 16.9821C147.549 15.9342 145.972 15.4157 144.006 15.4157C142.256 15.4157 140.808 15.8478 139.685 16.712C138.712 17.4358 138.032 18.3649 137.632 19.4667C137.61 19.5748 137.686 19.7152 137.816 19.7368L140.603 20.2229C140.711 20.2446 140.786 20.1905 140.819 20.1149C141.391 18.851 142.461 18.2352 144.038 18.2352C145.097 18.2352 145.929 18.5269 146.523 19.1211C147.095 19.7152 147.387 20.5038 147.387 21.4977V22.0594C145.918 21.6273 144.524 21.4113 143.228 21.4113C141.391 21.4113 139.857 21.865 138.637 22.794C137.416 23.7231 136.8 25.0302 136.8 26.7047C136.8 28.3035 137.362 29.5566 138.475 30.4641C139.587 31.3715 140.927 31.8252 142.504 31.8252C144.535 31.8252 146.177 31.2419 147.409 30.0319V31.2419C147.409 31.3931 147.517 31.5119 147.668 31.5119H150.239C150.379 31.5119 150.498 31.4039 150.498 31.2527V21.2816C150.455 19.4451 149.872 18.0192 148.716 16.9821H148.705ZM146.058 27.7849C145.194 28.5087 144.157 28.8652 142.904 28.8652C141.986 28.8652 141.283 28.6492 140.786 28.2387C140.311 27.8282 140.063 27.2664 140.063 26.5534C140.063 25.7756 140.387 25.1923 140.992 24.8034C141.607 24.4145 142.396 24.2092 143.368 24.2092C144.6 24.2092 145.961 24.4253 147.365 24.8574C147.365 26.1213 146.933 27.0828 146.069 27.7741L146.058 27.7849Z" fill="#054752"/>
</svg>
