<?xml version="1.0" encoding="utf-8"?>
<!-- Generator: Adobe Illustrator 24.1.0, SVG Export Plug-In . SVG Version: 6.00 Build 0)  -->
<svg version="1.1" id="Layer_1" focusable="false" xmlns="http://www.w3.org/2000/svg" xmlns:xlink="http://www.w3.org/1999/xlink"
	 x="0px" y="0px" viewBox="0 0 384 512" style="enable-background:new 0 0 384 512;" xml:space="preserve">
<style type="text/css">
	.st0{fill:#012169;}
</style>
<path class="st0" d="M288,256H96v64h192V256z M377,105L279.1,7c-4.5-4.5-10.6-7-17-7H256v128h128v-6.1
	C384,115.6,381.5,109.5,377,105z M224,136V0H24C10.7,0,0,10.7,0,24v464c0,13.3,10.7,24,24,24h336c13.3,0,24-10.7,24-24V160H248
	C234.8,160,224,149.2,224,136z M64,72c0-4.42,3.58-8,8-8h80c4.42,0,8,3.58,8,8v16c0,4.42-3.58,8-8,8H72c-4.42,0-8-3.58-8-8V72z
	 M64,136c0-4.42,3.58-8,8-8h80c4.42,0,8,3.58,8,8v16c0,4.42-3.58,8-8,8H72c-4.42,0-8-3.58-8-8V136z M320,440c0,4.42-3.58,8-8,8h-80
	c-4.42,0-8-3.58-8-8v-16c0-4.42,3.58-8,8-8h80c4.42,0,8,3.58,8,8V440z M320,240v96c0,8.84-7.16,16-16,16H80c-8.84,0-16-7.16-16-16
	v-96c0-8.84,7.16-16,16-16h224C312.84,224,320,231.16,320,240z"/>
</svg>
