<?xml version="1.0" encoding="UTF-8"?>
<svg enable-background="new 0 0 997.1 549.9" version="1.1" viewBox="0 0 997.1 549.9" xml:space="preserve" xmlns="http://www.w3.org/2000/svg">
<style type="text/css">
	.st0{fill:#E1B55C;}
	.st1{fill:#FFFFFF;}
</style>
<path class="st0" d="m276.7 570c-90.9 0.3-180.4 46.8-232.7 121.2-8.2 0.3-12.5 8.9-13.3 16.1-6.4 20.2-17.8 38.6-22 59.5-6.2 23.8-6.8 48.6-6.7 73-3.1 51 9 104.5 41 145.2 33.4 43.1 83.5 70.2 135.2 84.9 86.9 24.4 185 11.5 259.8-40 51.5-35.9 89.5-91.8 100.3-154 5.4-24.9 11.7-50 11.1-75.7 0-39.8-11.7-79.7-34.6-112.3-28.5-42.2-71.6-73.5-119.3-90.6-36.7-18.6-77.8-27.7-118.8-27.3z"/>
<view id="normal" viewBox="0 0 997.1 549.9" zoomAndPan="magnify"/>
<view id="hover" viewBox="0 549.9 997.1 549.9" zoomAndPan="magnify"/>
	<g transform="translate(5.9347 -727.58)">
			<path class="st0" d="m533.9 948.1c-8.4-63-50.7-116.6-102.6-147.6-13.4-8-27.3-14.5-41.8-19.6-118-62.4-272.8-18.3-348.4 93.9-2.1-1.8-5.9-1.6-7.1 1.9-2.3 7-4.6 14.1-6.8 21.2-17.7 34.2-25.3 71.6-23.2 109-1.9 23.6-1.1 47.3 3.7 71 6.4 31.8 20.8 61.1 41.4 85.3 23 27 53.3 46.2 84.9 60.3 112.8 50.3 265.8 28.5 345.9-73.9 25.4-32.4 41.3-70.8 46.8-110.9 8.3-29.2 11.3-59.9 7.2-90.6zm-44.9 137c-30.4 55.9-79.5 101.1-136.2 126-118.4 52.1-264.1-16.3-316.6-135.9-3.7-8.4-6.8-17-9.3-25.9 0.2-33.4 1.8-65.7 12.9-97.4 9-25.6 23.4-49.2 40.7-69.5 36.1-42.4 85.8-71 137.8-86 52.3-15.1 108.6-16.2 160.7 0.4 3 1 6 2 9 3.1 13.8 7.7 26.9 16.8 39.1 27.3 50.9 43.9 84.8 109.8 85.6 179.3 0.1 7-0.2 14-0.9 20.8-5.1 20.2-13 39.8-22.8 57.8zm-260-312c8.6-1.5 17.2-2.5 25.9-3.1-49.2 7.7-96.9 27.1-136.6 55.6-32.5 23.2-60.6 53.4-79.9 89.4-2.5 4.6-4.8 9.3-6.9 14.1 5.1-13.3 11.5-26.1 19-38.2 39.9-63.8 107.2-105.4 178.5-117.8zm-199.2 326.3c21.5 41.2 54.6 75.9 92.8 101-19.8-10.4-38.2-23.4-54.2-39.3-18.1-18-30.5-39-38.6-61.7z"/>
			<path class="st0" d="m461.7 967.1c0.8-9.5-12.3-12.9-15.9-5.3-15.7 33.2-20.7 50.8-51.4 90.8-22.1 28.8-47.8 47.6-82.3 53.9-38 6.9-78.9 5.7-116-5.3-18-5.3-33.6-14-48.5-25.7-15.7-12.3-31.2-27-40.3-45.4-1.3-2.6-2.3-5.3-3.2-8.2-1.7-5.9-7.3-7.7-11.7-6.4-0.2-0.3-0.3-0.5-0.5-0.8-5.6-8.8-19-2.4-14.4 7.6 18.3 38.8 40.3 73 74 98.9 4.1 3.2 8.3 6.1 12.7 8.9 30.3 21.6 65.5 35.3 102.9 36.9 74.3 3.2 150.4-49 176.8-121.6 1.1-3.1 2.1-6.3 3-9.6 8.9-21.8 12.8-45.1 14.8-68.7zm-181.5 161.8c25.5-1.3 51.4-5.5 74.5-16.3-9.8 6.5-20.4 12-31.5 16.4-43.2 17.2-90.6 13.9-131.7-5.3-3.7-2-7.3-4.2-10.8-6.5-1.5-1-2.9-2-4.3-3 32.7 13.2 69.1 16.4 103.8 14.7z"/>
			<path class="st0" d="m97.6 994.6c-9.5 2-18.1 5.7-25.9 11.7-4.6 3.6-7.2 8.4-8.5 13.6-2.7 2.7-4.7 5.9-5.1 9.7-0.5 5 4.9 10 9.6 8.4 6.5-2.2 12.1-9.4 17.6-13.7 6.5-5.1 13.3-9.9 19.2-15.7 5.7-5.5 0.9-15.6-6.9-14z"/>
			<path class="st0" d="m475.1 972.4c-3.4-3.6-7.2-6.8-11.1-9.8-5.1-5.1-9.9-10.5-14.7-15.9-6.3-7.1-18.5-0.3-16.5 8.1 0 1.2 0.3 2.4 1 3.6 1.5 2.6 3.4 4.9 5.4 7.1 5.6 7.7 12.1 14.6 18.7 21.4 4.1 4.2 9.3 3.6 12.8 0.9 5.7-2.1 9.5-10 4.4-15.4z"/>
	</g>
		<path class="st0" d="M581.7,303.7v27.7H616v-27.7h12.7v65.9H616v-27.8h-34.3v27.8H569v-65.9H581.7z"/>
		<path class="st0" d="m657.5 324.7c5.7 0 10 1.2 13 3.6 3 2.5 4.7 6.2 4.5 10.1v21.5c0 1.7 0.7 2.5 2 2.5 0.8-0.1 1.6-0.3 2.4-0.7 0.9-0.4 1.8-1 2.6-1.7v6.7c-3.3 2.2-7.1 3.5-11.1 3.7-1.6 0.1-3.3-0.3-4.8-1-1.2-0.9-2.1-2.2-2.3-3.7-3.8 3-8.5 4.6-13.3 4.8-3 0.1-6-1.1-8.2-3.2-2.2-1.9-3.4-4.7-3.4-7.7-0.2-3.3 1-6.6 3.4-9 2.3-2.2 6.2-4.1 11.9-5.7l9.4-2.7v-2c0-4.3-2.6-6.5-7.8-6.5-2.7 0-5.4 0.7-7.9 1.8-2.7 1.3-5.2 3.1-7.2 5.4v-10.4c4.6-3.8 10.6-5.9 16.8-5.8zm-7.1 33.1c0 1.5 0.5 2.9 1.6 3.9 1 1 2.4 1.5 3.8 1.5 2.9-0.2 5.6-1.4 7.6-3.5v-11.6c-2.6 0.9-5.2 1.9-7.6 3.2-1.5 0.7-2.9 1.7-4.1 3-0.8 0.9-1.3 2.2-1.3 3.5z"/>
		<path class="st0" d="m711 324.7c5.8-0.2 11.3 2.1 15.2 6.3 4 4.5 6 10.4 5.8 16.5 0.1 4.1-0.9 8.2-2.7 11.9-1.7 3.4-4.4 6.2-7.7 8.2-3.4 2-7.3 3-11.3 2.9-3.6 0-7.1-0.9-10.3-2.6v23.9h-11.6v-66.2h11.5v2.8c3.1-2.4 7.1-3.7 11.1-3.7zm-11.1 34.7c2.4 1.5 5.2 2.4 8.1 2.5 3.4 0.1 6.6-1.3 8.8-3.9 2.3-2.9 3.5-6.4 3.3-10.1 0.2-3.8-0.8-7.5-2.9-10.6-2-2.6-5.1-4-8.4-3.8-1.3 0-2.7 0.2-3.9 0.7-1.8 0.8-3.4 1.7-5 2.9v22.3z"/>
		<path class="st0" d="m763.9 324.7c5.8-0.2 11.3 2.1 15.2 6.3 4 4.5 6 10.4 5.8 16.5 0.1 4.1-0.9 8.2-2.7 11.9-1.7 3.4-4.4 6.2-7.7 8.2-3.4 2-7.3 3-11.3 2.9-3.6 0-7.1-0.9-10.3-2.6v23.9h-11.6v-66.2h11.5v2.8c3.1-2.4 7-3.7 11.1-3.7zm-11.1 34.7c2.4 1.5 5.2 2.4 8.1 2.5 3.4 0.1 6.6-1.3 8.8-3.9 2.3-2.9 3.5-6.4 3.3-10.1 0.2-3.8-0.8-7.5-2.9-10.6-2-2.6-5.1-4-8.4-3.8-1.3 0-2.7 0.2-3.9 0.7-1.8 0.7-3.4 1.7-5 2.9v22.3z"/>
		<path class="st0" d="m800.2 305.2c3.6 0 6.5 2.9 6.6 6.6 0 1.7-0.7 3.4-1.9 4.6-2.4 2.5-6.4 2.7-9 0.3l-0.3-0.3c-1.3-1.2-2-2.9-2-4.6 0-1.8 0.7-3.4 2-4.6 1.3-1.3 2.9-2 4.6-2zm5.8 20.4v44h-11.6v-44h11.6z"/>
		<path class="st0" d="m843.5 324.7c4.3-0.2 8.4 1.5 11.3 4.6 2.9 3.4 4.4 7.8 4.2 12.2v28h-11.5v-26.8c0.1-2.4-0.6-4.8-2-6.8-1.4-1.7-3.4-2.6-5.6-2.5-1.8 0-3.6 0.6-5.1 1.6-2 1.5-3.7 3.2-5.2 5.3v29.3h-11.6v-44h11.6v6.2c1.8-2.2 4-4.1 6.6-5.4 2.3-1.1 4.8-1.7 7.3-1.7z"/>
		<path class="st0" d="m889.9 324.7c5.8-0.3 11.4 2 15.4 6.2 3.8 4.1 5.7 9.9 5.7 17.2v1.7h-31.1c0.2 3.5 1.8 6.7 4.4 9.1 2.9 2.3 6.5 3.4 10.2 3.2 2.7 0 5.4-0.5 7.9-1.4 2.8-1.1 5.5-2.6 7.9-4.4v8.6c-5.5 3.8-12.1 5.7-18.7 5.5-6.3 0.2-12.4-2.1-17-6.3-4.5-4.4-6.9-10.4-6.6-16.7-0.2-6.1 2-11.9 6.2-16.3 4-4.3 9.8-6.6 15.7-6.4zm10.1 18.2c-0.1-2.8-1.2-5.4-2.9-7.5-1.7-1.9-4.2-2.8-6.7-2.7-2.6-0.1-5.1 0.8-7 2.6-1.9 2.1-3.1 4.8-3.4 7.6h20z"/>
		<path class="st0" d="m934.4 324.7c2.3 0 4.6 0.3 6.8 0.8 2.4 0.6 4.6 1.5 6.8 2.6v9.3c-2.2-1.4-4.6-2.6-7.1-3.4-2.2-0.8-4.4-1.2-6.7-1.3-1.4-0.1-2.7 0.3-3.9 1-0.9 0.6-1.5 1.6-1.4 2.7 0.1 0.8 0.5 1.5 1.2 2 2 1.4 4.2 2.6 6.5 3.6 3.9 1.8 7.5 4.1 10.6 7 2 2.1 3.1 4.9 3 7.8 0.2 3.9-1.5 7.6-4.4 10-3.4 2.6-7.7 3.9-12 3.7-3 0-5.9-0.3-8.8-1-2.3-0.6-4.6-1.4-6.8-2.5v-9.7c5.7 3.2 10.4 4.8 14.3 4.8 1.6 0.1 3.3-0.3 4.8-1.1 1.1-0.5 1.8-1.6 1.8-2.8 0-0.7-0.2-1.4-0.7-1.9-0.6-0.7-1.2-1.3-2-1.7-0.9-0.6-3.6-2-8.3-4.3-3-1.3-5.7-3.2-7.9-5.5-1.7-2-2.6-4.5-2.5-7.1-0.1-3.7 1.6-7.2 4.6-9.3 3.5-2.6 7.7-3.9 12.1-3.7z"/>
		<path class="st0" d="m973.4 324.7c2.3 0 4.6 0.3 6.8 0.8 2.3 0.6 4.6 1.5 6.8 2.6v9.3c-2.2-1.4-4.6-2.6-7.1-3.4-2.2-0.8-4.4-1.2-6.7-1.3-1.4-0.1-2.7 0.3-3.9 1-0.9 0.6-1.5 1.6-1.4 2.7 0.1 0.8 0.5 1.5 1.2 2 2 1.4 4.2 2.6 6.5 3.6 3.9 1.8 7.5 4.1 10.6 7 2 2.1 3.1 4.9 3 7.8 0.2 3.9-1.5 7.6-4.4 10-3.4 2.6-7.7 3.9-12 3.7-3 0-5.9-0.3-8.8-1-2.3-0.6-4.6-1.4-6.8-2.5v-9.7c5.7 3.2 10.4 4.8 14.3 4.8 1.6 0.1 3.3-0.3 4.8-1.1 1.1-0.5 1.8-1.6 1.8-2.8 0-0.7-0.2-1.4-0.7-1.9-0.5-0.7-1.2-1.3-1.9-1.8-0.9-0.6-3.6-2-8.3-4.3-3-1.3-5.7-3.2-7.9-5.5-1.7-2-2.6-4.5-2.5-7.1-0.1-3.7 1.6-7.2 4.6-9.3 3.4-2.5 7.7-3.8 12-3.6z"/>
		<path class="st0" d="M667.6,388l21.6,26l21.6-26h11.4v65.9h-12.7v-46.2h-0.4l-19,23.2h-1.8l-19-23.2H669v46.2h-12.7V388H667.6z"/>
		<path class="st0" d="m755 409c5.8-0.3 11.4 2 15.4 6.2 3.8 4.1 5.7 9.9 5.7 17.2v1.7h-31.2c0.2 3.5 1.8 6.7 4.4 9.1 2.9 2.3 6.5 3.4 10.2 3.2 2.7 0 5.4-0.5 7.9-1.4 2.8-1.1 5.5-2.6 7.9-4.4v8.6c-5.5 3.8-12.1 5.7-18.8 5.5-6.3 0.2-12.4-2.1-17-6.3-4.5-4.4-6.9-10.4-6.6-16.7-0.2-6.1 2-12 6.1-16.4 4.2-4.3 10-6.6 16-6.3zm10.1 18.1c-0.1-2.8-1.2-5.4-2.9-7.5-1.7-1.9-4.2-2.8-6.7-2.7-2.6-0.1-5.1 0.8-7 2.6-1.9 2.1-3.1 4.8-3.4 7.6h20z"/>
		<path class="st0" d="m797.2 398.1h1v11.7h15.1v8.8h-15.1v20.3c-0.1 1.8 0.6 3.5 1.8 4.8 1.3 1.3 3.1 1.9 4.9 1.8 3.3-0.2 6.5-1.2 9.3-2.9v9.3c-3.7 1.7-7.7 2.7-11.8 2.8-4.3 0.3-8.4-1.2-11.6-4.1-2.9-2.9-4.4-6.9-4.2-11v-21h-6.9v-1.9l17.5-18.6z"/>
		<path class="st0" d="m840.4 409c5.8-0.3 11.4 2 15.4 6.2 3.8 4.1 5.7 9.9 5.7 17.2v1.7h-31.1c0.2 3.5 1.8 6.7 4.4 9.1 2.9 2.3 6.5 3.4 10.2 3.2 2.7 0 5.4-0.5 7.9-1.4 2.8-1.1 5.5-2.6 7.9-4.4v8.6c-5.5 3.8-12.1 5.7-18.8 5.5-6.3 0.2-12.4-2.1-17-6.3-4.5-4.4-6.9-10.4-6.6-16.7-0.2-6.1 2-12 6.1-16.4 4.1-4.3 9.9-6.6 15.9-6.3zm10.2 18.1c-0.1-2.8-1.2-5.4-2.9-7.5-1.7-1.9-4.2-2.8-6.7-2.7-2.6-0.1-5.1 0.8-7 2.6-1.9 2.1-3.1 4.8-3.4 7.6h20z"/>
		<path class="st0" d="m895.7 409c1.6 0 3.1 0.4 4.5 1 1.9 0.9 3.6 2.1 5.2 3.5l-4.1 10.1c-3.4-2.5-6.1-3.8-8.1-3.8-1.9 0.1-3.8 0.8-5.3 2-1.8 1.4-3.2 3.2-4.2 5.3s-1.6 4.3-1.6 6.6v20.1h-11.6v-44h11.6v11.2h0.2c1.5-3.4 3.7-6.6 6.3-9.2 2-1.8 4.5-2.8 7.1-2.8z"/>
		<path class="st0" d="m590.7 172.6h2.1c8.1 0 12.1-3.9 12.1-11.3v-62.2h16.4v46.1h0.9v16.4h-0.8c-0.8 21.1-13.4 27-28.5 27h-2.2v-16z"/>
		<path class="st0" d="M620,145.2h58.1v16.4H620V145.2z"/>
		<path class="st0" d="m674.5 145.2h58.1v16.4h-58.1v-16.4z"/>
		<path class="st0" d="m773.3 145.2v-23.9h16.4v23.9h18.8v-34.9h16.5v34.9h18.4v-46.1h16.5v62.5h-129.5v-16.4h42.9zm23.4-71.9h16.4v16.7h-16.4v-16.7zm11.8-23.3h16.5v16.7h-16.4v-16.7zm11.6 23.3h16.4v16.7h-16.4v-16.7z"/>
		<path class="st0" d="m872.3 188.7v-16.7h22.6c3.2 0 5.2-0.7 6.1-2.2 0.6-1 1-2.2 1-3.5v-4.8h-3.7c-15.3 0-26-10.1-26-25.1v-12.4c0-14.8 10.6-25 26-25h20.3v46.1h0.8v16.4h-0.8v2.6c0 15.7-9 24.4-25.1 24.4h-21.2zm31.4-119.1v6.2h-5.5c-2.6 0-4 1.6-4 4.6 0 2.5 1.4 3.7 4.3 3.7h7.9v6.5h-21.4v-6.5h3.6c-0.5-1.1-0.8-2.4-0.8-3.6-0.2-5.8 4.3-10.7 10.2-10.9h0.9 4.8zm-1.6 45.9h-4.3c-5.9 0-9 3.3-9 10.1v9.4c0 6.8 3 10.2 9 10.2h4.3v-29.7z"/>
		<path class="st0" d="m939 161.6h-20.4v-16.4h20.4v-21.1c0-14.8 10.5-25 26-25h20.3v49.5c0 15.7-10.2 26-26 26h-20.3v-13zm16.4-3.5h4.2c6.1 0 9-3.3 9-10.1v-32.4h-4.2c-6.1 0-9 3.3-9 10.1v32.4z"/>
		<path class="st0" d="m626.2 288.4h-58.4c3.5-38.4 26.1-60.5 58.4-62.5v62.5zm-39.9-89.1h16.7v16.4h-16.7v-16.4zm2.7 72.7h20.8v-26c-10.8 4.5-17.6 15.1-20.8 26zm20.8-72.7h16.4v16.4h-16.4v-16.4z"/>
		<path class="st0" d="m674.9 272v-10c0-6.8-1.6-11.6-5.1-14.5-2.1-1.8-4.5-3.2-7.2-4-4.1-1-8.3-1.5-12.6-1.4v-16.4h5.4c8-0.2 15.9 2.1 22.5 6.6 9 6.2 13.5 16 13.5 29.5v26.5h-52.9v-16.3h36.4z"/>
		<path class="st0" d="m703.9 288.4v-89.1h16.4v72.7h1.1v16.4h-17.5z"/>
		<path class="st0" d="m720.3 272h28.9c1.7 0.1 3.5-0.2 5.1-0.8-2.6-9.4-8-17.8-15.5-24.1l8-19.7c5.6-0.8 11.3-1.3 17-1.4 17.1 0 25.5 6.5 25.5 19.5 0 8.1-4.1 17-12 26.6h12.7v16.4h-12.3c-8.6 0-9.7-0.1-13.9-1.9-2.9 1.6-4.8 1.9-14.1 1.9h-29.4v-16.5zm46.1-11.5c4.6-5.2 7-9.4 7-12.4 0-4.1-3.6-6.1-11.1-6.2l-5.5 0.3c6.9 7.3 8.7 11.8 9.6 18.3z"/>
		<path class="st0" d="M832.1,272v-23.9h16.4V272h18.8v-34.9h16.4V272h18.4v-46.1h16.4V272h1v16.4H789.2V272H832.1z"/>
		<path class="st0" d="M918.5,272h20.3v-72.7h16.4v89.2h-36.7V272z"/>
		<path class="st0" d="m984.1 288.4h-16.4v-89.1h16.4v89.1z"/>
	<g transform="translate(5.9347 -727.58)">
			<path class="st1" d="m533.9 1500.7c-8.4-63-50.7-116.6-102.6-147.6-13.4-8-27.3-14.5-41.8-19.6-118-62.4-272.8-18.3-348.4 93.9-2.1-1.8-5.9-1.6-7.1 1.9-2.3 7-4.6 14.1-6.8 21.2-17.9 34-25.5 71.5-23.4 108.8-1.9 23.6-1.1 47.3 3.7 71 6.4 31.8 20.8 61.1 41.4 85.3 23 27 53.3 46.2 84.9 60.3 112.8 50.3 265.8 28.5 345.9-73.9 25.4-32.4 41.3-70.8 46.8-110.9 8.5-29.1 11.5-59.8 7.4-90.4zm-44.9 137c-30.4 55.9-79.5 101.1-136.2 126-118.4 52.1-264.1-16.3-316.6-135.9-3.7-8.4-6.8-17-9.3-25.9 0.2-33.4 1.8-65.7 12.9-97.4 9-25.6 23.4-49.2 40.7-69.5 36.1-42.4 85.8-71 137.8-86 52.3-15.1 108.6-16.2 160.7 0.4 3 1 6 2 9 3.1 13.8 7.7 26.9 16.8 39.1 27.3 50.9 43.9 84.8 109.8 85.6 179.3 0.1 7-0.2 14-0.9 20.8-5.1 20.2-13 39.7-22.8 57.8zm-260-312.1c8.6-1.5 17.2-2.5 25.9-3.1-49.2 7.7-96.9 27.1-136.6 55.6-32.5 23.3-60.6 53.5-79.9 89.4-2.5 4.6-4.8 9.3-6.9 14.1 5.1-13.3 11.5-26.1 19-38.2 39.9-63.8 107.2-105.3 178.5-117.8zm-199.2 326.4c21.5 41.2 54.6 75.9 92.8 101-19.8-10.4-38.2-23.4-54.2-39.3-18.1-18-30.5-39-38.6-61.7z"/>
			<path class="st1" d="m461.7 1519.6c0.8-9.5-12.3-12.9-15.9-5.3-15.7 33.2-20.7 50.8-51.4 90.8-22.1 28.8-47.8 47.6-82.3 53.9-38 6.9-78.9 5.7-116-5.3-18-5.3-33.6-14-48.5-25.7-15.7-12.3-31.2-27-40.3-45.4-1.3-2.6-2.3-5.3-3.2-8.2-1.7-5.9-7.3-7.7-11.7-6.4-0.2-0.3-0.3-0.5-0.5-0.8-5.6-8.8-19-2.4-14.4 7.6 18.3 38.8 40.3 73 74 98.9 4.1 3.2 8.3 6.1 12.7 8.9 30.3 21.6 65.5 35.3 102.9 36.9 74.3 3.2 150.4-49 176.8-121.6 1.1-3.1 2.1-6.3 3-9.6 8.9-21.8 12.8-45.1 14.8-68.7zm-181.5 161.8c25.5-1.3 51.4-5.5 74.5-16.3-9.8 6.5-20.4 12-31.5 16.4-43.2 17.2-90.6 13.9-131.7-5.3-3.7-2-7.3-4.2-10.8-6.5-1.5-1-2.9-2-4.3-3 32.7 13.3 69.1 16.5 103.8 14.7z"/>
			<path class="st1" d="m97.6 1547.1c-9.5 2-18.1 5.7-25.9 11.7-4.6 3.6-7.2 8.4-8.5 13.6-2.7 2.7-4.7 5.9-5.1 9.7-0.5 5 4.9 10 9.6 8.4 6.5-2.2 12.1-9.4 17.6-13.7 6.5-5.1 13.3-9.9 19.2-15.7 5.7-5.5 0.9-15.6-6.9-14z"/>
			<path class="st1" d="m475.1 1525c-3.4-3.6-7.2-6.8-11.1-9.8-5.1-5.1-9.9-10.5-14.7-15.9-6.3-7.1-18.5-0.3-16.5 8.1 0 1.2 0.3 2.4 1 3.6 1.5 2.6 3.4 4.9 5.4 7.1 5.6 7.7 12.1 14.6 18.7 21.4 4.1 4.2 9.3 3.6 12.8 0.9 5.7-2.1 9.5-10.1 4.4-15.4z"/>
	</g>
		<path class="st0" d="M581.7,856.3V884H616v-27.7h12.7v65.9H616v-27.8h-34.3v27.8H569v-65.9H581.7z"/>
		<path class="st0" d="m657.5 877.3c5.7 0 10 1.2 13 3.6 3 2.5 4.7 6.2 4.5 10.1v21.5c0 1.7 0.7 2.5 2 2.5 0.8-0.1 1.6-0.3 2.4-0.7 0.9-0.4 1.8-1 2.6-1.7v6.7c-3.3 2.2-7.1 3.5-11.1 3.7-1.6 0.1-3.3-0.3-4.8-1-1.2-0.9-2.1-2.2-2.3-3.7-3.8 3-8.5 4.6-13.3 4.8-3 0.1-6-1.1-8.2-3.2-2.2-1.9-3.4-4.7-3.4-7.7-0.2-3.3 1-6.6 3.4-9 2.3-2.2 6.2-4.1 11.9-5.7l9.4-2.7v-2c0-4.3-2.6-6.5-7.8-6.5-2.7 0-5.4 0.7-7.9 1.8-2.7 1.3-5.2 3.1-7.2 5.4v-10.5c4.6-3.8 10.6-5.8 16.8-5.7zm-7.1 33.1c0 1.5 0.5 2.9 1.6 3.9 1 1 2.4 1.5 3.8 1.5 2.9-0.2 5.6-1.4 7.6-3.5v-11.6c-2.6 0.9-5.2 1.9-7.6 3.2-1.5 0.7-2.9 1.7-4.1 3-0.8 0.9-1.3 2.1-1.3 3.5z"/>
		<path class="st0" d="m711 877.3c5.8-0.2 11.3 2.1 15.2 6.3 4 4.5 6 10.4 5.8 16.5 0.1 4.1-0.9 8.2-2.7 11.9-1.7 3.4-4.4 6.2-7.7 8.2-3.4 2-7.3 3-11.3 2.9-3.6 0-7.1-0.9-10.3-2.6v23.9h-11.6v-66.2h11.5v2.8c3.1-2.4 7.1-3.7 11.1-3.7zm-11.1 34.6c2.4 1.5 5.2 2.4 8.1 2.5 3.4 0.1 6.6-1.3 8.8-3.9 2.3-2.9 3.5-6.4 3.3-10.1 0.2-3.8-0.8-7.5-2.9-10.6-2-2.6-5.1-4-8.4-3.8-1.3 0-2.7 0.2-3.9 0.7-1.8 0.8-3.4 1.7-5 2.9v22.3z"/>
		<path class="st0" d="m763.9 877.3c5.8-0.2 11.3 2.1 15.2 6.3 4 4.5 6 10.4 5.8 16.5 0.1 4.1-0.9 8.2-2.7 11.9-1.7 3.4-4.4 6.2-7.7 8.2-3.4 2-7.3 3-11.3 2.9-3.6 0-7.1-0.9-10.3-2.6v23.9h-11.6v-66.2h11.5v2.8c3.1-2.4 7-3.7 11.1-3.7zm-11.1 34.6c2.4 1.5 5.2 2.4 8.1 2.5 3.4 0.1 6.6-1.3 8.8-3.9 2.3-2.9 3.5-6.4 3.3-10.1 0.2-3.8-0.8-7.5-2.9-10.6-2-2.6-5.1-4-8.4-3.8-1.3 0-2.7 0.2-3.9 0.7-1.8 0.7-3.4 1.7-5 2.9v22.3z"/>
		<path class="st0" d="m800.2 857.7c3.6 0 6.5 2.9 6.6 6.6 0 1.7-0.7 3.4-1.9 4.6-2.4 2.5-6.4 2.7-9 0.3l-0.3-0.3c-1.3-1.2-2-2.9-2-4.6 0-1.8 0.7-3.4 2-4.6 1.3-1.3 2.9-2 4.6-2zm5.8 20.4v44h-11.6v-44h11.6z"/>
		<path class="st0" d="m843.5 877.3c4.3-0.2 8.4 1.5 11.3 4.6 2.9 3.4 4.4 7.8 4.2 12.2v28h-11.5v-26.8c0.1-2.4-0.6-4.8-2-6.8-1.4-1.7-3.4-2.6-5.6-2.5-1.8 0-3.6 0.6-5.1 1.6-2 1.5-3.7 3.2-5.2 5.3v29.3h-11.6v-44h11.6v6.2c1.8-2.2 4-4.1 6.6-5.4 2.3-1.2 4.8-1.8 7.3-1.7z"/>
		<path class="st0" d="m889.9 877.3c5.8-0.3 11.4 2 15.4 6.2 3.8 4.1 5.7 9.9 5.7 17.2v1.7h-31.1c0.2 3.5 1.8 6.7 4.4 9.1 2.9 2.3 6.5 3.4 10.2 3.2 2.7 0 5.4-0.5 7.9-1.4 2.8-1.1 5.5-2.6 7.9-4.4v8.6c-5.5 3.8-12.1 5.7-18.7 5.5-6.3 0.2-12.4-2.1-17-6.3-4.5-4.4-6.9-10.4-6.6-16.7-0.2-6.1 2-11.9 6.2-16.3 4-4.3 9.8-6.6 15.7-6.4zm10.1 18.1c-0.1-2.8-1.2-5.4-2.9-7.5-1.7-1.9-4.2-2.8-6.7-2.7-2.6-0.1-5.1 0.8-7 2.6-1.9 2.1-3.1 4.8-3.4 7.6h20z"/>
		<path class="st0" d="m934.4 877.3c2.3 0 4.6 0.3 6.8 0.8 2.4 0.6 4.6 1.5 6.8 2.6v9.3c-2.2-1.4-4.6-2.6-7.1-3.4-2.2-0.8-4.4-1.2-6.7-1.3-1.4-0.1-2.7 0.3-3.9 1-0.9 0.6-1.5 1.6-1.4 2.7 0.1 0.8 0.5 1.5 1.2 2 2 1.4 4.2 2.6 6.5 3.6 3.9 1.8 7.5 4.1 10.6 7 2 2.1 3.1 4.9 3 7.8 0.2 3.9-1.5 7.6-4.4 10-3.4 2.6-7.7 3.9-12 3.7-3 0-5.9-0.3-8.8-1-2.3-0.6-4.6-1.4-6.8-2.5v-9.7c5.7 3.2 10.4 4.8 14.3 4.8 1.6 0.1 3.3-0.3 4.8-1.1 1.1-0.5 1.8-1.6 1.8-2.8 0-0.7-0.2-1.4-0.7-1.9-0.6-0.7-1.2-1.3-2-1.7-0.9-0.6-3.6-2-8.3-4.3-3-1.3-5.7-3.2-7.9-5.5-1.7-2-2.6-4.5-2.5-7.1-0.1-3.7 1.6-7.2 4.6-9.3 3.5-2.7 7.7-3.9 12.1-3.7z"/>
		<path class="st0" d="m973.4 877.3c2.3 0 4.6 0.3 6.8 0.8 2.3 0.6 4.6 1.5 6.8 2.6v9.3c-2.2-1.4-4.6-2.6-7.1-3.4-2.2-0.8-4.4-1.2-6.7-1.3-1.4-0.1-2.7 0.3-3.9 1-0.9 0.6-1.5 1.6-1.4 2.7 0.1 0.8 0.5 1.5 1.2 2 2 1.4 4.2 2.6 6.5 3.6 3.9 1.8 7.5 4.1 10.6 7 2 2.1 3.1 4.9 3 7.8 0.2 3.9-1.5 7.6-4.4 10-3.4 2.6-7.7 3.9-12 3.7-3 0-5.9-0.3-8.8-1-2.3-0.6-4.6-1.4-6.8-2.5v-9.7c5.7 3.2 10.4 4.8 14.3 4.8 1.6 0.1 3.3-0.3 4.8-1.1 1.1-0.5 1.8-1.6 1.8-2.8 0-0.7-0.2-1.4-0.7-1.9-0.5-0.7-1.2-1.3-1.9-1.8-0.9-0.6-3.6-2-8.3-4.3-3-1.3-5.7-3.2-7.9-5.5-1.7-2-2.6-4.5-2.5-7.1-0.1-3.7 1.6-7.2 4.6-9.3 3.4-2.6 7.7-3.8 12-3.6z"/>
		<path class="st0" d="m667.6 940.5 21.6 26 21.6-26h11.4v65.9h-12.7v-46.2h-0.4l-19 23.2h-1.8l-19-23.2h-0.3v46.2h-12.7v-65.9h11.3z"/>
		<path class="st0" d="m755 961.5c5.8-0.3 11.4 2 15.4 6.2 3.8 4.1 5.7 9.9 5.7 17.2v1.7h-31.2c0.2 3.5 1.8 6.7 4.4 9.1 2.9 2.3 6.5 3.4 10.2 3.2 2.7 0 5.4-0.5 7.9-1.4 2.8-1.1 5.5-2.6 7.9-4.4v8.6c-5.5 3.8-12.1 5.7-18.8 5.5-6.3 0.2-12.4-2.1-17-6.3-4.5-4.4-6.9-10.4-6.6-16.7-0.2-6.1 2-12 6.1-16.4 4.2-4.3 10-6.5 16-6.3zm10.1 18.2c-0.1-2.8-1.2-5.4-2.9-7.5-1.7-1.9-4.2-2.8-6.7-2.7-2.6-0.1-5.1 0.8-7 2.6-1.9 2.1-3.1 4.8-3.4 7.6h20z"/>
		<path class="st0" d="m797.2 950.7h1v11.7h15.1v8.8h-15.1v20.3c-0.1 1.8 0.6 3.5 1.8 4.8 1.3 1.3 3.1 1.9 4.9 1.8 3.3-0.2 6.5-1.2 9.3-2.9v9.3c-3.7 1.7-7.7 2.7-11.8 2.8-4.3 0.3-8.4-1.2-11.6-4.1-2.9-2.9-4.4-6.9-4.2-11v-21h-6.9v-1.9l17.5-18.6z"/>
		<path class="st0" d="m840.4 961.5c5.8-0.3 11.4 2 15.4 6.2 3.8 4.1 5.7 9.9 5.7 17.2v1.7h-31.1c0.2 3.5 1.8 6.7 4.4 9.1 2.9 2.3 6.5 3.4 10.2 3.2 2.7 0 5.4-0.5 7.9-1.4 2.8-1.1 5.5-2.6 7.9-4.4v8.6c-5.5 3.8-12.1 5.7-18.8 5.5-6.3 0.2-12.4-2.1-17-6.3-4.5-4.4-6.9-10.4-6.6-16.7-0.2-6.1 2-12 6.1-16.4 4.1-4.3 9.9-6.6 15.9-6.3zm10.2 18.2c-0.1-2.8-1.2-5.4-2.9-7.5-1.7-1.9-4.2-2.8-6.7-2.7-2.6-0.1-5.1 0.8-7 2.6-1.9 2.1-3.1 4.8-3.4 7.6h20z"/>
		<path class="st0" d="m895.7 961.5c1.6 0 3.1 0.4 4.5 1 1.9 0.9 3.6 2.1 5.2 3.5l-4.1 10.1c-3.4-2.5-6.1-3.8-8.1-3.8-1.9 0.1-3.8 0.8-5.3 2-1.8 1.4-3.2 3.2-4.2 5.3s-1.6 4.3-1.6 6.6v20.1h-11.6v-44h11.6v11.2h0.2c1.5-3.4 3.7-6.6 6.3-9.2 2-1.8 4.5-2.8 7.1-2.8z"/>
		<path class="st0" d="m590.7 725.1h2.1c8.1 0 12.1-3.9 12.1-11.3v-62.1h16.4v46.1h0.9v16.4h-0.8c-0.8 21.1-13.4 27-28.5 27h-2.2v-16.1z"/>
		<path class="st0" d="M620,697.8h58.1v16.4H620V697.8z"/>
		<path class="st0" d="m674.5 697.8h58.1v16.4h-58.1v-16.4z"/>
		<path class="st0" d="m773.3 697.8v-23.9h16.4v23.9h18.8v-34.9h16.5v34.9h18.4v-46.1h16.5v62.5h-129.5v-16.4h42.9zm23.4-71.9h16.4v16.7h-16.4v-16.7zm11.8-23.4h16.5v16.7h-16.4v-16.7zm11.6 23.4h16.4v16.7h-16.4v-16.7z"/>
		<path class="st0" d="m872.3 741.3v-16.7h22.6c3.2 0 5.2-0.7 6.1-2.2 0.6-1 1-2.2 1-3.5v-4.8h-3.7c-15.3 0-26-10.1-26-25.1v-12.4c0-14.8 10.6-25 26-25h20.3v46.1h0.8v16.4h-0.8v2.6c0 15.7-9 24.4-25.1 24.4h-21.2zm31.4-119.2v6.2h-5.5c-2.6 0-4 1.6-4 4.6 0 2.5 1.4 3.7 4.3 3.7h7.9v6.5h-21.4v-6.5h3.6c-0.5-1.1-0.8-2.4-0.8-3.6-0.2-5.8 4.3-10.7 10.2-10.9h0.9 4.8zm-1.6 46h-4.3c-5.9 0-9 3.3-9 10.1v9.4c0 6.8 3 10.2 9 10.2h4.3v-29.7z"/>
		<path class="st0" d="m939 714.2h-20.4v-16.4h20.4v-21.1c0-14.8 10.5-25 26-25h20.3v49.5c0 15.7-10.2 26-26 26h-20.3v-13zm16.4-3.6h4.2c6.1 0 9-3.3 9-10.1v-32.4h-4.2c-6.1 0-9 3.3-9 10.1v32.4z"/>
		<path class="st0" d="m626.2 840.9h-58.4c3.5-38.4 26.1-60.5 58.4-62.5v62.5zm-39.9-89h16.7v16.4h-16.7v-16.4zm2.7 72.6h20.8v-25.9c-10.8 4.4-17.6 15-20.8 25.9zm20.8-72.6h16.4v16.4h-16.4v-16.4z"/>
		<path class="st0" d="m674.9 824.5v-9.9c0-6.8-1.6-11.6-5.1-14.5-2.1-1.8-4.5-3.2-7.2-4-4.1-1-8.3-1.5-12.6-1.4v-16.4h5.4c8-0.2 15.9 2.1 22.5 6.6 9 6.2 13.5 16 13.5 29.5v26.5h-52.9v-16.4h36.4z"/>
		<path class="st0" d="m703.9 840.9v-89.1h16.4v72.7h1.1v16.5l-17.5-0.1z"/>
		<path class="st0" d="m720.3 824.5h28.9c1.7 0.1 3.5-0.2 5.1-0.8-2.6-9.4-8-17.8-15.5-24.1l8-19.7c5.6-0.8 11.3-1.3 17-1.4 17.1 0 25.5 6.5 25.5 19.5 0 8.1-4.1 17-12 26.6h12.7v16.4h-12.3c-8.6 0-9.7-0.1-13.9-1.9-2.9 1.6-4.8 1.9-14.1 1.9h-29.4v-16.5zm46.1-11.4c4.6-5.2 7-9.4 7-12.4 0-4.1-3.6-6.1-11.1-6.2l-5.5 0.3c6.9 7.2 8.7 11.8 9.6 18.3z"/>
		<path class="st0" d="m832.1 824.5v-23.9h16.4v23.9h18.8v-34.9h16.4v34.9h18.4v-46.1h16.4v46.1h1v16.4h-130.3v-16.4h42.9z"/>
		<path class="st0" d="M918.5,824.5h20.3v-72.7h16.4V841h-36.7V824.5z"/>
		<path class="st0" d="m984.1 840.9h-16.4v-89.1h16.4v89.1z"/>
</svg>
