<svg xmlns="http://www.w3.org/2000/svg" viewBox="0 0 109 21"><path d="M24.5 17h-2.1l4.7-13.1h2.3L34.2 17h-2.1l-1.2-3.5h-5.1L24.5 17zm1.8-5.1h4l-1.9-5.6h-.1l-2 5.6zm9.6 8.8V7.2h1.9v1.6h.2c.1-.2.3-.4.5-.7.2-.3.5-.5.9-.7.4-.2.9-.3 1.5-.3.8 0 1.5.2 2.1.6.6.4 1.1 1 1.5 1.7.4.8.5 1.7.5 2.7 0 1.1-.2 2-.5 2.7-.4.8-.8 1.3-1.5 1.7-.6.4-1.3.6-2.1.6-.6 0-1.1-.1-1.5-.3s-.7-.4-.9-.7c-.2-.3-.4-.5-.5-.7h-.1v5.2h-2zm1.9-8.6c0 1 .2 1.9.7 2.5s1.1 1 1.9 1c.6 0 1-.2 1.4-.5s.7-.7.9-1.2.3-1.1.3-1.8-.1-1.2-.3-1.7c-.2-.5-.5-.9-.9-1.2-.4-.3-.9-.4-1.4-.4-.8 0-1.5.3-1.9.9-.5.5-.7 1.4-.7 2.4zm9.2 8.6V7.2h1.9v1.6h.1c.1-.2.3-.4.5-.7.2-.3.5-.5.9-.7.4-.2.9-.3 1.5-.3.8 0 1.5.2 2.1.6.6.4 1.1 1 1.5 1.7.4.8.5 1.7.5 2.7 0 1.1-.2 2-.5 2.7-.4.8-.8 1.3-1.5 1.7-.6.4-1.3.6-2.1.6-.6 0-1.1-.1-1.5-.3s-.7-.4-.9-.7c-.2-.3-.4-.5-.5-.7h-.1v5.2H47zm1.9-8.6c0 1 .2 1.9.7 2.5s1.1 1 1.9 1c.6 0 1-.2 1.4-.5s.7-.7.9-1.2.3-1.1.3-1.8-.1-1.2-.3-1.7c-.2-.5-.5-.9-.9-1.2-.4-.3-.9-.4-1.4-.4-.8 0-1.5.3-1.9.9-.5.5-.7 1.4-.7 2.4zm21.3-4.8c-.1-.6-.3-1.1-.8-1.4s-1.1-.5-1.9-.5c-.8 0-1.4.2-1.9.5-.5.4-.7.8-.7 1.4 0 .4.1.8.4 1s.6.5.9.6c.4.1.7.3 1.1.4l1.3.3c.4.1.8.2 1.3.4.4.2.8.4 1.2.7s.7.6.9 1.1.3.9.3 1.5c0 .7-.2 1.4-.6 2-.4.6-.9 1-1.7 1.4s-1.6.5-2.6.5c-1.5 0-2.6-.3-3.5-1-.9-.7-1.3-1.6-1.4-2.8h2c.1.7.4 1.2.9 1.6.6.3 1.2.5 2 .5s1.5-.2 2.1-.6c.5-.4.8-.9.8-1.5 0-.4-.1-.7-.3-1s-.5-.5-.9-.6c-.4-.2-.8-.3-1.3-.4l-1.5-.4c-1.1-.3-1.9-.7-2.5-1.3-.6-.6-.9-1.3-.9-2.2 0-.8.2-1.4.6-2s1-1 1.7-1.3c.7-.3 1.5-.5 2.4-.5.9 0 1.7.2 2.3.5s1.2.7 1.6 1.3c.4.5.6 1.2.6 1.9h-1.9zm8.8-.1v1.5h-2v5.4c0 .6.1.9.4 1.1.2.2.5.2.8.2h.4c.1 0 .2 0 .3-.1l.3 1.6c-.1 0-.3.1-.5.1s-.5.1-.8.1c-.5 0-1-.1-1.4-.3s-.8-.5-1.1-.9c-.3-.4-.4-.9-.4-1.5V8.7h-1.4V7.2H75V4.8h2v2.4h2zm6.2 10c-.9 0-1.7-.2-2.4-.6-.7-.4-1.2-1-1.6-1.8-.4-.8-.6-1.6-.6-2.7 0-1 .2-1.9.6-2.7.4-.8.9-1.4 1.6-1.8.7-.4 1.5-.6 2.4-.6.9 0 1.7.2 2.4.6.7.4 1.2 1 1.6 1.8.4.8.6 1.7.6 2.7 0 1-.2 1.9-.6 2.7-.4.8-.9 1.4-1.6 1.8-.7.4-1.5.6-2.4.6zm0-1.6c.6 0 1.1-.2 1.5-.5s.7-.7.9-1.3.3-1.1.3-1.7c0-.6-.1-1.2-.3-1.7s-.5-1-.9-1.3-.9-.5-1.5-.5-1.1.2-1.5.5c-.4.3-.7.7-.9 1.3-.2.5-.3 1.1-.3 1.7 0 .6.1 1.2.3 1.7.2.5.5.9.9 1.3.4.3.9.5 1.5.5zm6.7 1.4V7.2h1.8v1.6h.1c.2-.5.5-.9.9-1.2s1-.5 1.5-.5h.8v1.8c-.1 0-.2 0-.4-.1H96c-.7 0-1.2.2-1.7.6-.4.4-.7.9-.7 1.6v6h-1.7zm10.8.2c-1 0-1.8-.2-2.5-.6-.7-.4-1.2-1-1.6-1.8-.4-.8-.6-1.6-.6-2.7 0-1 .2-1.9.6-2.7.4-.8.9-1.4 1.6-1.8.7-.4 1.5-.6 2.4-.6.7 0 1.4.2 2.1.5.7.3 1.2.9 1.6 1.6.4.7.6 1.7.6 2.9v.7h-7c0 .9.3 1.7.8 2.2.5.5 1.2.8 2 .8.5 0 1-.1 1.4-.4s.7-.6.8-1l1.8.3c-.2.8-.7 1.4-1.4 1.9s-1.6.7-2.6.7zm-2.8-6h5.1c0-.8-.2-1.4-.7-1.9-.4-.5-1-.7-1.8-.7-.5 0-1 .1-1.4.4-.4.2-.7.6-.9 1-.1.3-.3.8-.3 1.2z"/><path d="M14.1 11.2c0-.8.2-1.6.6-2.2.4-.7.9-1.3 1.6-1.7-.4-.6-1-1.1-1.6-1.5-.7-.4-1.4-.5-2.1-.6-1.6-.2-3.1.9-3.9.9-.8 0-2.1-.9-3.4-.9-.9.1-1.7.3-2.5.8S1.5 7.1 1.1 7.8C-.7 11 .6 15.6 2.4 18.2c.9 1.3 1.9 2.6 3.2 2.6 1.3-.1 1.8-.8 3.4-.8 1.6 0 2 .8 3.4.8s2.3-1.3 3.1-2.5c.6-.9 1.1-1.9 1.4-2.9-.8-.3-1.5-.9-2-1.7-.5-.8-.8-1.7-.8-2.5zm-2.5-7.7c.8-.9 1.1-2.1 1.1-3.3-1.2.1-2.3.7-3 1.6-.5.4-.8.9-1 1.5S8.5 4.4 8.5 5c.6 0 1.2-.1 1.7-.4.5-.3 1-.6 1.4-1.1z" fill-rule="evenodd" clip-rule="evenodd"/></svg>