<svg xmlns="http://www.w3.org/2000/svg" viewBox="0 0 127 21"><path d="M34.3 8c-.2-.8-.7-1.4-1.2-1.8s-1.3-.7-2.2-.7c-.7 0-1.4.2-2 .6-.6.4-1.1.9-1.4 1.7-.3.7-.5 1.6-.5 2.6 0 1.1.2 2 .5 2.7.3.7.8 1.3 1.4 1.7.6.4 1.3.6 2.1.6 1 0 1.9-.3 2.5-.9s1-1.5 1-2.5h-3.2v-1.6h5.1v1.5c0 1.1-.2 2.1-.7 2.9-.5.8-1.1 1.4-1.9 1.9-.8.3-1.8.5-2.8.5-1.2 0-2.2-.3-3.1-.8-.9-.6-1.6-1.4-2.1-2.4s-.7-2.2-.7-3.6.3-2.6.8-3.6S27.1 5 28 4.5c.9-.5 1.9-.8 3-.8.9 0 1.8.2 2.6.5.8.4 1.4.9 1.9 1.5s.8 1.4 1 2.2h-2.2zm8.6 9.2c-.9 0-1.7-.2-2.4-.6-.7-.4-1.2-1-1.6-1.8-.4-.8-.6-1.6-.6-2.7 0-1 .2-1.9.6-2.7.4-.8.9-1.4 1.6-1.8.7-.4 1.5-.6 2.4-.6.9 0 1.7.2 2.4.6.7.4 1.2 1 1.6 1.8.4.8.6 1.7.6 2.7 0 1-.2 1.9-.6 2.7-.4.8-.9 1.4-1.6 1.8-.7.4-1.5.6-2.4.6zm0-1.6c.6 0 1.1-.2 1.5-.5s.7-.7.9-1.3.3-1.1.3-1.7c0-.6-.1-1.2-.3-1.7s-.5-1-.9-1.3-.9-.5-1.5-.5-1.1.2-1.5.5c-.4.3-.7.7-.9 1.3-.2.5-.3 1.1-.3 1.7 0 .6.1 1.2.3 1.7.2.5.5.9.9 1.3.4.3.9.5 1.5.5zm10.8 1.6c-.9 0-1.7-.2-2.4-.6-.7-.4-1.2-1-1.6-1.8-.4-.8-.6-1.6-.6-2.7 0-1 .2-1.9.6-2.7.4-.8.9-1.4 1.6-1.8.7-.4 1.5-.6 2.4-.6.9 0 1.7.2 2.4.6.7.4 1.2 1 1.6 1.8.4.8.6 1.7.6 2.7 0 1-.2 1.9-.6 2.7-.4.8-.9 1.4-1.6 1.8-.6.4-1.4.6-2.4.6zm0-1.6c.6 0 1.1-.2 1.5-.5s.7-.7.9-1.3.3-1.1.3-1.7c0-.6-.1-1.2-.3-1.7s-.5-1-.9-1.3-.9-.5-1.5-.5-1.1.2-1.5.5c-.4.3-.7.7-.9 1.3-.2.5-.3 1.1-.3 1.7 0 .6.1 1.2.3 1.7.2.5.5.9.9 1.3.5.3.9.5 1.5.5zm10.9 5.3c-1.2 0-2.1-.2-2.8-.7-.7-.4-1.1-1-1.4-1.5L62 18c.1.2.3.4.5.6.2.2.5.4.8.5.3.1.8.2 1.3.2.7 0 1.3-.2 1.8-.5s.7-.9.7-1.7v-1.9H67c-.1.2-.3.4-.5.7s-.5.5-.9.7c-.4.2-.9.3-1.5.3-.8 0-1.5-.2-2.1-.5s-1.1-.9-1.5-1.6c-.3-.8-.5-1.7-.5-2.7s.2-1.9.5-2.7c.4-.7.8-1.3 1.5-1.7s1.3-.6 2.1-.6c.6 0 1.1.1 1.5.3.4.2.7.4.9.7s.4.5.5.7h.1V7.2H69v10c0 .8-.2 1.5-.6 2.1-.4.5-.9.9-1.6 1.2s-1.4.4-2.2.4zm-.1-5.6c.8 0 1.5-.3 1.9-.9.4-.6.7-1.4.7-2.4s-.2-1.8-.7-2.4c-.4-.6-1-.9-1.9-.9-.6 0-1.1.1-1.4.4-.4.3-.7.7-.9 1.2-.2.5-.3 1.1-.3 1.7 0 1 .2 1.7.7 2.3s1.1 1 1.9 1zm9-11.4V17h-1.9V3.9h1.9zm6.8 13.3c-1 0-1.8-.2-2.5-.6-.7-.4-1.2-1-1.6-1.8-.4-.8-.6-1.6-.6-2.7 0-1 .2-1.9.6-2.7.4-.8.9-1.4 1.6-1.8.7-.4 1.5-.6 2.4-.6.7 0 1.4.2 2.1.5.7.3 1.2.9 1.6 1.6.4.7.6 1.7.6 2.9v.7h-7c0 .9.3 1.7.8 2.2.5.5 1.2.8 2 .8.5 0 1-.1 1.4-.4s.7-.6.8-1l1.8.3c-.2.8-.7 1.4-1.4 1.9s-1.6.7-2.6.7zm-2.8-6h5.1c0-.8-.2-1.4-.7-1.9-.4-.5-1-.7-1.8-.7-.5 0-1 .1-1.4.4-.4.2-.7.6-.9 1-.1.3-.3.8-.3 1.2zm14 5.8V3.9h4.7c1 0 1.9.2 2.5.6.7.4 1.2.9 1.5 1.5s.5 1.4.5 2.2c0 .8-.2 1.5-.5 2.2-.3.6-.8 1.1-1.5 1.5-.7.4-1.5.6-2.5.6h-2.7V17h-2zm2-6.3H96c1 0 1.7-.2 2.1-.7.4-.5.6-1.1.6-1.8s-.2-1.4-.6-1.8c-.4-.6-1.1-.8-2.1-.8h-2.5v5.1zm11.3-6.8V17h-1.9V3.9h1.9zm5.4 13.3c-.6 0-1.2-.1-1.7-.3-.5-.2-.9-.6-1.2-1s-.4-1-.4-1.6c0-.6.1-1 .3-1.4s.5-.6.9-.9c.4-.2.8-.4 1.2-.5s.9-.2 1.4-.2c.6-.1 1.1-.1 1.4-.2.4 0 .6-.1.8-.2.2-.1.3-.3.3-.5 0-.6-.2-1-.5-1.3-.3-.3-.8-.5-1.4-.5-.6 0-1.1.1-1.5.4-.4.3-.6.6-.8.9l-1.8-.4c.3-.9.9-1.5 1.6-1.9.7-.4 1.6-.6 2.5-.6.4 0 .8 0 1.2.1.4.1.9.3 1.2.5.4.2.7.6 1 1 .2.4.4 1 .4 1.7V17h-1.9v-1.3h-.1c-.2.4-.5.7-1 1.1-.4.2-1.1.4-1.9.4zm.4-1.5c.5 0 1-.1 1.4-.3s.7-.5.9-.8c.2-.3.3-.7.3-1.1v-1.3c-.1.1-.3.2-.6.2-.3.1-.6.1-1 .2-.3 0-.6.1-.8.1-.6.1-1 .2-1.4.4-.4.2-.6.6-.6 1.1 0 .5.2.8.5 1.1.4.3.8.4 1.3.4zm7.9 5c-.3 0-.5 0-.8-.1-.2 0-.4-.1-.5-.1l.5-1.6c.5.1 1 .2 1.3 0 .4-.1.7-.5.9-1.1l.2-.7-3.6-9.9h2l2.5 7.6h.1l2.5-7.6h2.1l-4.1 11.1c-.3.8-.7 1.3-1.2 1.7-.5.5-1.2.7-1.9.7z"/><path d="M10.2 10.7l2.7 2.7-11.4 6.4c-.2.1-.4.2-.6.2l9.3-9.3zM.1.6L9.6 10 .1 19.5c-.1-.2-.1-.3-.1-.4V1C0 .9.1.7.1.6zm13.7 6.5l3.8 2.1c.3.3.6.5.6.8s-.2.5-.6.8l-3.8 2.1-2.9-2.9 2.9-2.9zM.8 0c.2 0 .5.1.7.3l11.4 6.4-2.7 2.6L.8 0z" fill-rule="evenodd" clip-rule="evenodd" fill="#282828"/></svg>