<svg xmlns="http://www.w3.org/2000/svg" viewBox="0 0 100 40.45">
  <rect width="100" height="40.45" fill="#ffb3c7" rx="11.74"/>
  <path d="M80.08 17.72a6.2 6.2 0 1 0 0 10.24v.75h3.51V16.97h-3.51Zm-3.2 8.14a3.02 3.02 0 1 1 3.19-3.02 3.1 3.1 0 0 1-3.19 3.02Z"/>
  <path d="M28.2 11.74h3.68v16.97H28.2z"/>
  <path d="M64.15 16.66a4.27 4.27 0 0 0-3.62 1.64v-1.33h-3.5v11.74h3.55v-6.17a2.48 2.48 0 0 1 2.63-2.66c1.55 0 2.44.93 2.44 2.64v6.2h3.5v-7.47c0-2.74-2.16-4.6-5-4.6Z"/>
  <path d="M43 17.72a6.2 6.2 0 1 0 0 10.24v.75h3.51V16.97H43Zm-3.2 8.14a3.02 3.02 0 1 1 3.2-3.02 3.1 3.1 0 0 1-3.19 3.02Z"/>
  <path d="M51.95 18.5v-1.53h-3.6v11.74h3.6v-5.48c0-1.85 2.01-2.84 3.4-2.84h.05v-3.42a4.38 4.38 0 0 0-3.45 1.53Z"/>
  <path d="M87.32 24.55a2.2 2.2 0 1 0 2.2 2.2 2.2 2.2 0 0 0-2.2-2.2Z"/>
  <path d="M25.67 11.74h-3.81a9.75 9.75 0 0 1-3.95 7.87l-1.5 1.13 5.85 7.98h4.8l-5.38-7.35a13.5 13.5 0 0 0 3.99-9.63Z"/>
  <path d="M12.12 11.74h3.82v16.98h-3.82z"/>
</svg>
