<svg xmlns="http://www.w3.org/2000/svg" viewBox="0 0 16 16">
    <path d="M8.8 0h2.5c.9 0 1.4.2 1.9.4s1 .5 1.4.9c.4.4.7.9.9 1.4.2.5.3 1.1.4 1.9v6.6c0 .9-.2 1.4-.4 1.9s-.5 1-.9 1.4c-.4.4-.9.7-1.4.9-.5.2-1.1.3-1.9.4H4.7c-.9 0-1.4-.2-1.9-.4s-1-.5-1.4-.9c-.4-.4-.7-.9-.9-1.4-.2-.5-.3-1.1-.4-1.9V4.7c0-.9.2-1.4.4-1.9s.5-1 .9-1.4c.4-.4.9-.7 1.4-.9C3.3.3 3.9.2 4.7.1h4.1zm-.2 1.4H4.8c-.8.1-1.2.3-1.5.4-.4.1-.7.3-.9.6-.3.2-.5.5-.6.9-.1.3-.3.7-.3 1.5v6.4c0 .8.2 1.2.3 1.5.1.4.3.6.6.9.3.3.5.5.9.6.3.1.7.2 1.5.3h6.5c.8 0 1.2-.2 1.5-.3.4-.1.6-.3.9-.6.3-.3.5-.5.6-.9.1-.3.2-.7.3-1.5V4.7c0-.8-.2-1.2-.3-1.5-.1-.4-.3-.6-.6-.9-.3-.3-.5-.5-.9-.6-.3-.1-.7-.2-1.5-.3-.8.1-1.1 0-2.7 0zM8 4c2.2 0 4 1.8 4 4s-1.8 4-4 4-4-1.8-4-4 1.8-4 4-4zm0 1.4C6.6 5.4 5.4 6.6 5.4 8c0 1.4 1.2 2.6 2.6 2.6 1.4 0 2.6-1.2 2.6-2.6 0-1.4-1.2-2.6-2.6-2.6zm4.3-2.7c.6 0 1 .4 1 1s-.4 1-1 1-1-.4-1-1 .5-1 1-1z" fill-rule="evenodd" clip-rule="evenodd"/>
</svg>
