<svg xmlns="http://www.w3.org/2000/svg" viewBox="0 0 601 115" fill="#00A0D6">
  <path d="m.5 23 24.5-.1c1.4 0 1.7.6 1.6 1.8V29c.3-.1.6 0 .7-.2a32 32 0 0 1 51.8 12.4c5.9 15.4 4.8 30.3-6.4 43.3C61 98.3 38.6 99 27.5 90.1l-1-.4V114H2.8c-1.8 0-2.4-.2-2.4-2.2L.5 23zm25.4 35.1a14 14 0 0 0 14.2 14.8c8 .1 14.2-5.8 14.4-13.8.1-9.2-5.4-15.4-13.9-15.5-8.6-.1-14.6 5.7-14.7 14.5z"/>
  <path d="M600.5 94c-7.3-.5-14.6-.1-22-.2h-2.2c-1.6.2-2-.6-1.9-2v-4.5l-4 3.3a33.1 33.1 0 0 1-42-4.5 43 43 0 0 1-.2-54.2c11.6-13 33.7-14.6 45.3-5.4l.9.3c0-6.3.1-12.4-.1-18.5 0-1.9.7-2.4 2.3-2.7l20.8-4c.4-.1.8 0 1-.5 1.7-.4 2.1.3 2 2l.1 90.9zm-54-35.8c0 8.7 5.8 14.8 14.1 14.8 8.5 0 14.4-6 14.5-14.7 0-8.5-5.9-14.5-14.4-14.5s-14.2 5.8-14.2 14.4z"/>
  <path d="M418.7 20.5a52 52 0 0 1 21 4 34.9 34.9 0 0 1 21.6 36.4C459.7 80.4 446.5 91.7 429 95a51.1 51.1 0 0 1-30.4-3c-15.4-6.6-22.2-19.7-21.4-35.5 1.2-22.5 17.6-33.1 35.1-35.4 2.5-.4 5-.5 6.4-.6zm-13.9 37.8a14 14 0 0 0 14.4 14.6c8.4-.1 14.2-6.1 14.2-14.5 0-8.8-5.9-14.8-14.4-14.8-8.4 0-14.2 6.1-14.2 14.7z"/>
  <path d="M129.2 20.5c10.9.3 21.1 2.7 29.7 9.9 7.1 6 10.8 13.8 11.6 23 .9 10.5-1 20.3-8.1 28.5a39.3 39.3 0 0 1-22.9 12.8 51.8 51.8 0 0 1-31.1-2.6c-16.7-6.8-23.3-21.5-21.7-37.9 1.8-18.4 14.7-29.3 31.8-32.7 3.5-.7 7.1-1 10.7-1zm-.5 23.1c-8.5-.1-14.5 5.9-14.6 14.6a14.1 14.1 0 0 0 14.4 14.6 14 14 0 0 0 14.4-14.4 14 14 0 0 0-14.2-14.8z"/>
  <path d="M324.6 28.7c8.6-8.4 18.7-9.7 29.5-6.8 9.8 2.6 14.4 10 16.3 19.5.5 2.5.6 5.1.6 7.7v42.2c0 1.9-.4 2.6-2.4 2.6h-21.5c-1.9 0-2.5-.5-2.5-2.5.1-11.7 0-23.5-.1-35.2a14 14 0 0 0-.4-3.5c-1.2-6.3-3.8-8.4-9.8-8.2-5.8.2-9.4 3.4-9.9 9.2-.6 6.6-.2 13.2-.2 19.7a552 552 0 0 0 0 18.2c0 1.8-.5 2.3-2.3 2.2h-22c-1.6 0-2.1-.4-2.1-2.1V25c0-1.9.6-2.1 2.3-2.1h21.5c2.1 0 2.8.6 2.6 2.6 0 .9-.1 2 .4 3.2z"/>
  <path d="M211.2 20.5c8.7.3 16.6 1 24.5 2.8 1.6.4 2 .9 1.5 2.5-1.3 5.2-2.6 10.5-3.7 15.8-.4 2-1.1 2-2.8 1.5a56.7 56.7 0 0 0-26.8-2.2c-1.6.5-2.8 1.4-2.8 3.1 0 1.8 1.4 2.6 2.9 2.9 5.6 1.3 11.4 1.6 16.9 3 3 .8 5.9 1.7 8.7 3a17.8 17.8 0 0 1 10.9 18.2c-.3 10.1-5.5 16.6-14.5 20.5a60.5 60.5 0 0 1-22.7 4.1 99 99 0 0 1-28.6-3.7c-1.5-.4-1.9-.9-1.5-2.5 1.5-5.5 2.9-11.1 4.2-16.7.4-1.8 1.1-1.9 2.7-1.3a61.5 61.5 0 0 0 26.8 4.6c1.3-.1 2.5-.3 3.6-.8 1.3-.6 2.2-1.5 2.2-3 0-1.6-.9-2.4-2.3-2.9-2.9-1.1-6-1.4-9-1.8a63.5 63.5 0 0 1-15.5-3.6 20.3 20.3 0 0 1-5.6-34.5 39.6 39.6 0 0 1 22.6-8.3c3.2-.5 6.1-.5 8.3-.7z"/>
  <path d="M245.5 50.3v-41c0-1.9.5-2.3 2.3-2.3h21.7c2 0 2.3.7 2.3 2.4l-.1 11.5c-.1 1.7.6 2.1 2.2 2.1l19.8-.1c1.7 0 2.3.3 1.3 2l-10.1 18.7c-.6 1.1-1.3 1.5-2.6 1.5-2.7-.1-5.5.1-8.2-.1-1.9-.1-2.4.5-2.3 2.3v43.2c0 3.2 0 3.2-3.2 3.2-6.8 0-13.7-.1-20.5.1-2.1 0-2.7-.5-2.6-2.6V50.3z"/>
  <path d="M493.6 30.5c6-8.1 13.9-9.1 22.5-8.5 1.6.1 2.3.7 2.2 2.5-.3 6.7-.4 13.5-.5 20.2 0 1.6-.5 2-2.1 1.6-3-.8-6.1-1-9.2-.8-8.6.7-12.9 5.3-12.9 14 0 10.5-.1 21 0 31.5 0 2.1-.4 2.9-2.7 2.8-7.1-.2-14.2-.1-21.2 0-1.6 0-2.3-.2-2.3-2.1V25c0-1.6.4-2.1 2.1-2.1h22.2c1.6 0 2 .5 1.9 2v5.6z"/>
</svg>
