<svg width="98" height="17" viewBox="0 0 98 17" xmlns="http://www.w3.org/2000/svg"><title>DB-SCHENKER_4c_M</title><g fill="none" fill-rule="evenodd"><path d="M33.79 8.41l-.149-.064c-.96-.417-.998-.431-1.226-.595-.314-.224-.42-.397-.42-.688 0-.512.424-.774 1.26-.774.74 0 1.28.127 2.14.51l.135.058V4.9l-.063-.024c-.826-.303-1.518-.433-2.311-.433-2.134 0-3.356 1.037-3.356 2.846 0 1.363.61 2.144 2.174 2.788 1.664.7 1.821.875 1.821 1.386 0 .595-.497.899-1.473.899-.844 0-1.482-.17-2.434-.645l-.14-.07v1.959l.056.027c.885.409 1.658.575 2.667.575 2.334 0 3.62-1.038 3.62-2.922 0-1.428-.582-2.154-2.301-2.876m9.988 3.49c-.88.332-1.453.448-2.196.448-1.542 0-2.143-.834-2.143-2.978 0-2.238.583-3.069 2.157-3.069.729 0 1.366.131 2.13.434l.131.053V4.851l-.062-.024a6.362 6.362 0 0 0-2.262-.384c-1.284 0-2.378.365-3.162 1.058-.982.865-1.44 2.097-1.44 3.882 0 1.513.312 2.596.98 3.404.779.93 2.005 1.42 3.547 1.42.863 0 1.691-.176 2.394-.512l.056-.026v-1.817l-.13.049m7.156-7.243v3.63H47.64v-3.63h-2.383v9.361h2.383V10.16h3.293v3.86h2.383V4.657h-2.383m6.54 7.463v-1.96h3.175V8.35h-3.175V6.556h4.02V4.658h-6.403v9.361h6.595l.166-1.898h-4.378m11.508-7.463v5.116l-3.838-5.116h-2v9.361h2.022V8.36l4.251 5.66h1.587V4.657h-2.022m8.21 4.41l3.49-4.41h-2.477L75.16 8.654V4.658H72.78v9.361h2.382V10.06l2.995 3.96h2.831l-3.795-4.952m7.03 3.053v-1.96h3.175V8.35h-3.174V6.556h4.02V4.658h-6.402v9.361h6.594l.168-1.898h-4.38m11.762-1.477c-.262-.431-.534-.701-.833-.885 1.213-.401 1.756-1.1 1.756-2.33 0-1.865-1.136-2.771-3.47-2.771h-3.545v9.361h2.384v-3.693h.303c.537 0 .73.144 1.15.86l1.659 2.833h2.6l-2.004-3.375zm-3.708-4.18h1.086c.928 0 1.225.266 1.225 1.09 0 .82-.332 1.126-1.225 1.126h-1.086V6.465z" fill="#1A1919"/><path d="M21.463.065H2.46A2.386 2.386 0 0 0 .07 2.466v12.038c0 1.353 1.082 2.427 2.39 2.427h19.003c1.308 0 2.39-1.074 2.39-2.427V2.466a2.386 2.386 0 0 0-2.39-2.401" fill="#D8232A"/><path d="M22.117 14.504c0 .383-.277.69-.654.69H2.46c-.377 0-.654-.307-.654-.69V2.466c0-.383.277-.69.654-.69h19.003c.377 0 .654.307.654.69v12.038" fill="#FFFFFE"/><path d="M7.343 14.018H3.341V2.978h4.002c2.819 0 4.376 1.788 4.376 5.468 0 3.195-1.054 5.546-4.376 5.572zM9.08 8.676c0-2.224-.228-3.96-2.592-3.96h-.53v7.512h.931c1.385 0 2.191-1.124 2.191-3.552zm9.551-.434c.772-.207 1.906-1.099 1.906-2.57 0-.23-.048-2.69-3.112-2.69h-4.56v11.036h3.853c1.02 0 4.2 0 4.2-3.104 0-.776-.312-2.235-2.287-2.672zm-3.174-3.558h.825c1.172 0 1.637.415 1.637 1.328 0 .727-.512 1.336-1.423 1.336h-1.039V4.684zm1.072 7.544h-1.072V9.391h1.144c1.36 0 1.691.804 1.691 1.419 0 1.418-1.348 1.418-1.763 1.418z" fill="#D8232A"/></g></svg>