<svg xmlns="http://www.w3.org/2000/svg" viewBox="0 0 578 176">
  <defs>
    <linearGradient id="swish-orange-gradient" x1="80.8%" x2="59.9%" y1="59.6%" y2="8.1%">
      <stop offset="0%" stop-color="#EF2131"/>
      <stop offset="100%" stop-color="#FECF2C"/>
    </linearGradient>
    <linearGradient id="swish-purple-gradient" x1="58.8%" x2="9.2%" y1="0%" y2="94.1%">
      <stop offset="0%" stop-color="#FBC52C"/>
      <stop offset="26.4%" stop-color="#F87130"/>
      <stop offset="56.1%" stop-color="#EF52E2"/>
      <stop offset="100%" stop-color="#661EEC"/>
    </linearGradient>
    <linearGradient id="swish-blue-gradient" x1="20.6%" x2="40.6%" y1="41%" y2="91.3%">
      <stop offset="0%" stop-color="#78F6D8"/>
      <stop offset="26.6%" stop-color="#77D1F6"/>
      <stop offset="55.4%" stop-color="#70A4F3"/>
      <stop offset="100%" stop-color="#661EEC"/>
    </linearGradient>
    <linearGradient id="swish-green-gradient" x1="42.4%" x2="91.6%" y1="100%" y2="6.3%">
      <stop offset="0%" stop-color="#536EED"/>
      <stop offset="24.7%" stop-color="#54C3EC"/>
      <stop offset="56.4%" stop-color="#64D769"/>
      <stop offset="100%" stop-color="#FECF2C"/>
    </linearGradient>
  </defs>
  <g fill="none" fill-rule="evenodd">
    <path fill="#4A4A49" fill-rule="nonzero" d="M549 48.9a14.6 14.6 0 0 1 14.3-14.6 14 14 0 0 1 10.1 4.2 14.7 14.7 0 0 1 3.1 16.1 14.7 14.7 0 0 1-7.6 7.8 14 14 0 0 1-11.2 0 14.2 14.2 0 0 1-7.5-7.8c-.8-1.8-1.1-3.7-1.1-5.7Zm3 0a12.6 12.6 0 0 0 3.2 8.5 11.2 11.2 0 0 0 18.6-3.8c.6-1.5.9-3 .9-4.7a12.3 12.3 0 0 0-3.3-8.4 11.3 11.3 0 0 0-12.6-2.6 11.2 11.2 0 0 0-6 6.3c-.5 1.5-.8 3-.8 4.7Zm6.4-6.3c0-.9.4-1.3 1.3-1.3h4.5a5 5 0 0 1 3.5 1.2c.8.9 1.2 2 1.2 3.4a4.4 4.4 0 0 1-.9 2.7 4 4 0 0 1-.9.9 3 3 0 0 1-1 .4l.2.2.2.3c0 .1 0 .3.2.4l2 4c.3.5.4.9.2 1.2 0 .3-.4.4-.8.4h-.5c-.8 0-1.3-.3-1.6-1l-2.3-4.9h-2.5v4.6c0 .9-.4 1.3-1.2 1.3h-.4c-.8 0-1.2-.4-1.2-1.3V42.6Zm5.2 5.9c.8 0 1.4-.3 1.8-.7a3 3 0 0 0 .7-1.9c0-.8-.3-1.4-.7-1.8-.4-.4-1-.6-1.7-.6h-2.5v5h2.4ZM447 58c4.5 0 8.4.6 11.5 1.8a46 46 0 0 1 7.4 3.2c1.5.8 2.4 1.8 2.7 3.2.2 1.3 0 2.7-.7 4.2l-1.3 2.4c-.8 1.6-1.8 2.6-3 2.8-1.3.3-2.8 0-4.5-.6a60 60 0 0 0-5.4-2.2c-2.2-.8-4.6-1.2-7.5-1.2-3 0-5.2.6-6.8 1.8a5.7 5.7 0 0 0-2.4 4.9c0 1.9.9 3.4 2.5 4.5 1.6 1.2 3.7 2.2 6.3 3l8 3c3 1 5.7 2.3 8.2 3.9a20 20 0 0 1 6.2 6.1c1.7 2.5 2.5 5.6 2.5 9.5a19.2 19.2 0 0 1-7 14.9c-2.3 1.8-5 3.3-8.2 4.4s-6.7 1.6-10.6 1.6c-5.5 0-10.1-.8-14-2.4a49.6 49.6 0 0 1-8.6-4.6c-1.5-.8-2.4-2-2.6-3.3-.1-1.3.3-2.7 1.2-4.3l1.6-2.3c1-1.5 2.1-2.3 3.3-2.4 1.2-.2 2.6.1 4.3 1 1.6 1 3.7 2 6.2 3s5.5 1.7 9 1.7c3 0 5.2-.6 6.9-1.9a6 6 0 0 0 2.5-5 5 5 0 0 0-2.4-4.5 30.9 30.9 0 0 0-6.3-3l-8.1-3a39 39 0 0 1-8.1-4 17.1 17.1 0 0 1-8.7-15.7 18.4 18.4 0 0 1 7.6-15.3A32.7 32.7 0 0 1 447 58Zm-197.7 0c4.5 0 8.4.6 11.5 1.8a46 46 0 0 1 7.4 3.2c1.5.8 2.4 1.8 2.7 3.2.2 1.3 0 2.7-.7 4.2l-1.3 2.4c-.8 1.6-1.9 2.6-3.1 2.8a8 8 0 0 1-4.4-.6 60 60 0 0 0-5.4-2.2c-2.2-.8-4.7-1.2-7.5-1.2-3 0-5.2.6-6.8 1.8a5.7 5.7 0 0 0-2.4 4.9c0 1.9.9 3.4 2.5 4.5a21 21 0 0 0 6.2 3l8.2 3c2.8 1 5.5 2.3 8 3.9 2.6 1.6 4.7 3.6 6.3 6.1 1.7 2.5 2.5 5.6 2.5 9.5a19.2 19.2 0 0 1-7 14.9c-2.3 1.8-5 3.3-8.2 4.4-3.2 1-6.7 1.6-10.6 1.6-5.5 0-10.2-.8-14-2.4a49.6 49.6 0 0 1-8.6-4.6c-1.5-.8-2.4-2-2.6-3.3-.1-1.3.3-2.7 1.2-4.3l1.6-2.3c1-1.5 2.1-2.3 3.3-2.4 1.2-.2 2.6.1 4.3 1 1.6 1 3.7 2 6.2 3 2.5 1.1 5.5 1.7 9 1.7a11 11 0 0 0 6.9-1.9 6 6 0 0 0 2.5-5 5 5 0 0 0-2.4-4.5 29.3 29.3 0 0 0-6.3-3l-8.1-3a43 43 0 0 1-8.1-4 17.1 17.1 0 0 1-8.7-15.7 18.4 18.4 0 0 1 7.6-15.3 32.7 32.7 0 0 1 18.3-5.2Zm242.5-25c3.8 0 5.6 1.9 5.6 5.6V66a35.6 35.6 0 0 1-.4 5.8h.3A26.9 26.9 0 0 1 520.8 58c7.6 0 13.4 2 17.5 6s6.2 10.7 6.2 19.8v38c0 3.8-1.9 5.7-5.6 5.7h-5.7c-3.7 0-5.6-1.9-5.6-5.6V87.3c0-4.1-.7-7.5-2.1-10-1.4-2.5-4.3-3.8-8.5-3.8A18.6 18.6 0 0 0 498.8 87c-1 2.7-1.4 5.7-1.4 8.9v26c0 3.7-1.8 5.6-5.6 5.6h-5.7c-3.7 0-5.6-1.9-5.6-5.6V38.6c0-3.7 1.9-5.6 5.6-5.6h5.7Zm-88.3 26.6c3.6 0 5.4 1.9 5.4 5.6V122c0 3.7-1.8 5.6-5.4 5.6h-5.9c-3.6 0-5.4-1.9-5.4-5.6V65.2c0-3.7 1.8-5.6 5.4-5.6h5.9Zm-112.9 0c3.4 0 5.4 1.7 6 5l10.9 39.7a185.6 185.6 0 0 1 1.3 7.2h.3c0-.8.2-1.5.4-2.3l.5-2.3c0-.8.3-1.7.6-2.6L322 64.6c.6-3.2 2.7-4.8 6.1-4.8h5c3.3 0 5.4 1.6 6.2 4.8l11.3 39.7.6 2.6.5 2.3.4 2.3h.2l.4-2.3.5-2.3.6-2.6 10.8-39.7c.8-3.3 2.8-5 6-5h6.2c2 0 3.5.6 4.2 1.8.8 1.1 1 2.6.4 4.5l-17.4 57c-.9 3.1-3 4.7-6.2 4.7h-9c-3.3 0-5.4-1.6-6.2-4.8l-10.2-34-.7-2.7a52.1 52.1 0 0 0-1-4.6h-.2a88.7 88.7 0 0 0-1.7 7.3l-10.3 34c-.8 3.2-2.8 4.8-6 4.8h-9.3c-3.2 0-5.2-1.6-6-4.7l-17.6-57c-.6-1.9-.4-3.4.4-4.5.9-1.2 2.3-1.8 4.2-1.8h6.4Z"/>
    <path fill="url(#swish-orange-gradient)" d="M0 146.69a87.97 87.97 0 0 0 105.25-22.85A87.89 87.89 0 0 0 94.42 0L69.69 29.46a68.66 68.66 0 0 1 8.46 96.75C58.71 149.38 26.7 157.11 0 146.7" transform="translate(50 20.58)"/>
    <path fill="url(#swish-purple-gradient)" d="M0 146.69a87.97 87.97 0 0 0 113.77-34.92 76.86 76.86 0 0 0-26.5-71.2 76.99 76.99 0 0 0-17.57-11.1 68.66 68.66 0 0 1 8.45 96.74C58.71 149.38 26.7 157.11 0 146.7" transform="translate(50 20.58)"/>
    <path fill="url(#swish-blue-gradient)" d="M125.82 8.56A87.97 87.97 0 0 0 20.57 31.41 87.89 87.89 0 0 0 31.4 155.25l24.73-29.47a68.66 68.66 0 0 1-8.46-96.75C67.11 5.87 99.13-1.87 125.82 8.56"/>
    <path fill="url(#swish-green-gradient)" d="M125.82 8.56A87.97 87.97 0 0 0 12.05 43.47a76.86 76.86 0 0 0 26.5 71.21 77 77 0 0 0 17.58 11.1 68.66 68.66 0 0 1-8.46-96.75C67.11 5.87 99.13-1.87 125.82 8.56"/>
  </g>
</svg>
