<svg xmlns="http://www.w3.org/2000/svg" fill="none" viewBox="0 0 509 159">
  <path fill="#1434CB" d="m193.3 2.8-66.6 153.9H83.2L50.4 33.9c-2.2-7.5-3.7-10.3-9.8-13.6C30.8 15 14.3 10.3 0 7.2l1-4.4h70c8.8 0 17 5.7 18.9 15.7l17.5 89L150 2.8h43.3Zm170.4 103.6c0-40.5-58-42.8-57.8-61 .3-5.4 5.6-11.3 17.5-12.8a80 80 0 0 1 40.6 6.9l7-32.6A110 110 0 0 0 332.7 0c-40.6 0-69.2 21-69.5 50.8-.2 22.3 20.5 34.6 36.1 41.8 16 7.7 21.2 12.5 21.2 19.2 0 10.3-12.7 14.9-24.6 15.1-20.7.3-32.7-5.3-42.2-9.7l-7.4 33.6a127 127 0 0 0 45.6 8.2c43.2 0 71.6-20.5 71.8-52.6Zm107.4 50.3H509L475.9 2.8h-35.3c-7.7 0-14.6 4.4-17.5 11.3l-61.8 142.6h43.2l8.8-23h52.8l5 23ZM425 102l21.7-57.7 12.5 57.7H425ZM252 2.8l-34 153.9h-41L211 2.8h41.1Z"/>
</svg>
