<svg xmlns="http://www.w3.org/2000/svg" width="32.92" height="32.92" viewBox="0 0 32.92 32.92">
  <g id="_002-shop" data-name="002-shop" transform="translate(-10.03 2.226)">
    <g id="shop" transform="translate(10.03 -2.226)">
      <g id="Group_93" data-name="Group 93" transform="translate(26.104 27.39)">
        <g id="Group_92" data-name="Group 92">
          <path id="Path_231" data-name="Path 231" d="M406.643,426a.643.643,0,1,0,.643.643A.643.643,0,0,0,406.643,426Z" transform="translate(-406 -426)" fill="#e30613"/>
        </g>
      </g>
      <g id="Group_95" data-name="Group 95">
        <g id="Group_94" data-name="Group 94">
          <path id="Path_232" data-name="Path 232" d="M28.676,3.05V1.929A1.931,1.931,0,0,0,26.747,0H6.172A1.931,1.931,0,0,0,4.244,1.929V3.05C.05,10.8,0,10.565,0,10.93H0v1.286a3.2,3.2,0,0,0,1.672,2.74v17.32a.643.643,0,0,0,.643.643H30.605a.643.643,0,0,0,.643-.643V14.957a3.236,3.236,0,0,0,1.672-2.74V10.93h0C32.92,10.561,32.829,10.72,28.676,3.05Zm2.513,7.238H27.211l-2.143-6.43h2.586Zm-8.943,1.286H26.1v.643a1.929,1.929,0,0,1-3.858,0Zm-.1-1.286-1.072-6.43h2.635l2.143,6.43ZM5.53,1.929a.644.644,0,0,1,.643-.643H26.747a.644.644,0,0,1,.643.643v.643H5.53Zm15.431,9.645v.643a1.929,1.929,0,0,1-3.858,0v-.643ZM17.1,10.287V3.858h2.67l1.072,6.43Zm-5.028,0,1.072-6.43h2.67v6.43Zm3.742,1.286v.643a1.929,1.929,0,1,1-3.858,0v-.643ZM7.065,10.287l2.143-6.43h2.635l-1.072,6.43Zm3.609,1.286v.643a1.929,1.929,0,0,1-3.858,0v-.643ZM5.267,3.858H7.852l-2.143,6.43H1.73ZM1.286,12.216v-.643H5.53v.643a2.113,2.113,0,0,1-2.122,1.929,2.155,2.155,0,0,1-.84-.176A2,2,0,0,1,1.286,12.216ZM13.245,31.634H6.815V26.1h6.43Zm0-6.815H6.815v-5.53h6.43Zm16.717,6.815H14.531V18.646A.643.643,0,0,0,13.888,18H6.172a.643.643,0,0,0-.643.643V31.634H2.958V15.4a3.341,3.341,0,0,0,.45.031,3.544,3.544,0,0,0,2.347-.92,3.476,3.476,0,0,0,.386-.412,3.211,3.211,0,0,0,5.175.044,3.211,3.211,0,0,0,5.144,0,3.211,3.211,0,0,0,5.144,0,3.211,3.211,0,0,0,5.175-.044,3.481,3.481,0,0,0,.386.412,3.544,3.544,0,0,0,2.347.92,3.327,3.327,0,0,0,.45-.031Zm1.672-19.418A2,2,0,0,1,30.3,13.989a2.136,2.136,0,0,1-.793.156,2.113,2.113,0,0,1-2.122-1.929v-.643h4.244Z" fill="#e30613"/>
        </g>
      </g>
      <g id="Group_97" data-name="Group 97" transform="translate(17.103 18.003)">
        <g id="Group_96" data-name="Group 96">
          <path id="Path_233" data-name="Path 233" d="M276.93,286.815h-.643v-6.173a.643.643,0,0,0-.643-.643h-7.716a.643.643,0,0,0-.643.643v6.173h-.643a.643.643,0,1,0,0,1.286H276.93a.643.643,0,0,0,0-1.286Zm-1.929,0h-6.43v-5.53H275Z" transform="translate(-266 -280)" fill="#e30613"/>
        </g>
      </g>
      <g id="Group_99" data-name="Group 99" transform="translate(18.389 27.39)">
        <g id="Group_98" data-name="Group 98">
          <path id="Path_234" data-name="Path 234" d="M291.787,426h-5.144a.643.643,0,0,0,0,1.286h5.144a.643.643,0,1,0,0-1.286Z" transform="translate(-286 -426)" fill="#e30613"/>
        </g>
      </g>
    </g>
  </g>
</svg>