<svg xmlns="http://www.w3.org/2000/svg" width="25.74" height="33.176" viewBox="0 0 25.74 33.176">
  <g id="weight" transform="translate(-57.381)">
    <g id="Group_8" data-name="Group 8" transform="translate(62.993 2.63)">
      <g id="Group_7" data-name="Group 7" transform="translate(0)">
        <path id="Path_6" data-name="Path 6" d="M151.247,40.593a7.258,7.258,0,0,0-5.536,11.951.648.648,0,0,0,.665.206,17.07,17.07,0,0,1,4.468-.537q.2,0,.392,0h.022q.2,0,.392,0a17.065,17.065,0,0,1,4.468.537.648.648,0,0,0,.665-.206,7.257,7.257,0,0,0-5.536-11.952Zm4.8,10.8a18.88,18.88,0,0,0-4.392-.475q-.2,0-.4,0t-.4,0a18.882,18.882,0,0,0-4.393.475,5.962,5.962,0,1,1,9.591,0Z" transform="translate(-143.989 -40.593)" fill="#e30613"/>
      </g>
    </g>
    <g id="Group_10" data-name="Group 10" transform="translate(57.381)">
      <g id="Group_9" data-name="Group 9" transform="translate(0)">
        <path id="Path_7" data-name="Path 7" d="M83.09,24.382C82.784,20.127,81.3,17,78.679,15.063a9.888,9.888,0,1,0-16.856,0C59.2,17,57.718,20.127,57.412,24.382a7.455,7.455,0,0,0,1.729,5.854,8.694,8.694,0,0,0,4.514,2.379,25.594,25.594,0,0,0,5.878.561c.232,0,.474,0,.718-.005s.486.005.718.005a25.591,25.591,0,0,0,5.878-.561,8.7,8.7,0,0,0,4.514-2.38A7.455,7.455,0,0,0,83.09,24.382Zm-2.678,4.971c-1.605,1.725-4.606,2.528-9.443,2.528-.229,0-.468,0-.709-.005h-.019c-.241,0-.48.005-.709.005-4.837,0-7.838-.8-9.443-2.528A6.145,6.145,0,0,1,58.7,24.475c.3-4.109,1.762-7.034,4.359-8.692a.648.648,0,0,0,.179-.922,8.592,8.592,0,1,1,14.016,0,.648.648,0,0,0,.179.922c2.6,1.658,4.064,4.583,4.359,8.692A6.145,6.145,0,0,1,80.412,29.352Z" transform="translate(-57.381)" fill="#e30613"/>
      </g>
    </g>
    <g id="Group_12" data-name="Group 12" transform="translate(78.698 21.797)">
      <g id="Group_11" data-name="Group 11" transform="translate(0)">
        <path id="Path_8" data-name="Path 8" d="M387.653,336.971c-.006-.025-.013-.051-.02-.076l-.005-.019a.648.648,0,0,0-1.254.329l.006.022c0,.017.009.034.013.051a.648.648,0,0,0,1.259-.307Z" transform="translate(-386.353 -336.392)" fill="#e30613"/>
      </g>
    </g>
    <g id="Group_14" data-name="Group 14" transform="translate(75.739 24.249)">
      <g id="Group_13" data-name="Group 13">
        <path id="Path_9" data-name="Path 9" d="M345.334,374.826a.648.648,0,0,0-1.293.093,3.279,3.279,0,0,1-.623,2.587,4.559,4.559,0,0,1-2.231,1.071.648.648,0,1,0,.3,1.26,5.774,5.774,0,0,0,2.863-1.435A4.457,4.457,0,0,0,345.334,374.826Z" transform="translate(-340.692 -374.225)" fill="#e30613"/>
      </g>
    </g>
    <g id="Group_16" data-name="Group 16" transform="translate(69.919 18.844)">
      <g id="Group_15" data-name="Group 15" transform="translate(0)">
        <path id="Path_10" data-name="Path 10" d="M255.969,293.895h-2.225a.648.648,0,1,0,0,1.3h1.473a1.473,1.473,0,0,1-1.473.929,1.8,1.8,0,0,1-1.577-1.964,1.954,1.954,0,0,1,1.048-1.885,1.848,1.848,0,0,1,1.974.318.648.648,0,1,0,.832-.994,3.13,3.13,0,0,0-3.355-.5,3.24,3.24,0,0,0-1.8,3.059,3.088,3.088,0,0,0,2.873,3.26,2.749,2.749,0,0,0,2.873-2.873A.648.648,0,0,0,255.969,293.895Z" transform="translate(-250.871 -290.816)" fill="#e30613"/>
      </g>
    </g>
    <g id="Group_18" data-name="Group 18" transform="translate(64.837 18.848)">
      <g id="Group_17" data-name="Group 17" transform="translate(0)">
        <path id="Path_11" data-name="Path 11" d="M176.811,296.5l-1.613-2.809,1.409-1.71a.648.648,0,1,0-1-.824l-1.8,2.192.03-1.817a.648.648,0,0,0-1.3-.021l-.061,3.68v0l-.027,1.619a.648.648,0,0,0,.637.659h.011a.648.648,0,0,0,.648-.637l.023-1.4.55-.668,1.369,2.385a.648.648,0,0,0,1.124-.645Z" transform="translate(-172.449 -290.869)" fill="#e30613"/>
      </g>
    </g>
  </g>
</svg>