<svg xmlns="http://www.w3.org/2000/svg" viewBox="0 0 40 40"><g fill="none"><path fill="#FF2636" d="M36.154 8.88c.371.69.503 1.482.377 2.253C36.154 26.12 26.125 36 21.79 38.667a3.286 3.286 0 01-3.514 0C5.42 29.76 3.644 14.32 3.523 10.827c0-.56-.108-1.427.444-1.6l14.256-8a2.932 2.932 0 012.8 0l15.13 7.653z"/><path fill="#FFF" d="M12.583 19.587a8.28 8.28 0 012.46-5.95A8.442 8.442 0 0121.05 11.2a7.77 7.77 0 015.277 1.333c.434.424.718.976.808 1.574a1.4 1.4 0 01-.794 1.231 1.425 1.425 0 01-1.468-.138 6.452 6.452 0 00-4.106-1.16c-3.069 0-5.129 1.667-5.25 5.507a5.386 5.386 0 001.581 3.916 5.492 5.492 0 003.939 1.604 6.375 6.375 0 004.038-1.534c.24-.203.545-.317.862-.32.313-.018.619.103.834.33.216.226.32.535.283.844 0 .383-.167.747-.458 1a7.86 7.86 0 01-5.64 2.28 8.12 8.12 0 01-5.933-2.265 7.962 7.962 0 01-2.44-5.815z"/></g></svg>