<svg width="18" height="19" viewBox="0 0 18 19" fill="none" xmlns="http://www.w3.org/2000/svg">
<g clip-path="url(#clip0_2060_136)">
<mask id="mask0_2060_136" style="mask-type:luminance" maskUnits="userSpaceOnUse" x="0" y="0" width="18" height="19">
<path d="M0 0.5H18V18.5H0V0.5Z" fill="white"/>
</mask>
<g mask="url(#mask0_2060_136)">
<path fill-rule="evenodd" clip-rule="evenodd" d="M2.09578 9.06125C3.18375 8.62578 4.63172 8.375 6.1875 8.375C7.74328 8.375 9.19031 8.62578 10.2792 9.06125C10.8216 9.27828 11.3175 9.55719 11.6911 9.91156C12.067 10.2659 12.375 10.7544 12.375 11.3563V15.5187C12.375 16.1216 12.0769 16.6166 11.6977 16.9822C11.3231 17.3445 10.8248 17.6291 10.2802 17.8475C9.18891 18.2839 7.74094 18.5225 6.1875 18.5C4.63406 18.5225 3.18703 18.2839 2.09578 17.8475C1.55016 17.6291 1.05188 17.3445 0.678281 16.9822C0.296719 16.6166 0 16.1216 0 15.5187V11.3563C0 10.7544 0.308437 10.2659 0.683906 9.91156C1.0575 9.55719 1.55344 9.27828 2.09578 9.06125ZM1.6875 11.3563C1.6875 11.3563 1.6875 11.3417 1.70344 11.3103C1.74036 11.2451 1.78788 11.1865 1.84406 11.1369C2.01047 10.9794 2.29734 10.7984 2.72156 10.6283C3.56766 10.2908 4.79156 10.0625 6.1875 10.0625C7.5825 10.0625 8.80875 10.2908 9.6525 10.6283C10.0777 10.797 10.3645 10.9794 10.5309 11.1369C10.5871 11.1865 10.6346 11.2451 10.6716 11.3103C10.6884 11.3417 10.6875 11.3553 10.6875 11.3563M1.6875 13.4713V15.5187C1.6875 15.5291 1.6875 15.6134 1.85062 15.7695C2.01609 15.9294 2.30063 16.1117 2.7225 16.2805C3.56156 16.617 4.78125 16.8341 6.17531 16.8125H6.19969C7.59234 16.8341 8.81297 16.6166 9.65344 16.2805C10.0744 16.1117 10.3589 15.9294 10.5244 15.7695C10.6866 15.612 10.6875 15.5286 10.6875 15.5187V13.4713C10.5558 13.5355 10.4184 13.595 10.2792 13.6512C9.19031 14.0867 7.74328 14.3375 6.1875 14.3375C4.63172 14.3375 3.18469 14.0867 2.09578 13.6512C1.95756 13.5962 1.82138 13.5361 1.6875 13.4713ZM10.6875 11.3563C10.6854 11.3725 10.68 11.3881 10.6716 11.4022C10.6346 11.4674 10.5871 11.526 10.5309 11.5756C10.3645 11.7331 10.0777 11.9141 9.65344 12.0842C8.80734 12.4217 7.58344 12.65 6.1875 12.65C4.7925 12.65 3.56625 12.4217 2.7225 12.0842C2.29734 11.9155 2.01047 11.7331 1.84406 11.5756C1.78788 11.526 1.74036 11.4674 1.70344 11.4022C1.69514 11.3884 1.68972 11.3731 1.6875 11.3572" fill="black"/>
<path fill-rule="evenodd" clip-rule="evenodd" d="M7.72078 1.18625C8.80875 0.750781 10.2567 0.5 11.8125 0.5C13.3683 0.5 14.8153 0.750781 15.9042 1.18625C16.4466 1.40328 16.9425 1.68219 17.3161 2.03656C17.692 2.39094 18 2.87937 18 3.48125V7.64375C18 8.26719 17.7141 8.76875 17.3531 9.14C16.9997 9.5 16.5478 9.76672 16.1067 9.96125C15.2316 10.3484 14.2008 10.5383 13.5 10.5383V8.85078C13.9669 8.85078 14.7647 8.70922 15.4247 8.41766C15.7519 8.27375 15.9961 8.11391 16.1447 7.95969C16.2863 7.81578 16.3125 7.71453 16.3125 7.64375V5.59625C16.1808 5.66047 16.0434 5.72 15.9042 5.77625C14.8153 6.21172 13.3683 6.4625 11.8125 6.4625C10.2567 6.4625 8.80969 6.21172 7.72078 5.77625C7.58256 5.7212 7.44638 5.66116 7.3125 5.59625V6.6875H5.625V3.48125C5.625 2.87937 5.93344 2.39094 6.30891 2.03656C6.6825 1.68125 7.1775 1.40328 7.72078 1.18625ZM7.3125 3.48125C7.3125 3.48125 7.3125 3.46672 7.32844 3.43531C7.36536 3.37009 7.41288 3.31148 7.46906 3.26187C7.63547 3.10437 7.92234 2.92344 8.34656 2.75328C9.19266 2.41578 10.4166 2.1875 11.8125 2.1875C13.2075 2.1875 14.4338 2.41578 15.2775 2.75328C15.7027 2.92203 15.9895 3.10437 16.1559 3.26187C16.237 3.33828 16.2773 3.39781 16.2966 3.43531C16.3125 3.46672 16.3125 3.48031 16.3125 3.48125M7.3125 3.48125C7.3125 3.48594 7.31344 3.49906 7.32844 3.52719C7.36536 3.59241 7.41288 3.65102 7.46906 3.70062C7.63547 3.85812 7.92234 4.03906 8.34656 4.20922C9.19266 4.54672 10.4166 4.775 11.8125 4.775C13.2075 4.775 14.4338 4.54672 15.2775 4.20922C15.7027 4.04047 15.9895 3.85812 16.1559 3.70062C16.2121 3.65101 16.2596 3.5924 16.2966 3.52719C16.3049 3.51342 16.3103 3.49811 16.3125 3.48219" fill="black"/>
</g>
</g>
<defs>
<clipPath id="clip0_2060_136">
<rect width="18" height="18" fill="white" transform="translate(0 0.5)"/>
</clipPath>
</defs>
</svg>
