<svg width="18" height="19" viewBox="0 0 18 19" fill="none" xmlns="http://www.w3.org/2000/svg">
<g clip-path="url(#clip0_2060_133)">
<path fill-rule="evenodd" clip-rule="evenodd" d="M3.9375 11.218V5.06422C4.15125 5.00469 4.37953 4.94516 4.62047 4.88188L5.13656 4.74687C5.79563 4.57016 6.52031 4.35969 7.18781 4.06625C7.845 3.77844 8.50172 3.38562 9 2.81422C9.49828 3.38562 10.1555 3.77844 10.8122 4.06625C11.4792 4.35875 12.2039 4.57016 12.8634 4.74687L13.3809 4.88188L14.0625 5.06422V11.218C14.0625 11.988 13.8518 12.7433 13.4532 13.4021C13.0546 14.0609 12.4833 14.598 11.8012 14.9553L9 16.422L6.19875 14.9562C5.51652 14.5989 4.94512 14.0616 4.54651 13.4026C4.1479 12.7436 3.93729 11.9881 3.9375 11.218ZM7.73766 1.69344C7.99313 1.39625 8.15625 1.025 8.15625 0.5H9.84375C9.84375 1.02547 10.0069 1.39672 10.2623 1.69344C10.5347 2.01078 10.9462 2.28172 11.4909 2.52172C12.0333 2.76031 12.652 2.94359 13.2998 3.11656L13.7597 3.23703C14.2458 3.36406 14.7431 3.49344 15.173 3.63641L15.75 3.83V11.218C15.7499 12.2958 15.4548 13.3531 14.8967 14.2752C14.3386 15.1973 13.5389 15.9491 12.5841 16.4492L9.39141 18.1222L9 18.328L8.60859 18.1222L5.41594 16.4502C4.46113 15.9501 3.66137 15.1982 3.1033 14.2761C2.54524 13.354 2.25015 12.2967 2.25 11.2189V3.83L2.82703 3.63641C3.25688 3.49344 3.75422 3.36406 4.24031 3.23703L4.70016 3.11656C5.34797 2.94312 5.96672 2.75984 6.50906 2.52031C7.05375 2.28172 7.46531 2.01078 7.73766 1.69344ZM11.8463 8.97219L12.4425 8.375L11.25 7.1825L10.6537 7.77875L7.875 10.5575L7.34625 10.0287L6.75 9.4325L5.5575 10.625L6.15375 11.2213L7.27875 12.3463C7.43695 12.5043 7.65141 12.593 7.875 12.593C8.09859 12.593 8.31305 12.5043 8.47125 12.3463L11.8463 8.97125V8.97219Z" fill="black"/>
</g>
<defs>
<clipPath id="clip0_2060_133">
<rect width="18" height="18" fill="white" transform="translate(0 0.5)"/>
</clipPath>
</defs>
</svg>
