<svg width="121" height="30" viewBox="0 0 121 30" fill="none" xmlns="http://www.w3.org/2000/svg">
<path d="M25.29 0H5.26176C2.48527 0 0.235046 2.24412 0.235046 5.01307V24.9869C0.235046 27.7559 2.48527 30 5.26176 30H25.29C28.0665 30 30.3167 27.7559 30.3167 24.9869V5.01307C30.3167 2.24412 28.0665 0 25.29 0ZM24.8484 22.963C24.8484 23.8377 24.1376 24.5466 23.2605 24.5466H7.29119C6.41409 24.5466 5.70333 23.8377 5.70333 22.963V7.037C5.70333 6.16228 6.41409 5.45345 7.29119 5.45345H23.2605C24.1376 5.45345 24.8484 6.16228 24.8484 7.037V22.963ZM12.085 19.072C11.5799 19.072 11.1746 18.6648 11.1746 18.1611V11.8027C11.1746 11.299 11.5799 10.8888 12.085 10.8888H18.4697C18.9718 10.8888 19.3801 11.296 19.3801 11.8027V18.1581C19.3801 18.6618 18.9718 19.069 18.4697 19.069H12.085V19.072ZM38.2923 18.6376H41.5769C41.7402 20.4927 43.0014 21.9405 45.545 21.9405C47.8164 21.9405 49.2137 20.8214 49.2137 19.1293C49.2137 17.5457 48.1189 16.8369 46.1469 16.3724L43.6003 15.8265C40.8359 15.2262 38.755 13.4526 38.755 10.557C38.755 7.36276 41.6011 5.17897 45.297 5.17897C49.2107 5.17897 51.7301 7.22703 51.9479 10.2554H48.7721C48.3941 8.83772 47.2145 7.99316 45.3 7.99316C43.2736 7.99316 41.8793 9.08506 41.8793 10.4786C41.8793 11.8721 43.0831 12.7167 45.1639 13.1812L47.6833 13.7271C50.4477 14.3274 52.335 15.9924 52.335 18.9121C52.335 22.6252 49.5434 24.8361 45.548 24.8361C41.0567 24.8331 38.5675 22.405 38.2923 18.6376ZM64.0852 30V24.5677L64.2999 22.1848H64.0852C63.3321 23.898 61.7503 24.8361 59.6029 24.8361C56.1398 24.8361 53.5629 22.0249 53.5629 17.7147C53.5629 13.4044 56.1398 10.5932 59.6029 10.5932C61.723 10.5932 63.2262 11.5825 64.0852 13.1359H64.2999V10.8586H67.146V30H64.0852ZM64.191 17.7116C64.191 14.9548 62.5003 13.3471 60.4316 13.3471C58.3628 13.3471 56.6721 14.9548 56.6721 17.7116C56.6721 20.4685 58.3628 22.0762 60.4316 22.0762C62.5003 22.0762 64.191 20.4715 64.191 17.7116ZM69.4174 19.1323V10.8586H72.4781V18.8639C72.4781 21.0326 73.5246 22.0762 75.2697 22.0762C77.4171 22.0762 78.8145 20.55 78.8145 18.1671V10.8586H81.8753V24.5647H79.0292V21.7263H78.8145C78.143 23.5482 76.6671 24.8331 74.3866 24.8331C71.108 24.8331 69.4174 22.7458 69.4174 19.1323ZM83.7383 20.737C83.7383 18.1671 85.5379 16.668 88.7318 16.481L92.5154 16.2397V15.1689C92.5154 13.884 91.5748 13.1088 89.9113 13.1088C88.3809 13.1088 87.4675 13.884 87.2256 14.9819H84.1648C84.4884 12.1979 86.7961 10.5902 89.9083 10.5902C93.4258 10.5902 95.5732 12.0893 95.5732 14.9819V24.5647H92.7271V22.0219H92.5124C91.8682 23.708 90.5253 24.8331 87.9484 24.8331C85.4835 24.8331 83.7383 23.1741 83.7383 20.737ZM92.5184 19.0509V18.327L89.4304 18.5411C87.767 18.6467 87.0139 19.265 87.0139 20.4957C87.0139 21.5393 87.8728 22.2904 89.0796 22.2904C91.2572 22.2904 92.5184 20.8999 92.5184 19.0509ZM97.8567 24.5677V10.8586H100.703V13.4828H100.917C101.32 11.6881 102.69 10.8586 104.728 10.8586H106.126V13.6155H104.381C102.393 13.6155 100.917 14.9005 100.917 17.3376V24.5647H97.8567V24.5677ZM120.129 18.2757H109.685C109.846 20.7913 111.618 22.2119 113.578 22.2119C115.241 22.2119 116.288 21.5423 116.881 20.4173H119.914C119.083 23.2013 116.639 24.8331 113.551 24.8331C109.498 24.8331 106.652 21.8078 106.652 17.7116C106.652 13.6155 109.577 10.5902 113.578 10.5902C117.604 10.5902 120.235 13.3471 120.235 16.7736C120.238 17.4462 120.184 17.7931 120.129 18.2757ZM117.204 16.1613C117.099 14.261 115.514 12.9761 113.581 12.9761C111.754 12.9761 110.227 14.1283 109.849 16.1613H117.204Z" fill="black"/>
</svg>
