<svg id="daoHome" xmlns="http://www.w3.org/2000/svg" width="34.256" height="33.112" viewBox="0 0 34.256 33.112">
  <path id="Path_1" data-name="Path 1" d="M48.525,44.617q0-.036,0-.072a2.286,2.286,0,0,0-2.284-2.284V31.7L48.3,30.158a.571.571,0,0,0-.006-.918l-4.9-3.584V19.425a.571.571,0,0,0,.571-.571V16.571A.571.571,0,0,0,43.388,16H37.679a.571.571,0,0,0-.571.571v2.284a.571.571,0,0,0,.571.571v2.06l-4.23-3.091a.571.571,0,0,0-.674,0L17.932,29.241a.571.571,0,0,0-.006.918L19.981,31.7V42.261A2.286,2.286,0,0,0,17.7,44.545q0,.036,0,.072a2.284,2.284,0,0,0,.57,4.5H47.956a2.284,2.284,0,0,0,.57-4.5ZM38.25,17.142h4.567v1.142H38.25Zm.571,5.138V19.425h3.425v5.4L38.767,22.28Zm-5.709-2.718L47,29.708l-1.329,1L33.448,21.818a.571.571,0,0,0-.672,0L20.558,30.7l-1.329-1ZM17.127,46.829a1.143,1.143,0,0,1,1.125-1.142h0c.029,0,.058.008.088.009a.571.571,0,0,0,.573-.765,1.122,1.122,0,0,1-.074-.387A1.143,1.143,0,0,1,19.981,43.4v4.567H18.269A1.143,1.143,0,0,1,17.127,46.829Zm24.549,1.142H34.825V35.411h6.851Zm1.142,0V34.84a.571.571,0,0,0-.571-.571H34.254a.571.571,0,0,0-.571.571V47.971H21.123V31.705l11.989-8.719L45.1,31.705V47.971Zm5.138,0H46.243V43.4a1.143,1.143,0,0,1,1.142,1.142,1.122,1.122,0,0,1-.074.387.571.571,0,0,0,.573.765c.03,0,.059-.005.088-.009h0a1.142,1.142,0,1,1-.017,2.284Z" transform="translate(-15.984 -16)" fill="#e30613"/>
  <path id="Path_2" data-name="Path 2" d="M127.422,272h-6.851a.571.571,0,0,0-.571.571v7.993a.571.571,0,0,0,.571.571h6.851a.571.571,0,0,0,.571-.571v-7.993A.571.571,0,0,0,127.422,272Zm-.571,4h-2.284v-2.855h2.284Zm-3.425-2.855V276h-2.284v-2.855Zm-2.284,4h2.284v2.854h-2.284Zm3.425,2.854v-2.854h2.284v2.854Z" transform="translate(-112.577 -253.731)" fill="#e30613"/>
  <circle id="Ellipse_1" data-name="Ellipse 1" cx="0.571" cy="0.571" r="0.571" transform="translate(19.808 25.429) rotate(-67.5)" fill="#e30613"/>
</svg>