<?xml version="1.0" encoding="UTF-8" standalone="no"?>
<svg xmlns:dc="http://purl.org/dc/elements/1.1/" xmlns:cc="http://creativecommons.org/ns#" xmlns:rdf="http://www.w3.org/1999/02/22-rdf-syntax-ns#" xmlns:svg="http://www.w3.org/2000/svg" xmlns="http://www.w3.org/2000/svg" xmlns:sodipodi="http://sodipodi.sourceforge.net/DTD/sodipodi-0.dtd" xmlns:inkscape="http://www.inkscape.org/namespaces/inkscape" version="1.1" id="Layer_1" x="0px" y="0px" viewBox="0 0 829.7 425.2" style="enable-background:new 0 0 829.7 425.2;" xml:space="preserve" sodipodi:docname="dao-logo.svg" inkscape:version="0.92.2 (5c3e80d, 2017-08-06)"><metadata id="metadata17"><rdf:RDF><cc:Work rdf:about=""><dc:format>image/svg+xml</dc:format><dc:type rdf:resource="http://purl.org/dc/dcmitype/StillImage"/></cc:Work></rdf:RDF></metadata><defs id="defs15"/><sodipodi:namedview pagecolor="#ffffff" bordercolor="#666666" borderopacity="1" objecttolerance="10" gridtolerance="10" guidetolerance="10" inkscape:pageopacity="0" inkscape:pageshadow="2" inkscape:window-width="2400" inkscape:window-height="1271" id="namedview13" showgrid="false" inkscape:zoom="0.40858141" inkscape:cx="414.85001" inkscape:cy="212.60001" inkscape:window-x="-9" inkscape:window-y="-9" inkscape:window-maximized="1" inkscape:current-layer="Layer_1"/><style type="text/css" id="style2">
	.st0{fill:#E30613;}
</style><g id="g10" style="fill:#ffffff"><path class="st0" d="M778.7,173.6c-18.6-10.3-58.8-10.8-80.4-10.8c-21.6,0-61.8,0.5-80.4,10.8c-48.5,26.5-51,84.8-51,120.1   c0,35.8,2.5,94.2,51,120.6c18.6,10.3,58.8,10.8,80.4,10.8c21.6,0,61.8-0.5,80.4-10.8c48.5-26.5,51-84.8,51-120.6   C829.7,258.5,827.3,200.1,778.7,173.6 M723.8,347.2c-6.4,3.4-18.1,3.9-25.5,3.9c-7.4,0-19.1-0.5-25.5-3.9   c-11.8-6.9-12.3-30.9-12.3-53.9c0-22.6,0.5-45.6,12.3-52.5c6.4-3.4,18.1-3.9,25.5-3.9c7.4,0,19.1,0.5,25.5,3.9   c11.8,6.9,12.3,29.9,12.3,52.5C736.1,316.3,735.6,340.4,723.8,347.2z" id="path4" style="fill:#ffffff"/><path class="st0" d="M262.8,162.7V0h-51c-26.6,0-42.6,26.7-42.6,52.6v111.3c-12.7-0.9-28.7-1-37.8-1c-21.6,0-61.8,0.5-80.4,10.8   C2.5,200.1,0,258.5,0,293.8c0,35.8,2.5,94.2,51,120.6c18.6,10.3,58.8,10.8,80.4,10.8c21.6,0,61.8-0.5,80.4-10.8   c48.5-26.5,51-84.8,51-120.6c0-4.9-0.1-10.2-0.3-15.8L262.8,162.7 M156.9,347.2c-6.4,3.4-18.1,3.9-25.5,3.9s-19.1-0.5-25.5-3.9   c-11.8-6.9-12.3-30.9-12.3-53.9c0-22.6,0.5-45.6,12.3-52.5c6.4-3.4,18.1-3.9,25.5-3.9s19.1,0.5,25.5,3.9   c11.8,6.9,12.3,29.9,12.3,52.5C169.2,316.3,168.7,340.4,156.9,347.2z" id="path6" style="fill:#ffffff"/><path class="st0" d="M545.2,239.3c0-41.2-34.7-75.4-79.3-75.4c-21.8,0-30.6,0-52.2,0c-21.6,0-61.8-0.5-80.4,9.8   c-48.5,26.5-51,84.8-51,120.1c0,35.8,2.5,94.2,51,120.6c15.2,8.4,40.6,10.4,62.7,10.8c53.1,0.1,55.5-48.2,55.5-48.2   c0,18.5,15.7,48.2,45.1,48.2h48.5l0.1-158.7L545.2,239.3 M439.2,347.2c-6.4,3.4-18.1,3.9-25.5,3.9c-7.4,0-19.1-0.5-25.5-3.9   c-11.8-6.9-12.3-30.9-12.3-53.9c0-22.6,0.5-45.6,12.3-52.5c6.4-3.4,18.1-3.9,25.5-3.9c7.4,0,19.1,0.5,25.5,3.9   c11.8,6.9,12.3,29.9,12.3,52.5C451.5,316.3,451,340.4,439.2,347.2z" id="path8" style="fill:#ffffff"/></g></svg>