<?xml version="1.0" encoding="UTF-8"?>
<svg width="30.674" height="33.521" version="1.1" viewBox="0 0 30.674 33.521" xmlns="http://www.w3.org/2000/svg" xmlns:cc="http://creativecommons.org/ns#" xmlns:dc="http://purl.org/dc/elements/1.1/" xmlns:rdf="http://www.w3.org/1999/02/22-rdf-syntax-ns#">
 <metadata>
  <rdf:RDF>
   <cc:Work rdf:about="">
    <dc:format>image/svg+xml</dc:format>
    <dc:type rdf:resource="http://purl.org/dc/dcmitype/StillImage"/>
    <dc:title/>
   </cc:Work>
  </rdf:RDF>
 </metadata>
 <g id="package" transform="translate(-13.221 21.315)">
  <g id="_002-delivery" transform="translate(.751 -21.311)" fill="#e30613" data-name="002-delivery">
   <path transform="translate(-20.719)" d="m63.421 8.062-14.492-7.962c-0.25257-0.13858-0.55843-0.13858-0.811 0l-5.45 3c-0.12427 0.03491-0.23887 0.097857-0.335 0.184l-8.707 4.778c-0.26959 0.14815-0.43708 0.43139-0.437 0.739v15.915c-7.6e-5 0.30762 0.16741 0.59085 0.437 0.739l14.492 7.958c0.25253 0.13877 0.55847 0.13877 0.811 0l14.492-7.958c0.26959-0.14815 0.43708-0.43138 0.437-0.739v-3.773c0.04006-1.1627-1.7251-1.1627-1.685 0v3.274l-12.807 7.033v-13.993l4.073-2.236v3.549c6.01e-4 0.64071 0.68749 1.0466 1.249 0.738l3.105-1.708c0.26889-0.14824 0.43591-0.43096 0.436-0.738v-4.472l3.944-2.165v3.975c-0.04006 1.1627 1.7251 1.1627 1.685 0v-5.4c-2.89e-4 -0.30726-0.16772-0.59002-0.437-0.738zm-15.74 23.188-12.807-7.032v-13.993l12.807 7.032zm0.842-15.45-12.741-7 4-2.2 12.742 7zm5.755-3.16-12.742-7 1.381-0.758 12.741 7zm2.265 3.726-1.42 0.782v-3.048l1.42-0.78zm0.866-5.445-12.741-7 3.855-2.121 12.741 7z" data-name="Path 27"/>
   <path transform="translate(-450.55 -181.83)" d="m492.84 198.56a0.843 0.843 0 1 0 0.6 0.247 0.845 0.845 0 0 0-0.6-0.247z" data-name="Path 28"/>
  </g>
 </g>
</svg>