<svg width="24" height="24" viewBox="0 0 24 24" fill="none" xmlns="http://www.w3.org/2000/svg">
<path d="M7.653 4.17407H16.348M18.087 4.17407H21.565V21.5651H2.435V4.17407H5.913H18.087Z" stroke="#708C91" stroke-linecap="round" stroke-linejoin="round"/>
<path fill-rule="evenodd" clip-rule="evenodd" d="M5.913 2.43506H7.653V5.91306H5.913V2.43506ZM16.348 2.43506H18.087V5.91306H16.347V2.43506H16.348ZM2.435 9.39006H21.565H2.435V9.39006ZM5.913 12.8701H7.653V13.7401H5.913V12.8701ZM11.13 12.8701H12.87V13.7401H11.13V12.8701ZM5.913 17.2171H7.653V18.0871H5.913V17.2171ZM11.13 17.2171H12.87V18.0871H11.13V17.2171ZM16.348 12.8701H18.087V13.7401H16.347V12.8701H16.348Z" stroke="#708C91" stroke-linecap="round" stroke-linejoin="round"/>
<path d="M5.91302 12.8701H7.65302V13.7401H5.91302V12.8701ZM11.13 12.8701H12.87V13.7401H11.13V12.8701ZM5.91302 17.2171H7.65302V18.0871H5.91302V17.2171ZM11.13 17.2171H12.87V18.0871H11.13V17.2171ZM16.348 12.8701H18.087V13.7401H16.347V12.8701H16.348Z" fill="#708C91"/>
</svg>
