<svg width="34" height="26" viewBox="0 0 34 26" fill="none" xmlns="http://www.w3.org/2000/svg">
<path d="M10.0147 25.8565V24.1348C10.0247 23.9903 10.004 23.8454 9.95413 23.7097C9.90426 23.574 9.82631 23.4506 9.72548 23.3477C9.62465 23.2448 9.50326 23.1647 9.3694 23.1129C9.23554 23.0611 9.09227 23.0387 8.94916 23.0472C8.76135 23.0348 8.57368 23.0735 8.40574 23.1593C8.2378 23.2451 8.09575 23.3749 7.99442 23.535C7.90205 23.3797 7.76988 23.2524 7.61184 23.1665C7.45381 23.0806 7.27578 23.0394 7.0965 23.0472C6.94022 23.0392 6.78459 23.0726 6.64503 23.1441C6.50547 23.2156 6.38683 23.3226 6.30087 23.4547V23.1161H5.70984V25.8565H6.30656V24.3385C6.29334 24.2446 6.30095 24.1489 6.32884 24.0583C6.35674 23.9678 6.40423 23.8846 6.46787 23.8148C6.5315 23.7451 6.6097 23.6905 6.6968 23.655C6.7839 23.6195 6.87772 23.604 6.97147 23.6096C7.3636 23.6096 7.5625 23.8679 7.5625 24.3328V25.8565H8.15922V24.3385C8.14705 24.2448 8.1554 24.1495 8.18369 24.0594C8.21197 23.9693 8.2595 23.8866 8.32292 23.8171C8.38633 23.7475 8.4641 23.6929 8.5507 23.6571C8.63731 23.6213 8.73065 23.6051 8.82414 23.6096C9.22763 23.6096 9.42086 23.8679 9.42086 24.3328V25.8565H10.0147ZM13.3393 24.4877V23.119H12.7426V23.4518C12.6424 23.3212 12.5128 23.2166 12.3645 23.1468C12.2162 23.0769 12.0536 23.0438 11.8901 23.0501C11.5133 23.0501 11.1519 23.2013 10.8855 23.4703C10.6191 23.7394 10.4694 24.1043 10.4694 24.4848C10.4694 24.8654 10.6191 25.2303 10.8855 25.4994C11.1519 25.7684 11.5133 25.9196 11.8901 25.9196C12.0536 25.9259 12.2162 25.8928 12.3645 25.8229C12.5128 25.753 12.6424 25.6485 12.7426 25.5179V25.8507H13.3336L13.3393 24.4877ZM11.1428 24.4877C11.1522 24.3262 11.2082 24.1711 11.3039 24.0413C11.3995 23.9116 11.5306 23.8129 11.6811 23.7575C11.8316 23.702 11.9948 23.6922 12.1508 23.7293C12.3067 23.7663 12.4485 23.8486 12.5586 23.9661C12.6688 24.0835 12.7426 24.2308 12.7709 24.3901C12.7992 24.5493 12.7807 24.7134 12.7178 24.8621C12.6549 25.0109 12.5503 25.1378 12.4169 25.2273C12.2835 25.3168 12.127 25.3649 11.9669 25.3658C11.8537 25.3685 11.7413 25.3473 11.6368 25.3035C11.5323 25.2598 11.438 25.1945 11.3599 25.1119C11.2818 25.0292 11.2216 24.931 11.1832 24.8235C11.1449 24.7161 11.1292 24.6017 11.1371 24.4877H11.1428ZM25.967 23.053C26.1616 23.0525 26.3545 23.0895 26.5353 23.162C26.7079 23.2318 26.8653 23.3351 26.9985 23.4662C27.1299 23.596 27.2343 23.7511 27.3053 23.9224C27.4538 24.2903 27.4538 24.7023 27.3053 25.0702C27.2344 25.2415 27.13 25.3967 26.9985 25.5265C26.8653 25.6575 26.7079 25.7608 26.5353 25.8306C26.1606 25.9777 25.745 25.9777 25.3703 25.8306C25.1985 25.7609 25.042 25.6575 24.91 25.5265C24.7797 25.3962 24.6764 25.2411 24.6059 25.0702C24.4578 24.7022 24.4578 24.2904 24.6059 23.9224C24.6764 23.7515 24.7797 23.5965 24.91 23.4662C25.042 23.3351 25.1985 23.2317 25.3703 23.162C25.5576 23.0836 25.7585 23.0436 25.9613 23.0444L25.967 23.053ZM25.967 23.6269C25.8513 23.6253 25.7364 23.6467 25.6289 23.69C25.5276 23.731 25.4357 23.7925 25.3589 23.8708C25.2806 23.9531 25.2196 24.0508 25.1799 24.1577C25.0931 24.3868 25.0931 24.6402 25.1799 24.8694C25.2196 24.9763 25.2805 25.074 25.3589 25.1563C25.4357 25.2346 25.5276 25.2961 25.6289 25.3371C25.8453 25.4227 26.0858 25.4227 26.3023 25.3371C26.4084 25.2975 26.5052 25.2359 26.5864 25.1563C26.665 25.0741 26.7259 24.9764 26.7655 24.8694C26.8523 24.6402 26.8523 24.3868 26.7655 24.1577C26.7259 24.0507 26.665 23.953 26.5864 23.8708C26.5052 23.7912 26.4084 23.7296 26.3023 23.69C26.1951 23.6404 26.0791 23.6131 25.9613 23.6096L25.967 23.6269ZM16.5502 24.4877C16.5502 23.6269 16.0217 23.053 15.263 23.053C14.8862 23.0583 14.5269 23.2146 14.2642 23.4874C14.0015 23.7602 13.8569 24.1273 13.8621 24.5078C13.8674 24.8883 14.0222 25.2511 14.2923 25.5164C14.5625 25.7817 14.926 25.9278 15.3028 25.9225C15.7073 25.9364 16.1028 25.7995 16.4138 25.5379L16.1297 25.096C15.9053 25.2778 15.6273 25.3787 15.3397 25.383C15.1444 25.4 14.9501 25.3393 14.7984 25.2139C14.6466 25.0885 14.5493 24.9083 14.5271 24.7115H16.5417C16.5502 24.6398 16.5502 24.5681 16.5502 24.4877ZM14.5299 24.2467C14.5409 24.0645 14.6213 23.8937 14.7543 23.7701C14.8872 23.6465 15.0624 23.5798 15.2431 23.5838C15.3316 23.5819 15.4195 23.5976 15.5019 23.6301C15.5844 23.6625 15.6597 23.711 15.7235 23.7728C15.7874 23.8346 15.8385 23.9086 15.8741 23.9904C15.9097 24.0722 15.9289 24.1602 15.9308 24.2495L14.5299 24.2467ZM19.0365 23.8162C18.777 23.6654 18.4835 23.5843 18.1841 23.5809C17.8602 23.5809 17.6669 23.7015 17.6669 23.9023C17.6669 24.1032 17.8715 24.1376 18.1273 24.1721L18.4114 24.2122C19.0024 24.2983 19.3605 24.5508 19.3605 25.0329C19.3605 25.515 18.9058 25.9282 18.1244 25.9282C17.7056 25.9395 17.2943 25.8147 16.9509 25.5724L17.235 25.1075C17.4958 25.3029 17.8141 25.404 18.1386 25.3945C18.5421 25.3945 18.7581 25.274 18.7581 25.0616C18.7581 24.9067 18.6046 24.8206 18.2807 24.7747L17.9965 24.7345C17.3885 24.6484 17.0588 24.3729 17.0588 23.9253C17.0588 23.3801 17.5021 23.0472 18.1955 23.0472C18.5835 23.0341 18.9671 23.1337 19.3008 23.3342L19.0365 23.8162ZM21.8781 23.6613H20.9148V24.898C20.9148 25.185 21.0114 25.3572 21.3069 25.3572C21.4914 25.351 21.6712 25.2977 21.8297 25.2022L22.0002 25.713C21.7787 25.8526 21.5226 25.9262 21.2614 25.9253C20.5624 25.9253 20.3181 25.5466 20.3181 24.9095V23.6613H19.7668V23.1161H20.3181V22.2839H20.9148V23.1161H21.8781V23.6613ZM23.9211 23.0472C24.0645 23.0478 24.2067 23.073 24.3417 23.1218L24.1598 23.6957C24.0423 23.6484 23.9168 23.625 23.7904 23.6269C23.404 23.6269 23.2221 23.8794 23.2221 24.3328V25.8679H22.6311V23.1276H23.2164V23.4604C23.2889 23.3346 23.3937 23.2309 23.5198 23.1602C23.6458 23.0895 23.7884 23.0544 23.9325 23.0587L23.9211 23.0472ZM28.0072 25.4576C28.0441 25.4571 28.0808 25.464 28.1152 25.4777C28.1478 25.4911 28.1777 25.5106 28.2033 25.5351C28.2282 25.5598 28.2485 25.589 28.2629 25.6212C28.2773 25.6547 28.2848 25.6908 28.2848 25.7273C28.2848 25.7639 28.2773 25.8 28.2629 25.8335C28.2485 25.8657 28.2282 25.8949 28.2033 25.9196C28.1777 25.9441 28.1478 25.9635 28.1152 25.977C28.0812 25.9921 28.0444 26 28.0072 25.9999C27.9533 25.9995 27.9007 25.9837 27.8554 25.9542C27.8101 25.9247 27.7741 25.8829 27.7515 25.8335C27.7372 25.8 27.7299 25.7638 27.7299 25.7273C27.7299 25.6908 27.7372 25.6547 27.7515 25.6212C27.7659 25.589 27.7862 25.5598 27.8111 25.5351C27.8367 25.5106 27.8666 25.4911 27.8992 25.4777C27.9291 25.4657 27.9608 25.4589 27.993 25.4576H28.0072ZM28.0072 25.9425C28.0356 25.9427 28.0636 25.9369 28.0896 25.9253C28.114 25.9143 28.1362 25.8987 28.155 25.8794C28.1791 25.8549 28.1969 25.8248 28.2069 25.7918C28.2168 25.7588 28.2187 25.7238 28.2123 25.6898C28.2058 25.6559 28.1913 25.6241 28.1699 25.5971C28.1485 25.5701 28.121 25.5488 28.0896 25.5351C28.0636 25.5236 28.0356 25.5178 28.0072 25.5179C27.9789 25.518 27.9509 25.5239 27.9248 25.5351C27.8993 25.5456 27.8761 25.5613 27.8566 25.581C27.8211 25.6201 27.8013 25.6713 27.8013 25.7245C27.8013 25.7776 27.8211 25.8288 27.8566 25.8679C27.8763 25.8881 27.8997 25.904 27.9256 25.9148C27.9515 25.9257 27.9792 25.9312 28.0072 25.9311V25.9425ZM28.0243 25.6011C28.0508 25.5998 28.0769 25.6079 28.0981 25.624C28.1068 25.6313 28.1137 25.6406 28.1181 25.651C28.1226 25.6615 28.1245 25.6729 28.1237 25.6843C28.1241 25.6938 28.1226 25.7033 28.1191 25.7122C28.1157 25.7211 28.1105 25.7292 28.1038 25.7359C28.0873 25.751 28.0663 25.7601 28.0441 25.7618L28.1265 25.8565H28.0612L27.9845 25.7618H27.9589V25.8565H27.9049V25.5925L28.0243 25.6011ZM27.9617 25.6499V25.7187H28.0243C28.0354 25.7221 28.0472 25.7221 28.0583 25.7187C28.0603 25.7147 28.0614 25.7103 28.0614 25.7058C28.0614 25.7013 28.0603 25.6969 28.0583 25.6929C28.0603 25.6889 28.0614 25.6845 28.0614 25.68C28.0614 25.6755 28.0603 25.6711 28.0583 25.6671C28.0472 25.6637 28.0354 25.6637 28.0243 25.6671L27.9617 25.6499Z" fill="black"/>
<path d="M21.0257 2.20923H12.075V18.4535H21.0257V2.20923Z" fill="#7673C0"/>
<path d="M12.6432 10.3346C12.6416 8.7699 12.9925 7.22538 13.6694 5.81794C14.3463 4.41051 15.3315 3.17706 16.5503 2.21102C15.0412 1.01335 13.2289 0.268591 11.3205 0.061861C9.4121 -0.144869 7.4846 0.194766 5.75829 1.04195C4.03199 1.88914 2.57653 3.20971 1.55826 4.85271C0.539998 6.49571 0 8.39487 0 10.3331C0 12.2714 0.539998 14.1705 1.55826 15.8135C2.57653 17.4565 4.03199 18.7771 5.75829 19.6243C7.4846 20.4715 9.4121 20.8111 11.3205 20.6044C13.2289 20.3977 15.0412 19.6529 16.5503 18.4552C15.3319 17.4895 14.3469 16.2565 13.67 14.8496C12.9931 13.4427 12.642 11.8987 12.6432 10.3346Z" fill="#EB001B"/>
<path d="M32.1248 16.7321V16.4107H32.2583V16.3418H31.9202V16.4107H32.0537V16.7435L32.1248 16.7321ZM32.7811 16.7321V16.3303H32.6789L32.5595 16.6173L32.4402 16.3303H32.335V16.7321H32.4089V16.4308L32.5197 16.6919H32.5964L32.7073 16.4308V16.7349L32.7811 16.7321Z" fill="#00A1DF"/>
<path d="M33.0991 10.3328C33.0987 12.2707 32.5584 14.1694 31.5401 15.812C30.5218 17.4545 29.0665 18.7747 27.3405 19.6217C25.6145 20.4686 23.6874 20.8082 21.7793 20.6017C19.8712 20.3951 18.0592 19.6507 16.5502 18.4535C17.7681 17.4869 18.7528 16.2536 19.4299 14.8466C20.1069 13.4396 20.4588 11.8957 20.4588 10.3314C20.4588 8.76707 20.1069 7.22317 19.4299 5.81619C18.7528 4.40921 17.7681 3.17589 16.5502 2.20928C18.0592 1.01124 19.8715 0.266119 21.78 0.0590919C23.6885 -0.147935 25.6162 0.191487 27.3427 1.03856C29.0693 1.88562 30.5249 3.20615 31.5434 4.84921C32.5618 6.49227 33.1019 8.39155 33.102 10.33L33.0991 10.3328Z" fill="#00A1DF"/>
</svg>
