<svg width="51" height="17" viewBox="0 0 51 17" fill="none" xmlns="http://www.w3.org/2000/svg">
<path d="M33.0605 0.333008C29.0267 0.333008 26.1931 2.48642 26.1681 5.56557C26.1426 7.84666 28.1945 9.11859 29.7378 9.87673C31.33 10.6518 31.8618 11.1498 31.8566 11.8432C31.8408 12.906 30.5825 13.3902 29.4133 13.3902C27.7833 13.3902 26.9143 13.1512 25.5786 12.5613L25.049 12.3086L24.4785 15.8574C25.4322 16.2991 27.1933 16.6817 29.0242 16.7017C33.3048 16.7017 36.0899 14.573 36.123 11.2862C36.1399 9.47702 35.0507 8.10775 32.6958 6.97722C31.2742 6.24219 30.3952 5.7548 30.4083 5.01C30.4094 4.35191 31.1459 3.64662 32.7447 3.64662C34.08 3.62405 35.0403 3.93181 35.7964 4.25598L36.1601 4.43818L36.7149 1.00038C35.9091 0.68078 34.6376 0.333098 33.0603 0.333098L33.0605 0.333008ZM20.3973 0.609589L17.846 16.4673H21.9222L24.475 0.609408H20.3978L20.3973 0.609589ZM14.4254 0.624976L10.4338 11.4325L10.0083 9.23647C9.01425 6.54362 6.86235 3.71893 4.35632 2.57414L8.00763 16.4521L12.324 16.4501L18.7429 0.625095H14.4254V0.624976ZM44.0233 0.626002C43.0466 0.626002 42.3147 0.905544 41.8836 1.9422L35.8304 16.4725H40.1131C40.1131 16.4725 40.8134 14.5167 40.9717 14.0885C41.4391 14.0885 45.5987 14.0975 46.1922 14.0975C46.3184 14.6504 46.6887 16.4723 46.6887 16.4723H50.4755L47.1736 0.626011H44.0234L44.0233 0.626002ZM44.3114 4.90123L44.5831 6.26829C44.5831 6.26829 45.3667 10.0519 45.5302 10.8444H42.145C42.4837 9.93445 43.7694 6.41187 43.7694 6.41187C43.7444 6.45495 44.1039 5.49464 44.3113 4.90117L44.3114 4.90123Z" fill="#00579F"/>
<path d="M6.77928 0.815222H0.071424L0.0323486 1.08942C5.24759 2.40893 8.68828 5.64923 10.1209 9.48098L8.66315 2.15738C8.41258 1.1502 7.68269 0.850754 6.77927 0.815186" fill="#FAA61A"/>
</svg>
