<svg width="20" height="20" viewBox="0 0 20 20" fill="none" xmlns="http://www.w3.org/2000/svg">
<path d="M10 0C4.48609 0 0 4.48609 0 10C0 15.5139 4.48609 20 10 20C15.5139 20 20 15.5139 20 10C20 4.48609 15.5139 0 10 0ZM10 19.1304C4.96522 19.1304 0.869565 15.0348 0.869565 10C0.869565 4.96522 4.96522 0.869565 10 0.869565C15.0348 0.869565 19.1304 4.96522 19.1304 10C19.1304 15.0348 15.0348 19.1304 10 19.1304Z" fill="#008FC1"/>
<path d="M11.7391 13.9132H10.4347V9.13058C10.4347 8.89058 10.24 8.6958 9.99996 8.6958H8.26083C8.02083 8.6958 7.82605 8.89058 7.82605 9.13058C7.82605 9.37058 8.02083 9.56537 8.26083 9.56537H9.56518V13.9132H8.26083C8.02083 13.9132 7.82605 14.108 7.82605 14.348C7.82605 14.588 8.02083 14.7828 8.26083 14.7828H11.7391C11.9791 14.7828 12.1739 14.588 12.1739 14.348C12.1739 14.108 11.9791 13.9132 11.7391 13.9132Z" fill="#008FC1"/>
<path d="M10.0001 6.52185C10.4803 6.52185 10.8696 6.13253 10.8696 5.65228C10.8696 5.17203 10.4803 4.78271 10.0001 4.78271C9.51981 4.78271 9.13049 5.17203 9.13049 5.65228C9.13049 6.13253 9.51981 6.52185 10.0001 6.52185Z" fill="#008FC1"/>
</svg>
