<svg width="20" height="20" viewBox="0 0 20 20" fill="none" xmlns="http://www.w3.org/2000/svg">
<path d="M10 20C4.477 20 0 15.523 0 10C0 4.477 4.477 0 10 0C15.523 0 20 4.477 20 10C20 15.523 15.523 20 10 20ZM11.202 5.137C11.6179 5.137 12.0167 4.9718 12.3107 4.67774C12.6048 4.38369 12.77 3.98486 12.77 3.569C12.77 3.15314 12.6048 2.75431 12.3107 2.46026C12.0167 2.1662 11.6179 2.001 11.202 2.001C10.7861 2.001 10.3873 2.1662 10.0933 2.46026C9.7992 2.75431 9.634 3.15314 9.634 3.569C9.634 3.98486 9.7992 4.38369 10.0933 4.67774C10.3873 4.9718 10.7861 5.137 11.202 5.137ZM12.142 7.005H12.137C12.1333 6.59244 11.9672 6.19795 11.6746 5.90705C11.382 5.61616 10.9866 5.4523 10.574 5.451H10.567C8.315 5.451 6.671 6.771 6.279 8.143L5.5 11.051H6.926L7.649 8.331L8.815 7.506L7.941 10.77L6.003 18H7.572L9.402 12.339L10.928 13.608L11.242 18H12.77V12.98L11.013 11.224L11.486 9.457C11.8385 9.86894 12.276 10.1996 12.7686 10.4263C13.2611 10.6529 13.7968 10.7702 14.339 10.77H14.653V9.515C13.9873 9.515 13.3489 9.25055 12.8782 8.77984C12.4074 8.30912 12.143 7.67069 12.143 7.005H12.142Z" fill="#5DD167"/>
</svg>
