<svg width="40" height="24" xmlns="http://www.w3.org/2000/svg"><defs><linearGradient x1="0%" y1="62.5%" x2="100%" y2="37.5%" id="a"><stop stop-color="#00A55B" offset="0%"/><stop stop-color="#008CC3" offset="51.478%"/><stop stop-color="#002663" offset="100%"/></linearGradient></defs><g fill="none" fill-rule="evenodd"><path d="M2.243 0h35.514C38.996 0 40 .992 40 2.215v19.57C40 23.008 38.996 24 37.757 24H2.243C1.004 24 0 23.008 0 21.785V2.215C0 .992 1.004 0 2.243 0z" fill="#FFF" fill-rule="nonzero"/><path d="M.5 2.005v19.99A1.5 1.5 0 0 0 1.997 23.5h36.006a1.5 1.5 0 0 0 1.497-1.505V2.005A1.5 1.5 0 0 0 38.003.5H1.997A1.5 1.5 0 0 0 .5 2.005zm-.5 0A2 2 0 0 1 1.997 0h36.006A2 2 0 0 1 40 2.005v19.99A2 2 0 0 1 38.003 24H1.997A2 2 0 0 1 0 21.995V2.005z" fill="#BEC8D2" fill-rule="nonzero"/><path d="M12.677 11.538h8.111C20.578 6.48 16.903 4 12.4 4 7.76 4 4 6.631 4 12s3.76 8 8.4 8c4.503 0 8.178-2.48 8.388-7.538h-8.111v-.924zm19.89.924H21.63v6.97h10.935c1.879 0 3.402-1.56 3.402-3.485 0-1.925-1.523-3.485-3.402-3.485zM36 8.053c0 1.925-1.523 3.485-3.401 3.485H21.664v-6.97h10.935c1.878 0 3.401 1.56 3.401 3.485z" fill="url(#a)"/></g></svg>