<svg fill="none" xmlns="http://www.w3.org/2000/svg" viewBox="0 0 75 24"><path d="m28.184.458-9.715 23.178h-6.338L7.351 5.139c-.29-1.14-.543-1.557-1.426-2.037C4.484 2.32 2.104 1.586.01 1.132L.152.457h10.203c1.3 0 2.47.865 2.765 2.363l2.525 13.412L21.885.457h6.299Zm24.834 15.61c.026-6.117-8.46-6.454-8.4-9.187.017-.832.81-1.716 2.543-1.942.859-.112 3.226-.198 5.91 1.038l1.054-4.915C52.682.538 50.825.034 48.516.034c-5.926 0-10.097 3.15-10.132 7.662-.038 3.337 2.977 5.199 5.248 6.308 2.337 1.135 3.122 1.865 3.113 2.88-.017 1.555-1.864 2.241-3.59 2.268-3.014.047-4.763-.815-6.157-1.463l-1.087 5.078c1.401.643 3.987 1.203 6.668 1.231 6.3 0 10.42-3.111 10.439-7.93Zm15.65 7.568h5.545L69.373.458h-5.119c-1.15 0-2.121.67-2.551 1.7l-8.998 21.478h6.296l1.25-3.462h7.693l.724 3.462Zm-6.69-8.213 3.156-8.702 1.816 8.702h-4.972ZM36.75.458l-4.958 23.178h-5.996L30.757.458h5.994Z" fill="#1434CB"/></svg>