<svg width="701" height="101" viewBox="0 0 701 101" fill="none" xmlns="http://www.w3.org/2000/svg">
    <path fill-rule="evenodd" clip-rule="evenodd" d="M397.507 41.9675C397.507 48.0035 402.598 50.3747 407.144 52.5304C410.598 54.255 414.235 55.9795 414.235 58.7819C414.235 59.6442 414.053 60.2909 413.689 60.9376C412.78 62.0154 411.144 62.6622 408.417 62.4466C405.871 62.231 402.78 61.3687 399.507 59.4286L398.053 58.5663V59.8598V65.8957L398.962 66.1113L399.507 66.3268C401.144 66.758 404.417 67.6202 407.689 67.6202C416.053 67.6202 421.144 63.74 421.144 57.0574C421.144 51.0214 415.871 48.4346 411.326 46.2789C407.871 44.7699 404.417 43.0454 404.417 40.4586C404.417 39.5963 404.417 37.4406 408.78 37.4406C412.053 37.4406 415.144 38.9496 416.962 39.8119L418.598 40.6741V39.3807V33.1292L416.962 32.6981C415.326 32.2669 412.598 31.6202 409.871 31.6202C402.417 32.0514 397.507 35.9316 397.507 41.9675Z" fill="white"/>
    <path fill-rule="evenodd" clip-rule="evenodd" d="M382.417 33.1293H376.962V33.3448C375.326 38.5185 365.326 64.6023 364.417 66.758L364.235 67.1891H371.144V66.9736C371.689 64.6023 372.417 62.0155 373.326 59.2131H378.962H383.689H384.78C386.053 62.8778 386.962 65.6802 387.326 66.9736V67.1891H395.326L382.417 33.1293ZM379.144 43.261C379.871 44.77 381.326 49.5125 383.326 54.6862H382.78H379.326H375.144C376.417 50.3748 377.871 46.4945 379.144 43.261Z" fill="white"/>
    <path fill-rule="evenodd" clip-rule="evenodd" d="M336.053 33.5604C336.235 37.2251 336.417 46.0634 336.417 49.5125C336.417 52.5305 336.417 62.6622 336.053 66.9736V67.4047H349.326C355.871 67.4047 362.78 65.0335 362.78 58.1353C362.78 53.8239 360.235 50.5904 355.144 48.8658C358.78 47.788 361.326 44.77 361.326 41.3209C361.326 35.7161 355.871 33.5604 350.78 33.3448H336.053V33.5604ZM346.417 37.0095C352.053 37.0095 354.053 38.3029 354.053 41.9676C354.053 42.8299 353.871 43.6922 353.326 44.5544C352.235 46.0634 350.235 46.9257 347.508 46.7101H347.326L345.871 51.4526H347.508C350.598 51.2371 353.144 52.5305 354.598 54.4706C355.144 55.3329 355.508 56.4107 355.508 57.4886C355.508 61.3688 352.78 63.3089 347.326 63.3089H343.871C343.689 58.3508 343.689 51.4526 343.689 49.5125C343.689 47.1413 343.689 41.752 343.871 37.2251C344.417 37.0095 345.326 37.0095 346.417 37.0095Z" fill="white"/>
    <path fill-rule="evenodd" clip-rule="evenodd" d="M328.598 33.1293H320.962V33.5604C321.144 37.2251 321.326 46.0634 321.326 49.5125C321.326 52.5305 321.326 62.6622 320.962 66.9736V67.4047H328.962V66.9736C328.598 62.6622 328.598 52.5305 328.598 49.5125C328.598 46.279 328.78 37.2251 328.962 33.5604V33.1293H328.598Z" fill="white"/>
    <path fill-rule="evenodd" clip-rule="evenodd" d="M289.326 33.5604C289.507 37.2251 289.689 46.0634 289.689 49.5125C289.689 52.5305 289.689 62.6622 289.326 66.9736V67.4047H297.326V66.9736C296.962 62.6622 296.962 52.5305 296.962 49.5125C296.962 47.1412 296.962 41.752 297.144 37.6562C297.871 37.6562 298.78 37.4406 299.326 37.4406C303.144 37.4406 305.689 38.3029 306.962 40.0275C307.507 40.8897 307.871 41.9676 307.871 43.0454C307.871 46.9257 304.78 48.8658 301.871 49.0814H300.235L299.689 48.8658L300.053 49.5125C302.78 54.4706 307.144 63.0933 308.962 66.9736V67.1891H317.507L317.326 66.758C316.962 66.1113 311.507 56.4107 308.962 52.3149C308.962 52.3149 308.962 52.0993 308.78 52.0993C313.144 50.5903 315.326 47.5724 315.326 43.0454C315.326 35.0694 308.235 33.3448 302.053 33.1293H289.507L289.326 33.5604Z" fill="white"/>
    <path fill-rule="evenodd" clip-rule="evenodd" d="M268.053 33.1293L267.871 33.3448C266.417 38.0874 256.78 62.8778 255.326 66.758L255.144 67.1891H262.053V66.9736C262.598 64.6023 263.326 62.0155 264.235 59.2131H269.871H274.598H275.689C276.962 62.8778 277.871 65.6802 278.235 66.9736V67.1891H286.235L273.507 33.1293H273.326H268.053ZM269.871 43.261C270.598 44.77 272.235 49.5125 274.053 54.9017H273.507H270.053H265.871C267.144 50.3748 268.598 46.4945 269.871 43.261Z" fill="white"/>
    <path fill-rule="evenodd" clip-rule="evenodd" d="M231.507 33.5603C231.689 37.225 231.871 46.0633 231.871 49.5124C231.871 52.5303 231.871 62.6621 231.507 66.9735V67.4046H239.507V66.9735C239.326 63.9555 239.144 57.9196 239.144 53.1771H240.598H241.689C252.235 53.1771 257.326 49.7279 257.326 42.8297C257.326 34.8537 250.235 33.1291 244.053 32.9136H231.507V33.5603ZM241.326 37.225C245.144 37.225 247.689 38.0872 248.962 39.8118C249.507 40.6741 249.871 41.7519 249.871 42.8297C249.871 47.7878 245.144 48.8657 241.326 48.8657H239.689C239.689 48.8657 239.326 48.8657 239.144 48.6501V44.3387C239.144 42.183 239.144 39.5962 239.326 37.225C239.689 37.4405 240.417 37.225 241.326 37.225Z" fill="white"/>
    <path fill-rule="evenodd" clip-rule="evenodd" d="M190.598 33.5603C190.78 37.225 190.962 46.0633 190.962 49.5124C190.962 52.5303 190.962 62.6621 190.598 66.9735V67.4046H198.598V66.9735C198.235 63.9555 198.235 57.9196 198.235 53.1771H199.689H200.78C211.326 53.1771 216.416 49.7279 216.416 42.8297C216.416 34.8537 209.326 33.1291 203.144 32.9136H190.598V33.5603ZM200.416 37.225C204.235 37.225 206.78 38.0872 208.053 39.8118C208.598 40.6741 208.962 41.7519 208.962 42.8297C208.962 47.7878 204.235 48.8657 200.416 48.8657H198.78C198.78 48.8657 198.416 48.8657 198.235 48.6501V44.3387V37.225C198.598 37.4405 199.507 37.225 200.416 37.225Z" fill="white"/>
    <path fill-rule="evenodd" clip-rule="evenodd" d="M182.78 33.1293H176.235L176.598 41.752C176.78 46.0634 176.78 50.3748 177.144 54.6862C176.78 53.3927 176.417 52.746 174.417 49.2969C174.417 49.0814 167.689 36.7939 165.326 33.3448H157.507V33.776C157.689 37.4406 157.871 46.279 157.871 49.7281C157.871 52.746 157.871 62.8778 157.507 67.1891V67.6203H164.235V67.1891C163.871 58.782 163.871 50.3748 163.871 42.3987C164.053 43.4766 164.417 44.3388 165.507 46.0634C165.689 46.279 177.144 66.1113 177.689 67.4047V67.6203H183.144V67.1891C182.78 62.8778 182.78 52.746 182.78 49.7281C182.78 46.4945 182.962 37.4406 183.144 33.776V33.3448H182.78V33.1293Z" fill="white"/>
    <path fill-rule="evenodd" clip-rule="evenodd" d="M125.326 33.5604C125.507 37.2251 125.689 46.0634 125.689 49.5125C125.689 52.5305 125.689 62.6622 125.326 66.9736V67.4047H138.598C145.144 67.4047 152.053 65.0335 152.053 58.1353C152.053 53.8239 149.326 50.5904 144.417 48.8658C148.053 47.788 150.417 44.77 150.417 41.3209C150.417 35.7161 144.962 33.5604 139.871 33.3448H125.144L125.326 33.5604ZM135.507 37.0095C141.144 37.0095 143.144 38.3029 143.144 41.9676C143.144 42.8299 142.962 43.6922 142.417 44.5544C141.326 46.0634 139.144 46.9257 136.598 46.7101H136.417L134.962 51.4526H136.598C139.689 51.2371 142.417 52.5305 143.689 54.4706C144.417 55.3329 144.598 56.4107 144.598 57.4886C144.598 61.3688 141.871 63.3089 136.235 63.3089H132.78C132.598 58.3508 132.598 51.4526 132.598 49.5125C132.598 47.1413 132.598 41.752 132.78 37.2251C133.507 37.0095 134.598 37.0095 135.507 37.0095Z" fill="white"/>
    <path fill-rule="evenodd" clip-rule="evenodd" d="M1.14377 0.620239H101.144V100.62H1.14377V0.620239Z" fill="url(#paint0_linear_9_5659)"/>
    <path fill-rule="evenodd" clip-rule="evenodd" d="M98.0602 51.2811C98.0602 72.2062 98.9413 93.5718 98.9413 93.5718C98.9413 95.9947 97.3994 97.5366 95.417 97.5366H9.07342C7.09104 97.5366 5.76945 95.7745 5.54919 93.5718C5.54919 93.5718 3.12628 75.2899 3.12628 47.5366C3.12628 19.7833 5.54919 6.56742 5.54919 6.56742C5.76945 4.36478 7.09104 2.60266 9.07342 2.60266H95.6373C97.6197 2.60266 99.1615 4.36478 99.1615 6.56742C98.9413 6.34715 98.0602 30.356 98.0602 51.2811Z" fill="url(#paint1_linear_9_5659)"/>
    <path fill-rule="evenodd" clip-rule="evenodd" d="M78.897 27.7128C72.7296 31.237 70.7472 31.6776 64.1393 35.6423L64.3595 34.9815C67.8838 31.237 69.4256 29.4749 71.6283 26.1709C65.4609 26.6115 56.43 27.2723 50.0424 28.5939L50.4829 27.9331C56.2098 25.0696 67.223 22.2062 72.7296 21.5454C71.408 19.563 60.3948 13.6159 57.7516 12.5146L57.9719 11.8538C66.3419 12.7348 77.3551 16.6996 81.9807 19.563C83.9631 18.9022 86.1657 18.9022 89.9102 18.4617C89.9102 18.4617 89.2494 20.6643 85.2847 23.5278C86.386 26.1709 83.9631 41.3692 81.7604 45.3339C81.7604 39.1665 81.0996 31.237 78.897 27.7128Z" fill="url(#paint2_linear_9_5659)"/>
    <path fill-rule="evenodd" clip-rule="evenodd" d="M33.7429 81.6775L33.9632 81.0167C30.6592 79.6951 27.3552 78.8141 24.7121 76.1709C25.5931 73.748 26.4742 71.9859 28.016 69.7832L28.2363 69.1224C25.3729 69.563 22.95 70.6643 20.527 71.1048C18.5447 67.8009 17.8839 63.1753 16.7826 58.77L16.5623 59.4308C16.1218 64.4969 15.9015 68.0211 16.5623 71.9859C14.5799 72.6467 12.8178 72.6467 11.0557 73.3075L10.8354 73.9683C13.4786 75.5101 15.461 76.8317 18.5447 78.1533C20.0865 81.4573 21.8486 83.8802 24.4918 86.5233L24.7121 85.8625C24.2715 83.8802 23.6107 82.3383 23.831 80.1357C27.135 81.0167 29.9984 81.6775 33.7429 81.6775Z" fill="url(#paint3_linear_9_5659)"/>
    <path fill-rule="evenodd" clip-rule="evenodd" d="M42.7737 31.4573C42.7737 31.4573 41.4521 33.8802 40.3507 36.9639H40.1305C47.8397 38.0652 55.1085 41.1489 56.8706 42.2502L56.6503 42.911C48.7208 41.5894 44.5358 41.5894 41.4521 42.03C38.5886 42.2502 37.9278 42.6908 37.9278 42.6908C36.1657 46.4352 35.2847 52.6027 34.8441 54.8053L34.6239 55.4661C33.082 51.9419 31.0996 44.8934 31.0996 44.8934C27.1349 47.096 17.8838 55.6864 17.8838 55.6864C22.9499 45.5542 28.2362 40.9286 28.2362 40.9286C26.4741 39.1665 21.8485 38.2855 18.3243 38.0652L18.5446 37.4044C20.7472 36.7436 25.1525 36.5234 28.0159 36.3031H33.5226C36.6063 33.8802 41.2318 31.6775 42.7737 31.4573Z" fill="url(#paint4_linear_9_5659)"/>
    <path fill-rule="evenodd" clip-rule="evenodd" d="M52.4655 75.2899C50.9236 77.4926 49.3818 79.2547 47.6197 81.2371C44.9765 81.8978 41.8928 81.6776 39.4699 81.6776L39.2496 82.3384C41.0117 83.2194 42.7738 83.8802 44.7562 84.3208C43.2144 85.6423 41.232 86.7437 39.6901 87.845L39.4699 88.5058C42.5536 87.845 46.7386 86.5234 49.8223 84.541C51.3641 84.541 52.906 84.541 54.0073 84.3208L54.2276 83.66C54.0073 82.9992 53.3465 82.5586 53.1263 81.4573C55.9897 79.2547 57.9721 77.2723 60.395 74.8494L60.8355 74.1886C58.4126 75.7304 55.5492 78.1534 52.906 79.4749C52.6857 77.9331 52.6857 76.8318 52.4655 75.2899Z" fill="url(#paint5_linear_9_5659)"/>
    <path fill-rule="evenodd" clip-rule="evenodd" d="M79.1172 27.052C72.9498 30.5763 70.9674 31.0168 64.3594 34.9816C68.3242 30.7965 69.6458 29.0344 72.0687 25.2899C65.9013 25.5102 56.8705 26.3913 50.4828 27.7128C55.9894 24.6291 67.2229 21.3252 72.9498 20.6644C71.6282 18.9023 60.6149 12.9551 57.9718 11.6335C66.5621 12.2943 77.355 15.5983 82.4211 18.682C84.4035 18.0212 86.6061 18.0212 90.3506 17.5807C89.4696 19.1225 89.2493 20.2239 85.7251 22.6468C86.8264 25.2899 84.4035 40.4882 82.2009 44.4529C81.9806 38.2855 81.5401 30.356 79.1172 27.052Z" fill="white"/>
    <path fill-rule="evenodd" clip-rule="evenodd" d="M33.963 81.0169C30.4388 79.6953 27.7956 78.1534 25.1525 75.5102C26.0335 73.0873 26.9146 71.3252 28.4564 69.1226C25.593 69.5631 23.3904 69.7834 20.9674 70.4442C18.9851 66.9199 18.104 63.3957 17.0027 58.7701C16.5622 63.8362 16.3419 67.3605 17.0027 71.3252C14.8 71.986 13.0379 72.4265 11.2758 73.3076C13.919 74.8495 16.1216 76.171 18.9851 77.4926C20.5269 80.7966 22.289 83.2195 24.9322 85.8627C24.2714 83.66 24.0511 81.8979 24.4917 79.475C27.3551 80.3561 30.2185 80.7966 33.963 81.0169Z" fill="white"/>
    <path fill-rule="evenodd" clip-rule="evenodd" d="M43.2143 31.0167C42.113 32.5586 40.7914 35.2017 40.5711 36.3031C49.602 37.6247 57.091 42.2502 57.091 42.2502C49.1614 40.9286 44.9764 40.9286 41.8927 41.3692C39.0293 41.5894 38.3685 42.0299 38.3685 42.0299C36.1658 46.6555 34.8443 54.8053 34.8443 54.8053C33.3024 51.281 31.32 44.2326 31.32 44.2326C27.3553 46.4352 18.1042 55.0255 18.1042 55.0255C23.1702 44.8934 28.4566 40.2678 28.4566 40.2678C26.6945 38.5057 22.0689 37.6247 18.5447 37.4044C20.3068 36.7436 24.9324 35.8625 28.4566 35.6423H33.9632C36.8266 33.2194 41.6725 31.237 43.2143 31.0167Z" fill="white"/>
    <path fill-rule="evenodd" clip-rule="evenodd" d="M52.9058 74.6291C51.3639 76.8318 49.8221 78.5939 48.06 80.5763C44.9763 81.4573 42.5534 81.6776 39.4697 81.6776C41.2318 82.5586 42.9939 83.2194 44.9763 83.66C42.9939 85.4221 41.452 86.5234 39.4697 87.845C42.5534 87.1842 46.7384 85.8626 49.8221 83.8802C51.3639 83.8802 52.9058 83.8802 54.0071 83.66C53.7869 82.7789 53.5666 82.1181 53.3463 80.7965C56.2098 78.5939 58.4124 76.6115 60.615 74.1886C57.9719 75.9507 55.7692 77.2723 52.9058 78.5939C53.1261 77.2723 52.9058 76.171 52.9058 74.6291Z" fill="white"/>
    <rect x="449.622" y="31" width="4" height="40" fill="#D8D8D8"/>
    <path fill-rule="evenodd" clip-rule="evenodd" d="M700.389 42.8403C700.058 37.6965 698.019 31.9586 689.249 31.9586C682.993 31.9586 678.205 35.8167 678.205 42.3456C678.205 53.6229 692.616 53.2767 692.616 58.3219C692.616 60.0525 691.383 60.7457 689.107 60.7457C686.263 60.7457 683.277 59.4595 680.907 56.8875L677.636 63.1197C680.196 65.741 683.94 67.9668 689.013 67.9668C696.36 67.9668 700.341 64.158 700.341 57.679C700.341 47.4895 685.884 47.6875 685.884 41.9501C685.884 40.1198 687.212 39.1802 689.202 39.1802C692.094 39.1802 692.853 41.0599 693.042 43.8792L700.389 42.8403ZM665.54 67.4571H673.426V32.4857H665.54V67.4571ZM605.902 32.4857V67.4571H625.617V60.2571H613.295V53.0571H624.631V46.3714H613.295V39.6857H625.124V32.4857H605.902ZM572.879 32.4857V67.4571H580.272V46.7479L591.635 67.4571H599.495V32.4857H592.101V53.6229L580.59 32.4857H572.879ZM539.856 32.4857V67.4571H547.249V46.7479L558.693 67.4571H566.472V32.4857H559.078V53.6229L547.648 32.4857H539.856ZM521.911 39.1802C525.277 39.1802 527.41 41.3561 527.41 49.9627C527.41 58.5199 525.277 60.7457 521.911 60.7457C518.593 60.7457 516.033 58.5199 516.033 49.9627C516.033 41.3561 518.593 39.1802 521.911 39.1802ZM521.911 31.9586C514.421 31.9586 508.496 36.707 508.496 50.0121C508.496 63.2678 514.374 67.9668 521.864 67.9668C529.448 67.9668 535.373 63.2678 535.373 50.0121C535.373 36.707 529.495 31.9586 521.911 31.9586ZM506.129 43.6318C506.081 35.6686 501.815 31.9586 494.989 31.9586C486.267 31.9586 481.622 37.2511 481.622 49.7153C481.622 62.6748 486.978 67.9668 495.605 67.9668C500.108 67.9668 503.142 66.5325 505.655 65.0487L504.849 58.2725C502.431 59.6575 499.777 60.7457 496.696 60.7457C492.477 60.7457 489.348 58.6181 489.348 49.7153C489.348 42.1476 490.912 39.1802 494.941 39.1802C497.644 39.1802 498.734 41.208 498.829 44.2747L506.129 43.6318ZM644.211 48.4527C648.044 54.9713 653.805 61.7568 660.783 67.4849C663.598 69.7966 666.52 71.8538 669.398 73.5612C663.721 72.0759 656.975 68.3592 650.54 63.0765C647.204 60.3369 644.154 57.3617 641.469 54.3069C641.072 55.2891 640.691 56.2791 640.346 57.2851C636.798 67.6212 636.397 78.0499 639.155 87C637.788 85.0694 636.633 82.9238 635.702 80.5817C631.794 70.746 632.401 58.9215 636.514 47.9878C630.856 39.8112 628.193 31.8125 630.145 26.8502C631.529 23.335 634.953 22.5975 637.582 22.5975C639.732 22.5975 642.242 23.0841 644.944 24.0175C642.497 24.8496 640.739 26.5087 639.795 28.9068C638.645 31.8295 638.897 35.6625 640.277 39.9274C644.102 33.1625 649.335 27.0965 655.695 22.5477C662.598 17.6095 670.054 15 677.254 15C685.953 15 693.445 18.7887 698.442 25.5583C694.059 22.8336 688.969 21.4142 683.471 21.4142C675.878 21.4147 668.046 24.1461 660.821 29.3136C654.027 34.1736 648.32 40.795 644.211 48.4527Z" fill="#FEFEFE"/>
    <defs>
        <linearGradient id="paint0_linear_9_5659" x1="51.1783" y1="-1.75377" x2="51.1783" y2="103.7" gradientUnits="userSpaceOnUse">
            <stop stop-color="#007E54"/>
            <stop offset="0.6" stop-color="#84CAAE"/>
            <stop offset="1" stop-color="#00A56E"/>
        </linearGradient>
        <linearGradient id="paint1_linear_9_5659" x1="51.0208" y1="-24.1118" x2="51.0208" y2="94.3897" gradientUnits="userSpaceOnUse">
            <stop stop-color="#00A56E"/>
            <stop offset="0.3" stop-color="#84CAAE"/>
            <stop offset="0.55" stop-color="#00A56E"/>
            <stop offset="0.8352" stop-color="#007E54"/>
            <stop offset="0.8691" stop-color="#008359"/>
            <stop offset="0.9244" stop-color="#009165"/>
            <stop offset="0.9938" stop-color="#00A77B"/>
            <stop offset="1" stop-color="#00AB7E"/>
        </linearGradient>
        <linearGradient id="paint2_linear_9_5659" x1="70.0027" y1="87.8472" x2="70.0027" y2="11.161" gradientUnits="userSpaceOnUse">
            <stop stop-color="#06B288"/>
            <stop offset="1" stop-color="#00A56E"/>
        </linearGradient>
        <linearGradient id="paint3_linear_9_5659" x1="22.4235" y1="87.8504" x2="22.4235" y2="11.1409" gradientUnits="userSpaceOnUse">
            <stop stop-color="#06B288"/>
            <stop offset="1" stop-color="#00A56E"/>
        </linearGradient>
        <linearGradient id="paint4_linear_9_5659" x1="37.2448" y1="87.8324" x2="37.2448" y2="11.1731" gradientUnits="userSpaceOnUse">
            <stop stop-color="#06B288"/>
            <stop offset="1" stop-color="#00A56E"/>
        </linearGradient>
        <linearGradient id="paint5_linear_9_5659" x1="50.0597" y1="87.8448" x2="50.0597" y2="11.1595" gradientUnits="userSpaceOnUse">
            <stop stop-color="#06B288"/>
            <stop offset="1" stop-color="#00A56E"/>
        </linearGradient>
    </defs>
</svg>