<svg width="147" height="48" viewBox="0 0 147 48" fill="none" xmlns="http://www.w3.org/2000/svg">
    <path fill-rule="evenodd" clip-rule="evenodd" d="M146.44 18.5602C146.218 15.131 144.854 11.3057 138.983 11.3057C134.795 11.3057 131.59 13.8778 131.59 18.2304C131.59 25.7486 141.237 25.5178 141.237 28.8813C141.237 30.035 140.412 30.4971 138.888 30.4971C136.985 30.4971 134.986 29.6397 133.399 27.925L131.21 32.0798C132.923 33.8273 135.43 35.3112 138.825 35.3112C143.743 35.3112 146.408 32.772 146.408 28.4527C146.408 21.6597 136.731 21.7917 136.731 17.9667C136.731 16.7465 137.62 16.1201 138.952 16.1201C140.888 16.1201 141.396 17.3733 141.522 19.2528L146.44 18.5602ZM123.113 34.9714H128.392V11.6571H123.113V34.9714ZM83.1918 11.6571V34.9714H96.3889V30.1714H88.1407V25.3714H95.729V20.9143H88.1407V16.4571H96.059V11.6571H83.1918ZM61.0867 11.6571V34.9714H66.0356V21.1653L73.6417 34.9714H78.9027V11.6571H73.9538V25.7486L66.2481 11.6571H61.0867ZM38.9816 11.6571V34.9714H43.9305V21.1653L51.5904 34.9714H56.7976V11.6571H51.8487V25.7486L44.1974 11.6571H38.9816ZM26.9692 16.1201C29.2223 16.1201 30.6499 17.5707 30.6499 23.3085C30.6499 29.0133 29.2223 30.4971 26.9692 30.4971C24.7482 30.4971 23.0345 29.0133 23.0345 23.3085C23.0345 17.5707 24.7482 16.1201 26.9692 16.1201ZM26.9692 11.3057C21.9557 11.3057 17.9893 14.4713 17.9893 23.3414C17.9893 32.1785 21.924 35.3112 26.9376 35.3112C32.0145 35.3112 35.9809 32.1785 35.9809 23.3414C35.9809 14.4713 32.0462 11.3057 26.9692 11.3057ZM16.4046 19.0879C16.373 13.7791 13.5171 11.3057 8.94796 11.3057C3.10956 11.3057 0 14.8341 0 23.1435C0 31.7832 3.58532 35.3112 9.36036 35.3112C12.3746 35.3112 14.4056 34.355 16.0876 33.3658L15.5478 28.8483C13.9299 29.7717 12.1529 30.4971 10.0905 30.4971C7.26632 30.4971 5.17194 29.0787 5.17194 23.1435C5.17194 18.0984 6.21913 16.1201 8.91595 16.1201C10.7249 16.1201 11.4547 17.472 11.5181 19.5165L16.4046 19.0879ZM108.835 22.3018C111.401 26.6475 115.257 31.1712 119.929 34.9899C121.813 36.5311 123.769 37.9025 125.695 39.0408C121.895 38.0506 117.38 35.5728 113.072 32.051C110.839 30.2246 108.797 28.2411 107 26.2046C106.734 26.8594 106.479 27.5194 106.248 28.1901C103.873 35.0808 103.605 42.0333 105.451 48C104.536 46.7129 103.763 45.2825 103.14 43.7211C100.524 37.164 100.93 29.281 103.683 21.9919C99.896 16.5408 98.1131 11.2083 99.4199 7.90011C100.346 5.55669 102.638 5.06503 104.398 5.06503C105.837 5.06503 107.518 5.38937 109.326 6.01166C107.688 6.5664 106.511 7.67246 105.88 9.2712C105.11 11.2197 105.278 13.775 106.202 16.6183C108.762 12.1083 112.266 8.06434 116.523 5.03177C121.144 1.73966 126.134 0 130.954 0C136.777 0 141.792 2.52583 145.137 7.03886C142.203 5.2224 138.796 4.27611 135.116 4.27611C130.033 4.27646 124.79 6.09737 119.954 9.5424C115.406 12.7824 111.586 17.1967 108.835 22.3018Z" fill="white"/>
</svg>