<svg width="48" height="49" viewBox="0 0 48 49" fill="none" xmlns="http://www.w3.org/2000/svg">
    <path fill-rule="evenodd" clip-rule="evenodd" d="M24.0003 4.89807C27.27 4.89807 30.1721 6.10048 32.4852 8.41326C34.7972 10.7255 36 13.6285 36 16.8977V22.8981H42V44.8981H6V22.8981H12V16.8977C12 13.6283 13.203 10.7253 15.5157 8.41296C17.8284 6.10062 20.7309 4.89807 24.0003 4.89807ZM24.0003 8.89807C21.7918 8.89807 19.9066 9.67914 18.3439 11.2416C16.7814 12.8038 16 14.6894 16 16.8977V22.8981H32V16.8977C32 14.6894 31.2187 12.8037 29.6567 11.2416C28.0939 9.67903 26.209 8.89807 24.0003 8.89807Z" fill="black"/>
</svg>