<svg width="48" height="48" viewBox="0 0 48 48" fill="none" xmlns="http://www.w3.org/2000/svg">
    <path fill-rule="evenodd" clip-rule="evenodd" d="M34.599 16C34.599 21.525 30.124 26 24.599 26C19.074 26 14.599 21.525 14.599 16C14.599 10.475 19.074 6 24.599 6C30.124 6 34.599 10.475 34.599 16ZM13.9962 30C10.5514 30 7.49315 32.2034 6.40382 35.4702L5.10421 39.3675C4.67235 40.6626 5.63666 42 7.0023 42H40.9977C42.3633 42 43.3276 40.6626 42.8958 39.3675L41.5962 35.4702C40.5068 32.2034 37.4486 30 34.0038 30H13.9962Z" fill="black"/>
</svg>