<svg width="24" height="24" viewBox="0 0 24 24" fill="none" xmlns="http://www.w3.org/2000/svg">
<path fill-rule="evenodd" clip-rule="evenodd" d="M23.7864 10.3817L17.8142 2.41889C17.6884 2.24265 17.5094 2.1139 17.3075 2.04854C17.1709 2.00434 17.0239 1.98913 16.8759 2.00786C16.8097 2.01609 16.744 2.031 16.6798 2.05273L0.724178 7.03885C0.662837 7.05646 0.602633 7.08013 0.544449 7.11001C0.438464 7.16412 0.345224 7.23564 0.267217 7.31984C0.165798 7.42885 0.0924025 7.55675 0.0485265 7.6931C0.00433865 7.82961 -0.0108606 7.97656 0.00784894 8.12456C0.0219735 8.23819 0.0557717 8.35045 0.109996 8.45605C0.139736 8.51431 0.174739 8.56872 0.214217 8.61887L6.18631 16.5817C6.22588 16.6371 6.2707 16.6878 6.31984 16.7333C6.42882 16.8347 6.55667 16.9081 6.69298 16.952C6.82927 16.9961 6.97598 17.0113 7.12375 16.9928C7.19023 16.9846 7.25625 16.9696 7.32074 16.9478L23.2764 11.9617C23.3377 11.9441 23.3979 11.9204 23.4561 11.8905C23.697 11.7676 23.872 11.5546 23.952 11.3074C23.9961 11.1712 24.0113 11.0245 23.9928 10.8768C23.9787 10.7627 23.9448 10.65 23.8903 10.544C23.8606 10.4859 23.8257 10.4317 23.7864 10.3817ZM16.6242 4.16549L21.351 10.468L17.1591 11.7779C17.4012 10.2838 16.8957 8.43811 15.6671 6.84808C15.0985 6.11214 14.4378 5.51225 13.7426 5.06598L16.6242 4.16549ZM11.1352 13.6604C10.4292 13.2122 9.75784 12.6058 9.18118 11.8595C7.9607 10.2799 7.45376 8.44798 7.68455 6.95912L2.6495 8.53257L7.37635 14.835L11.1352 13.6604ZM10.1166 6.36724C10.3638 6.17621 10.848 6.02359 11.6381 6.26428C12.4228 6.50334 13.3334 7.09879 14.0845 8.07091C14.8356 9.04303 15.182 10.0744 15.2153 10.8941C15.2488 11.7193 14.979 12.1493 14.7317 12.3403C14.4845 12.5314 14.0003 12.684 13.2102 12.4433C12.4255 12.2042 11.5149 11.6088 10.7638 10.6367C10.0127 9.66455 9.6663 8.63314 9.633 7.81351C9.59947 6.98826 9.86933 6.55826 10.1166 6.36724Z" fill="#191919"/>
<path d="M1.79289 13.3906C1.45616 12.9528 0.828311 12.8709 0.390556 13.2076C-0.0471976 13.5444 -0.129091 14.1722 0.207643 14.61L5.19346 21.0915C5.32121 21.2659 5.50145 21.3924 5.70376 21.4554C5.90612 21.518 6.12622 21.5159 6.33023 21.4445L23.3081 15.9517C23.8336 15.7817 24.1217 15.2179 23.9517 14.6924C23.7817 14.167 23.2179 13.8788 22.6924 14.0488L6.36311 19.3318L1.79289 13.3906Z" fill="#191919"/>
</svg>
