<?xml version="1.0" encoding="UTF-8" standalone="no"?>
<svg
   width="72"
   height="1121"
   viewBox="0 0 72 1121"
   fill="none"
   version="1.1"
   id="svg94"
   xmlns="http://www.w3.org/2000/svg"
   xmlns:svg="http://www.w3.org/2000/svg">
  <defs
     id="defs98" />
  <path
     fill-rule="evenodd"
     clip-rule="evenodd"
     d="m 27.0631,315.48 -0.063,-7.676 c -0.0074,-0.841 0.4966,-1.607 1.2873,-1.96 l 8.0849,-3.605 c 0.7151,-0.319 1.5393,-0.319 2.2554,0 l 8.0839,3.605 c 0.7906,0.353 1.2946,1.119 1.2883,1.96 l -0.063,7.676 c 0.0231,2.496 -0.462,4.141 -1.8458,5.873 -1.8092,2.3 -4.7177,3.94 -8.5911,4.647 -3.8734,-0.707 -6.7819,-2.347 -8.5921,-4.647 -1.3828,-1.732 -1.8679,-3.377 -1.8448,-5.873 z M 28.5,307.791 c -0.0019,-0.22 0.1303,-0.457 0.3986,-0.577 l 8.0849,-3.605 c 0.3256,-0.145 0.7061,-0.145 1.0338,0 l 8.0834,3.605 c 0.2675,0.12 0.4006,0.358 0.3993,0.579 l -0.063,7.674 v 0.027 c 0.0206,2.221 -0.3896,3.51 -1.5179,4.923 l -0.007,0.009 c -1.4921,1.896 -3.9476,3.365 -7.4121,4.047 -3.4645,-0.682 -5.9202,-2.151 -7.4133,-4.048 l -0.0066,-0.008 c -1.1275,-1.412 -1.5376,-2.702 -1.5171,-4.923 v -0.027 z m 7.3257,4.477 c 0,-0.682 0.7766,-1.518 2.1288,-1.518 1.3523,0 2.1288,0.836 2.1288,1.518 0,0.302 -0.1229,0.539 -0.4772,0.865 -0.1851,0.17 -0.408,0.341 -0.6827,0.549 l -0.0387,0.029 v 0 c -0.2505,0.19 -0.5349,0.405 -0.8214,0.649 l -4.0081,2.953 c -0.2609,0.192 -0.3689,0.53 -0.2677,0.838 0.1011,0.308 0.3885,0.516 0.7125,0.516 h 6.3333 c 0.4142,0 0.75,-0.336 0.75,-0.75 0,-0.415 -0.3358,-0.75 -0.75,-0.75 h -4.0505 l 2.1923,-1.615 c 0.0151,-0.011 0.0298,-0.023 0.044,-0.035 0.2576,-0.222 0.5166,-0.418 0.7803,-0.617 l 0.0291,-0.022 c 0.2651,-0.201 0.5459,-0.414 0.7926,-0.641 0.5094,-0.468 0.9622,-1.076 0.9622,-1.969 0,-1.824 -1.8012,-3.018 -3.6288,-3.018 -1.8275,0 -3.6288,1.194 -3.6288,3.018 0,0.414 0.3358,0.75 0.75,0.75 0.4143,0 0.75,-0.336 0.75,-0.75 z"
     fill="#414141"
     id="path2" />
  <path
     fill-rule="evenodd"
     clip-rule="evenodd"
     d="m 27.0001,259.804 0.063,7.676 c -0.0231,2.496 0.462,4.141 1.8448,5.873 1.8102,2.3 4.7187,3.94 8.5921,4.647 3.8734,-0.707 6.7819,-2.347 8.5911,-4.647 1.3838,-1.732 1.8689,-3.377 1.8458,-5.873 l 0.063,-7.676 c 0.0063,-0.841 -0.4977,-1.607 -1.2883,-1.96 l -8.0839,-3.605 c -0.7161,-0.319 -1.5403,-0.319 -2.2554,0 l -8.0849,3.605 c -0.7907,0.353 -1.2947,1.119 -1.2873,1.96 z m 1.8985,-0.59 v 0 c -0.2683,0.12 -0.4005,0.357 -0.3986,0.577 l 0.063,7.676 v 0.027 c -0.0205,2.221 0.3896,3.511 1.5171,4.923 l 0.0066,0.008 c 1.4931,1.897 3.9488,3.366 7.4133,4.048 3.4645,-0.682 5.92,-2.151 7.4121,-4.047 l 0.007,-0.009 c 1.1283,-1.413 1.5385,-2.702 1.5179,-4.923 v -0.027 l 0.063,-7.674 v 0 c 0.0013,-0.221 -0.1318,-0.459 -0.3993,-0.579 l -8.0834,-3.605 c -0.3277,-0.145 -0.7082,-0.145 -1.0338,0 z"
     fill="#414141"
     id="path4" />
  <path
     fill-rule="evenodd"
     clip-rule="evenodd"
     d="m 35.3901,262.25 c 0,-0.414 0.3358,-0.75 0.75,-0.75 H 37.5 c 0.4142,0 0.75,0.336 0.75,0.75 v 7.5 c 0,0.414 -0.3358,0.75 -0.75,0.75 -0.4142,0 -0.75,-0.336 -0.75,-0.75 V 263 h -0.6099 c -0.4142,0 -0.75,-0.336 -0.75,-0.75 z"
     fill="#414141"
     id="path6" />
  <path
     fill-rule="evenodd"
     clip-rule="evenodd"
     d="m 28.75,211.75 c -0.1381,0 -0.25,0.112 -0.25,0.25 v 16 c 0,0.138 0.1119,0.25 0.25,0.25 h 16 c 0.1381,0 0.25,-0.112 0.25,-0.25 v -16 c 0,-0.138 -0.1119,-0.25 -0.25,-0.25 h -3.1538 v -1.5 H 44.75 c 0.9665,0 1.75,0.784 1.75,1.75 v 16 c 0,0.966 -0.7835,1.75 -1.75,1.75 h -16 C 27.7835,229.75 27,228.967 27,228 v -16 c 0,-0.966 0.7835,-1.75 1.75,-1.75 h 3.1538 v 1.5 z"
     fill="#414141"
     id="path8" />
  <path
     fill-rule="evenodd"
     clip-rule="evenodd"
     d="m 38.6786,209.833 v -1.5 c 0,0 2e-4,-0.172 -0.3482,-0.41 -0.3405,-0.231 -0.8948,-0.423 -1.5804,-0.423 -0.6856,0 -1.2399,0.192 -1.5804,0.423 -0.3484,0.238 -0.3482,0.41 -0.3482,0.41 v 1.5 h -2.5715 v 1.667 h 9 v -1.667 z m 1.5,-1.5 c 0,-1.288 -1.5351,-2.333 -3.4286,-2.333 -1.8936,0 -3.4286,1.045 -3.4286,2.333 h -1.5715 c -0.5523,0 -1,0.448 -1,1 V 213 h 12 v -3.667 c 0,-0.552 -0.4477,-1 -1,-1 z"
     fill="#414141"
     id="path10" />
  <path
     fill-rule="evenodd"
     clip-rule="evenodd"
     d="m 41.1961,216.715 c 0.2954,0.29 0.2996,0.765 0.0093,1.061 l -5.4124,5.508 c -0.1402,0.143 -0.3316,0.224 -0.5316,0.225 -0.2001,0.001 -0.3922,-0.079 -0.5337,-0.22 l -3.008,-3.008 c -0.2929,-0.293 -0.2929,-0.768 -10e-5,-1.06 0.2929,-0.293 0.7678,-0.293 1.0607,-0.001 l 2.473,2.473 4.8822,-4.969 c 0.2903,-0.295 0.7651,-0.299 1.0606,-0.009 z"
     fill="#414141"
     id="path12" />
  <path
     fill-rule="evenodd"
     clip-rule="evenodd"
     d="m 26.5,165.75 v 15 c 0,0.138 0.1119,0.25 0.25,0.25 h 20 c 0.1381,0 0.25,-0.112 0.25,-0.25 v -15 h 1.5 v 15 c 0,0.966 -0.7835,1.75 -1.75,1.75 h -20 c -0.9665,0 -1.75,-0.784 -1.75,-1.75 v -15 z"
     fill="#414141"
     id="path14" />
  <path
     fill-rule="evenodd"
     clip-rule="evenodd"
     d="m 29.05,160 c -0.252,0 -0.4871,0.127 -0.626,0.337 l -3.3,5 c -0.152,0.23 -0.1652,0.525 -0.0344,0.768 0.1307,0.243 0.3844,0.395 0.6604,0.395 h 22 c 0.276,0 0.5297,-0.152 0.6604,-0.395 0.1308,-0.243 0.1176,-0.538 -0.0344,-0.768 l -3.3,-5 C 44.9371,160.127 44.702,160 44.45,160 Z m -1.9064,5 2.31,-3.5 H 36 V 165 Z M 37.5,165 h 8.8564 l -2.31,-3.5 H 37.5 Z"
     fill="#414141"
     id="path16" />
  <path
     d="m 31.8168,171.535 c -0.2889,0.292 -0.2889,0.762 0,1.054 l 2.1111,2.135 c 0.2913,0.295 0.7662,0.297 1.0607,0.006 0.2945,-0.291 0.2971,-0.766 0.0059,-1.061 l -0.9368,-0.947 h 4.817 c 0.8423,0 1.5251,0.683 1.5251,1.525 0,0.842 -0.6828,1.525 -1.5251,1.525 h -2.1248 c -0.4142,0 -0.75,0.336 -0.75,0.75 0,0.414 0.3358,0.75 0.75,0.75 h 2.1248 c 1.6707,0 3.0251,-1.354 3.0251,-3.025 0,-1.671 -1.3544,-3.025 -3.0251,-3.025 h -4.639 l 0.7588,-0.767 c 0.2912,-0.295 0.2886,-0.77 -0.0059,-1.061 -0.2945,-0.291 -0.7694,-0.288 -1.0607,0.006 z"
     fill="#414141"
     id="path18" />
  <path
     fill-rule="evenodd"
     clip-rule="evenodd"
     d="m 26.5,82 c 0,-5.799 4.701,-10.5 10.5,-10.5 5.799,0 10.5,4.701 10.5,10.5 0,2.2849 -0.729,4.3991 -1.969,6.1233 C 45.1386,86.8814 44.2469,85.8108 43.0838,85.0055 41.4956,83.9061 39.3424,83.25 37,83.25 c -2.3424,0 -4.4956,0.6561 -6.0838,1.7555 -1.1631,0.8053 -2.0548,1.8759 -2.4472,3.1178 C 27.229,86.3991 26.5,84.2848 26.5,82 Z m 3.2505,7.5958 c 0.2871,0.2741 0.5898,0.5321 0.9066,0.7727 1.7622,1.338 3.9578,2.1315 6.3429,2.1315 2.4846,0 4.7639,-0.8611 6.5618,-2.3023 0.238,-0.1908 0.4674,-0.3916 0.6877,-0.6019 3e-4,-0.0191 5e-4,-0.0382 5e-4,-0.0573 0,-1.2138 -0.7098,-2.3926 -2.0201,-3.2997 C 40.9226,85.3338 39.0759,84.75 37,84.75 c -2.0759,0 -3.9226,0.5838 -5.2299,1.4888 -1.3103,0.9071 -2.0201,2.0859 -2.0201,3.2997 0,0.0191 2e-4,0.0382 5e-4,0.0573 z M 49,82 c 0,3.7896 -1.7566,7.1689 -4.5,9.3681 C 42.4456,93.0149 39.8378,94 37,94 34.2761,94 31.7641,93.0924 29.75,91.5631 26.8638,89.3716 25,85.9035 25,82 c 0,-6.6274 5.3726,-12 12,-12 6.6274,0 12,5.3726 12,12 z M 36.9996,80.5 c 1.6016,0 2.9,-1.2984 2.9,-2.9 0,-1.6017 -1.2984,-2.9 -2.9,-2.9 -1.6016,0 -2.9,1.2983 -2.9,2.9 0,1.6016 1.2984,2.9 2.9,2.9 z m 0,1.5 c 2.4301,0 4.4,-1.97 4.4,-4.4 0,-2.4301 -1.9699,-4.4 -4.4,-4.4 -2.43,0 -4.4,1.9699 -4.4,4.4 0,2.43 1.97,4.4 4.4,4.4 z m 2.7979,6.0611 c 0.3099,-0.2748 0.3383,-0.7489 0.0634,-1.0588 -0.2749,-0.3098 -0.7489,-0.3382 -1.0588,-0.0634 l -2.5165,2.2321 -0.9555,-0.9555 c -0.2929,-0.2929 -0.7677,-0.2929 -1.0606,0 -0.2929,0.2929 -0.2929,0.7678 0,1.0607 l 1.4549,1.4549 c 0.2806,0.2806 0.7312,0.2941 1.028,0.0308 z"
     fill="#414141"
     id="path20" />
  <path
     fill-rule="evenodd"
     clip-rule="evenodd"
     d="M 28.1276,24.786 C 28.4515,24.2953 29.0002,24 29.5881,24 h 14.3237 c 0.588,0 1.1367,0.2953 1.4606,0.786 l 2.9972,4.5413 C 48.4519,29.4477 48.5,29.5932 48.5,29.75 v 3.3333 c 0,0.1155 -0.0266,0.2293 -0.0778,0.3328 -0.1773,0.358 -0.3997,0.67 -0.6556,0.9358 v 9.9313 c 0,0.9665 -0.7835,1.75 -1.75,1.75 H 27.4833 c -0.9665,0 -1.75,-0.7835 -1.75,-1.75 V 34.3517 C 25.4774,34.086 25.2551,33.7741 25.0778,33.4161 25.0266,33.3126 25,33.1988 25,33.0833 V 29.75 c 0,-0.156 0.0476,-0.3009 0.1292,-0.4209 z M 44.1205,25.6123 46.3564,29 H 27.1436 l 2.2359,-3.3877 C 29.4258,25.5422 29.5041,25.5 29.5881,25.5 h 14.3237 c 0.084,0 0.1624,0.0422 0.2087,0.1123 z m 2.1461,9.6823 c -1.3661,0.4582 -2.9676,0.1497 -4.0166,-0.9256 -1.4711,1.508 -4.0289,1.508 -5.5,0 -1.4711,1.508 -4.0289,1.508 -5.5,0 -1.049,1.0753 -2.6506,1.3839 -4.0167,0.9256 v 8.9886 c 0,0.1381 0.1119,0.25 0.25,0.25 h 18.5333 c 0.1381,0 0.25,-0.1119 0.25,-0.25 z M 26.5,32.8946 V 30.5 l 20.5,8e-4 v 2.3938 c -0.8942,1.5204 -3.2777,1.4724 -4.0778,-0.144 -0.1265,-0.2556 -0.387,-0.4173 -0.6722,-0.4173 -0.2852,0 -0.5457,0.1617 -0.6722,0.4173 -0.8246,1.6659 -3.331,1.6659 -4.1556,0 -0.1265,-0.2556 -0.387,-0.4173 -0.6722,-0.4173 -0.2852,0 -0.5457,0.1617 -0.6722,0.4173 -0.8246,1.6659 -3.331,1.6659 -4.1556,0 -0.1265,-0.2556 -0.387,-0.4173 -0.6722,-0.4173 -0.2852,0 -0.5457,0.1617 -0.6722,0.4173 -0.8001,1.6164 -3.1836,1.6644 -4.0778,0.144 z m 14.1776,5.3933 c 0.297,-0.2887 0.3039,-0.7635 0.0152,-1.0605 -0.2886,-0.2971 -0.7635,-0.304 -1.0605,-0.0153 l -4.0525,3.9376 -1.966,-1.9658 c -0.2929,-0.2928 -0.7678,-0.2928 -1.0607,10e-5 -0.2928,0.2929 -0.2928,0.7678 10e-5,1.0606 l 2.4887,2.4886 c 0.2899,0.2899 0.7589,0.2932 1.053,0.0075 z"
     fill="#414141"
     id="path22" />
  <path
     fill-rule="evenodd"
     clip-rule="evenodd"
     d="m 25.75,118 c -0.4142,0 -0.75,0.336 -0.75,0.75 0,0.414 0.3358,0.75 0.75,0.75 h 13.6667 c 0.1381,0 0.25,0.112 0.25,0.25 V 131.2 H 25.75 c -0.4142,0 -0.75,0.336 -0.75,0.75 0,0.414 0.3358,0.75 0.75,0.75 h 1.2502 c 0.009,2.063 1.6845,3.733 3.75,3.733 2.0655,0 3.741,-1.67 3.7499,-3.733 h 3.5001 c 0.009,2.063 1.6845,3.733 3.75,3.733 2.0655,0 3.741,-1.67 3.7499,-3.733 H 47.75 c 0.4142,0 0.75,-0.336 0.75,-0.75 v -4.854 c 0,-0.163 -0.0531,-0.322 -0.1513,-0.452 l -3.5309,-4.679 c -0.1417,-0.188 -0.3633,-0.298 -0.5986,-0.298 h -3.0525 v -1.917 c 0,-0.966 -0.7835,-1.75 -1.75,-1.75 z m 16.0002,16.933 c -1.2371,0 -2.241,-0.998 -2.25,-2.233 h 4.4999 c -0.0089,1.235 -1.0128,2.233 -2.2499,2.233 z m -13.25,-2.233 c 0.009,1.235 1.0129,2.233 2.25,2.233 1.2371,0 2.241,-0.998 2.2499,-2.233 z M 47,131.2 h -5.8333 v -8.033 h 2.6788 L 47,127.347 Z m -22,-8.45 c 0,-0.414 0.3358,-0.75 0.75,-0.75 h 7.3333 c 0.4143,0 0.75,0.336 0.75,0.75 0,0.414 -0.3357,0.75 -0.75,0.75 H 25.75 c -0.4142,0 -0.75,-0.336 -0.75,-0.75 z m 0.75,4.25 c -0.4142,0 -0.75,0.336 -0.75,0.75 0,0.414 0.3358,0.75 0.75,0.75 h 5.8667 c 0.4142,0 0.75,-0.336 0.75,-0.75 0,-0.414 -0.3358,-0.75 -0.75,-0.75 z"
     fill="#414141"
     id="path24" />
  <path
     fill-rule="evenodd"
     clip-rule="evenodd"
     d="m 36.75,396 c 0.4143,0 0.75,0.336 0.75,0.75 0,3.304 2.0524,5.762 4.4739,7.486 2.423,1.726 5.0741,2.609 5.9232,2.779 0.3781,0.075 0.6373,0.425 0.5993,0.809 -0.038,0.384 -0.3608,0.676 -0.7464,0.676 -3.315,0 -5.8006,1.692 -7.5158,3.864 -1.7301,2.19 -2.6168,4.799 -2.7361,6.44 -0.0283,0.39 -0.3508,0.692 -0.7413,0.696 -0.3905,0.003 -0.7183,-0.293 -0.7537,-0.682 -0.3676,-4.044 -2.574,-6.611 -4.8997,-8.188 -1.1672,-0.792 -2.3591,-1.329 -3.3477,-1.667 -1.0102,-0.346 -1.7474,-0.463 -2.0057,-0.463 -0.3828,0 -0.7041,-0.288 -0.7455,-0.669 -0.0415,-0.38 0.2103,-0.731 0.5842,-0.813 3.3558,-0.74 5.9699,-2.587 7.7464,-4.637 C 35.1341,400.305 36,398.113 36,396.75 36,396.336 36.3358,396 36.75,396 Z m -0.1219,4.091 c -0.5132,1.089 -1.2424,2.214 -2.1595,3.272 -1.4656,1.691 -3.4535,3.263 -5.9216,4.289 1.0284,0.377 2.222,0.939 3.3983,1.736 1.9281,1.308 3.8212,3.26 4.8405,6.059 0.5106,-1.334 1.2664,-2.74 2.2713,-4.013 1.3663,-1.73 3.2228,-3.245 5.585,-3.974 -1.0995,-0.489 -2.3448,-1.152 -3.5383,-2.002 -1.811,-1.289 -3.5713,-3.062 -4.4757,-5.367 z"
     fill="#414141"
     id="path26" />
  <circle
     cx="37"
     cy="456"
     r="11.25"
     stroke="#414141"
     stroke-width="1.5"
     id="circle28" />
  <path
     d="m 31,456 3.2929,3.293 c 0.3905,0.39 1.0237,0.39 1.4142,0 L 43,452"
     stroke="#414141"
     stroke-width="1.5"
     stroke-linecap="round"
     id="path30" />
  <path
     fill-rule="evenodd"
     clip-rule="evenodd"
     d="m 30,494 c -0.5523,0 -1,0.448 -1,1 0,1.395 0.0863,2.753 0.2497,4.048 -0.8787,-0.163 -1.8292,0.031 -2.467,0.692 C 26.246,500.296 26,501.079 26,502 c 0,1.902 0.9795,3.198 2.22,3.973 1.0721,0.67 2.3441,0.964 3.4147,1.018 1.0957,1.962 2.5709,3.478 4.3653,3.895 V 513 h -5 c -0.5523,0 -1,0.448 -1,1 0,0.552 0.4477,1 1,1 h 12 c 0.5523,0 1,-0.448 1,-1 0,-0.552 -0.4477,-1 -1,-1 h -5 v -2.114 c 1.7944,-0.417 3.2696,-1.933 4.3653,-3.895 1.0706,-0.054 2.3426,-0.348 3.4147,-1.018 1.2405,-0.775 2.22,-2.071 2.22,-3.973 0,-0.921 -0.246,-1.704 -0.7827,-2.26 -0.6378,-0.661 -1.5883,-0.855 -2.467,-0.692 C 44.9137,497.753 45,496.395 45,495 c 0,-0.552 -0.4477,-1 -1,-1 z m 14.3467,7.443 c -0.2596,1.216 -0.5913,2.353 -0.9857,3.389 0.4792,-0.118 0.9514,-0.3 1.359,-0.555 0.7595,-0.474 1.28,-1.179 1.28,-2.277 0,-0.579 -0.151,-0.798 -0.2214,-0.871 -0.3349,-0.347 -1.2553,-0.076 -1.4319,0.314 z m -14.6934,0 c 0.2596,1.216 0.5913,2.353 0.9857,3.389 -0.4792,-0.118 -0.9514,-0.3 -1.359,-0.555 C 28.5205,503.803 28,503.098 28,502 c 0,-0.469 0.0805,-1.007 0.6383,-1.009 0.3222,-10e-4 0.8554,0.127 1.015,0.452 z M 42.9842,496 H 31.0158 c 0.1148,3.623 0.848,6.842 1.9406,9.184 1.2301,2.635 2.7299,3.816 4.0436,3.816 1.3137,0 2.8135,-1.181 4.0436,-3.816 1.0926,-2.342 1.8258,-5.561 1.9406,-9.184 z"
     fill="#414141"
     id="path32" />
  <path
     fill-rule="evenodd"
     clip-rule="evenodd"
     d="m 37.0007,541.5 c 0.4375,0 0.8243,0.284 0.9546,0.702 L 40.076,549 h 6.9246 c 0.4385,0 0.8258,0.286 0.9553,0.705 0.1296,0.419 -0.0289,0.873 -0.3909,1.12 l -5.5717,3.81 2.1302,6.56 c 0.134,0.412 -0.0131,0.864 -0.3642,1.119 -0.351,0.254 -0.8261,0.253 -1.1763,-0.002 l -5.5829,-4.074 -5.5824,4.074 c -0.3503,0.255 -0.8253,0.256 -1.1764,0.002 -0.351,-0.255 -0.4981,-0.707 -0.3642,-1.119 l 2.1302,-6.56 -5.5716,-3.81 c -0.362,-0.247 -0.5205,-0.701 -0.391,-1.12 0.1295,-0.419 0.5169,-0.705 0.9554,-0.705 h 6.9246 l 2.1213,-6.798 c 0.1304,-0.418 0.5171,-0.702 0.9547,-0.702 z m -2e-4,4.357 -1.6047,5.143 h -5.1614 l 4.1375,2.829 -1.6389,5.047 4.2671,-3.114 4.2676,3.114 -1.6389,-5.047 4.1375,-2.829 h -5.1615 z"
     fill="#414141"
     id="path34" />
  <path
     fill-rule="evenodd"
     clip-rule="evenodd"
     d="m 35.5876,588.686 c 0.7809,-0.781 2.0472,-0.78 2.8285,10e-4 l 4.36,4.36 c 0.1899,0.19 0.2955,0.448 0.2931,0.717 l -0.1117,12.601 c -0.0049,0.548 -0.4503,0.99 -0.9986,0.99 l -9.9126,0.007 c -0.5495,0.001 -0.9966,-0.442 -1.0013,-0.992 l -0.1082,-12.61 c -0.0023,-0.268 0.1031,-0.526 0.2926,-0.715 z m 4.2423,-1.413 c -1.5626,-1.562 -4.0953,-1.563 -5.6569,-10e-4 l -4.3583,4.358 c -0.5685,0.568 -0.8848,1.341 -0.8779,2.146 l 0.1082,12.61 c 0.0142,1.649 1.3556,2.978 3.004,2.976 l 9.9126,-0.007 c 1.6449,-10e-4 2.9812,-1.326 2.9958,-2.971 l 0.1117,-12.601 c 0.0072,-0.805 -0.3097,-1.58 -0.8792,-2.149 z m -3.8874,7.427 c 0.5862,0.586 1.5362,0.586 2.122,0 0.5858,-0.586 0.5855,-1.536 -7e-4,-2.122 -0.5861,-0.586 -1.5362,-0.586 -2.122,0 -0.5858,0.585 -0.5855,1.535 7e-4,2.122 z"
     fill="#414141"
     id="path36" />
  <path
     fill-rule="evenodd"
     clip-rule="evenodd"
     d="M 31.7632,645 C 33.8216,643.963 37,642.183 37,638 c 0,-0.448 0.2941,-0.827 0.6997,-0.954 C 37.7945,637.016 37.8954,637 38,637 h 0.1168 c 0.9084,-10e-4 2.181,-0.003 3.1879,0.668 1.1624,0.775 1.6953,2.2 1.6953,4.332 0,0.622 -0.1482,1.466 -0.3424,2.243 -0.0627,0.25 -0.1331,0.506 -0.2097,0.757 H 45 c 0.6098,0 1.1671,0.106 1.6419,0.37 0.4921,0.273 0.8167,0.672 1.0185,1.116 0.192,0.423 0.2688,0.876 0.3045,1.283 C 48,648.169 48,648.594 48,648.977 V 649 c 0,1.145 -0.4065,3.523 -1.261,5.626 -0.4296,1.058 -1,2.116 -1.7454,2.926 C 44.241,658.37 43.243,659 42,659 h -4.9916 -0.0088 c -0.7088,0 -1.4867,-0.254 -2.1753,-0.55 -0.7135,-0.305 -1.4436,-0.705 -2.0893,-1.092 -0.6488,-0.39 -1.2302,-0.777 -1.6484,-1.067 -0.1638,-0.113 -0.3034,-0.212 -0.413,-0.291 H 27 c -0.5523,0 -1,-0.448 -1,-1 v -9 c 0,-0.552 0.4477,-1 1,-1 z m 7.1851,-5.981 c 0.5527,0.032 0.9468,0.113 1.247,0.313 0.3376,0.225 0.8047,0.8 0.8047,2.668 0,0.378 -0.1018,1.034 -0.2826,1.757 -0.177,0.708 -0.4024,1.372 -0.6042,1.78 -0.0376,0.072 -0.0667,0.149 -0.086,0.23 -0.0284,0.119 -0.0343,0.239 -0.0197,0.356 0.036,0.293 0.1979,0.546 0.4298,0.704 0.1032,0.07 0.2202,0.122 0.3461,0.149 0.0782,0.018 0.1572,0.026 0.2355,0.024 H 45 c 0.3902,0 0.5829,0.069 0.6706,0.118 0.0704,0.039 0.1208,0.09 0.169,0.196 0.058,0.127 0.1062,0.324 0.133,0.63 C 45.9993,648.248 46,648.59 46,649 c 0,0.855 -0.3435,2.977 -1.114,4.874 -0.3829,0.942 -0.8438,1.759 -1.364,2.324 C 43.009,656.755 42.507,657 42,657 h -5 -0.0069 c -0.2919,-0.002 -0.7617,-0.122 -1.381,-0.388 -0.5991,-0.257 -1.2439,-0.607 -1.8481,-0.969 -0.6012,-0.361 -1.1448,-0.723 -1.539,-0.996 -0.0819,-0.057 -0.1572,-0.11 -0.225,-0.158 V 647 c 0.0755,0 0.1516,-0.008 0.2268,-0.026 0.0841,-0.019 0.1642,-0.049 0.2388,-0.089 l 0.0354,-0.017 c 1.8605,-0.93 5.9421,-2.97 6.4473,-7.849 z M 30,647 v 7 h -2 v -7 z"
     fill="#414141"
     id="path38" />
  <path
     d="m 29,685 c -1.6569,0 -3,1.343 -3,3 v 12 c 0,1.657 1.3431,3 3,3 h 7 c 0.5523,0 1,-0.448 1,-1 0,-0.552 -0.4477,-1 -1,-1 h -7 c -0.5523,0 -1,-0.448 -1,-1 v -12 c 0,-0.552 0.4477,-1 1,-1 h 16 c 0.5523,0 1,0.448 1,1 v 3 c 0,0.552 0.4477,1 1,1 0.5523,0 1,-0.448 1,-1 v -3 c 0,-1.657 -1.3431,-3 -3,-3 z"
     fill="#414141"
     id="path40" />
  <path
     fill-rule="evenodd"
     clip-rule="evenodd"
     d="m 46,706 c 0,0.721 -0.7903,1.223 -1.4474,0.895 L 43,706.118 41.4474,706.895 C 40.7856,707.226 40.0069,706.72 40,706 v -4 c -1.2144,-0.912 -2,-2.364 -2,-4 0,-2.761 2.2386,-5 5,-5 2.7614,0 5,2.239 5,5 0,1.636 -0.7856,3.088 -2,4 z m 0,-8 c 0,1.657 -1.3431,3 -3,3 -1.6569,0 -3,-1.343 -3,-3 0,-1.657 1.3431,-3 3,-3 1.6569,0 3,1.343 3,3 z m -2,4.9 c -0.3231,0.066 -0.6575,0.1 -1,0.1 -0.3425,0 -0.6769,-0.034 -1,-0.1 v 1.482 c 0.2251,-0.112 0.4502,-0.255 0.6906,-0.333 0.2058,-0.067 0.4222,-0.064 0.6188,0 0.2404,0.078 0.4655,0.221 0.6906,0.333 z"
     fill="#414141"
     id="path42" />
  <path
     d="m 30,690 c 0,-0.552 0.4477,-1 1,-1 h 9 c 0.5523,0 1,0.448 1,1 0,0.552 -0.4477,1 -1,1 h -9 c -0.5523,0 -1,-0.448 -1,-1 z"
     fill="#414141"
     id="path44" />
  <path
     d="m 31,693 c -0.5523,0 -1,0.448 -1,1 0,0.552 0.4477,1 1,1 h 5 c 0.5523,0 1,-0.448 1,-1 0,-0.552 -0.4477,-1 -1,-1 z"
     fill="#414141"
     id="path46" />
  <path
     d="m 44.7093,933.378 -3.7508,-6.999 c -1.6976,-3.167 -6.2401,-3.165 -7.9346,0.004 l -2.2166,4.145 c -0.3562,0.667 0.1264,1.472 0.8818,1.472 0.3689,0 0.7079,-0.203 0.8819,-0.529 l 2.2166,-4.145 c 0.9414,-1.761 3.465,-1.762 4.4081,-0.002 l 3.7831,7.059 -1.2038,-0.344 c -0.531,-0.152 -1.0845,0.155 -1.2363,0.686 -0.1517,0.531 0.1558,1.085 0.6868,1.237 l 3.4809,0.994 0.0183,0.006 c 0.4604,0.131 0.9377,-0.082 1.1555,-0.487 0.0334,-0.063 0.0608,-0.129 0.081,-0.2 l 0.0024,-0.009 0.9981,-3.491 c 0.1518,-0.531 -0.1556,-1.085 -0.6866,-1.236 -0.531,-0.152 -1.0845,0.155 -1.2363,0.686 z"
     fill="#414141"
     id="path48" />
  <path
     d="m 47.124,939 c -0.7558,0 -1.2385,0.806 -0.8814,1.472 l 0.4536,0.847 C 47.5888,942.984 46.3823,945 44.4927,945 H 29.5091 c -1.8885,0 -3.0951,-2.014 -2.2046,-3.679 l 1.9294,-3.609 0.3034,1.063 c 0.1517,0.531 0.7052,0.838 1.2362,0.687 0.5311,-0.152 0.8386,-0.705 0.6869,-1.236 l -0.9921,-3.474 c -0.0022,-0.009 -0.0046,-0.018 -0.0071,-0.026 -0.1517,-0.531 -0.7052,-0.839 -1.2362,-0.687 l -3.5004,1 c -0.5311,0.152 -0.8386,0.705 -0.6868,1.236 0.1517,0.531 0.7051,0.839 1.2362,0.687 l 1.2904,-0.369 -2.0236,3.785 c -1.6029,2.997 0.569,6.622 3.9683,6.622 h 14.9836 c 3.4012,0 5.573,-3.628 3.9663,-6.626 l -0.4536,-0.846 C 47.8313,939.203 47.4926,939 47.124,939 Z"
     fill="#414141"
     id="path50" />
  <path
     d="m 34.7071,879.707 c 0.3905,-0.39 0.3905,-1.024 0,-1.414 -0.3905,-0.391 -1.0237,-0.391 -1.4142,0 l -5,5 c -0.1465,0.146 -0.238,0.327 -0.2746,0.516 -0.061,0.315 0.0305,0.654 0.2746,0.898 l 5,5 c 0.3905,0.391 1.0237,0.391 1.4142,0 0.3905,-0.39 0.3905,-1.024 0,-1.414 L 31.4142,885 H 39 c 3.3848,0 6,2.531 6,5.5 0,2.969 -2.6152,5.5 -6,5.5 h -9 c -0.5523,0 -1,0.448 -1,1 0,0.552 0.4477,1 1,1 h 9 c 4.3472,0 8,-3.289 8,-7.5 0,-4.211 -3.6528,-7.5 -8,-7.5 h -7.5858 z"
     fill="#414141"
     id="path52" />
  <path
     d="m 42.7071,790.293 c 0.3905,0.39 0.3905,1.024 0,1.414 l -6.9994,7 c -0.3905,0.39 -1.0243,0.391 -1.4148,0 l -3,-3 c -0.3905,-0.39 -0.3905,-1.024 0,-1.414 0.3905,-0.391 1.0237,-0.391 1.4142,0 l 2.2929,2.293 6.2929,-6.293 c 0.3905,-0.391 1.0237,-0.391 1.4142,0 z"
     fill="#414141"
     id="path54" />
  <path
     fill-rule="evenodd"
     clip-rule="evenodd"
     d="m 26.1915,790.76 c 0.5014,-0.589 0.8136,-1.342 0.8756,-2.113 0.0919,-1.142 0.5746,-2.259 1.4483,-3.132 0.8737,-0.874 1.9902,-1.357 3.1324,-1.449 0.7707,-0.062 1.5241,-0.374 2.1128,-0.875 C 34.6332,782.448 35.7642,782 37,782 c 1.2357,0 2.3667,0.448 3.2393,1.191 0.5889,0.501 1.3425,0.814 2.1134,0.875 1.1423,0.092 2.2592,0.575 3.133,1.449 0.8739,0.874 1.3567,1.99 1.4484,3.133 0.0618,0.771 0.3739,1.524 0.8751,2.113 C 48.5518,791.634 49,792.764 49,794 c 0,1.235 -0.4481,2.366 -1.1907,3.239 -0.5011,0.589 -0.8132,1.342 -0.875,2.113 -0.0916,1.142 -0.5744,2.259 -1.4483,3.133 -0.8739,0.874 -1.9908,1.357 -3.1332,1.449 -0.771,0.062 -1.5246,0.374 -2.1135,0.875 C 39.3667,805.552 38.2357,806 37,806 c -1.2357,0 -2.3668,-0.448 -3.2394,-1.191 -0.5887,-0.501 -1.3422,-0.813 -2.1129,-0.875 -1.1422,-0.092 -2.2588,-0.575 -3.1325,-1.449 -0.8737,-0.873 -1.3565,-1.99 -1.4483,-3.132 -0.062,-0.771 -0.3742,-1.525 -0.8755,-2.113 C 25.4484,796.367 25,795.236 25,794 c 0,-1.236 0.4485,-2.367 1.1915,-3.24 z m 2.8692,-1.953 c 0.0552,-0.686 0.3436,-1.353 0.8689,-1.878 0.5253,-0.525 1.192,-0.814 1.8785,-0.869 1.1894,-0.096 2.3403,-0.572 3.249,-1.346 C 35.5815,784.268 36.257,784 37,784 c 0.743,0 1.4184,0.268 1.9429,0.714 0.9088,0.774 2.06,1.25 3.2498,1.346 0.6865,0.055 1.3534,0.343 1.8788,0.869 0.5255,0.525 0.8139,1.192 0.869,1.879 0.0955,1.189 0.5722,2.341 1.3457,3.249 0.4463,0.525 0.7138,1.2 0.7138,1.943 0,0.743 -0.2674,1.418 -0.7138,1.943 -0.7734,0.908 -1.2501,2.06 -1.3455,3.249 -0.0551,0.687 -0.3435,1.354 -0.869,1.879 -0.5254,0.526 -1.1923,0.814 -1.8789,0.869 -1.1898,0.096 -2.3411,0.572 -3.25,1.346 C 38.4184,803.732 37.743,804 37,804 c -0.743,0 -1.4185,-0.268 -1.9429,-0.714 -0.9087,-0.774 -2.0597,-1.25 -3.2492,-1.346 -0.6865,-0.055 -1.3532,-0.344 -1.8785,-0.869 -0.5254,-0.525 -0.8138,-1.192 -0.869,-1.878 -0.0956,-1.19 -0.5725,-2.341 -1.3462,-3.25 C 27.2676,795.419 27,794.743 27,794 c 0,-0.743 0.2676,-1.419 0.7143,-1.943 0.7737,-0.909 1.2507,-2.06 1.3464,-3.25 z"
     fill="#414141"
     id="path56" />
  <path
     d="m 32,744 2.2929,2.293 c 0.3905,0.39 1.0237,0.39 1.4142,0 L 40.5,741.5"
     stroke="#414141"
     stroke-width="2"
     stroke-linecap="round"
     id="path58" />
  <path
     fill-rule="evenodd"
     clip-rule="evenodd"
     d="m 34.8515,732.348 c 0.694,-0.464 1.603,-0.464 2.297,0 3.2953,2.204 6.4819,2.909 7.5768,3.097 0.7054,0.121 1.2747,0.732 1.2747,1.5 v 6.041 c 0,2.787 -0.571,5.185 -2.0584,7.315 -1.4734,2.11 -3.7789,3.86 -7.0635,5.489 -0.5519,0.274 -1.2043,0.274 -1.7562,0 -3.2846,-1.629 -5.5901,-3.379 -7.0635,-5.489 C 26.571,748.171 26,745.773 26,742.986 v -6.041 c 0,-0.768 0.5693,-1.379 1.2747,-1.5 1.0949,-0.188 4.2815,-0.893 7.5768,-3.097 z M 36,734 c -0.0147,0 -0.0271,0.004 -0.0367,0.011 -3.2889,2.199 -6.474,3.039 -7.9633,3.333 v 5.642 c 0,2.497 0.5057,4.462 1.6982,6.17 1.205,1.726 3.1796,3.287 6.3018,4.837 3.1222,-1.55 5.0968,-3.111 6.3018,-4.837 C 43.4943,747.448 44,745.483 44,742.986 v -5.642 C 42.5107,737.05 39.3256,736.21 36.0367,734.011 36.0271,734.004 36.0147,734 36,734 Z"
     fill="#414141"
     id="path60" />
  <path
     fill-rule="evenodd"
     clip-rule="evenodd"
     d="m 34.8515,828.348 c 0.694,-0.464 1.603,-0.464 2.297,0 3.2953,2.204 6.4819,2.909 7.5768,3.097 0.7054,0.121 1.2747,0.732 1.2747,1.5 v 6.041 c 0,2.787 -0.571,5.185 -2.0584,7.315 -1.4734,2.11 -3.7789,3.86 -7.0635,5.489 -0.5519,0.274 -1.2043,0.274 -1.7562,0 -3.2846,-1.629 -5.5901,-3.379 -7.0635,-5.489 C 26.571,844.171 26,841.773 26,838.986 v -6.041 c 0,-0.768 0.5693,-1.379 1.2747,-1.5 1.0949,-0.188 4.2815,-0.893 7.5768,-3.097 z M 36,830 c -0.0147,0 -0.0271,0.004 -0.0367,0.011 -3.2889,2.199 -6.474,3.039 -7.9633,3.333 v 5.642 c 0,2.497 0.5057,4.462 1.6982,6.17 1.205,1.726 3.1796,3.287 6.3018,4.837 3.1222,-1.55 5.0968,-3.111 6.3018,-4.837 C 43.4943,843.448 44,841.483 44,838.986 v -5.642 C 42.5107,833.05 39.3256,832.21 36.0367,830.011 36.0271,830.004 36.0147,830 36,830 Z"
     fill="#414141"
     id="path62" />
  <path
     d="M 40.2051,838.231 C 40.2905,837.154 39.7435,835 36.8717,835 c -2.8718,0 -3.4188,2.154 -3.3333,3.231 V 844 M 32,844 h 8.2051"
     stroke="#414141"
     stroke-width="2"
     stroke-linecap="round"
     id="path64" />
  <path
     d="m 32,840.077 h 5.641"
     stroke="#414141"
     stroke-width="2"
     stroke-linecap="round"
     id="path66" />
  <circle
     cx="37"
     cy="983"
     r="4.75"
     stroke="#414141"
     stroke-width="1.5"
     id="circle68" />
  <path
     d="m 37,972 v 2.2"
     stroke="#414141"
     stroke-width="1.5"
     stroke-linecap="round"
     id="path70" />
  <path
     d="M 37,991.8 V 994"
     stroke="#414141"
     stroke-width="1.5"
     stroke-linecap="round"
     id="path72" />
  <path
     d="M 48,983 H 45.8"
     stroke="#414141"
     stroke-width="1.5"
     stroke-linecap="round"
     id="path74" />
  <path
     d="m 28.2002,983 h -2.2"
     stroke="#414141"
     stroke-width="1.5"
     stroke-linecap="round"
     id="path76" />
  <path
     d="m 44.7783,975.222 -1.5556,1.555"
     stroke="#414141"
     stroke-width="1.5"
     stroke-linecap="round"
     id="path78" />
  <path
     d="m 30.7778,989.223 -1.5556,1.555"
     stroke="#414141"
     stroke-width="1.5"
     stroke-linecap="round"
     id="path80" />
  <path
     d="m 44.7783,990.778 -1.5556,-1.555"
     stroke="#414141"
     stroke-width="1.5"
     stroke-linecap="round"
     id="path82" />
  <path
     d="m 30.7778,976.777 -1.5556,-1.555"
     stroke="#414141"
     stroke-width="1.5"
     stroke-linecap="round"
     id="path84" />
  <path
     d="m 30.5578,358.791 0.5899,0.463 v 0 z m 14.8844,0 0.6051,-0.443 z M 38,350 l 0.6916,-0.29 c -0.118,-0.281 -0.3945,-0.463 -0.6995,-0.46 -0.305,0.003 -0.5777,0.191 -0.6897,0.475 z m 8.25,13.186 c 0,3.805 -3.5906,7.064 -8.25,7.064 v 1.5 c 5.2818,0 9.75,-3.738 9.75,-8.564 z M 38,370.25 c -4.6594,0 -8.25,-3.259 -8.25,-7.064 h -1.5 c 0,4.826 4.4682,8.564 9.75,8.564 z m -8.25,-7.064 c 0,-1.448 0.5093,-2.8 1.3977,-3.932 l -1.1799,-0.926 c -1.0777,1.372 -1.7178,3.046 -1.7178,4.858 z m 15.0871,-3.952 c 0.8661,1.183 1.4129,2.52 1.4129,3.952 h 1.5 c 0,-1.828 -0.6995,-3.469 -1.7027,-4.838 z m -7.5347,-9.509 c -0.113,0.286 -0.4057,0.725 -0.9015,1.33 -0.4818,0.588 -1.102,1.269 -1.8091,2.033 -1.4026,1.516 -3.1293,3.336 -4.624,5.24 l 1.1799,0.926 c 1.4475,-1.844 3.122,-3.609 4.545,-5.147 0.7056,-0.762 1.3543,-1.474 1.8682,-2.101 0.4999,-0.61 0.9297,-1.206 1.1367,-1.731 z m 0.006,0.565 c 0.2192,0.523 0.6552,1.101 1.1568,1.689 0.5146,0.604 1.1622,1.29 1.8619,2.032 1.4116,1.497 3.0705,3.257 4.51,5.223 l 1.2102,-0.886 c -1.5027,-2.053 -3.2249,-3.877 -4.6289,-5.366 -0.708,-0.751 -1.3268,-1.407 -1.8117,-1.976 -0.4978,-0.584 -0.7943,-1.008 -0.9151,-1.296 z"
     fill="#414141"
     id="path86" />
  <path
     d="M 38,355.5 V 372"
     stroke="#414141"
     stroke-width="1.5"
     stroke-linecap="round"
     stroke-linejoin="round"
     id="path88" />
  <path
     d="m 40.8667,359.533 c -0.6553,0.444 -1.725,0.734 -2.9334,0.734 -1.2083,0 -2.278,-0.29 -2.9333,-0.734"
     stroke="#414141"
     stroke-width="1.5"
     stroke-linecap="round"
     id="path90" />
  <path
     d="m 33.5,363.933 c 0.6225,0.852 2.4019,1.467 4.5,1.467 2.0981,0 3.8775,-0.615 4.5,-1.467"
     stroke="#414141"
     stroke-width="1.5"
     stroke-linecap="round"
     id="path92" />
  <g
     style="fill:none"
     id="g211"
     transform="translate(26.659022,1020.52)">
    <path
       d="m 11,6 c 0.5522,0 1,0.44772 1,1 v 1.15849 c 1.3394,0.25807 2.6486,0.9909 3.3829,2.37221 0.2592,0.4876 0.0741,1.0931 -0.4136,1.3523 -0.4876,0.2593 -1.0931,0.0741 -1.3524,-0.4135 -0.5477,-1.0303 -1.8349,-1.53117 -3.1521,-1.4011 -0.63959,0.0631 -1.18185,0.2715 -1.53889,0.5476 -0.33935,0.2624 -0.48992,0.5601 -0.48992,0.8965 0,0.3383 0.07707,0.5288 0.1563,0.6473 0.08297,0.1241 0.22093,0.2471 0.46144,0.3636 0.53255,0.2579 1.29677,0.3684 2.29327,0.4981 l 0.0884,0.0114 c 0.8791,0.1141 1.9612,0.2545 2.8177,0.6682 0.4684,0.2263 0.9216,0.5561 1.2526,1.05 0.3348,0.4997 0.4942,1.0925 0.4942,1.7576 0,1.2082 -0.6383,2.1061 -1.5065,2.6673 C 13.7743,19.6409 12.8892,19.8885 12,19.9709 V 21 c 0,0.5523 -0.4478,1 -1,1 -0.5523,0 -1.00003,-0.4477 -1.00003,-1 v -1.0454 c 0,-0.0205 6.3e-4,-0.0409 0.00183,-0.0611 C 9.47317,19.8045 8.95423,19.6607 8.47023,19.461 7.51748,19.0679 6.61126,18.4187 6.11089,17.4482 5.85781,16.9573 6.0506,16.3542 6.54148,16.1011 c 0.49089,-0.2531 1.09399,-0.0603 1.34707,0.4306 0.21298,0.4131 0.66346,0.7995 1.34449,1.0805 0.67273,0.2775 1.48486,0.4139 2.26756,0.3871 0.792,-0.027 1.4653,-0.2173 1.907,-0.5029 0.4089,-0.2643 0.5923,-0.5803 0.5923,-0.9877 0,-0.3371 -0.0769,-0.5266 -0.1558,-0.6443 C 13.7614,15.741 13.6237,15.6182 13.383,15.502 12.8502,15.2445 12.0857,15.1344 11.0889,15.0047 l -0.0851,-0.011 C 10.1237,14.8795 9.03979,14.7389 8.18197,14.3234 7.71336,14.0965 7.26039,13.766 6.92971,13.2715 6.59528,12.7713 6.43599,12.1781 6.43599,11.5125 6.43599,10.4464 6.96795,9.60177 7.70251,9.03378 8.35006,8.53307 9.16581,8.23169 9.99997,8.11072 V 7 C 9.99997,6.44772 10.4477,6 11,6 Z"
       fill="#191919"
       id="path196" />
    <path
       d="M 11,26.5 C 18.5,22.75 21,19 21,12.75 V 5.25 L 11,1.5"
       stroke="#191919"
       stroke-width="2"
       stroke-miterlimit="10"
       stroke-linecap="round"
       stroke-linejoin="round"
       id="path198" />
    <path
       d="M 11,26.5 C 3.5,22.75 1,19 1,12.75 V 5.25 L 11,1.5"
       stroke="#191919"
       stroke-width="2"
       stroke-miterlimit="10"
       stroke-linecap="round"
       stroke-linejoin="round"
       id="path200" />
  </g>
  <g
     style="fill:none"
     id="g224"
     transform="translate(26,1070)">
    <path
       d="m 21,15 h -6 c -0.6,0 -1,-0.4 -1,-1 0,-0.6 0.4,-1 1,-1 h 6 z M 4,20 C 3.4,20 3,19.6 3,19 V 7.8 C 3.3,7.9 3.7,8 4,8 h 17 v 3 h -6 c -1.7,0 -3,1.3 -3,3 0,1.7 1.3,3 3,3 h 6 v 3 z M 19,6 H 4 C 3.4,6 3,5.6 3,5 3,4.4 3.4,4 4,4 H 19 Z M 21,3 C 21,2.4 20.6,2 20,2 H 4 C 2.3,2 1,3.3 1,5 v 14 c 0,1.7 1.3,3 3,3 h 18 c 0.6,0 1,-0.4 1,-1 V 7 C 23,6.4 22.6,6 22,6 h -1 z"
       fill="#191919"
       id="path215" />
  </g>
</svg>
