<svg height="155.56" width="200" xmlns="http://www.w3.org/2000/svg"><g transform="matrix(3.1437 0 0 3.1437 -3498.8 -2134.32)"><path d="m0 0v.61h-.159l-.184-.419-.183.419h-.16v-.61h.113v.46l.172-.397h.117l.172.398v-.461zm-1.009 0v.506h.204v.103h-.52v-.103h.204v-.506z" fill="#0099df" transform="matrix(1.25 0 0 -1.25 1176 710.77)"/><path d="m1153.4 714.05h-17.202v-30.915h17.202z" fill="#6c6bbd"/><path d="m0 0c0 5.017 2.349 9.486 6.007 12.366-2.675 2.106-6.051 3.363-9.72 3.363-8.686 0-15.727-7.042-15.727-15.729s7.041-15.729 15.727-15.729c3.669 0 7.045 1.257 9.72 3.363-3.658 2.88-6.007 7.349-6.007 12.366" fill="#eb001b" transform="matrix(1.25 0 0 -1.25 1137.3 698.59)"/><path d="m0 0c0-8.687-7.041-15.729-15.727-15.729-3.669 0-7.045 1.257-9.721 3.363 3.659 2.88 6.008 7.349 6.008 12.366s-2.349 9.486-6.008 12.366c2.676 2.106 6.052 3.363 9.721 3.363 8.686 0 15.727-7.042 15.727-15.729" fill="#0099df" transform="matrix(1.25 0 0 -1.25 1176.6 698.59)"/><g fill="#231f20"><path d="m0 0c.183 0 .446-.035.647-.114l-.28-.856c-.192.079-.384.105-.568.105-.594 0-.891-.384-.891-1.074v-2.342h-.909v4.176h.9v-.507c.236.367.577.612 1.101.612m-3.358-.935h-1.485v-1.887c0-.419.148-.699.603-.699.236 0 .533.079.803.236l.262-.777c-.288-.201-.742-.324-1.135-.324-1.075 0-1.45.577-1.45 1.547v1.904h-.848v.83h.848v1.267h.917v-1.267h1.485zm-11.629-.891c.097.603.463 1.014 1.11 1.014.585 0 .961-.367 1.057-1.014zm3.111-.367c-.009 1.302-.813 2.193-1.984 2.193-1.223 0-2.079-.891-2.079-2.193 0-1.327.891-2.192 2.141-2.192.629 0 1.205.157 1.712.585l-.446.673c-.349-.28-.795-.437-1.214-.437-.585 0-1.118.271-1.249 1.022h3.101c.009.114.018.227.018.349m3.992 1.022c-.253.158-.768.359-1.301.359-.498 0-.795-.184-.795-.49 0-.279.314-.358.707-.41l.428-.061c.909-.132 1.459-.516 1.459-1.25 0-.795-.699-1.363-1.904-1.363-.682 0-1.311.175-1.809.542l.428.708c.306-.236.761-.437 1.39-.437.62 0 .952.183.952.507 0 .235-.236.367-.734.436l-.428.061c-.935.132-1.442.551-1.442 1.232 0 .83.682 1.337 1.739 1.337.664 0 1.267-.149 1.703-.437zm11.205.308c-.187 0-.36-.033-.521-.098-.16-.066-.299-.158-.416-.276s-.209-.26-.276-.425-.1-.347-.1-.545c0-.199.033-.38.1-.545s.159-.307.276-.425.256-.21.416-.276c.161-.066.334-.098.521-.098s.361.032.521.098c.161.066.301.158.418.276.119.118.211.26.279.425.067.165.1.346.1.545 0 .198-.033.38-.1.545-.068.165-.16.307-.279.425-.117.118-.257.21-.418.276-.16.065-.334.098-.521.098m0 .863c.324 0 .624-.056.9-.169.276-.112.515-.267.716-.464.202-.197.359-.43.473-.698.114-.269.171-.561.171-.876s-.057-.607-.171-.876c-.114-.268-.271-.502-.473-.699-.201-.197-.44-.351-.716-.464-.276-.112-.576-.168-.9-.168s-.624.056-.9.168c-.276.113-.513.267-.713.464s-.357.431-.471.699c-.114.269-.171.561-.171.876s.057.607.171.876c.114.268.271.501.471.698s.437.352.713.464c.276.113.576.169.9.169m-23.616-2.193c0 .734.481 1.337 1.267 1.337.751 0 1.258-.577 1.258-1.337s-.507-1.336-1.258-1.336c-.786 0-1.267.602-1.267 1.336m3.381 0v2.088h-.908v-.507c-.289.376-.725.612-1.319.612-1.171 0-2.088-.917-2.088-2.193 0-1.275.917-2.193 2.088-2.193.594 0 1.03.236 1.319.612v-.507h.908zm-5.119-2.088v2.621c0 .987-.629 1.651-1.642 1.66-.533.009-1.084-.157-1.468-.743-.288.463-.743.743-1.381.743-.445 0-.882-.131-1.223-.62v.515h-.908v-4.176h.917v2.315c0 .725.402 1.11 1.022 1.11.603 0 .909-.393.909-1.101v-2.324h.917v2.315c0 .725.42 1.11 1.022 1.11.621 0 .918-.393.918-1.101v-2.324z" transform="matrix(1.25 0 0 -1.25 1159.2 722.78)"/><path d="m0 0v-.103h.095c.021 0 .039.005.051.013.013.008.02.022.02.039s-.007.03-.02.038c-.012.009-.03.013-.051.013zm.096.072c.049 0 .087-.011.114-.033s.04-.052.04-.09c0-.032-.01-.058-.032-.079-.021-.02-.052-.033-.091-.038l.126-.145h-.098l-.117.144h-.038v-.144h-.082v.385zm-.025-.517c.045 0 .087.008.125.025.039.017.073.04.102.069s.052.063.069.103c.016.039.025.081.025.126s-.009.087-.025.126c-.017.039-.04.074-.069.103s-.063.052-.102.068c-.038.017-.08.025-.125.025s-.088-.008-.127-.025c-.04-.016-.075-.039-.104-.068s-.052-.064-.068-.103c-.017-.039-.025-.081-.025-.126s.008-.087.025-.126c.016-.04.039-.074.068-.103s.064-.052.104-.069c.039-.017.082-.025.127-.025m0 .738c.059 0 .113-.011.164-.033.052-.021.096-.051.135-.089.038-.037.068-.081.09-.132.022-.05.033-.104.033-.161s-.011-.111-.033-.161-.052-.094-.09-.131c-.039-.038-.083-.068-.135-.09-.051-.022-.105-.033-.164-.033-.06 0-.115.011-.167.033s-.097.052-.135.09c-.038.037-.068.081-.09.131s-.033.104-.033.161.011.111.033.161c.022.051.052.095.09.132.038.038.083.068.135.089.052.022.107.033.167.033" transform="matrix(1.25 0 0 -1.25 1167.4 727.74)"/></g></g></svg>