<svg width="168" height="40" viewBox="0 0 168 42" fill="none" xmlns="http://www.w3.org/2000/svg">
<path d="M70.888 31.28C69.6933 31.28 68.5827 31.084 67.556 30.692C66.548 30.2813 65.6613 29.684 64.896 28.9L65.68 27.556C66.5013 28.3213 67.3227 28.8813 68.144 29.236C68.984 29.572 69.8707 29.74 70.804 29.74C71.924 29.74 72.8387 29.516 73.548 29.068C74.276 28.6013 74.64 27.9387 74.64 27.08C74.64 26.5013 74.4627 26.0627 74.108 25.764C73.772 25.4467 73.2773 25.1947 72.624 25.008C71.9893 24.8213 71.224 24.6067 70.328 24.364C69.32 24.084 68.4707 23.7947 67.78 23.496C67.108 23.1787 66.5947 22.7867 66.24 22.32C65.904 21.8347 65.736 21.2093 65.736 20.444C65.736 19.5107 65.9693 18.7267 66.436 18.092C66.9213 17.4573 67.5747 16.9813 68.396 16.664C69.236 16.328 70.1693 16.16 71.196 16.16C72.316 16.16 73.3053 16.3373 74.164 16.692C75.0227 17.0467 75.7227 17.5413 76.264 18.176L75.34 19.464C74.836 18.8667 74.2107 18.428 73.464 18.148C72.736 17.8493 71.9427 17.7 71.084 17.7C70.4867 17.7 69.9173 17.784 69.376 17.952C68.8347 18.1013 68.3867 18.3627 68.032 18.736C67.696 19.0907 67.528 19.5853 67.528 20.22C67.528 21.004 67.8173 21.5453 68.396 21.844C68.9747 22.1427 69.852 22.46 71.028 22.796C72.1293 23.0947 73.0907 23.3933 73.912 23.692C74.7333 23.9907 75.368 24.392 75.816 24.896C76.264 25.3813 76.488 26.0627 76.488 26.94C76.488 28.3027 75.9747 29.3667 74.948 30.132C73.9213 30.8973 72.568 31.28 70.888 31.28ZM79.3552 24.252V22.488H87.5312V24.252H79.3552ZM109.46 16.412H111.336L105.064 31H103.412L100.36 23.748L97.3362 31H95.6842L89.4122 16.412H91.2602L96.5802 29.04L99.2682 22.46L96.8042 16.44H98.5122L100.36 21.172L102.236 16.44H103.916L101.48 22.46L104.168 29.04L109.46 16.412ZM112.338 26.8C112.338 25.904 112.599 25.1293 113.122 24.476C113.645 23.804 114.363 23.2813 115.278 22.908C116.211 22.5347 117.285 22.348 118.498 22.348C119.207 22.348 119.945 22.4133 120.71 22.544C121.475 22.656 122.157 22.8147 122.754 23.02V21.788C122.754 20.556 122.39 19.576 121.662 18.848C120.934 18.12 119.926 17.756 118.638 17.756C117.873 17.756 117.107 17.9053 116.342 18.204C115.577 18.484 114.783 18.904 113.962 19.464L113.234 18.12C114.186 17.4667 115.119 16.9813 116.034 16.664C116.949 16.328 117.882 16.16 118.834 16.16C120.626 16.16 122.045 16.6733 123.09 17.7C124.135 18.7267 124.658 20.1453 124.658 21.956V28.704C124.658 29.208 124.891 29.4693 125.358 29.488V31C124.947 31.056 124.658 31.0747 124.49 31.056C124.023 31.0373 123.669 30.888 123.426 30.608C123.183 30.328 123.053 30.0293 123.034 29.712L123.006 28.648C122.353 29.488 121.503 30.1413 120.458 30.608C119.413 31.056 118.349 31.28 117.266 31.28C116.314 31.28 115.465 31.084 114.718 30.692C113.971 30.2813 113.383 29.74 112.954 29.068C112.543 28.3773 112.338 27.6213 112.338 26.8ZM122.11 27.92C122.539 27.416 122.754 26.9493 122.754 26.52V24.392C121.466 23.888 120.122 23.636 118.722 23.636C117.359 23.636 116.258 23.9067 115.418 24.448C114.578 24.9893 114.158 25.7267 114.158 26.66C114.158 27.4627 114.466 28.1907 115.082 28.844C115.717 29.4973 116.594 29.824 117.714 29.824C118.629 29.824 119.478 29.6467 120.262 29.292C121.065 28.9373 121.681 28.48 122.11 27.92ZM128.856 10.56H130.76V27.696C130.76 28.424 130.881 28.9 131.124 29.124C131.385 29.348 131.712 29.46 132.104 29.46C132.44 29.46 132.776 29.4227 133.112 29.348C133.467 29.2733 133.756 29.1987 133.98 29.124L134.316 30.664C133.961 30.8133 133.523 30.9347 133 31.028C132.496 31.1213 132.057 31.168 131.684 31.168C130.825 31.168 130.135 30.916 129.612 30.412C129.108 29.908 128.856 29.2173 128.856 28.34V10.56ZM136.485 10.56H138.389V27.696C138.389 28.424 138.51 28.9 138.753 29.124C139.014 29.348 139.341 29.46 139.733 29.46C140.069 29.46 140.405 29.4227 140.741 29.348C141.095 29.2733 141.385 29.1987 141.609 29.124L141.945 30.664C141.59 30.8133 141.151 30.9347 140.629 31.028C140.125 31.1213 139.686 31.168 139.313 31.168C138.454 31.168 137.763 30.916 137.241 30.412C136.737 29.908 136.485 29.2173 136.485 28.34V10.56ZM150.33 31.28C148.93 31.28 147.679 30.9347 146.578 30.244C145.476 29.5533 144.608 28.6293 143.974 27.472C143.339 26.3147 143.022 25.0453 143.022 23.664C143.022 22.3013 143.33 21.0507 143.946 19.912C144.58 18.7733 145.448 17.868 146.55 17.196C147.651 16.5053 148.902 16.16 150.302 16.16C151.739 16.16 152.999 16.5053 154.082 17.196C155.164 17.8867 156.004 18.8013 156.602 19.94C157.218 21.06 157.526 22.292 157.526 23.636C157.526 23.9347 157.516 24.1867 157.498 24.392H145.01C145.103 25.4373 145.402 26.3707 145.906 27.192C146.41 27.9947 147.054 28.6387 147.838 29.124C148.622 29.5907 149.48 29.824 150.414 29.824C151.366 29.824 152.262 29.5813 153.102 29.096C153.942 28.6107 154.539 27.976 154.894 27.192L156.546 27.64C156.247 28.3493 155.78 28.984 155.146 29.544C154.53 30.0853 153.811 30.5147 152.99 30.832C152.168 31.1307 151.282 31.28 150.33 31.28ZM144.954 23.02H155.734C155.659 21.9747 155.37 21.0507 154.866 20.248C154.362 19.4267 153.718 18.792 152.934 18.344C152.15 17.8773 151.282 17.644 150.33 17.644C149.378 17.644 148.51 17.8773 147.726 18.344C146.942 18.792 146.298 19.4267 145.794 20.248C145.308 21.0507 145.028 21.9747 144.954 23.02ZM167.327 30.3C167.103 30.3933 166.692 30.5613 166.095 30.804C165.497 31.0467 164.807 31.168 164.023 31.168C163.201 31.168 162.483 30.9347 161.867 30.468C161.251 30.0013 160.943 29.3013 160.943 28.368V17.924H158.927V16.412H160.943V11.484H162.847V16.412H166.207V17.924H162.847V27.836C162.884 28.3773 163.071 28.7787 163.407 29.04C163.761 29.2827 164.163 29.404 164.611 29.404C165.133 29.404 165.6 29.32 166.011 29.152C166.44 28.9653 166.711 28.8347 166.823 28.76L167.327 30.3Z" fill="#333"/>
<path fill-rule="evenodd" clip-rule="evenodd" d="M32.5982 40.7383L49.1729 24.028C50.8137 22.3458 50.8137 19.6542 49.1451 17.972L32.5704 1.26168C30.9296 -0.420561 28.232 -0.420561 26.5634 1.26168L9.98863 17.972C8.32003 19.6262 8.32003 22.3458 9.98863 24.028L26.5912 40.7383C28.232 42.4206 30.9296 42.4206 32.5982 40.7383ZM23.0937 15.9927C24.1464 16.1644 24.8617 17.164 24.6914 18.2253C24.5211 19.2866 23.5297 20.0077 22.477 19.8361C21.4243 19.6644 20.7089 18.6648 20.8792 17.6035C21.0495 16.5422 22.041 15.821 23.0937 15.9927Z" fill="url(#paint0_linear)"/>
<path fill-rule="evenodd" clip-rule="evenodd" d="M23.8332 40.7383L40.4079 24.028C42.0765 22.3458 42.0765 19.6542 40.4079 17.972L23.8332 1.26168C22.1924 -0.420561 19.4948 -0.420561 17.8262 1.26168L1.25145 17.972C-0.41715 19.6262 -0.41715 22.3458 1.25145 24.028L17.8262 40.7383C19.467 42.4206 22.1646 42.4206 23.8332 40.7383ZM23.0936 15.9927C24.1463 16.1644 24.8616 17.164 24.6913 18.2253C24.521 19.2866 23.5296 20.0077 22.4769 19.8361C21.4242 19.6644 20.7089 18.6648 20.8792 17.6035C21.0495 16.5422 22.0409 15.821 23.0936 15.9927Z" fill="url(#paint1_linear)"/>
<path fill-rule="evenodd" clip-rule="evenodd" d="M7.42481 27.5606C5.78402 29.2148 5.78402 31.8783 7.42481 33.5325C9.03779 35.1867 11.7075 35.1867 13.3483 33.5325L26.0575 20.7195C27.6983 19.0652 27.6983 16.4017 26.0575 14.7475C24.4167 13.0933 21.7748 13.0933 20.134 14.7475L7.42481 27.5606ZM23.0936 15.9925C24.1463 16.1642 24.8616 17.1637 24.6913 18.225C24.521 19.2863 23.5296 20.0075 22.4769 19.8358C21.4242 19.6641 20.7089 18.6646 20.8792 17.6033C21.0495 16.542 22.0409 15.8208 23.0936 15.9925Z" fill="url(#paint2_linear)"/>
<defs>
<linearGradient id="paint0_linear" x1="50.4001" y1="15.6279" x2="12.4936" y2="27.5607" gradientUnits="userSpaceOnUse">
<stop stop-color="#9BECC9"/>
<stop offset="0.486486" stop-color="#26CF91"/>
<stop offset="1" stop-color="#33AA7E"/>
</linearGradient>
<linearGradient id="paint1_linear" x1="9.21951" y1="32.7805" x2="30.7317" y2="10.7561" gradientUnits="userSpaceOnUse">
<stop stop-color="#1D263D"/>
<stop offset="1" stop-color="#5E6F8F"/>
</linearGradient>
<linearGradient id="paint2_linear" x1="27.2881" y1="13.5068" x2="2.06346" y2="27.1179" gradientUnits="userSpaceOnUse">
<stop stop-color="#9BECC9"/>
<stop offset="1" stop-color="#26CF91"/>
</linearGradient>
</defs>
</svg>
