<svg width="44" height="44" viewBox="0 0 44 44" fill="none" xmlns="http://www.w3.org/2000/svg">
<path fill-rule="evenodd" clip-rule="evenodd" d="M15.8961 34.847L8.3 37.2673L6 38L9.23113 28.4448C8.6889 27.4469 8.2594 26.3898 7.9534 25.2951C7.58219 23.9667 7.39488 22.5939 7.39488 21.2146C7.39488 17.1558 9.00778 13.3079 11.8831 10.4523C14.7677 7.58744 18.6397 6 22.702 6C26.763 6 30.6329 7.58935 33.5151 10.4547C36.3892 13.312 38 17.1607 38 21.2194C38 25.2775 36.3874 29.1249 33.513 31.9804C30.6294 34.8448 26.7587 36.4327 22.6974 36.4327C21.409 36.4327 20.1253 36.2735 18.8768 35.9537C17.8472 35.69 16.848 35.3184 15.8961 34.847L15.8961 34.847Z" fill="#EEEEEE"/>
<path fill-rule="evenodd" clip-rule="evenodd" d="M36.7797 21.2195C36.7797 17.3546 35.2035 13.8552 32.6552 11.3217C30.1072 8.78867 26.5881 7.22192 22.702 7.22192C18.8125 7.22192 15.2917 8.78814 12.7425 11.3198C10.1922 13.8527 8.61522 17.3514 8.61522 21.2146C8.61522 22.5114 8.79436 23.7698 9.12861 24.9658C9.46074 26.1541 9.94662 27.2792 10.5625 28.3177L8.12277 35.5326L7.9299 36.103L8.50296 35.9204L16.007 33.5295C17.0004 34.0648 18.0634 34.4842 19.1793 34.7701C20.3036 35.058 21.4819 35.2109 22.6974 35.2109C26.5852 35.2109 30.1049 33.6446 32.6534 31.1131C35.203 28.5804 36.7796 25.082 36.7796 21.2195L36.7797 21.2195Z" fill="#54CC61"/>
<path fill-rule="evenodd" clip-rule="evenodd" d="M20.412 17.3984C20.3501 17.2737 19.9933 16.4108 19.6644 15.6155C19.4542 15.1071 19.2537 14.6222 19.2143 14.5284C18.8439 13.6442 18.4346 13.6709 18.1206 13.6913C18.0999 13.6926 18.0801 13.6939 18.0535 13.6939C17.944 13.6939 17.8363 13.6871 17.7247 13.68C17.5852 13.6712 17.4404 13.662 17.3035 13.662C17.1216 13.662 16.8737 13.6998 16.6128 13.8221C16.4193 13.9128 16.2196 14.0493 16.0369 14.2503C16.0102 14.2791 15.9901 14.3003 15.9683 14.3232C15.5336 14.7808 14.5858 15.7782 14.5858 17.6938C14.5858 19.7032 16.0331 21.6141 16.2458 21.8947L16.245 21.8953L16.247 21.8979L16.2494 21.9003C16.2577 21.911 16.2884 21.956 16.3338 22.0225C16.8683 22.8052 19.3255 26.4032 23.0608 27.8639C26.4495 29.1878 27.0627 29.0392 27.6104 28.9066C27.7037 28.884 27.7947 28.8619 27.8932 28.8528C28.3367 28.8111 29.0623 28.507 29.6729 28.0801C30.1795 27.726 30.6216 27.2785 30.7909 26.8072C30.9419 26.3859 31.0273 25.9945 31.0669 25.6723C31.1244 25.2043 31.0789 24.836 30.9939 24.6938L30.9927 24.6926C30.8633 24.4793 30.6397 24.3735 30.3041 24.2149C30.2449 24.1869 30.1817 24.157 30.1209 24.1276L30.1211 24.1272C29.8897 24.0094 29.0892 23.6175 28.405 23.2937C27.9628 23.0844 27.5699 22.9046 27.4144 22.8487C27.1955 22.77 27.0048 22.7105 26.8004 22.7336C26.5686 22.7598 26.3664 22.8793 26.179 23.1635L26.1784 23.1631C26.0843 23.3047 25.9185 23.5169 25.7373 23.7392C25.4502 24.0913 25.1078 24.4866 24.9619 24.6525V24.6538C24.8996 24.7248 24.8458 24.7635 24.7931 24.7698C24.72 24.7787 24.6195 24.7487 24.4803 24.6802C24.3913 24.6357 24.3046 24.5982 24.1977 24.552C23.6565 24.3182 22.6026 23.8629 21.4014 22.7981C20.9717 22.4174 20.5936 22.0011 20.2778 21.6106C19.7666 20.9784 19.4212 20.4153 19.284 20.1781C19.1756 19.992 19.296 19.8714 19.4071 19.7602L19.4066 19.7595C19.5295 19.6366 19.6686 19.4692 19.8082 19.3013C19.8717 19.2248 19.9353 19.1483 20.0126 19.0591L20.0138 19.0579C20.202 18.8387 20.2801 18.6791 20.3854 18.4637C20.4037 18.4262 20.423 18.3869 20.4423 18.3483L20.4435 18.3471C20.5361 18.1603 20.5598 17.9825 20.5426 17.8159C20.5265 17.6609 20.4747 17.5225 20.4115 17.3986L20.4119 17.3984L20.412 17.3984Z" fill="#FFFFFE"/>
</svg>
