<?xml version="1.0" encoding="UTF-8" standalone="no"?>
<svg
   width="21px"
   height="15px"
   viewBox="0 0 21 15"
   version="1.1"
   id="svg4"
   sodipodi:docname="EN.svg"
   inkscape:version="1.3.2 (091e20e, 2023-11-25, custom)"
   xmlns:inkscape="http://www.inkscape.org/namespaces/inkscape"
   xmlns:sodipodi="http://sodipodi.sourceforge.net/DTD/sodipodi-0.dtd"
   xmlns="http://www.w3.org/2000/svg"
   xmlns:svg="http://www.w3.org/2000/svg"
   xmlns:rdf="http://www.w3.org/1999/02/22-rdf-syntax-ns#"
   xmlns:cc="http://creativecommons.org/ns#"
   xmlns:dc="http://purl.org/dc/elements/1.1/">
  <sodipodi:namedview
     id="namedview4"
     pagecolor="#ffffff"
     bordercolor="#000000"
     borderopacity="0.25"
     inkscape:showpageshadow="2"
     inkscape:pageopacity="0.0"
     inkscape:pagecheckerboard="0"
     inkscape:deskcolor="#d1d1d1"
     inkscape:zoom="13.399674"
     inkscape:cx="42.277149"
     inkscape:cy="-13.992878"
     inkscape:window-width="2560"
     inkscape:window-height="1351"
     inkscape:window-x="1911"
     inkscape:window-y="-9"
     inkscape:window-maximized="1"
     inkscape:current-layer="svg4" />
  <!-- Generator: sketchtool 46 (44423) - http://www.bohemiancoding.com/sketch -->
  <title
     id="title1">GR</title>
  <desc
     id="desc1">Created with sketchtool.</desc>
  <defs
     id="defs4">
    <linearGradient
       x1="50%"
       y1="0%"
       x2="50%"
       y2="100%"
       id="linearGradient-1">
      <stop
         stop-color="#FFFFFF"
         offset="0%"
         id="stop1" />
      <stop
         stop-color="#F0F0F0"
         offset="100%"
         id="stop2" />
    </linearGradient>
    <linearGradient
       x1="50%"
       y1="0%"
       x2="50%"
       y2="100%"
       id="linearGradient-2">
      <stop
         stop-color="#1C6DC1"
         offset="0%"
         id="stop3" />
      <stop
         stop-color="#1660AD"
         offset="100%"
         id="stop4" />
    </linearGradient>
    <clipPath
       id="clipPath4293"
       clipPathUnits="userSpaceOnUse">
      <rect
         id="rect4295"
         fill-opacity="0.67"
         height="512"
         width="682.66998"
         y="5.2307e-06"
         x="0" />
    </clipPath>
  </defs>
  <g
     id="Symbols"
     stroke="none"
     stroke-width="1"
     fill="none"
     fill-rule="evenodd">
    <g
       id="GR">
      <rect
         id="FlagBackground"
         fill="url(#linearGradient-1)"
         x="0"
         y="0"
         width="21"
         height="15" />
      <path
         d="M0,0 L4,0 L4,4 L0,4 L0,0 Z M6,0 L10,0 L10,4 L6,4 L6,0 Z M10,0 L21,0 L21,2 L10,2 L10,0 Z M10,4 L21,4 L21,6 L10,6 L10,4 Z M10,8 L21,8 L21,10 L10,10 L10,8 Z M0,12 L21,12 L21,14 L0,14 L0,12 Z M6,6 L10,6 L10,10 L6,10 L6,6 Z M0,6 L4,6 L4,10 L0,10 L0,6 Z"
         id="Rectangle-537"
         fill="url(#linearGradient-2)" />
    </g>
  </g>
  <g
     id="flag"
     fill-rule="evenodd"
     clip-path="url(#clipPath4293)"
     transform="matrix(0.03062653,0,0,0.02978842,0.05927645,-0.30360396)">
    <g
       id="g390"
       stroke-width="1pt"
       transform="matrix(3.9385,0,0,3.9385,0,5e-6)">
      <g
         id="g169"
         fill="#bd3d44">
        <rect
           id="rect156"
           height="10"
           width="247"
           y="0"
           x="0" />
        <rect
           id="rect158"
           height="10"
           width="247"
           y="20"
           x="0" />
        <rect
           id="rect160"
           height="10"
           width="247"
           y="40"
           x="0" />
        <rect
           id="rect162"
           height="10"
           width="247"
           y="60"
           x="0" />
        <rect
           id="rect164"
           height="10"
           width="247"
           y="80"
           x="0" />
        <rect
           id="rect166"
           height="10"
           width="247"
           y="100"
           x="0" />
        <rect
           id="rect168"
           height="10"
           width="247"
           y="120"
           x="0" />
      </g>
      <g
         id="g177"
         fill="#ffffff">
        <rect
           id="rect157"
           height="10"
           width="247"
           y="10"
           x="0" />
        <rect
           id="rect159"
           height="10"
           width="247"
           y="30"
           x="0" />
        <rect
           id="rect161"
           height="10"
           width="247"
           y="50"
           x="0" />
        <rect
           id="rect163"
           height="10"
           width="247"
           y="70"
           x="0" />
        <rect
           id="rect165"
           height="10"
           width="247"
           y="90"
           x="0" />
        <rect
           id="rect167"
           height="10"
           width="247"
           y="110"
           x="0" />
      </g>
    </g>
    <rect
       id="rect200"
       height="275.69"
       width="389.12"
       y="4.9999999e-06"
       x="0"
       stroke-width="1pt"
       fill="#192f5d" />
    <g
       id="g274"
       fill="#ffffff"
       transform="matrix(3.9385,0,0,3.9385,0,5e-6)">
      <g
         id="g218">
        <g
           id="g194">
          <polygon
             id="polygon207"
             transform="translate(8.2333,7)"
             d="M 1.3084868e-6,-4.0040002 0.89895399,-1.237304 3.8080309,-1.2373029 1.4545381,0.47260808 2.3534912,3.239305 0,1.5293919 l -2.3534933,1.7099115 0.8989552,-2.76669531 -2.353492,-1.70991339 2.9090761,1.3e-6 z"
             points="0,-4.004 0.89895,-1.2373 3.808,-1.2373 1.4545,0.47261 2.3535,3.2393 0,1.5294 -2.3535,3.2393 -1.4545,0.47261 -3.808,-1.2373 -0.89895,-1.2373 " />
          <polygon
             id="polygon188"
             transform="translate(24.7,7)"
             d="M 1.3084868e-6,-4.0040002 0.89895399,-1.237304 3.8080309,-1.2373029 1.4545381,0.47260808 2.3534912,3.239305 0,1.5293919 l -2.3534933,1.7099115 0.8989552,-2.76669531 -2.353492,-1.70991339 2.9090761,1.3e-6 z"
             points="0,-4.004 0.89895,-1.2373 3.808,-1.2373 1.4545,0.47261 2.3535,3.2393 0,1.5294 -2.3535,3.2393 -1.4545,0.47261 -3.808,-1.2373 -0.89895,-1.2373 " />
          <polygon
             id="polygon189"
             transform="translate(41.167,7)"
             d="M 1.3084868e-6,-4.0040002 0.89895399,-1.237304 3.8080309,-1.2373029 1.4545381,0.47260808 2.3534912,3.239305 0,1.5293919 l -2.3534933,1.7099115 0.8989552,-2.76669531 -2.353492,-1.70991339 2.9090761,1.3e-6 z"
             points="0,-4.004 0.89895,-1.2373 3.808,-1.2373 1.4545,0.47261 2.3535,3.2393 0,1.5294 -2.3535,3.2393 -1.4545,0.47261 -3.808,-1.2373 -0.89895,-1.2373 " />
          <polygon
             id="polygon190"
             transform="translate(57.633,7)"
             d="M 1.3084868e-6,-4.0040002 0.89895399,-1.237304 3.8080309,-1.2373029 1.4545381,0.47260808 2.3534912,3.239305 0,1.5293919 l -2.3534933,1.7099115 0.8989552,-2.76669531 -2.353492,-1.70991339 2.9090761,1.3e-6 z"
             points="0,-4.004 0.89895,-1.2373 3.808,-1.2373 1.4545,0.47261 2.3535,3.2393 0,1.5294 -2.3535,3.2393 -1.4545,0.47261 -3.808,-1.2373 -0.89895,-1.2373 " />
          <polygon
             id="polygon191"
             transform="translate(74.1,7)"
             d="M 1.3084868e-6,-4.0040002 0.89895399,-1.237304 3.8080309,-1.2373029 1.4545381,0.47260808 2.3534912,3.239305 0,1.5293919 l -2.3534933,1.7099115 0.8989552,-2.76669531 -2.353492,-1.70991339 2.9090761,1.3e-6 z"
             points="0,-4.004 0.89895,-1.2373 3.808,-1.2373 1.4545,0.47261 2.3535,3.2393 0,1.5294 -2.3535,3.2393 -1.4545,0.47261 -3.808,-1.2373 -0.89895,-1.2373 " />
          <polygon
             id="polygon192"
             transform="translate(90.567,7)"
             d="M 1.3084868e-6,-4.0040002 0.89895399,-1.237304 3.8080309,-1.2373029 1.4545381,0.47260808 2.3534912,3.239305 0,1.5293919 l -2.3534933,1.7099115 0.8989552,-2.76669531 -2.353492,-1.70991339 2.9090761,1.3e-6 z"
             points="0,-4.004 0.89895,-1.2373 3.808,-1.2373 1.4545,0.47261 2.3535,3.2393 0,1.5294 -2.3535,3.2393 -1.4545,0.47261 -3.808,-1.2373 -0.89895,-1.2373 " />
        </g>
        <g
           id="g205">
          <polygon
             id="polygon193"
             transform="translate(16.467,14)"
             d="M 1.3084868e-6,-4.0040002 0.89895399,-1.237304 3.8080309,-1.2373029 1.4545381,0.47260808 2.3534912,3.239305 0,1.5293919 l -2.3534933,1.7099115 0.8989552,-2.76669531 -2.353492,-1.70991339 2.9090761,1.3e-6 z"
             points="0,-4.004 0.89895,-1.2373 3.808,-1.2373 1.4545,0.47261 2.3535,3.2393 0,1.5294 -2.3535,3.2393 -1.4545,0.47261 -3.808,-1.2373 -0.89895,-1.2373 " />
          <polygon
             id="polygon201"
             transform="translate(32.933,14)"
             d="M 1.3084868e-6,-4.0040002 0.89895399,-1.237304 3.8080309,-1.2373029 1.4545381,0.47260808 2.3534912,3.239305 0,1.5293919 l -2.3534933,1.7099115 0.8989552,-2.76669531 -2.353492,-1.70991339 2.9090761,1.3e-6 z"
             points="0,-4.004 0.89895,-1.2373 3.808,-1.2373 1.4545,0.47261 2.3535,3.2393 0,1.5294 -2.3535,3.2393 -1.4545,0.47261 -3.808,-1.2373 -0.89895,-1.2373 " />
          <polygon
             id="polygon202"
             transform="translate(49.4,14)"
             d="M 1.3084868e-6,-4.0040002 0.89895399,-1.237304 3.8080309,-1.2373029 1.4545381,0.47260808 2.3534912,3.239305 0,1.5293919 l -2.3534933,1.7099115 0.8989552,-2.76669531 -2.353492,-1.70991339 2.9090761,1.3e-6 z"
             points="0,-4.004 0.89895,-1.2373 3.808,-1.2373 1.4545,0.47261 2.3535,3.2393 0,1.5294 -2.3535,3.2393 -1.4545,0.47261 -3.808,-1.2373 -0.89895,-1.2373 " />
          <polygon
             id="polygon203"
             transform="translate(65.867,14)"
             d="M 1.3084868e-6,-4.0040002 0.89895399,-1.237304 3.8080309,-1.2373029 1.4545381,0.47260808 2.3534912,3.239305 0,1.5293919 l -2.3534933,1.7099115 0.8989552,-2.76669531 -2.353492,-1.70991339 2.9090761,1.3e-6 z"
             points="0,-4.004 0.89895,-1.2373 3.808,-1.2373 1.4545,0.47261 2.3535,3.2393 0,1.5294 -2.3535,3.2393 -1.4545,0.47261 -3.808,-1.2373 -0.89895,-1.2373 " />
          <polygon
             id="polygon204"
             transform="translate(82.333,14)"
             d="M 1.3084868e-6,-4.0040002 0.89895399,-1.237304 3.8080309,-1.2373029 1.4545381,0.47260808 2.3534912,3.239305 0,1.5293919 l -2.3534933,1.7099115 0.8989552,-2.76669531 -2.353492,-1.70991339 2.9090761,1.3e-6 z"
             points="0,-4.004 0.89895,-1.2373 3.808,-1.2373 1.4545,0.47261 2.3535,3.2393 0,1.5294 -2.3535,3.2393 -1.4545,0.47261 -3.808,-1.2373 -0.89895,-1.2373 " />
        </g>
      </g>
      <g
         id="g232"
         transform="translate(0,14)">
        <g
           id="g233">
          <polygon
             id="polygon234"
             transform="translate(8.2333,7)"
             d="M 1.3084868e-6,-4.0040002 0.89895399,-1.237304 3.8080309,-1.2373029 1.4545381,0.47260808 2.3534912,3.239305 0,1.5293919 l -2.3534933,1.7099115 0.8989552,-2.76669531 -2.353492,-1.70991339 2.9090761,1.3e-6 z"
             points="0,-4.004 0.89895,-1.2373 3.808,-1.2373 1.4545,0.47261 2.3535,3.2393 0,1.5294 -2.3535,3.2393 -1.4545,0.47261 -3.808,-1.2373 -0.89895,-1.2373 " />
          <polygon
             id="polygon235"
             transform="translate(24.7,7)"
             d="M 1.3084868e-6,-4.0040002 0.89895399,-1.237304 3.8080309,-1.2373029 1.4545381,0.47260808 2.3534912,3.239305 0,1.5293919 l -2.3534933,1.7099115 0.8989552,-2.76669531 -2.353492,-1.70991339 2.9090761,1.3e-6 z"
             points="0,-4.004 0.89895,-1.2373 3.808,-1.2373 1.4545,0.47261 2.3535,3.2393 0,1.5294 -2.3535,3.2393 -1.4545,0.47261 -3.808,-1.2373 -0.89895,-1.2373 " />
          <polygon
             id="polygon236"
             transform="translate(41.167,7)"
             d="M 1.3084868e-6,-4.0040002 0.89895399,-1.237304 3.8080309,-1.2373029 1.4545381,0.47260808 2.3534912,3.239305 0,1.5293919 l -2.3534933,1.7099115 0.8989552,-2.76669531 -2.353492,-1.70991339 2.9090761,1.3e-6 z"
             points="0,-4.004 0.89895,-1.2373 3.808,-1.2373 1.4545,0.47261 2.3535,3.2393 0,1.5294 -2.3535,3.2393 -1.4545,0.47261 -3.808,-1.2373 -0.89895,-1.2373 " />
          <polygon
             id="polygon237"
             transform="translate(57.633,7)"
             d="M 1.3084868e-6,-4.0040002 0.89895399,-1.237304 3.8080309,-1.2373029 1.4545381,0.47260808 2.3534912,3.239305 0,1.5293919 l -2.3534933,1.7099115 0.8989552,-2.76669531 -2.353492,-1.70991339 2.9090761,1.3e-6 z"
             points="0,-4.004 0.89895,-1.2373 3.808,-1.2373 1.4545,0.47261 2.3535,3.2393 0,1.5294 -2.3535,3.2393 -1.4545,0.47261 -3.808,-1.2373 -0.89895,-1.2373 " />
          <polygon
             id="polygon238"
             transform="translate(74.1,7)"
             d="M 1.3084868e-6,-4.0040002 0.89895399,-1.237304 3.8080309,-1.2373029 1.4545381,0.47260808 2.3534912,3.239305 0,1.5293919 l -2.3534933,1.7099115 0.8989552,-2.76669531 -2.353492,-1.70991339 2.9090761,1.3e-6 z"
             points="0,-4.004 0.89895,-1.2373 3.808,-1.2373 1.4545,0.47261 2.3535,3.2393 0,1.5294 -2.3535,3.2393 -1.4545,0.47261 -3.808,-1.2373 -0.89895,-1.2373 " />
          <polygon
             id="polygon239"
             transform="translate(90.567,7)"
             d="M 1.3084868e-6,-4.0040002 0.89895399,-1.237304 3.8080309,-1.2373029 1.4545381,0.47260808 2.3534912,3.239305 0,1.5293919 l -2.3534933,1.7099115 0.8989552,-2.76669531 -2.353492,-1.70991339 2.9090761,1.3e-6 z"
             points="0,-4.004 0.89895,-1.2373 3.808,-1.2373 1.4545,0.47261 2.3535,3.2393 0,1.5294 -2.3535,3.2393 -1.4545,0.47261 -3.808,-1.2373 -0.89895,-1.2373 " />
        </g>
        <g
           id="g240">
          <polygon
             id="polygon241"
             transform="translate(16.467,14)"
             d="M 1.3084868e-6,-4.0040002 0.89895399,-1.237304 3.8080309,-1.2373029 1.4545381,0.47260808 2.3534912,3.239305 0,1.5293919 l -2.3534933,1.7099115 0.8989552,-2.76669531 -2.353492,-1.70991339 2.9090761,1.3e-6 z"
             points="0,-4.004 0.89895,-1.2373 3.808,-1.2373 1.4545,0.47261 2.3535,3.2393 0,1.5294 -2.3535,3.2393 -1.4545,0.47261 -3.808,-1.2373 -0.89895,-1.2373 " />
          <polygon
             id="polygon242"
             transform="translate(32.933,14)"
             d="M 1.3084868e-6,-4.0040002 0.89895399,-1.237304 3.8080309,-1.2373029 1.4545381,0.47260808 2.3534912,3.239305 0,1.5293919 l -2.3534933,1.7099115 0.8989552,-2.76669531 -2.353492,-1.70991339 2.9090761,1.3e-6 z"
             points="0,-4.004 0.89895,-1.2373 3.808,-1.2373 1.4545,0.47261 2.3535,3.2393 0,1.5294 -2.3535,3.2393 -1.4545,0.47261 -3.808,-1.2373 -0.89895,-1.2373 " />
          <polygon
             id="polygon243"
             transform="translate(49.4,14)"
             d="M 1.3084868e-6,-4.0040002 0.89895399,-1.237304 3.8080309,-1.2373029 1.4545381,0.47260808 2.3534912,3.239305 0,1.5293919 l -2.3534933,1.7099115 0.8989552,-2.76669531 -2.353492,-1.70991339 2.9090761,1.3e-6 z"
             points="0,-4.004 0.89895,-1.2373 3.808,-1.2373 1.4545,0.47261 2.3535,3.2393 0,1.5294 -2.3535,3.2393 -1.4545,0.47261 -3.808,-1.2373 -0.89895,-1.2373 " />
          <polygon
             id="polygon244"
             transform="translate(65.867,14)"
             d="M 1.3084868e-6,-4.0040002 0.89895399,-1.237304 3.8080309,-1.2373029 1.4545381,0.47260808 2.3534912,3.239305 0,1.5293919 l -2.3534933,1.7099115 0.8989552,-2.76669531 -2.353492,-1.70991339 2.9090761,1.3e-6 z"
             points="0,-4.004 0.89895,-1.2373 3.808,-1.2373 1.4545,0.47261 2.3535,3.2393 0,1.5294 -2.3535,3.2393 -1.4545,0.47261 -3.808,-1.2373 -0.89895,-1.2373 " />
          <polygon
             id="polygon245"
             transform="translate(82.333,14)"
             d="M 1.3084868e-6,-4.0040002 0.89895399,-1.237304 3.8080309,-1.2373029 1.4545381,0.47260808 2.3534912,3.239305 0,1.5293919 l -2.3534933,1.7099115 0.8989552,-2.76669531 -2.353492,-1.70991339 2.9090761,1.3e-6 z"
             points="0,-4.004 0.89895,-1.2373 3.808,-1.2373 1.4545,0.47261 2.3535,3.2393 0,1.5294 -2.3535,3.2393 -1.4545,0.47261 -3.808,-1.2373 -0.89895,-1.2373 " />
        </g>
      </g>
      <g
         id="g246"
         transform="translate(0,28)">
        <g
           id="g247">
          <polygon
             id="polygon248"
             transform="translate(8.2333,7)"
             d="M 1.3084868e-6,-4.0040002 0.89895399,-1.237304 3.8080309,-1.2373029 1.4545381,0.47260808 2.3534912,3.239305 0,1.5293919 l -2.3534933,1.7099115 0.8989552,-2.76669531 -2.353492,-1.70991339 2.9090761,1.3e-6 z"
             points="0,-4.004 0.89895,-1.2373 3.808,-1.2373 1.4545,0.47261 2.3535,3.2393 0,1.5294 -2.3535,3.2393 -1.4545,0.47261 -3.808,-1.2373 -0.89895,-1.2373 " />
          <polygon
             id="polygon249"
             transform="translate(24.7,7)"
             d="M 1.3084868e-6,-4.0040002 0.89895399,-1.237304 3.8080309,-1.2373029 1.4545381,0.47260808 2.3534912,3.239305 0,1.5293919 l -2.3534933,1.7099115 0.8989552,-2.76669531 -2.353492,-1.70991339 2.9090761,1.3e-6 z"
             points="0,-4.004 0.89895,-1.2373 3.808,-1.2373 1.4545,0.47261 2.3535,3.2393 0,1.5294 -2.3535,3.2393 -1.4545,0.47261 -3.808,-1.2373 -0.89895,-1.2373 " />
          <polygon
             id="polygon250"
             transform="translate(41.167,7)"
             d="M 1.3084868e-6,-4.0040002 0.89895399,-1.237304 3.8080309,-1.2373029 1.4545381,0.47260808 2.3534912,3.239305 0,1.5293919 l -2.3534933,1.7099115 0.8989552,-2.76669531 -2.353492,-1.70991339 2.9090761,1.3e-6 z"
             points="0,-4.004 0.89895,-1.2373 3.808,-1.2373 1.4545,0.47261 2.3535,3.2393 0,1.5294 -2.3535,3.2393 -1.4545,0.47261 -3.808,-1.2373 -0.89895,-1.2373 " />
          <polygon
             id="polygon251"
             transform="translate(57.633,7)"
             d="M 1.3084868e-6,-4.0040002 0.89895399,-1.237304 3.8080309,-1.2373029 1.4545381,0.47260808 2.3534912,3.239305 0,1.5293919 l -2.3534933,1.7099115 0.8989552,-2.76669531 -2.353492,-1.70991339 2.9090761,1.3e-6 z"
             points="0,-4.004 0.89895,-1.2373 3.808,-1.2373 1.4545,0.47261 2.3535,3.2393 0,1.5294 -2.3535,3.2393 -1.4545,0.47261 -3.808,-1.2373 -0.89895,-1.2373 " />
          <polygon
             id="polygon252"
             transform="translate(74.1,7)"
             d="M 1.3084868e-6,-4.0040002 0.89895399,-1.237304 3.8080309,-1.2373029 1.4545381,0.47260808 2.3534912,3.239305 0,1.5293919 l -2.3534933,1.7099115 0.8989552,-2.76669531 -2.353492,-1.70991339 2.9090761,1.3e-6 z"
             points="0,-4.004 0.89895,-1.2373 3.808,-1.2373 1.4545,0.47261 2.3535,3.2393 0,1.5294 -2.3535,3.2393 -1.4545,0.47261 -3.808,-1.2373 -0.89895,-1.2373 " />
          <polygon
             id="polygon253"
             transform="translate(90.567,7)"
             d="M 1.3084868e-6,-4.0040002 0.89895399,-1.237304 3.8080309,-1.2373029 1.4545381,0.47260808 2.3534912,3.239305 0,1.5293919 l -2.3534933,1.7099115 0.8989552,-2.76669531 -2.353492,-1.70991339 2.9090761,1.3e-6 z"
             points="0,-4.004 0.89895,-1.2373 3.808,-1.2373 1.4545,0.47261 2.3535,3.2393 0,1.5294 -2.3535,3.2393 -1.4545,0.47261 -3.808,-1.2373 -0.89895,-1.2373 " />
        </g>
        <g
           id="g254">
          <polygon
             id="polygon255"
             transform="translate(16.467,14)"
             d="M 1.3084868e-6,-4.0040002 0.89895399,-1.237304 3.8080309,-1.2373029 1.4545381,0.47260808 2.3534912,3.239305 0,1.5293919 l -2.3534933,1.7099115 0.8989552,-2.76669531 -2.353492,-1.70991339 2.9090761,1.3e-6 z"
             points="0,-4.004 0.89895,-1.2373 3.808,-1.2373 1.4545,0.47261 2.3535,3.2393 0,1.5294 -2.3535,3.2393 -1.4545,0.47261 -3.808,-1.2373 -0.89895,-1.2373 " />
          <polygon
             id="polygon256"
             transform="translate(32.933,14)"
             d="M 1.3084868e-6,-4.0040002 0.89895399,-1.237304 3.8080309,-1.2373029 1.4545381,0.47260808 2.3534912,3.239305 0,1.5293919 l -2.3534933,1.7099115 0.8989552,-2.76669531 -2.353492,-1.70991339 2.9090761,1.3e-6 z"
             points="0,-4.004 0.89895,-1.2373 3.808,-1.2373 1.4545,0.47261 2.3535,3.2393 0,1.5294 -2.3535,3.2393 -1.4545,0.47261 -3.808,-1.2373 -0.89895,-1.2373 " />
          <polygon
             id="polygon257"
             transform="translate(49.4,14)"
             d="M 1.3084868e-6,-4.0040002 0.89895399,-1.237304 3.8080309,-1.2373029 1.4545381,0.47260808 2.3534912,3.239305 0,1.5293919 l -2.3534933,1.7099115 0.8989552,-2.76669531 -2.353492,-1.70991339 2.9090761,1.3e-6 z"
             points="0,-4.004 0.89895,-1.2373 3.808,-1.2373 1.4545,0.47261 2.3535,3.2393 0,1.5294 -2.3535,3.2393 -1.4545,0.47261 -3.808,-1.2373 -0.89895,-1.2373 " />
          <polygon
             id="polygon258"
             transform="translate(65.867,14)"
             d="M 1.3084868e-6,-4.0040002 0.89895399,-1.237304 3.8080309,-1.2373029 1.4545381,0.47260808 2.3534912,3.239305 0,1.5293919 l -2.3534933,1.7099115 0.8989552,-2.76669531 -2.353492,-1.70991339 2.9090761,1.3e-6 z"
             points="0,-4.004 0.89895,-1.2373 3.808,-1.2373 1.4545,0.47261 2.3535,3.2393 0,1.5294 -2.3535,3.2393 -1.4545,0.47261 -3.808,-1.2373 -0.89895,-1.2373 " />
          <polygon
             id="polygon259"
             transform="translate(82.333,14)"
             d="M 1.3084868e-6,-4.0040002 0.89895399,-1.237304 3.8080309,-1.2373029 1.4545381,0.47260808 2.3534912,3.239305 0,1.5293919 l -2.3534933,1.7099115 0.8989552,-2.76669531 -2.353492,-1.70991339 2.9090761,1.3e-6 z"
             points="0,-4.004 0.89895,-1.2373 3.808,-1.2373 1.4545,0.47261 2.3535,3.2393 0,1.5294 -2.3535,3.2393 -1.4545,0.47261 -3.808,-1.2373 -0.89895,-1.2373 " />
        </g>
      </g>
      <g
         id="g260"
         transform="translate(0,42)">
        <g
           id="g261">
          <polygon
             id="polygon262"
             transform="translate(8.2333,7)"
             d="M 1.3084868e-6,-4.0040002 0.89895399,-1.237304 3.8080309,-1.2373029 1.4545381,0.47260808 2.3534912,3.239305 0,1.5293919 l -2.3534933,1.7099115 0.8989552,-2.76669531 -2.353492,-1.70991339 2.9090761,1.3e-6 z"
             points="0,-4.004 0.89895,-1.2373 3.808,-1.2373 1.4545,0.47261 2.3535,3.2393 0,1.5294 -2.3535,3.2393 -1.4545,0.47261 -3.808,-1.2373 -0.89895,-1.2373 " />
          <polygon
             id="polygon263"
             transform="translate(24.7,7)"
             d="M 1.3084868e-6,-4.0040002 0.89895399,-1.237304 3.8080309,-1.2373029 1.4545381,0.47260808 2.3534912,3.239305 0,1.5293919 l -2.3534933,1.7099115 0.8989552,-2.76669531 -2.353492,-1.70991339 2.9090761,1.3e-6 z"
             points="0,-4.004 0.89895,-1.2373 3.808,-1.2373 1.4545,0.47261 2.3535,3.2393 0,1.5294 -2.3535,3.2393 -1.4545,0.47261 -3.808,-1.2373 -0.89895,-1.2373 " />
          <polygon
             id="polygon264"
             transform="translate(41.167,7)"
             d="M 1.3084868e-6,-4.0040002 0.89895399,-1.237304 3.8080309,-1.2373029 1.4545381,0.47260808 2.3534912,3.239305 0,1.5293919 l -2.3534933,1.7099115 0.8989552,-2.76669531 -2.353492,-1.70991339 2.9090761,1.3e-6 z"
             points="0,-4.004 0.89895,-1.2373 3.808,-1.2373 1.4545,0.47261 2.3535,3.2393 0,1.5294 -2.3535,3.2393 -1.4545,0.47261 -3.808,-1.2373 -0.89895,-1.2373 " />
          <polygon
             id="polygon265"
             transform="translate(57.633,7)"
             d="M 1.3084868e-6,-4.0040002 0.89895399,-1.237304 3.8080309,-1.2373029 1.4545381,0.47260808 2.3534912,3.239305 0,1.5293919 l -2.3534933,1.7099115 0.8989552,-2.76669531 -2.353492,-1.70991339 2.9090761,1.3e-6 z"
             points="0,-4.004 0.89895,-1.2373 3.808,-1.2373 1.4545,0.47261 2.3535,3.2393 0,1.5294 -2.3535,3.2393 -1.4545,0.47261 -3.808,-1.2373 -0.89895,-1.2373 " />
          <polygon
             id="polygon266"
             transform="translate(74.1,7)"
             d="M 1.3084868e-6,-4.0040002 0.89895399,-1.237304 3.8080309,-1.2373029 1.4545381,0.47260808 2.3534912,3.239305 0,1.5293919 l -2.3534933,1.7099115 0.8989552,-2.76669531 -2.353492,-1.70991339 2.9090761,1.3e-6 z"
             points="0,-4.004 0.89895,-1.2373 3.808,-1.2373 1.4545,0.47261 2.3535,3.2393 0,1.5294 -2.3535,3.2393 -1.4545,0.47261 -3.808,-1.2373 -0.89895,-1.2373 " />
          <polygon
             id="polygon267"
             transform="translate(90.567,7)"
             d="M 1.3084868e-6,-4.0040002 0.89895399,-1.237304 3.8080309,-1.2373029 1.4545381,0.47260808 2.3534912,3.239305 0,1.5293919 l -2.3534933,1.7099115 0.8989552,-2.76669531 -2.353492,-1.70991339 2.9090761,1.3e-6 z"
             points="0,-4.004 0.89895,-1.2373 3.808,-1.2373 1.4545,0.47261 2.3535,3.2393 0,1.5294 -2.3535,3.2393 -1.4545,0.47261 -3.808,-1.2373 -0.89895,-1.2373 " />
        </g>
        <g
           id="g268">
          <polygon
             id="polygon269"
             transform="translate(16.467,14)"
             d="M 1.3084868e-6,-4.0040002 0.89895399,-1.237304 3.8080309,-1.2373029 1.4545381,0.47260808 2.3534912,3.239305 0,1.5293919 l -2.3534933,1.7099115 0.8989552,-2.76669531 -2.353492,-1.70991339 2.9090761,1.3e-6 z"
             points="0,-4.004 0.89895,-1.2373 3.808,-1.2373 1.4545,0.47261 2.3535,3.2393 0,1.5294 -2.3535,3.2393 -1.4545,0.47261 -3.808,-1.2373 -0.89895,-1.2373 " />
          <polygon
             id="polygon270"
             transform="translate(32.933,14)"
             d="M 1.3084868e-6,-4.0040002 0.89895399,-1.237304 3.8080309,-1.2373029 1.4545381,0.47260808 2.3534912,3.239305 0,1.5293919 l -2.3534933,1.7099115 0.8989552,-2.76669531 -2.353492,-1.70991339 2.9090761,1.3e-6 z"
             points="0,-4.004 0.89895,-1.2373 3.808,-1.2373 1.4545,0.47261 2.3535,3.2393 0,1.5294 -2.3535,3.2393 -1.4545,0.47261 -3.808,-1.2373 -0.89895,-1.2373 " />
          <polygon
             id="polygon271"
             transform="translate(49.4,14)"
             d="M 1.3084868e-6,-4.0040002 0.89895399,-1.237304 3.8080309,-1.2373029 1.4545381,0.47260808 2.3534912,3.239305 0,1.5293919 l -2.3534933,1.7099115 0.8989552,-2.76669531 -2.353492,-1.70991339 2.9090761,1.3e-6 z"
             points="0,-4.004 0.89895,-1.2373 3.808,-1.2373 1.4545,0.47261 2.3535,3.2393 0,1.5294 -2.3535,3.2393 -1.4545,0.47261 -3.808,-1.2373 -0.89895,-1.2373 " />
          <polygon
             id="polygon272"
             transform="translate(65.867,14)"
             d="M 1.3084868e-6,-4.0040002 0.89895399,-1.237304 3.8080309,-1.2373029 1.4545381,0.47260808 2.3534912,3.239305 0,1.5293919 l -2.3534933,1.7099115 0.8989552,-2.76669531 -2.353492,-1.70991339 2.9090761,1.3e-6 z"
             points="0,-4.004 0.89895,-1.2373 3.808,-1.2373 1.4545,0.47261 2.3535,3.2393 0,1.5294 -2.3535,3.2393 -1.4545,0.47261 -3.808,-1.2373 -0.89895,-1.2373 " />
          <polygon
             id="polygon273"
             transform="translate(82.333,14)"
             d="M 1.3084868e-6,-4.0040002 0.89895399,-1.237304 3.8080309,-1.2373029 1.4545381,0.47260808 2.3534912,3.239305 0,1.5293919 l -2.3534933,1.7099115 0.8989552,-2.76669531 -2.353492,-1.70991339 2.9090761,1.3e-6 z"
             points="0,-4.004 0.89895,-1.2373 3.808,-1.2373 1.4545,0.47261 2.3535,3.2393 0,1.5294 -2.3535,3.2393 -1.4545,0.47261 -3.808,-1.2373 -0.89895,-1.2373 " />
        </g>
      </g>
      <g
         id="g211"
         transform="translate(0,56)">
        <polygon
           id="polygon212"
           transform="translate(8.2333,7)"
           d="M 1.3084868e-6,-4.0040002 0.89895399,-1.237304 3.8080309,-1.2373029 1.4545381,0.47260808 2.3534912,3.239305 0,1.5293919 l -2.3534933,1.7099115 0.8989552,-2.76669531 -2.353492,-1.70991339 2.9090761,1.3e-6 z"
           points="0,-4.004 0.89895,-1.2373 3.808,-1.2373 1.4545,0.47261 2.3535,3.2393 0,1.5294 -2.3535,3.2393 -1.4545,0.47261 -3.808,-1.2373 -0.89895,-1.2373 " />
        <polygon
           id="polygon213"
           transform="translate(24.7,7)"
           d="M 1.3084868e-6,-4.0040002 0.89895399,-1.237304 3.8080309,-1.2373029 1.4545381,0.47260808 2.3534912,3.239305 0,1.5293919 l -2.3534933,1.7099115 0.8989552,-2.76669531 -2.353492,-1.70991339 2.9090761,1.3e-6 z"
           points="0,-4.004 0.89895,-1.2373 3.808,-1.2373 1.4545,0.47261 2.3535,3.2393 0,1.5294 -2.3535,3.2393 -1.4545,0.47261 -3.808,-1.2373 -0.89895,-1.2373 " />
        <polygon
           id="polygon214"
           transform="translate(41.167,7)"
           d="M 1.3084868e-6,-4.0040002 0.89895399,-1.237304 3.8080309,-1.2373029 1.4545381,0.47260808 2.3534912,3.239305 0,1.5293919 l -2.3534933,1.7099115 0.8989552,-2.76669531 -2.353492,-1.70991339 2.9090761,1.3e-6 z"
           points="0,-4.004 0.89895,-1.2373 3.808,-1.2373 1.4545,0.47261 2.3535,3.2393 0,1.5294 -2.3535,3.2393 -1.4545,0.47261 -3.808,-1.2373 -0.89895,-1.2373 " />
        <polygon
           id="polygon215"
           transform="translate(57.633,7)"
           d="M 1.3084868e-6,-4.0040002 0.89895399,-1.237304 3.8080309,-1.2373029 1.4545381,0.47260808 2.3534912,3.239305 0,1.5293919 l -2.3534933,1.7099115 0.8989552,-2.76669531 -2.353492,-1.70991339 2.9090761,1.3e-6 z"
           points="0,-4.004 0.89895,-1.2373 3.808,-1.2373 1.4545,0.47261 2.3535,3.2393 0,1.5294 -2.3535,3.2393 -1.4545,0.47261 -3.808,-1.2373 -0.89895,-1.2373 " />
        <polygon
           id="polygon216"
           transform="translate(74.1,7)"
           d="M 1.3084868e-6,-4.0040002 0.89895399,-1.237304 3.8080309,-1.2373029 1.4545381,0.47260808 2.3534912,3.239305 0,1.5293919 l -2.3534933,1.7099115 0.8989552,-2.76669531 -2.353492,-1.70991339 2.9090761,1.3e-6 z"
           points="0,-4.004 0.89895,-1.2373 3.808,-1.2373 1.4545,0.47261 2.3535,3.2393 0,1.5294 -2.3535,3.2393 -1.4545,0.47261 -3.808,-1.2373 -0.89895,-1.2373 " />
        <polygon
           id="polygon217"
           transform="translate(90.567,7)"
           d="M 1.3084868e-6,-4.0040002 0.89895399,-1.237304 3.8080309,-1.2373029 1.4545381,0.47260808 2.3534912,3.239305 0,1.5293919 l -2.3534933,1.7099115 0.8989552,-2.76669531 -2.353492,-1.70991339 2.9090761,1.3e-6 z"
           points="0,-4.004 0.89895,-1.2373 3.808,-1.2373 1.4545,0.47261 2.3535,3.2393 0,1.5294 -2.3535,3.2393 -1.4545,0.47261 -3.808,-1.2373 -0.89895,-1.2373 " />
      </g>
    </g>
  </g>
  <metadata
     id="metadata4">
    <rdf:RDF>
      <cc:Work
         rdf:about="">
        <dc:title>GR</dc:title>
      </cc:Work>
    </rdf:RDF>
  </metadata>
</svg>
