<svg xmlns="http://www.w3.org/2000/svg" id="Layer_1" data-name="Layer 1" version="1.1" viewBox="0 0 413.3 101.9"><defs><style>.cls-1,.cls-2{fill-rule:evenodd}.cls-1,.cls-2,.cls-3{stroke-width:0}.cls-1,.cls-3{fill:#050505}.cls-2{fill:#ffb202}</style></defs><path d="M42.1 44.2 2.5 28.5c-.3-.1-.6-.2-.9-.1-.3 0-.6.1-.8.3-.2.2-.4.4-.6.7s-.2.5-.2.8v28.3c0 .4.1.7.3 1 .2.3.5.5.8.7l39.6 15.6c.3.1.6.2.9.1s.6-.1.8-.3c.2-.2.4-.4.6-.7s.2-.6.2-.9V45.8c0-.4 0-.7-.3-1-.2-.3-.5-.5-.8-.7ZM42.1 79.3l-22.7-9c-.3-.1-.6-.1-.9-.1-.3 0-.6.1-.8.3-.2.2-.4.4-.6.7-.1.3-.2.6-.2.9v17.4c0 .4.1.7.3 1 .2.3.5.5.9.7l22.8 8.7c.3.1.6.2.9.1.3 0 .6-.1.8-.3.2-.2.4-.4.6-.7.1-.3.2-.6.2-.9V81c0-.4-.2-.7-.4-1-.2-.3-.5-.5-.9-.7ZM12.9 67.7 2.5 63.6c-.3-.1-.6-.2-.9-.1-.3 0-.6.1-.8.3-.2.2-.4.4-.6.7s-.2.5-.2.8v17.4c0 .4.1.7.3 1 .2.3.5.5.8.7l10.4 4.1c.3.1.6.2.9.1.3 0 .6-.1.8-.3.2-.2.4-.4.6-.7.1-.3.2-.6.2-.9V69.3c0-.4 0-.7-.3-1-.2-.3-.5-.5-.8-.7Z" class="cls-2"/><path d="M74.3 30.1 47.1 44.6c-.3.1-.6.4-.7.7-.2.3-.3.6-.3.9v52c0 .3 0 .6.3.9.2.3.4.5.7.7.3.2.6.2.9.3.3 0 .6 0 .9-.2l27.2-14.5c.3-.1.6-.4.7-.7.2-.3.3-.6.3-.9V31.7c0-.3 0-.6-.2-.9-.2-.3-.4-.5-.7-.7-.3-.2-.6-.2-.9-.3-.3 0-.6 0-.9.2ZM63.5 14.1 24.4.1c-.4-.2-.8-.2-1.2 0-.4.1-.7.3-.9.7L3 23.3c-.2.2-.3.5-.4.8v.8c0 .3.2.5.4.7s.4.4.7.5L43.3 42c.4.1.8.2 1.2 0 .4-.1.7-.3.9-.6l18.8-24.6c.2-.2.3-.5.4-.8v-.8c0-.3-.2-.5-.4-.7-.2-.2-.4-.4-.7-.5Z" class="cls-1"/><path d="M255.5 31.4v52.8h7.4v-20c0-7.9 5-12.2 10.8-12.2s8.3 3.2 8.3 9.1v23.1h7.4v-25c0-8.8-5.4-13.8-13.5-13.8s-10.6 2.9-13 7.2V31.4h-7.4ZM349.4 67.5v-3.7c0-11.8-6.3-18.4-16.6-18.4s-18.9 9.2-18.9 20.1 7.1 19.2 18.9 19.2c3.1 0 6.1-.6 8.8-1.9 2.7-1.3 5.1-3.3 7-5.8l-4.2-4.5a12.96 12.96 0 0 1-11 5.6c-6.6 0-11.2-3.5-12.1-10.6h28.1Zm-28.1-5.6c.9-6.3 4.8-10.2 11.2-10.2s9.5 3.7 9.5 10.2h-20.7ZM357.3 46.3v37.9h7.4V63.7c0-8.1 4.3-11.7 9.4-11.7s7.5 3.3 7.5 8.9v23.3h7.4V63.7c0-8.1 4.3-11.7 9.4-11.7s7.6 3.3 7.6 8.9v23.3h7.4V59.5c0-9-4.8-14.1-12.8-14.1a13.27 13.27 0 0 0-12.7 7.9c-1.7-5.1-5.8-7.9-11.8-7.9-2.4 0-4.8.5-6.9 1.8a12.3 12.3 0 0 0-4.7 5.4v-6.3h-7.2ZM113.3 31.4v52.8h7.4v-20c0-7.9 5-12.2 10.8-12.2s8.3 3.2 8.3 9.1v23.1h7.4v-25c0-8.8-5.4-13.8-13.5-13.8s-10.6 2.9-13 7.2V31.4h-7.4ZM190.5 67.5v-3.7c0-11.8-6.3-18.4-16.6-18.4S155 54.6 155 65.5s7.1 19.2 18.9 19.2c3.1 0 6.1-.6 8.8-1.9s5.1-3.3 7-5.8l-4.2-4.5a12.96 12.96 0 0 1-11 5.6c-6.6 0-11.2-3.5-12.1-10.6h28.1Zm-28.1-5.6c.9-6.3 4.8-10.2 11.2-10.2s9.5 3.7 9.5 10.2h-20.7ZM217.4 82.4l-1.9-5.7c-1.4.8-2.9 1.2-4.5 1.2-2.9 0-5.3-2.1-5.3-6V31.4h-7.4v41.4c0 7.7 5 11.9 11.1 11.9 2.8 0 5.6-.9 8-2.3ZM217.3 46.3v6.6h7.9v19.4c0 7.9 5.3 12.3 12.2 12.3 3.7 0 7.3-1.2 10.3-3.3l-2.1-5.4c-1.9 1.2-4 1.9-6.3 2-3.5 0-6.5-2-6.5-6.6V52.9h11.5v-6.6h-11.6V36.2h-7.5v10.1h-7.9ZM286.9 99.8c2.4 1.3 5.1 2.1 7.9 2.1 6.3 0 11.2-4.5 11.2-12.3V46.3h-7.4v43.3c0 3.5-2.1 5.6-5 5.6-1.6 0-3.1-.5-4.4-1.4l-2.3 6ZM302.2 28.9c-3.1 0-5.3 2.3-5.3 5.2s2.2 5.1 5.3 5.1 5.3-2.2 5.3-5.1-2.1-5.2-5.3-5.2Z" class="cls-3"/></svg>