<?xml version="1.0" encoding="UTF-8"?>
<svg xmlns="http://www.w3.org/2000/svg" xmlns:xlink="http://www.w3.org/1999/xlink" width="188px" height="83px" viewBox="0 0 188 83">
  <!-- Generator: Sketch 51.3 (57544) - http://www.bohemiancoding.com/sketch -->
  <title>icon-truck-speed</title>
  <desc>Created with Sketch.</desc>
  <defs/>
  <g id="Page-1" stroke="none" stroke-width="1" fill="none" fill-rule="evenodd">
    <g id="icon-truck-speed" transform="translate(-1.000000, -1.000000)" fill="#FFFFFF">
      <path d="M187.739979,45.1713053 L176.923979,22.5896211 C174.592189,17.7207789 169.596084,14.5761474 164.197663,14.5761474 L150.621558,14.5761474 L150.948611,12.9025684 C151.5124,10.0275158 150.767979,7.08267368 148.906926,4.82067368 C147.045874,2.55867368 144.298084,1.26277895 141.368295,1.26277895 L64.3494526,1.26277895 C56.7574526,1.26277895 50.2985053,6.43677895 48.6427158,13.8399368 L37.3806105,63.8789895 C36.6553474,67.1084632 37.4230316,70.4446737 39.4920842,73.0296211 C41.5597684,75.6145684 44.6455579,77.0979368 47.9571368,77.0979368 C49.9126105,77.0979368 51.4999789,75.5119368 51.4999789,73.5537263 C51.4999789,71.5968842 49.9126105,70.0095158 47.9571368,70.0095158 C46.8104,70.0095158 45.7416632,69.4963579 45.0273474,68.6014105 C44.3116632,67.7078316 44.0448211,66.5528842 44.2966105,65.4348842 L55.5587158,15.3917263 C56.4865053,11.2454105 60.1005053,8.34983158 64.3494526,8.34983158 L141.368295,8.34983158 C142.467137,8.34983158 143.134926,8.96151579 143.434611,9.32551579 C143.730189,9.68404211 144.191347,10.4435158 143.9984,11.5013053 L129.981663,67.3137263 C129.582084,68.9010947 128.160295,70.0095158 126.522295,70.0095158 L107.274084,70.0095158 C105.317242,70.0095158 103.729874,71.5968842 103.729874,73.5537263 C103.729874,75.5119368 105.317242,77.0979368 107.274084,77.0979368 L126.522295,77.0979368 C131.4144,77.0979368 135.663347,73.7849895 136.855242,69.0393053 L148.753663,21.6632 L164.197663,21.6632 C166.885242,21.6632 169.370295,23.2286737 170.532084,25.6521474 L179.552716,44.4857263 L151.573979,44.4857263 C149.617137,44.4857263 148.029768,46.0717263 148.029768,48.0285684 C148.029768,49.9867789 149.617137,51.5727789 151.573979,51.5727789 L181.625874,51.5727789 L178.707032,65.1133053 C178.095347,67.9500421 175.545979,70.0095158 172.643558,70.0095158 C170.686716,70.0095158 169.099347,71.5968842 169.099347,73.5537263 C169.099347,75.5119368 170.686716,77.0979368 172.643558,77.0979368 C178.861663,77.0979368 184.325768,72.6847789 185.636716,66.6076211 L188.659558,52.5826737 C189.163137,50.0948842 188.837453,47.4634105 187.739979,45.1713053" id="Fill-18"/>
      <path d="M99.8430105,51.9705789 C98.6894316,52.559 97.7985895,53.0146842 97.1048,53.3718421 L96.9104842,37.7307895 L107.600589,32.8496316 L107.710063,41.7361579 C107.710063,41.7361579 107.7388,45.0463684 107.752484,46.319 C107.755221,46.5475263 107.762063,46.7760526 107.768905,47.0004737 C107.775747,47.2413158 107.785326,47.5546842 107.783958,47.8146842 C106.225326,48.7123684 102.321221,50.7061579 99.8430105,51.9705789 Z M94.1955368,33.1274211 L84.7944842,29.1206842 L94.2803789,24.9825789 L103.949642,28.6732105 L94.1955368,33.1274211 Z M84.1335368,49.6839474 C82.7459579,48.9737368 81.6348,48.4058421 81.1462737,48.1595263 C81.0819579,48.1266842 81.0285895,48.0979474 80.9820632,48.0705789 C80.9834316,48.0199474 80.9834316,47.9693158 80.9820632,47.9200526 L80.9068,41.9291053 C80.9068,41.8524737 80.9026947,41.7772105 80.8944842,41.7033158 L80.7891158,33.1917368 L91.5969053,37.7992105 L91.7925895,53.5853158 C89.4156421,52.3879474 86.1040632,50.6924737 84.1335368,49.6839474 Z M112.191642,51.0824737 C113.168695,49.7879474 113.122168,48.2238421 113.082484,46.8444737 C113.077011,46.6487895 113.071537,46.4503684 113.0688,46.2533158 C113.052379,44.9875263 113.026379,41.6937368 113.026379,41.6814211 L112.867642,28.9373158 C112.864905,28.6827895 112.827958,28.4364737 112.775958,28.1942632 C112.770484,28.1655263 112.763642,28.1381579 112.7568,28.1094211 C112.473537,26.9120526 111.629221,25.9131053 110.441432,25.4601579 L95.9881684,19.9454211 C94.7990105,19.4924737 93.5017474,19.5212105 92.3399579,20.0302632 L77.6964842,26.4166842 C77.5637474,26.4741579 77.4392211,26.5453158 77.3160632,26.6164737 C76.5894316,26.8367895 75.9572211,27.3526842 75.6356421,28.1053158 C75.4385895,28.5664737 75.3920632,29.0508947 75.4577474,29.5147895 C75.4440632,29.6488947 75.4303789,29.783 75.4317474,29.9198421 L75.5850105,42.2014211 C75.5850105,42.2780526 75.5891158,42.3533158 75.5973263,42.4285789 L75.6671158,47.9857368 L75.6643789,48.1376316 C75.6370105,49.6196316 75.9626947,51.4998421 78.7556421,52.9079474 C79.2386947,53.1501579 80.3375368,53.7125789 81.7114316,54.4159474 C88.3099579,57.7945789 91.8008,59.5653158 92.5698526,59.8704737 C92.9803789,60.0360526 93.3703789,60.1332105 93.7425895,60.1879474 C93.9848,60.2604737 94.2352211,60.3111053 94.5006947,60.3111053 C94.5116421,60.3111053 94.5212211,60.3097368 94.5335368,60.3097368 C94.8852211,60.3056316 95.2177474,60.229 95.5229053,60.1017368 C96.4780632,59.8663684 97.2594316,59.3723684 97.8724842,58.9837368 C98.2474316,58.7524737 100.3808,57.6645789 102.261011,56.7053158 C111.1708,52.1553158 111.640168,51.8104737 112.191642,51.0824737 Z" id="Fill-20"/>
      <path d="M65.9465368,68.4585474 C61.8905368,68.4585474 58.6035895,71.7468632 58.6035895,75.8028632 C58.6035895,79.8588632 61.8905368,83.1471789 65.9465368,83.1471789 C70.0039053,83.1471789 73.2908526,79.8588632 73.2908526,75.8028632 C73.2908526,71.7468632 70.0039053,68.4585474 65.9465368,68.4585474" id="Fill-22"/>
      <path d="M88.7874,68.6175579 C84.7314,68.6175579 81.4430842,71.9058737 81.4430842,75.9618737 C81.4430842,80.0178737 84.7314,83.3061895 88.7874,83.3061895 C92.8434,83.3061895 96.1317158,80.0178737 96.1317158,75.9618737 C96.1317158,71.9058737 92.8434,68.6175579 88.7874,68.6175579" id="Fill-24"/>
      <path d="M151.574389,68.4585474 C147.517021,68.4585474 144.230074,71.7468632 144.230074,75.8028632 C144.230074,79.8588632 147.517021,83.1471789 151.574389,83.1471789 C155.630389,83.1471789 158.918705,79.8588632 158.918705,75.8028632 C158.918705,71.7468632 155.630389,68.4585474 151.574389,68.4585474" id="Fill-26"/>
      <path d="M39.2208632,18.7416211 C39.2208632,16.7847789 37.6348632,15.1974105 35.6766526,15.1974105 L4.70654737,15.1974105 C2.74970526,15.1974105 1.16233684,16.7847789 1.16233684,18.7416211 C1.16233684,20.6998316 2.74970526,22.2858316 4.70654737,22.2858316 L35.6766526,22.2858316 C37.6348632,22.2858316 39.2208632,20.6998316 39.2208632,18.7416211" id="Fill-28"/>
      <path d="M30.0628421,34.6181789 L9.91421053,34.6181789 C7.95873684,34.6181789 6.37136842,36.2041789 6.37136842,38.1623895 C6.37136842,40.1192316 7.95873684,41.7066 9.91421053,41.7066 L30.0628421,41.7066 C32.0210526,41.7066 33.6070526,40.1192316 33.6070526,38.1623895 C33.6070526,36.2041789 32.0210526,34.6181789 30.0628421,34.6181789" id="Fill-30"/>
      <path d="M26.0043789,54.0379895 L14.3276421,54.0379895 C12.3708,54.0379895 10.7834316,55.6239895 10.7834316,57.5822 C10.7834316,59.5404105 12.3708,61.1264105 14.3276421,61.1264105 L26.0043789,61.1264105 C27.9625895,61.1264105 29.5485895,59.5404105 29.5485895,57.5822 C29.5485895,55.6239895 27.9625895,54.0379895 26.0043789,54.0379895" id="Fill-32"/>
    </g>
  </g>
</svg>