<svg width="48" height="48" viewBox="0 0 48 48" fill="none" xmlns="http://www.w3.org/2000/svg">
<path d="M12.2 35.9871C12.2 37.1884 13.02 37.9888 14.25 37.9888H16.3V44.9968C16.3 46.599 17.735 48 19.375 48C21.015 48 22.45 46.599 22.45 44.9968V37.9888H26.55V44.9968C26.55 46.599 27.985 48 29.625 48C31.265 48 32.7 46.599 32.7 44.9968V37.9888H34.75C35.98 37.9888 36.8 37.1884 36.8 35.9871V15.9662H12.2V35.9871ZM7.075 15.9647C5.435 15.9647 4 17.3657 4 18.9679V32.9824C4 34.5846 5.435 35.9856 7.075 35.9856C8.715 35.9856 10.15 34.5846 10.15 32.9824V18.9679C10.15 17.3657 8.715 15.9647 7.075 15.9647V15.9647ZM41.925 15.9647C40.285 15.9647 38.85 17.3657 38.85 18.9679V32.9824C38.85 34.5846 40.285 35.9856 41.925 35.9856C43.565 35.9856 45 34.5846 45 32.9824V18.9679C45 17.3657 43.565 15.9647 41.925 15.9647V15.9647ZM31.675 4.35278L34.34 1.7505C34.75 1.34957 34.75 0.748927 34.34 0.349499C33.93 -0.0499284 33.315 -0.05143 32.905 0.349499L29.83 3.35271C28.395 2.35114 26.55 1.95171 24.5 1.95171C22.45 1.95171 20.605 2.35264 18.965 3.153L16.095 0.149785C15.685 -0.0499284 14.865 -0.0499284 14.455 0.149785C14.25 0.550714 14.25 1.35107 14.455 1.752L17.12 4.35429C14.25 6.55714 12.2 9.95979 12.2 13.9646H36.8C36.8 9.95979 34.75 6.35593 31.675 4.35429V4.35278ZM20.4 9.95828H18.35V7.95664H20.4V9.95828ZM30.65 9.95828H28.6V7.95664H30.65V9.95828Z" fill="#90A4AE"/>
</svg>
