<svg width="48" height="48" viewBox="0 0 48 48" fill="none" xmlns="http://www.w3.org/2000/svg">
<path fill-rule="evenodd" clip-rule="evenodd" d="M34.4629 0H13.4778C3.60592 0 0 3.60592 0 13.5074V34.4925C0 44.3644 3.60592 48 13.5074 48H34.4925C44.3644 48 48 44.394 48 34.4925V13.5074C47.9704 3.60592 44.3644 0 34.4629 0Z" fill="#94A4AD"/>
<path d="M9.48766 26.5123H6.62067V24H5.34973V30.2659H6.62067V27.7241H9.48766V30.2659H10.7586V24H9.48766V26.5123Z" fill="white"/>
<path d="M16.67 27.5764C16.67 28.5814 16.1675 29.1428 15.2512 29.1428C14.335 29.1428 13.803 28.5814 13.803 27.5468V24H12.532V27.5764C12.532 29.3497 13.5074 30.3547 15.2217 30.3547C16.936 30.3547 17.9409 29.3201 17.9409 27.5172V23.9704H16.67V27.5764Z" fill="white"/>
<path d="M31.3597 28.3153L29.9409 24H28.9064L27.4877 28.3153L26.0985 24H24.7389L26.9262 30.2659H27.9901L29.4089 26.1281L30.8276 30.2659H31.8915L34.0788 24H32.7488L31.3597 28.3153Z" fill="white"/>
<path d="M42.5911 24H41.3497V30.2659H42.5911V24Z" fill="white"/>
<path d="M36.3546 27.5468H38.6895V26.4237H36.3546V25.1231H39.7241V24H35.1133V30.2659H39.8424V29.1133H36.3546V27.5468Z" fill="white"/>
<path d="M21.3398 24L18.5911 30.2659H19.8916L20.4532 28.9655H23.3202L23.8817 30.2659H25.2118L22.4631 24H21.3398ZM20.9261 27.8129L21.8719 25.5664L22.8473 27.8129H20.9261Z" fill="white"/>
<path d="M30.8276 8.00983C30.8276 11.7931 27.7537 14.867 23.9704 14.867C20.1872 14.867 17.1133 11.7931 17.1133 8.00983H15.9901C15.9901 12.4138 19.5665 15.9901 23.9704 15.9901C28.3743 15.9901 31.9507 12.4138 31.9507 8.00983H30.8276Z" fill="white"/>
</svg>
