<?xml version="1.0" encoding="UTF-8" standalone="no"?>
<!-- Generator: Adobe Illustrator 17.1.0, SVG Export Plug-In . SVG Version: 6.00 Build 0)  -->

<svg
   xmlns:dc="http://purl.org/dc/elements/1.1/"
   xmlns:cc="http://creativecommons.org/ns#"
   xmlns:rdf="http://www.w3.org/1999/02/22-rdf-syntax-ns#"
   xmlns:svg="http://www.w3.org/2000/svg"
   xmlns="http://www.w3.org/2000/svg"
   xmlns:sodipodi="http://sodipodi.sourceforge.net/DTD/sodipodi-0.dtd"
   xmlns:inkscape="http://www.inkscape.org/namespaces/inkscape"
   version="1.1"
   id="Layer_4"
   x="0px"
   y="0px"
   viewBox="0 0 165 69"
   enable-background="new 0 0 165 111"
   xml:space="preserve"
   inkscape:version="0.91 r13725"
   sodipodi:docname="white-logo-kijiji.svg"
   width="165"
   height="69"><metadata
     id="metadata4309"><rdf:RDF><cc:Work
         rdf:about=""><dc:format>image/svg+xml</dc:format><dc:type
           rdf:resource="http://purl.org/dc/dcmitype/StillImage" /><dc:title></dc:title></cc:Work></rdf:RDF></metadata><defs
     id="defs4307" /><sodipodi:namedview
     pagecolor="#ffffff"
     bordercolor="#666666"
     borderopacity="1"
     objecttolerance="10"
     gridtolerance="10"
     guidetolerance="10"
     inkscape:pageopacity="0"
     inkscape:pageshadow="2"
     inkscape:window-width="1280"
     inkscape:window-height="909"
     id="namedview4305"
     showgrid="false"
     inkscape:zoom="4.6060606"
     inkscape:cx="87.167763"
     inkscape:cy="55.5"
     inkscape:window-x="0"
     inkscape:window-y="25"
     inkscape:window-maximized="1"
     inkscape:current-layer="Layer_4" /><g
     id="g4253"
     transform="translate(0,-2)"><g
       id="g4283"><g
         id="g4285"><path
           d="M 40,53.1 C 35.1,53.5 33.7,50 33.7,50 L 21.4,32.9 c 0.9,-0.7 5.2,-6 8.4,-9.9 3.2,-3.9 7.9,-3.8 7.9,-3.8 l 0,-2.6 c 0,0 -4.7,0.4 -7.8,1.1 -3.1,0.6 -8.5,0.8 -8.5,0.8 l 0.1,2.8 c 0,0 3.7,0 4.1,0 0.4,0 0,0.8 0,0.8 0,0 -0.2,0.3 -5.8,7 -3.1,3.6 -5.3,5 -6.7,5.5 l 0,-34 C 10.2,1.2 0.9,1.5 0.9,1.5 l 0,2.6 c 0,0 3.5,0 4.3,0.2 0.8,0.2 0.6,1.2 0.6,1.2 0,0 0.2,42.6 0,45.1 C 5.6,53.1 3.6,53 3.6,53 L 0,53.3 0,56 l 18.2,0 0,-2.6 c 0,0 -1.6,-0.1 -3.6,-0.3 -2,-0.2 -1.7,-2.4 -1.7,-2.4 l 0,-13.9 c 0.7,0.1 1.5,0.1 1.7,0.2 0.6,0.1 0.8,-0.1 2,1.5 2.8,3.6 12.7,18.9 12.7,18.9 3.3,-0.9 7.3,-1.3 10.4,-1.4 L 40,53.1 Z"
           id="path4287"
           style="fill:#ffffff;fill-opacity:1"
           inkscape:connector-curvature="0" /><path
           d="m 55.9,57.7 7.8,0.2 -0.1,-2.8 c 0,0 -1.2,0.1 -3,0 -1.8,-0.1 -1.5,-2 -1.5,-2 0,0 -0.1,-24.8 -0.1,-25.2 0,-0.4 0,-1.3 0.4,-1.7 C 59.7,26 64.6,26 64.6,26 l 0,-3 -17.9,0 0,3 c 0,0 4.5,-0.1 5.2,0.1 0.6,0.2 0.6,1.3 0.6,1.3 0,0 -0.1,24.2 -0.2,25.4 -0.1,1.2 -1,2.4 -4.9,2.3 l 0,2.8 c -0.1,0 5.6,-0.2 8.5,-0.2 z"
           id="path4289"
           style="fill:#ffffff;fill-opacity:1"
           inkscape:connector-curvature="0" /><path
           d="m 91.9,15 0,3.4 -3.6,0.2 c 0,0 -1.9,-0.2 -1.9,1.7 0,0.9 0,28.5 0,28.5 0,0 0.7,15.7 -10.7,19.8 0,0 -1.2,0.5 -2.1,0.8 -0.3,0.1 -0.7,0.2 -1.1,0.2 0,0 0,0 0,0 -0.1,0 -0.3,0 -0.3,0 0,0 0,0 0,0 -1.3,-0.2 -2.3,-1.4 -2.3,-2.8 0,-1.6 1.2,-2.9 2.7,-2.9 1,0 1.9,0.7 2.4,1.6 0.1,-0.1 0.3,-0.2 0.4,-0.3 1.6,-1.1 4.5,-3.1 4.5,-15.5 l 0,-0.1 c 0,0 0,-28.2 0,-29.1 0,-1.8 -2.1,-1.9 -2.1,-1.9 L 74,18.4 74,15 91.9,15 Z"
           id="path4291"
           style="fill:#ffffff;fill-opacity:1"
           inkscape:connector-curvature="0" /><path
           d="m 108.9,57.7 7.8,0.2 -0.1,-2.8 c 0,0 -1.2,0.1 -3,0 -1.8,-0.1 -1.5,-2 -1.5,-2 0,0 -0.2,-24.7 -0.2,-25.2 0,-0.4 0,-1.3 0.4,-1.7 0.3,-0.2 5.2,-0.2 5.2,-0.2 l 0,-3 -17.9,0 0,3 c 0,0 4.5,-0.1 5.2,0.1 0.6,0.2 0.6,1.3 0.6,1.3 0,0 -0.1,24.2 -0.2,25.4 -0.1,1.2 -1,2.4 -4.9,2.3 l 0,2.8 c -0.1,0 5.6,-0.2 8.6,-0.2 z"
           id="path4293"
           style="fill:#ffffff;fill-opacity:1"
           inkscape:connector-curvature="0" /><path
           d="m 156.3,57.7 7.8,0.2 -0.1,-2.8 c 0,0 -1.2,0.1 -3,0 -1.8,-0.1 -1.5,-2 -1.5,-2 0,0 -0.2,-24.7 -0.2,-25.2 0,-0.4 0,-1.3 0.4,-1.7 0.3,-0.2 5.2,-0.2 5.2,-0.2 l 0,-3 -17.9,0 0,3 c 0,0 4.5,-0.1 5.2,0.1 0.6,0.2 0.6,1.3 0.6,1.3 0,0 -0.1,24.2 -0.2,25.4 -0.1,1.2 -1,2.4 -4.9,2.3 l 0,2.8 c 0,0 5.7,-0.2 8.6,-0.2 z"
           id="path4295"
           style="fill:#ffffff;fill-opacity:1"
           inkscape:connector-curvature="0" /><path
           d="m 141.6,15 0,3.4 -3.6,0.2 c 0,0 -1.9,-0.2 -1.9,1.7 0,0.9 0,28.5 0,28.5 0,0 0.7,15.7 -10.7,19.8 0,0 -1.2,0.5 -2.1,0.8 -0.3,0.1 -0.7,0.2 -1.1,0.2 0,0 0,0 0,0 -0.1,0 -0.3,0 -0.3,0 0,0 0,0 0,0 -1.3,-0.2 -2.3,-1.4 -2.3,-2.8 0,-1.6 1.2,-2.9 2.7,-2.9 1,0 1.9,0.7 2.4,1.6 0.1,-0.1 0.3,-0.2 0.4,-0.3 1.6,-1.1 4.5,-3.1 4.5,-15.5 l 0,-0.1 c 0,0 0,-28.2 0,-29.1 0,-1.8 -2.1,-1.9 -2.1,-1.9 l -3.6,-0.2 0,-3.4 17.7,0 z"
           id="path4297"
           style="fill:#ffffff;fill-opacity:1"
           inkscape:connector-curvature="0" /><path
           d="m 108.8,6.4 c -3.5,0 -6.4,2.9 -6.4,6.4 0,3.5 2.9,6.4 6.4,6.4 3.5,0 6.4,-2.9 6.4,-6.4 0,-3.5 -2.9,-6.4 -6.4,-6.4 z m 0,9.9 c -1.9,0 -3.5,-1.6 -3.5,-3.5 0,-1.9 1.6,-3.5 3.5,-3.5 1.9,0 3.5,1.6 3.5,3.5 -0.1,2 -1.6,3.5 -3.5,3.5 z"
           id="path4299"
           style="fill:#ffffff;fill-opacity:1"
           inkscape:connector-curvature="0" /><path
           d="m 56,6.7 c -3.5,0 -6.4,2.9 -6.4,6.4 0,3.5 2.9,6.4 6.4,6.4 3.5,0 6.4,-2.9 6.4,-6.4 0,-3.5 -2.8,-6.4 -6.4,-6.4 z m 0,9.8 c -1.9,0 -3.5,-1.6 -3.5,-3.5 0,-1.9 1.6,-3.5 3.5,-3.5 1.9,0 3.5,1.6 3.5,3.5 0,2 -1.6,3.5 -3.5,3.5 z"
           id="path4301"
           style="fill:#ffffff;fill-opacity:1"
           inkscape:connector-curvature="0" /><path
           d="m 156.2,6.7 c -3.5,0 -6.4,2.9 -6.4,6.4 0,3.5 2.9,6.4 6.4,6.4 3.5,0 6.4,-2.9 6.4,-6.4 0,-3.5 -2.8,-6.4 -6.4,-6.4 z m 0,9.9 c -1.9,0 -3.5,-1.6 -3.5,-3.5 0,-1.9 1.6,-3.5 3.5,-3.5 1.9,0 3.5,1.6 3.5,3.5 0,2 -1.6,3.5 -3.5,3.5 z"
           id="path4303"
           style="fill:#ffffff;fill-opacity:1"
           inkscape:connector-curvature="0" /></g></g></g></svg>