<svg xmlns="http://www.w3.org/2000/svg" width="105" height="40" viewBox="0 0 105 40"><style>.a{fill:#FFF;}.b{fill:#FCCE2B;}</style><title>  quoka_logo_header</title><desc>  Created with Sketch.</desc><g fill="none"><path d="M0.2 19.7C0.2 10.9 21.6 3.8 48.1 3.8 74.5 3.8 95.9 10.9 95.9 19.7 95.9 28.5 74.5 35.6 48.1 35.6 21.6 35.6 0.2 28.5 0.2 19.7" class="b"/><path d="M10 20C10 13 29.3 7.3 53.1 7.3 77 7.3 96.3 13 96.3 20 96.3 27 77 32.7 53.1 32.7 29.3 32.7 10 27 10 20" fill="#2C97DE"/><g transform="translate(17.569721 14.583333)" class="a"><path d="M8.1 11.5L6.9 10.1C6.3 10.4 5.6 10.6 4.7 10.6 2 10.6 0.3 9 0.3 6.3 0.3 3.1 2.4 0.3 5.7 0.3 8.4 0.3 10.1 1.8 10.1 4.5 10.1 6.4 9.5 8.2 8.2 9.3L9.2 10.5 8.1 11.5 8.1 11.5ZM6 6.8L6.9 7.8C7.6 7 8 5.8 8 4.7 8 3.3 7.4 2.1 5.8 2.1 3.6 2.1 2.6 4.4 2.6 6.3 2.6 7.6 3.2 8.8 4.8 8.8 5.1 8.8 5.4 8.8 5.6 8.6L4.9 7.8 6 6.8 6 6.8Z"/><path d="M19.7 6.3C19.2 9.1 18.1 10.6 15 10.6 13.1 10.6 11.1 9.8 11.1 7.7 11.1 7.2 11.2 6.7 11.3 6.2L12.5 0.5 14.7 0.5 13.5 6.3C13.4 6.6 13.3 7.2 13.3 7.5 13.3 8 13.6 8.8 15.1 8.8 16.9 8.8 17.2 7.9 17.5 6.4L18.7 0.6 20.9 0.6 19.7 6.3 19.7 6.3Z"/><path d="M26.6 0.3C29.3 0.3 31 1.8 31 4.5 31 7.8 29.1 10.6 25.6 10.6 22.8 10.6 21.2 9 21.2 6.3 21.2 3.1 23.3 0.3 26.6 0.3L26.6 0.3ZM25.6 8.8C27.8 8.8 28.8 6.5 28.8 4.7 28.8 3.3 28.2 2.1 26.6 2.1 24.4 2.1 23.4 4.4 23.4 6.3 23.4 7.6 24.1 8.8 25.6 8.8L25.6 8.8Z"/><polygon points="33.5 0.5 35.6 0.5 34.8 4.7 34.8 4.7 39.3 0.5 42.2 0.5 37.4 4.6 40.4 10.4 38 10.4 35.7 6 34.2 7.3 33.5 10.4 31.4 10.4"/><path d="M46.7 0.5L48.9 0.5 50.5 10.4 48.4 10.4 48 8.2 44.3 8.2 43.1 10.4 40.8 10.4 46.7 0.5 46.7 0.5ZM45.3 6.6L47.9 6.6 47.4 2.7 47.4 2.7 45.3 6.6 45.3 6.6Z"/><polygon points="52.2 8.3 54.4 8.3 53.9 10.4 51.7 10.4"/><path d="M60.6 9.5L60.6 9.5C60.2 10.3 59.3 10.6 58.4 10.6 56.7 10.6 55.7 9.5 55.7 7.8 55.7 5.5 57 3.1 59.6 3.1 60.4 3.1 61.3 3.5 61.6 4.2L61.7 4.2 62.5 0.5 64.4 0.5 62.3 10.4 60.4 10.4 60.6 9.5 60.6 9.5ZM57.7 7.5C57.7 8.3 58.1 9.1 59.1 9.1 60.5 9.1 61.2 7.3 61.2 6.1 61.2 5.2 60.8 4.5 59.8 4.5 58.4 4.5 57.7 6.3 57.7 7.5L57.7 7.5Z"/><path d="M66.1 7.3L66.1 7.7C66.1 8.5 66.6 9.1 67.6 9.1 68.4 9.1 68.8 8.5 69.1 8.1L71.1 8.1C70.4 9.7 69.4 10.6 67.4 10.6 65.4 10.6 64.2 9.5 64.2 7.5 64.2 5.2 65.7 3.1 68.1 3.1 70.1 3.1 71.5 4.1 71.5 6.2 71.5 6.6 71.4 7 71.3 7.3L66.1 7.3 66.1 7.3ZM69.6 6C69.6 5.3 69.4 4.5 68.2 4.5 67.1 4.5 66.6 5.3 66.3 6L69.6 6 69.6 6Z"/></g><path d="M0.9 19.8C0.9 9.4 24 0.9 52.5 0.9 80.9 0.9 104 9.4 104 19.8 104 30.3 80.9 38.8 52.5 38.8 24 38.8 0.9 30.3 0.9 19.8L0.9 19.8ZM52.5 39.6C66.4 39.6 79.5 37.6 89.4 33.9 99.4 30.2 104.9 25.2 104.9 19.8 104.9 14.4 99.4 9.4 89.4 5.7 79.5 2 66.4 0 52.5 0 38.5 0 25.4 2 15.5 5.7 5.5 9.5 0 14.5 0 19.8 0 25.2 5.5 30.2 15.5 34 25.4 37.6 38.5 39.6 52.5 39.6L52.5 39.6Z" class="b"/></g></svg>