<svg xmlns="http://www.w3.org/2000/svg" width="24" height="24" viewBox="0 0 24 24"><path d="M19.496 7.39c.069-.022.16.022.25.143l4.075 4.052c.239.242.239.608 0 .788l-4.076 4.114c-.09.121-.18.15-.249.114-.068-.037-.111-.143-.111-.297v-8.65c0-.15.043-.242.111-.264zM11.859 0h.282l.272.12 4.103 4.338c.177.247.117.435-.176.435h-1.7c-.294 0-.526.248-.526.56v3.219c0 .311-.237.559-.59.559h-2.988a.544.544 0 01-.53-.56V5.453c0-.311-.232-.559-.529-.559H7.66c-.293 0-.353-.188-.176-.435L11.59.12l.268-.12zM4.496 7.4c.074.035.12.139.12.29v8.646c0 .15-.046.24-.12.269-.07.028-.172 0-.292-.09l-4.03-4.147c-.232-.176-.232-.535 0-.772l4.03-4.086c.12-.118.222-.147.292-.11zm6.009 7.37h3.05c.36 0 .601.242.601.547v3.34c0 .364.238.606.537.606h1.616c.299 0 .418.18.18.364l-4.068 4.19A.602.602 0 0112 24a.588.588 0 01-.418-.184l-4.068-4.189c-.242-.184-.123-.364.176-.364h1.735c.303 0 .54-.242.54-.607v-3.339c0-.305.242-.548.54-.548z" fill="#ED1C24" fill-rule="evenodd"/></svg>