<svg xmlns="http://www.w3.org/2000/svg" width="12" height="18" viewBox="0 0 12 18"><path d="M11.478 10.334l-5.784-1.35c-1.723-.4-2.804-2.166-2.414-3.942.39-1.777 2.104-2.89 3.828-2.489 1.724.402 2.805 2.168 2.415 3.944a3.285 3.285 0 01-1.417 2.062l-.002.002a.084.084 0 00.027.148l2.573.6a.16.16 0 00.163-.062A5.886 5.886 0 0012 5.769C12 2.698 9.671.188 6.734.01L6.495.002A6.234 6.234 0 002.73 1.19c-2.896 2.09-3.6 6.202-1.572 9.186l5.145 7.572c.022.031.057.051.097.051s.075-.02.097-.051l5.053-7.426a.127.127 0 00.02-.07.124.124 0 00-.092-.12" fill="#FABC26" fill-rule="nonzero"/></svg>