<svg width="61" height="62" viewBox="0 0 61 62" fill="none" xmlns="http://www.w3.org/2000/svg">
<path fill-rule="evenodd" clip-rule="evenodd" d="M44.9975 56.9473C30.346 64.6376 12.0947 61.9473 4.16844 46.1539C-3.64077 30.5931 -0.625991 12.3024 15.0762 5.12209C30.1205 -1.75704 46.4391 -1.86821 56.0636 16.1923C65.5583 34.0071 59.6146 49.2756 44.9975 56.9473Z" fill="#20C3F3"/>
<path fill-rule="evenodd" clip-rule="evenodd" d="M26.3492 28.5029H16.9898C16.37 28.5029 15.8815 27.9604 15.9429 27.338C16.4836 21.8518 20.8065 17.4884 26.2419 16.9428C26.8586 16.8807 27.3961 17.3749 27.3961 17.9994V27.4463C27.3961 28.0298 26.9273 28.5029 26.3492 28.5029ZM36.826 28.6417C37.2229 25.4013 39.7063 22.8138 42.8781 22.2912C43.501 22.1882 44.0625 22.7013 44.0625 23.3384C44.0625 23.8589 43.6823 24.2858 43.175 24.373C40.7208 24.7988 38.8542 26.9563 38.8542 29.5543C38.8542 33.2101 37.1583 36.4547 34.5292 38.5743C35.6656 39.1252 36.4583 40.2891 36.4583 41.6454C36.4583 43.5296 34.9396 45.0625 33.0729 45.0625C31.2063 45.0625 29.6875 43.5296 29.6875 41.6454C29.6875 41.3721 29.7281 41.1103 29.7875 40.8558C29.0083 41.0262 28.2 41.1197 27.3698 41.1197C26.5594 41.1197 25.7708 41.0314 25.0083 40.8706C25.0656 41.1208 25.1042 41.3784 25.1042 41.6454C25.1042 43.5296 23.5854 45.0625 21.7188 45.0625C19.8521 45.0625 18.3333 43.5296 18.3333 41.6454C18.3333 40.2997 19.1146 39.1452 20.2365 38.588C17.8761 36.6975 16.2584 33.9061 15.9427 30.7161C15.8813 30.0958 16.3698 29.5543 16.9875 29.5543H35.8C36.3219 29.5543 36.7625 29.1643 36.826 28.6417ZM34.8958 41.6454C34.8958 42.66 34.0781 43.4854 33.0729 43.4854C32.0677 43.4854 31.25 42.66 31.25 41.6454C31.25 40.6308 32.0677 39.8055 33.0729 39.8055C34.0781 39.8055 34.8958 40.6308 34.8958 41.6454ZM19.8958 41.6454C19.8958 42.66 20.7136 43.4854 21.7188 43.4854C22.7229 43.4854 23.5417 42.66 23.5417 41.6454C23.5417 40.6308 22.7229 39.8055 21.7188 39.8055C20.7136 39.8055 19.8958 40.6308 19.8958 41.6454Z" fill="white"/>
</svg>
