<svg xmlns="http://www.w3.org/2000/svg" xmlns:xlink="http://www.w3.org/1999/xlink" version="1.1" width="61" height="62" viewBox="0 0 61 62">
<defs>
<clipPath id="clip_0">
<path transform="matrix(1,0,0,-1,0,62)" d="M0 62H61V0H0Z"/>
</clipPath>
</defs>
<g id="layer_1" data-name="Layer 1">
<g clip-path="url(#clip_0)">
<path transform="matrix(1,0,0,-1,16,5.0999987)" d="M0 0C14.7 7.7 32.9 5 40.8-10.8 48.6-26.4 45.6-44.7 29.9-51.8 14.9-58.7-1.5-58.8-11.1-40.7-20.6-22.9-14.6-7.6 0 0" fill="#c6a82e" fill-rule="evenodd"/>
<path transform="matrix(1,0,0,-1,17.6,41.3)" d="M0 0 14.4-2.3 26 0V-7.6L14.4-10 0-7.6Z" fill="#ffffff" fill-rule="evenodd"/>
<path transform="matrix(1,0,0,-1,17.6,40.5)" d="M0 0 14.4-2.4 26-.1 20.3 .6C19.8 .5 19.4 .4 18.9 .3 17.1 0 15.1 0 13.2 0 11.3 0 9.4 .1 7.5 .3 6.9 .4 6.3 .5 5.7 .7H5.6L0 0C0 0 0 0 0 0" fill="#ffffff" fill-rule="evenodd"/>
<path transform="matrix(1,0,0,-1,29.5,34.1)" d="M0 0C2.2 .4 4.9 0 7.7 .1 8 .1 8.5 .4 8.5 .7V3C3.6 6.4 .3 7-2.6 7.1-2.4 7.3-2.2 7.5-2 7.8-1.1 8.9-.6 10.2 .1 11.4 .7 12.5 1.5 13.5 2 14.7 2.8 12.2 5.2 9.1 10.7 4.8 10.8 4.7 10.8 4.4 10.9 4.3V.5C10.9-.6 9.8-1.6 8.1-1.3 5.2-.8 2.2-.3 .4-.8 .4-.5 .2-.2 0 0M14.1-15.6 2.5-18-11.9-15.6-15.4-17.4 2.5-20.3 17.4-17.3ZM1.3-3.1C5.7-3.1 9.2-3.6 9.2-4.2V-4.7C9.2-5.3 5.7-5.8 1.3-5.8-3.1-5.8-6.6-5.3-6.6-4.7V-4.2C-6.6-3.6-3-3.1 1.3-3.1" fill="#ffffff" fill-rule="evenodd"/>
<path transform="matrix(1,0,0,-1,30,7.700001)" d="M0 0C.6-.4 .8-1.3 1.1-2.1 1.5-2.8 2.1-3.2 2.2-4.2 2.3-5.2 1.9-6.5 1.6-7.7 1.4-8.9 1.5-9.9 1-11.1 .5-12.4-.3-13.5-1-14.7-1.7-15.9-2.2-17.1-3-18.2-3.9-19.3-4.8-19.8-5.8-20.5-6.7-21.3-7.6-22.3-8.5-22.7-9.4-23.1-10.1-22.8-10.9-22.9-11.7-22.9-12.6-23.4-13.2-23-13.8-22.6-14-21.7-14.3-20.9-14.7-20.2-15.3-19.8-15.4-18.8-15.5-17.8-15-16.5-14.8-15.3-14.6-14.1-14.7-13.1-14.2-11.9-13.7-10.6-12.9-9.5-12.1-8.3-11.4-7.1-10.9-5.9-10.1-4.8-9.2-3.7-8.3-3.2-7.3-2.5-6.4-1.7-5.5-.7-4.6-.3-3.7 .1-3-.2-2.2-.1-1.5-.1-.7 .3 0 0M10.5-27.2V-29.4L10-31V-32.6H8.9V-29.8C8.9-29.6 9-29.5 9.2-29.5H9.7V-28.1C10-27.8 10.3-27.5 10.5-27.2M-2.3-29.6C-1.2-29.6-.3-28.7-.3-27.6-.3-26.5-1.2-25.6-2.3-25.6-3.4-25.6-4.3-26.5-4.3-27.6-4.3-28.7-3.4-29.6-2.3-29.6" fill="#ffffff" fill-rule="evenodd"/>
</g>
</g>
</svg>
