<svg width="60" height="60" viewBox="0 0 60 60" fill="none" xmlns="http://www.w3.org/2000/svg">
<path fill-rule="evenodd" clip-rule="evenodd" d="M59.9696 29.9856C59.3039 46.5193 47.8483 60.9802 30.2078 59.9479C12.8271 58.9305 -1.5057 47.1742 0.127009 29.9856C1.69166 13.5173 9.75469 -0.670614 30.2078 0.0245128C50.3832 0.709273 60.6343 13.4909 59.9696 29.9856Z" fill="#004BBE"/>
<path fill-rule="evenodd" clip-rule="evenodd" d="M46.8719 31.1467V34.3763C46.8719 34.3807 46.8727 34.3849 46.8735 34.3889C46.8743 34.3927 46.875 34.3964 46.875 34.4001V39.3388C46.875 40.3902 45.9516 41.25 44.8248 41.25H42.7838C41.657 41.25 40.7336 40.3902 40.7336 39.3388V37.9966H19.2664V39.3388C19.2664 40.3902 18.343 41.25 17.2162 41.25H15.1752C14.0484 41.25 13.125 40.3902 13.125 39.3388V34.4001C13.125 34.3964 13.1257 34.3927 13.1265 34.3889C13.1273 34.3849 13.1281 34.3807 13.1281 34.3763V31.1467C13.1281 30.672 13.3234 30.2412 13.6332 29.9066H13.6035L19.111 20.7127C19.8359 19.5011 21.2082 18.75 22.697 18.75H37.2979C38.7887 18.75 40.163 19.504 40.888 20.7194L46.3545 29.8923C46.6725 30.2297 46.8719 30.6654 46.8719 31.1467ZM21.0715 22.608C21.4273 21.9932 22.1165 21.61 22.866 21.61H37.0466C37.7972 21.61 38.4874 21.9951 38.8432 22.6119L41.7646 27.6811H18.1306L21.0715 22.608ZM16.1971 32.424C16.1971 33.4773 17.1122 34.3305 18.2421 34.3305C19.372 34.3305 20.2872 33.4773 20.2872 32.424C20.2872 31.3707 19.372 30.5176 18.2421 30.5176C17.1122 30.5176 16.1971 31.3707 16.1971 32.424ZM38.6916 32.424C38.6916 33.4773 39.6067 34.3305 40.7366 34.3305C41.8665 34.3305 42.7817 33.4773 42.7817 32.424C42.7817 31.3707 41.8665 30.5176 40.7366 30.5176C39.6067 30.5176 38.6916 31.3707 38.6916 32.424Z" fill="white"/>
</svg>
