<svg width="62" height="62" viewBox="0 0 62 62" fill="none" xmlns="http://www.w3.org/2000/svg">
<path fill-rule="evenodd" clip-rule="evenodd" d="M9.81831 52.2019C-1.40199 40.0401 -3.52714 21.7143 9.67658 9.97056C22.686 -1.6 41.1337 -3.42192 52.1334 9.88677C62.6719 22.638 67.0029 38.3718 52.0488 52.3428C37.2984 66.1248 21.0118 64.3354 9.81831 52.2019Z" fill="#327FB6"/>
<g clip-path="url(#clip0_28_1896)">
<path d="M26.3426 38.29C26.3426 38.7951 26.184 39.2888 25.8869 39.7087C25.5898 40.1286 25.1675 40.4559 24.6734 40.6492C24.1793 40.8425 23.6356 40.8931 23.1111 40.7945C22.5865 40.696 22.1047 40.4528 21.7266 40.0957C21.3484 39.7386 21.0909 39.2835 20.9865 38.7882C20.8822 38.2929 20.9357 37.7794 21.1404 37.3128C21.3451 36.8462 21.6916 36.4474 22.1363 36.1668C22.581 35.8862 23.1038 35.7365 23.6386 35.7365C24.3557 35.7365 25.0435 36.0055 25.5506 36.4844C26.0577 36.9633 26.3426 37.6128 26.3426 38.29Z" fill="white"/>
<path d="M41.1546 38.29C41.1546 38.7951 40.996 39.2888 40.6989 39.7087C40.4018 40.1286 39.9795 40.4559 39.4854 40.6492C38.9913 40.8425 38.4476 40.8931 37.9231 40.7945C37.3985 40.696 36.9167 40.4528 36.5386 40.0957C36.1604 39.7386 35.9029 39.2835 35.7985 38.7882C35.6942 38.2929 35.7478 37.7794 35.9524 37.3128C36.1571 36.8462 36.5037 36.4474 36.9483 36.1668C37.393 35.8862 37.9158 35.7365 38.4506 35.7365C38.8057 35.7365 39.1573 35.8025 39.4854 35.9308C39.8134 36.0592 40.1115 36.2473 40.3626 36.4844C40.6137 36.7215 40.8129 37.003 40.9488 37.3128C41.0847 37.6226 41.1546 37.9547 41.1546 38.29Z" fill="white"/>
<path d="M44.4467 31.7958L38.9802 25.5787C38.9213 25.523 38.8628 25.4678 38.745 25.4678H35.1592C35.1288 25.4658 35.1002 25.4535 35.0786 25.4331C35.057 25.4128 35.044 25.3857 35.0419 25.357V19.9724C35.1003 19.8059 34.9829 19.7502 34.8655 19.7502H17.2322C17.193 19.748 17.1537 19.7537 17.1169 19.7669C17.0801 19.78 17.0468 19.8004 17.019 19.8267C16.9912 19.8529 16.9696 19.8845 16.9556 19.9192C16.9416 19.9539 16.9356 19.991 16.938 20.0281V38.0682C16.942 38.1258 16.9681 38.1801 17.0114 38.2209C17.0547 38.2617 17.1122 38.2862 17.1733 38.2899H18.9956C19.113 38.2899 19.1719 38.2347 19.1719 38.1234C19.2304 37.2356 19.5246 36.3473 20.171 35.5703C21.288 34.2933 23.6388 33.7385 25.2848 34.3489C27.0482 35.0151 28.0473 36.5138 28.1062 38.1234C28.1062 38.2341 28.165 38.2896 28.2826 38.2899H33.808C33.9256 38.2899 33.9843 38.2344 33.9843 38.1234C34.0433 37.0134 34.5133 35.9029 35.5714 35.0702C36.9231 33.9602 38.9218 33.738 40.5088 34.515C42.0369 35.2924 42.9186 36.6798 42.9776 38.1234C42.9776 38.2341 43.0363 38.2896 43.1539 38.2899H44.3883C44.4494 38.2862 44.507 38.2616 44.5503 38.2207C44.5936 38.1798 44.6196 38.1255 44.6236 38.0677V32.0732C44.5651 31.9624 44.5062 31.851 44.4472 31.7958H44.4467ZM42.6249 32.4063H35.3361C35.3056 32.4044 35.2768 32.3921 35.2551 32.3717C35.2334 32.3514 35.2203 32.3242 35.2182 32.2954V27.0774C35.2203 27.0486 35.2334 27.0215 35.2551 27.0011C35.2768 26.9807 35.3056 26.9684 35.3361 26.9666H38.1575C38.2159 26.9666 38.2159 26.9666 38.2749 27.0222L42.7423 32.2402C42.7423 32.2954 42.6833 32.4063 42.6244 32.4063H42.6249Z" fill="white"/>
</g>
<defs>
<clipPath id="clip0_28_1896">
<rect width="27.6855" height="21.0938" fill="white" transform="translate(16.9375 19.75)"/>
</clipPath>
</defs>
</svg>
