<svg width="60" height="60" viewBox="0 0 60 60" fill="none" xmlns="http://www.w3.org/2000/svg">
<path fill-rule="evenodd" clip-rule="evenodd" d="M30.0144 59.9696C13.4807 59.3038 -0.98025 47.8483 0.052096 30.2078C1.06954 12.8271 12.8258 -1.5057 30.0144 0.127008C46.4827 1.69166 60.6706 9.75468 59.9755 30.2078C59.2907 50.3832 46.5091 60.6343 30.0144 59.9696Z" fill="#6BCEBB"/>
<g clip-path="url(#clip0_28_1910)">
<path d="M44.9531 37.3828H32.5781C32.4414 37.3828 32.3102 37.4384 32.2135 37.5373C32.1168 37.6362 32.0625 37.7703 32.0625 37.9102V38.4375H27.9375V37.9102C27.9375 37.7703 27.8832 37.6362 27.7865 37.5373C27.6898 37.4384 27.5586 37.3828 27.4219 37.3828H15.0469C14.9101 37.3828 14.779 37.4384 14.6823 37.5373C14.5856 37.6362 14.5312 37.7703 14.5312 37.9102V40.0195C14.5312 40.3658 14.5979 40.7087 14.7275 41.0286C14.8571 41.3485 15.047 41.6391 15.2864 41.884C15.5258 42.1288 15.81 42.323 16.1228 42.4555C16.4356 42.588 16.7708 42.6562 17.1094 42.6562H42.8906C43.2292 42.6562 43.5644 42.588 43.8772 42.4555C44.19 42.323 44.4742 42.1288 44.7136 41.884C44.953 41.6391 45.1429 41.3485 45.2725 41.0286C45.4021 40.7087 45.4688 40.3658 45.4688 40.0195V37.9102C45.4688 37.7703 45.4144 37.6362 45.3177 37.5373C45.221 37.4384 45.0899 37.3828 44.9531 37.3828Z" fill="white"/>
<path d="M16.0781 36.3281H43.9219C44.0586 36.3281 44.1898 36.2726 44.2865 36.1737C44.3832 36.0748 44.4375 35.9406 44.4375 35.8008V19.9805C44.4375 19.2812 44.1659 18.6105 43.6824 18.116C43.1989 17.6215 42.5431 17.3438 41.8594 17.3438H18.1406C17.4569 17.3438 16.8011 17.6215 16.3176 18.116C15.8341 18.6105 15.5625 19.2812 15.5625 19.9805V35.8008C15.5625 35.9406 15.6168 36.0748 15.7135 36.1737C15.8102 36.2726 15.9414 36.3281 16.0781 36.3281ZM17.625 19.4531H42.375V34.2188H17.625V19.4531Z" fill="white"/>
</g>
<defs>
<clipPath id="clip0_28_1910">
<rect width="30.9375" height="25.3125" fill="white" transform="translate(14.5312 17.3438)"/>
</clipPath>
</defs>
</svg>
