<svg width="62" height="62" viewBox="0 0 62 62" fill="none" xmlns="http://www.w3.org/2000/svg">
<path fill-rule="evenodd" clip-rule="evenodd" d="M52.2019 52.1816C40.0401 63.4019 21.7143 65.527 9.97056 52.3233C-1.6 39.3139 -3.42192 20.8661 9.88677 9.86645C22.638 -0.672032 38.3718 -5.00298 52.3428 9.95107C66.1248 24.7014 64.3354 40.9881 52.2019 52.1816Z" fill="#FFD200"/>
<path fill-rule="evenodd" clip-rule="evenodd" d="M36.1326 29.3828H25.1639V29.1771C25.1639 26.7693 23.2063 24.8125 20.7983 24.8125H20.5936V22.9506C20.5936 22.0157 21.3959 21.1562 22.2544 21.1562H38.9452C39.8315 21.1562 40.7029 22.0439 40.7029 22.9506V24.8125H40.4022C38.0043 24.8125 36.1326 26.7582 36.1326 29.1771V29.3828ZM40.4024 26.6406H41.725C43.1263 26.6406 44.3594 27.7768 44.3594 29.1771V36.6149C44.3594 37.1167 43.8557 37.6094 43.353 37.6094H42.5313V38.6432C42.5313 39.145 42.162 39.4375 41.6592 39.4375H39.6501C39.1483 39.4375 38.875 39.145 38.875 38.6432V37.6094H22.4219V38.6432C22.4219 39.145 22.0526 39.4375 21.5499 39.4375H19.5408C19.0389 39.4375 18.7656 39.145 18.7656 38.6432V37.6094H17.847C17.3443 37.6094 16.9375 37.1167 16.9375 36.6149V29.1771C16.9375 27.7768 18.0737 26.6406 19.4749 26.6406H20.7976C22.1998 26.6406 23.3359 27.7768 23.3359 29.1771V31.2109H37.9609V29.1771C37.9609 27.7768 39.0011 26.6406 40.4024 26.6406Z" fill="white"/>
</svg>
