<svg width="61" height="62" viewBox="0 0 61 62" fill="none" xmlns="http://www.w3.org/2000/svg">
<path fill-rule="evenodd" clip-rule="evenodd" d="M16.0025 5.05269C30.654 -2.63758 48.9053 0.052735 56.8316 15.846C64.6408 31.4069 61.626 49.6976 45.9239 56.8779C30.8795 63.757 14.5609 63.8682 4.93638 45.8078C-4.55831 27.9929 1.38538 12.7244 16.0025 5.05269Z" fill="#FD7D91"/>
<path d="M26.7888 19.5025C26.4683 18.5025 25.2821 18.0411 24.3491 18.5567C20.2084 20.8439 17.8049 25.4026 18.4468 30.1422C18.9188 33.63 19.3116 38.1106 19.3739 43.5542C19.384 44.3881 20.0721 45.0625 20.926 45.0625H20.9386C21.7951 45.0625 22.4899 44.3832 22.4899 43.546V34.7025C22.4899 34.0232 22.8559 33.3595 23.4902 33.0807C24.5578 32.6102 25.6792 33.1777 25.9778 34.1539L29.3009 42.0516C30.0689 43.8741 31.8835 45.0625 33.8992 45.0625H39.8899C43.6588 45.0625 46.0345 43.1833 44.6767 40.8501C43.9869 39.6633 41.3512 37.8022 39.4785 36.5776C38.4934 35.9328 37.2567 35.7692 36.1378 36.1549C34.3501 36.7717 32.3538 35.9764 31.4309 33.9763L26.7888 19.5025Z" fill="white"/>
</svg>
