<svg width="62" height="62" viewBox="0 0 62 62" fill="none" xmlns="http://www.w3.org/2000/svg">
<path fill-rule="evenodd" clip-rule="evenodd" d="M2.04803 23.2573C6.97034 7.45929 21.7783 -3.54401 38.5506 2.01886C55.0757 7.50009 65.8774 22.5653 59.8515 38.7457C54.0779 54.2479 42.6175 65.8655 23.0412 59.9004C3.73052 54.0172 -2.86317 39.0179 2.04803 23.2573Z" fill="#EC7EBD"/>
<path d="M42.2114 28.274H42.0006C42.0006 28.2154 42.0089 28.1596 42.0089 28.101C42.0089 21.9453 37.0104 16.9375 30.8661 16.9375C24.7217 16.9375 19.7232 21.9453 19.7232 28.101C19.7232 28.1596 19.7306 28.2154 19.7316 28.274H19.5208C18.1001 28.274 16.9375 29.4387 16.9375 30.8621V36.8494C16.9375 38.2728 18.1001 39.4375 19.5208 39.4375H21.5804C22.0911 39.4375 22.5089 39.0189 22.5089 38.5072V29.2043C22.5089 28.6926 22.0911 28.274 21.5804 28.274H21.2888C21.2879 28.2154 21.2776 28.1596 21.2776 28.101C21.2776 22.8039 25.5788 18.4948 30.8661 18.4948C36.1534 18.4948 40.4536 22.8039 40.4536 28.101C40.4536 28.1596 40.4443 28.2154 40.4434 28.274H40.1518C39.6411 28.274 39.2232 28.6926 39.2232 29.2043V38.5072C39.2232 39.0189 39.6411 39.4375 40.1518 39.4375H42.2114C43.6321 39.4375 44.7946 38.2728 44.7946 36.8494V30.8621C44.7946 29.4387 43.6321 28.274 42.2114 28.274Z" fill="white"/>
</svg>
