<svg xmlns="http://www.w3.org/2000/svg" viewBox="0 0 60 60" xmlns:v="https://vecta.io/nano"><path d="M30 60C13.5 59.3-1 47.9 0 30.2 1 12.8 12.8-1.5 30 .1c16.5 1.6 30.7 9.6 30 30.1-.7 20.2-13.5 30.4-30 29.8z" fill-rule="evenodd" fill="#9a78d3"/><path d="M15.4 27.9l-.9-8.2c0-.2 0-.4-.1-.6 0-.3.1-.4.4-.4h11.4c.6 0 .6.2.6.7L25 34.6l-.7 5.6c-.1.8-.9.7-1.5.7h-2.6-2.4-.7c-.5 0-.5-.2-.5-.6l-.8-7.9-.4-4.5zm8.7 14l-.1 6.8c0 1-.2 1.2-1.3 1.2h-3.5c-.8 0-1.8.2-1.9-.8-.1-1.2 0-6 0-7.2 0-.4.1-.5.5-.5h5.8c.4 0 .5.1.5.5zm-3.4-26.4h5.9c.6 0 .9.1.7.7-.1.4.1 1.2-.2 1.6s-1.2.2-1.7.2l-10.4.1c-.5 0-.7-.2-.7-.7 0-.4-.1-.9-.2-1.3-.1-.5.1-.6.5-.6h6.1zm22.8 10.8l-.4 10.5-.5 10.4c-.1 1.5-.9 2.2-2.3 2.2h-7.1c-1.7 0-2.4-.7-2.5-2.4L30 29.3l-.1-3.2c0-1.5.7-2.3 2.3-2.4h9.2c1.3.2 2.1 1.1 2.1 2.6zm-7-2.9h-2.7c-.5 0-.7-.1-.7-.6v-5.7c0-.8.4-1.3 1.2-1.2.5 0 .7-.3.7-.7v-1.5c0-.6.1-1.1-.8-1.1-.5 0-.6-.5-.6-1 0-.4.1-.7.6-.8 3.7-.9 7.5-1 11 .8 1 .5 1 .7.3 1.6-.3.4-.6.4-1 .2-1.7-.7-3.5-1.2-5.5-.9-.7.1-1.1.3-.9 1 .1.4 0 .7 0 1.1 0 .8-.2 1.5 1.1 1.4.6 0 .9.6.9 1.1V23c0 .4-.2.5-.6.5-1-.1-2-.1-3-.1z" fill="#fff"/></svg>