<svg width="62" height="61" viewBox="0 0 62 61" fill="none" xmlns="http://www.w3.org/2000/svg">
<path fill-rule="evenodd" clip-rule="evenodd" d="M5.05293 44.9972C-2.63733 30.3458 0.0529791 12.0944 15.8463 4.16819C31.4071 -3.64102 49.6978 -0.626236 56.8781 15.0759C63.7573 30.1202 63.8685 46.4388 45.808 56.0634C27.9932 65.5581 12.7246 59.6144 5.05293 44.9972Z" fill="#FB8636"/>
<path fill-rule="evenodd" clip-rule="evenodd" d="M44.9773 33.7074C45.3066 33.7074 45.5739 33.4456 45.5739 33.123C45.5739 30.5445 43.7841 27.8632 40.2045 27.8632H38.4148V24.3415C38.9147 24.7132 39.5304 24.9412 40.2045 24.9412C40.5339 24.9412 40.8011 24.6793 40.8011 24.3567V19.6814C40.8011 19.3588 40.5339 19.097 40.2045 19.097C39.5304 19.097 38.9147 19.3249 38.4148 19.6966V19.6814C38.4148 18.3922 37.3445 17.3438 36.0284 17.3438H34.2386C33.9093 17.3438 33.642 17.6056 33.642 17.9282C33.642 18.2508 33.9093 18.5126 34.2386 18.5126H36.0284C36.6859 18.5126 37.2216 19.0362 37.2216 19.6814V26.11C37.2216 31.3697 35.4318 32.1283 32.9667 32.1283C32.6744 30.2757 31.5814 28.7223 30.0685 27.7534C30.7581 27.5091 31.2557 26.8686 31.2557 26.11V23.7723C31.2557 23.4497 30.9884 23.1879 30.6591 23.1879H18.7273C18.398 23.1879 18.1307 23.4497 18.1307 23.7723V24.94C18.1307 25.0954 18.1939 25.2439 18.3049 25.3526L20.4371 27.4425C18.3574 28.5225 16.9375 30.6626 16.9375 33.123C16.9375 33.4456 17.2048 33.7074 17.5341 33.7074H44.9773ZM24.7328 35.7528C24.4964 36.5438 23.8469 37.1165 23.0733 37.1165C22.3008 37.1165 21.6513 36.5438 21.4149 35.7528H18.983C19.2611 38.0601 20.9768 39.8438 23.0733 39.8438C25.171 39.8438 26.8866 38.0601 27.1648 35.7528H24.7328ZM40.4596 37.1165C41.2333 37.1165 41.8828 36.5438 42.1192 35.7528H44.5511C44.273 38.0601 42.5573 39.8438 40.4596 39.8438C38.3631 39.8438 36.6475 38.0601 36.3693 35.7528H38.8013C39.0377 36.5438 39.6872 37.1165 40.4596 37.1165Z" fill="white"/>
</svg>
