<svg xmlns="http://www.w3.org/2000/svg" viewBox="0 0 61 62" xmlns:v="https://vecta.io/nano"><path d="M16 5.1c14.7-7.7 32.9-5 40.8 10.8 7.8 15.6 4.8 33.9-10.9 41-15 6.9-31.4 7-41-11.1C-4.6 28 1.4 12.7 16 5.1z" fill-rule="evenodd" fill="#e0c341"/><g fill="#fff"><path d="M43.9 17.6l-1.2-4.4c0-.1-.1-.3-.3-.3-.1-.1-.3 0-.4.1l-3.8 2.6-.2.2-4 10.6h-.5v-9.6c0-1.1-.9-2.1-2.1-2.1h-4.3c-1.1 0-2.1.9-2.1 2.1v5.3l-1.6-4.3-.2-2.2c0-.1-.1-.2-.2-.3l-4.2-3.1c-.1-.1-.3-.1-.4-.1s-.3.2-.3.3l-1 5.2c0 .1 0 .3.1.4l1.3 1.8 2.6 6.9c-1.1.5-1.7 1.6-1.6 2.7l1.6 18.2c.1 1.4 1.3 2.5 2.7 2.5h14.4c1.4 0 2.6-1.1 2.7-2.5l1.6-18.2c.1-1.2-.6-2.3-1.8-2.8l3.2-8.7v-.3zm-5-1.3l1.6.6-3.5 9.5h-1.8l3.7-10.1zm-12.8.5c0-.6.5-1.2 1.2-1.2h4.3c.6 0 1.2.5 1.2 1.2v.9h-3a.47.47 0 0 0-.5.5.47.47 0 0 0 .5.5h3V20h-2a.47.47 0 0 0-.5.5.47.47 0 0 0 .5.5h2v1.2h-3a.47.47 0 0 0-.5.5.47.47 0 0 0 .5.5h3v1.3h-2a.47.47 0 0 0-.5.5.47.47 0 0 0 .5.5h2v1.1h-6.6v-9.8zm-8.1.8l.7-3.4.6 1.6c.1.2.4.4.6.3s.4-.4.3-.6l-.6-1.6 2.8 2.1.2 1.7-3.5 1.3-1.1-1.4zm23.4 13.5l-1.2 13.8H21.8l-1.2-13.8h20.8zm-1.6-4.7H38l3.4-9.1 1.6.6-3.2 8.5z"/><path d="M20.3 30l1.4 15.9h19.1l1-16.6z"/></g></svg>