<?xml version="1.0" encoding="utf-8"?>
<!-- Generator: Adobe Illustrator 25.0.1, SVG Export Plug-In . SVG Version: 6.00 Build 0)  -->
<svg version="1.0" id="katman_1" xmlns="http://www.w3.org/2000/svg" xmlns:xlink="http://www.w3.org/1999/xlink" x="0px" y="0px"
	 viewBox="0 0 800 600" style="enable-background:new 0 0 800 600;" xml:space="preserve">
<style type="text/css">
	.st0{fill:#F93549;}
</style>
<path class="st0" d="M215.5,201.3c0-2.8-1.1-5.4-3.1-7.3c-2-1.9-4.6-3-7.4-3h-3.5v-3.5c0-1.4-0.3-2.7-0.8-4
	c-0.5-1.3-1.3-2.4-2.3-3.4c-1-1-2.1-1.7-3.4-2.3c-1.3-0.5-2.6-0.8-4-0.8h-10.5v13.9h-14v10.4c0,2.8,1.1,5.4,3.1,7.4
	c2,1.9,4.6,3,7.4,3h3.5v3.5c0,2.8,1.1,5.4,3.1,7.3c2,1.9,4.6,3,7.4,3h10.5v-13.9h14V201.3z"/>
<path d="M675.5,400.7c-2.3,0-4.3-2.2-4.3-7.9c0-6.3,3.9-15.1,9.8-15.1c2.7,0,3.8,2.7,3.8,6.2C685,390.7,680.7,400.7,675.5,400.7z
	 M652.5,395.4c0,0,0,0.2,0,0.3c-0.6,1.1-1.4,2-2.4,2.6c-1,0.7-2.1,1.2-3.4,1.4c-1.8,0-3.9-1.8-3.9-5.1c0-6.1,3.2-16.9,10.3-16.9
	c0.7,0,1.4,0.1,2.1,0.3c0.2,0.1,0.3,0.2,0.4,0.3c0.1,0.1,0.1,0.3,0.1,0.5L652.5,395.4z M642.9,421.8c-0.8,0-1.6-0.3-2.2-0.9
	c-0.6-0.6-0.9-1.3-0.9-2.1c0-3.4,3.5-5.8,8.6-8.5c0.1-0.1,0.3-0.1,0.4-0.1c0.1,0,0.3,0.1,0.4,0.1c0.1,0.1,0.2,0.2,0.2,0.3
	c0,0.1,0,0.3,0,0.4C647.6,418.1,646.1,421.8,642.9,421.8z M611.7,377.8c1.2,0,1.8,1.3,1.8,2.5c-0.2,4.1-3.7,8.2-9.1,11.9
	c-0.1,0.1-0.2,0.1-0.4,0.1c-0.1,0-0.3,0-0.4-0.1c-0.1-0.1-0.2-0.2-0.3-0.3c-0.1-0.1-0.1-0.3,0-0.4
	C603.9,386.6,606.2,377.8,611.7,377.8L611.7,377.8z M596.3,361.5c0.7,0,1.3,0.8,1.3,1.8c0,1.9-3.8,10.5-8.6,19.8
	c-0.1,0.2-0.2,0.3-0.4,0.4c-0.2,0.1-0.3,0.1-0.5,0c-0.2-0.1-0.3-0.2-0.4-0.3s-0.1-0.3-0.1-0.5C590.2,371,594.4,361.5,596.3,361.5z
	 M679.8,372.7c-9.9,0-16.9,12.3-16.9,22.2c0,1.2,0.1,2.4,0.3,3.6c0,0.1,0,0.3,0,0.4c0,0.1-0.1,0.2-0.2,0.3c-1.1,0.7-2.2,1.5-3.3,2.2
	c-0.1,0.1-0.2,0.1-0.4,0.1s-0.3,0-0.4-0.1s-0.2-0.2-0.2-0.3c-0.1-0.1-0.1-0.3,0-0.4c0-0.3,0.1-0.6,0.2-0.9l4.8-25.4
	c0-0.1,0-0.3,0-0.4c-0.1-0.1-0.2-0.2-0.3-0.3c-0.7-0.4-1.5-0.6-2.3-0.6c-1.3,0-2.6,0.5-3.5,1.4c-0.1,0.1-0.3,0.2-0.5,0.2
	c-0.2,0-0.4,0-0.5-0.1c-1.5-1.2-3.4-1.8-5.4-1.6c-8,0-15.3,11.6-15.4,22.2c0,0.8,0,1.7,0.2,2.6c0,0.3-0.1,0.5-0.3,0.7
	c-1.6,1.2-3.4,1.9-5.4,2c-1.7,0-2.7-1.1-1.9-4.8l3.5-17.5c0-0.2,0.1-0.3,0.3-0.4c0.1-0.1,0.3-0.1,0.5-0.1h5c0.4,0,0.8-0.1,1.2-0.2
	c0.4-0.2,0.7-0.4,1-0.7c0.3-0.3,0.5-0.7,0.6-1c0.1-0.4,0.1-0.8,0.1-1.2c0-0.2-0.1-0.3-0.2-0.5c-0.1-0.1-0.3-0.2-0.5-0.2h-6
	c-0.1,0-0.2,0-0.3-0.1c-0.1,0-0.2-0.1-0.2-0.2c-0.1-0.1-0.1-0.2-0.1-0.3c0-0.1,0-0.2,0-0.3l1.7-7.8c0-0.1,0-0.3,0-0.4
	c-0.1-0.1-0.2-0.3-0.3-0.3c-0.8-0.4-1.7-0.6-2.7-0.6c-1.3-0.1-2.5,0.3-3.5,1.1c-1,0.7-1.7,1.8-2,3l-1.2,5.3c0,0.2-0.1,0.3-0.2,0.4
	c-0.1,0.1-0.3,0.1-0.4,0.1h-0.7c-0.4,0-0.8,0.1-1.2,0.2c-0.4,0.2-0.7,0.4-1,0.7c-0.3,0.3-0.5,0.6-0.6,1c-0.1,0.4-0.1,0.8-0.1,1.2
	c0,0.2,0.1,0.3,0.2,0.5c0.1,0.1,0.3,0.2,0.5,0.2h1.8c0.1,0,0.2,0,0.3,0.1s0.2,0.1,0.2,0.2c0.1,0.1,0.1,0.2,0.1,0.3
	c0,0.1,0,0.2,0,0.3l-3.4,15.9c0,0.1-0.1,0.2-0.2,0.3c-1.5,1.8-3.3,3.2-5.3,4.2c-2,1-4.3,1.7-6.6,1.8c-0.6,0.1-1.3,0-1.9-0.2
	c-0.6-0.2-1.2-0.5-1.7-0.9c-0.5-0.4-0.9-0.9-1.2-1.5c-0.3-0.6-0.5-1.2-0.5-1.8c0-0.2,0-0.3,0.1-0.5c0.1-0.1,0.2-0.3,0.3-0.3
	c12-6.7,14.6-10.9,14.9-16.6c0.1-3-1.2-6.3-6.9-6.3c-10.3,0-15.9,13.5-16.3,22c0,1,0,1.9,0.1,2.9c0,0.1,0,0.3-0.1,0.4
	c-0.1,0.1-0.2,0.2-0.3,0.3c-1.7,1.1-3.7,1.7-5.7,1.8c-2.3,0-4.1-1.3-3.7-4.7c0.1-0.7,0.2-1.6,0.3-2.3c0,0,0-0.2,0-0.3
	c8.4-12.8,15.2-24.8,15.2-30c0-0.7-0.1-1.5-0.3-2.1c-0.3-0.7-0.7-1.3-1.2-1.8c-0.5-0.5-1.1-0.9-1.8-1.2c-0.7-0.3-1.4-0.4-2.2-0.4
	c-8.6,0-15.3,16-18.3,39.5c-0.9,6.8,2.7,9.6,7.3,9.6c4.1-0.2,8-1.6,11.2-4.2c0.1-0.1,0.2-0.1,0.2-0.1c0.1,0,0.2,0,0.3,0
	c0.1,0,0.2,0.1,0.3,0.1c0.1,0.1,0.1,0.1,0.2,0.2c0.9,1.3,2.2,2.4,3.7,3.1c1.5,0.7,3.1,1,4.7,0.9c4.9-0.2,9.5-2.2,13-5.7
	c0.1-0.1,0.2-0.2,0.3-0.2c0.1,0,0.3,0,0.4,0c0.1,0,0.2,0.1,0.3,0.2c0.1,0.1,0.1,0.2,0.1,0.4c0,0.7,0.1,1.4,0.4,2.1
	c0.3,0.7,0.7,1.3,1.2,1.8c0.5,0.5,1.1,0.9,1.8,1.1c0.7,0.2,1.4,0.3,2.1,0.3c4.1-0.3,8-2,11-4.9c0.1-0.1,0.2-0.1,0.3-0.1
	c0.1,0,0.2,0,0.3,0c0.1,0,0.2,0.1,0.3,0.1c0.1,0.1,0.2,0.2,0.2,0.3c0.5,1.3,1.4,2.5,2.5,3.3c1.2,0.8,2.5,1.3,4,1.3
	c1.3-0.1,2.5-0.5,3.6-1.1c1.1-0.6,2.1-1.5,2.9-2.5c0.1-0.1,0.2-0.2,0.4-0.2c0.2,0,0.3,0,0.5,0.1c0.1,0.1,0.3,0.2,0.3,0.3
	c0.1,0.1,0.1,0.3,0.1,0.4c0,0.5-0.3,1-0.3,1.6c-0.1,0.2-0.2,0.3-0.4,0.4c-5,2.6-14.5,7.1-14.5,14.6c0,2,0.8,3.9,2.3,5.3
	c1.4,1.4,3.4,2.2,5.4,2.2c9.6,0,11.2-9.6,13.8-21.6c0-0.2,0.2-0.3,0.3-0.4c2-1.1,4-2.3,5.8-3.6c0.1-0.1,0.2-0.1,0.2-0.1
	c0.1,0,0.2,0,0.3,0c0.1,0,0.2,0.1,0.3,0.1c0.1,0.1,0.1,0.1,0.2,0.2c0.8,1.4,1.9,2.5,3.3,3.2c1.4,0.8,3,1.1,4.6,1
	c10.3,0,17.4-12.3,17.4-22C690,378,687,372.7,679.8,372.7"/>
<path d="M157.6,343.4c-26.2,0-47.4-20.2-47.4-45.1c0-24.9,21.2-45,47.4-45c26.2,0,47.4,20.2,47.4,45.1
	C205.1,323.3,183.9,343.4,157.6,343.4z M157.6,274.7c-4.7-0.1-9.4,1.3-13.3,3.8c-4,2.6-7.1,6.2-8.9,10.5c-1.9,4.3-2.4,9.1-1.5,13.7
	c0.9,4.6,3.1,8.8,6.5,12.2c3.3,3.3,7.6,5.6,12.2,6.6c4.6,0.9,9.5,0.5,13.8-1.3c4.4-1.8,8.1-4.8,10.8-8.7c2.6-3.9,4-8.5,4-13.2
	c0-3.1-0.6-6.1-1.7-9c-1.2-2.9-2.9-5.5-5.1-7.7c-2.2-2.2-4.8-3.9-7.7-5.1C163.8,275.3,160.8,274.7,157.6,274.7z"/>
<path d="M319.3,343.4c-26.3,0-47.4-20.2-47.4-45.1c0-24.9,21.2-45,47.4-45c26.3,0,47.4,20.2,47.4,45.1
	C366.7,323.3,345.6,343.4,319.3,343.4z M319.3,274.7c-4.7-0.1-9.4,1.3-13.4,3.8c-4,2.6-7.1,6.2-8.9,10.5c-1.9,4.3-2.4,9.1-1.5,13.7
	c0.9,4.6,3.1,8.8,6.5,12.2c3.3,3.3,7.6,5.6,12.2,6.6c4.6,0.9,9.5,0.5,13.8-1.3c4.4-1.8,8.1-4.8,10.8-8.7c2.6-3.9,4-8.5,4-13.2
	c0-3.1-0.6-6.1-1.7-9c-1.2-2.9-2.9-5.5-5.1-7.7s-4.8-3.9-7.7-5.1C325.5,275.3,322.4,274.7,319.3,274.7z"/>
<path d="M470.6,299.3c0,24.9-21.2,45.1-47.3,45.1c-8.7,0-17.1-3.4-23.4-9.5v35.3h-23.8v-70.9c0-24.9,21.2-45.1,47.2-45.1
	C449.5,254.3,470.6,274.4,470.6,299.3z M446.8,299.3c0-4.7-1.4-9.3-4-13.2c-2.6-3.9-6.3-6.9-10.7-8.7c-4.4-1.8-9.2-2.3-13.8-1.4
	c-4.6,0.9-8.9,3.1-12.2,6.4c-3.3,3.3-5.6,7.5-6.6,12.1c-0.9,4.6-0.5,9.3,1.3,13.7c1.8,4.3,4.9,8,8.8,10.6c3.9,2.6,8.5,4,13.3,4
	c3.1,0,6.2-0.6,9.1-1.8c2.9-1.2,5.5-2.9,7.7-5.1c2.2-2.2,4-4.8,5.2-7.6C446.1,305.5,446.8,302.4,446.8,299.3z"/>
<path d="M545.1,255.8v42.5c0,13.1,6.5,23.5,19.7,23.5c13.2,0,19.7-10.6,19.7-23.5v-42.5h23.8v42.5c0,24.9-17.2,45.1-43.6,45.1
	c-26.4,0-43.4-20.2-43.4-45.1v-42.5H545.1z"/>
<path d="M689.9,314.4c0,18.3-16.5,29-35,29c-18.5,0-35-10.7-35-29h24c0,7.2,5.9,9.1,11.1,9.1s11.1-2.7,11.1-8.2
	c0-3.9-5.2-7.6-12.4-8.5c-16.7-2-32.8-12.1-32.8-25.5c-0.1-17.3,15.6-28,33.9-28c18.3,0,34,10.7,34,29h-23.8c0-7.2-4.9-9.1-10.2-9.1
	c-5.2,0-10.2,1.9-10.2,7.6c0,5,10.5,9.1,19.7,10.1C677,292.2,689.9,300,689.9,314.4z"/>
<path d="M239.9,275.9h22.9c0.1,0,0.2,0,0.3-0.1c0.1-0.1,0.1-0.2,0.1-0.3v-19.2c0-0.1-0.1-0.2-0.1-0.3c-0.1-0.1-0.2-0.1-0.3-0.1
	h-12.9c-2.8,0-5.4-1.1-7.4-3c-2-1.9-3.1-4.5-3.1-7.2v-19.9h-23.8v72.7c0,24.9,18.1,45.1,44.6,45.1h3.2v-21.4c-3.1,0-6.2-0.6-9.1-1.8
	c-2.9-1.2-5.5-2.9-7.8-5.1c-2.2-2.2-4-4.8-5.2-7.7c-1.2-2.9-1.8-6-1.8-9.1v-21.9c0-0.1,0-0.2,0.1-0.3
	C239.7,276,239.8,275.9,239.9,275.9z"/>
<path d="M495.9,225.6h-13.7v117.8H506V235.9c0-2.7-1.1-5.3-2.9-7.2C501.2,226.8,498.7,225.7,495.9,225.6z"/>
</svg>
