<svg xmlns="http://www.w3.org/2000/svg" viewBox="0 0 62 61" xmlns:v="https://vecta.io/nano"><path d="M5.1 45C-2.6 30.3.1 12.1 15.9 4.2c15.6-7.8 33.9-4.8 41 10.9 6.9 15 7 31.4-11.1 41C28 65.6 12.7 59.6 5.1 45z" fill-rule="evenodd" fill="#fb8636"/><g fill="#fff"><path d="M36.6 32.5v-.2c0-3.2-2.6-5.7-5.7-5.7s-5.7 2.6-5.7 5.7v.2c-2.4.7-4.2 2.9-4.2 5.5 0 3.2 2.6 5.7 5.7 5.7 1.6 0 3.1-.7 4.2-1.8 1 1.1 2.5 1.8 4.2 1.8 3.2 0 5.7-2.6 5.7-5.7 0-2.6-1.8-4.8-4.2-5.5z"/><ellipse cx="27.4" cy="21.7" rx="3.4" ry="4.4"/><ellipse cx="35.5" cy="21.7" rx="3.4" ry="4.4"/><ellipse cx="40.8" cy="29.1" rx="2.8" ry="3.6"/><ellipse cx="21.2" cy="29" rx="2.8" ry="3.6"/></g></svg>