<svg width="62" height="62" viewBox="0 0 62 62" fill="none" xmlns="http://www.w3.org/2000/svg">
<path fill-rule="evenodd" clip-rule="evenodd" d="M16.0278 56.9617C2.04214 48.1183 -4.75365 30.967 4.96065 16.206C14.5321 1.66264 31.8797 -4.87181 45.9491 5.13647C59.4288 14.7257 67.6844 28.8024 56.8558 46.1677C46.1751 63.2978 29.9803 65.7847 16.0278 56.9617Z" fill="#A3CE71"/>
<path fill-rule="evenodd" clip-rule="evenodd" d="M33.6184 27.6083C31.2419 25.0167 30.1886 21.6406 30.4775 18.3541C33.7197 18.2233 36.9935 19.3325 39.5451 21.6817L33.6184 27.6083ZM30.244 30.9823L27.9887 33.2376C25.298 30.7525 21.8238 29.5969 18.395 29.7687C18.6501 27.1107 19.7572 24.5253 21.6888 22.4271L30.244 30.9823ZM43.6178 31.4944C43.7485 28.2522 42.6393 24.9784 40.2902 22.4268L34.3636 28.3534C36.9552 30.73 40.3313 31.7833 43.6178 31.4944ZM32.8729 28.3534L30.9898 30.2366L22.4346 21.6814C24.439 19.8362 26.8872 18.7544 29.4198 18.4392C29.1562 21.9703 30.3097 25.5783 32.8729 28.3534ZM33.6182 29.0993L31.7351 30.9824L40.2903 39.5376C42.1354 37.5332 43.2172 35.085 43.5325 32.5524C40.0014 32.816 36.3933 31.6614 33.6182 29.0993ZM21.6892 39.537C19.4265 37.0792 18.3067 33.9509 18.3447 30.8257C21.5194 30.6391 24.7447 31.6924 27.2436 33.9836L21.6892 39.537ZM30.9898 31.7276L28.7345 33.9829C31.2186 36.6737 32.3742 40.1479 32.2023 43.5767C34.8614 43.3226 37.4468 42.2144 39.545 40.2828L30.9898 31.7276ZM27.9883 34.7283C30.2794 37.2271 31.3328 40.4525 31.1461 43.6272C28.021 43.6651 24.8927 42.5454 22.4349 40.2827L27.9883 34.7283Z" fill="white"/>
</svg>
