<svg width="61" height="60" viewBox="0 0 61 60" fill="none" xmlns="http://www.w3.org/2000/svg">
<path fill-rule="evenodd" clip-rule="evenodd" d="M37.7703 58.9446C21.6277 62.5808 4.69455 55.2583 1.12601 37.9517C-2.38966 20.8999 5.25636 4.01277 22.2819 1.1411C38.594 -1.60988 54.3854 2.5063 59.0076 22.4424C63.5679 42.1076 53.875 55.3175 37.7703 58.9446Z" fill="#A175D9"/>
<path fill-rule="evenodd" clip-rule="evenodd" d="M23.5625 15.9375C22.4579 15.9375 21.5625 16.8329 21.5625 17.9375V42.0625C21.5625 43.1671 22.4579 44.0625 23.5625 44.0625H36.4375C37.5421 44.0625 38.4375 43.1671 38.4375 42.0625V17.9375C38.4375 16.8329 37.5421 15.9375 36.4375 15.9375H23.5625ZM30 39.8438C29.2238 39.8438 28.5938 40.4737 28.5938 41.25C28.5938 42.0263 29.2238 42.6562 30 42.6562C30.7762 42.6562 31.4062 42.0263 31.4062 41.25C31.4062 40.4737 30.7762 39.8438 30 39.8438ZM22.9688 20.1562H37.0312V38.4375H22.9688V20.1562ZM27.8906 17.3438C27.5023 17.3438 27.1875 17.6585 27.1875 18.0469C27.1875 18.4352 27.5023 18.75 27.8906 18.75H32.1094C32.4977 18.75 32.8125 18.4352 32.8125 18.0469C32.8125 17.6585 32.4977 17.3438 32.1094 17.3438H27.8906Z" fill="white"/>
</svg>
