<svg xmlns="http://www.w3.org/2000/svg" viewBox="0 0 62 61" xmlns:v="https://vecta.io/nano"><path d="M5.1 45C-2.6 30.3.1 12.1 15.9 4.2c15.6-7.8 33.9-4.8 41 10.9 6.9 15 7 31.4-11.1 41C28 65.6 12.7 59.6 5.1 45z" fill-rule="evenodd" fill="#a3ce71"/><g fill="#fff"><path d="M23.3 21.9h-1.8v-.8h-2.9l-2.9 1.5v2.6l2.9 1.5h0 2.9v-.8h1.8zM9.9 23.3l-.4 1.1H8.3l.5-1.1zm-2 0l-.5 1.1H6.1v-1.1zm6.4 0v1.1h-3.9l.4-1.1zm18.3 7.4L32 34h2.5l-1.3-3.3zm11.2 10.8c-.4 1.6-1.8 2.9-3.7 2.9h-3.7c-1 0-2-.4-2.7-1.1-.5-.5-.8-1.1-1-1.8h11.1z"/><path d="M32.8 40.1l3.4-1.3-2.9-8.1h7.4l3 8.5c.1.3.2.7.2 1H32.8zm7.3-21.7h-9.9L24.7 21v5.8l5.5 2.5h9.9c3 0 5.4-2.4 5.4-5.4h0c0-3-2.4-5.5-5.4-5.5zm.4 7.6c-.9 0-1.6-.5-2-1.3h-6.2c-.4 0-.8-.4-.8-.8s.4-.8.8-.8h6.2c.3-.8 1.1-1.3 2-1.3 1.2 0 2.1 1 2.1 2.1s-.9 2.1-2.1 2.1z"/></g></svg>