<svg width="48" height="48" viewBox="0 0 48 48" fill="none" xmlns="http://www.w3.org/2000/svg">
<path d="M35 18C35 18 26.37 26 24 26C21.63 26 13 18 13 18" stroke="#13C1AC" stroke-width="2" stroke-linecap="round" stroke-linejoin="round"/>
<path d="M34.0391 31L27.5391 24.5" stroke="#13C1AC" stroke-width="2" stroke-linecap="round" stroke-linejoin="round"/>
<path d="M20.5391 24.5L14.0391 31" stroke="#13C1AC" stroke-width="2" stroke-linecap="round" stroke-linejoin="round"/>
<path d="M9.04021 23.5C9.04021 22.7517 9.02893 22.0505 9.01826 21.3879C8.99694 20.0633 8.97811 18.8932 9.05691 17.8097C9.17253 16.2199 9.4926 15.0364 10.2098 14.118C10.9216 13.2067 12.135 12.4177 14.3291 11.8608C16.532 11.3018 19.6331 11 24 11C28.367 11 31.468 11.3018 33.6709 11.8608C35.865 12.4177 37.0784 13.2067 37.7902 14.118C38.5074 15.0364 38.8275 16.2199 38.9431 17.8097C39.0219 18.8932 39.0031 20.0633 38.9817 21.3879C38.9711 22.0505 38.9598 22.7517 38.9598 23.5C38.9598 23.9124 38.9616 24.3143 38.9633 24.7063C38.9708 26.4142 38.9775 27.9347 38.8336 29.3154C38.6587 30.994 38.2703 32.3332 37.4765 33.4009C35.903 35.5173 32.3882 37 24 37C15.6118 37 12.097 35.5173 10.5235 33.4009C9.72972 32.3332 9.34125 30.994 9.16637 29.3154C9.02253 27.9347 9.02921 26.4142 9.03672 24.7063C9.03845 24.3143 9.04021 23.9124 9.04021 23.5Z" stroke="#13C1AC" stroke-width="2"/>
</svg>