<svg width="29" height="28" viewBox="0 0 29 28" fill="none" xmlns="http://www.w3.org/2000/svg">
<path d="M7.61536 20.9925C7.61536 21.6932 8.0937 22.1601 8.8112 22.1601H10.007V26.2481C10.007 27.1827 10.8441 28 11.8008 28C12.7574 28 13.5945 27.1827 13.5945 26.2481V22.1601H15.9862V26.2481C15.9862 27.1827 16.8233 28 17.7799 28C18.7366 28 19.5737 27.1827 19.5737 26.2481V22.1601H20.7695C21.487 22.1601 21.9654 21.6932 21.9654 20.9925V9.31362H7.61536V20.9925ZM4.62578 9.31274C3.66911 9.31274 2.83203 10.13 2.83203 11.0646V19.2397C2.83203 20.1743 3.66911 20.9916 4.62578 20.9916C5.58245 20.9916 6.41953 20.1743 6.41953 19.2397V11.0646C6.41953 10.13 5.58245 9.31274 4.62578 9.31274ZM24.9549 9.31274C23.9983 9.31274 23.1612 10.13 23.1612 11.0646V19.2397C23.1612 20.1743 23.9983 20.9916 24.9549 20.9916C25.9116 20.9916 26.7487 20.1743 26.7487 19.2397V11.0646C26.7487 10.13 25.9116 9.31274 24.9549 9.31274ZM18.9758 2.53912L20.5304 1.02112C20.7695 0.787249 20.7695 0.436874 20.5304 0.203874C20.2912 -0.0291249 19.9324 -0.0300008 19.6933 0.203874L17.8995 1.95575C17.0624 1.3715 15.9862 1.1385 14.7904 1.1385C13.5945 1.1385 12.5183 1.37237 11.5616 1.83925L9.88745 0.0873746C9.64828 -0.0291249 9.16995 -0.0291249 8.93078 0.0873746C8.8112 0.32125 8.8112 0.788124 8.93078 1.022L10.4854 2.54C8.8112 3.825 7.61536 5.80988 7.61536 8.14602H21.9654C21.9654 5.80988 20.7695 3.70763 18.9758 2.54V2.53912ZM12.3987 5.809H11.2029V4.64137H12.3987V5.809ZM18.3779 5.809H17.182V4.64137H18.3779V5.809Z" fill="#90A4AE"/>
</svg>
