<svg width="29" height="28" viewBox="0 0 29 28" fill="none" xmlns="http://www.w3.org/2000/svg">
<path d="M22.3196 15.1496C22.2868 11.6821 25.2863 9.99495 25.4232 9.91637C23.7246 7.54647 21.0918 7.22248 20.1672 7.19629C17.9563 6.97357 15.8117 8.46247 14.6847 8.46247C13.5363 8.46247 11.8014 7.21811 9.93231 7.25392C7.52687 7.28968 5.27637 8.62225 4.04178 10.6927C1.49426 14.913 3.39435 21.1156 5.83512 24.5272C7.05595 26.1995 8.48249 28.0638 10.3499 27.9983C12.1768 27.9276 12.8587 26.8841 15.0635 26.8841C17.2478 26.8841 17.8883 27.9983 19.7927 27.9555C21.753 27.9276 22.9877 26.2781 24.1654 24.591C25.5765 22.6777 26.143 20.7898 26.1654 20.6929C26.1206 20.6789 22.3592 19.3054 22.3213 15.1488L22.3196 15.1496ZM18.6761 4.39932C19.6584 3.22309 20.3307 1.62333 20.144 0C18.7217 0.0602525 16.9439 0.941343 15.9193 2.09138C15.0136 3.1052 14.2043 4.76608 14.4127 6.32829C16.0097 6.44268 17.6498 5.55722 18.6752 4.39932H18.6761Z" fill="#90A4AE"/>
</svg>
