<svg width="29" height="28" viewBox="0 0 29 28" fill="none" xmlns="http://www.w3.org/2000/svg">
<g clip-path="url(#clip0_1034_19374)">
<path fill-rule="evenodd" clip-rule="evenodd" d="M20.6034 0H8.36205C2.60345 0 0.5 2.10345 0.5 7.87932V20.1206C0.5 25.8792 2.60345 28 8.37932 28H20.6206C26.3792 28 28.5 25.8965 28.5 20.1206V7.87932C28.4827 2.10345 26.3792 0 20.6034 0Z" fill="#94A4AD"/>
<path d="M6.03489 15.4655H4.36248V14H3.62109V17.6551H4.36248V16.1724H6.03489V17.6551H6.77627V14H6.03489V15.4655Z" fill="white"/>
<path d="M10.2244 16.0859C10.2244 16.6722 9.93126 16.9997 9.39675 16.9997C8.8623 16.9997 8.55196 16.6722 8.55196 16.0687V13.9997H7.81055V16.0859C7.81055 17.1203 8.37953 17.7066 9.37954 17.7066C10.3795 17.7066 10.9657 17.1031 10.9657 16.0514V13.9824H10.2244V16.0859Z" fill="white"/>
<path d="M18.7918 16.5173L17.9642 14H17.3607L16.5332 16.5173L15.7228 14H14.9297L16.2056 17.6551H16.8262L17.6539 15.2414L18.4814 17.6551H19.102L20.378 14H19.6021L18.7918 16.5173Z" fill="white"/>
<path d="M25.3452 14H24.6211V17.6551H25.3452V14Z" fill="white"/>
<path d="M21.7065 16.069H23.0685V15.4138H21.7065V14.6551H23.6721V14H20.9824V17.6551H23.7411V16.9828H21.7065V16.069Z" fill="white"/>
<path d="M12.9491 14L11.3457 17.6551H12.1043L12.4319 16.8965H14.1043L14.4319 17.6551H15.2078L13.6044 14H12.9491ZM12.7078 16.2242L13.2595 14.9137L13.8285 16.2242H12.7078Z" fill="white"/>
<path d="M18.4833 4.67188C18.4833 6.87878 16.6902 8.67189 14.4833 8.67189C12.2764 8.67189 10.4833 6.87878 10.4833 4.67188H9.82812C9.82812 7.24086 11.9144 9.32703 14.4833 9.32703C17.0522 9.32703 19.1385 7.24086 19.1385 4.67188H18.4833Z" fill="white"/>
</g>
<defs>
<clipPath id="clip0_1034_19374">
<rect width="28" height="28" fill="white" transform="translate(0.5)"/>
</clipPath>
</defs>
</svg>
