<svg width="28" height="28" fill="none" class="Icon  Icon--white" xmlns="http://www.w3.org/2000/svg" viewBox="0 0 23 23"
    name="tb-favorites">
    <path fill="#fff" d="M0 0h23v23H0z"></path>
    <path
        d="M11.5 22.1c-.3 0-.5 0-.8-.1C8.2 20.8 0 16.6 0 9.2 0 5.2 3.2 2 7.2 2c1.5 0 2.9.5 4.1 1.3.1.1.2.1.3.1 1.2-.9 2.7-1.4 4.2-1.4 4 0 7.2 3.2 7.2 7.2 0 7.2-8 11.5-10.4 12.7l-.2.1c-.3.1-.6.1-.9.1zM7.2 4C4.3 4 2 6.3 2 9.2c0 6.4 7.9 10.2 9.5 10.9l.1-.1c2.2-1 9.4-4.8 9.3-10.9C21 6.3 18.7 4 15.8 4c-1.1 0-2.2.4-3.1 1l-.1.1c-.8.4-1.8.4-2.5-.2-.8-.6-1.9-.9-2.9-.9z"
        fill="#607D8B"></path>
</svg>