<svg width="23" height="23" viewBox="0 0 23 23" fill="none" xmlns="http://www.w3.org/2000/svg"><path fill="#fff" d="M0 0h23v23H0z"/><path d="M2.011 8.4l2.197-6.2c0-.1.2-.2.3-.2h14.08c.1 0 .2.1.3.2l2.097 6.2v.2c-.3.2-.5.5-.699.7-.3.4-.4.4-.6.4-.199 0-.299-.1-.598-.4-.4-.4-.999-1.1-2.097-1.1-1.099 0-1.698.6-2.098 1.1-.299.4-.399.4-.599.4-.2 0-.3-.1-.599-.4-.4-.4-.998-1.1-2.097-1.1-1.098 0-1.797.7-2.197 1.1-.3.4-.4.4-.599.4-.2 0-.3-.1-.6-.4-.399-.4-.998-1.1-2.096-1.1-1.099 0-1.698.7-2.097 1.1-.3.4-.4.4-.6.4-.2 0-.3-.1-.599-.4-.2-.2-.5-.5-.799-.7v-.2zM9.6 20.9v-4.5c0-1 .8-1.7 1.798-1.7h.3c.998 0 1.698.8 1.698 1.7v4.5H9.6z" fill="#00FFE0" fill-opacity=".25"/><path d="M22.883 7.7l-2.197-6.2c-.3-.9-1.199-1.5-2.098-1.5H4.508C3.509 0 2.71.6 2.31 1.5L.114 7.7c-.3 1 0 2 .799 2.5l.4.4c.1.2.299.4.598.5v6.3c0 3 2.397 5.5 5.293 5.5h8.788c2.896 0 5.293-2.4 5.293-5.5v-6.3c.2-.2.4-.4.599-.5l.4-.4c.599-.5.898-1.5.599-2.5zM2.01 8.4l2.197-6.2c0-.1.2-.2.3-.2h14.08c.1 0 .2.1.3.2l2.097 6.2v.2c-.3.2-.5.5-.699.7-.3.4-.4.4-.6.4-.199 0-.299-.1-.598-.4-.4-.4-.999-1.1-2.097-1.1-1.099 0-1.698.6-2.098 1.1-.3.4-.399.4-.599.4-.2 0-.3-.1-.599-.4-.4-.4-.998-1.1-2.097-1.1-1.098 0-1.797.7-2.197 1.1-.3.4-.4.4-.6.4-.199 0-.299-.1-.598-.4-.4-.4-.999-1.1-2.097-1.1-1.099 0-1.698.7-2.097 1.1-.3.4-.4.4-.6.4-.2 0-.3-.1-.599-.4-.2-.2-.5-.5-.799-.7v-.2zm7.59 12.5v-4.5c0-1 .799-1.7 1.797-1.7h.3c.999 0 1.698.8 1.698 1.7v4.5H9.6zm6.291 0h-.5v-4.5c0-2.1-1.697-3.7-3.694-3.7h-.3c-2.097 0-3.794 1.7-3.794 3.7v4.5h-.4c-1.797 0-3.295-1.6-3.295-3.5v-5.8c.799-.1 1.298-.7 1.598-1 .3-.4.399-.4.599-.4.2 0 .3.1.599.4.4.4.998 1.1 2.097 1.1 1.098 0 1.698-.6 2.097-1.1.3-.4.4-.4.6-.4.199 0 .299.1.598.4.4.4.999 1.1 2.098 1.1 1.098 0 1.697-.6 2.097-1.1.3-.4.399-.4.599-.4.2 0 .3.1.599.4.3.4.799.9 1.598 1v5.8c.1 2-1.398 3.5-3.196 3.5z" fill="#13C1AC"/></svg>