<svg width="28px" height="28px" viewBox="0 0 23 23" fill="none" xmlns="http://www.w3.org/2000/svg" display="flex"><path fill="#fff" d="M0 0h23v23H0z"></path><path d="M15.4 1H7.6C3.2 1 0 4.1 0 8.3v6.3C0 18.9 3.2 22 7.6 22h7.8c4.4 0 7.6-3.1 7.6-7.4V8.3C23 4.1 19.8 1 15.4 1zM21 14.6c0 3.1-2.4 5.4-5.6 5.4H7.6C4.4 20 2 17.8 2 14.6V8.3C2 5.2 4.3 3 7.6 3h7.8C18.7 3 21 5.2 21 8.3v6.3z" fill="#607D8B"></path><path d="M17.4 7.4l-5.1 4.8c-.4.4-1.1.4-1.6 0l-5-4.8c-.4-.4-1.1-.4-1.5 0-.4.4-.4 1 0 1.4l3.5 3.3-3 3.1c-.4.4-.4 1 0 1.4.2.2.4.3.7.3.3 0 .5-.1.7-.3L9 13.5l.2.2c.6.6 1.4.9 2.2.9.8 0 1.6-.3 2.2-.9l.2-.2 2.9 3.1c.2.2.5.3.7.3.2 0 .5-.1.7-.3.4-.4.4-1 0-1.4l-3-3.1 3.5-3.3c.4-.4.4-1 0-1.4-.2-.4-.8-.4-1.2 0z" fill="#607D8B"></path></svg>