<svg width="28px" height="28px" viewBox="0 0 23 23" fill="none" xmlns="http://www.w3.org/2000/svg" display="flex"><path fill="#fff" d="M0 0h23v23H0z"></path><path d="M11.5 0C5.2 0 0 5.2 0 11.5S5.2 23 11.5 23 23 17.8 23 11.5 17.9 0 11.5 0zm0 21.1c-5.3 0-9.5-4.3-9.5-9.5S6.3 2 11.5 2 21 6.3 21 11.5s-4.2 9.6-9.5 9.6z" fill="#607D8B"></path><path d="M16.2 10.6h-3.6V7.1c0-.6-.4-1-1-1s-1 .4-1 1v3.5H6.9c-.6 0-1 .4-1 1s.4 1 1 1h3.6v3.5c0 .6.4 1 1 1s1-.4 1-1v-3.5h3.6c.6 0 1-.4 1-1s-.4-1-.9-1z" fill="#607D8B"></path></svg>