<svg width="28px" height="28px" viewBox="0 0 23 23" fill="none" xmlns="http://www.w3.org/2000/svg" display="flex"><path fill="#fff" d="M0 0h23v23H0z"></path><path d="M11.5 0C5.2 0 0 5.2 0 11.5 0 17.9 5.2 23 11.5 23S23 17.9 23 11.5C23 5.2 17.9 0 11.5 0zm0 21C6.3 21 2 16.8 2 11.5S6.3 2 11.5 2 21 6.3 21 11.5 16.8 21 11.5 21z" fill="#607D8B"></path><path d="M7.7 10.6v-.1c0-.6-.4-1-1-1s-1 .4-1 1v.1c0 .6.4 1 1 1s1-.4 1-1zM16.3 9.5c-.6 0-1 .4-1 1v.1c0 .6.4 1 1 1s1-.4 1-1v-.1c0-.5-.5-1-1-1z" fill="#607D8B"></path><path opacity=".5" d="M15.4 12.5H7.6c-.5 0-.9.4-.8.9.4 2.2 2.4 3.8 4.7 3.8 2.3 0 4.3-1.7 4.7-3.8.1-.5-.3-.9-.8-.9z" fill="#607D8B"></path></svg>