<svg xmlns="http://www.w3.org/2000/svg" xmlns:xlink="http://www.w3.org/1999/xlink" width="65.266" height="89.428" viewBox="0 0 65.266 89.428">
  <defs>
    <linearGradient id="linear-gradient" x1="0.312" y1="0.789" x2="0.802" y2="0.265" gradientUnits="objectBoundingBox">
      <stop offset="0" stop-color="#0ecaff"/>
      <stop offset="0.105" stop-color="#00b1e3"/>
      <stop offset="1" stop-color="#0a5a71"/>
    </linearGradient>
  </defs>
  <g id="Group_418" data-name="Group 418" transform="translate(-574.926 -407.555)">
    <g id="Group_417" data-name="Group 417" transform="translate(575.426 408.372)">
      <g id="Group_416" data-name="Group 416" transform="translate(0 0)">
        <g id="Group_412" data-name="Group 412">
          <path id="Path_973" data-name="Path 973" d="M592.737,995.97l-15.71,9.07c-.884.51-1.6-.031-1.6-1.21v-29.62a3.834,3.834,0,0,1,1.6-3.058l15.71-9.07c.884-.51,1.6.031,1.6,1.21v29.62A3.833,3.833,0,0,1,592.737,995.97Z" transform="translate(-575.426 -920.93)" stroke="rgba(0,0,0,0)" stroke-width="1" fill="url(#linear-gradient)"/>
          <path id="Path_974" data-name="Path 974" d="M896.128,439.048c-.082-2.619-2.05-3.557-4.36-2.223l-2.063,1.191a9.127,9.127,0,0,0,4.129-7.152v-.3c0-2.633-1.849-3.7-4.129-2.384l-10.26,5.923c-2.517,1.453-4.368-.225-3.73-3.4,1.072-5.338,3.98-11.008,3.98-17.569,0-8.95-8.061-3.592-8.061,2.46,0,7.205-13.179,25.9-13.179,37.675V477.3c0,4.573,3.21,5.252,7.17,2.966l21.5-11.238a8.766,8.766,0,0,0,3.966-6.869v-.682c0-2.529-1.775-3.554-3.966-2.29l2.581-1.49a9.127,9.127,0,0,0,4.129-7.152v-.3c0-2.633-1.849-3.7-4.129-2.384l2.165-1.25A9.37,9.37,0,0,0,896.128,439.048Z" transform="translate(-837.511 -408.372)" stroke="rgba(0,0,0,0)" stroke-width="1" fill="url(#linear-gradient)"/>
          <ellipse id="Ellipse_18" data-name="Ellipse 18" cx="2.3" cy="1.328" rx="2.3" ry="1.328" transform="translate(12.076 73.6) rotate(-60)" stroke="rgba(0,0,0,0)" stroke-width="1" fill="url(#linear-gradient)"/>
        </g>
        <path id="Path_975" data-name="Path 975" d="M588.864,1496.817c-.165-.176-5.543-3.2-5.543-3.2l5.9-4.215Z" transform="translate(-582.737 -1409.409)" stroke="rgba(0,0,0,0)" stroke-width="1" fill="url(#linear-gradient)"/>
        <path id="Path_976" data-name="Path 976" d="M829.265,966.686c-.035-.016-5.547-3.211-5.547-3.211l.287,6.631Z" transform="translate(-805.344 -922.397)" stroke="rgba(0,0,0,0)" stroke-width="1" fill="url(#linear-gradient)"/>
        <path id="Path_977" data-name="Path 977" d="M886.833,1376.759l-5.168-2.937,4.431-1.478Z" transform="translate(-859.003 -1301.01)" stroke="rgba(0,0,0,0)" stroke-width="1" fill="url(#linear-gradient)"/>
        <path id="Path_978" data-name="Path 978" d="M1121.239,410.683l5.826,3.349-4.541,2.831Z" transform="translate(-1080.849 -410.512)" stroke="rgba(0,0,0,0)" stroke-width="1" fill="url(#linear-gradient)"/>
        <path id="Path_979" data-name="Path 979" d="M1323.782,674.552l5.354,3.062-5.354,2.112Z" transform="translate(-1268.403 -654.855)" stroke="rgba(0,0,0,0)" stroke-width="1" fill="url(#linear-gradient)"/>
        <path id="Path_980" data-name="Path 980" d="M1347.061,789.357l5.659,3.269-6.052,2.561Z" transform="translate(-1289.596 -761.164)" stroke="rgba(0,0,0,0)" stroke-width="1" fill="url(#linear-gradient)"/>
        <path id="Path_981" data-name="Path 981" d="M1324.229,940.9l5.5,3.146-5.388,1.49Z" transform="translate(-1268.817 -901.494)" stroke="rgba(0,0,0,0)" stroke-width="1" fill="url(#linear-gradient)"/>
        <path id="Path_982" data-name="Path 982" d="M1285.037,1092.108l5.518,3.182-3.428,1.371Z" transform="translate(-1232.525 -1041.511)" stroke="rgba(0,0,0,0)" stroke-width="1" fill="url(#linear-gradient)"/>
        <g id="Group_413" data-name="Group 413" transform="translate(5.644 3.259)">
          <path id="Path_983" data-name="Path 983" d="M669.006,1040.006l-15.71,9.07c-.884.51-1.6-.031-1.6-1.21v-29.62a3.834,3.834,0,0,1,1.6-3.058l15.71-9.07c.884-.51,1.6.031,1.6,1.21v29.62A3.833,3.833,0,0,1,669.006,1040.006Z" transform="translate(-651.696 -964.966)" stroke="rgba(0,0,0,0)" stroke-width="1" fill="url(#linear-gradient)"/>
          <path id="Path_984" data-name="Path 984" d="M972.4,483.084c-.082-2.619-2.05-3.557-4.36-2.223l-2.062,1.191A9.127,9.127,0,0,0,970.1,474.9v-.3c0-2.633-1.849-3.7-4.129-2.384l-10.26,5.924c-2.517,1.453-4.368-.225-3.73-3.4,1.072-5.338,3.98-11.008,3.98-17.569,0-8.95-8.061-3.592-8.061,2.46,0,7.205-13.179,25.9-13.179,37.675v24.039c0,4.573,3.21,5.252,7.17,2.966l21.5-11.237a8.766,8.766,0,0,0,3.966-6.869v-.682c0-2.529-1.775-3.554-3.966-2.29l2.581-1.49a9.127,9.127,0,0,0,4.129-7.152v-.3c0-2.633-1.849-3.7-4.129-2.384l2.165-1.25A9.371,9.371,0,0,0,972.4,483.084Z" transform="translate(-913.781 -452.408)" stroke="rgba(0,0,0,0)" stroke-width="1" fill="url(#linear-gradient)"/>
          <path id="Path_985" data-name="Path 985" d="M827.244,1401.823a3.6,3.6,0,0,1-1.627,2.817c-.9.519-1.626.1-1.626-.939a3.6,3.6,0,0,1,1.626-2.817C826.516,1400.365,827.244,1400.786,827.244,1401.823Z" transform="translate(-811.241 -1330.49)" stroke="rgba(0,0,0,0)" stroke-width="1" fill="url(#linear-gradient)"/>
        </g>
        <g id="Group_415" data-name="Group 415" transform="translate(5.641 3.117)">
          <g id="Group_414" data-name="Group 414" transform="translate(0 41.294)">
            <path id="Path_986" data-name="Path 986" d="M651.659,1020.65a3.788,3.788,0,0,1,.036-.682,4.507,4.507,0,0,1,.165-.667,4.127,4.127,0,0,1,.654-1.22,2.962,2.962,0,0,1,.5-.5c.2-.145.39-.249.584-.372l1.161-.705c.773-.472,1.554-.929,2.332-1.393l2.345-1.37,2.358-1.347c.791-.441,1.577-.89,2.372-1.323,1.586-.874,3.18-1.734,4.8-2.551-1.517.993-3.059,1.945-4.609,2.881-.773.472-1.555.929-2.332,1.393l-2.346,1.369-2.359,1.346c-.791.441-1.577.89-2.372,1.323l-1.191.652c-.195.108-.41.214-.582.323a2.828,2.828,0,0,0-.484.426,4.092,4.092,0,0,0-.71,1.114A3.928,3.928,0,0,0,651.659,1020.65Z" transform="translate(-651.656 -1008.522)" stroke="rgba(0,0,0,0)" stroke-width="1" fill="url(#linear-gradient)"/>
          </g>
          <path id="Path_987" data-name="Path 987" d="M1135,473.129c0-.154,0-.308-.016-.461a3.679,3.679,0,0,0-.044-.458,3.075,3.075,0,0,0-.091-.45l-.061-.221c-.026-.072-.057-.141-.085-.212a2.445,2.445,0,0,0-.481-.762,2.086,2.086,0,0,0-.742-.49,2.673,2.673,0,0,0-1.759.074c-.139.06-.279.114-.416.177l-.4.216-.793.474-6.367,3.754c-1.065.626-2.113,1.252-3.2,1.87a3.465,3.465,0,0,1-1.891.464,2.174,2.174,0,0,1-.968-.323,2.226,2.226,0,0,1-.707-.734,3.632,3.632,0,0,1-.464-1.894,6.309,6.309,0,0,1,.078-.957c.051-.318.125-.614.189-.919.271-1.212.613-2.4.972-3.583.728-2.358,1.521-4.688,2.08-7.074.076-.3.139-.6.2-.9s.132-.6.179-.9l.155-.9.119-.909.03-.227.019-.228.038-.456.038-.457c.009-.152.01-.3.017-.457.009-.3.027-.611.028-.915s-.008-.607-.031-.909a8.407,8.407,0,0,0-.109-.9,5.722,5.722,0,0,0-.217-.87,2.942,2.942,0,0,0-.944-1.442,1.865,1.865,0,0,0-.777-.337,2.293,2.293,0,0,0-.865.016,4.254,4.254,0,0,0-1.615.745,7.985,7.985,0,0,0-2.351,2.753,8.334,8.334,0,0,0-.678,1.7,7.363,7.363,0,0,0-.275,1.818,7.784,7.784,0,0,1,.838-3.58,8.17,8.17,0,0,1,2.325-2.887,4.459,4.459,0,0,1,1.7-.821,2.576,2.576,0,0,1,.971-.034,2.169,2.169,0,0,1,.909.375,3.255,3.255,0,0,1,1.085,1.579,6.056,6.056,0,0,1,.247.916,8.807,8.807,0,0,1,.131.933,25.473,25.473,0,0,1-.717,7.393c-.272,1.209-.615,2.4-.971,3.581s-.734,2.356-1.093,3.531-.7,2.353-.973,3.545c-.064.3-.14.6-.187.89a5.928,5.928,0,0,0-.075.882,3.231,3.231,0,0,0,.388,1.655,1.771,1.771,0,0,0,.556.591,1.724,1.724,0,0,0,.765.262,3.04,3.04,0,0,0,1.65-.4l3.209-1.817,6.435-3.637.807-.45.42-.212c.144-.063.293-.115.439-.172a2.827,2.827,0,0,1,1.864-.021,2.2,2.2,0,0,1,.771.542,2.507,2.507,0,0,1,.475.8c.026.073.055.146.078.22l.053.227a3.127,3.127,0,0,1,.074.458,3.7,3.7,0,0,1,.026.462C1135.007,472.821,1135,472.975,1135,473.129Z" transform="translate(-1078.673 -450.496)" stroke="rgba(0,0,0,0)" stroke-width="1" opacity="0.5" fill="url(#linear-gradient)"/>
          <path id="Path_988" data-name="Path 988" d="M827.244,1401.823a3.6,3.6,0,0,1-1.627,2.817c-.9.519-1.626.1-1.626-.939a3.6,3.6,0,0,1,1.626-2.817C826.516,1400.365,827.244,1400.786,827.244,1401.823Z" transform="translate(-811.238 -1330.349)" stroke="rgba(0,0,0,0)" stroke-width="1" fill="url(#linear-gradient)"/>
        </g>
      </g>
    </g>
  </g>
</svg>
