<svg xmlns="http://www.w3.org/2000/svg" xmlns:xlink="http://www.w3.org/1999/xlink" width="105.578" height="120" viewBox="0 0 105.578 120">
  <defs>
    <linearGradient id="linear-gradient" x1="0.312" y1="0.789" x2="0.802" y2="0.265" gradientUnits="objectBoundingBox">
      <stop offset="0" stop-color="#0ecaff"/>
      <stop offset="0.105" stop-color="#00b1e3"/>
      <stop offset="1" stop-color="#0a5a71"/>
    </linearGradient>
    <linearGradient id="linear-gradient-119" x1="14.121" y1="28.501" x2="15.343" y2="28.796" gradientUnits="objectBoundingBox">
      <stop offset="0" stop-color="#00112c"/>
      <stop offset="0.226" stop-color="#00132f"/>
      <stop offset="0.42" stop-color="#001a39"/>
      <stop offset="0.601" stop-color="#00264b"/>
      <stop offset="0.775" stop-color="#003764"/>
      <stop offset="0.942" stop-color="#004d84"/>
      <stop offset="1" stop-color="#005691"/>
    </linearGradient>
    <linearGradient id="linear-gradient-120" x1="14.739" y1="29.783" x2="15.961" y2="30.079" xlink:href="#linear-gradient-119"/>
    <linearGradient id="linear-gradient-121" x1="-2.306" y1="1.971" x2="0.379" y2="0.022" gradientUnits="objectBoundingBox">
      <stop offset="0.019" stop-color="aqua"/>
      <stop offset="0.019" stop-color="#00fefe"/>
      <stop offset="0.064" stop-color="#00deed"/>
      <stop offset="0.111" stop-color="#00c5e0"/>
      <stop offset="0.16" stop-color="#00b4d6"/>
      <stop offset="0.212" stop-color="#00a9d0"/>
      <stop offset="0.271" stop-color="#00a6cf"/>
      <stop offset="0.476" stop-color="#00d7e9"/>
      <stop offset="0.627" stop-color="aqua"/>
      <stop offset="0.633" stop-color="#00e8f4"/>
      <stop offset="0.642" stop-color="#00cce7"/>
      <stop offset="0.652" stop-color="#00b6dd"/>
      <stop offset="0.663" stop-color="#00a6d6"/>
      <stop offset="0.675" stop-color="#009cd2"/>
      <stop offset="0.693" stop-color="#009ad1"/>
      <stop offset="0.721" stop-color="#00a5d6"/>
      <stop offset="0.848" stop-color="#00d5ec"/>
      <stop offset="0.945" stop-color="#00f3f9"/>
      <stop offset="1" stop-color="aqua"/>
    </linearGradient>
    <linearGradient id="linear-gradient-122" x1="-0.481" y1="0.999" x2="1.063" y2="0.313" xlink:href="#linear-gradient-121"/>
    <linearGradient id="linear-gradient-123" x1="0.803" y1="-0.005" x2="0.197" y2="1.006" gradientUnits="objectBoundingBox">
      <stop offset="0" stop-color="aqua"/>
      <stop offset="0.034" stop-color="#00e0f0"/>
      <stop offset="0.089" stop-color="#00b5db"/>
      <stop offset="0.147" stop-color="#0090c9"/>
      <stop offset="0.207" stop-color="#0071bb"/>
      <stop offset="0.27" stop-color="#005ab0"/>
      <stop offset="0.337" stop-color="#0049a8"/>
      <stop offset="0.411" stop-color="#0040a3"/>
      <stop offset="0.505" stop-color="#013da2"/>
      <stop offset="0.568" stop-color="#0041a4"/>
      <stop offset="0.635" stop-color="#004eaa"/>
      <stop offset="0.703" stop-color="#0063b4"/>
      <stop offset="0.773" stop-color="#0080c2"/>
      <stop offset="0.843" stop-color="#00a7d4"/>
      <stop offset="0.914" stop-color="#00d5ea"/>
      <stop offset="0.969" stop-color="aqua"/>
    </linearGradient>
  </defs>
  <g id="Group_419" data-name="Group 419" transform="translate(-56.662 -5.278)">
    <g id="Group_309" data-name="Group 309" transform="translate(57.229 14.3)">
      <g id="Group_302" data-name="Group 302">
        <path id="Path_406" data-name="Path 406" d="M57.232,111.446,57.247,26.5a4.962,4.962,0,0,1,3.39-4.542l31.345-8.793a5.223,5.223,0,0,1,6.581,5l.183,82.241a5.25,5.25,0,0,1-3.12,4.624l-31.4,11.834C60.809,118.124,57.177,114.967,57.232,111.446Z" transform="translate(-57.229 -12.994)" opacity="0.3" fill="url(#linear-gradient)"/>
        <path id="Path_459" data-name="Path 459" d="M57.229,108.936c.047,2.216.464,2.451,1.148,3.058.737.654,1.767.736,1.788-.731L59.85,27.056a2.286,2.286,0,0,0-1.237-2.242c-.606-.458-1.365-.8-1.366.263S57.229,108.936,57.229,108.936Z" transform="translate(-57.229 -10.933)" opacity="0.3" fill="url(#linear-gradient)"/>
        <path id="Path_460" data-name="Path 460" d="M57.232,108.612c.047,2.214.444,2.641,1.128,3.247.737.654,1.692.672,1.713-.795L59.764,27.1a2.273,2.273,0,0,0-1.194-2.246c-.606-.458-1.323-.691-1.324.371S57.232,108.612,57.232,108.612Z" transform="translate(-57.228 -10.917)" opacity="0.3" fill="url(#linear-gradient)"/>
        <g id="Group_291" data-name="Group 291" transform="translate(2.674 1.972)" opacity="0.3">
          <path id="Path_461" data-name="Path 461" d="M63.037,23.6,94.51,14.785a2.75,2.75,0,0,1,2.387.36,3.031,3.031,0,0,1,1.187,2.527l.177,82.2a5.309,5.309,0,0,1-1.045,3.053A4.984,4.984,0,0,1,95,104.711L63.607,116.543a2.848,2.848,0,0,1-2.834-.306,2.965,2.965,0,0,1-1.04-2.385l-.239-85.48a5.089,5.089,0,0,1,1.136-3.1h0A4.8,4.8,0,0,1,63.037,23.6Zm34.59,76.108L97.5,17.553a2.435,2.435,0,0,0-.9-2.036,2.1,2.1,0,0,0-1.816-.239L63.292,24.1A4.372,4.372,0,0,0,61.1,25.629a4.679,4.679,0,0,0-1.049,2.844L60.348,114a2.2,2.2,0,0,0,.725,1.772,2.235,2.235,0,0,0,2.209.171l31.366-11.822a4.561,4.561,0,0,0,2.018-1.632A4.894,4.894,0,0,0,97.628,99.712Z" transform="translate(-59.493 -14.663)" opacity="0.3" fill="url(#linear-gradient)"/>
        </g>
        <path id="Path_462" data-name="Path 462" d="M60.125,114l-.279-85.526A4.966,4.966,0,0,1,63.237,23.9l31.49-8.822a2.422,2.422,0,0,1,3.146,2.582l.164,82.206a5.253,5.253,0,0,1-3.12,4.621L63.531,116.315A2.342,2.342,0,0,1,60.125,114Z" transform="translate(-56.755 -12.637)" opacity="0.3" fill="url(#linear-gradient)"/>
        <path id="Path_463" data-name="Path 463" d="M60.5,113.6l-.254-85.587a3.918,3.918,0,0,1,2.669-3.6l31.541-8.865a1.909,1.909,0,0,1,2.479,2.033l.149,82.381a4.142,4.142,0,0,1-2.461,3.64L63.184,115.431A1.845,1.845,0,0,1,60.5,113.6Z" transform="translate(-56.682 -12.546)" opacity="0.3" fill="url(#linear-gradient)"/>
        <path id="Path_464" data-name="Path 464" d="M60.74,113.609l-.276-85.463a3.911,3.911,0,0,1,2.664-3.594L94.617,15.7a1.906,1.906,0,0,1,2.475,2.029L97.258,100a4.131,4.131,0,0,1-2.455,3.634l-31.386,11.8A1.842,1.842,0,0,1,60.74,113.609Z" transform="translate(-56.643 -12.519)" opacity="0.3" fill="url(#linear-gradient)"/>
        <g id="Group_292" data-name="Group 292" transform="translate(3.821 3.095)">
          <path id="Path_465" data-name="Path 465" d="M60.74,113.609l-.276-85.463a3.911,3.911,0,0,1,2.664-3.594L94.617,15.7a1.906,1.906,0,0,1,2.475,2.029L97.258,100a4.131,4.131,0,0,1-2.455,3.634l-31.386,11.8A1.842,1.842,0,0,1,60.74,113.609Z" transform="translate(-60.464 -15.615)" opacity="0.3" fill="url(#linear-gradient)"/>
          <path id="Path_466" data-name="Path 466" d="M60.747,113.6l-.28-85.442a3.908,3.908,0,0,1,2.662-3.593l31.478-8.846a1.9,1.9,0,0,1,2.474,2.029l.169,82.244a4.133,4.133,0,0,1-2.454,3.633l-31.375,11.8A1.841,1.841,0,0,1,60.747,113.6Z" transform="translate(-60.463 -15.612)" opacity="0.3" fill="url(#linear-gradient)"/>
          <path id="Path_467" data-name="Path 467" d="M60.752,113.587l-.283-85.422a3.91,3.91,0,0,1,2.662-3.592L94.6,15.729a1.906,1.906,0,0,1,2.474,2.029l.171,82.225a4.132,4.132,0,0,1-2.453,3.632L63.426,115.408A1.841,1.841,0,0,1,60.752,113.587Z" transform="translate(-60.463 -15.61)" opacity="0.3" fill="url(#linear-gradient)"/>
          <path id="Path_468" data-name="Path 468" d="M60.759,113.575l-.287-85.4a3.906,3.906,0,0,1,2.661-3.59l31.455-8.84a1.905,1.905,0,0,1,2.473,2.028l.175,82.2a4.127,4.127,0,0,1-2.453,3.631L63.431,115.4A1.839,1.839,0,0,1,60.759,113.575Z" transform="translate(-60.463 -15.607)" opacity="0.3" fill="url(#linear-gradient)"/>
          <path id="Path_469" data-name="Path 469" d="M60.764,113.564l-.289-85.382a3.9,3.9,0,0,1,2.66-3.588l31.443-8.837a1.9,1.9,0,0,1,2.472,2.027l.178,82.186a4.128,4.128,0,0,1-2.452,3.629l-31.34,11.784A1.839,1.839,0,0,1,60.764,113.564Z" transform="translate(-60.462 -15.605)" opacity="0.3" fill="url(#linear-gradient)"/>
          <path id="Path_470" data-name="Path 470" d="M60.771,113.552l-.293-85.361A3.9,3.9,0,0,1,63.137,24.6l31.431-8.833A1.9,1.9,0,0,1,97.039,17.8l.181,82.167a4.126,4.126,0,0,1-2.451,3.628l-31.328,11.78A1.839,1.839,0,0,1,60.771,113.552Z" transform="translate(-60.461 -15.602)" opacity="0.3" fill="url(#linear-gradient)"/>
          <path id="Path_471" data-name="Path 471" d="M60.776,113.541,60.48,28.2a3.9,3.9,0,0,1,2.659-3.586l31.419-8.831a1.9,1.9,0,0,1,2.471,2.025l.185,82.148a4.127,4.127,0,0,1-2.451,3.626L63.446,115.36A1.838,1.838,0,0,1,60.776,113.541Z" transform="translate(-60.461 -15.6)" opacity="0.3" fill="url(#linear-gradient)"/>
          <path id="Path_472" data-name="Path 472" d="M60.782,113.529l-.3-85.319a3.9,3.9,0,0,1,2.657-3.584L94.548,15.8a1.9,1.9,0,0,1,2.47,2.024l.189,82.129a4.125,4.125,0,0,1-2.449,3.625L63.451,115.348A1.838,1.838,0,0,1,60.782,113.529Z" transform="translate(-60.461 -15.597)" opacity="0.3" fill="url(#linear-gradient)"/>
          <path id="Path_473" data-name="Path 473" d="M60.788,113.518l-.3-85.3a3.9,3.9,0,0,1,2.656-3.583l31.4-8.824a1.9,1.9,0,0,1,2.468,2.024L97.2,99.945a4.122,4.122,0,0,1-2.449,3.623L63.456,115.336A1.837,1.837,0,0,1,60.788,113.518Z" transform="translate(-60.46 -15.595)" opacity="0.3" fill="url(#linear-gradient)"/>
          <path id="Path_474" data-name="Path 474" d="M60.794,113.506l-.3-85.278a3.9,3.9,0,0,1,2.655-3.582l31.385-8.82A1.9,1.9,0,0,1,97,17.85l.195,82.089a4.121,4.121,0,0,1-2.448,3.622L63.46,115.324A1.837,1.837,0,0,1,60.794,113.506Z" transform="translate(-60.459 -15.592)" opacity="0.3" fill="url(#linear-gradient)"/>
          <path id="Path_475" data-name="Path 475" d="M60.8,113.5l-.308-85.258a3.9,3.9,0,0,1,2.654-3.581L94.519,15.84a1.9,1.9,0,0,1,2.466,2.022l.2,82.07a4.118,4.118,0,0,1-2.447,3.621l-31.27,11.758A1.836,1.836,0,0,1,60.8,113.5Z" transform="translate(-60.459 -15.59)" opacity="0.3" fill="url(#linear-gradient)"/>
          <path id="Path_476" data-name="Path 476" d="M60.806,113.484l-.312-85.237a3.9,3.9,0,0,1,2.654-3.58l31.361-8.814a1.9,1.9,0,0,1,2.465,2.022l.2,82.051a4.117,4.117,0,0,1-2.446,3.619L63.471,115.3A1.836,1.836,0,0,1,60.806,113.484Z" transform="translate(-60.459 -15.587)" opacity="0.3" fill="url(#linear-gradient)"/>
          <path id="Path_477" data-name="Path 477" d="M60.812,113.473,60.5,28.256a3.9,3.9,0,0,1,2.653-3.579L94.5,15.867a1.9,1.9,0,0,1,2.465,2.021l.2,82.031a4.118,4.118,0,0,1-2.445,3.619l-31.248,11.75A1.834,1.834,0,0,1,60.812,113.473Z" transform="translate(-60.458 -15.585)" opacity="0.3" fill="url(#linear-gradient)"/>
          <path id="Path_478" data-name="Path 478" d="M60.818,113.461l-.318-85.2a3.892,3.892,0,0,1,2.651-3.576l31.338-8.807a1.9,1.9,0,0,1,2.464,2.02l.208,82.012a4.114,4.114,0,0,1-2.445,3.618L63.481,115.276A1.834,1.834,0,0,1,60.818,113.461Z" transform="translate(-60.457 -15.582)" opacity="0.3" fill="url(#linear-gradient)"/>
          <path id="Path_479" data-name="Path 479" d="M60.824,113.45,60.5,28.274a3.889,3.889,0,0,1,2.65-3.575l31.326-8.8a1.9,1.9,0,0,1,2.462,2.02l.211,81.992a4.111,4.111,0,0,1-2.444,3.615L63.485,115.264A1.833,1.833,0,0,1,60.824,113.45Z" transform="translate(-60.457 -15.58)" opacity="0.3" fill="url(#linear-gradient)"/>
          <path id="Path_480" data-name="Path 480" d="M60.83,113.439l-.325-85.156a3.892,3.892,0,0,1,2.65-3.574l31.314-8.8a1.9,1.9,0,0,1,2.461,2.018L97.145,99.9a4.11,4.11,0,0,1-2.442,3.614L63.491,115.252A1.833,1.833,0,0,1,60.83,113.439Z" transform="translate(-60.457 -15.577)" opacity="0.3" fill="url(#linear-gradient)"/>
          <path id="Path_481" data-name="Path 481" d="M60.836,113.428l-.328-85.135a3.888,3.888,0,0,1,2.649-3.573l31.3-8.8a1.9,1.9,0,0,1,2.461,2.018L97.138,99.9a4.111,4.111,0,0,1-2.441,3.613L63.5,115.239A1.831,1.831,0,0,1,60.836,113.428Z" transform="translate(-60.456 -15.575)" opacity="0.3" fill="url(#linear-gradient)"/>
          <path id="Path_482" data-name="Path 482" d="M60.842,113.416,60.511,28.3a3.888,3.888,0,0,1,2.648-3.571l31.29-8.794a1.9,1.9,0,0,1,2.46,2.017l.221,81.934a4.108,4.108,0,0,1-2.44,3.612L63.5,115.228A1.831,1.831,0,0,1,60.842,113.416Z" transform="translate(-60.455 -15.572)" opacity="0.3" fill="url(#linear-gradient)"/>
          <path id="Path_483" data-name="Path 483" d="M60.848,113.4l-.334-85.094a3.886,3.886,0,0,1,2.646-3.57l31.28-8.79A1.894,1.894,0,0,1,96.9,17.966l.224,81.916a4.106,4.106,0,0,1-2.44,3.61L63.506,115.215A1.83,1.83,0,0,1,60.848,113.4Z" transform="translate(-60.455 -15.57)" opacity="0.3" fill="url(#linear-gradient)"/>
          <path id="Path_484" data-name="Path 484" d="M60.854,113.394,60.517,28.32a3.882,3.882,0,0,1,2.644-3.569l31.268-8.787a1.893,1.893,0,0,1,2.459,2.015l.227,81.9a4.105,4.105,0,0,1-2.439,3.609L63.511,115.2A1.83,1.83,0,0,1,60.854,113.394Z" transform="translate(-60.454 -15.567)" opacity="0.3" fill="url(#linear-gradient)"/>
          <path id="Path_485" data-name="Path 485" d="M60.86,113.382,60.519,28.33a3.885,3.885,0,0,1,2.644-3.568l31.256-8.783a1.892,1.892,0,0,1,2.458,2.014l.23,81.878a4.1,4.1,0,0,1-2.438,3.607L63.515,115.191A1.828,1.828,0,0,1,60.86,113.382Z" transform="translate(-60.454 -15.565)" opacity="0.3" fill="url(#linear-gradient)"/>
          <path id="Path_486" data-name="Path 486" d="M60.866,113.371l-.344-85.032a3.881,3.881,0,0,1,2.643-3.567l31.244-8.781a1.892,1.892,0,0,1,2.457,2.015L97.1,99.864a4.1,4.1,0,0,1-2.436,3.606l-31.143,11.71A1.828,1.828,0,0,1,60.866,113.371Z" transform="translate(-60.453 -15.562)" opacity="0.3" fill="url(#linear-gradient)"/>
          <path id="Path_487" data-name="Path 487" d="M60.872,113.359l-.347-85.012a3.879,3.879,0,0,1,2.642-3.564L94.4,16.005a1.891,1.891,0,0,1,2.455,2.014l.237,81.838a4.1,4.1,0,0,1-2.435,3.6L63.526,115.168A1.827,1.827,0,0,1,60.872,113.359Z" transform="translate(-60.453 -15.56)" opacity="0.3" fill="url(#linear-gradient)"/>
          <path id="Path_488" data-name="Path 488" d="M60.878,113.349l-.35-84.992a3.878,3.878,0,0,1,2.641-3.563L94.39,16.019a1.891,1.891,0,0,1,2.455,2.012l.24,81.819a4.1,4.1,0,0,1-2.435,3.6l-31.119,11.7A1.827,1.827,0,0,1,60.878,113.349Z" transform="translate(-60.452 -15.557)" opacity="0.3" fill="url(#linear-gradient)"/>
          <path id="Path_489" data-name="Path 489" d="M60.884,113.337,60.53,28.366A3.875,3.875,0,0,1,63.171,24.8l31.21-8.772a1.889,1.889,0,0,1,2.453,2.011l.243,81.8a4.1,4.1,0,0,1-2.434,3.6l-31.107,11.7A1.826,1.826,0,0,1,60.884,113.337Z" transform="translate(-60.452 -15.555)" opacity="0.3" fill="url(#linear-gradient)"/>
          <path id="Path_490" data-name="Path 490" d="M60.89,113.326l-.357-84.951a3.877,3.877,0,0,1,2.64-3.561l31.2-8.768a1.889,1.889,0,0,1,2.452,2.011l.247,81.781a4.1,4.1,0,0,1-2.433,3.6l-31.1,11.692A1.825,1.825,0,0,1,60.89,113.326Z" transform="translate(-60.451 -15.552)" opacity="0.3" fill="url(#linear-gradient)"/>
          <path id="Path_491" data-name="Path 491" d="M60.9,113.314l-.36-84.93a3.871,3.871,0,0,1,2.638-3.558L94.361,16.06a1.889,1.889,0,0,1,2.452,2.01l.249,81.762a4.093,4.093,0,0,1-2.432,3.6L63.545,115.12A1.824,1.824,0,0,1,60.9,113.314Z" transform="translate(-60.451 -15.55)" opacity="0.3" fill="url(#linear-gradient)"/>
          <path id="Path_492" data-name="Path 492" d="M60.9,113.3l-.363-84.909a3.87,3.87,0,0,1,2.637-3.557l31.175-8.762a1.888,1.888,0,0,1,2.451,2.01l.253,81.741a4.094,4.094,0,0,1-2.431,3.6L63.551,115.108A1.824,1.824,0,0,1,60.9,113.3Z" transform="translate(-60.45 -15.547)" opacity="0.3" fill="url(#linear-gradient)"/>
          <path id="Path_493" data-name="Path 493" d="M60.907,113.291,60.542,28.4a3.868,3.868,0,0,1,2.636-3.556l31.163-8.759A1.887,1.887,0,0,1,96.79,18.1l.256,81.722a4.089,4.089,0,0,1-2.431,3.6L63.555,115.1A1.824,1.824,0,0,1,60.907,113.291Z" transform="translate(-60.45 -15.545)" opacity="0.3" fill="url(#linear-gradient)"/>
          <path id="Path_494" data-name="Path 494" d="M60.914,113.28l-.37-84.868a3.868,3.868,0,0,1,2.636-3.555L94.331,16.1a1.886,1.886,0,0,1,2.449,2.008l.259,81.7a4.088,4.088,0,0,1-2.429,3.6L63.56,115.084A1.823,1.823,0,0,1,60.914,113.28Z" transform="translate(-60.449 -15.542)" opacity="0.3" fill="url(#linear-gradient)"/>
          <path id="Path_495" data-name="Path 495" d="M60.919,113.268l-.372-84.847a3.865,3.865,0,0,1,2.635-3.554l31.139-8.753a1.886,1.886,0,0,1,2.448,2.008l.262,81.684A4.088,4.088,0,0,1,94.6,103.4L63.566,115.072A1.823,1.823,0,0,1,60.919,113.268Z" transform="translate(-60.449 -15.54)" opacity="0.3" fill="url(#linear-gradient)"/>
          <path id="Path_496" data-name="Path 496" d="M60.926,113.258,60.55,28.43a3.863,3.863,0,0,1,2.634-3.551l31.127-8.749a1.885,1.885,0,0,1,2.447,2.007L97.024,99.8a4.086,4.086,0,0,1-2.427,3.593L63.57,115.06A1.821,1.821,0,0,1,60.926,113.258Z" transform="translate(-60.448 -15.537)" opacity="0.3" fill="url(#linear-gradient)"/>
          <path id="Path_497" data-name="Path 497" d="M60.931,113.246l-.378-84.807a3.862,3.862,0,0,1,2.633-3.55L94.3,16.143a1.883,1.883,0,0,1,2.446,2.005l.269,81.645a4.085,4.085,0,0,1-2.426,3.592L63.575,115.048A1.822,1.822,0,0,1,60.931,113.246Z" transform="translate(-60.448 -15.535)" opacity="0.3" fill="url(#linear-gradient)"/>
          <path id="Path_498" data-name="Path 498" d="M60.938,113.235l-.383-84.787A3.864,3.864,0,0,1,63.188,24.9l31.1-8.742a1.883,1.883,0,0,1,2.446,2l.272,81.626a4.084,4.084,0,0,1-2.426,3.59l-31,11.658A1.82,1.82,0,0,1,60.938,113.235Z" transform="translate(-60.448 -15.532)" opacity="0.3" fill="url(#linear-gradient)"/>
          <path id="Path_499" data-name="Path 499" d="M60.943,113.223l-.385-84.765a3.86,3.86,0,0,1,2.63-3.548l31.093-8.738a1.882,1.882,0,0,1,2.445,2L97,99.782a4.08,4.08,0,0,1-2.425,3.588L63.585,115.023A1.819,1.819,0,0,1,60.943,113.223Z" transform="translate(-60.447 -15.53)" opacity="0.3" fill="url(#linear-gradient)"/>
          <path id="Path_500" data-name="Path 500" d="M60.95,113.212l-.389-84.745A3.859,3.859,0,0,1,63.19,24.92l31.081-8.736a1.882,1.882,0,0,1,2.444,2l.279,81.587a4.079,4.079,0,0,1-2.423,3.587l-30.98,11.65A1.819,1.819,0,0,1,60.95,113.212Z" transform="translate(-60.446 -15.527)" opacity="0.3" fill="url(#linear-gradient)"/>
          <path id="Path_501" data-name="Path 501" d="M60.955,113.2l-.391-84.724a3.857,3.857,0,0,1,2.628-3.545L94.261,16.2a1.882,1.882,0,0,1,2.444,2l.281,81.567a4.081,4.081,0,0,1-2.422,3.587L63.595,115A1.818,1.818,0,0,1,60.955,113.2Z" transform="translate(-60.446 -15.525)" opacity="0.3" fill="url(#linear-gradient)"/>
          <path id="Path_502" data-name="Path 502" d="M60.962,113.19l-.4-84.7a3.858,3.858,0,0,1,2.628-3.544l31.058-8.729a1.881,1.881,0,0,1,2.442,2l.285,81.548a4.077,4.077,0,0,1-2.421,3.584L63.6,114.987A1.816,1.816,0,0,1,60.962,113.19Z" transform="translate(-60.446 -15.522)" opacity="0.3" fill="url(#linear-gradient)"/>
          <path id="Path_503" data-name="Path 503" d="M60.967,113.178l-.4-84.683A3.857,3.857,0,0,1,63.2,24.952l31.046-8.726a1.88,1.88,0,0,1,2.441,2l.288,81.529a4.075,4.075,0,0,1-2.421,3.583L63.605,114.975A1.817,1.817,0,0,1,60.967,113.178Z" transform="translate(-60.445 -15.52)" opacity="0.3" fill="url(#linear-gradient)"/>
          <path id="Path_504" data-name="Path 504" d="M60.974,113.167l-.4-84.663A3.852,3.852,0,0,1,63.2,24.962L94.233,16.24a1.878,1.878,0,0,1,2.439,2l.292,81.51a4.072,4.072,0,0,1-2.42,3.581L63.61,114.963A1.815,1.815,0,0,1,60.974,113.167Z" transform="translate(-60.444 -15.517)" opacity="0.3" fill="url(#linear-gradient)"/>
          <path id="Path_505" data-name="Path 505" d="M60.979,113.155l-.4-84.643a3.851,3.851,0,0,1,2.624-3.54l31.023-8.72a1.879,1.879,0,0,1,2.439,2l.294,81.489a4.071,4.071,0,0,1-2.419,3.581L63.615,114.951A1.815,1.815,0,0,1,60.979,113.155Z" transform="translate(-60.444 -15.515)" opacity="0.3" fill="url(#linear-gradient)"/>
          <path id="Path_506" data-name="Path 506" d="M60.985,113.144l-.407-84.622A3.85,3.85,0,0,1,63.2,24.983l31.012-8.716a1.878,1.878,0,0,1,2.438,2l.3,81.47a4.071,4.071,0,0,1-2.418,3.58L63.62,114.939A1.814,1.814,0,0,1,60.985,113.144Z" transform="translate(-60.443 -15.512)" opacity="0.3" fill="url(#linear-gradient)"/>
          <path id="Path_507" data-name="Path 507" d="M60.991,113.132l-.411-84.6A3.851,3.851,0,0,1,63.2,24.994l31-8.713a1.877,1.877,0,0,1,2.436,2l.3,81.451a4.071,4.071,0,0,1-2.418,3.577l-30.9,11.619A1.814,1.814,0,0,1,60.991,113.132Z" transform="translate(-60.443 -15.51)" opacity="0.3" fill="url(#linear-gradient)"/>
          <path id="Path_508" data-name="Path 508" d="M61,113.121,60.583,28.54A3.847,3.847,0,0,1,63.2,25L94.193,16.3a1.876,1.876,0,0,1,2.436,2l.3,81.432a4.07,4.07,0,0,1-2.418,3.576L63.63,114.915A1.813,1.813,0,0,1,61,113.121Z" transform="translate(-60.442 -15.507)" opacity="0.3" fill="url(#linear-gradient)"/>
          <path id="Path_509" data-name="Path 509" d="M61,113.109l-.417-84.56a3.846,3.846,0,0,1,2.621-3.535l30.976-8.705a1.875,1.875,0,0,1,2.435,2l.308,81.414a4.069,4.069,0,0,1-2.416,3.575L63.635,114.9A1.813,1.813,0,0,1,61,113.109Z" transform="translate(-60.442 -15.505)" opacity="0.3" fill="url(#linear-gradient)"/>
          <path id="Path_510" data-name="Path 510" d="M61.009,113.1l-.42-84.54a3.845,3.845,0,0,1,2.62-3.534l30.964-8.7a1.875,1.875,0,0,1,2.434,2l.312,81.394a4.065,4.065,0,0,1-2.415,3.574L63.64,114.892A1.811,1.811,0,0,1,61.009,113.1Z" transform="translate(-60.441 -15.502)" opacity="0.3" fill="url(#linear-gradient)"/>
          <path id="Path_511" data-name="Path 511" d="M61.015,113.088l-.424-84.52a3.845,3.845,0,0,1,2.62-3.532l30.953-8.7A1.874,1.874,0,0,1,96.6,18.331l.315,81.375a4.066,4.066,0,0,1-2.414,3.573l-30.852,11.6A1.811,1.811,0,0,1,61.015,113.088Z" transform="translate(-60.441 -15.5)" opacity="0.3" fill="url(#linear-gradient)"/>
          <path id="Path_512" data-name="Path 512" d="M61.02,113.076l-.426-84.5a3.844,3.844,0,0,1,2.618-3.531l30.941-8.7a1.874,1.874,0,0,1,2.433,1.995L96.9,99.7a4.064,4.064,0,0,1-2.413,3.571l-30.842,11.6A1.811,1.811,0,0,1,61.02,113.076Z" transform="translate(-60.44 -15.497)" opacity="0.3" fill="url(#linear-gradient)"/>
          <path id="Path_513" data-name="Path 513" d="M61.027,113.065,60.6,28.587a3.84,3.84,0,0,1,2.617-3.53l30.929-8.692a1.873,1.873,0,0,1,2.432,1.994L96.9,99.693a4.059,4.059,0,0,1-2.413,3.569L63.655,114.856A1.81,1.81,0,0,1,61.027,113.065Z" transform="translate(-60.44 -15.495)" opacity="0.3" fill="url(#linear-gradient)"/>
          <path id="Path_514" data-name="Path 514" d="M61.032,113.053,60.6,28.595a3.838,3.838,0,0,1,2.616-3.528l30.917-8.69a1.872,1.872,0,0,1,2.431,1.994l.325,81.317a4.059,4.059,0,0,1-2.412,3.568L63.66,114.844A1.81,1.81,0,0,1,61.032,113.053Z" transform="translate(-60.439 -15.492)" opacity="0.3" fill="url(#linear-gradient)"/>
          <path id="Path_515" data-name="Path 515" d="M61.039,113.042,60.6,28.6a3.837,3.837,0,0,1,2.614-3.527l30.907-8.687a1.872,1.872,0,0,1,2.431,1.992l.327,81.3a4.058,4.058,0,0,1-2.41,3.568L63.664,114.832A1.809,1.809,0,0,1,61.039,113.042Z" transform="translate(-60.439 -15.49)" opacity="0.3" fill="url(#linear-gradient)"/>
          <path id="Path_516" data-name="Path 516" d="M61.044,113.03l-.439-84.417a3.837,3.837,0,0,1,2.614-3.525l30.895-8.683A1.871,1.871,0,0,1,96.543,18.4l.331,81.278a4.054,4.054,0,0,1-2.409,3.566L63.67,114.82A1.809,1.809,0,0,1,61.044,113.03Z" transform="translate(-60.438 -15.487)" opacity="0.3" fill="url(#linear-gradient)"/>
          <path id="Path_517" data-name="Path 517" d="M61.049,113.019l-.436-84.4a3.835,3.835,0,0,1,2.612-3.525l30.885-8.679a1.87,1.87,0,0,1,2.428,1.99l.327,81.264a4.056,4.056,0,0,1-2.409,3.564L63.673,114.807A1.807,1.807,0,0,1,61.049,113.019Z" transform="translate(-60.437 -15.486)" opacity="0.3" fill="url(#linear-gradient)"/>
          <path id="Path_518" data-name="Path 518" d="M61.053,113.01l-.432-84.386A3.832,3.832,0,0,1,63.232,25.1l30.875-8.677a1.869,1.869,0,0,1,2.427,1.99l.324,81.248a4.052,4.052,0,0,1-2.407,3.563L63.676,114.8A1.806,1.806,0,0,1,61.053,113.01Z" transform="translate(-60.436 -15.484)" opacity="0.3" fill="url(#linear-gradient)"/>
          <path id="Path_519" data-name="Path 519" d="M61.058,113l-.43-84.371a3.833,3.833,0,0,1,2.611-3.522L94.1,16.431a1.869,1.869,0,0,1,2.427,1.99l.32,81.234a4.052,4.052,0,0,1-2.407,3.562L63.68,114.786A1.805,1.805,0,0,1,61.058,113Z" transform="translate(-60.434 -15.482)" opacity="0.3" fill="url(#linear-gradient)"/>
          <path id="Path_520" data-name="Path 520" d="M61.062,112.988l-.426-84.356a3.832,3.832,0,0,1,2.61-3.521L94.1,16.44a1.868,1.868,0,0,1,2.426,1.989l.318,81.22a4.05,4.05,0,0,1-2.407,3.561L63.683,114.774A1.805,1.805,0,0,1,61.062,112.988Z" transform="translate(-60.433 -15.481)" opacity="0.3" fill="url(#linear-gradient)"/>
          <path id="Path_521" data-name="Path 521" d="M61.066,112.976l-.422-84.339a3.831,3.831,0,0,1,2.609-3.521L94.1,16.449a1.868,1.868,0,0,1,2.425,1.988l.314,81.206a4.051,4.051,0,0,1-2.406,3.56l-30.744,11.56A1.8,1.8,0,0,1,61.066,112.976Z" transform="translate(-60.431 -15.479)" opacity="0.3" fill="url(#linear-gradient)"/>
          <path id="Path_522" data-name="Path 522" d="M61.07,112.965l-.419-84.324a3.83,3.83,0,0,1,2.609-3.518l30.833-8.666a1.867,1.867,0,0,1,2.423,1.988l.311,81.192a4.048,4.048,0,0,1-2.4,3.558L63.69,114.751A1.8,1.8,0,0,1,61.07,112.965Z" transform="translate(-60.43 -15.478)" opacity="0.3" fill="url(#linear-gradient)"/>
          <path id="Path_523" data-name="Path 523" d="M61.075,112.956l-.416-84.309a3.828,3.828,0,0,1,2.608-3.517l30.823-8.663a1.867,1.867,0,0,1,2.423,1.987L96.82,99.63a4.047,4.047,0,0,1-2.4,3.557L63.694,114.74A1.8,1.8,0,0,1,61.075,112.956Z" transform="translate(-60.429 -15.476)" opacity="0.3" fill="url(#linear-gradient)"/>
          <path id="Path_524" data-name="Path 524" d="M61.079,112.945l-.412-84.293a3.826,3.826,0,0,1,2.607-3.517l30.812-8.659a1.866,1.866,0,0,1,2.423,1.987l.3,81.162a4.047,4.047,0,0,1-2.4,3.556L63.7,114.728A1.8,1.8,0,0,1,61.079,112.945Z" transform="translate(-60.427 -15.474)" opacity="0.3" fill="url(#linear-gradient)"/>
          <path id="Path_525" data-name="Path 525" d="M61.084,112.934l-.41-84.278a3.824,3.824,0,0,1,2.607-3.515l30.8-8.657A1.864,1.864,0,0,1,96.5,18.469l.3,81.148a4.046,4.046,0,0,1-2.4,3.555L63.7,114.717A1.8,1.8,0,0,1,61.084,112.934Z" transform="translate(-60.426 -15.473)" opacity="0.3" fill="url(#linear-gradient)"/>
          <path id="Path_526" data-name="Path 526" d="M61.088,112.923,60.682,28.66a3.824,3.824,0,0,1,2.605-3.514l30.792-8.655A1.865,1.865,0,0,1,96.5,18.477l.3,81.134a4.043,4.043,0,0,1-2.4,3.554L63.7,114.706A1.8,1.8,0,0,1,61.088,112.923Z" transform="translate(-60.425 -15.471)" opacity="0.3" fill="url(#linear-gradient)"/>
          <path id="Path_527" data-name="Path 527" d="M61.092,112.913l-.4-84.247a3.823,3.823,0,0,1,2.6-3.514L94.076,16.5a1.863,1.863,0,0,1,2.42,1.984L96.79,99.6a4.039,4.039,0,0,1-2.4,3.553L63.708,114.694A1.8,1.8,0,0,1,61.092,112.913Z" transform="translate(-60.423 -15.47)" opacity="0.3" fill="url(#linear-gradient)"/>
          <path id="Path_528" data-name="Path 528" d="M61.1,112.9,60.7,28.67a3.823,3.823,0,0,1,2.6-3.512L94.073,16.51a1.863,1.863,0,0,1,2.419,1.983L96.782,99.6a4.038,4.038,0,0,1-2.4,3.551L63.711,114.683A1.8,1.8,0,0,1,61.1,112.9Z" transform="translate(-60.422 -15.468)" opacity="0.3" fill="url(#linear-gradient)"/>
          <path id="Path_529" data-name="Path 529" d="M61.1,112.891l-.4-84.216a3.819,3.819,0,0,1,2.6-3.51l30.761-8.645A1.862,1.862,0,0,1,96.488,18.5l.287,81.091a4.04,4.04,0,0,1-2.4,3.55L63.714,114.672A1.8,1.8,0,0,1,61.1,112.891Z" transform="translate(-60.42 -15.466)" opacity="0.3" fill="url(#linear-gradient)"/>
          <path id="Path_530" data-name="Path 530" d="M61.105,112.88l-.392-84.2a3.818,3.818,0,0,1,2.6-3.509l30.751-8.643a1.862,1.862,0,0,1,2.418,1.983l.283,81.076a4.036,4.036,0,0,1-2.4,3.549L63.718,114.661A1.8,1.8,0,0,1,61.105,112.88Z" transform="translate(-60.419 -15.465)" opacity="0.3" fill="url(#linear-gradient)"/>
          <path id="Path_531" data-name="Path 531" d="M61.11,112.869l-.39-84.184a3.819,3.819,0,0,1,2.6-3.509l30.74-8.639a1.862,1.862,0,0,1,2.418,1.982l.28,81.062a4.036,4.036,0,0,1-2.4,3.548L63.721,114.648A1.8,1.8,0,0,1,61.11,112.869Z" transform="translate(-60.418 -15.463)" opacity="0.3" fill="url(#linear-gradient)"/>
          <path id="Path_532" data-name="Path 532" d="M61.113,112.859l-.385-84.17a3.815,3.815,0,0,1,2.6-3.506l30.731-8.637a1.86,1.86,0,0,1,2.415,1.981l.278,81.047a4.035,4.035,0,0,1-2.4,3.547L63.724,114.637A1.8,1.8,0,0,1,61.113,112.859Z" transform="translate(-60.416 -15.462)" opacity="0.3" fill="url(#linear-gradient)"/>
          <path id="Path_533" data-name="Path 533" d="M61.117,112.848l-.381-84.155a3.814,3.814,0,0,1,2.6-3.505l30.721-8.635a1.861,1.861,0,0,1,2.415,1.981l.274,81.033a4.037,4.037,0,0,1-2.4,3.545L63.728,114.626A1.8,1.8,0,0,1,61.117,112.848Z" transform="translate(-60.415 -15.46)" opacity="0.3" fill="url(#linear-gradient)"/>
          <path id="Path_534" data-name="Path 534" d="M61.122,112.837,60.743,28.7a3.816,3.816,0,0,1,2.6-3.505l30.71-8.631a1.859,1.859,0,0,1,2.414,1.979l.27,81.018a4.031,4.031,0,0,1-2.4,3.545l-30.61,11.51A1.8,1.8,0,0,1,61.122,112.837Z" transform="translate(-60.413 -15.459)" opacity="0.3" fill="url(#linear-gradient)"/>
          <path id="Path_535" data-name="Path 535" d="M61.127,112.826,60.751,28.7a3.815,3.815,0,0,1,2.6-3.5l30.7-8.627a1.859,1.859,0,0,1,2.414,1.978l.267,81a4.031,4.031,0,0,1-2.394,3.544L63.734,114.6A1.8,1.8,0,0,1,61.127,112.826Z" transform="translate(-60.412 -15.457)" opacity="0.3" fill="url(#linear-gradient)"/>
          <path id="Path_536" data-name="Path 536" d="M61.131,112.815l-.372-84.108a3.809,3.809,0,0,1,2.6-3.5l30.69-8.625a1.858,1.858,0,0,1,2.413,1.978l.263,80.99a4.029,4.029,0,0,1-2.394,3.542l-30.589,11.5A1.8,1.8,0,0,1,61.131,112.815Z" transform="translate(-60.411 -15.455)" opacity="0.3" fill="url(#linear-gradient)"/>
          <path id="Path_537" data-name="Path 537" d="M61.134,112.8l-.367-84.092a3.809,3.809,0,0,1,2.595-3.5l30.68-8.623a1.858,1.858,0,0,1,2.412,1.978l.261,80.974a4.029,4.029,0,0,1-2.393,3.541l-30.579,11.5A1.8,1.8,0,0,1,61.134,112.8Z" transform="translate(-60.409 -15.454)" opacity="0.3" fill="url(#linear-gradient)"/>
          <path id="Path_538" data-name="Path 538" d="M61.139,112.794l-.365-84.077a3.812,3.812,0,0,1,2.595-3.5L94.038,16.6a1.857,1.857,0,0,1,2.412,1.977l.256,80.96a4.024,4.024,0,0,1-2.392,3.54l-30.569,11.5A1.8,1.8,0,0,1,61.139,112.794Z" transform="translate(-60.408 -15.452)" opacity="0.3" fill="url(#linear-gradient)"/>
          <path id="Path_539" data-name="Path 539" d="M61.143,112.783l-.361-84.061a3.805,3.805,0,0,1,2.594-3.5l30.659-8.617a1.856,1.856,0,0,1,2.41,1.976L96.7,99.528a4.023,4.023,0,0,1-2.39,3.538L63.749,114.558A1.794,1.794,0,0,1,61.143,112.783Z" transform="translate(-60.406 -15.451)" opacity="0.3" fill="url(#linear-gradient)"/>
          <path id="Path_540" data-name="Path 540" d="M61.148,112.772,60.79,28.725a3.805,3.805,0,0,1,2.592-3.5l30.649-8.613a1.855,1.855,0,0,1,2.409,1.975l.25,80.932a4.023,4.023,0,0,1-2.39,3.537L63.752,114.547A1.793,1.793,0,0,1,61.148,112.772Z" transform="translate(-60.405 -15.449)" opacity="0.3" fill="url(#linear-gradient)"/>
          <path id="Path_541" data-name="Path 541" d="M61.152,112.762,60.8,28.731a3.807,3.807,0,0,1,2.592-3.5l30.638-8.611A1.856,1.856,0,0,1,96.437,18.6l.247,80.918a4.023,4.023,0,0,1-2.39,3.536L63.756,114.536A1.793,1.793,0,0,1,61.152,112.762Z" transform="translate(-60.404 -15.448)" opacity="0.3" fill="url(#linear-gradient)"/>
          <path id="Path_542" data-name="Path 542" d="M61.157,112.751l-.352-84.015a3.8,3.8,0,0,1,2.591-3.5l30.628-8.607a1.855,1.855,0,0,1,2.408,1.975l.243,80.9a4.021,4.021,0,0,1-2.388,3.535l-30.529,11.48A1.791,1.791,0,0,1,61.157,112.751Z" transform="translate(-60.402 -15.446)" opacity="0.3" fill="url(#linear-gradient)"/>
          <path id="Path_543" data-name="Path 543" d="M61.16,112.74l-.347-84a3.8,3.8,0,0,1,2.59-3.494l30.618-8.605a1.854,1.854,0,0,1,2.407,1.974l.24,80.888a4.019,4.019,0,0,1-2.388,3.534L63.762,114.512A1.792,1.792,0,0,1,61.16,112.74Z" transform="translate(-60.401 -15.444)" opacity="0.3" fill="url(#linear-gradient)"/>
          <path id="Path_544" data-name="Path 544" d="M61.165,112.729,60.82,28.745a3.8,3.8,0,0,1,2.59-3.494l30.608-8.6a1.853,1.853,0,0,1,2.406,1.974L96.661,99.5a4.018,4.018,0,0,1-2.387,3.532L63.766,114.5A1.791,1.791,0,0,1,61.165,112.729Z" transform="translate(-60.4 -15.443)" opacity="0.3" fill="url(#linear-gradient)"/>
          <path id="Path_545" data-name="Path 545" d="M61.169,112.718l-.341-83.968a3.8,3.8,0,0,1,2.589-3.492l30.6-8.6A1.853,1.853,0,0,1,96.42,18.63l.234,80.86a4.019,4.019,0,0,1-2.387,3.531l-30.5,11.468A1.79,1.79,0,0,1,61.169,112.718Z" transform="translate(-60.398 -15.441)" opacity="0.3" fill="url(#linear-gradient)"/>
          <path id="Path_546" data-name="Path 546" d="M61.174,112.708l-.338-83.954a3.8,3.8,0,0,1,2.588-3.49l30.586-8.6a1.851,1.851,0,0,1,2.4,1.971l.23,80.846a4.014,4.014,0,0,1-2.385,3.53L63.772,114.478A1.789,1.789,0,0,1,61.174,112.708Z" transform="translate(-60.397 -15.44)" opacity="0.3" fill="url(#linear-gradient)"/>
          <path id="Path_547" data-name="Path 547" d="M61.178,112.7l-.335-83.937a3.8,3.8,0,0,1,2.588-3.49l30.577-8.593a1.851,1.851,0,0,1,2.4,1.971l.227,80.83a4.012,4.012,0,0,1-2.385,3.529L63.776,114.467A1.789,1.789,0,0,1,61.178,112.7Z" transform="translate(-60.395 -15.438)" opacity="0.3" fill="url(#linear-gradient)"/>
          <path id="Path_548" data-name="Path 548" d="M61.182,112.686l-.331-83.922a3.8,3.8,0,0,1,2.586-3.489L94,16.684a1.851,1.851,0,0,1,2.4,1.971l.223,80.816A4.01,4.01,0,0,1,94.246,103L63.779,114.456A1.789,1.789,0,0,1,61.182,112.686Z" transform="translate(-60.394 -15.437)" opacity="0.3" fill="url(#linear-gradient)"/>
          <path id="Path_549" data-name="Path 549" d="M61.186,112.675l-.327-83.907a3.793,3.793,0,0,1,2.585-3.486L94,16.693a1.85,1.85,0,0,1,2.4,1.97l.221,80.8a4.013,4.013,0,0,1-2.383,3.527L63.783,114.444A1.788,1.788,0,0,1,61.186,112.675Z" transform="translate(-60.392 -15.435)" opacity="0.3" fill="url(#linear-gradient)"/>
          <path id="Path_550" data-name="Path 550" d="M61.191,112.665l-.325-83.893a3.794,3.794,0,0,1,2.585-3.485L94,16.7a1.85,1.85,0,0,1,2.4,1.969l.216,80.788a4.008,4.008,0,0,1-2.382,3.525L63.787,114.433A1.788,1.788,0,0,1,61.191,112.665Z" transform="translate(-60.391 -15.433)" opacity="0.3" fill="url(#linear-gradient)"/>
          <path id="Path_551" data-name="Path 551" d="M61.2,112.654l-.321-83.876a3.791,3.791,0,0,1,2.583-3.485l30.537-8.581a1.848,1.848,0,0,1,2.4,1.968l.214,80.773a4.009,4.009,0,0,1-2.381,3.524L63.79,114.422A1.787,1.787,0,0,1,61.2,112.654Z" transform="translate(-60.39 -15.432)" opacity="0.3" fill="url(#linear-gradient)"/>
          <path id="Path_552" data-name="Path 552" d="M61.2,112.643l-.318-83.861A3.792,3.792,0,0,1,63.464,25.3L93.99,16.719a1.849,1.849,0,0,1,2.4,1.968l.21,80.759a4.007,4.007,0,0,1-2.381,3.523L63.793,114.41A1.786,1.786,0,0,1,61.2,112.643Z" transform="translate(-60.388 -15.43)" opacity="0.3" fill="url(#linear-gradient)"/>
          <path id="Path_553" data-name="Path 553" d="M61.2,112.632l-.314-83.845A3.79,3.79,0,0,1,63.471,25.3l30.516-8.577a1.848,1.848,0,0,1,2.4,1.968l.207,80.744a4.008,4.008,0,0,1-2.38,3.522L63.8,114.4A1.786,1.786,0,0,1,61.2,112.632Z" transform="translate(-60.387 -15.428)" opacity="0.3" fill="url(#linear-gradient)"/>
          <path id="Path_554" data-name="Path 554" d="M61.208,112.621,60.9,28.792a3.787,3.787,0,0,1,2.581-3.482l30.505-8.573a1.847,1.847,0,0,1,2.4,1.966l.2,80.73a4,4,0,0,1-2.379,3.521L63.8,114.388A1.786,1.786,0,0,1,61.208,112.621Z" transform="translate(-60.386 -15.427)" opacity="0.3" fill="url(#linear-gradient)"/>
          <path id="Path_555" data-name="Path 555" d="M61.212,112.611,60.905,28.8a3.788,3.788,0,0,1,2.579-3.481l30.5-8.571a1.847,1.847,0,0,1,2.4,1.966l.2,80.716a4,4,0,0,1-2.379,3.519L63.8,114.375A1.784,1.784,0,0,1,61.212,112.611Z" transform="translate(-60.384 -15.425)" opacity="0.3" fill="url(#linear-gradient)"/>
          <path id="Path_556" data-name="Path 556" d="M61.217,112.6l-.3-83.8a3.786,3.786,0,0,1,2.579-3.478l30.485-8.568a1.845,1.845,0,0,1,2.4,1.965l.2,80.7a4,4,0,0,1-2.377,3.518L63.807,114.364A1.783,1.783,0,0,1,61.217,112.6Z" transform="translate(-60.383 -15.424)" opacity="0.3" fill="url(#linear-gradient)"/>
          <path id="Path_557" data-name="Path 557" d="M61.221,112.589l-.3-83.783A3.782,3.782,0,0,1,63.5,25.328l30.474-8.565a1.845,1.845,0,0,1,2.4,1.964l.194,80.687a4,4,0,0,1-2.377,3.517L63.81,114.353A1.783,1.783,0,0,1,61.221,112.589Z" transform="translate(-60.381 -15.422)" opacity="0.3" fill="url(#linear-gradient)"/>
          <path id="Path_558" data-name="Path 558" d="M61.226,112.578l-.3-83.767a3.782,3.782,0,0,1,2.577-3.477L93.97,16.772a1.843,1.843,0,0,1,2.394,1.963l.19,80.673a4,4,0,0,1-2.375,3.516L63.813,114.342A1.782,1.782,0,0,1,61.226,112.578Z" transform="translate(-60.38 -15.421)" opacity="0.3" fill="url(#linear-gradient)"/>
          <path id="Path_559" data-name="Path 559" d="M61.229,112.567l-.294-83.752a3.784,3.784,0,0,1,2.577-3.476L93.966,16.78a1.845,1.845,0,0,1,2.394,1.964L96.547,99.4a4,4,0,0,1-2.375,3.515L63.817,114.33A1.782,1.782,0,0,1,61.229,112.567Z" transform="translate(-60.379 -15.419)" opacity="0.3" fill="url(#linear-gradient)"/>
          <path id="Path_560" data-name="Path 560" d="M61.234,112.557l-.291-83.738a3.781,3.781,0,0,1,2.576-3.473l30.444-8.557a1.844,1.844,0,0,1,2.394,1.963L96.539,99.4a4,4,0,0,1-2.374,3.514L63.82,114.319A1.781,1.781,0,0,1,61.234,112.557Z" transform="translate(-60.377 -15.417)" opacity="0.3" fill="url(#linear-gradient)"/>
          <path id="Path_561" data-name="Path 561" d="M61.238,112.546l-.287-83.721a3.778,3.778,0,0,1,2.575-3.473L93.959,16.8a1.843,1.843,0,0,1,2.393,1.962l.181,80.629a4,4,0,0,1-2.374,3.512L63.823,114.308A1.781,1.781,0,0,1,61.238,112.546Z" transform="translate(-60.376 -15.416)" opacity="0.3" fill="url(#linear-gradient)"/>
          <path id="Path_562" data-name="Path 562" d="M61.243,112.535l-.285-83.706a3.78,3.78,0,0,1,2.575-3.472l30.424-8.55a1.842,1.842,0,0,1,2.392,1.961l.176,80.615a4,4,0,0,1-2.373,3.511L63.827,114.3A1.779,1.779,0,0,1,61.243,112.535Z" transform="translate(-60.375 -15.414)" opacity="0.3" fill="url(#linear-gradient)"/>
          <path id="Path_563" data-name="Path 563" d="M61.247,112.524l-.281-83.691a3.777,3.777,0,0,1,2.573-3.47l30.413-8.548a1.841,1.841,0,0,1,2.39,1.961l.174,80.6a3.993,3.993,0,0,1-2.372,3.51l-30.314,11.4A1.779,1.779,0,0,1,61.247,112.524Z" transform="translate(-60.373 -15.413)" opacity="0.3" fill="url(#linear-gradient)"/>
          <path id="Path_564" data-name="Path 564" d="M61.25,112.514l-.276-83.675a3.775,3.775,0,0,1,2.572-3.47l30.4-8.545a1.841,1.841,0,0,1,2.39,1.959l.17,80.586a3.993,3.993,0,0,1-2.372,3.51l-30.3,11.395A1.78,1.78,0,0,1,61.25,112.514Z" transform="translate(-60.372 -15.411)" opacity="0.3" fill="url(#linear-gradient)"/>
          <path id="Path_565" data-name="Path 565" d="M61.255,112.5l-.274-83.66a3.775,3.775,0,0,1,2.572-3.469l30.392-8.541a1.841,1.841,0,0,1,2.39,1.959l.167,80.57a3.993,3.993,0,0,1-2.37,3.509L63.838,114.263A1.779,1.779,0,0,1,61.255,112.5Z" transform="translate(-60.37 -15.409)" opacity="0.3" fill="url(#linear-gradient)"/>
          <path id="Path_566" data-name="Path 566" d="M61.259,112.492l-.27-83.645A3.776,3.776,0,0,1,63.56,25.38l30.382-8.538A1.839,1.839,0,0,1,96.33,18.8l.163,80.556a3.985,3.985,0,0,1-2.369,3.507L63.841,114.25A1.778,1.778,0,0,1,61.259,112.492Z" transform="translate(-60.369 -15.408)" opacity="0.3" fill="url(#linear-gradient)"/>
          <path id="Path_567" data-name="Path 567" d="M61.264,112.481,61,28.853a3.771,3.771,0,0,1,2.57-3.466L93.938,16.85a1.839,1.839,0,0,1,2.388,1.958l.159,80.542a3.985,3.985,0,0,1-2.368,3.505L63.844,114.239A1.777,1.777,0,0,1,61.264,112.481Z" transform="translate(-60.367 -15.406)" stroke="rgba(0,0,0,0)" stroke-width="1" fill="url(#linear-gradient)"/>
        </g>
        <path id="Path_568" data-name="Path 568" d="M57.711,35.223l.013,3.166a2.039,2.039,0,0,0,.665,1.3l.05.043c.367.321.664.259.661-.138l-.018-3.177a2.016,2.016,0,0,0-.664-1.289l-.05-.041C58,34.768,57.71,34.83,57.711,35.223Z" transform="translate(-57.142 -9.031)" stroke="rgba(0,0,0,0)" stroke-width="1" opacity="0.66" fill="url(#linear-gradient)"/>
        <path id="Path_569" data-name="Path 569" d="M57.741,35.244l.014,3.081a1.92,1.92,0,0,0,.629,1.227l.046.041c.347.3.628.244.626-.131l-.019-3.092a1.9,1.9,0,0,0-.628-1.218l-.046-.04C58.019,34.814,57.74,34.872,57.741,35.244Z" transform="translate(-57.136 -9.024)" stroke="rgba(0,0,0,0)" stroke-width="1" opacity="0.66" fill="url(#linear-gradient)"/>
        <path id="Path_570" data-name="Path 570" d="M57.741,35.244l.018,2.963a1.917,1.917,0,0,0,.629,1.226l.046.041c.347.3.627.244.626-.131l-.022-2.973a1.9,1.9,0,0,0-.628-1.218l-.046-.04C58.019,34.814,57.74,34.872,57.741,35.244Z" transform="translate(-57.136 -9.024)" stroke="rgba(0,0,0,0)" stroke-width="1" opacity="0.66" fill="url(#linear-gradient)"/>
        <path id="Path_571" data-name="Path 571" d="M57.789,35.349l.008,3.01a1.513,1.513,0,0,0,.5.972l.037.032c.274.241.5.194.5-.1l-.012-3.019a1.509,1.509,0,0,0-.5-.965l-.037-.032C58.009,35.008,57.788,35.054,57.789,35.349Z" transform="translate(-57.128 -8.993)" stroke="rgba(0,0,0,0)" stroke-width="1" opacity="0.66" fill="url(#linear-gradient)"/>
        <path id="Path_572" data-name="Path 572" d="M57.683,42.286l.025,9.948a1.984,1.984,0,0,0,.66,1.273l.048.041c.364.314.658.253.655-.138l-.04-9.981a1.922,1.922,0,0,0-.653-1.24l-.048-.041C57.971,41.844,57.682,41.905,57.683,42.286Z" transform="translate(-57.147 -7.751)" stroke="rgba(0,0,0,0)" stroke-width="1" opacity="0.66" fill="url(#linear-gradient)"/>
        <path id="Path_573" data-name="Path 573" d="M57.713,42.306l.026,9.865a1.875,1.875,0,0,0,.624,1.2l.046.04c.345.3.622.237.621-.131l-.043-9.9a1.811,1.811,0,0,0-.618-1.173l-.045-.039C57.986,41.889,57.712,41.947,57.713,42.306Z" transform="translate(-57.141 -7.744)" stroke="rgba(0,0,0,0)" stroke-width="1" opacity="0.66" fill="url(#linear-gradient)"/>
        <path id="Path_574" data-name="Path 574" d="M57.713,42.306l.03,9.749a1.875,1.875,0,0,0,.624,1.2l.046.039c.344.3.622.239.62-.13l-.045-9.779a1.811,1.811,0,0,0-.618-1.173l-.045-.039C57.986,41.889,57.712,41.947,57.713,42.306Z" transform="translate(-57.141 -7.744)" stroke="rgba(0,0,0,0)" stroke-width="1" opacity="0.66" fill="url(#linear-gradient)"/>
        <path id="Path_575" data-name="Path 575" d="M57.76,42.407l.021,9.8a1.478,1.478,0,0,0,.494.953l.037.032c.272.235.492.188.491-.1l-.033-9.823a1.443,1.443,0,0,0-.489-.929l-.037-.031C57.976,42.076,57.759,42.122,57.76,42.407Z" transform="translate(-57.133 -7.714)" stroke="rgba(0,0,0,0)" stroke-width="1" opacity="0.66" fill="url(#linear-gradient)"/>
        <g id="Group_293" data-name="Group 293" transform="translate(0.458 100.672)">
          <path id="Path_576" data-name="Path 576" d="M61.8,101.544c-1.4-.286-2.47-2.474-4.182-3.31A5.531,5.531,0,0,0,61.8,101.544Z" transform="translate(-57.617 -98.234)" stroke="rgba(0,0,0,0)" stroke-width="1"/>
          <path id="Path_577" data-name="Path 577" d="M61.776,101.534c-1.389-.288-2.447-2.442-4.142-3.277A5.5,5.5,0,0,0,61.776,101.534Z" transform="translate(-57.614 -98.23)" fill="#010202" stroke="rgba(0,0,0,0)" stroke-width="1"/>
          <path id="Path_578" data-name="Path 578" d="M61.751,101.525c-1.375-.291-2.423-2.412-4.1-3.244A5.478,5.478,0,0,0,61.751,101.525Z" transform="translate(-57.611 -98.225)" fill="#030304" stroke="rgba(0,0,0,0)" stroke-width="1"/>
          <path id="Path_579" data-name="Path 579" d="M61.727,101.515c-1.359-.293-2.4-2.381-4.057-3.211A5.45,5.45,0,0,0,61.727,101.515Z" transform="translate(-57.607 -98.221)" fill="#040507" stroke="rgba(0,0,0,0)" stroke-width="1"/>
          <path id="Path_580" data-name="Path 580" d="M61.7,101.505c-1.346-.3-2.379-2.349-4.016-3.178A5.419,5.419,0,0,0,61.7,101.505Z" transform="translate(-57.604 -98.217)" fill="#050709" stroke="rgba(0,0,0,0)" stroke-width="1"/>
          <path id="Path_581" data-name="Path 581" d="M61.679,101.495c-1.331-.3-2.356-2.317-3.973-3.144A5.392,5.392,0,0,0,61.679,101.495Z" transform="translate(-57.601 -98.213)" fill="#07090b" stroke="rgba(0,0,0,0)" stroke-width="1"/>
          <path id="Path_582" data-name="Path 582" d="M61.655,101.485c-1.316-.3-2.333-2.286-3.932-3.111A5.365,5.365,0,0,0,61.655,101.485Z" transform="translate(-57.598 -98.209)" fill="#080a0d" stroke="rgba(0,0,0,0)" stroke-width="1"/>
          <path id="Path_583" data-name="Path 583" d="M61.631,101.475c-1.3-.3-2.311-2.255-3.89-3.078A5.337,5.337,0,0,0,61.631,101.475Z" transform="translate(-57.595 -98.204)" fill="#090c10" stroke="rgba(0,0,0,0)" stroke-width="1"/>
          <path id="Path_584" data-name="Path 584" d="M61.607,101.466c-1.287-.3-2.288-2.224-3.848-3.045A5.316,5.316,0,0,0,61.607,101.466Z" transform="translate(-57.591 -98.2)" fill="#0b0e12" stroke="rgba(0,0,0,0)" stroke-width="1"/>
          <path id="Path_585" data-name="Path 585" d="M61.582,101.456c-1.273-.306-2.265-2.192-3.805-3.012A5.284,5.284,0,0,0,61.582,101.456Z" transform="translate(-57.588 -98.196)" fill="#0c1014" stroke="rgba(0,0,0,0)" stroke-width="1"/>
          <path id="Path_586" data-name="Path 586" d="M61.559,101.446c-1.259-.308-2.243-2.161-3.764-2.979A5.258,5.258,0,0,0,61.559,101.446Z" transform="translate(-57.585 -98.192)" fill="#0e1116" stroke="rgba(0,0,0,0)" stroke-width="1"/>
          <path id="Path_587" data-name="Path 587" d="M61.534,101.435c-1.245-.311-2.22-2.129-3.721-2.944A5.233,5.233,0,0,0,61.534,101.435Z" transform="translate(-57.582 -98.187)" fill="#0f1319" stroke="rgba(0,0,0,0)" stroke-width="1"/>
          <path id="Path_588" data-name="Path 588" d="M61.51,101.425c-1.229-.312-2.2-2.1-3.68-2.911A5.209,5.209,0,0,0,61.51,101.425Z" transform="translate(-57.578 -98.183)" fill="#10151b" stroke="rgba(0,0,0,0)" stroke-width="1"/>
          <path id="Path_589" data-name="Path 589" d="M61.487,101.416c-1.215-.315-2.175-2.068-3.639-2.879A5.189,5.189,0,0,0,61.487,101.416Z" transform="translate(-57.575 -98.179)" fill="#12171d" stroke="rgba(0,0,0,0)" stroke-width="1"/>
          <path id="Path_590" data-name="Path 590" d="M61.462,101.406c-1.2-.318-2.152-2.036-3.6-2.846A5.163,5.163,0,0,0,61.462,101.406Z" transform="translate(-57.572 -98.175)" fill="#13181f" stroke="rgba(0,0,0,0)" stroke-width="1"/>
          <path id="Path_591" data-name="Path 591" d="M61.439,101.4c-1.187-.319-2.129-2-3.555-2.812A5.133,5.133,0,0,0,61.439,101.4Z" transform="translate(-57.569 -98.171)" fill="#141a22" stroke="rgba(0,0,0,0)" stroke-width="1"/>
          <path id="Path_592" data-name="Path 592" d="M61.414,101.386c-1.173-.321-2.107-1.972-3.512-2.779A5.111,5.111,0,0,0,61.414,101.386Z" transform="translate(-57.565 -98.166)" fill="#161c24" stroke="rgba(0,0,0,0)" stroke-width="1"/>
          <path id="Path_593" data-name="Path 593" d="M61.39,101.376c-1.157-.324-2.083-1.942-3.471-2.746A5.093,5.093,0,0,0,61.39,101.376Z" transform="translate(-57.562 -98.162)" fill="#171e26" stroke="rgba(0,0,0,0)" stroke-width="1"/>
          <path id="Path_594" data-name="Path 594" d="M61.367,101.366c-1.144-.326-2.062-1.91-3.43-2.712A5.072,5.072,0,0,0,61.367,101.366Z" transform="translate(-57.559 -98.158)" fill="#181f28" stroke="rgba(0,0,0,0)" stroke-width="1"/>
          <path id="Path_595" data-name="Path 595" d="M61.342,101.357c-1.129-.328-2.038-1.879-3.387-2.68A5.051,5.051,0,0,0,61.342,101.357Z" transform="translate(-57.556 -98.154)" fill="#1a212a" stroke="rgba(0,0,0,0)" stroke-width="1"/>
          <path id="Path_596" data-name="Path 596" d="M61.318,101.347C60.2,101.016,59.3,99.5,57.973,98.7A5.031,5.031,0,0,0,61.318,101.347Z" transform="translate(-57.553 -98.15)" fill="#1b232d" stroke="rgba(0,0,0,0)" stroke-width="1"/>
          <path id="Path_597" data-name="Path 597" d="M61.294,101.336c-1.1-.332-1.994-1.816-3.3-2.612A5.012,5.012,0,0,0,61.294,101.336Z" transform="translate(-57.549 -98.145)" fill="#1c252f" stroke="rgba(0,0,0,0)" stroke-width="1"/>
          <path id="Path_598" data-name="Path 598" d="M61.27,101.326c-1.085-.334-1.971-1.785-3.261-2.579A4.991,4.991,0,0,0,61.27,101.326Z" transform="translate(-57.546 -98.141)" fill="#1e2631" stroke="rgba(0,0,0,0)" stroke-width="1"/>
          <path id="Path_599" data-name="Path 599" d="M61.246,101.316c-1.071-.337-1.948-1.753-3.22-2.546A4.978,4.978,0,0,0,61.246,101.316Z" transform="translate(-57.543 -98.137)" fill="#1f2833" stroke="rgba(0,0,0,0)" stroke-width="1"/>
          <path id="Path_600" data-name="Path 600" d="M61.222,101.307c-1.057-.34-1.926-1.723-3.178-2.513A4.966,4.966,0,0,0,61.222,101.307Z" transform="translate(-57.54 -98.133)" fill="#202a36" stroke="rgba(0,0,0,0)" stroke-width="1"/>
          <path id="Path_601" data-name="Path 601" d="M61.2,101.3c-1.043-.341-1.9-1.691-3.136-2.48A4.947,4.947,0,0,0,61.2,101.3Z" transform="translate(-57.536 -98.128)" fill="#222c38" stroke="rgba(0,0,0,0)" stroke-width="1"/>
          <path id="Path_602" data-name="Path 602" d="M61.173,101.287c-1.028-.344-1.88-1.659-3.093-2.447A4.933,4.933,0,0,0,61.173,101.287Z" transform="translate(-57.533 -98.124)" fill="#232d3a" stroke="rgba(0,0,0,0)" stroke-width="1"/>
          <path id="Path_603" data-name="Path 603" d="M61.15,101.277c-1.013-.346-1.858-1.629-3.052-2.413A4.922,4.922,0,0,0,61.15,101.277Z" transform="translate(-57.53 -98.12)" fill="#252f3c" stroke="rgba(0,0,0,0)" stroke-width="1"/>
          <path id="Path_604" data-name="Path 604" d="M61.125,101.267c-1-.347-1.835-1.6-3.01-2.38A4.911,4.911,0,0,0,61.125,101.267Z" transform="translate(-57.527 -98.116)" fill="#26313f" stroke="rgba(0,0,0,0)" stroke-width="1"/>
          <path id="Path_605" data-name="Path 605" d="M61.1,101.257c-.985-.35-1.813-1.565-2.969-2.347A4.9,4.9,0,0,0,61.1,101.257Z" transform="translate(-57.524 -98.112)" fill="#273341" stroke="rgba(0,0,0,0)" stroke-width="1"/>
          <path id="Path_606" data-name="Path 606" d="M61.078,101.248c-.971-.353-1.789-1.535-2.927-2.314A4.894,4.894,0,0,0,61.078,101.248Z" transform="translate(-57.52 -98.107)" fill="#293443" stroke="rgba(0,0,0,0)" stroke-width="1"/>
          <path id="Path_607" data-name="Path 607" d="M61.053,101.238c-.955-.355-1.767-1.5-2.884-2.281A4.883,4.883,0,0,0,61.053,101.238Z" transform="translate(-57.517 -98.103)" fill="#2a3645" stroke="rgba(0,0,0,0)" stroke-width="1"/>
          <path id="Path_608" data-name="Path 608" d="M61.03,101.228c-.942-.357-1.744-1.472-2.843-2.248A4.877,4.877,0,0,0,61.03,101.228Z" transform="translate(-57.514 -98.099)" fill="#2b3848" stroke="rgba(0,0,0,0)" stroke-width="1"/>
          <path id="Path_609" data-name="Path 609" d="M61.005,101.217c-.927-.359-1.722-1.44-2.8-2.214A4.875,4.875,0,0,0,61.005,101.217Z" transform="translate(-57.511 -98.095)" fill="#2d3a4a" stroke="rgba(0,0,0,0)" stroke-width="1"/>
          <path id="Path_610" data-name="Path 610" d="M60.981,101.207c-.912-.361-1.7-1.409-2.759-2.18A4.88,4.88,0,0,0,60.981,101.207Z" transform="translate(-57.507 -98.09)" fill="#2e3b4c" stroke="rgba(0,0,0,0)" stroke-width="1"/>
          <path id="Path_611" data-name="Path 611" d="M60.958,101.2c-.9-.364-1.677-1.378-2.718-2.148A4.883,4.883,0,0,0,60.958,101.2Z" transform="translate(-57.504 -98.086)" fill="#2f3d4e" stroke="rgba(0,0,0,0)" stroke-width="1"/>
          <path id="Path_612" data-name="Path 612" d="M60.933,101.188a16.78,16.78,0,0,1-2.675-2.115A4.889,4.889,0,0,0,60.933,101.188Z" transform="translate(-57.501 -98.082)" fill="#313f50" stroke="rgba(0,0,0,0)" stroke-width="1"/>
          <path id="Path_613" data-name="Path 613" d="M60.909,101.178A16.249,16.249,0,0,1,58.276,99.1,4.9,4.9,0,0,0,60.909,101.178Z" transform="translate(-57.498 -98.078)" fill="#324153" stroke="rgba(0,0,0,0)" stroke-width="1"/>
          <path id="Path_614" data-name="Path 614" d="M60.885,101.168a15.73,15.73,0,0,1-2.591-2.048A4.9,4.9,0,0,0,60.885,101.168Z" transform="translate(-57.494 -98.074)" fill="#334255" stroke="rgba(0,0,0,0)" stroke-width="1"/>
          <path id="Path_615" data-name="Path 615" d="M60.861,101.158a15.219,15.219,0,0,1-2.55-2.015A4.931,4.931,0,0,0,60.861,101.158Z" transform="translate(-57.491 -98.069)" fill="#354457" stroke="rgba(0,0,0,0)" stroke-width="1"/>
          <path id="Path_616" data-name="Path 616" d="M60.836,101.148a14.807,14.807,0,0,1-2.507-1.981A4.951,4.951,0,0,0,60.836,101.148Z" transform="translate(-57.488 -98.065)" fill="#364659" stroke="rgba(0,0,0,0)" stroke-width="1"/>
          <path id="Path_617" data-name="Path 617" d="M60.813,101.139a14.4,14.4,0,0,1-2.466-1.949A4.976,4.976,0,0,0,60.813,101.139Z" transform="translate(-57.485 -98.061)" fill="#37485c" stroke="rgba(0,0,0,0)" stroke-width="1"/>
          <path id="Path_618" data-name="Path 618" d="M60.788,101.129a13.843,13.843,0,0,1-2.423-1.916A5.007,5.007,0,0,0,60.788,101.129Z" transform="translate(-57.482 -98.057)" fill="#39495e" stroke="rgba(0,0,0,0)" stroke-width="1"/>
          <path id="Path_619" data-name="Path 619" d="M60.764,101.118a13.4,13.4,0,0,1-2.381-1.881A5.047,5.047,0,0,0,60.764,101.118Z" transform="translate(-57.478 -98.052)" fill="#3a4b60" stroke="rgba(0,0,0,0)" stroke-width="1"/>
          <path id="Path_620" data-name="Path 620" d="M60.741,101.108A12.987,12.987,0,0,1,58.4,99.26,5.088,5.088,0,0,0,60.741,101.108Z" transform="translate(-57.475 -98.048)" fill="#3c4d62" stroke="rgba(0,0,0,0)" stroke-width="1"/>
          <path id="Path_621" data-name="Path 621" d="M60.716,101.1a12.507,12.507,0,0,1-2.3-1.815A5.125,5.125,0,0,0,60.716,101.1Z" transform="translate(-57.472 -98.044)" fill="#3d4f65" stroke="rgba(0,0,0,0)" stroke-width="1"/>
          <path id="Path_622" data-name="Path 622" d="M60.693,101.089a12.074,12.074,0,0,1-2.257-1.782A5.2,5.2,0,0,0,60.693,101.089Z" transform="translate(-57.469 -98.04)" fill="#3e5067" stroke="rgba(0,0,0,0)" stroke-width="1"/>
          <path id="Path_623" data-name="Path 623" d="M60.668,101.079a11.659,11.659,0,0,1-2.214-1.749A5.27,5.27,0,0,0,60.668,101.079Z" transform="translate(-57.465 -98.036)" fill="#405269" stroke="rgba(0,0,0,0)" stroke-width="1"/>
          <path id="Path_624" data-name="Path 624" d="M60.644,101.069a11.214,11.214,0,0,1-2.172-1.716A5.343,5.343,0,0,0,60.644,101.069Z" transform="translate(-57.462 -98.031)" fill="#41546b" stroke="rgba(0,0,0,0)" stroke-width="1"/>
          <path id="Path_625" data-name="Path 625" d="M60.621,101.059a10.782,10.782,0,0,1-2.131-1.682A5.442,5.442,0,0,0,60.621,101.059Z" transform="translate(-57.459 -98.027)" fill="#42566e" stroke="rgba(0,0,0,0)" stroke-width="1"/>
          <path id="Path_626" data-name="Path 626" d="M60.6,101.049A10.392,10.392,0,0,1,58.507,99.4,5.56,5.56,0,0,0,60.6,101.049Z" transform="translate(-57.456 -98.023)" fill="#445770" stroke="rgba(0,0,0,0)" stroke-width="1"/>
          <path id="Path_627" data-name="Path 627" d="M60.572,101.039a10.014,10.014,0,0,1-2.047-1.616A5.683,5.683,0,0,0,60.572,101.039Z" transform="translate(-57.453 -98.019)" fill="#455972" stroke="rgba(0,0,0,0)" stroke-width="1"/>
        </g>
        <path id="Path_628" data-name="Path 628" d="M73.869,21.471a1.063,1.063,0,0,1-.692.981.532.532,0,0,1-.692-.575,1.065,1.065,0,0,1,.692-.981A.532.532,0,0,1,73.869,21.471Z" transform="translate(-54.467 -11.568)" stroke="rgba(0,0,0,0)" stroke-width="1" fill="url(#linear-gradient-119)"/>
        <path id="Path_629" data-name="Path 629" d="M79.724,19.749a1.062,1.062,0,0,1-.692.981.531.531,0,0,1-.692-.574,1.062,1.062,0,0,1,.692-.981A.531.531,0,0,1,79.724,19.749Z" transform="translate(-53.407 -11.88)" stroke="rgba(0,0,0,0)" stroke-width="1" fill="url(#linear-gradient-120)"/>
        <g id="Group_294" data-name="Group 294" transform="translate(11.072 11.706)">
          <path id="Path_630" data-name="Path 630" d="M66.8,24.157l-.194.057v-.222a.126.126,0,0,1,.094-.1l.006,0c.051-.015.093.007.093.048Z" transform="translate(-66.604 -22.728)" fill="#2cbfff" stroke="rgba(0,0,0,0)" stroke-width="1"/>
          <path id="Path_631" data-name="Path 631" d="M67.087,24.116l-.193.057v-.505a.125.125,0,0,1,.093-.1h.006c.052-.015.093.006.093.048Z" transform="translate(-66.551 -22.787)" fill="#2cbfff" stroke="rgba(0,0,0,0)" stroke-width="1"/>
          <path id="Path_632" data-name="Path 632" d="M67.376,24.074l-.193.057v-.79a.125.125,0,0,1,.093-.1h.006c.052-.015.093.006.093.048Z" transform="translate(-66.499 -22.846)" fill="#2cbfff" stroke="rgba(0,0,0,0)" stroke-width="1"/>
          <path id="Path_633" data-name="Path 633" d="M67.666,24.033l-.194.057V23.015a.126.126,0,0,1,.093-.1l.006,0c.052-.014.094.007.094.048Z" transform="translate(-66.447 -22.905)" fill="#2cbfff" stroke="rgba(0,0,0,0)" stroke-width="1"/>
        </g>
        <g id="Group_298" data-name="Group 298" transform="translate(13.643 10.919)">
          <g id="Group_295" data-name="Group 295" transform="translate(0 0.598)">
            <path id="Path_634" data-name="Path 634" d="M68.846,22.748a.045.045,0,0,1,.047.008.337.337,0,0,1,.11.267.584.584,0,0,1-.11.332c-.026.037-.067.048-.093.027a.078.078,0,0,1,0-.1.385.385,0,0,0,.072-.216.222.222,0,0,0-.072-.175.08.08,0,0,1,0-.105A.09.09,0,0,1,68.846,22.748Z" transform="translate(-68.781 -22.745)" fill="#2cbfff" stroke="rgba(0,0,0,0)" stroke-width="1"/>
          </g>
          <g id="Group_296" data-name="Group 296" transform="translate(0.211 0.3)">
            <path id="Path_635" data-name="Path 635" d="M69.025,22.5a.049.049,0,0,1,.046.008.6.6,0,0,1,.2.478,1.047,1.047,0,0,1-.2.594c-.025.037-.067.05-.092.028a.08.08,0,0,1,0-.105.842.842,0,0,0,.159-.479.486.486,0,0,0-.159-.385.078.078,0,0,1,0-.1A.082.082,0,0,1,69.025,22.5Z" transform="translate(-68.96 -22.493)" fill="#2cbfff" stroke="rgba(0,0,0,0)" stroke-width="1"/>
          </g>
          <g id="Group_297" data-name="Group 297" transform="translate(0.423)">
            <path id="Path_636" data-name="Path 636" d="M69.2,22.241a.049.049,0,0,1,.046.008.871.871,0,0,1,.285.69,1.509,1.509,0,0,1-.285.859c-.026.035-.067.048-.093.027a.083.083,0,0,1,0-.105,1.3,1.3,0,0,0,.247-.742.752.752,0,0,0-.247-.6.083.083,0,0,1,0-.105A.1.1,0,0,1,69.2,22.241Z" transform="translate(-69.138 -22.239)" fill="#2cbfff" stroke="rgba(0,0,0,0)" stroke-width="1"/>
          </g>
        </g>
        <path id="Path_637" data-name="Path 637" d="M87.454,17.567v-.152a.092.092,0,0,0-.12-.1l-1.514.445a.183.183,0,0,0-.119.17v.647a.092.092,0,0,0,.119.1l1.514-.445a.186.186,0,0,0,.12-.17v-.152l.161-.047V17.52Zm-.115.438a.133.133,0,0,1-.086.122l-.365.107v-.658l.365-.107a.066.066,0,0,1,.086.071Z" transform="translate(-52.075 -12.212)" fill="#2cbfff" stroke="rgba(0,0,0,0)" stroke-width="1"/>
        <g id="Group_299" data-name="Group 299" transform="translate(28.903 5.999)">
          <path id="Path_638" data-name="Path 638" d="M82.407,19.346,82.036,20l-.208.061.292-.491a.385.385,0,0,1-.063.024.293.293,0,0,1-.355-.309.6.6,0,0,1,.389-.552.3.3,0,0,1,.406.3A.651.651,0,0,1,82.407,19.346Zm-.083-.262a.168.168,0,0,0-.234-.171.332.332,0,0,0-.217.322c0,.146.1.224.234.18A.34.34,0,0,0,82.324,19.083Z" transform="translate(-81.702 -17.957)" fill="aqua" stroke="rgba(0,0,0,0)" stroke-width="1"/>
          <path id="Path_639" data-name="Path 639" d="M82.568,19.044a.161.161,0,0,1,.1-.148.081.081,0,0,1,.105.086.163.163,0,0,1-.105.146A.08.08,0,0,1,82.568,19.044Zm0,.624a.164.164,0,0,1,.1-.148.082.082,0,0,1,.105.085.165.165,0,0,1-.105.149A.08.08,0,0,1,82.568,19.668Z" transform="translate(-81.545 -17.925)" fill="aqua" stroke="rgba(0,0,0,0)" stroke-width="1"/>
          <path id="Path_640" data-name="Path 640" d="M83.7,19.263l-.1.031v.26l-.176.051v-.259l-.527.155.481-1.118.222-.066v.792l.1-.031Zm-.279-.1v-.6l-.286.683Z" transform="translate(-81.486 -18.029)" fill="aqua" stroke="rgba(0,0,0,0)" stroke-width="1"/>
          <path id="Path_641" data-name="Path 641" d="M84.431,18.934a.532.532,0,0,1-.358.495.256.256,0,0,1-.351-.255l.178-.054a.125.125,0,0,0,.175.119.275.275,0,0,0,.181-.261.13.13,0,0,0-.18-.139l-.3.087.33-.576-.386.112v-.183l.7-.205-.352.606A.249.249,0,0,1,84.431,18.934Z" transform="translate(-81.336 -18.073)" fill="aqua" stroke="rgba(0,0,0,0)" stroke-width="1"/>
        </g>
        <g id="Group_301" data-name="Group 301" transform="translate(8.807 12.342)">
          <path id="Path_642" data-name="Path 642" d="M65.577,23.455l-.632.185a.4.4,0,0,0-.259.366v.711a.2.2,0,0,0,.259.214l.632-.187a.4.4,0,0,0,.259-.365v-.711A.2.2,0,0,0,65.577,23.455Zm.11.876a.294.294,0,0,1-.191.272l-.469.137a.146.146,0,0,1-.191-.158v-.527a.293.293,0,0,1,.191-.272l.469-.138a.147.147,0,0,1,.191.158Z" transform="translate(-64.686 -23.444)" fill="#2cbfff" stroke="rgba(0,0,0,0)" stroke-width="1"/>
          <g id="Group_300" data-name="Group 300" transform="translate(0.18 0.402)">
            <path id="Path_643" data-name="Path 643" d="M65.152,24.534a.063.063,0,0,1-.061-.011l-.227-.188a.1.1,0,0,1,0-.138c.034-.047.089-.064.122-.035l.167.138.327-.465c.034-.047.089-.064.123-.035a.1.1,0,0,1,0,.137l-.389.552A.122.122,0,0,1,65.152,24.534Z" transform="translate(-64.838 -23.785)" fill="#2cbfff" stroke="rgba(0,0,0,0)" stroke-width="1"/>
          </g>
        </g>
      </g>
      <g id="Group_308" data-name="Group 308" transform="translate(12.098 87.361)">
        <g id="Group_303" data-name="Group 303" transform="translate(8.974 3.782)">
          <path id="Path_644" data-name="Path 644" d="M78.15,91.706l-2.682,1.02a.265.265,0,0,1-.4-.248v-.62a.627.627,0,0,1,.235-.454l1.34-1.115a.482.482,0,0,1,.325-.124l1.342.094a.251.251,0,0,1,.234.274v.621A.644.644,0,0,1,78.15,91.706Zm-1.34-1.344a.31.31,0,0,0-.094.056l-1.34,1.115a.362.362,0,0,0-.136.262v.62a.154.154,0,0,0,.229.144l2.682-1.022a.372.372,0,0,0,.229-.318V90.6a.145.145,0,0,0-.135-.158L76.9,90.347A.2.2,0,0,0,76.809,90.362Z" transform="translate(-75.071 -90.165)" fill="#8bffff" stroke="rgba(0,0,0,0)" stroke-width="1"/>
        </g>
        <g id="Group_304" data-name="Group 304" transform="translate(0.119 7.206)">
          <path id="Path_645" data-name="Path 645" d="M70.47,94.407l-1.244.474v-.168l1.244-.474a.529.529,0,0,0,.327-.454v-.313c0-.182-.146-.273-.327-.2l-2.9,1.1V94.2l2.9-1.1a.331.331,0,0,1,.495.309v.313A.8.8,0,0,1,70.47,94.407Z" transform="translate(-67.573 -93.065)" fill="#8bffff" stroke="rgba(0,0,0,0)" stroke-width="1"/>
        </g>
        <g id="Group_305" data-name="Group 305" transform="translate(16.955 1.052)">
          <path id="Path_646" data-name="Path 646" d="M84.984,89.057l-3.156,1.2v-1.2l3.156-1.2ZM82,90.026l2.82-1.074v-.866L82,89.16Z" transform="translate(-81.828 -87.854)" fill="#8bffff" stroke="rgba(0,0,0,0)" stroke-width="1"/>
        </g>
        <g id="Group_306" data-name="Group 306" transform="translate(17.714)">
          <path id="Path_647" data-name="Path 647" d="M85.626,88.166l-.616.235v-.169l.448-.171V87.2l-2.82,1.073v.463l-.168.064v-.632l3.155-1.2Z" transform="translate(-82.471 -86.964)" fill="#8bffff" stroke="rgba(0,0,0,0)" stroke-width="1"/>
        </g>
        <g id="Group_307" data-name="Group 307" transform="translate(0 7.735)">
          <path id="Path_648" data-name="Path 648" d="M68,94.584l-.532-.333L68,93.513l.119.074-.414.574.414.259Z" transform="translate(-67.472 -93.513)" fill="#8bffff" stroke="rgba(0,0,0,0)" stroke-width="1"/>
        </g>
      </g>
    </g>
    <g id="Group_321" data-name="Group 321" transform="translate(71.939 47.242)">
      <g id="Group_310" data-name="Group 310">
        <path id="Path_650" data-name="Path 650" d="M75.874,57.372a.64.64,0,0,0,.671.139,1.354,1.354,0,0,0,.687-.576l4.422-6.849A1.48,1.48,0,0,0,81.7,48.34c-.366-.36-.98-.161-1.37.445l-3.718,5.776L74.395,52.4c-.366-.358-.976-.159-1.359.441A1.469,1.469,0,0,0,73,54.574Z" transform="translate(-69.131 -39.569)" stroke="rgba(0,0,0,0)" stroke-width="1" fill="url(#linear-gradient-121)"/>
        <path id="Path_651" data-name="Path 651" d="M84.884,44.255c-1.455.476-2.6-.648-2.553-2.512.015-.609-.358-.978-.834-.821l-7.248,2.39a1.524,1.524,0,0,0-.875,1.379A4.649,4.649,0,0,1,70.7,48.9a1.505,1.505,0,0,0-.867,1.366l-.151,9.32c-.039,2.381,1.2,4.443,3.684,6.134a15.54,15.54,0,0,0,3.569,1.788.614.614,0,0,0,.377-.007,1.016,1.016,0,0,0,.381-.234,40.735,40.735,0,0,0,3.712-4.112c2.618-3.334,3.985-6.251,4.051-8.658l.256-9.425C85.732,44.466,85.36,44.1,84.884,44.255ZM83.749,55.05c-.085,3.283-4.333,8.152-6.386,10.185-1.988-.743-6.049-2.937-5.991-6.191l.145-8.351a7.971,7.971,0,0,0,3.458-5.439l5.695-1.872c.292,2.077,1.6,3.362,3.3,3.242Z" transform="translate(-69.684 -40.886)" stroke="rgba(0,0,0,0)" stroke-width="1" fill="url(#linear-gradient-122)"/>
      </g>
      <g id="Group_320" data-name="Group 320" transform="translate(7.622 28.338)">
        <g id="Group_313" data-name="Group 313">
          <g id="Group_311" data-name="Group 311">
            <path id="Path_652" data-name="Path 652" d="M76.225,65.366a.285.285,0,0,1-.087-.2.281.281,0,0,1,.561-.017.278.278,0,0,1-.272.288A.283.283,0,0,1,76.225,65.366Z" transform="translate(-76.138 -64.881)" fill="aqua" stroke="rgba(0,0,0,0)" stroke-width="1"/>
          </g>
          <g id="Group_312" data-name="Group 312" transform="translate(0.001 1.474)">
            <path id="Path_653" data-name="Path 653" d="M76.156,81.144a.281.281,0,0,1,.28-.281h0a.28.28,0,0,1,.281.281h0a.281.281,0,0,1-.28.281h0a.28.28,0,0,1-.193-.077h0A.28.28,0,0,1,76.156,81.144Zm0-1.473a.281.281,0,0,1,.281-.281h0a.28.28,0,0,1,.281.28h0a.28.28,0,0,1-.281.281h0a.276.276,0,0,1-.193-.077h0A.277.277,0,0,1,76.153,79.671Zm0-1.474a.281.281,0,0,1,.28-.281h0a.28.28,0,0,1,.281.281h0a.28.28,0,0,1-.28.281h0a.28.28,0,0,1-.193-.077h0A.28.28,0,0,1,76.152,78.2Zm0-1.473a.281.281,0,0,1,.28-.282h0a.282.282,0,0,1,.281.281h0a.281.281,0,0,1-.28.281h0a.272.272,0,0,1-.193-.077h0A.277.277,0,0,1,76.151,76.724Zm0-1.474a.282.282,0,0,1,.281-.281h0a.281.281,0,0,1,.281.28h0a.28.28,0,0,1-.281.281h0a.275.275,0,0,1-.193-.076h0A.282.282,0,0,1,76.148,75.25Zm0-1.474a.282.282,0,0,1,.28-.281h0a.28.28,0,0,1,.281.281h0a.281.281,0,0,1-.28.281h0a.28.28,0,0,1-.193-.077h0A.278.278,0,0,1,76.147,73.776Zm0-1.473a.279.279,0,0,1,.28-.281h0a.281.281,0,0,1,.281.28h0a.28.28,0,0,1-.281.281h0a.281.281,0,0,1-.193-.076h0A.276.276,0,0,1,76.146,72.3Zm0-1.474a.281.281,0,0,1,.281-.281h0a.28.28,0,0,1,.28.281h0a.28.28,0,0,1-.28.281h0a.282.282,0,0,1-.193-.077h0A.28.28,0,0,1,76.144,70.83Zm0-1.473a.28.28,0,0,1,.28-.281h0a.28.28,0,0,1,.281.28h0a.281.281,0,0,1-.28.281h0a.279.279,0,0,1-.193-.076h0A.282.282,0,0,1,76.143,69.357Zm0-1.474a.282.282,0,0,1,.281-.281h0a.281.281,0,0,1,.281.281h0a.281.281,0,0,1-.281.281h0a.282.282,0,0,1-.193-.077h0A.284.284,0,0,1,76.14,67.883Zm0-1.474a.28.28,0,0,1,.28-.28h0a.281.281,0,0,1,.282.28h0a.282.282,0,0,1-.281.281h0a.277.277,0,0,1-.193-.077h0A.278.278,0,0,1,76.139,66.409Z" transform="translate(-76.139 -66.129)" fill="aqua" stroke="rgba(0,0,0,0)" stroke-width="1"/>
          </g>
        </g>
        <g id="Group_316" data-name="Group 316" transform="translate(0.02 16.203)">
          <g id="Group_314" data-name="Group 314">
            <path id="Path_654" data-name="Path 654" d="M76.244,79.085a.283.283,0,0,1-.089-.2.282.282,0,0,1,.272-.289.289.289,0,0,1,.2.076.281.281,0,0,1-.385.41Z" transform="translate(-76.155 -78.6)" fill="aqua" stroke="rgba(0,0,0,0)" stroke-width="1"/>
          </g>
          <g id="Group_315" data-name="Group 315" transform="translate(0.001 1.473)">
            <path id="Path_655" data-name="Path 655" d="M76.173,94.863a.281.281,0,0,1,.281-.281h0a.281.281,0,0,1,.281.281h0a.281.281,0,0,1-.281.281h0a.282.282,0,0,1-.192-.077h0A.28.28,0,0,1,76.173,94.863Zm0-1.473a.282.282,0,0,1,.281-.282h0a.28.28,0,0,1,.28.281h0a.28.28,0,0,1-.28.281h0a.274.274,0,0,1-.193-.077h0A.277.277,0,0,1,76.171,93.39Zm0-1.474a.28.28,0,0,1,.28-.281h0a.281.281,0,0,1,.281.281h0a.28.28,0,0,1-.281.28h0a.281.281,0,0,1-.193-.076h0A.274.274,0,0,1,76.17,91.916Zm0-1.474a.282.282,0,0,1,.281-.281h0a.281.281,0,0,1,.281.281h0a.281.281,0,0,1-.281.281h0a.282.282,0,0,1-.193-.077h0A.278.278,0,0,1,76.168,90.442Zm0-1.473a.281.281,0,0,1,.28-.281h0a.28.28,0,0,1,.281.28h0a.279.279,0,0,1-.28.281h0a.279.279,0,0,1-.193-.076h0A.282.282,0,0,1,76.167,88.969Zm0-1.474a.282.282,0,0,1,.281-.281h0a.281.281,0,0,1,.281.281h0a.281.281,0,0,1-.281.281h0a.282.282,0,0,1-.193-.077h0A.28.28,0,0,1,76.164,87.5Zm0-1.473a.28.28,0,0,1,.28-.281h0a.281.281,0,0,1,.282.28h0a.281.281,0,0,1-.281.281h0a.281.281,0,0,1-.193-.076h0A.282.282,0,0,1,76.163,86.023Zm0-1.474a.281.281,0,0,1,.28-.281h0a.281.281,0,0,1,.281.281h0a.281.281,0,0,1-.28.281h0a.28.28,0,0,1-.193-.077h0A.28.28,0,0,1,76.162,84.549Zm0-1.473a.281.281,0,0,1,.281-.282h0a.282.282,0,0,1,.281.281h0a.281.281,0,0,1-.281.281h0a.286.286,0,0,1-.193-.076h0A.282.282,0,0,1,76.16,83.076Zm0-1.474a.28.28,0,0,1,.28-.281h0a.28.28,0,0,1,.281.281h0a.279.279,0,0,1-.28.28h0a.273.273,0,0,1-.193-.076h0A.28.28,0,0,1,76.158,81.6Zm0-1.474a.282.282,0,0,1,.281-.281h0a.282.282,0,0,1,.281.281h0a.281.281,0,0,1-.28.281h0a.285.285,0,0,1-.194-.077h0A.278.278,0,0,1,76.156,80.128Z" transform="translate(-76.156 -79.847)" fill="aqua" stroke="rgba(0,0,0,0)" stroke-width="1"/>
          </g>
        </g>
        <g id="Group_319" data-name="Group 319" transform="translate(0.056 32.428)">
          <g id="Group_317" data-name="Group 317">
            <path id="Path_656" data-name="Path 656" d="M76.274,92.823a.281.281,0,0,1-.089-.2.28.28,0,0,1,.272-.289.281.281,0,0,1,.018.562A.28.28,0,0,1,76.274,92.823Z" transform="translate(-76.185 -92.338)" fill="aqua" stroke="rgba(0,0,0,0)" stroke-width="1"/>
          </g>
          <g id="Group_318" data-name="Group 318" transform="translate(0.001 1.474)">
            <path id="Path_657" data-name="Path 657" d="M76.2,108.6a.281.281,0,0,1,.281-.281h0a.282.282,0,0,1,.281.281h0a.281.281,0,0,1-.281.281h0a.276.276,0,0,1-.193-.077h0A.278.278,0,0,1,76.2,108.6Zm0-1.473a.281.281,0,0,1,.28-.281h0a.28.28,0,0,1,.281.28h0a.28.28,0,0,1-.28.281h0a.279.279,0,0,1-.193-.076h0A.282.282,0,0,1,76.2,107.128Zm0-1.474a.28.28,0,0,1,.28-.281h0a.281.281,0,0,1,.281.281h0a.281.281,0,0,1-.281.281h0a.282.282,0,0,1-.193-.077h0A.273.273,0,0,1,76.2,105.654Zm0-1.473a.28.28,0,0,1,.281-.281h0a.279.279,0,0,1,.28.28h0a.278.278,0,0,1-.28.281h0a.281.281,0,0,1-.192-.076h0A.282.282,0,0,1,76.2,104.181Zm0-1.474a.28.28,0,0,1,.28-.281h0a.281.281,0,0,1,.281.281h0a.281.281,0,0,1-.28.281h0a.28.28,0,0,1-.193-.077h0A.275.275,0,0,1,76.2,102.707Zm0-1.473a.281.281,0,0,1,.281-.281h0a.28.28,0,0,1,.281.28h0a.281.281,0,0,1-.281.281h0a.277.277,0,0,1-.193-.077h0A.277.277,0,0,1,76.194,101.234Zm0-1.474a.281.281,0,0,1,.28-.281h0a.282.282,0,0,1,.282.281h0a.281.281,0,0,1-.281.28h0a.276.276,0,0,1-.193-.076h0A.28.28,0,0,1,76.193,99.76Zm0-1.474a.283.283,0,0,1,.281-.281h0a.282.282,0,0,1,.281.281h0a.281.281,0,0,1-.28.281h0a.277.277,0,0,1-.194-.077h0A.282.282,0,0,1,76.191,98.287Zm0-1.473a.281.281,0,0,1,.281-.281h0a.281.281,0,0,1,.281.28h0a.281.281,0,0,1-.281.281h0a.279.279,0,0,1-.193-.076h0A.282.282,0,0,1,76.19,96.814Zm0-1.474a.282.282,0,0,1,.28-.281h0a.281.281,0,0,1,.281.281h0a.28.28,0,0,1-.28.281h0a.277.277,0,0,1-.193-.077h0A.28.28,0,0,1,76.188,95.34Zm0-1.473a.281.281,0,0,1,.281-.281h0a.281.281,0,0,1,.281.28h0a.28.28,0,0,1-.281.281h0a.281.281,0,0,1-.193-.076h0A.282.282,0,0,1,76.186,93.867Z" transform="translate(-76.186 -93.586)" fill="aqua" stroke="rgba(0,0,0,0)" stroke-width="1"/>
          </g>
        </g>
      </g>
    </g>
    <g id="Group_331" data-name="Group 331" transform="translate(79.569 5.778)">
      <g id="Group_330" data-name="Group 330">
        <g id="Group_323" data-name="Group 323">
          <g id="Group_322" data-name="Group 322">
            <path id="Path_663" data-name="Path 663" d="M76.154,14.9a.281.281,0,0,1,.28-.281h0a.281.281,0,0,1,.281.281h0a.281.281,0,0,1-.28.281h0a.28.28,0,0,1-.193-.077h0A.28.28,0,0,1,76.154,14.9Zm0-1.473a.281.281,0,0,1,.281-.281h0a.281.281,0,0,1,.281.28h0a.28.28,0,0,1-.281.281h0a.281.281,0,0,1-.193-.076h0A.282.282,0,0,1,76.152,13.426Zm0-1.474a.281.281,0,0,1,.28-.281h0a.28.28,0,0,1,.281.281h0a.28.28,0,0,1-.28.281h0a.28.28,0,0,1-.193-.077h0A.278.278,0,0,1,76.151,11.952Zm0-1.473a.279.279,0,0,1,.28-.281h0a.28.28,0,0,1,.281.28h0a.281.281,0,0,1-.28.281h0a.277.277,0,0,1-.193-.076h0A.282.282,0,0,1,76.15,10.48Zm0-1.474a.282.282,0,0,1,.281-.281h0a.281.281,0,0,1,.281.281h0a.282.282,0,0,1-.281.281h0a.282.282,0,0,1-.193-.077h0A.28.28,0,0,1,76.147,9.006Zm0-1.473a.28.28,0,0,1,.28-.281h0a.279.279,0,0,1,.281.28h0a.281.281,0,0,1-.28.281h0a.28.28,0,0,1-.193-.077h0A.277.277,0,0,1,76.146,7.533Zm0-1.474a.279.279,0,0,1,.28-.281h0a.281.281,0,0,1,.281.28h0a.28.28,0,0,1-.281.281h0a.275.275,0,0,1-.193-.076h0A.274.274,0,0,1,76.145,6.059Z" transform="translate(-76.145 -5.778)" fill="aqua" stroke="rgba(0,0,0,0)" stroke-width="1"/>
          </g>
        </g>
        <g id="Group_326" data-name="Group 326" transform="translate(0.012 8.835)">
          <g id="Group_324" data-name="Group 324">
            <path id="Path_664" data-name="Path 664" d="M76.244,13.744a.283.283,0,0,1-.089-.2.282.282,0,0,1,.272-.289.285.285,0,0,1,.2.077.277.277,0,0,1,.087.195.281.281,0,0,1-.472.214Z" transform="translate(-76.155 -13.259)" fill="aqua" stroke="rgba(0,0,0,0)" stroke-width="1"/>
          </g>
          <g id="Group_325" data-name="Group 325" transform="translate(0.001 1.474)">
            <path id="Path_665" data-name="Path 665" d="M76.173,29.522a.281.281,0,0,1,.281-.281h0a.281.281,0,0,1,.281.281h0a.281.281,0,0,1-.281.281h0a.282.282,0,0,1-.192-.077h0A.28.28,0,0,1,76.173,29.522Zm0-1.473a.28.28,0,0,1,.281-.281h0a.279.279,0,0,1,.28.28h0a.28.28,0,0,1-.28.281h0a.274.274,0,0,1-.193-.077h0A.277.277,0,0,1,76.171,28.049Zm0-1.474a.28.28,0,0,1,.28-.281h0a.281.281,0,0,1,.281.281h0a.282.282,0,0,1-.281.281h0a.282.282,0,0,1-.193-.077h0A.274.274,0,0,1,76.17,26.575Zm0-1.473a.282.282,0,0,1,.281-.282h0a.282.282,0,0,1,.281.281h0a.281.281,0,0,1-.281.281h0a.282.282,0,0,1-.193-.077h0A.277.277,0,0,1,76.168,25.1Zm0-1.474a.281.281,0,0,1,.28-.281h0a.28.28,0,0,1,.281.28h0a.279.279,0,0,1-.28.281h0a.273.273,0,0,1-.193-.076h0A.282.282,0,0,1,76.167,23.628Zm0-1.474a.283.283,0,0,1,.281-.281h0a.281.281,0,0,1,.281.281h0a.281.281,0,0,1-.281.281h0a.282.282,0,0,1-.193-.077h0A.278.278,0,0,1,76.164,22.154Zm0-1.473a.28.28,0,0,1,.28-.281h0a.282.282,0,0,1,.282.28h0a.281.281,0,0,1-.281.281h0a.281.281,0,0,1-.193-.076h0A.282.282,0,0,1,76.163,20.681Zm0-1.474a.281.281,0,0,1,.28-.281h0a.281.281,0,0,1,.281.281h0a.281.281,0,0,1-.28.281h0a.28.28,0,0,1-.193-.077h0A.28.28,0,0,1,76.162,19.208Zm0-1.473a.28.28,0,0,1,.281-.281h0a.281.281,0,0,1,.281.28h0a.281.281,0,0,1-.281.281h0a.281.281,0,0,1-.193-.076h0A.282.282,0,0,1,76.16,17.735Zm0-1.474a.281.281,0,0,1,.28-.281h0a.28.28,0,0,1,.281.281h0a.281.281,0,0,1-.28.281h0a.28.28,0,0,1-.193-.077h0A.28.28,0,0,1,76.158,16.261Zm0-1.474a.281.281,0,0,1,.281-.28h0a.28.28,0,0,1,.281.28h0a.281.281,0,0,1-.28.281h0a.279.279,0,0,1-.194-.077h0A.278.278,0,0,1,76.156,14.787Z" transform="translate(-76.156 -14.507)" fill="aqua" stroke="rgba(0,0,0,0)" stroke-width="1"/>
          </g>
        </g>
        <g id="Group_329" data-name="Group 329" transform="translate(0.047 25.06)">
          <g id="Group_327" data-name="Group 327">
            <path id="Path_666" data-name="Path 666" d="M76.274,27.482a.281.281,0,0,1-.089-.2A.28.28,0,0,1,76.457,27a.28.28,0,0,1,.289.273.28.28,0,0,1-.472.213Z" transform="translate(-76.185 -26.997)" fill="aqua" stroke="rgba(0,0,0,0)" stroke-width="1"/>
          </g>
          <g id="Group_328" data-name="Group 328" transform="translate(0.001 1.474)">
            <path id="Path_667" data-name="Path 667" d="M76.2,43.26a.281.281,0,0,1,.281-.281h0a.282.282,0,0,1,.281.281h0a.281.281,0,0,1-.281.281h0a.281.281,0,0,1-.193-.076h0A.283.283,0,0,1,76.2,43.26Zm0-1.473a.281.281,0,0,1,.28-.281h0a.28.28,0,0,1,.281.28h0a.282.282,0,0,1-.28.282h0a.28.28,0,0,1-.193-.077h0A.28.28,0,0,1,76.2,41.787Zm0-1.474a.28.28,0,0,1,.28-.281h0a.282.282,0,0,1,.281.281h0a.281.281,0,0,1-.281.281h0a.277.277,0,0,1-.193-.077h0A.273.273,0,0,1,76.2,40.313Zm0-1.473a.28.28,0,0,1,.281-.281h0a.28.28,0,0,1,.28.28h0a.279.279,0,0,1-.28.281h0a.281.281,0,0,1-.192-.076h0A.28.28,0,0,1,76.2,38.84Zm0-1.474a.28.28,0,0,1,.28-.281h0a.281.281,0,0,1,.281.281h0a.281.281,0,0,1-.28.281h0a.28.28,0,0,1-.193-.077h0A.274.274,0,0,1,76.2,37.366Zm0-1.473a.281.281,0,0,1,.281-.281h0a.281.281,0,0,1,.281.28h0a.28.28,0,0,1-.281.281h0a.281.281,0,0,1-.193-.076h0A.282.282,0,0,1,76.194,35.893Zm0-1.474a.281.281,0,0,1,.28-.281h0a.282.282,0,0,1,.282.281h0a.282.282,0,0,1-.281.281h0a.282.282,0,0,1-.193-.077h0A.28.28,0,0,1,76.193,34.419Zm0-1.473a.281.281,0,0,1,.281-.281h0a.28.28,0,0,1,.281.28h0a.281.281,0,0,1-.28.281h0a.277.277,0,0,1-.194-.077h0A.282.282,0,0,1,76.191,32.947Zm0-1.474a.281.281,0,0,1,.281-.281h0a.281.281,0,0,1,.281.281h0a.281.281,0,0,1-.281.28h0a.273.273,0,0,1-.193-.076h0A.28.28,0,0,1,76.19,31.473Zm0-1.474a.282.282,0,0,1,.28-.281h0a.281.281,0,0,1,.281.281h0a.28.28,0,0,1-.28.281h0a.277.277,0,0,1-.193-.077h0A.278.278,0,0,1,76.188,30Zm0-1.473a.282.282,0,0,1,.281-.281h0a.281.281,0,0,1,.281.28h0a.28.28,0,0,1-.281.281h0a.275.275,0,0,1-.193-.076h0A.28.28,0,0,1,76.186,28.526Z" transform="translate(-76.186 -28.245)" fill="aqua" stroke="rgba(0,0,0,0)" stroke-width="1"/>
          </g>
        </g>
      </g>
    </g>
    <g id="Group_343" data-name="Group 343" transform="translate(72.486 7.364)">
      <path id="Path_715" data-name="Path 715" d="M77.9,15.714c-4.277,0-7.756-1.927-7.756-4.3s3.479-4.3,7.756-4.3,7.756,1.927,7.756,4.3S82.179,15.714,77.9,15.714Zm0-8.3c-4.114,0-7.461,1.8-7.461,4s3.347,4,7.461,4,7.461-1.794,7.461-4S82.016,7.416,77.9,7.416Z" transform="translate(-70.147 -7.121)" stroke="rgba(0,0,0,0)" stroke-width="1" fill="url(#linear-gradient-123)"/>
    </g>
    <path id="Union_2" data-name="Union 2" d="M633.92,210.571a3.755,3.755,0,0,1-2.4-1.051,3.12,3.12,0,0,1-.823-2.23,4.943,4.943,0,0,1,.8-2.659,8.7,8.7,0,0,1,2.269-2.363,3.135,3.135,0,0,1-2.41-3.254,4.994,4.994,0,0,1,.786-2.607,8.307,8.307,0,0,1,2.257-2.371,11.791,11.791,0,0,1,3.4-1.686,7.536,7.536,0,0,1,4.681-.317,2.525,2.525,0,0,1,1.736,2.643,4.8,4.8,0,0,1-.659,2.258,8.752,8.752,0,0,1-2,2.39,4.5,4.5,0,0,1,2.524,1.159,3.1,3.1,0,0,1,.8,2.223,5.476,5.476,0,0,1-.838,2.784,9.02,9.02,0,0,1-2.459,2.633,13.206,13.206,0,0,1-3.9,1.934,10.327,10.327,0,0,1-3.087.553A5.941,5.941,0,0,1,633.92,210.571Zm2.067-6.616a3.56,3.56,0,0,0-.318,1.458,1.216,1.216,0,0,0,.6,1.167,2,2,0,0,0,1.584.014,3.077,3.077,0,0,0,1.534-.981,2.219,2.219,0,0,0,.521-1.4,1.3,1.3,0,0,0-.456-1.138,3.293,3.293,0,0,0-1.545-.421l-.964-.039A4.316,4.316,0,0,0,635.987,203.954Zm1.839-8.432a2.489,2.489,0,0,0-1.193.762,1.909,1.909,0,0,0-.431,1.261,1.485,1.485,0,0,0,.329,1.017,1.81,1.81,0,0,0,1.09.5l.609.053a4.29,4.29,0,0,0,.914-1.351,3.692,3.692,0,0,0,.228-1.282,1.055,1.055,0,0,0-.392-.935.9.9,0,0,0-.519-.142A2.132,2.132,0,0,0,637.826,195.523Zm-18.232,9.727,2.484-3.11-3.423.67,1.294-4.187,3.018.619-.609-3.162,4.158-1.324-.608,3.55,2.991-2.557,1.294,3.363-3.4,1.526,2.511,1.5-3.372,3.467-1.5-2.558-1.472,3.528Zm29.515.487a3.746,3.746,0,0,1-2.4-1.051,3.116,3.116,0,0,1-.823-2.23,4.944,4.944,0,0,1,.8-2.659,8.7,8.7,0,0,1,2.27-2.363,3.135,3.135,0,0,1-2.411-3.254,5,5,0,0,1,.786-2.606,8.3,8.3,0,0,1,2.259-2.371,11.777,11.777,0,0,1,3.4-1.686,7.537,7.537,0,0,1,4.681-.318,2.526,2.526,0,0,1,1.735,2.643,4.812,4.812,0,0,1-.658,2.258,8.739,8.739,0,0,1-2,2.389,4.5,4.5,0,0,1,2.524,1.159,3.1,3.1,0,0,1,.8,2.224,5.475,5.475,0,0,1-.838,2.784,9.032,9.032,0,0,1-2.46,2.633,13.163,13.163,0,0,1-3.9,1.934,10.3,10.3,0,0,1-3.086.553A5.962,5.962,0,0,1,649.109,205.736Zm2.067-6.616a3.565,3.565,0,0,0-.318,1.458,1.214,1.214,0,0,0,.6,1.167,2,2,0,0,0,1.585.014,3.08,3.08,0,0,0,1.534-.981,2.225,2.225,0,0,0,.52-1.4,1.3,1.3,0,0,0-.456-1.138,3.283,3.283,0,0,0-1.546-.422l-.964-.038A4.322,4.322,0,0,0,651.176,199.12Zm1.839-8.431a2.488,2.488,0,0,0-1.193.762,1.915,1.915,0,0,0-.432,1.261,1.477,1.477,0,0,0,.331,1.017,1.8,1.8,0,0,0,1.089.5l.609.053a4.307,4.307,0,0,0,.914-1.351,3.679,3.679,0,0,0,.227-1.282,1.053,1.053,0,0,0-.392-.935.9.9,0,0,0-.518-.142A2.131,2.131,0,0,0,653.015,190.689Zm10.042,8.98q-1.8-1.735-1.8-5.979a13.069,13.069,0,0,1,1.8-7.1,9.17,9.17,0,0,1,5.149-3.92q3.346-1.065,5.147.644t1.8,5.953a13.188,13.188,0,0,1-1.8,7.123,9.127,9.127,0,0,1-5.147,3.945,7.735,7.735,0,0,1-2.325.405A3.909,3.909,0,0,1,663.057,199.669Zm5.149-13.471a2.04,2.04,0,0,0-1.1.808,4.266,4.266,0,0,0-.557,1.769,25.016,25.016,0,0,0-.165,3.285,22.5,22.5,0,0,0,.165,3.191,2.384,2.384,0,0,0,.557,1.415,1.091,1.091,0,0,0,1.1.117,2.052,2.052,0,0,0,1.114-.787,4.161,4.161,0,0,0,.547-1.739,26.065,26.065,0,0,0,.164-3.358,23.55,23.55,0,0,0-.164-3.267,2.2,2.2,0,0,0-.547-1.368.85.85,0,0,0-.54-.168A1.919,1.919,0,0,0,668.205,186.2Zm9.281,7.459-1.269.4v-3.109l1.7-.541.609-4.61-1.37.436v-3.109l1.775-.565.406-3.041,4.133-1.315-.406,3.04,1.726-.549.4-3.04,4.134-1.316-.4,3.04,1.243-.4V182.1l-1.649.525-.609,4.61,1.319-.42v3.11l-1.75.557-.431,3.369-4.134,1.316.432-3.369-1.723.548-.432,3.369-4.133,1.316Zm5.171-9.171-.606,4.608,1.723-.549.609-4.61Z" transform="translate(-530.426 -128.565)" stroke="rgba(0,0,0,0)" stroke-width="1" opacity="0.5" fill="url(#linear-gradient)"/>
    <path id="Union_1" data-name="Union 1" d="M633.92,210.571a3.755,3.755,0,0,1-2.4-1.051,3.12,3.12,0,0,1-.823-2.23,4.943,4.943,0,0,1,.8-2.659,8.7,8.7,0,0,1,2.269-2.363,3.135,3.135,0,0,1-2.41-3.254,4.994,4.994,0,0,1,.786-2.607,8.307,8.307,0,0,1,2.257-2.371,11.791,11.791,0,0,1,3.4-1.686,7.536,7.536,0,0,1,4.681-.317,2.525,2.525,0,0,1,1.736,2.643,4.8,4.8,0,0,1-.659,2.258,8.752,8.752,0,0,1-2,2.39,4.5,4.5,0,0,1,2.524,1.159,3.1,3.1,0,0,1,.8,2.223,5.476,5.476,0,0,1-.838,2.784,9.02,9.02,0,0,1-2.459,2.633,13.206,13.206,0,0,1-3.9,1.934,10.327,10.327,0,0,1-3.087.553A5.941,5.941,0,0,1,633.92,210.571Zm2.067-6.616a3.56,3.56,0,0,0-.318,1.458,1.216,1.216,0,0,0,.6,1.167,2,2,0,0,0,1.584.014,3.077,3.077,0,0,0,1.534-.981,2.219,2.219,0,0,0,.521-1.4,1.3,1.3,0,0,0-.456-1.138,3.293,3.293,0,0,0-1.545-.421l-.964-.039A4.316,4.316,0,0,0,635.987,203.954Zm1.839-8.432a2.489,2.489,0,0,0-1.193.762,1.909,1.909,0,0,0-.431,1.261,1.485,1.485,0,0,0,.329,1.017,1.81,1.81,0,0,0,1.09.5l.609.053a4.29,4.29,0,0,0,.914-1.351,3.692,3.692,0,0,0,.228-1.282,1.055,1.055,0,0,0-.392-.935.9.9,0,0,0-.519-.142A2.132,2.132,0,0,0,637.826,195.523Zm-18.232,9.727,2.484-3.11-3.423.67,1.294-4.187,3.018.619-.609-3.162,4.158-1.324-.608,3.55,2.991-2.557,1.294,3.363-3.4,1.526,2.511,1.5-3.372,3.467-1.5-2.558-1.472,3.528Zm29.515.487a3.746,3.746,0,0,1-2.4-1.051,3.116,3.116,0,0,1-.823-2.23,4.944,4.944,0,0,1,.8-2.659,8.7,8.7,0,0,1,2.27-2.363,3.135,3.135,0,0,1-2.411-3.254,5,5,0,0,1,.786-2.606,8.3,8.3,0,0,1,2.259-2.371,11.777,11.777,0,0,1,3.4-1.686,7.537,7.537,0,0,1,4.681-.318,2.526,2.526,0,0,1,1.735,2.643,4.812,4.812,0,0,1-.658,2.258,8.739,8.739,0,0,1-2,2.389,4.5,4.5,0,0,1,2.524,1.159,3.1,3.1,0,0,1,.8,2.224,5.475,5.475,0,0,1-.838,2.784,9.032,9.032,0,0,1-2.46,2.633,13.163,13.163,0,0,1-3.9,1.934,10.3,10.3,0,0,1-3.086.553A5.962,5.962,0,0,1,649.109,205.736Zm2.067-6.616a3.565,3.565,0,0,0-.318,1.458,1.214,1.214,0,0,0,.6,1.167,2,2,0,0,0,1.585.014,3.08,3.08,0,0,0,1.534-.981,2.225,2.225,0,0,0,.52-1.4,1.3,1.3,0,0,0-.456-1.138,3.283,3.283,0,0,0-1.546-.422l-.964-.038A4.322,4.322,0,0,0,651.176,199.12Zm1.839-8.431a2.488,2.488,0,0,0-1.193.762,1.915,1.915,0,0,0-.432,1.261,1.477,1.477,0,0,0,.331,1.017,1.8,1.8,0,0,0,1.089.5l.609.053a4.307,4.307,0,0,0,.914-1.351,3.679,3.679,0,0,0,.227-1.282,1.053,1.053,0,0,0-.392-.935.9.9,0,0,0-.518-.142A2.131,2.131,0,0,0,653.015,190.689Zm10.042,8.98q-1.8-1.735-1.8-5.979a13.069,13.069,0,0,1,1.8-7.1,9.17,9.17,0,0,1,5.149-3.92q3.346-1.065,5.147.644t1.8,5.953a13.188,13.188,0,0,1-1.8,7.123,9.127,9.127,0,0,1-5.147,3.945,7.735,7.735,0,0,1-2.325.405A3.909,3.909,0,0,1,663.057,199.669Zm5.149-13.471a2.04,2.04,0,0,0-1.1.808,4.266,4.266,0,0,0-.557,1.769,25.016,25.016,0,0,0-.165,3.285,22.5,22.5,0,0,0,.165,3.191,2.384,2.384,0,0,0,.557,1.415,1.091,1.091,0,0,0,1.1.117,2.052,2.052,0,0,0,1.114-.787,4.161,4.161,0,0,0,.547-1.739,26.065,26.065,0,0,0,.164-3.358,23.55,23.55,0,0,0-.164-3.267,2.2,2.2,0,0,0-.547-1.368.85.85,0,0,0-.54-.168A1.919,1.919,0,0,0,668.205,186.2Zm9.281,7.459-1.269.4v-3.109l1.7-.541.609-4.61-1.37.436v-3.109l1.775-.565.406-3.041,4.133-1.315-.406,3.04,1.726-.549.4-3.04,4.134-1.316-.4,3.04,1.243-.4V182.1l-1.649.525-.609,4.61,1.319-.42v3.11l-1.75.557-.431,3.369-4.134,1.316.432-3.369-1.723.548-.432,3.369-4.133,1.316Zm5.171-9.171-.606,4.608,1.723-.549.609-4.61Z" transform="translate(-528.426 -126.565)" stroke="rgba(0,0,0,0)" stroke-width="1" fill="url(#linear-gradient)"/>
  </g>
</svg>
