<?xml version="1.0" encoding="UTF-8"?><svg id="Lager_2" xmlns="http://www.w3.org/2000/svg" viewBox="0 0 47.61 50.82"><defs><style>.cls-1{fill:#005e41;}.cls-2{fill:none;stroke:#005e41;stroke-miterlimit:10;stroke-width:4px;}</style></defs><path class="cls-2" d="M22.64,38.5h0c0-5.7-4.62-10.32-10.32-10.32s-10.32,4.62-10.32,10.32v10.32H12.32c5.7,0,10.32-4.62,10.32-10.32Zm0-26.18h0c0,5.7-4.62,10.32-10.32,10.32S2,18.02,2,12.32V2H12.32c5.7,0,10.32,4.62,10.32,10.32Zm12.65,23.31h0c-5.7,0-10.32-4.62-10.32-10.32s4.62-10.32,10.32-10.32h10.32v10.32c0,5.7-4.62,10.32-10.32,10.32Z"/><path class="cls-1" d="M39.56,25.44c0-2.25-1.83-4.08-4.08-4.08s-4.08,1.83-4.08,4.08,1.83,4.08,4.08,4.08,4.08-1.83,4.08-4.08Z"/></svg>