<svg xmlns="http://www.w3.org/2000/svg" width="126.857" height="30" viewBox="0 0 126.857 30"><defs><style>.a{fill:#e20020;}.b{fill:#fff;}</style></defs><path class="a" d="M3.091,29.773c-1.407-.12-2.476-.23-3.091-.318V.5C.573.416,1.536.325,3.327.182,4.914.061,6.844,0,9.064,0c3.333,0,5.762.595,7.423,1.818A5.849,5.849,0,0,1,18.98,6.9a6.484,6.484,0,0,1-1.051,3.891h.027a6.534,6.534,0,0,1-2.1,2.027,8.065,8.065,0,0,1-1.568.682,8.055,8.055,0,0,1,1.894.537,6.234,6.234,0,0,1,2.52,1.973,6.48,6.48,0,0,1,1.242,4.264,8.957,8.957,0,0,1-2.964,7.118C15.015,29.122,12.192,30,8.583,30,6.692,30,4.9,29.926,3.091,29.773Zm2.728-4.727a11.043,11.043,0,0,0,1.242.272,12.191,12.191,0,0,0,2.054.174h.112A4.829,4.829,0,0,0,12.78,24.3a4.9,4.9,0,0,0,1.187-3.58l-.018.1a4.13,4.13,0,0,0-1.264-3.286,5.684,5.684,0,0,0-3.793-1.1H5.819ZM8.737,4.8c-.913,0-1.543.02-1.985.063-.215.021-.394.044-.538.063a3.47,3.47,0,0,1-.368.038v7.191l.97.063H8.484c.134.011.27.016.4.016a5,5,0,0,0,3.058-1.052,3.752,3.752,0,0,0,1.115-2.891V8.273a3.144,3.144,0,0,0-1.124-2.563,4.888,4.888,0,0,0-2.864-.92C8.962,4.789,8.848,4.793,8.737,4.8ZM57.863,29.454,47.168.5H53.8l6.861,18.909L67.752.5h5.991L62.585,29.454Zm-26.783,0V5.864H21.69V.5H46.4V5.864H37.071v23.59Z"/><path class="b" d="M18.237,23.373v5.69H16.605V20.427l1.4-.254,4.54,5.718V20.3h1.631v8.637l-1.314.309ZM3.416,29.218c-.6,0-1.211-.007-1.658-.055-.172-.018-.325-.038-.459-.055a4.455,4.455,0,0,0-.447-.045V20.3c.146-.021.393-.044.736-.074l.27-.025c.478-.036,1.064-.055,1.741-.055.088-.006.177-.009.264-.009a3.852,3.852,0,0,1,1.974.546A1.811,1.811,0,0,1,6.6,22.236a1.962,1.962,0,0,1-.326,1.181H6.245a1.965,1.965,0,0,1-.635.609,2.71,2.71,0,0,1-.471.209,2.174,2.174,0,0,1,.58.164,1.81,1.81,0,0,1,.761.591,1.96,1.96,0,0,1,.381,1.291,2.719,2.719,0,0,1-.906,2.145,3.708,3.708,0,0,1-2.294.8C3.579,29.226,3.5,29.224,3.416,29.218Zm.2-1.3a1.235,1.235,0,0,0,.175.012,1.271,1.271,0,0,0,1.256-1.449l.028-.027a1.248,1.248,0,0,0-.384-.993,1.72,1.72,0,0,0-1.148-.334H2.61v2.654l.344.091a3.45,3.45,0,0,0,.572.047l.09,0ZM2.583,23.873h.8c.042,0,.084.006.126.006a1.529,1.529,0,0,0,.926-.315,1.128,1.128,0,0,0,.336-.9.957.957,0,0,0-.345-.726,1.448,1.448,0,0,0-.866-.286c-.034,0-.069,0-.1,0h-.87Zm4.56,5.19,3.68-8.763H12.39L15.8,29.062l-1.975-.017-.8-2.173H9.671l-.834,2.191h-1.7Zm3.091-3.582h2.293L11.42,22.463Zm20.792,3.582L27.7,24.872v4.191H25.886V20.3H27.7v4.119L31.062,20.3h2.22l-3.625,4.228,3.8,4.536ZM18.218,13.272v5.691H16.586V10.327l1.406-.254,4.54,5.718V10.2h1.623v8.636l-1.305.309Zm10.505,5.855c-.418,0-.836-.016-1.242-.046-.158-.011-.306-.029-.449-.047a4.507,4.507,0,0,0-.521-.044l-.562-.063V10.2l1.378-.091a16.191,16.191,0,0,1,1.722-.064h.007a5.732,5.732,0,0,1,1.805.291,4.136,4.136,0,0,1,1.468.827,3.726,3.726,0,0,1,.915,1.272,4.172,4.172,0,0,1,.345,1.709l.091.037a6.445,6.445,0,0,1-.272,1.909,4.32,4.32,0,0,1-.852,1.573,4.028,4.028,0,0,1-1.55,1.073,6.129,6.129,0,0,1-2.161.392Zm.413-1.535a2.7,2.7,0,0,0,1.418-.4,2.432,2.432,0,0,0,.907-1.1,4.305,4.305,0,0,0,.29-1.627l-.055.073a3.02,3.02,0,0,0-.38-1.6,2.186,2.186,0,0,0-1.007-.909,3.491,3.491,0,0,0-1.378-.281H27.708v5.681a2.684,2.684,0,0,0,.426.1,5.159,5.159,0,0,0,.81.065h.1ZM46.66,19l-2.546-3.5h-.48v3.463H41.821V10.2l1.169-.064h1.423l.121,0a4.144,4.144,0,0,1,1.6.32,2.256,2.256,0,0,1,1.024.909,3.357,3.357,0,0,1,.336,1.555,2.282,2.282,0,0,1-.272,1.1l-.036-.01a2.641,2.641,0,0,1-.617.818,1.573,1.573,0,0,1-.6.364l2.637,3.418L46.66,19Zm-2.791-7.335-.263.045v2.437l.3.064a2.9,2.9,0,0,0,.508.045h.074a1.138,1.138,0,0,0,.858-.391,1.554,1.554,0,0,0,.308-.982l-.018.036a1.268,1.268,0,0,0-.326-.909,1.224,1.224,0,0,0-.856-.346H44.4c-.089-.007-.179-.009-.268-.009S43.957,11.657,43.869,11.664Zm-35.1,7.3H7.088L10.777,10.2h1.532l3.443,8.762-1.929,0-.807-2.172H9.671l-.906,2.172h0Zm1.423-3.583h2.284l-1.106-3.054ZM35,18.964V10.2h5.293v1.582H36.808v1.837H40v1.6h-3.19v2.164h3.807v1.582Zm-34.144,0V10.2H2.665v7.145h3.8v1.618Zm12.626-7.918a.786.786,0,0,1,0-1.037.705.705,0,0,1,.493-.2h.024a.9.9,0,0,1,.371.091.707.707,0,0,1,.263.254H14.62a.7.7,0,0,1,.1.354.8.8,0,0,1-.1.391.78.78,0,0,1-.639.354h-.014A.68.68,0,0,1,13.478,11.045Zm-4.948-.028a.711.711,0,0,1-.2-.509.671.671,0,0,1,.68-.727h.018a.86.86,0,0,1,.371.091.75.75,0,0,1,.272.255v.027a.7.7,0,0,1,.091.354.82.82,0,0,1-.091.364.649.649,0,0,1-.272.254.738.738,0,0,1-.371.1H9.019A.681.681,0,0,1,8.529,11.018ZM24.282,8.9h0L21.735,5.4h-.517V8.827H19.406V.064L20.566,0h1.467A4.117,4.117,0,0,1,23.72.364a2.192,2.192,0,0,1,1.024.909,3.179,3.179,0,0,1,.336,1.546,2.42,2.42,0,0,1-.272,1.109l.009-.009a2.878,2.878,0,0,1-.616.809,1.579,1.579,0,0,1-.6.363L26.24,8.509,24.283,8.9ZM21.218,4.109l.308.055c.086.008.175.013.263.013s.175,0,.263-.013l.067,0a1.093,1.093,0,0,0,.84-.394,1.493,1.493,0,0,0,.308-.982l-.027.073a1.25,1.25,0,0,0-.317-.909,1.24,1.24,0,0,0-.861-.346h-.045c-.089-.006-.179-.008-.268-.008s-.179,0-.268.008h-.263ZM3.236,8.873,0,.1H2.012L4.088,5.827,6.227.1H8.049L4.668,8.873Zm9.335-.009V.1h5.3V1.691H14.393V3.518h3.181v1.6H14.393V7.282h3.8V8.864Zm-3.671,0V.1h1.813V8.864Z" transform="translate(78.248 0.399)"/></svg>