<svg xmlns="http://www.w3.org/2000/svg" width="24" height="24" viewBox="0 0 24 24"><script xmlns="" type="text/javascript" charset="utf-8" id="zm-extension"/>
    <path fill="#6C94C0" fill-rule="evenodd" d="M3.393 11.5l.643-3h6.214a.75.75 0 1 0 0-1.5H4.357l.389-1.814A1.5 1.5 0 0 1 6.213 4h8.932a1.5 1.5 0 0 1 1.466 1.814L16.143 8h.15a3 3 0 0 1 2.581 1.472l2.336 3.947a2 2 0 0 1 .258 1.302l-.223 1.562A2 2 0 0 1 19.265 18h-.436a3.001 3.001 0 0 1-5.658 0H13v-.015c-.07.01-.14.015-.213.015H8.83a3.001 3.001 0 0 1-5.72-.2 1.5 1.5 0 0 1-.72-1.614L3.07 13H9.25a.75.75 0 1 0 0-1.5H3.393zM6 18a1 1 0 1 0 0-2 1 1 0 0 0 0 2zm11.686-7.448a2 2 0 0 0-1.704-.952H15.8l-.9 3.9h4.6l-1.814-2.948zM16 18a1 1 0 1 0 0-2 1 1 0 0 0 0 2z"/>
</svg>