<svg width="70" height="44" viewBox="0 0 70 44" fill="none" xmlns="http://www.w3.org/2000/svg"><path d="M24.21 9.184C25.214 8.277 25.572 8 25.883 8c.383 0 .622.302.478.705-.382 1.36-1.028 5.038-1.602 8.287-.406 2.368-1.29 6.902-1.482 7.834-.956 5.189-1.984 10.529-5.81 12.493a5.206 5.206 0 0 1-2.63.68c-1.673 0-3.418-.377-3.896-2.443A118.696 118.696 0 0 1 8 12.761c0-.907.12-1.285.478-1.814.741-.982 2.152-1.511 3.586-1.511 2.798 0 3.42 1.511 3.42 4.458 0 .428-.072 1.184-.025 1.763.263 3.224.957 14.988 1.315 16.776 1.674-4.156 3.682-18.64 6.216-22.468.478-.756.861-.63 1.196-.756l.024-.025Z" fill="#007782"/></svg>